M48
; DRILL file {KiCad (6.0.6-0)} date 2022 September 08, Thursday 19:57:59
; FORMAT={-:-/ absolute / inch / decimal}
; #@! TF.CreationDate,2022-09-08T19:57:59-07:00
; #@! TF.GenerationSoftware,Kicad,Pcbnew,(6.0.6-0)
; #@! TF.FileFunction,Plated,1,2,PTH
FMAT,2
INCH
; #@! TA.AperFunction,Plated,PTH,ViaDrill
T1C0.0157
; #@! TA.AperFunction,Plated,PTH,ViaDrill
T2C0.0454
; #@! TA.AperFunction,Plated,PTH,ComponentDrill
T3C0.0591
%
G90
G05
T1
X2.936Y-2.802
X3.098Y-2.89
X3.22Y-2.782
X3.584Y-2.8955
X3.72Y-2.832
X4.206Y-2.724
X4.24Y-2.724
X4.284Y-2.724
X4.4013Y-2.8971
X4.508Y-2.734
X4.586Y-2.734
X4.616Y-2.888
X4.642Y-2.736
X4.65Y-2.928
X4.74Y-2.876
X4.784Y-2.916
X4.786Y-3.002
X4.796Y-2.734
X4.798Y-2.826
X4.844Y-2.932
X4.888Y-2.876
X4.89Y-2.774
X4.946Y-2.94
X4.992Y-2.734
X5.068Y-2.918
X5.118Y-2.99
X5.15Y-3.112
X5.17Y-2.738
X5.2958Y-2.8082
X5.304Y-2.738
X5.306Y-2.99
X5.352Y-3.116
X5.378Y-2.95
X5.3858Y-2.8082
X5.39Y-3.01
X5.4578Y-2.9082
X5.474Y-2.998
T2
X2.962Y-2.566
X5.532Y-3.132
T3
X2.609Y-2.754
X2.609Y-2.862
X4.659Y-3.183
X5.05Y-3.183
X5.441Y-3.183
X5.623Y-2.824
X5.623Y-3.05
T0
M30
