%TF.GenerationSoftware,KiCad,Pcbnew,(6.0.6-0)*%
%TF.CreationDate,2022-09-10T00:16:47-07:00*%
%TF.ProjectId,Battery Extension PCB,42617474-6572-4792-9045-7874656e7369,rev?*%
%TF.SameCoordinates,Original*%
%TF.FileFunction,Soldermask,Bot*%
%TF.FilePolarity,Negative*%
%FSLAX46Y46*%
G04 Gerber Fmt 4.6, Leading zero omitted, Abs format (unit mm)*
G04 Created by KiCad (PCBNEW (6.0.6-0)) date 2022-09-10 00:16:47*
%MOMM*%
%LPD*%
G01*
G04 APERTURE LIST*
%ADD10R,2.000000X3.500000*%
%ADD11R,3.500000X2.000000*%
%ADD12C,0.800000*%
%ADD13C,1.300000*%
G04 APERTURE END LIST*
D10*
%TO.C,P14*%
X128244600Y-80721200D03*
%TD*%
%TO.C,P10*%
X118338600Y-80721200D03*
%TD*%
D11*
%TO.C,P9*%
X66751200Y-72694800D03*
%TD*%
%TO.C,P8*%
X66751200Y-69926200D03*
%TD*%
%TO.C,P6*%
X142240000Y-71729600D03*
%TD*%
%TO.C,P5*%
X142240000Y-77343000D03*
%TD*%
D10*
%TO.C,P4*%
X138252200Y-80721200D03*
%TD*%
D12*
X138684000Y-78486000D03*
X117754400Y-78384400D03*
X140004800Y-77774800D03*
X71374000Y-70358000D03*
X70662800Y-69342000D03*
D13*
X141071600Y-74676000D03*
X75031600Y-65430400D03*
D12*
X118110000Y-74371200D03*
X130810000Y-79044800D03*
X136799194Y-71328406D03*
X117246400Y-73355200D03*
X114503200Y-69443600D03*
X121818400Y-69443600D03*
X121513600Y-74066400D03*
X108813600Y-69189600D03*
X106832400Y-69189600D03*
X134513194Y-71328406D03*
X135940800Y-79146400D03*
X131318000Y-69545200D03*
X120396000Y-73050400D03*
X117906800Y-69494400D03*
X116484400Y-69443600D03*
X124155200Y-73050400D03*
X138627989Y-73868411D03*
X107696000Y-69189600D03*
X128727200Y-74117200D03*
X134721600Y-69545200D03*
X94488000Y-71932800D03*
X81788000Y-70662800D03*
X126796800Y-69443600D03*
X74523600Y-71018400D03*
X123037600Y-74472800D03*
X124206000Y-70459600D03*
X129997200Y-75946000D03*
X134772400Y-75946000D03*
X121869200Y-71780400D03*
X121564400Y-76250800D03*
X78689200Y-73406000D03*
X137174900Y-75857700D03*
X125628400Y-74676000D03*
X139039600Y-75133200D03*
X136601200Y-74930000D03*
X91033600Y-73546700D03*
X111793279Y-73585132D03*
M02*
