%TF.GenerationSoftware,KiCad,Pcbnew,(6.0.6-0)*%
%TF.CreationDate,2022-09-10T00:16:47-07:00*%
%TF.ProjectId,Battery Extension PCB,42617474-6572-4792-9045-7874656e7369,rev?*%
%TF.SameCoordinates,Original*%
%TF.FileFunction,Copper,L1,Top*%
%TF.FilePolarity,Positive*%
%FSLAX46Y46*%
G04 Gerber Fmt 4.6, Leading zero omitted, Abs format (unit mm)*
G04 Created by KiCad (PCBNEW (6.0.6-0)) date 2022-09-10 00:16:47*
%MOMM*%
%LPD*%
G01*
G04 APERTURE LIST*
G04 Aperture macros list*
%AMRoundRect*
0 Rectangle with rounded corners*
0 $1 Rounding radius*
0 $2 $3 $4 $5 $6 $7 $8 $9 X,Y pos of 4 corners*
0 Add a 4 corners polygon primitive as box body*
4,1,4,$2,$3,$4,$5,$6,$7,$8,$9,$2,$3,0*
0 Add four circle primitives for the rounded corners*
1,1,$1+$1,$2,$3*
1,1,$1+$1,$4,$5*
1,1,$1+$1,$6,$7*
1,1,$1+$1,$8,$9*
0 Add four rect primitives between the rounded corners*
20,1,$1+$1,$2,$3,$4,$5,0*
20,1,$1+$1,$4,$5,$6,$7,0*
20,1,$1+$1,$6,$7,$8,$9,0*
20,1,$1+$1,$8,$9,$2,$3,0*%
G04 Aperture macros list end*
%TA.AperFunction,SMDPad,CuDef*%
%ADD10R,3.500000X2.000000*%
%TD*%
%TA.AperFunction,SMDPad,CuDef*%
%ADD11R,2.000000X3.500000*%
%TD*%
%TA.AperFunction,SMDPad,CuDef*%
%ADD12R,1.072009X0.532004*%
%TD*%
%TA.AperFunction,SMDPad,CuDef*%
%ADD13RoundRect,0.237500X-0.300000X-0.237500X0.300000X-0.237500X0.300000X0.237500X-0.300000X0.237500X0*%
%TD*%
%TA.AperFunction,SMDPad,CuDef*%
%ADD14R,3.000000X2.100000*%
%TD*%
%TA.AperFunction,SMDPad,CuDef*%
%ADD15R,1.600000X0.800000*%
%TD*%
%TA.AperFunction,SMDPad,CuDef*%
%ADD16RoundRect,0.237500X-0.250000X-0.237500X0.250000X-0.237500X0.250000X0.237500X-0.250000X0.237500X0*%
%TD*%
%TA.AperFunction,SMDPad,CuDef*%
%ADD17RoundRect,0.250000X-0.400000X-1.450000X0.400000X-1.450000X0.400000X1.450000X-0.400000X1.450000X0*%
%TD*%
%TA.AperFunction,SMDPad,CuDef*%
%ADD18R,1.000000X0.550013*%
%TD*%
%TA.AperFunction,SMDPad,CuDef*%
%ADD19RoundRect,0.237500X0.237500X-0.300000X0.237500X0.300000X-0.237500X0.300000X-0.237500X-0.300000X0*%
%TD*%
%TA.AperFunction,SMDPad,CuDef*%
%ADD20R,1.900000X2.500000*%
%TD*%
%TA.AperFunction,SMDPad,CuDef*%
%ADD21RoundRect,0.237500X-0.237500X0.300000X-0.237500X-0.300000X0.237500X-0.300000X0.237500X0.300000X0*%
%TD*%
%TA.AperFunction,SMDPad,CuDef*%
%ADD22RoundRect,0.237500X0.237500X-0.250000X0.237500X0.250000X-0.237500X0.250000X-0.237500X-0.250000X0*%
%TD*%
%TA.AperFunction,SMDPad,CuDef*%
%ADD23R,1.200000X0.600000*%
%TD*%
%TA.AperFunction,SMDPad,CuDef*%
%ADD24R,2.500000X3.499873*%
%TD*%
%TA.AperFunction,SMDPad,CuDef*%
%ADD25RoundRect,0.237500X0.300000X0.237500X-0.300000X0.237500X-0.300000X-0.237500X0.300000X-0.237500X0*%
%TD*%
%TA.AperFunction,SMDPad,CuDef*%
%ADD26RoundRect,0.250000X0.550000X-1.500000X0.550000X1.500000X-0.550000X1.500000X-0.550000X-1.500000X0*%
%TD*%
%TA.AperFunction,SMDPad,CuDef*%
%ADD27R,3.400000X5.000000*%
%TD*%
%TA.AperFunction,SMDPad,CuDef*%
%ADD28RoundRect,0.100000X-0.687500X-0.100000X0.687500X-0.100000X0.687500X0.100000X-0.687500X0.100000X0*%
%TD*%
%TA.AperFunction,SMDPad,CuDef*%
%ADD29RoundRect,0.237500X0.250000X0.237500X-0.250000X0.237500X-0.250000X-0.237500X0.250000X-0.237500X0*%
%TD*%
%TA.AperFunction,SMDPad,CuDef*%
%ADD30RoundRect,0.237500X-0.237500X0.250000X-0.237500X-0.250000X0.237500X-0.250000X0.237500X0.250000X0*%
%TD*%
%TA.AperFunction,SMDPad,CuDef*%
%ADD31R,0.532004X1.037490*%
%TD*%
%TA.AperFunction,ViaPad*%
%ADD32C,0.800000*%
%TD*%
%TA.AperFunction,ViaPad*%
%ADD33C,1.300000*%
%TD*%
%TA.AperFunction,Conductor*%
%ADD34C,0.250000*%
%TD*%
%TA.AperFunction,Conductor*%
%ADD35C,0.600000*%
%TD*%
%TA.AperFunction,Conductor*%
%ADD36C,0.200000*%
%TD*%
%TA.AperFunction,Conductor*%
%ADD37C,1.000000*%
%TD*%
%TA.AperFunction,Conductor*%
%ADD38C,0.300000*%
%TD*%
%TA.AperFunction,Conductor*%
%ADD39C,1.650000*%
%TD*%
%TA.AperFunction,Conductor*%
%ADD40C,0.350000*%
%TD*%
%TA.AperFunction,Conductor*%
%ADD41C,1.100000*%
%TD*%
%TA.AperFunction,Conductor*%
%ADD42C,0.550000*%
%TD*%
%TA.AperFunction,Conductor*%
%ADD43C,1.200000*%
%TD*%
%TA.AperFunction,Conductor*%
%ADD44C,1.600000*%
%TD*%
G04 APERTURE END LIST*
D10*
%TO.P,P13,1*%
%TO.N,GND*%
X142240000Y-71729600D03*
%TD*%
%TO.P,P12,1*%
%TO.N,+5V*%
X142240000Y-77343000D03*
%TD*%
D11*
%TO.P,P11,1*%
%TO.N,IO27{slash}BATT CHARGING*%
X138252200Y-80721200D03*
%TD*%
%TO.P,P7,1*%
%TO.N,VBUS*%
X128244600Y-80721200D03*
%TD*%
%TO.P,P3,1*%
%TO.N,IO26{slash}BATT VOLT*%
X118338600Y-80721200D03*
%TD*%
D12*
%TO.P,U6,1,OD*%
%TO.N,Net-(U3-Pad6)*%
X133451600Y-75925676D03*
%TO.P,U6,2,VM*%
%TO.N,Net-(R5-Pad2)*%
X133451600Y-76875638D03*
%TO.P,U6,3,OC*%
%TO.N,Net-(U3-Pad4)*%
X133451600Y-77825600D03*
%TO.P,U6,4,TD*%
%TO.N,unconnected-(U6-Pad4)*%
X135749796Y-77825600D03*
%TO.P,U6,5,VCC*%
%TO.N,Net-(R8-Pad1)*%
X135749796Y-76875638D03*
%TO.P,U6,6,GND*%
%TO.N,-BATT*%
X135749796Y-75925676D03*
%TD*%
D13*
%TO.P,C5,1*%
%TO.N,-BATT*%
X125578700Y-70358000D03*
%TO.P,C5,2*%
%TO.N,+BATT*%
X127303700Y-70358000D03*
%TD*%
D14*
%TO.P,U1,0,0*%
%TO.N,unconnected-(U1-Pad0)*%
X72229676Y-66420994D03*
X72229676Y-72771006D03*
D15*
%TO.P,U1,1,1*%
%TO.N,+BATT*%
X75129600Y-68970905D03*
%TO.P,U1,2,2*%
%TO.N,-BATT*%
X75129600Y-70221095D03*
%TD*%
D16*
%TO.P,R7,1*%
%TO.N,Net-(R7-Pad1)*%
X137532442Y-72623807D03*
%TO.P,R7,2*%
%TO.N,GND*%
X139357442Y-72623807D03*
%TD*%
D17*
%TO.P,F1,1*%
%TO.N,+BATT*%
X80528200Y-70662800D03*
%TO.P,F1,2*%
%TO.N,Net-(C2-Pad1)*%
X84978200Y-70662800D03*
%TD*%
D16*
%TO.P,R2,1*%
%TO.N,-BATT*%
X75492600Y-71729600D03*
%TO.P,R2,2*%
%TO.N,IO26{slash}BATT VOLT*%
X77317600Y-71729600D03*
%TD*%
D10*
%TO.P,P2,1*%
%TO.N,-BATT*%
X68021200Y-72694800D03*
%TD*%
D18*
%TO.P,U3,1,S1*%
%TO.N,-BATT*%
X129085847Y-75938123D03*
%TO.P,U3,2,D1/D2*%
%TO.N,unconnected-(U3-Pad2)*%
X129085847Y-76888085D03*
%TO.P,U3,3,S2*%
%TO.N,GND*%
X129085847Y-77838047D03*
%TO.P,U3,4,G2*%
%TO.N,Net-(U3-Pad4)*%
X131885949Y-77838047D03*
%TO.P,U3,5,D1/D2*%
%TO.N,unconnected-(U3-Pad5)*%
X131885949Y-76888085D03*
%TO.P,U3,6,G1*%
%TO.N,Net-(U3-Pad6)*%
X131885949Y-75938123D03*
%TD*%
D19*
%TO.P,C3,1*%
%TO.N,GND*%
X112623600Y-72693700D03*
%TO.P,C3,2*%
%TO.N,+5V*%
X112623600Y-70968700D03*
%TD*%
D16*
%TO.P,R5,1*%
%TO.N,GND*%
X131812706Y-79391539D03*
%TO.P,R5,2*%
%TO.N,Net-(R5-Pad2)*%
X133637706Y-79391539D03*
%TD*%
D20*
%TO.P,U7,1,1*%
%TO.N,Net-(C2-Pad1)*%
X98229162Y-71374000D03*
%TO.P,U7,2,2*%
%TO.N,Net-(U4-Pad1)*%
X102329238Y-71374000D03*
%TD*%
D10*
%TO.P,P1,1*%
%TO.N,+BATT*%
X68021200Y-69926200D03*
%TD*%
D21*
%TO.P,C2,1*%
%TO.N,Net-(C2-Pad1)*%
X95910400Y-70003500D03*
%TO.P,C2,2*%
%TO.N,GND*%
X95910400Y-71728500D03*
%TD*%
D22*
%TO.P,R3,1*%
%TO.N,VBUS*%
X92608400Y-73251700D03*
%TO.P,R3,2*%
%TO.N,Net-(R3-Pad2)*%
X92608400Y-71426700D03*
%TD*%
D23*
%TO.P,U5,1,TEMP*%
%TO.N,GND*%
X135612848Y-73868411D03*
%TO.P,U5,2,PROG*%
%TO.N,Net-(R7-Pad1)*%
X135612848Y-72598408D03*
%TO.P,U5,3,GND*%
%TO.N,GND*%
X135612848Y-71328406D03*
%TO.P,U5,4,VCC*%
%TO.N,VBUS*%
X135612848Y-70058403D03*
%TO.P,U5,5,BAT*%
%TO.N,+BATT*%
X129796236Y-70058403D03*
%TO.P,U5,6,STDBY#*%
%TO.N,unconnected-(U5-Pad6)*%
X129796236Y-71328406D03*
%TO.P,U5,7,CHRG#*%
%TO.N,IO27{slash}BATT CHARGING*%
X129796236Y-72598408D03*
%TO.P,U5,8,CE*%
%TO.N,VBUS*%
X129796236Y-73868411D03*
D24*
%TO.P,U5,9,EP*%
%TO.N,GND*%
X132704542Y-71963407D03*
%TD*%
D25*
%TO.P,C1,1*%
%TO.N,GND*%
X139343300Y-70256400D03*
%TO.P,C1,2*%
%TO.N,VBUS*%
X137618300Y-70256400D03*
%TD*%
D26*
%TO.P,C6,1*%
%TO.N,+5V*%
X119837200Y-76415200D03*
%TO.P,C6,2*%
%TO.N,GND*%
X119837200Y-70815200D03*
%TD*%
D25*
%TO.P,C4,1*%
%TO.N,+BATT*%
X127303700Y-71983600D03*
%TO.P,C4,2*%
%TO.N,GND*%
X125578700Y-71983600D03*
%TD*%
D27*
%TO.P,U4,17,EP*%
%TO.N,GND*%
X107772779Y-71342512D03*
D28*
%TO.P,U4,16,NC*%
%TO.N,unconnected-(U4-Pad16)*%
X110635279Y-69067512D03*
%TO.P,U4,15,VOUT*%
%TO.N,+5V*%
X110635279Y-69717512D03*
%TO.P,U4,14,VOUT*%
X110635279Y-70367512D03*
%TO.P,U4,13,VOUT*%
X110635279Y-71017512D03*
%TO.P,U4,12,FB*%
%TO.N,unconnected-(U4-Pad12)*%
X110635279Y-71667512D03*
%TO.P,U4,11,GND*%
%TO.N,GND*%
X110635279Y-72317512D03*
%TO.P,U4,10,LBO*%
%TO.N,unconnected-(U4-Pad10)*%
X110635279Y-72967512D03*
%TO.P,U4,9,EN*%
%TO.N,Net-(R4-Pad2)*%
X110635279Y-73617512D03*
%TO.P,U4,8,SYNC*%
%TO.N,GND*%
X104910279Y-73617512D03*
%TO.P,U4,7,LBI*%
X104910279Y-72967512D03*
%TO.P,U4,6,VBAT*%
%TO.N,Net-(C2-Pad1)*%
X104910279Y-72317512D03*
%TO.P,U4,5,PGND*%
%TO.N,GND*%
X104910279Y-71667512D03*
%TO.P,U4,4,PGND*%
X104910279Y-71017512D03*
%TO.P,U4,3,PGND*%
X104910279Y-70367512D03*
%TO.P,U4,2,SW*%
%TO.N,Net-(U4-Pad1)*%
X104910279Y-69717512D03*
%TO.P,U4,1,SW*%
X104910279Y-69067512D03*
%TD*%
D29*
%TO.P,R1,1*%
%TO.N,IO26{slash}BATT VOLT*%
X77317600Y-73304400D03*
%TO.P,R1,2*%
%TO.N,+BATT*%
X75492600Y-73304400D03*
%TD*%
D30*
%TO.P,R4,1*%
%TO.N,Net-(C2-Pad1)*%
X87528400Y-71426700D03*
%TO.P,R4,2*%
%TO.N,Net-(R4-Pad2)*%
X87528400Y-73251700D03*
%TD*%
D16*
%TO.P,R8,1*%
%TO.N,Net-(R8-Pad1)*%
X125528700Y-73558400D03*
%TO.P,R8,2*%
%TO.N,+BATT*%
X127353700Y-73558400D03*
%TD*%
D31*
%TO.P,U2,1,B*%
%TO.N,Net-(R3-Pad2)*%
X90967562Y-71288654D03*
%TO.P,U2,2,E*%
%TO.N,GND*%
X89067638Y-71288654D03*
%TO.P,U2,3,C*%
%TO.N,Net-(R4-Pad2)*%
X90017600Y-73491346D03*
%TD*%
D32*
%TO.N,IO27{slash}BATT CHARGING*%
X138684000Y-78486000D03*
%TO.N,IO26{slash}BATT VOLT*%
X117754400Y-78384400D03*
%TO.N,+5V*%
X140004800Y-77774800D03*
%TO.N,-BATT*%
X71374000Y-70358000D03*
%TO.N,+BATT*%
X70662800Y-69342000D03*
D33*
%TO.N,*%
X141071600Y-74676000D03*
X75031600Y-65430400D03*
D32*
%TO.N,GND*%
X118110000Y-74371200D03*
X130810000Y-79044800D03*
X136799194Y-71328406D03*
X117246400Y-73355200D03*
X114503200Y-69443600D03*
X121818400Y-69443600D03*
X121513600Y-74066400D03*
X108813600Y-69189600D03*
X106832400Y-69189600D03*
X134513194Y-71328406D03*
X135940800Y-79146400D03*
X131318000Y-69545200D03*
X120396000Y-73050400D03*
X117906800Y-69494400D03*
X116484400Y-69443600D03*
X124155200Y-73050400D03*
X138627989Y-73868411D03*
X107696000Y-69189600D03*
%TO.N,VBUS*%
X128727200Y-74117200D03*
X134721600Y-69545200D03*
X94488000Y-71932800D03*
%TO.N,+BATT*%
X81788000Y-70662800D03*
X126796800Y-69443600D03*
%TO.N,-BATT*%
X74523600Y-71018400D03*
X123037600Y-74472800D03*
X124206000Y-70459600D03*
X129997200Y-75946000D03*
X134772400Y-75946000D03*
X121869200Y-71780400D03*
%TO.N,+5V*%
X121564400Y-76250800D03*
%TO.N,IO26{slash}BATT VOLT*%
X78689200Y-73406000D03*
%TO.N,Net-(R8-Pad1)*%
X137174900Y-75857700D03*
X125628400Y-74676000D03*
%TO.N,IO27{slash}BATT CHARGING*%
X139039600Y-75133200D03*
X136601200Y-74930000D03*
%TO.N,Net-(R4-Pad2)*%
X91033600Y-73546700D03*
X111793279Y-73585132D03*
%TD*%
D34*
%TO.N,IO27{slash}BATT CHARGING*%
X139039600Y-75946000D02*
X139039600Y-78130400D01*
X139039600Y-78130400D02*
X138684000Y-78486000D01*
X139039600Y-75133200D02*
X139039600Y-75946000D01*
X139039600Y-75946000D02*
X139039600Y-80010000D01*
%TO.N,Net-(R8-Pad1)*%
X137174900Y-75857700D02*
X136156962Y-76875638D01*
X136156962Y-76875638D02*
X135749796Y-76875638D01*
D35*
%TO.N,GND*%
X135940800Y-79146400D02*
X136144000Y-79146400D01*
X136144000Y-79146400D02*
X138074400Y-77216000D01*
X138074400Y-74076822D02*
X137865989Y-73868411D01*
X138074400Y-77216000D02*
X138074400Y-74076822D01*
D34*
%TO.N,IO27{slash}BATT CHARGING*%
X130096236Y-72598408D02*
X130860800Y-73362972D01*
X130860800Y-73660000D02*
X130860800Y-74117200D01*
X130860800Y-74117200D02*
X131318000Y-74574400D01*
X129796236Y-72598408D02*
X130096236Y-72598408D01*
X131673600Y-74930000D02*
X136601200Y-74930000D01*
X131318000Y-74574400D02*
X131673600Y-74930000D01*
X130860800Y-73362972D02*
X130860800Y-73660000D01*
X139039600Y-80010000D02*
X138400633Y-80648967D01*
X138400633Y-80648967D02*
X138201400Y-80648967D01*
D35*
%TO.N,VBUS*%
X128727200Y-74117200D02*
X127609600Y-75234800D01*
X127609600Y-75234800D02*
X127609600Y-79813567D01*
X127609600Y-79813567D02*
X128270000Y-80473967D01*
D36*
%TO.N,IO26{slash}BATT VOLT*%
X118291367Y-80673967D02*
X118338600Y-80673967D01*
X117754400Y-78384400D02*
X117754400Y-80137000D01*
X117754400Y-80137000D02*
X118291367Y-80673967D01*
D37*
%TO.N,+5V*%
X142341600Y-77343000D02*
X140436600Y-77343000D01*
X140436600Y-77343000D02*
X140004800Y-77774800D01*
%TO.N,GND*%
X140251649Y-71729600D02*
X142240000Y-71729600D01*
D35*
%TO.N,-BATT*%
X74523600Y-71018400D02*
X74523600Y-70827095D01*
X74523600Y-70827095D02*
X75129600Y-70221095D01*
X71374000Y-70358000D02*
X71307705Y-70291705D01*
X71307705Y-70291705D02*
X71307705Y-70221095D01*
%TO.N,+BATT*%
X70662800Y-69342000D02*
X70078600Y-69926200D01*
X71033895Y-68970905D02*
X70662800Y-69342000D01*
X75129600Y-68970905D02*
X71033895Y-68970905D01*
D34*
%TO.N,GND*%
X93573600Y-71932800D02*
X93573600Y-71374000D01*
D38*
X104644770Y-71272400D02*
X104899525Y-71017645D01*
D35*
X112165300Y-72693700D02*
X111810800Y-72339200D01*
D39*
X104899525Y-71017645D02*
X107447912Y-71017645D01*
D35*
X135612848Y-73868411D02*
X137865989Y-73868411D01*
X135612848Y-71328406D02*
X136799194Y-71328406D01*
D38*
X107772779Y-70230421D02*
X107772779Y-71342512D01*
D34*
X89067638Y-71288654D02*
X89475054Y-71288654D01*
D37*
X140251649Y-71729600D02*
X142499615Y-71729600D01*
D35*
X138881989Y-73868411D02*
X139357442Y-73392958D01*
D37*
X139357442Y-72623807D02*
X140251649Y-71729600D01*
X107772779Y-69266379D02*
X107772779Y-71342512D01*
D40*
X108747887Y-72317620D02*
X107772779Y-71342512D01*
D35*
X135612848Y-71328406D02*
X134513194Y-71328406D01*
D41*
X105161920Y-73355200D02*
X106781600Y-73355200D01*
D35*
X131156739Y-79391539D02*
X131812706Y-79391539D01*
X136799194Y-71328406D02*
X139339194Y-71328406D01*
D34*
X89475054Y-71288654D02*
X90525600Y-72339200D01*
X90525600Y-72339200D02*
X93167200Y-72339200D01*
D42*
X131207539Y-79391539D02*
X129654047Y-77838047D01*
D35*
X116584900Y-72693700D02*
X117246400Y-73355200D01*
D38*
X107696000Y-69189600D02*
X107772779Y-69266379D01*
D35*
X112623600Y-72693700D02*
X116584900Y-72693700D01*
X139343300Y-72609665D02*
X139357442Y-72623807D01*
D34*
X95910400Y-71983600D02*
X97637600Y-73710800D01*
D35*
X123850400Y-71983600D02*
X125578700Y-71983600D01*
D40*
X110646033Y-72317620D02*
X111789220Y-72317620D01*
D35*
X139343300Y-70256400D02*
X139343300Y-71324300D01*
D34*
X93573600Y-71374000D02*
X93929200Y-71018400D01*
D40*
X110646033Y-72317620D02*
X108747887Y-72317620D01*
D35*
X120396000Y-73050400D02*
X120396000Y-71374000D01*
D37*
X108813600Y-69189600D02*
X107772779Y-70230421D01*
D35*
X132704542Y-70931742D02*
X131318000Y-69545200D01*
X138627989Y-73868411D02*
X138881989Y-73868411D01*
X135612848Y-73868411D02*
X134609546Y-73868411D01*
D38*
X104597200Y-71272400D02*
X104644770Y-71272400D01*
D34*
X97637600Y-73710800D02*
X104806320Y-73710800D01*
D37*
X107447912Y-69805112D02*
X106832400Y-69189600D01*
D38*
X104899525Y-73617595D02*
X105161920Y-73355200D01*
D35*
X112623600Y-72693700D02*
X112165300Y-72693700D01*
D42*
X129654047Y-77838047D02*
X129085847Y-77838047D01*
D34*
X95910400Y-71728500D02*
X95910400Y-71983600D01*
X104806320Y-73710800D02*
X105161920Y-73355200D01*
D35*
X122682000Y-70815200D02*
X123850400Y-71983600D01*
X134513194Y-71328406D02*
X133339543Y-71328406D01*
X137865989Y-73868411D02*
X138627989Y-73868411D01*
X132704542Y-71963407D02*
X132704542Y-70931742D01*
X139343300Y-71324300D02*
X139343300Y-72609665D01*
X134609546Y-73868411D02*
X132704542Y-71963407D01*
D38*
X107772779Y-72364021D02*
X107772779Y-71342512D01*
X111789220Y-72317620D02*
X111810800Y-72339200D01*
X107447912Y-71017645D02*
X107447912Y-69805112D01*
D37*
X117906800Y-69494400D02*
X118516400Y-69494400D01*
D38*
X107447912Y-71017645D02*
X107772779Y-71342512D01*
D35*
X133339543Y-71328406D02*
X132704542Y-71963407D01*
D34*
X95200300Y-71018400D02*
X95910400Y-71728500D01*
D37*
X118516400Y-69494400D02*
X119837200Y-70815200D01*
D41*
X106781600Y-73355200D02*
X107772779Y-72364021D01*
D35*
X120396000Y-71374000D02*
X119837200Y-70815200D01*
D34*
X93167200Y-72339200D02*
X93573600Y-71932800D01*
X93929200Y-71018400D02*
X95200300Y-71018400D01*
D35*
X139357442Y-73392958D02*
X139357442Y-72623807D01*
X131812706Y-79391539D02*
X131207539Y-79391539D01*
X139339194Y-71328406D02*
X139343300Y-71324300D01*
X130810000Y-79044800D02*
X131156739Y-79391539D01*
X119837200Y-70815200D02*
X122682000Y-70815200D01*
%TO.N,VBUS*%
X135612848Y-70058403D02*
X137420303Y-70058403D01*
D36*
X94488000Y-71932800D02*
X93169100Y-73251700D01*
D35*
X135234803Y-70058403D02*
X134721600Y-69545200D01*
X137420303Y-70058403D02*
X137618300Y-70256400D01*
D36*
X93169100Y-73251700D02*
X92608400Y-73251700D01*
D35*
X135612848Y-70058403D02*
X135234803Y-70058403D01*
X128975989Y-73868411D02*
X128727200Y-74117200D01*
X129796236Y-73868411D02*
X128975989Y-73868411D01*
D43*
%TO.N,Net-(C2-Pad1)*%
X96113600Y-69646800D02*
X86512400Y-69646800D01*
D34*
X104119274Y-72317620D02*
X103437294Y-72999600D01*
D36*
X85742100Y-71426700D02*
X84978200Y-70662800D01*
D43*
X86512400Y-69646800D02*
X85496400Y-70662800D01*
D35*
X98432362Y-71374000D02*
X98247200Y-71374000D01*
X98247200Y-71374000D02*
X98094800Y-71526400D01*
D34*
X104899525Y-72317620D02*
X104119274Y-72317620D01*
X99854762Y-72999600D02*
X98229162Y-71374000D01*
D43*
X98094800Y-71526400D02*
X97993200Y-71526400D01*
X97993200Y-71526400D02*
X96113600Y-69646800D01*
D34*
X103437294Y-72999600D02*
X99854762Y-72999600D01*
D36*
X87528400Y-71426700D02*
X85742100Y-71426700D01*
D35*
X85496400Y-70662800D02*
X84978200Y-70662800D01*
%TO.N,+BATT*%
X79613800Y-69748400D02*
X80528200Y-70662800D01*
X81788000Y-70662800D02*
X80528200Y-70662800D01*
X68021200Y-69926200D02*
X66594540Y-69926200D01*
D36*
X76403200Y-70358000D02*
X77012800Y-69748400D01*
D35*
X127303700Y-70358000D02*
X127303700Y-69950500D01*
X127303700Y-70358000D02*
X127303700Y-71983600D01*
X129796236Y-70058403D02*
X127603297Y-70058403D01*
D36*
X75492600Y-73249800D02*
X76403200Y-72339200D01*
D35*
X127303700Y-71983600D02*
X127303700Y-73508400D01*
X127603297Y-70058403D02*
X127303700Y-70358000D01*
D36*
X75492600Y-73304400D02*
X75492600Y-73249800D01*
D35*
X77012800Y-69748400D02*
X79613800Y-69748400D01*
X76235305Y-68970905D02*
X77012800Y-69748400D01*
D36*
X76403200Y-72339200D02*
X76403200Y-70358000D01*
D35*
X75129600Y-68970905D02*
X76235305Y-68970905D01*
X127303700Y-69950500D02*
X126796800Y-69443600D01*
X66594540Y-69926200D02*
X66594540Y-69951600D01*
X70078600Y-69926200D02*
X68021200Y-69926200D01*
X127303700Y-73508400D02*
X127353700Y-73558400D01*
%TO.N,-BATT*%
X125578700Y-70358000D02*
X124307600Y-70358000D01*
D42*
X129997200Y-75946000D02*
X129093724Y-75946000D01*
D35*
X124307600Y-70358000D02*
X124206000Y-70459600D01*
D36*
X75492600Y-70584095D02*
X75129600Y-70221095D01*
D34*
X129093724Y-75946000D02*
X129085847Y-75938123D01*
D42*
X135749796Y-75925676D02*
X134792724Y-75925676D01*
D34*
X134792724Y-75925676D02*
X134772400Y-75946000D01*
D42*
X123037600Y-74472800D02*
X123037600Y-72948800D01*
D35*
X68021200Y-72694800D02*
X66594540Y-72694800D01*
D36*
X75492600Y-71729600D02*
X75492600Y-70584095D01*
D42*
X123037600Y-72948800D02*
X121869200Y-71780400D01*
D35*
X75129600Y-70221095D02*
X71307705Y-70221095D01*
X68834000Y-72694800D02*
X68021200Y-72694800D01*
X71307705Y-70221095D02*
X68834000Y-72694800D01*
%TO.N,+5V*%
X112623600Y-70968700D02*
X112673300Y-71018400D01*
X112777100Y-70815200D02*
X112623600Y-70968700D01*
D37*
X120001600Y-76250800D02*
X119837200Y-76415200D01*
D35*
X112370700Y-70968700D02*
X111760000Y-70358000D01*
X112623600Y-70968700D02*
X112370700Y-70968700D01*
X116382800Y-71018400D02*
X119837200Y-74472800D01*
X112673300Y-71018400D02*
X116382800Y-71018400D01*
X110655437Y-70358000D02*
X110646033Y-70367404D01*
D37*
X121564400Y-76250800D02*
X120001600Y-76250800D01*
D44*
X111760000Y-70358000D02*
X110655437Y-70358000D01*
D35*
X119837200Y-74472800D02*
X119837200Y-76415200D01*
D36*
%TO.N,IO26{slash}BATT VOLT*%
X78587600Y-73304400D02*
X78689200Y-73406000D01*
X77317600Y-73304400D02*
X78587600Y-73304400D01*
X77317600Y-71729600D02*
X77317600Y-73304400D01*
%TO.N,Net-(R3-Pad2)*%
X91105608Y-71426700D02*
X90967562Y-71288654D01*
X92608400Y-71426700D02*
X91105608Y-71426700D01*
D42*
%TO.N,Net-(R5-Pad2)*%
X133451600Y-76875638D02*
X134253644Y-76875638D01*
X134620000Y-77241994D02*
X134620000Y-78409245D01*
X134253644Y-76875638D02*
X134620000Y-77241994D01*
X134620000Y-78409245D02*
X133637706Y-79391539D01*
D35*
%TO.N,Net-(R7-Pad1)*%
X137532442Y-72623807D02*
X135638247Y-72623807D01*
D34*
X135638247Y-72623807D02*
X135612848Y-72598408D01*
%TO.N,Net-(R8-Pad1)*%
X125628400Y-74676000D02*
X125628400Y-73658100D01*
X125628400Y-73658100D02*
X125528700Y-73558400D01*
D42*
%TO.N,Net-(U3-Pad4)*%
X131885949Y-77838047D02*
X133439153Y-77838047D01*
D36*
X133439153Y-77838047D02*
X133451600Y-77825600D01*
D42*
%TO.N,Net-(U3-Pad6)*%
X133451600Y-75925676D02*
X131898396Y-75925676D01*
D34*
X131898396Y-75925676D02*
X131885949Y-75938123D01*
%TO.N,Net-(R4-Pad2)*%
X111793279Y-73585132D02*
X110678496Y-73585132D01*
X91033600Y-73546700D02*
X90072954Y-73546700D01*
D36*
X90017600Y-73491346D02*
X87768046Y-73491346D01*
D34*
X90072954Y-73546700D02*
X90017600Y-73491346D01*
D36*
X87768046Y-73491346D02*
X87528400Y-73251700D01*
D34*
X110678496Y-73585132D02*
X110646033Y-73617595D01*
D41*
%TO.N,Net-(U4-Pad1)*%
X102532438Y-70289162D02*
X103479600Y-69342000D01*
X103479600Y-69342000D02*
X105003600Y-69342000D01*
D34*
X102532438Y-71374000D02*
X102532438Y-70289162D01*
%TD*%
%TA.AperFunction,Conductor*%
%TO.N,GND*%
G36*
X138275901Y-75646818D02*
G01*
X138300098Y-75670559D01*
X138300560Y-75670143D01*
X138300560Y-75670144D01*
X138373737Y-75751415D01*
X138404453Y-75815421D01*
X138406100Y-75835724D01*
X138406100Y-77533426D01*
X138386098Y-77601547D01*
X138331349Y-77648533D01*
X138233278Y-77692197D01*
X138233276Y-77692198D01*
X138227248Y-77694882D01*
X138221907Y-77698762D01*
X138221906Y-77698763D01*
X138217931Y-77701651D01*
X138072747Y-77807134D01*
X138068326Y-77812044D01*
X138068325Y-77812045D01*
X137981452Y-77908528D01*
X137944960Y-77949056D01*
X137849473Y-78114444D01*
X137790458Y-78296072D01*
X137789768Y-78302633D01*
X137789768Y-78302635D01*
X137784804Y-78349870D01*
X137757791Y-78415527D01*
X137699570Y-78456157D01*
X137659494Y-78462700D01*
X137204066Y-78462700D01*
X137141884Y-78469455D01*
X137005495Y-78520585D01*
X136888939Y-78607939D01*
X136801585Y-78724495D01*
X136750455Y-78860884D01*
X136743700Y-78923066D01*
X136743700Y-80139467D01*
X136723698Y-80207588D01*
X136670042Y-80254081D01*
X136617700Y-80265467D01*
X134597457Y-80265467D01*
X134529336Y-80245465D01*
X134482843Y-80191809D01*
X134472739Y-80121535D01*
X134490197Y-80073351D01*
X134564575Y-79952689D01*
X134564576Y-79952687D01*
X134568415Y-79946459D01*
X134623180Y-79781348D01*
X134633706Y-79678611D01*
X134633706Y-79555766D01*
X134653708Y-79487645D01*
X134670611Y-79466670D01*
X135167711Y-78969571D01*
X135168649Y-78968643D01*
X135169218Y-78968086D01*
X135231011Y-78907574D01*
X135253666Y-78872421D01*
X135261104Y-78862070D01*
X135282793Y-78834900D01*
X135282795Y-78834897D01*
X135287187Y-78829395D01*
X135290253Y-78823053D01*
X135301228Y-78800352D01*
X135308754Y-78786942D01*
X135322411Y-78765749D01*
X135322412Y-78765747D01*
X135326231Y-78759821D01*
X135340535Y-78720520D01*
X135345491Y-78708788D01*
X135363634Y-78671260D01*
X135411292Y-78618636D01*
X135477073Y-78600102D01*
X136333934Y-78600102D01*
X136396116Y-78593347D01*
X136532505Y-78542217D01*
X136649061Y-78454863D01*
X136736415Y-78338307D01*
X136787545Y-78201918D01*
X136794300Y-78139736D01*
X136794300Y-77511464D01*
X136788784Y-77460689D01*
X136788398Y-77457132D01*
X136788398Y-77457130D01*
X136787545Y-77449282D01*
X136784773Y-77441887D01*
X136767139Y-77394848D01*
X136761956Y-77324041D01*
X136767139Y-77306390D01*
X136784773Y-77259351D01*
X136784773Y-77259349D01*
X136787545Y-77251956D01*
X136794300Y-77189774D01*
X136794300Y-77186358D01*
X136794484Y-77182960D01*
X136795296Y-77183004D01*
X136814302Y-77118274D01*
X136831205Y-77097299D01*
X137125401Y-76803104D01*
X137187713Y-76769079D01*
X137214496Y-76766200D01*
X137270387Y-76766200D01*
X137276839Y-76764828D01*
X137276844Y-76764828D01*
X137394574Y-76739803D01*
X137457188Y-76726494D01*
X137463219Y-76723809D01*
X137625622Y-76651503D01*
X137625624Y-76651502D01*
X137631652Y-76648818D01*
X137659275Y-76628749D01*
X137712967Y-76589739D01*
X137786153Y-76536566D01*
X137813344Y-76506367D01*
X137909521Y-76399552D01*
X137909522Y-76399551D01*
X137913940Y-76394644D01*
X138009427Y-76229256D01*
X138068442Y-76047628D01*
X138088404Y-75857700D01*
X138083344Y-75809557D01*
X138078484Y-75763316D01*
X138091256Y-75693478D01*
X138139758Y-75641631D01*
X138208591Y-75624237D01*
X138275901Y-75646818D01*
G37*
%TD.AperFunction*%
%TA.AperFunction,Conductor*%
G36*
X130789242Y-76534158D02*
G01*
X130848227Y-76573671D01*
X130876485Y-76638802D01*
X130877449Y-76654356D01*
X130877449Y-77211225D01*
X130884204Y-77273407D01*
X130896569Y-77306390D01*
X130901235Y-77318836D01*
X130906418Y-77389643D01*
X130901236Y-77407293D01*
X130884204Y-77452725D01*
X130877449Y-77514907D01*
X130877449Y-78161187D01*
X130884204Y-78223369D01*
X130935334Y-78359758D01*
X130977131Y-78415527D01*
X131022688Y-78476314D01*
X131021300Y-78477354D01*
X131050240Y-78530353D01*
X131045175Y-78601168D01*
X131016292Y-78646154D01*
X130978843Y-78683668D01*
X130969831Y-78695079D01*
X130886294Y-78830602D01*
X130880150Y-78843780D01*
X130829891Y-78995305D01*
X130827025Y-79008671D01*
X130817534Y-79101309D01*
X130817206Y-79107724D01*
X130817206Y-79119424D01*
X130821681Y-79134663D01*
X130823071Y-79135868D01*
X130830754Y-79137539D01*
X131940706Y-79137539D01*
X132008827Y-79157541D01*
X132055320Y-79211197D01*
X132066706Y-79263539D01*
X132066706Y-79519539D01*
X132046704Y-79587660D01*
X131993048Y-79634153D01*
X131940706Y-79645539D01*
X130835321Y-79645539D01*
X130820082Y-79650014D01*
X130818877Y-79651404D01*
X130817206Y-79659087D01*
X130817206Y-79675305D01*
X130817543Y-79681821D01*
X130827281Y-79775671D01*
X130830174Y-79789067D01*
X130880694Y-79940492D01*
X130886859Y-79953654D01*
X130960814Y-80073165D01*
X130979651Y-80141617D01*
X130958489Y-80209386D01*
X130904048Y-80254957D01*
X130853669Y-80265467D01*
X129879100Y-80265467D01*
X129810979Y-80245465D01*
X129764486Y-80191809D01*
X129753100Y-80139467D01*
X129753100Y-78923066D01*
X129746345Y-78860884D01*
X129743573Y-78853488D01*
X129743571Y-78853482D01*
X129703330Y-78746140D01*
X129698147Y-78675333D01*
X129732068Y-78612964D01*
X129777082Y-78583929D01*
X129823901Y-78566377D01*
X129839496Y-78557839D01*
X129941571Y-78481338D01*
X129954132Y-78468777D01*
X130030633Y-78366702D01*
X130039171Y-78351107D01*
X130084325Y-78230659D01*
X130087952Y-78215404D01*
X130093478Y-78164539D01*
X130093847Y-78157725D01*
X130093847Y-78110162D01*
X130089372Y-78094923D01*
X130087982Y-78093718D01*
X130080299Y-78092047D01*
X128957847Y-78092047D01*
X128889726Y-78072045D01*
X128843233Y-78018389D01*
X128831847Y-77966047D01*
X128831847Y-77797591D01*
X128851849Y-77729470D01*
X128905505Y-77682977D01*
X128957847Y-77671591D01*
X129633981Y-77671591D01*
X129696163Y-77664836D01*
X129832552Y-77613706D01*
X129839739Y-77608320D01*
X129847607Y-77604012D01*
X129848434Y-77605523D01*
X129905039Y-77584373D01*
X129914101Y-77584047D01*
X130075731Y-77584047D01*
X130090970Y-77579572D01*
X130092175Y-77578182D01*
X130093846Y-77570499D01*
X130093846Y-77518372D01*
X130093476Y-77511551D01*
X130087952Y-77460689D01*
X130084327Y-77445441D01*
X130070294Y-77408009D01*
X130065111Y-77337201D01*
X130070291Y-77319558D01*
X130087592Y-77273407D01*
X130094347Y-77211225D01*
X130094347Y-76956180D01*
X130114349Y-76888059D01*
X130168005Y-76841566D01*
X130194148Y-76832934D01*
X130279488Y-76814794D01*
X130285519Y-76812109D01*
X130447922Y-76739803D01*
X130447924Y-76739802D01*
X130453952Y-76737118D01*
X130608453Y-76624866D01*
X130657813Y-76570046D01*
X130718259Y-76532806D01*
X130789242Y-76534158D01*
G37*
%TD.AperFunction*%
%TA.AperFunction,Conductor*%
G36*
X116063839Y-71846902D02*
G01*
X116084813Y-71863805D01*
X118607938Y-74386930D01*
X118641964Y-74449242D01*
X118636899Y-74520057D01*
X118626103Y-74542140D01*
X118598927Y-74586228D01*
X118598925Y-74586233D01*
X118595085Y-74592462D01*
X118592781Y-74599409D01*
X118548208Y-74733794D01*
X118539403Y-74760339D01*
X118538703Y-74767175D01*
X118538702Y-74767178D01*
X118538625Y-74767929D01*
X118528700Y-74864800D01*
X118528700Y-77576706D01*
X118508698Y-77644827D01*
X118455042Y-77691320D01*
X118384768Y-77701424D01*
X118328639Y-77678642D01*
X118318935Y-77671591D01*
X118257755Y-77627141D01*
X118216494Y-77597163D01*
X118216493Y-77597162D01*
X118211152Y-77593282D01*
X118205124Y-77590598D01*
X118205122Y-77590597D01*
X118042719Y-77518291D01*
X118042718Y-77518291D01*
X118036688Y-77515606D01*
X117943287Y-77495753D01*
X117856344Y-77477272D01*
X117856339Y-77477272D01*
X117849887Y-77475900D01*
X117658913Y-77475900D01*
X117652461Y-77477272D01*
X117652456Y-77477272D01*
X117565513Y-77495753D01*
X117472112Y-77515606D01*
X117466082Y-77518291D01*
X117466081Y-77518291D01*
X117303678Y-77590597D01*
X117303676Y-77590598D01*
X117297648Y-77593282D01*
X117292307Y-77597162D01*
X117292306Y-77597163D01*
X117242243Y-77633536D01*
X117143147Y-77705534D01*
X117138726Y-77710444D01*
X117138725Y-77710445D01*
X117060259Y-77797591D01*
X117015360Y-77847456D01*
X116919873Y-78012844D01*
X116860858Y-78194472D01*
X116860168Y-78201033D01*
X116860168Y-78201035D01*
X116844985Y-78345493D01*
X116840896Y-78384400D01*
X116841586Y-78390965D01*
X116859738Y-78563668D01*
X116860858Y-78574328D01*
X116885975Y-78651630D01*
X116888003Y-78722596D01*
X116884126Y-78734790D01*
X116836855Y-78860884D01*
X116830100Y-78923066D01*
X116830100Y-80139467D01*
X116810098Y-80207588D01*
X116756442Y-80254081D01*
X116704100Y-80265467D01*
X116259945Y-80265467D01*
X116191824Y-80245465D01*
X116145331Y-80191809D01*
X116133945Y-80139467D01*
X116133945Y-76375479D01*
X116135692Y-76354572D01*
X116138212Y-76339593D01*
X116139021Y-76334787D01*
X116139174Y-76322235D01*
X116138484Y-76317412D01*
X116138390Y-76315977D01*
X116137622Y-76308420D01*
X116120368Y-76023122D01*
X116120368Y-76023120D01*
X116120138Y-76019321D01*
X116076746Y-75782519D01*
X116066130Y-75724582D01*
X116066129Y-75724579D01*
X116065441Y-75720823D01*
X115975163Y-75431095D01*
X115973273Y-75426894D01*
X115897967Y-75259565D01*
X115850621Y-75154361D01*
X115711026Y-74923435D01*
X115695599Y-74897914D01*
X115695598Y-74897912D01*
X115693630Y-74894657D01*
X115676042Y-74872206D01*
X115531804Y-74688094D01*
X115506480Y-74655769D01*
X115291900Y-74441181D01*
X115053019Y-74254022D01*
X115004517Y-74224700D01*
X114796572Y-74098988D01*
X114793320Y-74097022D01*
X114789861Y-74095465D01*
X114789855Y-74095462D01*
X114520064Y-73974032D01*
X114520062Y-73974031D01*
X114516591Y-73972469D01*
X114512959Y-73971337D01*
X114512956Y-73971336D01*
X114275994Y-73897491D01*
X114226866Y-73882181D01*
X113928370Y-73827473D01*
X113924583Y-73827244D01*
X113924576Y-73827243D01*
X113714595Y-73814537D01*
X113656303Y-73811010D01*
X113643003Y-73809492D01*
X113642869Y-73809470D01*
X113642805Y-73809459D01*
X113642804Y-73809459D01*
X113638009Y-73808652D01*
X113631733Y-73808575D01*
X113630322Y-73808558D01*
X113630318Y-73808558D01*
X113625457Y-73808499D01*
X113607921Y-73811010D01*
X113597822Y-73812456D01*
X113579962Y-73813728D01*
X113395308Y-73813728D01*
X113327187Y-73793726D01*
X113280694Y-73740070D01*
X113270590Y-73669796D01*
X113300084Y-73605216D01*
X113317045Y-73588982D01*
X113332486Y-73576744D01*
X113444963Y-73464071D01*
X113453975Y-73452660D01*
X113537512Y-73317137D01*
X113543656Y-73303959D01*
X113593915Y-73152434D01*
X113596781Y-73139068D01*
X113606272Y-73046430D01*
X113606600Y-73040015D01*
X113606600Y-72965815D01*
X113602125Y-72950576D01*
X113600735Y-72949371D01*
X113593052Y-72947700D01*
X112497885Y-72947700D01*
X112429764Y-72927698D01*
X112413584Y-72915345D01*
X112411299Y-72913288D01*
X112374053Y-72852846D01*
X112369600Y-72819643D01*
X112369600Y-72565700D01*
X112389602Y-72497579D01*
X112443258Y-72451086D01*
X112495600Y-72439700D01*
X113588485Y-72439700D01*
X113603724Y-72435225D01*
X113604929Y-72433835D01*
X113606600Y-72426152D01*
X113606600Y-72347434D01*
X113606263Y-72340918D01*
X113596525Y-72247068D01*
X113593632Y-72233672D01*
X113543112Y-72082247D01*
X113536947Y-72069085D01*
X113506079Y-72019202D01*
X113487242Y-71950750D01*
X113508404Y-71882980D01*
X113562845Y-71837410D01*
X113613224Y-71826900D01*
X115995718Y-71826900D01*
X116063839Y-71846902D01*
G37*
%TD.AperFunction*%
%TA.AperFunction,Conductor*%
G36*
X118524735Y-68905302D02*
G01*
X118571228Y-68958958D01*
X118581332Y-69029232D01*
X118576207Y-69050968D01*
X118542062Y-69153910D01*
X118539195Y-69167286D01*
X118529528Y-69261638D01*
X118529200Y-69268055D01*
X118529200Y-70543085D01*
X118533675Y-70558324D01*
X118535065Y-70559529D01*
X118542748Y-70561200D01*
X121127084Y-70561200D01*
X121142323Y-70556725D01*
X121143528Y-70555335D01*
X121145199Y-70547652D01*
X121145199Y-69268105D01*
X121144862Y-69261586D01*
X121134943Y-69165994D01*
X121132051Y-69152600D01*
X121098214Y-69051176D01*
X121095630Y-68980226D01*
X121131814Y-68919142D01*
X121195278Y-68887318D01*
X121217738Y-68885300D01*
X125852150Y-68885300D01*
X125920271Y-68905302D01*
X125966764Y-68958958D01*
X125976868Y-69029232D01*
X125967256Y-69062551D01*
X125965578Y-69066319D01*
X125962273Y-69072044D01*
X125903258Y-69253672D01*
X125902568Y-69260237D01*
X125902567Y-69260242D01*
X125902416Y-69261676D01*
X125902097Y-69262451D01*
X125901194Y-69266700D01*
X125900417Y-69266535D01*
X125875400Y-69327332D01*
X125817177Y-69367959D01*
X125777107Y-69374500D01*
X125229128Y-69374500D01*
X125225882Y-69374837D01*
X125225878Y-69374837D01*
X125131965Y-69384581D01*
X125131961Y-69384582D01*
X125125107Y-69385293D01*
X125118571Y-69387474D01*
X125118569Y-69387474D01*
X125004202Y-69425630D01*
X124960093Y-69440346D01*
X124831202Y-69520106D01*
X124814173Y-69530644D01*
X124747870Y-69549500D01*
X124316814Y-69549500D01*
X124315494Y-69549493D01*
X124314419Y-69549482D01*
X124225379Y-69548549D01*
X124218489Y-69550039D01*
X124214390Y-69550455D01*
X124201656Y-69551100D01*
X124110513Y-69551100D01*
X124104061Y-69552472D01*
X124104056Y-69552472D01*
X124017113Y-69570953D01*
X123923712Y-69590806D01*
X123917682Y-69593491D01*
X123917681Y-69593491D01*
X123755278Y-69665797D01*
X123755276Y-69665798D01*
X123749248Y-69668482D01*
X123743907Y-69672362D01*
X123743906Y-69672363D01*
X123698337Y-69705471D01*
X123594747Y-69780734D01*
X123590326Y-69785644D01*
X123590325Y-69785645D01*
X123500233Y-69885703D01*
X123466960Y-69922656D01*
X123371473Y-70088044D01*
X123312458Y-70269672D01*
X123311768Y-70276233D01*
X123311768Y-70276235D01*
X123303282Y-70356974D01*
X123292496Y-70459600D01*
X123293186Y-70466165D01*
X123308309Y-70610049D01*
X123312458Y-70649528D01*
X123371473Y-70831156D01*
X123374776Y-70836878D01*
X123374777Y-70836879D01*
X123400424Y-70881300D01*
X123466960Y-70996544D01*
X123471378Y-71001451D01*
X123471379Y-71001452D01*
X123590325Y-71133555D01*
X123594747Y-71138466D01*
X123676167Y-71197621D01*
X123739253Y-71243456D01*
X123749248Y-71250718D01*
X123755276Y-71253402D01*
X123755278Y-71253403D01*
X123828037Y-71285797D01*
X123923712Y-71328394D01*
X124009731Y-71346678D01*
X124104056Y-71366728D01*
X124104061Y-71366728D01*
X124110513Y-71368100D01*
X124301487Y-71368100D01*
X124307939Y-71366728D01*
X124307944Y-71366728D01*
X124427683Y-71341276D01*
X124498474Y-71346678D01*
X124555106Y-71389495D01*
X124579600Y-71456132D01*
X124573473Y-71504190D01*
X124545885Y-71587365D01*
X124543019Y-71600732D01*
X124533528Y-71693370D01*
X124533200Y-71699785D01*
X124533200Y-71711485D01*
X124537675Y-71726724D01*
X124539065Y-71727929D01*
X124546748Y-71729600D01*
X125706700Y-71729600D01*
X125774821Y-71749602D01*
X125821314Y-71803258D01*
X125832700Y-71855600D01*
X125832700Y-72111600D01*
X125812698Y-72179721D01*
X125759042Y-72226214D01*
X125706700Y-72237600D01*
X124551315Y-72237600D01*
X124536076Y-72242075D01*
X124534871Y-72243465D01*
X124533200Y-72251148D01*
X124533200Y-72267366D01*
X124533537Y-72273882D01*
X124543275Y-72367732D01*
X124546168Y-72381128D01*
X124596688Y-72532553D01*
X124602853Y-72545715D01*
X124686629Y-72681097D01*
X124695525Y-72692321D01*
X124722161Y-72758132D01*
X124708989Y-72827896D01*
X124695659Y-72848676D01*
X124694442Y-72850217D01*
X124689271Y-72855397D01*
X124675212Y-72878205D01*
X124602564Y-72996062D01*
X124597991Y-73003480D01*
X124543226Y-73168591D01*
X124542526Y-73175427D01*
X124542525Y-73175430D01*
X124538617Y-73213576D01*
X124532700Y-73271328D01*
X124532700Y-73845472D01*
X124533037Y-73848718D01*
X124533037Y-73848722D01*
X124542317Y-73938157D01*
X124543493Y-73949493D01*
X124598546Y-74114507D01*
X124603437Y-74122411D01*
X124673906Y-74236287D01*
X124690084Y-74262431D01*
X124724064Y-74296352D01*
X124758142Y-74358630D01*
X124754878Y-74424457D01*
X124734858Y-74486072D01*
X124734168Y-74492633D01*
X124734168Y-74492635D01*
X124716291Y-74662728D01*
X124714896Y-74676000D01*
X124715586Y-74682565D01*
X124719581Y-74720571D01*
X124734858Y-74865928D01*
X124793873Y-75047556D01*
X124889360Y-75212944D01*
X124893778Y-75217851D01*
X124893779Y-75217852D01*
X124999253Y-75334993D01*
X125017147Y-75354866D01*
X125171648Y-75467118D01*
X125177676Y-75469802D01*
X125177678Y-75469803D01*
X125339331Y-75541775D01*
X125346112Y-75544794D01*
X125439513Y-75564647D01*
X125526456Y-75583128D01*
X125526461Y-75583128D01*
X125532913Y-75584500D01*
X125723887Y-75584500D01*
X125730339Y-75583128D01*
X125730344Y-75583128D01*
X125817287Y-75564647D01*
X125910688Y-75544794D01*
X125917469Y-75541775D01*
X126079122Y-75469803D01*
X126079124Y-75469802D01*
X126085152Y-75467118D01*
X126239653Y-75354866D01*
X126257547Y-75334993D01*
X126363021Y-75217852D01*
X126363022Y-75217851D01*
X126367440Y-75212944D01*
X126462927Y-75047556D01*
X126521942Y-74865928D01*
X126537220Y-74720571D01*
X126541214Y-74682565D01*
X126541904Y-74676000D01*
X126540509Y-74662728D01*
X126529362Y-74556669D01*
X126542134Y-74486831D01*
X126590636Y-74434984D01*
X126659469Y-74417590D01*
X126720788Y-74436239D01*
X126765786Y-74463976D01*
X126786280Y-74476609D01*
X126921922Y-74521599D01*
X126980281Y-74562030D01*
X127007518Y-74627594D01*
X126994985Y-74697475D01*
X126981734Y-74717985D01*
X126979093Y-74720571D01*
X126955602Y-74757021D01*
X126948183Y-74767346D01*
X126921124Y-74801243D01*
X126918059Y-74807584D01*
X126918058Y-74807585D01*
X126906528Y-74831437D01*
X126898999Y-74844854D01*
X126880835Y-74873038D01*
X126878427Y-74879655D01*
X126878424Y-74879660D01*
X126866008Y-74913773D01*
X126861047Y-74925516D01*
X126845246Y-74958203D01*
X126845244Y-74958208D01*
X126842179Y-74964549D01*
X126840596Y-74971407D01*
X126840595Y-74971409D01*
X126834635Y-74997226D01*
X126830268Y-75011969D01*
X126818797Y-75043485D01*
X126817914Y-75050475D01*
X126817912Y-75050483D01*
X126813362Y-75086501D01*
X126811126Y-75099053D01*
X126803243Y-75133200D01*
X126801376Y-75141285D01*
X126801351Y-75148331D01*
X126801351Y-75148334D01*
X126801234Y-75181856D01*
X126801205Y-75182738D01*
X126801100Y-75183569D01*
X126801100Y-75220219D01*
X126801099Y-75220659D01*
X126800767Y-75315898D01*
X126800743Y-75322670D01*
X126801011Y-75323870D01*
X126801100Y-75325507D01*
X126801100Y-78682674D01*
X126793082Y-78726904D01*
X126742855Y-78860884D01*
X126736100Y-78923066D01*
X126736100Y-80139467D01*
X126716098Y-80207588D01*
X126662442Y-80254081D01*
X126610100Y-80265467D01*
X119973100Y-80265467D01*
X119904979Y-80245465D01*
X119858486Y-80191809D01*
X119847100Y-80139467D01*
X119847100Y-78923066D01*
X119840345Y-78860884D01*
X119833990Y-78843931D01*
X119828806Y-78773124D01*
X119862726Y-78710754D01*
X119924981Y-78676625D01*
X119951971Y-78673700D01*
X120437600Y-78673700D01*
X120440846Y-78673363D01*
X120440850Y-78673363D01*
X120536508Y-78663438D01*
X120536512Y-78663437D01*
X120543366Y-78662726D01*
X120549902Y-78660545D01*
X120549904Y-78660545D01*
X120704198Y-78609068D01*
X120711146Y-78606750D01*
X120861548Y-78513678D01*
X120906546Y-78468602D01*
X120981334Y-78393683D01*
X120986505Y-78388503D01*
X120999794Y-78366944D01*
X121075475Y-78244168D01*
X121075476Y-78244166D01*
X121079315Y-78237938D01*
X121126751Y-78094923D01*
X121132832Y-78076589D01*
X121132832Y-78076587D01*
X121134997Y-78070061D01*
X121145700Y-77965600D01*
X121145700Y-77385300D01*
X121165702Y-77317179D01*
X121219358Y-77270686D01*
X121271700Y-77259300D01*
X121614169Y-77259300D01*
X121617225Y-77259000D01*
X121617232Y-77259000D01*
X121675740Y-77253263D01*
X121761233Y-77244880D01*
X121767134Y-77243098D01*
X121767136Y-77243098D01*
X121861452Y-77214622D01*
X121950569Y-77187716D01*
X122125196Y-77094866D01*
X122211462Y-77024509D01*
X122273687Y-76973760D01*
X122273690Y-76973757D01*
X122278462Y-76969865D01*
X122282391Y-76965116D01*
X122400601Y-76822225D01*
X122400603Y-76822221D01*
X122404530Y-76817475D01*
X122498598Y-76643501D01*
X122557082Y-76454568D01*
X122563981Y-76388926D01*
X122577111Y-76264004D01*
X122577111Y-76264002D01*
X122577755Y-76257875D01*
X122559830Y-76060912D01*
X122555921Y-76047628D01*
X122511816Y-75897771D01*
X122503990Y-75871181D01*
X122500375Y-75864265D01*
X122415213Y-75701368D01*
X122412360Y-75695910D01*
X122288432Y-75541775D01*
X122136926Y-75414646D01*
X122131528Y-75411679D01*
X122131523Y-75411675D01*
X121969008Y-75322333D01*
X121969009Y-75322333D01*
X121963613Y-75319367D01*
X121957746Y-75317506D01*
X121957744Y-75317505D01*
X121780964Y-75261427D01*
X121780963Y-75261427D01*
X121775094Y-75259565D01*
X121621173Y-75242300D01*
X121271700Y-75242300D01*
X121203579Y-75222298D01*
X121157086Y-75168642D01*
X121145700Y-75116300D01*
X121145700Y-74864800D01*
X121144173Y-74850079D01*
X121135438Y-74765892D01*
X121135437Y-74765888D01*
X121134726Y-74759034D01*
X121130590Y-74746635D01*
X121081068Y-74598202D01*
X121078750Y-74591254D01*
X120985678Y-74440852D01*
X120860503Y-74315895D01*
X120806930Y-74282872D01*
X120716168Y-74226925D01*
X120716166Y-74226924D01*
X120709938Y-74223085D01*
X120651801Y-74203802D01*
X120593440Y-74163372D01*
X120577058Y-74133888D01*
X120576303Y-74134250D01*
X120573263Y-74127904D01*
X120570945Y-74121248D01*
X120567213Y-74115276D01*
X120567210Y-74115269D01*
X120553173Y-74092805D01*
X120545834Y-74079288D01*
X120534639Y-74055281D01*
X120534637Y-74055277D01*
X120531662Y-74048898D01*
X120505092Y-74014644D01*
X120497798Y-74004188D01*
X120474826Y-73967424D01*
X120457020Y-73949493D01*
X120446217Y-73938615D01*
X120445634Y-73937992D01*
X120445121Y-73937330D01*
X120419274Y-73911483D01*
X120389496Y-73881496D01*
X120349504Y-73841224D01*
X120349500Y-73841220D01*
X120347015Y-73838718D01*
X120345977Y-73838059D01*
X120344744Y-73836953D01*
X119620105Y-73112314D01*
X119588854Y-73055084D01*
X120091200Y-73055084D01*
X120095675Y-73070323D01*
X120097065Y-73071528D01*
X120104748Y-73073199D01*
X120434295Y-73073199D01*
X120440814Y-73072862D01*
X120536406Y-73062943D01*
X120549800Y-73060051D01*
X120703984Y-73008612D01*
X120717162Y-73002439D01*
X120855007Y-72917137D01*
X120866408Y-72908101D01*
X120980939Y-72793371D01*
X120989951Y-72781960D01*
X121075016Y-72643957D01*
X121081163Y-72630776D01*
X121107085Y-72552624D01*
X121147516Y-72494265D01*
X121213080Y-72467028D01*
X121282962Y-72479562D01*
X121300736Y-72490354D01*
X121362418Y-72535169D01*
X121397472Y-72560637D01*
X121412448Y-72571518D01*
X121418476Y-72574202D01*
X121418478Y-72574203D01*
X121566691Y-72640191D01*
X121586912Y-72649194D01*
X121605074Y-72653055D01*
X121667969Y-72687205D01*
X122217195Y-73236431D01*
X122251221Y-73298743D01*
X122254100Y-73325526D01*
X122254100Y-73979102D01*
X122237219Y-74042101D01*
X122203073Y-74101244D01*
X122144058Y-74282872D01*
X122143368Y-74289433D01*
X122143368Y-74289435D01*
X122127939Y-74436239D01*
X122124096Y-74472800D01*
X122124786Y-74479365D01*
X122143327Y-74655769D01*
X122144058Y-74662728D01*
X122203073Y-74844356D01*
X122206376Y-74850078D01*
X122206377Y-74850079D01*
X122223456Y-74879660D01*
X122298560Y-75009744D01*
X122302978Y-75014651D01*
X122302979Y-75014652D01*
X122361721Y-75079892D01*
X122426347Y-75151666D01*
X122510689Y-75212944D01*
X122574857Y-75259565D01*
X122580848Y-75263918D01*
X122586876Y-75266602D01*
X122586878Y-75266603D01*
X122749281Y-75338909D01*
X122755312Y-75341594D01*
X122848713Y-75361447D01*
X122935656Y-75379928D01*
X122935661Y-75379928D01*
X122942113Y-75381300D01*
X123133087Y-75381300D01*
X123139539Y-75379928D01*
X123139544Y-75379928D01*
X123226487Y-75361447D01*
X123319888Y-75341594D01*
X123325919Y-75338909D01*
X123488322Y-75266603D01*
X123488324Y-75266602D01*
X123494352Y-75263918D01*
X123500344Y-75259565D01*
X123564511Y-75212944D01*
X123648853Y-75151666D01*
X123713479Y-75079892D01*
X123772221Y-75014652D01*
X123772222Y-75014651D01*
X123776640Y-75009744D01*
X123851744Y-74879660D01*
X123868823Y-74850079D01*
X123868824Y-74850078D01*
X123872127Y-74844356D01*
X123931142Y-74662728D01*
X123931874Y-74655769D01*
X123950414Y-74479365D01*
X123951104Y-74472800D01*
X123947261Y-74436239D01*
X123931832Y-74289435D01*
X123931832Y-74289433D01*
X123931142Y-74282872D01*
X123872127Y-74101244D01*
X123837981Y-74042101D01*
X123821100Y-73979102D01*
X123821100Y-72957753D01*
X123821107Y-72956433D01*
X123821584Y-72910879D01*
X123822022Y-72869122D01*
X123820402Y-72861627D01*
X123813186Y-72828255D01*
X123811125Y-72815672D01*
X123808999Y-72796723D01*
X123806464Y-72774118D01*
X123804146Y-72767463D01*
X123804145Y-72767457D01*
X123795856Y-72743654D01*
X123791693Y-72728845D01*
X123786364Y-72704199D01*
X123786363Y-72704195D01*
X123784875Y-72697314D01*
X123767198Y-72659405D01*
X123762416Y-72647629D01*
X123748657Y-72608119D01*
X123731562Y-72580761D01*
X123724223Y-72567244D01*
X123713564Y-72544385D01*
X123713562Y-72544382D01*
X123710589Y-72538006D01*
X123705599Y-72531572D01*
X123684960Y-72504965D01*
X123677671Y-72494517D01*
X123655509Y-72459051D01*
X123627781Y-72431128D01*
X123627227Y-72430536D01*
X123626723Y-72429887D01*
X123601571Y-72404735D01*
X123531651Y-72334325D01*
X123530641Y-72333684D01*
X123529462Y-72332626D01*
X122772308Y-71575472D01*
X122741570Y-71525313D01*
X122728760Y-71485886D01*
X122703727Y-71408844D01*
X122696229Y-71395856D01*
X122651988Y-71319229D01*
X122608240Y-71243456D01*
X122603084Y-71237729D01*
X122484875Y-71106445D01*
X122484874Y-71106444D01*
X122480453Y-71101534D01*
X122342703Y-71001452D01*
X122331294Y-70993163D01*
X122331293Y-70993162D01*
X122325952Y-70989282D01*
X122319924Y-70986598D01*
X122319922Y-70986597D01*
X122157519Y-70914291D01*
X122157518Y-70914291D01*
X122151488Y-70911606D01*
X122035280Y-70886905D01*
X121971144Y-70873272D01*
X121971139Y-70873272D01*
X121964687Y-70871900D01*
X121773713Y-70871900D01*
X121767261Y-70873272D01*
X121767256Y-70873272D01*
X121703120Y-70886905D01*
X121586912Y-70911606D01*
X121580882Y-70914291D01*
X121580881Y-70914291D01*
X121418478Y-70986597D01*
X121418476Y-70986598D01*
X121412448Y-70989282D01*
X121294320Y-71075108D01*
X121293630Y-71075609D01*
X121226763Y-71099467D01*
X121157611Y-71083387D01*
X121140090Y-71071036D01*
X121131652Y-71069200D01*
X120109315Y-71069200D01*
X120094076Y-71073675D01*
X120092871Y-71075065D01*
X120091200Y-71082748D01*
X120091200Y-73055084D01*
X119588854Y-73055084D01*
X119586079Y-73050002D01*
X119583200Y-73023219D01*
X119583200Y-71087315D01*
X119578725Y-71072076D01*
X119577335Y-71070871D01*
X119569652Y-71069200D01*
X118547316Y-71069200D01*
X118532077Y-71073675D01*
X118530872Y-71075065D01*
X118529201Y-71082748D01*
X118529201Y-71717219D01*
X118509199Y-71785340D01*
X118455543Y-71831833D01*
X118385269Y-71841937D01*
X118320689Y-71812443D01*
X118314106Y-71806314D01*
X116961034Y-70453242D01*
X116960106Y-70452305D01*
X116901957Y-70392925D01*
X116901956Y-70392924D01*
X116897029Y-70387893D01*
X116860579Y-70364402D01*
X116850254Y-70356983D01*
X116816357Y-70329924D01*
X116786162Y-70315327D01*
X116772745Y-70307798D01*
X116744562Y-70289635D01*
X116737945Y-70287227D01*
X116737940Y-70287224D01*
X116703827Y-70274808D01*
X116692084Y-70269847D01*
X116659397Y-70254046D01*
X116659392Y-70254044D01*
X116653051Y-70250979D01*
X116646193Y-70249396D01*
X116646191Y-70249395D01*
X116620374Y-70243435D01*
X116605631Y-70239068D01*
X116574115Y-70227597D01*
X116567125Y-70226714D01*
X116567117Y-70226712D01*
X116531099Y-70222162D01*
X116518547Y-70219926D01*
X116483186Y-70211762D01*
X116483183Y-70211762D01*
X116476315Y-70210176D01*
X116469269Y-70210151D01*
X116469266Y-70210151D01*
X116435744Y-70210034D01*
X116434862Y-70210005D01*
X116434031Y-70209900D01*
X116397381Y-70209900D01*
X116396941Y-70209899D01*
X116298457Y-70209555D01*
X116298452Y-70209555D01*
X116294930Y-70209543D01*
X116293730Y-70209811D01*
X116292093Y-70209900D01*
X113509587Y-70209900D01*
X113441466Y-70189898D01*
X113420569Y-70173073D01*
X113331783Y-70084442D01*
X113326603Y-70079271D01*
X113266969Y-70042512D01*
X113184750Y-69991831D01*
X113184748Y-69991830D01*
X113178520Y-69987991D01*
X113055850Y-69947303D01*
X112997490Y-69906872D01*
X112981322Y-69880960D01*
X112971022Y-69858872D01*
X112897523Y-69701251D01*
X112793347Y-69552472D01*
X112769357Y-69518211D01*
X112769355Y-69518208D01*
X112766198Y-69513700D01*
X112604300Y-69351802D01*
X112599792Y-69348645D01*
X112599789Y-69348643D01*
X112500707Y-69279265D01*
X112416749Y-69220477D01*
X112411767Y-69218154D01*
X112411762Y-69218151D01*
X112213058Y-69125495D01*
X112159773Y-69078578D01*
X112140312Y-69010301D01*
X112160854Y-68942341D01*
X112214876Y-68896275D01*
X112266308Y-68885300D01*
X118456614Y-68885300D01*
X118524735Y-68905302D01*
G37*
%TD.AperFunction*%
%TA.AperFunction,Conductor*%
G36*
X142233236Y-68905302D02*
G01*
X142279729Y-68958958D01*
X142291115Y-69011300D01*
X142291115Y-73993587D01*
X142271113Y-74061708D01*
X142217457Y-74108201D01*
X142147183Y-74118305D01*
X142082603Y-74088811D01*
X142064481Y-74067445D01*
X142063615Y-74068092D01*
X141997163Y-73979102D01*
X141936222Y-73897491D01*
X141779871Y-73752963D01*
X141599801Y-73639347D01*
X141402041Y-73560449D01*
X141396381Y-73559323D01*
X141396377Y-73559322D01*
X141198882Y-73520038D01*
X141198880Y-73520038D01*
X141193215Y-73518911D01*
X141187440Y-73518835D01*
X141187436Y-73518835D01*
X141080761Y-73517439D01*
X140980316Y-73516124D01*
X140974619Y-73517103D01*
X140974618Y-73517103D01*
X140776164Y-73551203D01*
X140776161Y-73551204D01*
X140770474Y-73552181D01*
X140570716Y-73625875D01*
X140387734Y-73734739D01*
X140227654Y-73875125D01*
X140095838Y-74042333D01*
X140093149Y-74047444D01*
X140093147Y-74047447D01*
X140038685Y-74150961D01*
X139996700Y-74230762D01*
X139994986Y-74236283D01*
X139994984Y-74236287D01*
X139956996Y-74358630D01*
X139933561Y-74434102D01*
X139932882Y-74439841D01*
X139931286Y-74453324D01*
X139903416Y-74518622D01*
X139844668Y-74558486D01*
X139773693Y-74560260D01*
X139712523Y-74522826D01*
X139650853Y-74454334D01*
X139496352Y-74342082D01*
X139490324Y-74339398D01*
X139490322Y-74339397D01*
X139327919Y-74267091D01*
X139327918Y-74267091D01*
X139321888Y-74264406D01*
X139228488Y-74244553D01*
X139141544Y-74226072D01*
X139141539Y-74226072D01*
X139135087Y-74224700D01*
X138944113Y-74224700D01*
X138937661Y-74226072D01*
X138937656Y-74226072D01*
X138850712Y-74244553D01*
X138757312Y-74264406D01*
X138751282Y-74267091D01*
X138751281Y-74267091D01*
X138588878Y-74339397D01*
X138588876Y-74339398D01*
X138582848Y-74342082D01*
X138428347Y-74454334D01*
X138423929Y-74459241D01*
X138423925Y-74459245D01*
X138366677Y-74522826D01*
X138300560Y-74596256D01*
X138265450Y-74657069D01*
X138210355Y-74752496D01*
X138205073Y-74761644D01*
X138146058Y-74943272D01*
X138145368Y-74949833D01*
X138145368Y-74949835D01*
X138135097Y-75047556D01*
X138126096Y-75133200D01*
X138126786Y-75139765D01*
X138136016Y-75227584D01*
X138123244Y-75297422D01*
X138074742Y-75349269D01*
X138005909Y-75366663D01*
X137938599Y-75344082D01*
X137914401Y-75320341D01*
X137913940Y-75320756D01*
X137790575Y-75183745D01*
X137790574Y-75183744D01*
X137786153Y-75178834D01*
X137631652Y-75066582D01*
X137588764Y-75047487D01*
X137534669Y-75001508D01*
X137514339Y-74933470D01*
X137514704Y-74930000D01*
X137513629Y-74919771D01*
X137495432Y-74746635D01*
X137495432Y-74746633D01*
X137494742Y-74740072D01*
X137435727Y-74558444D01*
X137414455Y-74521599D01*
X137360749Y-74428579D01*
X137340240Y-74393056D01*
X137260454Y-74304444D01*
X137216875Y-74256045D01*
X137216874Y-74256044D01*
X137212453Y-74251134D01*
X137098327Y-74168216D01*
X137063294Y-74142763D01*
X137063293Y-74142762D01*
X137057952Y-74138882D01*
X137051924Y-74136198D01*
X137051922Y-74136197D01*
X136889519Y-74063891D01*
X136889518Y-74063891D01*
X136883488Y-74061206D01*
X136790087Y-74041353D01*
X136703144Y-74022872D01*
X136703139Y-74022872D01*
X136696687Y-74021500D01*
X136505713Y-74021500D01*
X136499261Y-74022872D01*
X136499256Y-74022872D01*
X136412313Y-74041353D01*
X136318912Y-74061206D01*
X136312882Y-74063891D01*
X136312881Y-74063891D01*
X136205909Y-74111518D01*
X136154660Y-74122411D01*
X135484848Y-74122411D01*
X135416727Y-74102409D01*
X135370234Y-74048753D01*
X135358848Y-73996411D01*
X135358848Y-73740411D01*
X135378850Y-73672290D01*
X135432506Y-73625797D01*
X135484848Y-73614411D01*
X136702732Y-73614411D01*
X136717971Y-73609936D01*
X136719176Y-73608546D01*
X136723194Y-73590075D01*
X136757220Y-73527763D01*
X136819532Y-73493737D01*
X136890348Y-73498802D01*
X136912432Y-73509599D01*
X136958790Y-73538175D01*
X136958793Y-73538176D01*
X136965022Y-73542016D01*
X137130133Y-73596781D01*
X137136969Y-73597481D01*
X137136972Y-73597482D01*
X137184312Y-73602332D01*
X137232870Y-73607307D01*
X137832014Y-73607307D01*
X137835260Y-73606970D01*
X137835264Y-73606970D01*
X137929177Y-73597226D01*
X137929181Y-73597225D01*
X137936035Y-73596514D01*
X137942571Y-73594333D01*
X137942573Y-73594333D01*
X138092369Y-73544357D01*
X138101049Y-73541461D01*
X138248973Y-73449923D01*
X138356043Y-73342666D01*
X138418324Y-73308587D01*
X138489144Y-73313590D01*
X138534233Y-73342511D01*
X138637071Y-73445170D01*
X138648482Y-73454182D01*
X138784005Y-73537719D01*
X138797183Y-73543863D01*
X138948708Y-73594122D01*
X138962074Y-73596988D01*
X139054712Y-73606479D01*
X139061127Y-73606807D01*
X139085327Y-73606807D01*
X139100566Y-73602332D01*
X139101771Y-73600942D01*
X139103442Y-73593259D01*
X139103442Y-71658922D01*
X139098967Y-71643683D01*
X139097577Y-71642478D01*
X139089894Y-71640807D01*
X139061176Y-71640807D01*
X139054660Y-71641144D01*
X138960810Y-71650882D01*
X138947414Y-71653775D01*
X138795989Y-71704295D01*
X138782827Y-71710460D01*
X138647450Y-71794233D01*
X138636052Y-71803267D01*
X138534549Y-71904947D01*
X138472266Y-71939026D01*
X138401446Y-71934023D01*
X138356358Y-71905102D01*
X138337021Y-71885798D01*
X138247945Y-71796878D01*
X138182205Y-71756355D01*
X138106092Y-71709438D01*
X138106090Y-71709437D01*
X138099862Y-71705598D01*
X137934751Y-71650833D01*
X137927915Y-71650133D01*
X137927912Y-71650132D01*
X137876416Y-71644856D01*
X137832014Y-71640307D01*
X137232870Y-71640307D01*
X137229624Y-71640644D01*
X137229620Y-71640644D01*
X137135707Y-71650388D01*
X137135703Y-71650389D01*
X137128849Y-71651100D01*
X137122313Y-71653281D01*
X137122311Y-71653281D01*
X137052596Y-71676540D01*
X136963835Y-71706153D01*
X136913149Y-71737519D01*
X136844699Y-71756355D01*
X136776929Y-71735193D01*
X136731358Y-71680753D01*
X136720848Y-71630373D01*
X136720848Y-71600521D01*
X136716373Y-71585282D01*
X136714983Y-71584077D01*
X136707300Y-71582406D01*
X135484848Y-71582406D01*
X135416727Y-71562404D01*
X135370234Y-71508748D01*
X135358848Y-71456406D01*
X135358848Y-71200406D01*
X135378850Y-71132285D01*
X135432506Y-71085792D01*
X135484848Y-71074406D01*
X136702732Y-71074406D01*
X136742402Y-71062758D01*
X136813399Y-71062758D01*
X136852365Y-71082898D01*
X136852797Y-71083329D01*
X136907374Y-71116971D01*
X136987725Y-71166500D01*
X137000880Y-71174609D01*
X137165991Y-71229374D01*
X137172827Y-71230074D01*
X137172830Y-71230075D01*
X137220170Y-71234925D01*
X137268728Y-71239900D01*
X137967872Y-71239900D01*
X137971118Y-71239563D01*
X137971122Y-71239563D01*
X138065035Y-71229819D01*
X138065039Y-71229818D01*
X138071893Y-71229107D01*
X138078429Y-71226926D01*
X138078431Y-71226926D01*
X138217763Y-71180441D01*
X138236907Y-71174054D01*
X138384831Y-71082516D01*
X138392074Y-71075261D01*
X138393838Y-71074295D01*
X138395741Y-71072787D01*
X138395999Y-71073113D01*
X138454354Y-71041181D01*
X138525175Y-71046182D01*
X138570270Y-71075108D01*
X138572931Y-71077764D01*
X138584340Y-71086775D01*
X138719863Y-71170312D01*
X138733041Y-71176456D01*
X138884566Y-71226715D01*
X138897932Y-71229581D01*
X138990570Y-71239072D01*
X138996985Y-71239400D01*
X139071185Y-71239400D01*
X139086424Y-71234925D01*
X139087629Y-71233535D01*
X139089300Y-71225852D01*
X139089300Y-71221285D01*
X139597300Y-71221285D01*
X139601775Y-71236524D01*
X139603165Y-71237729D01*
X139610848Y-71239400D01*
X139689566Y-71239400D01*
X139696082Y-71239063D01*
X139789932Y-71229325D01*
X139803335Y-71226430D01*
X139816126Y-71222163D01*
X139887075Y-71219579D01*
X139948159Y-71255764D01*
X139979982Y-71319229D01*
X139982000Y-71341686D01*
X139982001Y-71550534D01*
X139961999Y-71618655D01*
X139908344Y-71665148D01*
X139838070Y-71675253D01*
X139816335Y-71670128D01*
X139766180Y-71653493D01*
X139752810Y-71650626D01*
X139660172Y-71641135D01*
X139653757Y-71640807D01*
X139629557Y-71640807D01*
X139614318Y-71645282D01*
X139613113Y-71646672D01*
X139611442Y-71654355D01*
X139611442Y-73588692D01*
X139615917Y-73603931D01*
X139617307Y-73605136D01*
X139624990Y-73606807D01*
X139653708Y-73606807D01*
X139660224Y-73606470D01*
X139754074Y-73596732D01*
X139767470Y-73593839D01*
X139918895Y-73543319D01*
X139932057Y-73537154D01*
X140067434Y-73453381D01*
X140078832Y-73444347D01*
X140191305Y-73331678D01*
X140200317Y-73320267D01*
X140224371Y-73281244D01*
X140277143Y-73233751D01*
X140347215Y-73222327D01*
X140364623Y-73226612D01*
X140364709Y-73226251D01*
X140387649Y-73231705D01*
X140438514Y-73237231D01*
X140445328Y-73237600D01*
X141967885Y-73237599D01*
X141983124Y-73233124D01*
X141984329Y-73231734D01*
X141986000Y-73224051D01*
X141986000Y-70239715D01*
X141981525Y-70224476D01*
X141980135Y-70223271D01*
X141972452Y-70221600D01*
X140514800Y-70221601D01*
X140446679Y-70201599D01*
X140400186Y-70147943D01*
X140388800Y-70095601D01*
X140388800Y-69972634D01*
X140388463Y-69966118D01*
X140378725Y-69872268D01*
X140375832Y-69858872D01*
X140325312Y-69707447D01*
X140319147Y-69694285D01*
X140235374Y-69558908D01*
X140226340Y-69547510D01*
X140113671Y-69435037D01*
X140102260Y-69426025D01*
X139966737Y-69342488D01*
X139953559Y-69336344D01*
X139802034Y-69286085D01*
X139788668Y-69283219D01*
X139696030Y-69273728D01*
X139689615Y-69273400D01*
X139615415Y-69273400D01*
X139600176Y-69277875D01*
X139598971Y-69279265D01*
X139597300Y-69286948D01*
X139597300Y-71221285D01*
X139089300Y-71221285D01*
X139089300Y-69291515D01*
X139084825Y-69276276D01*
X139083435Y-69275071D01*
X139075752Y-69273400D01*
X138997034Y-69273400D01*
X138990518Y-69273737D01*
X138896668Y-69283475D01*
X138883272Y-69286368D01*
X138731847Y-69336888D01*
X138718685Y-69343053D01*
X138583308Y-69426826D01*
X138571906Y-69435864D01*
X138570233Y-69437539D01*
X138568807Y-69438319D01*
X138566173Y-69440407D01*
X138565816Y-69439956D01*
X138507951Y-69471619D01*
X138437131Y-69466616D01*
X138392046Y-69437699D01*
X138388985Y-69434644D01*
X138383803Y-69429471D01*
X138377572Y-69425630D01*
X138241950Y-69342031D01*
X138241948Y-69342030D01*
X138235720Y-69338191D01*
X138070609Y-69283426D01*
X138063773Y-69282726D01*
X138063770Y-69282725D01*
X138012274Y-69277449D01*
X137967872Y-69272900D01*
X137645213Y-69272900D01*
X137616905Y-69269524D01*
X137611618Y-69267600D01*
X137604641Y-69266719D01*
X137604630Y-69266716D01*
X137568602Y-69262165D01*
X137556050Y-69259929D01*
X137520689Y-69251765D01*
X137520686Y-69251765D01*
X137513818Y-69250179D01*
X137506772Y-69250154D01*
X137506769Y-69250154D01*
X137473247Y-69250037D01*
X137472365Y-69250008D01*
X137471534Y-69249903D01*
X137434884Y-69249903D01*
X137434444Y-69249902D01*
X137335960Y-69249558D01*
X137335955Y-69249558D01*
X137332433Y-69249546D01*
X137331233Y-69249814D01*
X137329596Y-69249903D01*
X135671149Y-69249903D01*
X135603028Y-69229901D01*
X135556967Y-69176229D01*
X135556127Y-69173644D01*
X135552822Y-69167919D01*
X135498771Y-69074300D01*
X135482033Y-69005304D01*
X135505254Y-68938213D01*
X135561061Y-68894326D01*
X135607890Y-68885300D01*
X142165115Y-68885300D01*
X142233236Y-68905302D01*
G37*
%TD.AperFunction*%
%TA.AperFunction,Conductor*%
G36*
X96106521Y-71494502D02*
G01*
X96153014Y-71548158D01*
X96164400Y-71600500D01*
X96164400Y-72755885D01*
X96168875Y-72771124D01*
X96170265Y-72772329D01*
X96177948Y-72774000D01*
X96194166Y-72774000D01*
X96200682Y-72773663D01*
X96294532Y-72763925D01*
X96307928Y-72761032D01*
X96459353Y-72710512D01*
X96472515Y-72704347D01*
X96585184Y-72634626D01*
X96653636Y-72615789D01*
X96721405Y-72636951D01*
X96766976Y-72691392D01*
X96774282Y-72718886D01*
X96774737Y-72718778D01*
X96776564Y-72726460D01*
X96777417Y-72734316D01*
X96828547Y-72870705D01*
X96915901Y-72987261D01*
X97032457Y-73074615D01*
X97168846Y-73125745D01*
X97231028Y-73132500D01*
X99039568Y-73132500D01*
X99107689Y-73152502D01*
X99128663Y-73169405D01*
X99351105Y-73391847D01*
X99358649Y-73400137D01*
X99362762Y-73406618D01*
X99368539Y-73412043D01*
X99412429Y-73453258D01*
X99415271Y-73456013D01*
X99434993Y-73475735D01*
X99438117Y-73478158D01*
X99438121Y-73478162D01*
X99438186Y-73478212D01*
X99447207Y-73485917D01*
X99479441Y-73516186D01*
X99486389Y-73520005D01*
X99486391Y-73520007D01*
X99497194Y-73525946D01*
X99513721Y-73536802D01*
X99523460Y-73544357D01*
X99523462Y-73544358D01*
X99529722Y-73549214D01*
X99570302Y-73566774D01*
X99580951Y-73571992D01*
X99590633Y-73577315D01*
X99640691Y-73627661D01*
X99655583Y-73697078D01*
X99630580Y-73763527D01*
X99573623Y-73805910D01*
X99529930Y-73813728D01*
X93771811Y-73813728D01*
X93703690Y-73793726D01*
X93657197Y-73740070D01*
X93647093Y-73669796D01*
X93676587Y-73605216D01*
X93682716Y-73598633D01*
X94403144Y-72878205D01*
X94465456Y-72844179D01*
X94492239Y-72841300D01*
X94583487Y-72841300D01*
X94589939Y-72839928D01*
X94589944Y-72839928D01*
X94676888Y-72821447D01*
X94770288Y-72801594D01*
X94776319Y-72798909D01*
X94938722Y-72726603D01*
X94938724Y-72726602D01*
X94944752Y-72723918D01*
X94955725Y-72715946D01*
X94991373Y-72690046D01*
X95076360Y-72628298D01*
X95143226Y-72604441D01*
X95216536Y-72622975D01*
X95349463Y-72704912D01*
X95362641Y-72711056D01*
X95514166Y-72761315D01*
X95527532Y-72764181D01*
X95620170Y-72773672D01*
X95626585Y-72774000D01*
X95638285Y-72774000D01*
X95653524Y-72769525D01*
X95654729Y-72768135D01*
X95656400Y-72760452D01*
X95656400Y-71600500D01*
X95676402Y-71532379D01*
X95730058Y-71485886D01*
X95782400Y-71474500D01*
X96038400Y-71474500D01*
X96106521Y-71494502D01*
G37*
%TD.AperFunction*%
%TA.AperFunction,Conductor*%
G36*
X105052399Y-73046013D02*
G01*
X105098892Y-73099668D01*
X105110279Y-73152011D01*
X105110279Y-73687728D01*
X105090277Y-73755849D01*
X105036621Y-73802342D01*
X104984279Y-73813728D01*
X104836279Y-73813728D01*
X104768158Y-73793726D01*
X104721665Y-73740070D01*
X104710279Y-73687728D01*
X104710279Y-73152012D01*
X104730281Y-73083891D01*
X104783937Y-73037398D01*
X104836278Y-73026012D01*
X104902527Y-73026012D01*
X104984280Y-73026011D01*
X105052399Y-73046013D01*
G37*
%TD.AperFunction*%
%TA.AperFunction,Conductor*%
G36*
X90135181Y-70775302D02*
G01*
X90181674Y-70828958D01*
X90193060Y-70881300D01*
X90193060Y-71855533D01*
X90199815Y-71917715D01*
X90250945Y-72054104D01*
X90338299Y-72170660D01*
X90421098Y-72232714D01*
X90429397Y-72238934D01*
X90471912Y-72295793D01*
X90476938Y-72366612D01*
X90442878Y-72428905D01*
X90380547Y-72462895D01*
X90340225Y-72465023D01*
X90335135Y-72464470D01*
X90335131Y-72464470D01*
X90331736Y-72464101D01*
X89703464Y-72464101D01*
X89694001Y-72465129D01*
X89624118Y-72452601D01*
X89572103Y-72404280D01*
X89554468Y-72335508D01*
X89576814Y-72268120D01*
X89604828Y-72239040D01*
X89689364Y-72175684D01*
X89701925Y-72163123D01*
X89778426Y-72061048D01*
X89786964Y-72045453D01*
X89832118Y-71925005D01*
X89835745Y-71909750D01*
X89841271Y-71858885D01*
X89841640Y-71852071D01*
X89841640Y-71560769D01*
X89837165Y-71545530D01*
X89835775Y-71544325D01*
X89828092Y-71542654D01*
X89339753Y-71542654D01*
X89324514Y-71547129D01*
X89323309Y-71548519D01*
X89321638Y-71556202D01*
X89321638Y-72297283D01*
X89326113Y-72312522D01*
X89327503Y-72313727D01*
X89335186Y-72315398D01*
X89378309Y-72315398D01*
X89385131Y-72315028D01*
X89391055Y-72314385D01*
X89460937Y-72326914D01*
X89512952Y-72375236D01*
X89530585Y-72444009D01*
X89508237Y-72511396D01*
X89480226Y-72540473D01*
X89388337Y-72609340D01*
X89300983Y-72725896D01*
X89297055Y-72736375D01*
X89272799Y-72801076D01*
X89230157Y-72857840D01*
X89163596Y-72882540D01*
X89154817Y-72882846D01*
X88603488Y-72882846D01*
X88535367Y-72862844D01*
X88488874Y-72809188D01*
X88483965Y-72796723D01*
X88448374Y-72690046D01*
X88448373Y-72690044D01*
X88446054Y-72683093D01*
X88354516Y-72535169D01*
X88336276Y-72516961D01*
X88247614Y-72428453D01*
X88213535Y-72366170D01*
X88218538Y-72295350D01*
X88247459Y-72250262D01*
X88297732Y-72199901D01*
X88360014Y-72165822D01*
X88430834Y-72170825D01*
X88462470Y-72188093D01*
X88547988Y-72252185D01*
X88563582Y-72260723D01*
X88684030Y-72305877D01*
X88699285Y-72309504D01*
X88750150Y-72315030D01*
X88756964Y-72315399D01*
X88795523Y-72315399D01*
X88810762Y-72310924D01*
X88811967Y-72309534D01*
X88813638Y-72301851D01*
X88813638Y-71160654D01*
X88833640Y-71092533D01*
X88887296Y-71046040D01*
X88939638Y-71034654D01*
X89823524Y-71034654D01*
X89838763Y-71030179D01*
X89839968Y-71028789D01*
X89841639Y-71021106D01*
X89841639Y-70881300D01*
X89861641Y-70813179D01*
X89915297Y-70766686D01*
X89967639Y-70755300D01*
X90067060Y-70755300D01*
X90135181Y-70775302D01*
G37*
%TD.AperFunction*%
%TA.AperFunction,Conductor*%
G36*
X91790717Y-72151650D02*
G01*
X91804915Y-72165822D01*
X91889186Y-72249947D01*
X91923265Y-72312230D01*
X91918262Y-72383050D01*
X91889341Y-72428137D01*
X91786646Y-72531012D01*
X91786642Y-72531017D01*
X91781471Y-72536197D01*
X91777631Y-72542427D01*
X91777630Y-72542428D01*
X91694764Y-72676862D01*
X91690191Y-72684280D01*
X91687887Y-72691225D01*
X91687887Y-72691226D01*
X91686577Y-72695177D01*
X91684950Y-72697526D01*
X91684793Y-72697862D01*
X91684736Y-72697835D01*
X91646148Y-72753538D01*
X91580585Y-72780777D01*
X91510703Y-72768245D01*
X91501480Y-72762645D01*
X91501411Y-72762764D01*
X91495693Y-72759462D01*
X91490352Y-72755582D01*
X91484324Y-72752898D01*
X91484322Y-72752897D01*
X91321919Y-72680591D01*
X91321918Y-72680591D01*
X91315888Y-72677906D01*
X91222488Y-72658053D01*
X91135544Y-72639572D01*
X91135539Y-72639572D01*
X91129087Y-72638200D01*
X90938113Y-72638200D01*
X90931661Y-72639572D01*
X90931656Y-72639572D01*
X90784285Y-72670897D01*
X90713494Y-72665495D01*
X90657263Y-72623216D01*
X90652246Y-72616522D01*
X90652244Y-72616520D01*
X90646863Y-72609340D01*
X90555765Y-72541065D01*
X90513250Y-72484207D01*
X90508224Y-72413388D01*
X90542284Y-72351095D01*
X90604615Y-72317105D01*
X90644937Y-72314977D01*
X90650027Y-72315530D01*
X90650031Y-72315530D01*
X90653426Y-72315899D01*
X91281698Y-72315899D01*
X91343880Y-72309144D01*
X91480269Y-72258014D01*
X91596825Y-72170660D01*
X91602206Y-72163480D01*
X91608556Y-72157130D01*
X91609919Y-72158493D01*
X91657739Y-72122741D01*
X91728558Y-72117719D01*
X91790717Y-72151650D01*
G37*
%TD.AperFunction*%
%TA.AperFunction,Conductor*%
G36*
X133903431Y-68905302D02*
G01*
X133949924Y-68958958D01*
X133960028Y-69029232D01*
X133944429Y-69074300D01*
X133942103Y-69078329D01*
X133887073Y-69173644D01*
X133828058Y-69355272D01*
X133827368Y-69361833D01*
X133827368Y-69361835D01*
X133819157Y-69439956D01*
X133808096Y-69545200D01*
X133808861Y-69552472D01*
X133810314Y-69566299D01*
X133797542Y-69636138D01*
X133749041Y-69687985D01*
X133685004Y-69705471D01*
X132976657Y-69705471D01*
X132961418Y-69709946D01*
X132960213Y-69711336D01*
X132958542Y-69719019D01*
X132958542Y-72091407D01*
X132938540Y-72159528D01*
X132884884Y-72206021D01*
X132832542Y-72217407D01*
X132576542Y-72217407D01*
X132508421Y-72197405D01*
X132461928Y-72143749D01*
X132450542Y-72091407D01*
X132450542Y-69723587D01*
X132446067Y-69708348D01*
X132444677Y-69707143D01*
X132436994Y-69705472D01*
X131409873Y-69705472D01*
X131403052Y-69705842D01*
X131352190Y-69711366D01*
X131336938Y-69714992D01*
X131216488Y-69760147D01*
X131200893Y-69768685D01*
X131106301Y-69839578D01*
X131039795Y-69864426D01*
X130970412Y-69849373D01*
X130920182Y-69799199D01*
X130904736Y-69738752D01*
X130904736Y-69710269D01*
X130897981Y-69648087D01*
X130846851Y-69511698D01*
X130759497Y-69395142D01*
X130642941Y-69307788D01*
X130506552Y-69256658D01*
X130444370Y-69249903D01*
X127798685Y-69249903D01*
X127730564Y-69229901D01*
X127709590Y-69212998D01*
X127682892Y-69186300D01*
X127652154Y-69136142D01*
X127633368Y-69078325D01*
X127633367Y-69078324D01*
X127631327Y-69072044D01*
X127628023Y-69066321D01*
X127626345Y-69062553D01*
X127616908Y-68992186D01*
X127647013Y-68927888D01*
X127707100Y-68890073D01*
X127741450Y-68885300D01*
X133835310Y-68885300D01*
X133903431Y-68905302D01*
G37*
%TD.AperFunction*%
%TA.AperFunction,Conductor*%
G36*
X105052399Y-70446013D02*
G01*
X105098892Y-70499668D01*
X105110279Y-70552011D01*
X105110279Y-71483012D01*
X105090277Y-71551133D01*
X105036621Y-71597626D01*
X104984280Y-71609012D01*
X104910280Y-71609012D01*
X104836278Y-71609013D01*
X104768159Y-71589011D01*
X104721666Y-71535356D01*
X104710279Y-71483013D01*
X104710279Y-70552012D01*
X104730281Y-70483891D01*
X104783937Y-70437398D01*
X104836278Y-70426012D01*
X104910278Y-70426012D01*
X104984280Y-70426011D01*
X105052399Y-70446013D01*
G37*
%TD.AperFunction*%
%TA.AperFunction,Conductor*%
G36*
X95057279Y-70775302D02*
G01*
X95103772Y-70828958D01*
X95113876Y-70899232D01*
X95088038Y-70959394D01*
X95080024Y-70969542D01*
X95025465Y-71058053D01*
X94972693Y-71105547D01*
X94902622Y-71116971D01*
X94866957Y-71107045D01*
X94776323Y-71066692D01*
X94776315Y-71066689D01*
X94770288Y-71064006D01*
X94676888Y-71044153D01*
X94589944Y-71025672D01*
X94589939Y-71025672D01*
X94583487Y-71024300D01*
X94392513Y-71024300D01*
X94386061Y-71025672D01*
X94386056Y-71025672D01*
X94299112Y-71044153D01*
X94205712Y-71064006D01*
X94199682Y-71066691D01*
X94199681Y-71066691D01*
X94037278Y-71138997D01*
X94037276Y-71138998D01*
X94031248Y-71141682D01*
X94025907Y-71145562D01*
X94025906Y-71145563D01*
X93983386Y-71176456D01*
X93876747Y-71253934D01*
X93811534Y-71326360D01*
X93751090Y-71363598D01*
X93680106Y-71362246D01*
X93621122Y-71322732D01*
X93592864Y-71257602D01*
X93591900Y-71242048D01*
X93591900Y-71127128D01*
X93589661Y-71105547D01*
X93581819Y-71029965D01*
X93581818Y-71029961D01*
X93581107Y-71023107D01*
X93573883Y-71001452D01*
X93547100Y-70921176D01*
X93544516Y-70850227D01*
X93580699Y-70789143D01*
X93644163Y-70757318D01*
X93666624Y-70755300D01*
X94989158Y-70755300D01*
X95057279Y-70775302D01*
G37*
%TD.AperFunction*%
%TD*%
M02*
