%TF.GenerationSoftware,KiCad,Pcbnew,(6.0.6-0)*%
%TF.CreationDate,2022-09-10T00:16:47-07:00*%
%TF.ProjectId,Battery Extension PCB,42617474-6572-4792-9045-7874656e7369,rev?*%
%TF.SameCoordinates,Original*%
%TF.FileFunction,Profile,NP*%
%FSLAX46Y46*%
G04 Gerber Fmt 4.6, Leading zero omitted, Abs format (unit mm)*
G04 Created by KiCad (PCBNEW (6.0.6-0)) date 2022-09-10 00:16:47*
%MOMM*%
%LPD*%
G01*
G04 APERTURE LIST*
%TA.AperFunction,Profile*%
%ADD10C,0.100000*%
%TD*%
G04 APERTURE END LIST*
D10*
X66794540Y-68376800D02*
X69356431Y-68376800D01*
X69411412Y-74322228D02*
X66794540Y-74322228D01*
X70356431Y-64066270D02*
X75851586Y-64066270D01*
X70356431Y-64066331D02*
G75*
G03*
X69856431Y-64566270I-31J-499969D01*
G01*
X142799700Y-68876800D02*
G75*
G03*
X142299615Y-68376800I-500000J0D01*
G01*
X115625445Y-80273967D02*
X115625445Y-76322228D01*
X69356431Y-68376831D02*
G75*
G03*
X69856431Y-67876800I-31J500031D01*
G01*
X76851586Y-68376800D02*
X142299615Y-68376800D01*
X115625372Y-76322228D02*
G75*
G03*
X113625445Y-74322228I-1999972J28D01*
G01*
X69856431Y-67876800D02*
X69856431Y-64566270D01*
X76351586Y-64566270D02*
X76351586Y-67876800D01*
X115625433Y-80273967D02*
G75*
G03*
X116125445Y-80773967I499967J-33D01*
G01*
X76351600Y-67876800D02*
G75*
G03*
X76851586Y-68376800I500000J0D01*
G01*
X66294472Y-73822228D02*
G75*
G03*
X66794540Y-74322228I500028J28D01*
G01*
X113625445Y-74322228D02*
X69411412Y-74322228D01*
X66794540Y-68376840D02*
G75*
G03*
X66294540Y-68876800I-40J-499960D01*
G01*
X142299615Y-80774015D02*
G75*
G03*
X142799615Y-80273967I-115J500115D01*
G01*
X142799615Y-68876800D02*
X142799615Y-80273967D01*
X76351630Y-64566270D02*
G75*
G03*
X75851586Y-64066270I-500030J-30D01*
G01*
X142299615Y-80773967D02*
X116125445Y-80773967D01*
X66294540Y-73822228D02*
X66294540Y-68876800D01*
M02*
