M48
; DRILL file {KiCad (6.0.6-0)} date 2022 September 10, Saturday 13:43:18
; FORMAT={-:-/ absolute / inch / decimal}
; #@! TF.CreationDate,2022-09-10T13:43:18-07:00
; #@! TF.GenerationSoftware,Kicad,Pcbnew,(6.0.6-0)
; #@! TF.FileFunction,Plated,1,2,PTH
FMAT,2
INCH
; #@! TA.AperFunction,Plated,PTH,ViaDrill
T1C0.0157
; #@! TA.AperFunction,Plated,PTH,ComponentDrill
T2C0.0276
; #@! TA.AperFunction,Plated,PTH,ComponentDrill
T3C0.0394
; #@! TA.AperFunction,Plated,PTH,ViaDrill
T4C0.0454
; #@! TA.AperFunction,Plated,PTH,ComponentDrill
T5C0.0512
; #@! TA.AperFunction,Plated,PTH,ComponentDrill
T6C0.1260
%
G90
G05
T1
X4.47Y-4.324
X4.476Y-4.558
X4.482Y-3.396
X4.482Y-3.594
X4.486Y-3.18
X4.486Y-4.016
X4.488Y-3.79
X4.492Y-3.022
X4.496Y-2.884
X4.504Y-4.824
X4.504Y-5.034
X4.974Y-5.304
X5.082Y-2.868
X5.116Y-3.07
X5.13Y-3.354
X5.136Y-3.504
X5.142Y-4.944
X5.154Y-4.73
X5.162Y-2.958
X5.178Y-2.866
X5.19Y-3.33
X5.194Y-3.764
X5.206Y-3.176
X5.22Y-3.81
X5.262Y-3.428
X5.294Y-4.406
X5.314Y-4.604
X5.328Y-3.582
X5.34Y-4.408
X5.355Y-3.803
X5.364Y-4.686
X5.38Y-5.338
X5.384Y-3.774
X5.384Y-5.282
X5.394Y-2.914
X5.396Y-3.51
X5.402Y-3.42
X5.418Y-3.266
X5.42Y-3.076
X5.424Y-3.172
X5.424Y-3.304
X5.426Y-2.996
X5.428Y-4.08
X5.428Y-4.52
X5.432Y-4.124
X5.432Y-4.17
X5.446Y-3.478
X5.458Y-4.56
X5.484Y-2.914
X5.484Y-2.952
X5.514Y-3.422
X5.536Y-2.968
X5.542Y-3.292
X5.578Y-3.344
X5.598Y-4.624
X5.628Y-5.216
X5.63Y-3.9539
X5.6512Y-5.3548
X5.654Y-4.18
X5.67Y-5.1105
X5.678Y-4.862
X5.686Y-4.73
X5.686Y-4.794
X5.692Y-4.07
X5.694Y-5.254
X5.696Y-4.288
X5.698Y-3.388
X5.728Y-4.018
X5.736Y-3.19
X5.74Y-5.03
X5.744Y-5.216
X5.754Y-4.81
X5.758Y-3.012
X5.762Y-2.934
X5.764Y-3.108
X5.79Y-4.856
X5.792Y-4.994
X5.794Y-3.142
X5.808Y-3.062
X5.8191Y-2.8609
X5.838Y-3.6
X5.854Y-3.108
X5.858Y-2.928
X5.884Y-3.248
X5.89Y-4.202
X5.89Y-5.08
X5.9079Y-3.4341
X5.91Y-3.05
X5.918Y-2.936
X5.932Y-3.562
X5.946Y-4.864
X5.968Y-3.596
X5.978Y-4.952
X5.986Y-5.362
X6.0Y-3.78
X6.014Y-3.868
X6.016Y-5.29
X6.06Y-3.478
X6.068Y-3.574
X6.0781Y-3.3759
X6.0831Y-2.8609
X6.092Y-3.084
X6.174Y-3.734
X6.176Y-3.62
X6.1891Y-2.8609
X6.242Y-3.688
X6.282Y-3.6
X6.304Y-4.996
X6.354Y-4.194
X6.44Y-5.258
X6.676Y-4.534
X6.73Y-3.204
X6.748Y-4.426
X6.76Y-4.594
X6.88Y-5.034
X6.886Y-4.806
X6.914Y-2.996
X6.918Y-4.684
T3
X6.116Y-4.002
X6.116Y-4.102
X6.116Y-4.202
X6.116Y-4.302
X6.116Y-4.402
X6.116Y-4.502
X6.116Y-4.602
T4
X4.73Y-2.766
X6.374Y-5.258
T5
X4.8721Y-2.9094
X4.8721Y-3.1063
X4.8721Y-3.3031
X4.8721Y-3.5
X4.8721Y-3.6969
X4.8721Y-3.8938
X4.8721Y-4.1122
X4.8721Y-4.3091
X4.8721Y-4.5059
X4.8721Y-4.7028
X4.8721Y-4.8996
X4.8721Y-5.0965
X6.5179Y-2.9094
X6.5179Y-3.1063
X6.5179Y-3.3031
X6.5179Y-3.5
X6.5179Y-3.6968
X6.5179Y-3.8937
X6.5179Y-4.1122
X6.5179Y-4.3091
X6.5179Y-4.5059
X6.5179Y-4.7028
X6.5179Y-4.8996
X6.5179Y-5.0965
T6
X4.5787Y-2.6751
X4.5787Y-5.2662
X6.8105Y-2.6732
X6.8105Y-5.2662
T2
G00X5.5098Y-5.1686
M15
G01X5.5098Y-5.2119
M16
G05
G00X5.5098Y-5.343
M15
G01X5.5098Y-5.3666
M16
G05
G00X5.85Y-5.1686
M15
G01X5.85Y-5.2119
M16
G05
G00X5.85Y-5.343
M15
G01X5.85Y-5.3666
M16
G05
T0
M30
