%TF.GenerationSoftware,KiCad,Pcbnew,(6.0.6-0)*%
%TF.CreationDate,2022-09-10T01:47:49-07:00*%
%TF.ProjectId,Battery Extension PCB,42617474-6572-4792-9045-7874656e7369,rev?*%
%TF.SameCoordinates,Original*%
%TF.FileFunction,Soldermask,Top*%
%TF.FilePolarity,Negative*%
%FSLAX46Y46*%
G04 Gerber Fmt 4.6, Leading zero omitted, Abs format (unit mm)*
G04 Created by KiCad (PCBNEW (6.0.6-0)) date 2022-09-10 01:47:49*
%MOMM*%
%LPD*%
G01*
G04 APERTURE LIST*
G04 Aperture macros list*
%AMRoundRect*
0 Rectangle with rounded corners*
0 $1 Rounding radius*
0 $2 $3 $4 $5 $6 $7 $8 $9 X,Y pos of 4 corners*
0 Add a 4 corners polygon primitive as box body*
4,1,4,$2,$3,$4,$5,$6,$7,$8,$9,$2,$3,0*
0 Add four circle primitives for the rounded corners*
1,1,$1+$1,$2,$3*
1,1,$1+$1,$4,$5*
1,1,$1+$1,$6,$7*
1,1,$1+$1,$8,$9*
0 Add four rect primitives between the rounded corners*
20,1,$1+$1,$2,$3,$4,$5,0*
20,1,$1+$1,$4,$5,$6,$7,0*
20,1,$1+$1,$6,$7,$8,$9,0*
20,1,$1+$1,$8,$9,$2,$3,0*%
G04 Aperture macros list end*
%ADD10R,2.000000X3.500000*%
%ADD11R,1.072009X0.532004*%
%ADD12RoundRect,0.237500X-0.300000X-0.237500X0.300000X-0.237500X0.300000X0.237500X-0.300000X0.237500X0*%
%ADD13R,3.000000X2.100000*%
%ADD14R,1.600000X0.800000*%
%ADD15RoundRect,0.237500X-0.250000X-0.237500X0.250000X-0.237500X0.250000X0.237500X-0.250000X0.237500X0*%
%ADD16RoundRect,0.250000X-0.400000X-1.450000X0.400000X-1.450000X0.400000X1.450000X-0.400000X1.450000X0*%
%ADD17R,3.500000X2.000000*%
%ADD18R,1.000000X0.550013*%
%ADD19RoundRect,0.237500X0.237500X-0.300000X0.237500X0.300000X-0.237500X0.300000X-0.237500X-0.300000X0*%
%ADD20R,1.900000X2.500000*%
%ADD21RoundRect,0.237500X-0.237500X0.300000X-0.237500X-0.300000X0.237500X-0.300000X0.237500X0.300000X0*%
%ADD22RoundRect,0.237500X0.237500X-0.250000X0.237500X0.250000X-0.237500X0.250000X-0.237500X-0.250000X0*%
%ADD23R,1.200000X0.600000*%
%ADD24R,2.500000X3.499873*%
%ADD25RoundRect,0.237500X0.300000X0.237500X-0.300000X0.237500X-0.300000X-0.237500X0.300000X-0.237500X0*%
%ADD26RoundRect,0.250000X0.550000X-1.500000X0.550000X1.500000X-0.550000X1.500000X-0.550000X-1.500000X0*%
%ADD27R,2.460000X2.310000*%
%ADD28RoundRect,0.100000X-0.687500X-0.100000X0.687500X-0.100000X0.687500X0.100000X-0.687500X0.100000X0*%
%ADD29RoundRect,0.237500X0.250000X0.237500X-0.250000X0.237500X-0.250000X-0.237500X0.250000X-0.237500X0*%
%ADD30RoundRect,0.237500X-0.237500X0.250000X-0.237500X-0.250000X0.237500X-0.250000X0.237500X0.250000X0*%
%ADD31R,0.532004X1.037490*%
G04 APERTURE END LIST*
D10*
%TO.C,P3*%
X118338600Y-80721200D03*
%TD*%
D11*
%TO.C,U6*%
X133451600Y-75925676D03*
X133451600Y-76875638D03*
X133451600Y-77825600D03*
X135749796Y-77825600D03*
X135749796Y-76875638D03*
X135749796Y-75925676D03*
%TD*%
D12*
%TO.C,C5*%
X125578700Y-70358000D03*
X127303700Y-70358000D03*
%TD*%
D13*
%TO.C,U1*%
X72229676Y-66420994D03*
X72229676Y-72771006D03*
D14*
X75129600Y-68970905D03*
X75129600Y-70221095D03*
%TD*%
D10*
%TO.C,P7*%
X128244600Y-80721200D03*
%TD*%
D15*
%TO.C,R7*%
X137532442Y-72623807D03*
X139357442Y-72623807D03*
%TD*%
D16*
%TO.C,F1*%
X80528200Y-70662800D03*
X84978200Y-70662800D03*
%TD*%
D15*
%TO.C,R2*%
X75492600Y-71729600D03*
X77317600Y-71729600D03*
%TD*%
D17*
%TO.C,P2*%
X68021200Y-72694800D03*
%TD*%
D18*
%TO.C,U3*%
X129085847Y-75938123D03*
X129085847Y-76888085D03*
X129085847Y-77838047D03*
X131885949Y-77838047D03*
X131885949Y-76888085D03*
X131885949Y-75938123D03*
%TD*%
D17*
%TO.C,P13*%
X142240000Y-71729600D03*
%TD*%
D19*
%TO.C,C3*%
X112623600Y-72693700D03*
X112623600Y-70968700D03*
%TD*%
D15*
%TO.C,R5*%
X131812706Y-79391539D03*
X133637706Y-79391539D03*
%TD*%
D20*
%TO.C,U7*%
X98229162Y-71374000D03*
X102329238Y-71374000D03*
%TD*%
D17*
%TO.C,P1*%
X68021200Y-69926200D03*
%TD*%
D21*
%TO.C,C2*%
X95910400Y-70003500D03*
X95910400Y-71728500D03*
%TD*%
D22*
%TO.C,R3*%
X92608400Y-73251700D03*
X92608400Y-71426700D03*
%TD*%
D23*
%TO.C,U5*%
X135612848Y-73868411D03*
X135612848Y-72598408D03*
X135612848Y-71328406D03*
X135612848Y-70058403D03*
X129796236Y-70058403D03*
X129796236Y-71328406D03*
X129796236Y-72598408D03*
X129796236Y-73868411D03*
D24*
X132704542Y-71963407D03*
%TD*%
D25*
%TO.C,C1*%
X139343300Y-70256400D03*
X137618300Y-70256400D03*
%TD*%
D26*
%TO.C,C6*%
X119837200Y-76415200D03*
X119837200Y-70815200D03*
%TD*%
D25*
%TO.C,C4*%
X127303700Y-71983600D03*
X125578700Y-71983600D03*
%TD*%
D27*
%TO.C,U4*%
X107772779Y-71342512D03*
D28*
X104910279Y-69067512D03*
X104910279Y-69717512D03*
X104910279Y-70367512D03*
X104910279Y-71017512D03*
X104910279Y-71667512D03*
X104910279Y-72317512D03*
X104910279Y-72967512D03*
X104910279Y-73617512D03*
X110635279Y-73617512D03*
X110635279Y-72967512D03*
X110635279Y-72317512D03*
X110635279Y-71667512D03*
X110635279Y-71017512D03*
X110635279Y-70367512D03*
X110635279Y-69717512D03*
X110635279Y-69067512D03*
%TD*%
D17*
%TO.C,P12*%
X142240000Y-77343000D03*
%TD*%
D29*
%TO.C,R1*%
X77317600Y-73304400D03*
X75492600Y-73304400D03*
%TD*%
D30*
%TO.C,R4*%
X87528400Y-71426700D03*
X87528400Y-73251700D03*
%TD*%
D10*
%TO.C,P11*%
X138252200Y-80721200D03*
%TD*%
D15*
%TO.C,R8*%
X125528700Y-73558400D03*
X127353700Y-73558400D03*
%TD*%
D31*
%TO.C,U2*%
X90967562Y-71288654D03*
X89067638Y-71288654D03*
X90017600Y-73491346D03*
%TD*%
M02*
