%TF.GenerationSoftware,KiCad,Pcbnew,(6.0.6-0)*%
%TF.CreationDate,2022-09-10T01:47:49-07:00*%
%TF.ProjectId,Battery Extension PCB,42617474-6572-4792-9045-7874656e7369,rev?*%
%TF.SameCoordinates,Original*%
%TF.FileFunction,Legend,Top*%
%TF.FilePolarity,Positive*%
%FSLAX46Y46*%
G04 Gerber Fmt 4.6, Leading zero omitted, Abs format (unit mm)*
G04 Created by KiCad (PCBNEW (6.0.6-0)) date 2022-09-10 01:47:49*
%MOMM*%
%LPD*%
G01*
G04 APERTURE LIST*
%ADD10C,0.152400*%
%ADD11C,0.300000*%
%ADD12C,0.100000*%
%ADD13C,0.120000*%
%ADD14C,0.254001*%
%ADD15C,0.059995*%
G04 APERTURE END LIST*
D10*
%TO.C,U6*%
X133711493Y-75336446D02*
X135489903Y-75336446D01*
X133711493Y-78414830D02*
X135489903Y-78414830D01*
D11*
X133449313Y-75207363D02*
G75*
G03*
X133449313Y-75207363I-150114J0D01*
G01*
D12*
X133250711Y-75412595D02*
G75*
G03*
X133250711Y-75412595I-50013J0D01*
G01*
D13*
%TO.C,C5*%
X126294933Y-70868000D02*
X126587467Y-70868000D01*
X126294933Y-69848000D02*
X126587467Y-69848000D01*
D14*
%TO.C,U1*%
X75609712Y-67805931D02*
X75020354Y-67806465D01*
X75579155Y-67847105D02*
X75619694Y-67805931D01*
X75020354Y-67826785D02*
X75309915Y-68116345D01*
D13*
X74529651Y-65895975D02*
X73975485Y-65913000D01*
X70129600Y-65895975D02*
X70129600Y-73296025D01*
D14*
X75309915Y-68116345D02*
X75579155Y-67847105D01*
D13*
X73924685Y-73304400D02*
X74529651Y-73296025D01*
X74529651Y-65895975D02*
X74534285Y-68249800D01*
X70444885Y-65887600D02*
X70129600Y-65895975D01*
X70129600Y-73296025D02*
X70521085Y-73304400D01*
X74529651Y-73253600D02*
X74529651Y-70993000D01*
D14*
X75020354Y-67806465D02*
X75020354Y-67826785D01*
D13*
%TO.C,R7*%
X138190218Y-73146307D02*
X138699666Y-73146307D01*
X138190218Y-72101307D02*
X138699666Y-72101307D01*
%TO.C,F1*%
X81366948Y-68952800D02*
X84139452Y-68952800D01*
X81366948Y-72372800D02*
X84139452Y-72372800D01*
%TO.C,R2*%
X76150376Y-71207100D02*
X76659824Y-71207100D01*
X76150376Y-72252100D02*
X76659824Y-72252100D01*
D14*
%TO.C,U3*%
X131385898Y-78437996D02*
X129585873Y-78437996D01*
X131385898Y-75337970D02*
X129585873Y-75337970D01*
X129215895Y-75237081D02*
G75*
G03*
X129215895Y-75237081I-127000J0D01*
G01*
D15*
X129115871Y-75453007D02*
G75*
G03*
X129115871Y-75453007I-29998J0D01*
G01*
D13*
%TO.C,C3*%
X113133600Y-71977467D02*
X113133600Y-71684933D01*
X112113600Y-71977467D02*
X112113600Y-71684933D01*
%TO.C,R5*%
X132470482Y-78869039D02*
X132979930Y-78869039D01*
X132470482Y-79914039D02*
X132979930Y-79914039D01*
D14*
%TO.C,U7*%
X102979200Y-69892847D02*
X102979200Y-68774025D01*
X102979200Y-73973975D02*
X97579200Y-73974000D01*
X97579200Y-72855153D02*
X97579200Y-73974000D01*
X97579200Y-68774000D02*
X97579200Y-69892847D01*
X97579200Y-68774000D02*
X102979200Y-68774025D01*
X102979200Y-73973975D02*
X102979200Y-72855153D01*
D15*
X97609172Y-73974000D02*
G75*
G03*
X97609172Y-73974000I-29997J0D01*
G01*
D13*
%TO.C,C2*%
X95400400Y-70719733D02*
X95400400Y-71012267D01*
X96420400Y-70719733D02*
X96420400Y-71012267D01*
%TO.C,R3*%
X92085900Y-72593924D02*
X92085900Y-72084476D01*
X93130900Y-72593924D02*
X93130900Y-72084476D01*
D14*
%TO.C,U5*%
X134754580Y-69413496D02*
X134754580Y-74513572D01*
X133504644Y-74513318D02*
X134754580Y-74513318D01*
X130654504Y-74513318D02*
X130654504Y-69413242D01*
X130654504Y-69413496D02*
X134754580Y-69413496D01*
X131904440Y-74513318D02*
X130654504Y-74513318D01*
X131904440Y-74463280D02*
G75*
G03*
X133504644Y-74463280I800102J1683851D01*
G01*
X135374849Y-74993379D02*
G75*
G03*
X135374849Y-74993379I-170180J0D01*
G01*
D15*
X135684476Y-74417560D02*
G75*
G03*
X135684476Y-74417560I-29972J0D01*
G01*
D13*
%TO.C,C1*%
X138627067Y-69746400D02*
X138334533Y-69746400D01*
X138627067Y-70766400D02*
X138334533Y-70766400D01*
%TO.C,C6*%
X116427200Y-75960763D02*
X116427200Y-70205200D01*
X116427200Y-70205200D02*
X118777200Y-70205200D01*
X123247200Y-70205200D02*
X120897200Y-70205200D01*
X122182763Y-77025200D02*
X120897200Y-77025200D01*
X117989700Y-78052700D02*
X117989700Y-77265200D01*
X117491637Y-77025200D02*
X116427200Y-75960763D01*
X122182763Y-77025200D02*
X123247200Y-75960763D01*
X123247200Y-75960763D02*
X123247200Y-70205200D01*
X117595950Y-77658950D02*
X118383450Y-77658950D01*
X117491637Y-77025200D02*
X118777200Y-77025200D01*
%TO.C,C4*%
X126587467Y-71473600D02*
X126294933Y-71473600D01*
X126587467Y-72493600D02*
X126294933Y-72493600D01*
%TO.C,U4*%
X107772779Y-68582512D02*
X109972779Y-68582512D01*
X107772779Y-68582512D02*
X104122779Y-68582512D01*
X107772779Y-74102512D02*
X105572779Y-74102512D01*
X107772779Y-74102512D02*
X109972779Y-74102512D01*
%TO.C,R1*%
X76659824Y-73826900D02*
X76150376Y-73826900D01*
X76659824Y-72781900D02*
X76150376Y-72781900D01*
%TO.C,R4*%
X88050900Y-72084476D02*
X88050900Y-72593924D01*
X87005900Y-72084476D02*
X87005900Y-72593924D01*
%TO.C,R8*%
X126186476Y-73035900D02*
X126695924Y-73035900D01*
X126186476Y-74080900D02*
X126695924Y-74080900D01*
D10*
%TO.C,U2*%
X91543813Y-73248700D02*
X90512190Y-73248700D01*
X89562202Y-71531300D02*
X90472998Y-71531300D01*
X88491387Y-71531300D02*
X88491387Y-73248700D01*
X91543813Y-71531300D02*
X91543813Y-73248700D01*
X88491387Y-73248700D02*
X89523010Y-73248700D01*
D15*
X91547572Y-70965006D02*
G75*
G03*
X91547572Y-70965006I-29997J0D01*
G01*
%TD*%
M02*
