%TF.GenerationSoftware,KiCad,Pcbnew,(6.0.4-0)*%
%TF.CreationDate,2022-07-05T17:42:10+02:00*%
%TF.ProjectId,DC power,44432070-6f77-4657-922e-6b696361645f,rev?*%
%TF.SameCoordinates,Original*%
%TF.FileFunction,Legend,Top*%
%TF.FilePolarity,Positive*%
%FSLAX46Y46*%
G04 Gerber Fmt 4.6, Leading zero omitted, Abs format (unit mm)*
G04 Created by KiCad (PCBNEW (6.0.4-0)) date 2022-07-05 17:42:10*
%MOMM*%
%LPD*%
G01*
G04 APERTURE LIST*
%ADD10C,0.200000*%
%ADD11C,0.150000*%
%ADD12C,0.254001*%
G04 APERTURE END LIST*
D10*
X128527142Y-105960000D02*
X128384285Y-105888571D01*
X128170000Y-105888571D01*
X127955714Y-105960000D01*
X127812857Y-106102857D01*
X127741428Y-106245714D01*
X127670000Y-106531428D01*
X127670000Y-106745714D01*
X127741428Y-107031428D01*
X127812857Y-107174285D01*
X127955714Y-107317142D01*
X128170000Y-107388571D01*
X128312857Y-107388571D01*
X128527142Y-107317142D01*
X128598571Y-107245714D01*
X128598571Y-106745714D01*
X128312857Y-106745714D01*
X129241428Y-107388571D02*
X129241428Y-105888571D01*
X130098571Y-107388571D01*
X130098571Y-105888571D01*
X130812857Y-107388571D02*
X130812857Y-105888571D01*
X131170000Y-105888571D01*
X131384285Y-105960000D01*
X131527142Y-106102857D01*
X131598571Y-106245714D01*
X131670000Y-106531428D01*
X131670000Y-106745714D01*
X131598571Y-107031428D01*
X131527142Y-107174285D01*
X131384285Y-107317142D01*
X131170000Y-107388571D01*
X130812857Y-107388571D01*
X129364285Y-95958571D02*
X128650000Y-95958571D01*
X128578571Y-96672857D01*
X128650000Y-96601428D01*
X128792857Y-96530000D01*
X129150000Y-96530000D01*
X129292857Y-96601428D01*
X129364285Y-96672857D01*
X129435714Y-96815714D01*
X129435714Y-97172857D01*
X129364285Y-97315714D01*
X129292857Y-97387142D01*
X129150000Y-97458571D01*
X128792857Y-97458571D01*
X128650000Y-97387142D01*
X128578571Y-97315714D01*
X129864285Y-95958571D02*
X130364285Y-97458571D01*
X130864285Y-95958571D01*
D11*
X134127976Y-98101904D02*
X134127976Y-97301904D01*
X134432738Y-97301904D01*
X134508928Y-97340000D01*
X134547023Y-97378095D01*
X134585119Y-97454285D01*
X134585119Y-97568571D01*
X134547023Y-97644761D01*
X134508928Y-97682857D01*
X134432738Y-97720952D01*
X134127976Y-97720952D01*
X135385119Y-98025714D02*
X135347023Y-98063809D01*
X135232738Y-98101904D01*
X135156547Y-98101904D01*
X135042261Y-98063809D01*
X134966071Y-97987619D01*
X134927976Y-97911428D01*
X134889880Y-97759047D01*
X134889880Y-97644761D01*
X134927976Y-97492380D01*
X134966071Y-97416190D01*
X135042261Y-97340000D01*
X135156547Y-97301904D01*
X135232738Y-97301904D01*
X135347023Y-97340000D01*
X135385119Y-97378095D01*
X135994642Y-97682857D02*
X136108928Y-97720952D01*
X136147023Y-97759047D01*
X136185119Y-97835238D01*
X136185119Y-97949523D01*
X136147023Y-98025714D01*
X136108928Y-98063809D01*
X136032738Y-98101904D01*
X135727976Y-98101904D01*
X135727976Y-97301904D01*
X135994642Y-97301904D01*
X136070833Y-97340000D01*
X136108928Y-97378095D01*
X136147023Y-97454285D01*
X136147023Y-97530476D01*
X136108928Y-97606666D01*
X136070833Y-97644761D01*
X135994642Y-97682857D01*
X135727976Y-97682857D01*
X137023214Y-97568571D02*
X137327976Y-97568571D01*
X137137500Y-98101904D02*
X137137500Y-97416190D01*
X137175595Y-97340000D01*
X137251785Y-97301904D01*
X137327976Y-97301904D01*
X137594642Y-98101904D02*
X137594642Y-97568571D01*
X137594642Y-97301904D02*
X137556547Y-97340000D01*
X137594642Y-97378095D01*
X137632738Y-97340000D01*
X137594642Y-97301904D01*
X137594642Y-97378095D01*
X138089880Y-98101904D02*
X138013690Y-98063809D01*
X137975595Y-97987619D01*
X137975595Y-97301904D01*
X138699404Y-98063809D02*
X138623214Y-98101904D01*
X138470833Y-98101904D01*
X138394642Y-98063809D01*
X138356547Y-97987619D01*
X138356547Y-97682857D01*
X138394642Y-97606666D01*
X138470833Y-97568571D01*
X138623214Y-97568571D01*
X138699404Y-97606666D01*
X138737500Y-97682857D01*
X138737500Y-97759047D01*
X138356547Y-97835238D01*
X139042261Y-98063809D02*
X139118452Y-98101904D01*
X139270833Y-98101904D01*
X139347023Y-98063809D01*
X139385119Y-97987619D01*
X139385119Y-97949523D01*
X139347023Y-97873333D01*
X139270833Y-97835238D01*
X139156547Y-97835238D01*
X139080357Y-97797142D01*
X139042261Y-97720952D01*
X139042261Y-97682857D01*
X139080357Y-97606666D01*
X139156547Y-97568571D01*
X139270833Y-97568571D01*
X139347023Y-97606666D01*
X139727976Y-98025714D02*
X139766071Y-98063809D01*
X139727976Y-98101904D01*
X139689880Y-98063809D01*
X139727976Y-98025714D01*
X139727976Y-98101904D01*
X139727976Y-97606666D02*
X139766071Y-97644761D01*
X139727976Y-97682857D01*
X139689880Y-97644761D01*
X139727976Y-97606666D01*
X139727976Y-97682857D01*
X134127976Y-99389904D02*
X134127976Y-98589904D01*
X134470833Y-99389904D02*
X134470833Y-98970857D01*
X134432738Y-98894666D01*
X134356547Y-98856571D01*
X134242261Y-98856571D01*
X134166071Y-98894666D01*
X134127976Y-98932761D01*
X134737500Y-98856571D02*
X135042261Y-98856571D01*
X134851785Y-98589904D02*
X134851785Y-99275619D01*
X134889880Y-99351809D01*
X134966071Y-99389904D01*
X135042261Y-99389904D01*
X135194642Y-98856571D02*
X135499404Y-98856571D01*
X135308928Y-98589904D02*
X135308928Y-99275619D01*
X135347023Y-99351809D01*
X135423214Y-99389904D01*
X135499404Y-99389904D01*
X135766071Y-98856571D02*
X135766071Y-99656571D01*
X135766071Y-98894666D02*
X135842261Y-98856571D01*
X135994642Y-98856571D01*
X136070833Y-98894666D01*
X136108928Y-98932761D01*
X136147023Y-99008952D01*
X136147023Y-99237523D01*
X136108928Y-99313714D01*
X136070833Y-99351809D01*
X135994642Y-99389904D01*
X135842261Y-99389904D01*
X135766071Y-99351809D01*
X136451785Y-99351809D02*
X136527976Y-99389904D01*
X136680357Y-99389904D01*
X136756547Y-99351809D01*
X136794642Y-99275619D01*
X136794642Y-99237523D01*
X136756547Y-99161333D01*
X136680357Y-99123238D01*
X136566071Y-99123238D01*
X136489880Y-99085142D01*
X136451785Y-99008952D01*
X136451785Y-98970857D01*
X136489880Y-98894666D01*
X136566071Y-98856571D01*
X136680357Y-98856571D01*
X136756547Y-98894666D01*
X137137500Y-99313714D02*
X137175595Y-99351809D01*
X137137500Y-99389904D01*
X137099404Y-99351809D01*
X137137500Y-99313714D01*
X137137500Y-99389904D01*
X137137500Y-98894666D02*
X137175595Y-98932761D01*
X137137500Y-98970857D01*
X137099404Y-98932761D01*
X137137500Y-98894666D01*
X137137500Y-98970857D01*
X138089880Y-98551809D02*
X137404166Y-99580380D01*
X138927976Y-98551809D02*
X138242261Y-99580380D01*
X139194642Y-99389904D02*
X139194642Y-98589904D01*
X139194642Y-98894666D02*
X139270833Y-98856571D01*
X139423214Y-98856571D01*
X139499404Y-98894666D01*
X139537500Y-98932761D01*
X139575595Y-99008952D01*
X139575595Y-99237523D01*
X139537500Y-99313714D01*
X139499404Y-99351809D01*
X139423214Y-99389904D01*
X139270833Y-99389904D01*
X139194642Y-99351809D01*
X139918452Y-99389904D02*
X139918452Y-98856571D01*
X139918452Y-98589904D02*
X139880357Y-98628000D01*
X139918452Y-98666095D01*
X139956547Y-98628000D01*
X139918452Y-98589904D01*
X139918452Y-98666095D01*
X140185119Y-98856571D02*
X140489880Y-98856571D01*
X140299404Y-98589904D02*
X140299404Y-99275619D01*
X140337500Y-99351809D01*
X140413690Y-99389904D01*
X140489880Y-99389904D01*
X140756547Y-99313714D02*
X140794642Y-99351809D01*
X140756547Y-99389904D01*
X140718452Y-99351809D01*
X140756547Y-99313714D01*
X140756547Y-99389904D01*
X141251785Y-99389904D02*
X141175595Y-99351809D01*
X141137500Y-99275619D01*
X141137500Y-98589904D01*
X141480357Y-98856571D02*
X141670833Y-99389904D01*
X141861309Y-98856571D02*
X141670833Y-99389904D01*
X141594642Y-99580380D01*
X141556547Y-99618476D01*
X141480357Y-99656571D01*
X142737500Y-98551809D02*
X142051785Y-99580380D01*
X134051785Y-99877904D02*
X134547023Y-99877904D01*
X134280357Y-100182666D01*
X134394642Y-100182666D01*
X134470833Y-100220761D01*
X134508928Y-100258857D01*
X134547023Y-100335047D01*
X134547023Y-100525523D01*
X134508928Y-100601714D01*
X134470833Y-100639809D01*
X134394642Y-100677904D01*
X134166071Y-100677904D01*
X134089880Y-100639809D01*
X134051785Y-100601714D01*
X134813690Y-100144571D02*
X135004166Y-100677904D01*
X135194642Y-100144571D02*
X135004166Y-100677904D01*
X134927976Y-100868380D01*
X134889880Y-100906476D01*
X134813690Y-100944571D01*
X135499404Y-100677904D02*
X135499404Y-99877904D01*
X135842261Y-100677904D02*
X135842261Y-100258857D01*
X135804166Y-100182666D01*
X135727976Y-100144571D01*
X135613690Y-100144571D01*
X135537500Y-100182666D01*
X135499404Y-100220761D01*
X136223214Y-100677904D02*
X136223214Y-99877904D01*
X136566071Y-100677904D02*
X136566071Y-100258857D01*
X136527976Y-100182666D01*
X136451785Y-100144571D01*
X136337500Y-100144571D01*
X136261309Y-100182666D01*
X136223214Y-100220761D01*
X136947023Y-100144571D02*
X136947023Y-100830285D01*
X136908928Y-100906476D01*
X136832738Y-100944571D01*
X136794642Y-100944571D01*
X136947023Y-99877904D02*
X136908928Y-99916000D01*
X136947023Y-99954095D01*
X136985119Y-99916000D01*
X136947023Y-99877904D01*
X136947023Y-99954095D01*
X137327976Y-100677904D02*
X137327976Y-100144571D01*
X137327976Y-100220761D02*
X137366071Y-100182666D01*
X137442261Y-100144571D01*
X137556547Y-100144571D01*
X137632738Y-100182666D01*
X137670833Y-100258857D01*
X137670833Y-100677904D01*
X137670833Y-100258857D02*
X137708928Y-100182666D01*
X137785119Y-100144571D01*
X137899404Y-100144571D01*
X137975595Y-100182666D01*
X138013690Y-100258857D01*
X138013690Y-100677904D01*
X138280357Y-100144571D02*
X138585119Y-100144571D01*
X138394642Y-100677904D02*
X138394642Y-99992190D01*
X138432738Y-99916000D01*
X138508928Y-99877904D01*
X138585119Y-99877904D01*
X134280357Y-102453904D02*
X134432738Y-102453904D01*
X134508928Y-102492000D01*
X134585119Y-102568190D01*
X134623214Y-102720571D01*
X134623214Y-102987238D01*
X134585119Y-103139619D01*
X134508928Y-103215809D01*
X134432738Y-103253904D01*
X134280357Y-103253904D01*
X134204166Y-103215809D01*
X134127976Y-103139619D01*
X134089880Y-102987238D01*
X134089880Y-102720571D01*
X134127976Y-102568190D01*
X134204166Y-102492000D01*
X134280357Y-102453904D01*
X134966071Y-102453904D02*
X134966071Y-103101523D01*
X135004166Y-103177714D01*
X135042261Y-103215809D01*
X135118452Y-103253904D01*
X135270833Y-103253904D01*
X135347023Y-103215809D01*
X135385119Y-103177714D01*
X135423214Y-103101523D01*
X135423214Y-102453904D01*
X135689880Y-102453904D02*
X136147023Y-102453904D01*
X135918452Y-103253904D02*
X135918452Y-102453904D01*
X136413690Y-103177714D02*
X136451785Y-103215809D01*
X136413690Y-103253904D01*
X136375595Y-103215809D01*
X136413690Y-103177714D01*
X136413690Y-103253904D01*
X136413690Y-102758666D02*
X136451785Y-102796761D01*
X136413690Y-102834857D01*
X136375595Y-102796761D01*
X136413690Y-102758666D01*
X136413690Y-102834857D01*
X134547023Y-104541904D02*
X134089880Y-104541904D01*
X134318452Y-104541904D02*
X134318452Y-103741904D01*
X134242261Y-103856190D01*
X134166071Y-103932380D01*
X134089880Y-103970476D01*
X135042261Y-103741904D02*
X135118452Y-103741904D01*
X135194642Y-103780000D01*
X135232738Y-103818095D01*
X135270833Y-103894285D01*
X135308928Y-104046666D01*
X135308928Y-104237142D01*
X135270833Y-104389523D01*
X135232738Y-104465714D01*
X135194642Y-104503809D01*
X135118452Y-104541904D01*
X135042261Y-104541904D01*
X134966071Y-104503809D01*
X134927976Y-104465714D01*
X134889880Y-104389523D01*
X134851785Y-104237142D01*
X134851785Y-104046666D01*
X134889880Y-103894285D01*
X134927976Y-103818095D01*
X134966071Y-103780000D01*
X135042261Y-103741904D01*
X135613690Y-104313333D02*
X135994642Y-104313333D01*
X135537500Y-104541904D02*
X135804166Y-103741904D01*
X136070833Y-104541904D01*
X136947023Y-104541904D02*
X136947023Y-104008571D01*
X136947023Y-104084761D02*
X136985119Y-104046666D01*
X137061309Y-104008571D01*
X137175595Y-104008571D01*
X137251785Y-104046666D01*
X137289880Y-104122857D01*
X137289880Y-104541904D01*
X137289880Y-104122857D02*
X137327976Y-104046666D01*
X137404166Y-104008571D01*
X137518452Y-104008571D01*
X137594642Y-104046666D01*
X137632738Y-104122857D01*
X137632738Y-104541904D01*
X138356547Y-104541904D02*
X138356547Y-104122857D01*
X138318452Y-104046666D01*
X138242261Y-104008571D01*
X138089880Y-104008571D01*
X138013690Y-104046666D01*
X138356547Y-104503809D02*
X138280357Y-104541904D01*
X138089880Y-104541904D01*
X138013690Y-104503809D01*
X137975595Y-104427619D01*
X137975595Y-104351428D01*
X138013690Y-104275238D01*
X138089880Y-104237142D01*
X138280357Y-104237142D01*
X138356547Y-104199047D01*
X138661309Y-104541904D02*
X139080357Y-104008571D01*
X138661309Y-104008571D02*
X139080357Y-104541904D01*
D12*
%TO.C,PWR1*%
X144254964Y-96533244D02*
X144762965Y-96533244D01*
X144254964Y-101050313D02*
X144254964Y-96533244D01*
X144635965Y-106820264D02*
X144254964Y-106820264D01*
X144254964Y-106820264D02*
X144254964Y-102430196D01*
X149554964Y-106820264D02*
X148265124Y-106820264D01*
X149554964Y-96660244D02*
X148265124Y-96660244D01*
%TD*%
M02*
