%TF.GenerationSoftware,KiCad,Pcbnew,(6.0.4-0)*%
%TF.CreationDate,2022-07-05T17:42:10+02:00*%
%TF.ProjectId,DC power,44432070-6f77-4657-922e-6b696361645f,rev?*%
%TF.SameCoordinates,Original*%
%TF.FileFunction,Copper,L1,Top*%
%TF.FilePolarity,Positive*%
%FSLAX46Y46*%
G04 Gerber Fmt 4.6, Leading zero omitted, Abs format (unit mm)*
G04 Created by KiCad (PCBNEW (6.0.4-0)) date 2022-07-05 17:42:10*
%MOMM*%
%LPD*%
G01*
G04 APERTURE LIST*
%TA.AperFunction,ComponentPad*%
%ADD10C,2.000000*%
%TD*%
%TA.AperFunction,ComponentPad*%
%ADD11O,3.000000X1.600000*%
%TD*%
%TA.AperFunction,ComponentPad*%
%ADD12O,1.600000X3.200000*%
%TD*%
%TA.AperFunction,ComponentPad*%
%ADD13C,2.300000*%
%TD*%
%TA.AperFunction,Conductor*%
%ADD14C,1.000000*%
%TD*%
%TA.AperFunction,Conductor*%
%ADD15C,3.000000*%
%TD*%
%TA.AperFunction,Conductor*%
%ADD16C,2.000000*%
%TD*%
%TA.AperFunction,Conductor*%
%ADD17C,6.000000*%
%TD*%
G04 APERTURE END LIST*
D10*
%TO.P,U1,1,1*%
%TO.N,+5V*%
X129680013Y-99830102D03*
%TO.P,U1,2,2*%
%TO.N,GND*%
X129680013Y-103329975D03*
%TD*%
D11*
%TO.P,PWR1,1,1*%
%TO.N,GND*%
X151260044Y-96889987D03*
X146560019Y-96889987D03*
X146560019Y-106590013D03*
X151260044Y-106590013D03*
D12*
%TO.P,PWR1,2,2*%
X150759917Y-101740127D03*
D13*
%TO.P,PWR1,3,3*%
%TO.N,+5V*%
X143059892Y-101740127D03*
%TD*%
D14*
%TO.N,GND*%
X129680013Y-103329975D02*
X129680013Y-105096187D01*
D15*
X146320032Y-106830000D02*
X138710000Y-106830000D01*
D16*
X151260044Y-102240254D02*
X150759917Y-101740127D01*
D14*
X128850000Y-102090000D02*
X130440000Y-102090000D01*
D16*
X138470013Y-106590013D02*
X137040000Y-105160000D01*
D15*
X150759917Y-101740127D02*
X150759917Y-97390114D01*
D14*
X128760000Y-102180000D02*
X128850000Y-102090000D01*
D17*
X129856200Y-105116200D02*
X129820000Y-105080000D01*
D15*
X150780000Y-106109969D02*
X150780000Y-101760210D01*
D14*
X129680013Y-103329975D02*
X129680013Y-103100013D01*
D16*
X150759917Y-97390114D02*
X151260044Y-96889987D01*
D17*
X131590000Y-105130000D02*
X137010000Y-105130000D01*
X129783800Y-105116200D02*
X129820000Y-105080000D01*
D14*
X129680013Y-105096187D02*
X129660000Y-105116200D01*
D15*
X146560019Y-96889987D02*
X150259790Y-96889987D01*
X146560019Y-106590013D02*
X146320032Y-106830000D01*
D14*
X129680013Y-103100013D02*
X128760000Y-102180000D01*
D15*
X138710000Y-106830000D02*
X138470013Y-106590013D01*
X146560019Y-106590013D02*
X151260044Y-106590013D01*
X150259790Y-96889987D02*
X150759917Y-97390114D01*
X151260044Y-106590013D02*
X150780000Y-106109969D01*
D17*
X137010000Y-105130000D02*
X137040000Y-105160000D01*
X131576200Y-105116200D02*
X129856200Y-105116200D01*
X129660000Y-105116200D02*
X129783800Y-105116200D01*
X131590000Y-105130000D02*
X131576200Y-105116200D01*
%TO.N,+5V*%
X129660000Y-98030000D02*
X139349765Y-98030000D01*
X139349765Y-98030000D02*
X143059892Y-101740127D01*
%TD*%
%TA.AperFunction,Conductor*%
%TO.N,GND*%
G36*
X155203621Y-94858502D02*
G01*
X155250114Y-94912158D01*
X155261500Y-94964500D01*
X155261500Y-100695662D01*
X155241498Y-100763783D01*
X155187842Y-100810276D01*
X155117568Y-100820380D01*
X155052988Y-100790886D01*
X155040335Y-100778242D01*
X154999121Y-100730748D01*
X154999119Y-100730746D01*
X154995615Y-100726708D01*
X154991489Y-100723325D01*
X154991485Y-100723321D01*
X154814903Y-100578534D01*
X154810775Y-100575149D01*
X154806139Y-100572510D01*
X154806136Y-100572508D01*
X154607685Y-100459543D01*
X154603042Y-100456900D01*
X154378355Y-100375343D01*
X154373106Y-100374394D01*
X154373103Y-100374393D01*
X154147223Y-100333547D01*
X154147215Y-100333546D01*
X154143139Y-100332809D01*
X154124749Y-100331942D01*
X154119564Y-100331697D01*
X154119557Y-100331697D01*
X154118076Y-100331627D01*
X153950096Y-100331627D01*
X153771933Y-100346744D01*
X153766769Y-100348084D01*
X153766765Y-100348085D01*
X153545733Y-100405454D01*
X153545728Y-100405456D01*
X153540568Y-100406795D01*
X153535702Y-100408987D01*
X153327489Y-100502780D01*
X153327486Y-100502781D01*
X153322628Y-100504970D01*
X153124346Y-100638461D01*
X153120489Y-100642140D01*
X153120487Y-100642142D01*
X153077025Y-100683603D01*
X152951390Y-100803453D01*
X152948207Y-100807730D01*
X152948207Y-100807731D01*
X152938796Y-100820380D01*
X152808706Y-100995227D01*
X152806290Y-100999978D01*
X152806288Y-100999982D01*
X152731092Y-101147883D01*
X152700375Y-101208299D01*
X152671944Y-101299861D01*
X152631076Y-101431476D01*
X152631075Y-101431482D01*
X152629492Y-101436579D01*
X152598085Y-101673538D01*
X152607053Y-101912401D01*
X152656138Y-102146338D01*
X152743937Y-102368660D01*
X152867940Y-102573010D01*
X152871437Y-102577040D01*
X152952406Y-102670348D01*
X153024601Y-102753546D01*
X153028727Y-102756929D01*
X153028731Y-102756933D01*
X153127737Y-102838112D01*
X153209441Y-102905105D01*
X153214077Y-102907744D01*
X153214080Y-102907746D01*
X153302281Y-102957953D01*
X153417174Y-103023354D01*
X153641861Y-103104911D01*
X153647110Y-103105860D01*
X153647113Y-103105861D01*
X153872993Y-103146707D01*
X153873001Y-103146708D01*
X153877077Y-103147445D01*
X153895467Y-103148312D01*
X153900652Y-103148557D01*
X153900659Y-103148557D01*
X153902140Y-103148627D01*
X154070120Y-103148627D01*
X154248283Y-103133510D01*
X154253447Y-103132170D01*
X154253451Y-103132169D01*
X154474483Y-103074800D01*
X154474488Y-103074798D01*
X154479648Y-103073459D01*
X154678488Y-102983888D01*
X154692727Y-102977474D01*
X154692730Y-102977473D01*
X154697588Y-102975284D01*
X154895870Y-102841793D01*
X155048529Y-102696164D01*
X155111625Y-102663617D01*
X155182301Y-102670348D01*
X155238119Y-102714222D01*
X155261500Y-102787334D01*
X155261500Y-108235500D01*
X155241498Y-108303621D01*
X155187842Y-108350114D01*
X155135500Y-108361500D01*
X126524500Y-108361500D01*
X126456379Y-108341498D01*
X126409886Y-108287842D01*
X126398500Y-108235500D01*
X126398500Y-106856535D01*
X144577292Y-106856535D01*
X144624783Y-107033774D01*
X144628529Y-107044066D01*
X144720605Y-107241524D01*
X144726088Y-107251020D01*
X144851047Y-107429480D01*
X144858103Y-107437888D01*
X145012144Y-107591929D01*
X145020552Y-107598985D01*
X145199012Y-107723944D01*
X145208508Y-107729427D01*
X145405966Y-107821503D01*
X145416258Y-107825249D01*
X145626707Y-107881638D01*
X145637500Y-107883541D01*
X145800189Y-107897775D01*
X145805654Y-107898013D01*
X146287904Y-107898013D01*
X146303143Y-107893538D01*
X146304348Y-107892148D01*
X146306019Y-107884465D01*
X146306019Y-107879898D01*
X146814019Y-107879898D01*
X146818494Y-107895137D01*
X146819884Y-107896342D01*
X146827567Y-107898013D01*
X147314384Y-107898013D01*
X147319849Y-107897775D01*
X147482538Y-107883541D01*
X147493331Y-107881638D01*
X147703780Y-107825249D01*
X147714072Y-107821503D01*
X147911530Y-107729427D01*
X147921026Y-107723944D01*
X148099486Y-107598985D01*
X148107894Y-107591929D01*
X148261935Y-107437888D01*
X148268991Y-107429480D01*
X148393950Y-107251020D01*
X148399433Y-107241524D01*
X148491509Y-107044066D01*
X148495255Y-107033774D01*
X148541413Y-106861510D01*
X148541294Y-106856535D01*
X149277317Y-106856535D01*
X149324808Y-107033774D01*
X149328554Y-107044066D01*
X149420630Y-107241524D01*
X149426113Y-107251020D01*
X149551072Y-107429480D01*
X149558128Y-107437888D01*
X149712169Y-107591929D01*
X149720577Y-107598985D01*
X149899037Y-107723944D01*
X149908533Y-107729427D01*
X150105991Y-107821503D01*
X150116283Y-107825249D01*
X150326732Y-107881638D01*
X150337525Y-107883541D01*
X150500214Y-107897775D01*
X150505679Y-107898013D01*
X150987929Y-107898013D01*
X151003168Y-107893538D01*
X151004373Y-107892148D01*
X151006044Y-107884465D01*
X151006044Y-107879898D01*
X151514044Y-107879898D01*
X151518519Y-107895137D01*
X151519909Y-107896342D01*
X151527592Y-107898013D01*
X152014409Y-107898013D01*
X152019874Y-107897775D01*
X152182563Y-107883541D01*
X152193356Y-107881638D01*
X152403805Y-107825249D01*
X152414097Y-107821503D01*
X152611555Y-107729427D01*
X152621051Y-107723944D01*
X152799511Y-107598985D01*
X152807919Y-107591929D01*
X152961960Y-107437888D01*
X152969016Y-107429480D01*
X153093975Y-107251020D01*
X153099458Y-107241524D01*
X153191534Y-107044066D01*
X153195280Y-107033774D01*
X153241438Y-106861510D01*
X153241102Y-106847414D01*
X153233160Y-106844013D01*
X151532159Y-106844013D01*
X151516920Y-106848488D01*
X151515715Y-106849878D01*
X151514044Y-106857561D01*
X151514044Y-107879898D01*
X151006044Y-107879898D01*
X151006044Y-106862128D01*
X151001569Y-106846889D01*
X151000179Y-106845684D01*
X150992496Y-106844013D01*
X149292077Y-106844013D01*
X149278546Y-106847986D01*
X149277317Y-106856535D01*
X148541294Y-106856535D01*
X148541077Y-106847414D01*
X148533135Y-106844013D01*
X146832134Y-106844013D01*
X146816895Y-106848488D01*
X146815690Y-106849878D01*
X146814019Y-106857561D01*
X146814019Y-107879898D01*
X146306019Y-107879898D01*
X146306019Y-106862128D01*
X146301544Y-106846889D01*
X146300154Y-106845684D01*
X146292471Y-106844013D01*
X144592052Y-106844013D01*
X144578521Y-106847986D01*
X144577292Y-106856535D01*
X126398500Y-106856535D01*
X126398500Y-106318516D01*
X144578625Y-106318516D01*
X144578961Y-106332612D01*
X144586903Y-106336013D01*
X146287904Y-106336013D01*
X146303143Y-106331538D01*
X146304348Y-106330148D01*
X146306019Y-106322465D01*
X146306019Y-106317898D01*
X146814019Y-106317898D01*
X146818494Y-106333137D01*
X146819884Y-106334342D01*
X146827567Y-106336013D01*
X148527986Y-106336013D01*
X148541517Y-106332040D01*
X148542746Y-106323491D01*
X148541413Y-106318516D01*
X149278650Y-106318516D01*
X149278986Y-106332612D01*
X149286928Y-106336013D01*
X150987929Y-106336013D01*
X151003168Y-106331538D01*
X151004373Y-106330148D01*
X151006044Y-106322465D01*
X151006044Y-106317898D01*
X151514044Y-106317898D01*
X151518519Y-106333137D01*
X151519909Y-106334342D01*
X151527592Y-106336013D01*
X153228011Y-106336013D01*
X153241542Y-106332040D01*
X153242771Y-106323491D01*
X153195280Y-106146252D01*
X153191534Y-106135960D01*
X153099458Y-105938502D01*
X153093975Y-105929006D01*
X152969016Y-105750546D01*
X152961960Y-105742138D01*
X152807919Y-105588097D01*
X152799511Y-105581041D01*
X152621051Y-105456082D01*
X152611555Y-105450599D01*
X152414097Y-105358523D01*
X152403805Y-105354777D01*
X152193356Y-105298388D01*
X152182563Y-105296485D01*
X152019874Y-105282251D01*
X152014409Y-105282013D01*
X151532159Y-105282013D01*
X151516920Y-105286488D01*
X151515715Y-105287878D01*
X151514044Y-105295561D01*
X151514044Y-106317898D01*
X151006044Y-106317898D01*
X151006044Y-105300128D01*
X151001569Y-105284889D01*
X151000179Y-105283684D01*
X150992496Y-105282013D01*
X150505679Y-105282013D01*
X150500214Y-105282251D01*
X150337525Y-105296485D01*
X150326732Y-105298388D01*
X150116283Y-105354777D01*
X150105991Y-105358523D01*
X149908533Y-105450599D01*
X149899037Y-105456082D01*
X149720577Y-105581041D01*
X149712169Y-105588097D01*
X149558128Y-105742138D01*
X149551072Y-105750546D01*
X149426113Y-105929006D01*
X149420630Y-105938502D01*
X149328554Y-106135960D01*
X149324808Y-106146252D01*
X149278650Y-106318516D01*
X148541413Y-106318516D01*
X148495255Y-106146252D01*
X148491509Y-106135960D01*
X148399433Y-105938502D01*
X148393950Y-105929006D01*
X148268991Y-105750546D01*
X148261935Y-105742138D01*
X148107894Y-105588097D01*
X148099486Y-105581041D01*
X147921026Y-105456082D01*
X147911530Y-105450599D01*
X147714072Y-105358523D01*
X147703780Y-105354777D01*
X147493331Y-105298388D01*
X147482538Y-105296485D01*
X147319849Y-105282251D01*
X147314384Y-105282013D01*
X146832134Y-105282013D01*
X146816895Y-105286488D01*
X146815690Y-105287878D01*
X146814019Y-105295561D01*
X146814019Y-106317898D01*
X146306019Y-106317898D01*
X146306019Y-105300128D01*
X146301544Y-105284889D01*
X146300154Y-105283684D01*
X146292471Y-105282013D01*
X145805654Y-105282013D01*
X145800189Y-105282251D01*
X145637500Y-105296485D01*
X145626707Y-105298388D01*
X145416258Y-105354777D01*
X145405966Y-105358523D01*
X145208508Y-105450599D01*
X145199012Y-105456082D01*
X145020552Y-105581041D01*
X145012144Y-105588097D01*
X144858103Y-105742138D01*
X144851047Y-105750546D01*
X144726088Y-105929006D01*
X144720605Y-105938502D01*
X144628529Y-106135960D01*
X144624783Y-106146252D01*
X144578625Y-106318516D01*
X126398500Y-106318516D01*
X126398500Y-104562645D01*
X128812173Y-104562645D01*
X128817900Y-104570295D01*
X128989055Y-104675180D01*
X128997850Y-104679662D01*
X129208001Y-104766709D01*
X129217386Y-104769758D01*
X129438567Y-104822860D01*
X129448314Y-104824403D01*
X129675083Y-104842250D01*
X129684943Y-104842250D01*
X129911712Y-104824403D01*
X129921459Y-104822860D01*
X130142640Y-104769758D01*
X130152025Y-104766709D01*
X130362176Y-104679662D01*
X130370971Y-104675180D01*
X130538458Y-104572543D01*
X130547920Y-104562085D01*
X130544137Y-104553309D01*
X129692825Y-103701997D01*
X129678881Y-103694383D01*
X129677048Y-103694514D01*
X129670433Y-103698765D01*
X128818933Y-104550265D01*
X128812173Y-104562645D01*
X126398500Y-104562645D01*
X126398500Y-103334905D01*
X128167738Y-103334905D01*
X128185585Y-103561674D01*
X128187128Y-103571421D01*
X128240230Y-103792602D01*
X128243279Y-103801987D01*
X128330326Y-104012138D01*
X128334808Y-104020933D01*
X128437445Y-104188420D01*
X128447903Y-104197882D01*
X128456679Y-104194099D01*
X129307991Y-103342787D01*
X129314369Y-103331107D01*
X130044421Y-103331107D01*
X130044552Y-103332940D01*
X130048803Y-103339555D01*
X130900303Y-104191055D01*
X130912683Y-104197815D01*
X130920333Y-104192088D01*
X131025218Y-104020933D01*
X131029700Y-104012138D01*
X131116747Y-103801987D01*
X131119796Y-103792602D01*
X131172898Y-103571421D01*
X131174441Y-103561674D01*
X131192288Y-103334905D01*
X131192288Y-103325045D01*
X131174441Y-103098276D01*
X131172898Y-103088529D01*
X131119796Y-102867348D01*
X131116747Y-102857963D01*
X131029700Y-102647812D01*
X131025218Y-102639017D01*
X130922581Y-102471530D01*
X130912123Y-102462068D01*
X130903347Y-102465851D01*
X130052035Y-103317163D01*
X130044421Y-103331107D01*
X129314369Y-103331107D01*
X129315605Y-103328843D01*
X129315474Y-103327010D01*
X129311223Y-103320395D01*
X128459723Y-102468895D01*
X128447343Y-102462135D01*
X128439693Y-102467862D01*
X128334808Y-102639017D01*
X128330326Y-102647812D01*
X128243279Y-102857963D01*
X128240230Y-102867348D01*
X128187128Y-103088529D01*
X128185585Y-103098276D01*
X128167738Y-103325045D01*
X128167738Y-103334905D01*
X126398500Y-103334905D01*
X126398500Y-102097865D01*
X128812106Y-102097865D01*
X128815889Y-102106641D01*
X129667201Y-102957953D01*
X129681145Y-102965567D01*
X129682978Y-102965436D01*
X129689593Y-102961185D01*
X130541093Y-102109685D01*
X130547853Y-102097305D01*
X130542126Y-102089655D01*
X130370971Y-101984770D01*
X130362176Y-101980288D01*
X130152025Y-101893241D01*
X130142640Y-101890192D01*
X129921459Y-101837090D01*
X129911712Y-101835547D01*
X129684943Y-101817700D01*
X129675083Y-101817700D01*
X129448314Y-101835547D01*
X129438567Y-101837090D01*
X129217386Y-101890192D01*
X129208001Y-101893241D01*
X128997850Y-101980288D01*
X128989055Y-101984770D01*
X128821568Y-102087407D01*
X128812106Y-102097865D01*
X126398500Y-102097865D01*
X126398500Y-99870335D01*
X126418502Y-99802214D01*
X126472158Y-99755721D01*
X126542432Y-99745617D01*
X126607012Y-99775111D01*
X126634752Y-99809341D01*
X126680400Y-99891861D01*
X126682321Y-99894599D01*
X126682327Y-99894609D01*
X126826875Y-100100660D01*
X126895120Y-100197943D01*
X127141149Y-100479476D01*
X127143610Y-100481751D01*
X127143613Y-100481754D01*
X127248309Y-100578534D01*
X127415702Y-100733270D01*
X127715670Y-100956452D01*
X127718557Y-100958156D01*
X128034764Y-101144789D01*
X128034769Y-101144792D01*
X128037655Y-101146495D01*
X128378013Y-101301246D01*
X128559521Y-101361450D01*
X128729696Y-101417895D01*
X128729703Y-101417897D01*
X128732887Y-101418953D01*
X128736172Y-101419666D01*
X128736171Y-101419666D01*
X129094981Y-101497572D01*
X129094984Y-101497572D01*
X129098261Y-101498284D01*
X129293587Y-101519331D01*
X129467477Y-101538068D01*
X129467485Y-101538069D01*
X129469995Y-101538339D01*
X129472515Y-101538407D01*
X129472527Y-101538408D01*
X129474515Y-101538461D01*
X129475945Y-101538500D01*
X137844306Y-101538500D01*
X137912427Y-101558502D01*
X137933401Y-101575405D01*
X140645095Y-104287098D01*
X140853557Y-104474469D01*
X141156611Y-104693441D01*
X141481219Y-104878969D01*
X141823703Y-105028954D01*
X141826895Y-105029963D01*
X141826899Y-105029965D01*
X142176990Y-105140684D01*
X142180187Y-105141695D01*
X142349866Y-105176062D01*
X142543333Y-105215247D01*
X142543336Y-105215247D01*
X142546632Y-105215915D01*
X142549971Y-105216228D01*
X142549980Y-105216229D01*
X142811244Y-105240695D01*
X142918889Y-105250776D01*
X142922255Y-105250732D01*
X142922256Y-105250732D01*
X143289395Y-105245927D01*
X143289398Y-105245927D01*
X143292744Y-105245883D01*
X143663962Y-105201289D01*
X143667232Y-105200537D01*
X143667238Y-105200536D01*
X144025055Y-105118256D01*
X144025056Y-105118256D01*
X144028338Y-105117501D01*
X144381748Y-104995466D01*
X144720190Y-104836569D01*
X144723049Y-104834834D01*
X144723053Y-104834832D01*
X145036973Y-104644340D01*
X145039829Y-104642607D01*
X145337049Y-104415777D01*
X145567134Y-104197815D01*
X145606043Y-104160956D01*
X145606047Y-104160952D01*
X145608480Y-104158647D01*
X145610661Y-104156089D01*
X145848867Y-103876693D01*
X145848868Y-103876691D01*
X145851052Y-103874130D01*
X146062016Y-103565447D01*
X146064044Y-103561674D01*
X146157361Y-103388002D01*
X146238984Y-103236094D01*
X146253216Y-103201134D01*
X146337461Y-102994180D01*
X146379951Y-102889801D01*
X146420311Y-102749513D01*
X146464909Y-102594492D01*
X149451917Y-102594492D01*
X149452155Y-102599957D01*
X149466389Y-102762646D01*
X149468292Y-102773439D01*
X149524681Y-102983888D01*
X149528427Y-102994180D01*
X149620503Y-103191638D01*
X149625986Y-103201134D01*
X149750945Y-103379594D01*
X149758001Y-103388002D01*
X149912042Y-103542043D01*
X149920450Y-103549099D01*
X150098910Y-103674058D01*
X150108406Y-103679541D01*
X150305864Y-103771617D01*
X150316156Y-103775363D01*
X150488420Y-103821521D01*
X150502516Y-103821185D01*
X150505917Y-103813243D01*
X150505917Y-103808094D01*
X151013917Y-103808094D01*
X151017890Y-103821625D01*
X151026439Y-103822854D01*
X151203678Y-103775363D01*
X151213970Y-103771617D01*
X151411428Y-103679541D01*
X151420924Y-103674058D01*
X151599384Y-103549099D01*
X151607792Y-103542043D01*
X151761833Y-103388002D01*
X151768889Y-103379594D01*
X151893848Y-103201134D01*
X151899331Y-103191638D01*
X151991407Y-102994180D01*
X151995153Y-102983888D01*
X152051542Y-102773439D01*
X152053445Y-102762646D01*
X152067679Y-102599957D01*
X152067917Y-102594492D01*
X152067917Y-102012242D01*
X152063442Y-101997003D01*
X152062052Y-101995798D01*
X152054369Y-101994127D01*
X151032032Y-101994127D01*
X151016793Y-101998602D01*
X151015588Y-101999992D01*
X151013917Y-102007675D01*
X151013917Y-103808094D01*
X150505917Y-103808094D01*
X150505917Y-102012242D01*
X150501442Y-101997003D01*
X150500052Y-101995798D01*
X150492369Y-101994127D01*
X149470032Y-101994127D01*
X149454793Y-101998602D01*
X149453588Y-101999992D01*
X149451917Y-102007675D01*
X149451917Y-102594492D01*
X146464909Y-102594492D01*
X146482398Y-102533701D01*
X146482399Y-102533695D01*
X146483322Y-102530488D01*
X146506116Y-102400555D01*
X146547347Y-102165522D01*
X146547348Y-102165515D01*
X146547925Y-102162225D01*
X146548995Y-102146338D01*
X146572805Y-101792529D01*
X146572805Y-101792526D01*
X146573030Y-101789183D01*
X146565691Y-101602384D01*
X146560411Y-101468012D01*
X149451917Y-101468012D01*
X149456392Y-101483251D01*
X149457782Y-101484456D01*
X149465465Y-101486127D01*
X150487802Y-101486127D01*
X150503041Y-101481652D01*
X150504246Y-101480262D01*
X150505917Y-101472579D01*
X150505917Y-101468012D01*
X151013917Y-101468012D01*
X151018392Y-101483251D01*
X151019782Y-101484456D01*
X151027465Y-101486127D01*
X152049802Y-101486127D01*
X152065041Y-101481652D01*
X152066246Y-101480262D01*
X152067917Y-101472579D01*
X152067917Y-100885762D01*
X152067679Y-100880297D01*
X152053445Y-100717608D01*
X152051542Y-100706815D01*
X151995153Y-100496366D01*
X151991407Y-100486074D01*
X151899331Y-100288616D01*
X151893848Y-100279120D01*
X151768889Y-100100660D01*
X151761833Y-100092252D01*
X151607792Y-99938211D01*
X151599384Y-99931155D01*
X151420924Y-99806196D01*
X151411428Y-99800713D01*
X151213970Y-99708637D01*
X151203678Y-99704891D01*
X151031414Y-99658733D01*
X151017318Y-99659069D01*
X151013917Y-99667011D01*
X151013917Y-101468012D01*
X150505917Y-101468012D01*
X150505917Y-99672160D01*
X150501944Y-99658629D01*
X150493395Y-99657400D01*
X150316156Y-99704891D01*
X150305864Y-99708637D01*
X150108406Y-99800713D01*
X150098910Y-99806196D01*
X149920450Y-99931155D01*
X149912042Y-99938211D01*
X149758001Y-100092252D01*
X149750945Y-100100660D01*
X149625986Y-100279120D01*
X149620503Y-100288616D01*
X149528427Y-100486074D01*
X149524681Y-100496366D01*
X149468292Y-100706815D01*
X149466389Y-100717608D01*
X149452155Y-100880297D01*
X149451917Y-100885762D01*
X149451917Y-101468012D01*
X146560411Y-101468012D01*
X146558483Y-101418938D01*
X146558483Y-101418933D01*
X146558351Y-101415585D01*
X146504055Y-101045662D01*
X146491059Y-100995227D01*
X146411595Y-100686849D01*
X146411592Y-100686839D01*
X146410758Y-100683603D01*
X146279514Y-100333509D01*
X146211480Y-100197943D01*
X146113316Y-100002339D01*
X146113312Y-100002332D01*
X146111812Y-99999343D01*
X146044445Y-99894609D01*
X145911364Y-99687710D01*
X145911360Y-99687704D01*
X145909549Y-99684889D01*
X145675016Y-99393711D01*
X145670923Y-99389389D01*
X143438042Y-97156509D01*
X144577292Y-97156509D01*
X144624783Y-97333748D01*
X144628529Y-97344040D01*
X144720605Y-97541498D01*
X144726088Y-97550994D01*
X144851047Y-97729454D01*
X144858103Y-97737862D01*
X145012144Y-97891903D01*
X145020552Y-97898959D01*
X145199012Y-98023918D01*
X145208508Y-98029401D01*
X145405966Y-98121477D01*
X145416258Y-98125223D01*
X145626707Y-98181612D01*
X145637500Y-98183515D01*
X145800189Y-98197749D01*
X145805654Y-98197987D01*
X146287904Y-98197987D01*
X146303143Y-98193512D01*
X146304348Y-98192122D01*
X146306019Y-98184439D01*
X146306019Y-98179872D01*
X146814019Y-98179872D01*
X146818494Y-98195111D01*
X146819884Y-98196316D01*
X146827567Y-98197987D01*
X147314384Y-98197987D01*
X147319849Y-98197749D01*
X147482538Y-98183515D01*
X147493331Y-98181612D01*
X147703780Y-98125223D01*
X147714072Y-98121477D01*
X147911530Y-98029401D01*
X147921026Y-98023918D01*
X148099486Y-97898959D01*
X148107894Y-97891903D01*
X148261935Y-97737862D01*
X148268991Y-97729454D01*
X148393950Y-97550994D01*
X148399433Y-97541498D01*
X148491509Y-97344040D01*
X148495255Y-97333748D01*
X148541413Y-97161484D01*
X148541294Y-97156509D01*
X149277317Y-97156509D01*
X149324808Y-97333748D01*
X149328554Y-97344040D01*
X149420630Y-97541498D01*
X149426113Y-97550994D01*
X149551072Y-97729454D01*
X149558128Y-97737862D01*
X149712169Y-97891903D01*
X149720577Y-97898959D01*
X149899037Y-98023918D01*
X149908533Y-98029401D01*
X150105991Y-98121477D01*
X150116283Y-98125223D01*
X150326732Y-98181612D01*
X150337525Y-98183515D01*
X150500214Y-98197749D01*
X150505679Y-98197987D01*
X150987929Y-98197987D01*
X151003168Y-98193512D01*
X151004373Y-98192122D01*
X151006044Y-98184439D01*
X151006044Y-98179872D01*
X151514044Y-98179872D01*
X151518519Y-98195111D01*
X151519909Y-98196316D01*
X151527592Y-98197987D01*
X152014409Y-98197987D01*
X152019874Y-98197749D01*
X152182563Y-98183515D01*
X152193356Y-98181612D01*
X152403805Y-98125223D01*
X152414097Y-98121477D01*
X152611555Y-98029401D01*
X152621051Y-98023918D01*
X152799511Y-97898959D01*
X152807919Y-97891903D01*
X152961960Y-97737862D01*
X152969016Y-97729454D01*
X153093975Y-97550994D01*
X153099458Y-97541498D01*
X153191534Y-97344040D01*
X153195280Y-97333748D01*
X153241438Y-97161484D01*
X153241102Y-97147388D01*
X153233160Y-97143987D01*
X151532159Y-97143987D01*
X151516920Y-97148462D01*
X151515715Y-97149852D01*
X151514044Y-97157535D01*
X151514044Y-98179872D01*
X151006044Y-98179872D01*
X151006044Y-97162102D01*
X151001569Y-97146863D01*
X151000179Y-97145658D01*
X150992496Y-97143987D01*
X149292077Y-97143987D01*
X149278546Y-97147960D01*
X149277317Y-97156509D01*
X148541294Y-97156509D01*
X148541077Y-97147388D01*
X148533135Y-97143987D01*
X146832134Y-97143987D01*
X146816895Y-97148462D01*
X146815690Y-97149852D01*
X146814019Y-97157535D01*
X146814019Y-98179872D01*
X146306019Y-98179872D01*
X146306019Y-97162102D01*
X146301544Y-97146863D01*
X146300154Y-97145658D01*
X146292471Y-97143987D01*
X144592052Y-97143987D01*
X144578521Y-97147960D01*
X144577292Y-97156509D01*
X143438042Y-97156509D01*
X142900023Y-96618490D01*
X144578625Y-96618490D01*
X144578961Y-96632586D01*
X144586903Y-96635987D01*
X146287904Y-96635987D01*
X146303143Y-96631512D01*
X146304348Y-96630122D01*
X146306019Y-96622439D01*
X146306019Y-96617872D01*
X146814019Y-96617872D01*
X146818494Y-96633111D01*
X146819884Y-96634316D01*
X146827567Y-96635987D01*
X148527986Y-96635987D01*
X148541517Y-96632014D01*
X148542746Y-96623465D01*
X148541413Y-96618490D01*
X149278650Y-96618490D01*
X149278986Y-96632586D01*
X149286928Y-96635987D01*
X150987929Y-96635987D01*
X151003168Y-96631512D01*
X151004373Y-96630122D01*
X151006044Y-96622439D01*
X151006044Y-96617872D01*
X151514044Y-96617872D01*
X151518519Y-96633111D01*
X151519909Y-96634316D01*
X151527592Y-96635987D01*
X153228011Y-96635987D01*
X153241542Y-96632014D01*
X153242771Y-96623465D01*
X153195280Y-96446226D01*
X153191534Y-96435934D01*
X153099458Y-96238476D01*
X153093975Y-96228980D01*
X152969016Y-96050520D01*
X152961960Y-96042112D01*
X152807919Y-95888071D01*
X152799511Y-95881015D01*
X152621051Y-95756056D01*
X152611555Y-95750573D01*
X152414097Y-95658497D01*
X152403805Y-95654751D01*
X152193356Y-95598362D01*
X152182563Y-95596459D01*
X152019874Y-95582225D01*
X152014409Y-95581987D01*
X151532159Y-95581987D01*
X151516920Y-95586462D01*
X151515715Y-95587852D01*
X151514044Y-95595535D01*
X151514044Y-96617872D01*
X151006044Y-96617872D01*
X151006044Y-95600102D01*
X151001569Y-95584863D01*
X151000179Y-95583658D01*
X150992496Y-95581987D01*
X150505679Y-95581987D01*
X150500214Y-95582225D01*
X150337525Y-95596459D01*
X150326732Y-95598362D01*
X150116283Y-95654751D01*
X150105991Y-95658497D01*
X149908533Y-95750573D01*
X149899037Y-95756056D01*
X149720577Y-95881015D01*
X149712169Y-95888071D01*
X149558128Y-96042112D01*
X149551072Y-96050520D01*
X149426113Y-96228980D01*
X149420630Y-96238476D01*
X149328554Y-96435934D01*
X149324808Y-96446226D01*
X149278650Y-96618490D01*
X148541413Y-96618490D01*
X148495255Y-96446226D01*
X148491509Y-96435934D01*
X148399433Y-96238476D01*
X148393950Y-96228980D01*
X148268991Y-96050520D01*
X148261935Y-96042112D01*
X148107894Y-95888071D01*
X148099486Y-95881015D01*
X147921026Y-95756056D01*
X147911530Y-95750573D01*
X147714072Y-95658497D01*
X147703780Y-95654751D01*
X147493331Y-95598362D01*
X147482538Y-95596459D01*
X147319849Y-95582225D01*
X147314384Y-95581987D01*
X146832134Y-95581987D01*
X146816895Y-95586462D01*
X146815690Y-95587852D01*
X146814019Y-95595535D01*
X146814019Y-96617872D01*
X146306019Y-96617872D01*
X146306019Y-95600102D01*
X146301544Y-95584863D01*
X146300154Y-95583658D01*
X146292471Y-95581987D01*
X145805654Y-95581987D01*
X145800189Y-95582225D01*
X145637500Y-95596459D01*
X145626707Y-95598362D01*
X145416258Y-95654751D01*
X145405966Y-95658497D01*
X145208508Y-95750573D01*
X145199012Y-95756056D01*
X145020552Y-95881015D01*
X145012144Y-95888071D01*
X144858103Y-96042112D01*
X144851047Y-96050520D01*
X144726088Y-96228980D01*
X144720605Y-96238476D01*
X144628529Y-96435934D01*
X144624783Y-96446226D01*
X144578625Y-96618490D01*
X142900023Y-96618490D01*
X141917070Y-95635537D01*
X141911288Y-95629354D01*
X141870825Y-95583052D01*
X141868616Y-95580524D01*
X141783666Y-95501997D01*
X141780101Y-95498568D01*
X141764562Y-95483029D01*
X141763325Y-95481917D01*
X141763309Y-95481902D01*
X141714029Y-95437608D01*
X141712728Y-95436423D01*
X141596525Y-95329006D01*
X141594063Y-95326730D01*
X141579038Y-95315551D01*
X141570029Y-95308177D01*
X141558599Y-95297904D01*
X141558597Y-95297902D01*
X141556100Y-95295658D01*
X141425138Y-95201033D01*
X141423749Y-95200014D01*
X141296784Y-95105549D01*
X141294095Y-95103548D01*
X141291213Y-95101847D01*
X141291204Y-95101841D01*
X141277962Y-95094025D01*
X141268220Y-95087650D01*
X141255765Y-95078651D01*
X141255758Y-95078646D01*
X141253046Y-95076687D01*
X141248161Y-95073895D01*
X141247796Y-95073516D01*
X141247314Y-95073205D01*
X141247388Y-95073091D01*
X141198942Y-95022730D01*
X141185199Y-94953076D01*
X141211295Y-94887049D01*
X141268945Y-94845613D01*
X141310680Y-94838500D01*
X155135500Y-94838500D01*
X155203621Y-94858502D01*
G37*
%TD.AperFunction*%
%TD*%
%TA.AperFunction,NonConductor*%
G36*
X127774487Y-94858502D02*
G01*
X127820980Y-94912158D01*
X127831084Y-94982432D01*
X127801590Y-95047012D01*
X127776002Y-95069509D01*
X127578422Y-95200533D01*
X127565176Y-95209317D01*
X127277300Y-95447892D01*
X127016405Y-95715708D01*
X127014338Y-95718340D01*
X127014334Y-95718344D01*
X126881012Y-95888071D01*
X126785447Y-96009731D01*
X126631296Y-96255946D01*
X126578193Y-96303070D01*
X126508044Y-96314004D01*
X126443119Y-96285276D01*
X126404032Y-96226008D01*
X126398500Y-96189083D01*
X126398500Y-94964500D01*
X126418502Y-94896379D01*
X126472158Y-94849886D01*
X126524500Y-94838500D01*
X127706366Y-94838500D01*
X127774487Y-94858502D01*
G37*
%TD.AperFunction*%
M02*
