%TF.GenerationSoftware,KiCad,Pcbnew,(6.0.4-0)*%
%TF.CreationDate,2022-07-05T17:19:08+02:00*%
%TF.ProjectId,DC power,44432070-6f77-4657-922e-6b696361645f,rev?*%
%TF.SameCoordinates,Original*%
%TF.FileFunction,Legend,Bot*%
%TF.FilePolarity,Positive*%
%FSLAX46Y46*%
G04 Gerber Fmt 4.6, Leading zero omitted, Abs format (unit mm)*
G04 Created by KiCad (PCBNEW (6.0.4-0)) date 2022-07-05 17:19:08*
%MOMM*%
%LPD*%
G01*
G04 APERTURE LIST*
%ADD10C,0.150000*%
%ADD11C,0.400000*%
G04 APERTURE END LIST*
D10*
X131245595Y-95717619D02*
X131245595Y-96717619D01*
X131483690Y-96717619D01*
X131626547Y-96670000D01*
X131721785Y-96574761D01*
X131769404Y-96479523D01*
X131817023Y-96289047D01*
X131817023Y-96146190D01*
X131769404Y-95955714D01*
X131721785Y-95860476D01*
X131626547Y-95765238D01*
X131483690Y-95717619D01*
X131245595Y-95717619D01*
X132817023Y-95812857D02*
X132769404Y-95765238D01*
X132626547Y-95717619D01*
X132531309Y-95717619D01*
X132388452Y-95765238D01*
X132293214Y-95860476D01*
X132245595Y-95955714D01*
X132197976Y-96146190D01*
X132197976Y-96289047D01*
X132245595Y-96479523D01*
X132293214Y-96574761D01*
X132388452Y-96670000D01*
X132531309Y-96717619D01*
X132626547Y-96717619D01*
X132769404Y-96670000D01*
X132817023Y-96622380D01*
X134007500Y-95717619D02*
X134007500Y-96717619D01*
X134388452Y-96717619D01*
X134483690Y-96670000D01*
X134531309Y-96622380D01*
X134578928Y-96527142D01*
X134578928Y-96384285D01*
X134531309Y-96289047D01*
X134483690Y-96241428D01*
X134388452Y-96193809D01*
X134007500Y-96193809D01*
X135578928Y-95812857D02*
X135531309Y-95765238D01*
X135388452Y-95717619D01*
X135293214Y-95717619D01*
X135150357Y-95765238D01*
X135055119Y-95860476D01*
X135007500Y-95955714D01*
X134959880Y-96146190D01*
X134959880Y-96289047D01*
X135007500Y-96479523D01*
X135055119Y-96574761D01*
X135150357Y-96670000D01*
X135293214Y-96717619D01*
X135388452Y-96717619D01*
X135531309Y-96670000D01*
X135578928Y-96622380D01*
X136340833Y-96241428D02*
X136483690Y-96193809D01*
X136531309Y-96146190D01*
X136578928Y-96050952D01*
X136578928Y-95908095D01*
X136531309Y-95812857D01*
X136483690Y-95765238D01*
X136388452Y-95717619D01*
X136007500Y-95717619D01*
X136007500Y-96717619D01*
X136340833Y-96717619D01*
X136436071Y-96670000D01*
X136483690Y-96622380D01*
X136531309Y-96527142D01*
X136531309Y-96431904D01*
X136483690Y-96336666D01*
X136436071Y-96289047D01*
X136340833Y-96241428D01*
X136007500Y-96241428D01*
X137674166Y-96384285D02*
X137912261Y-95717619D01*
X138150357Y-96384285D01*
X139055119Y-95717619D02*
X138483690Y-95717619D01*
X138769404Y-95717619D02*
X138769404Y-96717619D01*
X138674166Y-96574761D01*
X138578928Y-96479523D01*
X138483690Y-96431904D01*
X139483690Y-95812857D02*
X139531309Y-95765238D01*
X139483690Y-95717619D01*
X139436071Y-95765238D01*
X139483690Y-95812857D01*
X139483690Y-95717619D01*
X140150357Y-96717619D02*
X140245595Y-96717619D01*
X140340833Y-96670000D01*
X140388452Y-96622380D01*
X140436071Y-96527142D01*
X140483690Y-96336666D01*
X140483690Y-96098571D01*
X140436071Y-95908095D01*
X140388452Y-95812857D01*
X140340833Y-95765238D01*
X140245595Y-95717619D01*
X140150357Y-95717619D01*
X140055119Y-95765238D01*
X140007500Y-95812857D01*
X139959880Y-95908095D01*
X139912261Y-96098571D01*
X139912261Y-96336666D01*
X139959880Y-96527142D01*
X140007500Y-96622380D01*
X140055119Y-96670000D01*
X140150357Y-96717619D01*
X142245595Y-95717619D02*
X141912261Y-96193809D01*
X141674166Y-95717619D02*
X141674166Y-96717619D01*
X142055119Y-96717619D01*
X142150357Y-96670000D01*
X142197976Y-96622380D01*
X142245595Y-96527142D01*
X142245595Y-96384285D01*
X142197976Y-96289047D01*
X142150357Y-96241428D01*
X142055119Y-96193809D01*
X141674166Y-96193809D01*
X143245595Y-95812857D02*
X143197976Y-95765238D01*
X143055119Y-95717619D01*
X142959880Y-95717619D01*
X142817023Y-95765238D01*
X142721785Y-95860476D01*
X142674166Y-95955714D01*
X142626547Y-96146190D01*
X142626547Y-96289047D01*
X142674166Y-96479523D01*
X142721785Y-96574761D01*
X142817023Y-96670000D01*
X142959880Y-96717619D01*
X143055119Y-96717619D01*
X143197976Y-96670000D01*
X143245595Y-96622380D01*
X144197976Y-95717619D02*
X143626547Y-95717619D01*
X143912261Y-95717619D02*
X143912261Y-96717619D01*
X143817023Y-96574761D01*
X143721785Y-96479523D01*
X143626547Y-96431904D01*
D11*
X132784761Y-100560000D02*
X132546666Y-100679047D01*
X132189523Y-100679047D01*
X131832380Y-100560000D01*
X131594285Y-100321904D01*
X131475238Y-100083809D01*
X131356190Y-99607619D01*
X131356190Y-99250476D01*
X131475238Y-98774285D01*
X131594285Y-98536190D01*
X131832380Y-98298095D01*
X132189523Y-98179047D01*
X132427619Y-98179047D01*
X132784761Y-98298095D01*
X132903809Y-98417142D01*
X132903809Y-99250476D01*
X132427619Y-99250476D01*
X134332380Y-98179047D02*
X134094285Y-98298095D01*
X133975238Y-98536190D01*
X133975238Y-100679047D01*
X135641904Y-98179047D02*
X135403809Y-98298095D01*
X135284761Y-98417142D01*
X135165714Y-98655238D01*
X135165714Y-99369523D01*
X135284761Y-99607619D01*
X135403809Y-99726666D01*
X135641904Y-99845714D01*
X135999047Y-99845714D01*
X136237142Y-99726666D01*
X136356190Y-99607619D01*
X136475238Y-99369523D01*
X136475238Y-98655238D01*
X136356190Y-98417142D01*
X136237142Y-98298095D01*
X135999047Y-98179047D01*
X135641904Y-98179047D01*
X137308571Y-99845714D02*
X137784761Y-98179047D01*
X138260952Y-99369523D01*
X138737142Y-98179047D01*
X139213333Y-99845714D01*
X141594285Y-98417142D02*
X141475238Y-98298095D01*
X141118095Y-98179047D01*
X140880000Y-98179047D01*
X140522857Y-98298095D01*
X140284761Y-98536190D01*
X140165714Y-98774285D01*
X140046666Y-99250476D01*
X140046666Y-99607619D01*
X140165714Y-100083809D01*
X140284761Y-100321904D01*
X140522857Y-100560000D01*
X140880000Y-100679047D01*
X141118095Y-100679047D01*
X141475238Y-100560000D01*
X141594285Y-100440952D01*
X143022857Y-98179047D02*
X142784761Y-98298095D01*
X142665714Y-98417142D01*
X142546666Y-98655238D01*
X142546666Y-99369523D01*
X142665714Y-99607619D01*
X142784761Y-99726666D01*
X143022857Y-99845714D01*
X143380000Y-99845714D01*
X143618095Y-99726666D01*
X143737142Y-99607619D01*
X143856190Y-99369523D01*
X143856190Y-98655238D01*
X143737142Y-98417142D01*
X143618095Y-98298095D01*
X143380000Y-98179047D01*
X143022857Y-98179047D01*
X144927619Y-98179047D02*
X144927619Y-99845714D01*
X144927619Y-99369523D02*
X145046666Y-99607619D01*
X145165714Y-99726666D01*
X145403809Y-99845714D01*
X145641904Y-99845714D01*
X147427619Y-98298095D02*
X147189523Y-98179047D01*
X146713333Y-98179047D01*
X146475238Y-98298095D01*
X146356190Y-98536190D01*
X146356190Y-99488571D01*
X146475238Y-99726666D01*
X146713333Y-99845714D01*
X147189523Y-99845714D01*
X147427619Y-99726666D01*
X147546666Y-99488571D01*
X147546666Y-99250476D01*
X146356190Y-99012380D01*
%TO.C,designedby*%
G36*
X136172039Y-103964054D02*
G01*
X136207906Y-103995235D01*
X136222538Y-104045063D01*
X136210952Y-104089702D01*
X136172787Y-104121394D01*
X136117280Y-104123356D01*
X136074056Y-104097951D01*
X136054341Y-104051278D01*
X136066793Y-103995743D01*
X136084769Y-103972885D01*
X136126979Y-103955332D01*
X136172039Y-103964054D01*
G37*
G36*
X137472435Y-103204104D02*
G01*
X137505384Y-103219773D01*
X137513899Y-103257089D01*
X137513532Y-103268062D01*
X137500438Y-103299460D01*
X137460386Y-103311791D01*
X137417265Y-103306677D01*
X137390637Y-103276430D01*
X137395197Y-103226660D01*
X137412234Y-103207932D01*
X137460386Y-103202386D01*
X137472435Y-103204104D01*
G37*
G36*
X136192022Y-105307176D02*
G01*
X136217915Y-105352597D01*
X136211150Y-105394494D01*
X136177196Y-105423067D01*
X136121657Y-105428648D01*
X136107174Y-105424603D01*
X136076715Y-105394734D01*
X136068788Y-105349816D01*
X136087492Y-105304720D01*
X136103608Y-105289229D01*
X136145997Y-105279062D01*
X136192022Y-105307176D01*
G37*
G36*
X138811047Y-105675564D02*
G01*
X138830485Y-105695357D01*
X138834388Y-105740599D01*
X138832344Y-105767404D01*
X138812490Y-105816769D01*
X138776945Y-105838896D01*
X138732438Y-105828018D01*
X138707998Y-105802165D01*
X138690387Y-105748453D01*
X138696786Y-105691516D01*
X138717241Y-105672513D01*
X138771143Y-105668654D01*
X138811047Y-105675564D01*
G37*
G36*
X138404981Y-103960341D02*
G01*
X138440905Y-103987837D01*
X138455718Y-104033547D01*
X138443372Y-104088084D01*
X138406516Y-104121586D01*
X138351486Y-104123613D01*
X138315893Y-104105332D01*
X138293694Y-104060906D01*
X138302639Y-103999140D01*
X138320890Y-103971477D01*
X138360719Y-103953931D01*
X138404981Y-103960341D01*
G37*
G36*
X143666041Y-105671726D02*
G01*
X143703469Y-105701722D01*
X143719072Y-105744949D01*
X143709691Y-105789335D01*
X143672165Y-105822806D01*
X143622265Y-105831748D01*
X143577229Y-105814587D01*
X143548126Y-105778783D01*
X143542222Y-105733610D01*
X143566788Y-105688343D01*
X143586308Y-105675556D01*
X143630871Y-105665040D01*
X143666041Y-105671726D01*
G37*
G36*
X142374464Y-105688343D02*
G01*
X142393977Y-105725344D01*
X142393605Y-105777814D01*
X142368891Y-105820182D01*
X142327766Y-105838164D01*
X142283626Y-105828991D01*
X142249167Y-105797478D01*
X142233091Y-105751952D01*
X142244096Y-105700738D01*
X142246156Y-105697230D01*
X142282494Y-105670800D01*
X142331405Y-105667254D01*
X142374464Y-105688343D01*
G37*
G36*
X141035980Y-106058314D02*
G01*
X141081034Y-106087506D01*
X141096697Y-106140804D01*
X141090896Y-106175839D01*
X141057081Y-106214734D01*
X140995302Y-106228190D01*
X140970553Y-106224984D01*
X140927332Y-106197093D01*
X140908556Y-106149865D01*
X140920611Y-106094713D01*
X140942705Y-106069119D01*
X140996401Y-106053419D01*
X141035980Y-106058314D01*
G37*
G36*
X139006036Y-105674552D02*
G01*
X139036015Y-105708008D01*
X139045735Y-105755656D01*
X139031134Y-105805006D01*
X138987167Y-105832482D01*
X138963146Y-105835219D01*
X138916892Y-105819258D01*
X138887684Y-105781790D01*
X138881980Y-105734317D01*
X138906238Y-105688343D01*
X138914117Y-105681471D01*
X138959948Y-105664879D01*
X139006036Y-105674552D01*
G37*
G36*
X136966246Y-105675564D02*
G01*
X136985684Y-105695357D01*
X136989587Y-105740599D01*
X136987543Y-105767404D01*
X136967688Y-105816769D01*
X136932144Y-105838896D01*
X136887637Y-105828018D01*
X136863197Y-105802165D01*
X136845586Y-105748453D01*
X136851985Y-105691516D01*
X136872439Y-105672513D01*
X136926342Y-105668654D01*
X136966246Y-105675564D01*
G37*
G36*
X136573356Y-103587894D02*
G01*
X136598524Y-103608682D01*
X136610684Y-103647505D01*
X136596594Y-103686034D01*
X136561348Y-103713661D01*
X136510036Y-103719780D01*
X136495553Y-103715734D01*
X136465095Y-103685866D01*
X136457167Y-103640948D01*
X136475871Y-103595852D01*
X136492980Y-103578716D01*
X136525984Y-103569546D01*
X136573356Y-103587894D01*
G37*
G36*
X143074960Y-104904634D02*
G01*
X143104448Y-104938330D01*
X143109773Y-104977379D01*
X143088182Y-105011547D01*
X143041133Y-105020410D01*
X143023295Y-105016424D01*
X142989352Y-104990079D01*
X142983328Y-104951910D01*
X143009240Y-104915172D01*
X143031853Y-104903180D01*
X143074960Y-104904634D01*
G37*
G36*
X138281592Y-106965159D02*
G01*
X138364135Y-107003385D01*
X138427349Y-107060141D01*
X138466402Y-107131746D01*
X138476466Y-107214523D01*
X138452709Y-107304791D01*
X138429246Y-107334030D01*
X138378540Y-107373769D01*
X138315388Y-107411800D01*
X138252932Y-107440353D01*
X138204314Y-107451657D01*
X138159009Y-107461844D01*
X138105878Y-107493075D01*
X138064556Y-107535240D01*
X138047920Y-107577938D01*
X138050701Y-107598731D01*
X138078387Y-107637511D01*
X138128803Y-107658072D01*
X138193336Y-107659653D01*
X138263372Y-107641494D01*
X138330295Y-107602837D01*
X138383583Y-107560921D01*
X138431722Y-107616885D01*
X138479861Y-107672850D01*
X138424097Y-107717726D01*
X138415666Y-107724313D01*
X138326221Y-107774384D01*
X138230901Y-107798035D01*
X138135901Y-107797584D01*
X138047412Y-107775351D01*
X137971629Y-107733654D01*
X137914744Y-107674810D01*
X137882950Y-107601138D01*
X137882439Y-107514957D01*
X137890262Y-107484310D01*
X137917577Y-107433299D01*
X137965780Y-107389603D01*
X138040677Y-107348652D01*
X138148075Y-107305876D01*
X138191496Y-107289991D01*
X138254351Y-107264522D01*
X138291175Y-107243490D01*
X138309311Y-107222070D01*
X138316103Y-107195433D01*
X138312905Y-107157987D01*
X138283416Y-107116751D01*
X138231678Y-107092968D01*
X138165772Y-107088135D01*
X138093778Y-107103747D01*
X138023778Y-107141302D01*
X137969223Y-107181636D01*
X137909671Y-107139232D01*
X137850119Y-107096827D01*
X137897234Y-107049713D01*
X137903804Y-107043535D01*
X137958100Y-107005361D01*
X138020408Y-106975497D01*
X138077837Y-106959012D01*
X138184549Y-106949142D01*
X138281592Y-106965159D01*
G37*
G36*
X136581896Y-104538914D02*
G01*
X136584010Y-104542780D01*
X136586297Y-104582527D01*
X136565617Y-104619521D01*
X136531323Y-104635835D01*
X136503010Y-104628281D01*
X136478844Y-104595559D01*
X136482007Y-104548450D01*
X136483376Y-104545396D01*
X136511860Y-104523863D01*
X136551861Y-104521018D01*
X136581896Y-104538914D01*
G37*
G36*
X137666625Y-104912973D02*
G01*
X137699573Y-104928642D01*
X137708088Y-104965957D01*
X137707722Y-104976930D01*
X137694628Y-105008328D01*
X137654576Y-105020660D01*
X137611455Y-105015545D01*
X137584827Y-104985299D01*
X137589386Y-104935528D01*
X137606424Y-104916800D01*
X137654576Y-104911255D01*
X137666625Y-104912973D01*
G37*
G36*
X143655234Y-105281369D02*
G01*
X143688235Y-105311882D01*
X143695538Y-105366153D01*
X143691287Y-105391213D01*
X143673301Y-105416503D01*
X143630871Y-105422303D01*
X143604718Y-105420963D01*
X143576817Y-105406410D01*
X143566204Y-105366153D01*
X143568417Y-105323910D01*
X143585623Y-105293629D01*
X143598193Y-105286792D01*
X143630871Y-105277255D01*
X143655234Y-105281369D01*
G37*
G36*
X138608696Y-104349130D02*
G01*
X138653515Y-104378472D01*
X138669327Y-104431936D01*
X138664238Y-104464754D01*
X138631636Y-104505091D01*
X138572232Y-104519321D01*
X138535767Y-104514742D01*
X138490949Y-104485399D01*
X138475137Y-104431936D01*
X138478984Y-104405712D01*
X138498440Y-104367853D01*
X138524876Y-104353028D01*
X138572232Y-104344551D01*
X138608696Y-104349130D01*
G37*
G36*
X138602980Y-104909485D02*
G01*
X138625677Y-104924694D01*
X138630489Y-104965957D01*
X138628704Y-104996705D01*
X138613495Y-105019402D01*
X138572232Y-105024214D01*
X138541484Y-105022429D01*
X138518787Y-105007221D01*
X138513975Y-104965957D01*
X138515760Y-104935210D01*
X138530969Y-104912512D01*
X138572232Y-104907700D01*
X138602980Y-104909485D01*
G37*
G36*
X141229540Y-102828270D02*
G01*
X141248556Y-102863942D01*
X141247115Y-102892125D01*
X141222776Y-102919999D01*
X141213215Y-102922539D01*
X141174940Y-102913208D01*
X141148532Y-102881899D01*
X141147002Y-102842002D01*
X141161577Y-102822033D01*
X141195443Y-102813198D01*
X141229540Y-102828270D01*
G37*
G36*
X138828004Y-107988615D02*
G01*
X138846169Y-108009782D01*
X138862442Y-108062593D01*
X138849933Y-108114613D01*
X138813177Y-108154293D01*
X138756712Y-108170086D01*
X138732074Y-108167234D01*
X138683173Y-108139772D01*
X138654984Y-108092706D01*
X138652428Y-108037844D01*
X138680423Y-107986993D01*
X138714693Y-107964536D01*
X138772512Y-107959956D01*
X138828004Y-107988615D01*
G37*
G36*
X137706701Y-105501366D02*
G01*
X137732021Y-105540328D01*
X137729887Y-105582859D01*
X137696961Y-105614072D01*
X137637547Y-105626202D01*
X137627459Y-105625696D01*
X137584327Y-105606084D01*
X137567527Y-105564622D01*
X137581472Y-105510422D01*
X137612476Y-105479243D01*
X137659156Y-105473981D01*
X137706701Y-105501366D01*
G37*
G36*
X139174774Y-103388723D02*
G01*
X139215715Y-103411407D01*
X139232477Y-103449584D01*
X139221767Y-103487763D01*
X139185437Y-103518038D01*
X139136314Y-103519541D01*
X139133698Y-103518622D01*
X139105427Y-103491797D01*
X139095007Y-103450483D01*
X139103139Y-103410616D01*
X139130527Y-103388131D01*
X139174774Y-103388723D01*
G37*
G36*
X136952368Y-104909485D02*
G01*
X136975065Y-104924694D01*
X136979877Y-104965957D01*
X136978092Y-104996705D01*
X136962884Y-105019402D01*
X136921620Y-105024214D01*
X136890873Y-105022429D01*
X136868175Y-105007221D01*
X136863363Y-104965957D01*
X136865148Y-104935210D01*
X136880357Y-104912512D01*
X136921620Y-104907700D01*
X136952368Y-104909485D01*
G37*
G36*
X140113096Y-103211837D02*
G01*
X140140130Y-103242572D01*
X140140252Y-103280948D01*
X140110191Y-103313279D01*
X140090488Y-103320705D01*
X140047260Y-103315729D01*
X140019352Y-103285750D01*
X140018232Y-103239916D01*
X140019030Y-103237476D01*
X140040917Y-103206741D01*
X140083723Y-103202558D01*
X140113096Y-103211837D01*
G37*
G36*
X136344016Y-104912492D02*
G01*
X136378499Y-104927889D01*
X136387599Y-104965957D01*
X136387456Y-104972970D01*
X136375500Y-105007232D01*
X136336677Y-105020410D01*
X136296059Y-105015300D01*
X136269853Y-104985019D01*
X136274175Y-104935778D01*
X136290652Y-104917569D01*
X136336677Y-104911505D01*
X136344016Y-104912492D01*
G37*
G36*
X141900513Y-107224790D02*
G01*
X141924524Y-107169723D01*
X141983294Y-107084401D01*
X142057264Y-107013915D01*
X142135611Y-106969996D01*
X142195890Y-106955212D01*
X142305720Y-106954229D01*
X142411020Y-106982562D01*
X142499006Y-107037827D01*
X142518592Y-107054178D01*
X142531355Y-107052823D01*
X142533700Y-107017667D01*
X142533759Y-107010756D01*
X142539233Y-106981081D01*
X142561435Y-106968635D01*
X142611376Y-106966110D01*
X142689051Y-106966110D01*
X142689051Y-108111829D01*
X142533700Y-108111829D01*
X142533700Y-107907930D01*
X142533146Y-107842689D01*
X142530964Y-107771005D01*
X142527513Y-107722111D01*
X142523204Y-107704031D01*
X142522102Y-107704176D01*
X142498356Y-107716703D01*
X142459646Y-107743261D01*
X142398723Y-107773065D01*
X142312441Y-107792542D01*
X142221140Y-107796780D01*
X142141524Y-107783658D01*
X142117101Y-107773772D01*
X142041978Y-107725302D01*
X141971393Y-107657141D01*
X141918973Y-107581658D01*
X141902975Y-107544075D01*
X141880969Y-107441657D01*
X141880465Y-107390745D01*
X142050558Y-107390745D01*
X142065766Y-107480681D01*
X142102213Y-107559703D01*
X142159949Y-107618082D01*
X142170599Y-107624424D01*
X142245424Y-107648158D01*
X142329482Y-107649934D01*
X142402783Y-107628867D01*
X142436970Y-107603330D01*
X142485930Y-107538932D01*
X142520563Y-107458243D01*
X142533700Y-107375155D01*
X142528708Y-107316814D01*
X142493076Y-107219898D01*
X142424665Y-107142595D01*
X142398342Y-107126301D01*
X142322911Y-107105239D01*
X142238798Y-107106645D01*
X142162438Y-107131231D01*
X142131870Y-107152728D01*
X142083660Y-107217040D01*
X142056540Y-107299622D01*
X142050558Y-107390745D01*
X141880465Y-107390745D01*
X141879861Y-107329680D01*
X141900513Y-107224790D01*
G37*
G36*
X136952368Y-103200617D02*
G01*
X136975065Y-103215825D01*
X136979877Y-103257089D01*
X136978092Y-103287837D01*
X136962884Y-103310534D01*
X136921620Y-103315346D01*
X136890873Y-103313561D01*
X136868175Y-103298352D01*
X136863363Y-103257089D01*
X136865148Y-103226341D01*
X136880357Y-103203644D01*
X136921620Y-103198832D01*
X136952368Y-103200617D01*
G37*
G36*
X139899805Y-103204104D02*
G01*
X139932754Y-103219773D01*
X139941269Y-103257089D01*
X139940902Y-103268062D01*
X139927808Y-103299460D01*
X139887756Y-103311791D01*
X139844635Y-103306677D01*
X139818007Y-103276430D01*
X139822567Y-103226660D01*
X139839604Y-103207932D01*
X139887756Y-103202386D01*
X139899805Y-103204104D01*
G37*
G36*
X141039641Y-103205837D02*
G01*
X141067774Y-103237638D01*
X141064881Y-103286217D01*
X141047144Y-103304632D01*
X141006624Y-103315346D01*
X140973607Y-103308340D01*
X140945475Y-103276539D01*
X140948367Y-103227960D01*
X140966105Y-103209546D01*
X141006624Y-103198832D01*
X141039641Y-103205837D01*
G37*
G36*
X141427744Y-103011908D02*
G01*
X141454205Y-103036232D01*
X141455332Y-103071710D01*
X141429800Y-103106633D01*
X141384994Y-103121156D01*
X141357170Y-103113482D01*
X141333545Y-103080640D01*
X141336747Y-103033771D01*
X141349138Y-103017972D01*
X141386440Y-103005690D01*
X141427744Y-103011908D01*
G37*
G36*
X141230159Y-103195765D02*
G01*
X141259647Y-103229462D01*
X141264972Y-103268511D01*
X141243381Y-103302678D01*
X141196332Y-103311541D01*
X141178494Y-103307555D01*
X141144551Y-103281210D01*
X141138527Y-103243041D01*
X141164439Y-103206304D01*
X141187051Y-103194312D01*
X141230159Y-103195765D01*
G37*
G36*
X139713185Y-103572500D02*
G01*
X139746186Y-103603014D01*
X139753489Y-103657285D01*
X139749238Y-103682344D01*
X139731252Y-103707635D01*
X139688822Y-103713434D01*
X139662669Y-103712095D01*
X139634768Y-103697542D01*
X139624155Y-103657285D01*
X139626368Y-103615042D01*
X139643574Y-103584761D01*
X139656144Y-103577924D01*
X139688822Y-103568387D01*
X139713185Y-103572500D01*
G37*
G36*
X137701649Y-103409850D02*
G01*
X137717798Y-103449584D01*
X137707088Y-103487763D01*
X137670758Y-103518038D01*
X137621635Y-103519541D01*
X137602763Y-103508719D01*
X137583385Y-103472107D01*
X137587297Y-103428842D01*
X137615347Y-103395633D01*
X137618412Y-103394020D01*
X137663414Y-103388640D01*
X137701649Y-103409850D01*
G37*
G36*
X141430192Y-103964332D02*
G01*
X141466050Y-103995743D01*
X141474408Y-104015384D01*
X141475814Y-104067946D01*
X141449858Y-104107224D01*
X141405045Y-104124715D01*
X141349877Y-104111916D01*
X141347668Y-104110674D01*
X141317485Y-104073659D01*
X141312060Y-104023913D01*
X141333608Y-103979474D01*
X141335503Y-103977650D01*
X141380664Y-103957562D01*
X141430192Y-103964332D01*
G37*
G36*
X136393425Y-105688343D02*
G01*
X136412937Y-105725344D01*
X136412565Y-105777814D01*
X136387851Y-105820182D01*
X136346727Y-105838164D01*
X136302586Y-105828991D01*
X136268127Y-105797478D01*
X136252051Y-105751952D01*
X136263056Y-105700738D01*
X136265116Y-105697230D01*
X136301454Y-105670800D01*
X136350366Y-105667254D01*
X136393425Y-105688343D01*
G37*
G36*
X144534670Y-106599248D02*
G01*
X144579610Y-106607474D01*
X144606568Y-106621424D01*
X144620219Y-106645683D01*
X144643249Y-106697359D01*
X144668657Y-106762211D01*
X144676795Y-106783790D01*
X144702966Y-106850790D01*
X144739855Y-106943386D01*
X144784699Y-107054698D01*
X144834729Y-107177844D01*
X144887183Y-107305942D01*
X144919074Y-107383530D01*
X144966209Y-107498285D01*
X145007275Y-107598363D01*
X145040094Y-107678454D01*
X145062490Y-107733247D01*
X145072286Y-107757433D01*
X145071373Y-107768452D01*
X145045040Y-107778595D01*
X144984684Y-107781707D01*
X144887629Y-107781707D01*
X144804764Y-107553534D01*
X144771826Y-107463296D01*
X144737399Y-107369881D01*
X144708044Y-107291129D01*
X144687812Y-107237976D01*
X144653725Y-107150590D01*
X144614474Y-107237976D01*
X144593344Y-107285794D01*
X144560147Y-107362050D01*
X144520762Y-107453277D01*
X144479867Y-107548679D01*
X144384510Y-107771997D01*
X144285618Y-107777825D01*
X144186726Y-107783652D01*
X144377263Y-107357259D01*
X144567801Y-106930866D01*
X144502279Y-106780186D01*
X144491343Y-106754809D01*
X144463467Y-106687765D01*
X144444048Y-106637486D01*
X144436758Y-106613328D01*
X144448940Y-106602736D01*
X144486272Y-106597438D01*
X144534670Y-106599248D01*
G37*
G36*
X136185059Y-105484020D02*
G01*
X136213352Y-105522117D01*
X136214330Y-105578583D01*
X136206391Y-105602513D01*
X136184448Y-105621887D01*
X136139341Y-105622528D01*
X136110586Y-105618224D01*
X136081489Y-105600661D01*
X136070486Y-105560343D01*
X136072698Y-105518100D01*
X136089905Y-105487819D01*
X136139086Y-105471318D01*
X136185059Y-105484020D01*
G37*
G36*
X140328261Y-105307176D02*
G01*
X140354154Y-105352597D01*
X140347388Y-105394494D01*
X140313435Y-105423067D01*
X140257896Y-105428648D01*
X140243412Y-105424603D01*
X140212954Y-105394734D01*
X140205027Y-105349816D01*
X140223731Y-105304720D01*
X140239846Y-105289229D01*
X140282236Y-105279062D01*
X140328261Y-105307176D01*
G37*
G36*
X138627189Y-103973140D02*
G01*
X138642257Y-103993575D01*
X138646468Y-104037874D01*
X138633641Y-104085402D01*
X138606215Y-104119175D01*
X138582930Y-104128351D01*
X138542070Y-104120424D01*
X138510324Y-104087652D01*
X138494679Y-104039113D01*
X138502120Y-103983888D01*
X138504699Y-103978916D01*
X138535579Y-103960427D01*
X138582163Y-103958008D01*
X138627189Y-103973140D01*
G37*
G36*
X137860814Y-104912973D02*
G01*
X137893763Y-104928642D01*
X137902278Y-104965957D01*
X137901912Y-104976930D01*
X137888818Y-105008328D01*
X137848765Y-105020660D01*
X137805645Y-105015545D01*
X137779016Y-104985299D01*
X137783576Y-104935528D01*
X137800613Y-104916800D01*
X137848765Y-104911255D01*
X137860814Y-104912973D01*
G37*
G36*
X139715046Y-104154208D02*
G01*
X139752905Y-104173664D01*
X139765691Y-104193183D01*
X139776207Y-104237746D01*
X139772655Y-104264954D01*
X139742807Y-104308833D01*
X139688822Y-104325132D01*
X139687732Y-104325125D01*
X139637862Y-104308702D01*
X139607102Y-104269386D01*
X139600909Y-104220074D01*
X139624740Y-104173664D01*
X139644259Y-104160877D01*
X139688822Y-104150361D01*
X139715046Y-104154208D01*
G37*
G36*
X142901773Y-105304720D02*
G01*
X142911236Y-105318885D01*
X142920588Y-105365576D01*
X142904679Y-105407121D01*
X142867608Y-105428648D01*
X142812203Y-105423122D01*
X142778178Y-105394602D01*
X142771324Y-105352730D01*
X142797243Y-105307176D01*
X142816691Y-105290849D01*
X142861425Y-105278636D01*
X142901773Y-105304720D01*
G37*
G36*
X137677039Y-105862782D02*
G01*
X137720918Y-105892630D01*
X137737217Y-105946615D01*
X137733664Y-105973822D01*
X137703816Y-106017701D01*
X137649831Y-106034000D01*
X137648741Y-106033994D01*
X137598871Y-106017570D01*
X137568111Y-105978254D01*
X137561918Y-105928942D01*
X137585749Y-105882532D01*
X137605268Y-105869746D01*
X137649831Y-105859229D01*
X137677039Y-105862782D01*
G37*
G36*
X136172402Y-103385390D02*
G01*
X136194593Y-103408924D01*
X136203134Y-103452114D01*
X136195341Y-103496100D01*
X136171351Y-103522945D01*
X136141363Y-103527593D01*
X136101794Y-103511361D01*
X136076779Y-103476819D01*
X136073195Y-103435556D01*
X136097914Y-103399160D01*
X136125580Y-103379619D01*
X136144253Y-103375580D01*
X136172402Y-103385390D01*
G37*
G36*
X137674195Y-103572500D02*
G01*
X137707195Y-103603014D01*
X137714498Y-103657285D01*
X137710248Y-103682344D01*
X137692261Y-103707635D01*
X137649831Y-103713434D01*
X137623678Y-103712095D01*
X137595777Y-103697542D01*
X137585165Y-103657285D01*
X137587377Y-103615042D01*
X137604584Y-103584761D01*
X137617153Y-103577924D01*
X137649831Y-103568387D01*
X137674195Y-103572500D01*
G37*
G36*
X139741627Y-103413607D02*
G01*
X139756788Y-103460363D01*
X139750523Y-103490960D01*
X139717019Y-103519541D01*
X139682902Y-103522382D01*
X139645125Y-103503382D01*
X139623863Y-103468198D01*
X139624980Y-103428418D01*
X139654337Y-103395633D01*
X139658444Y-103393495D01*
X139704611Y-103388642D01*
X139741627Y-103413607D01*
G37*
G36*
X137675791Y-104350152D02*
G01*
X137711556Y-104358757D01*
X137725278Y-104381984D01*
X137727507Y-104431936D01*
X137727507Y-104509612D01*
X137649831Y-104509612D01*
X137640911Y-104509581D01*
X137594856Y-104505780D01*
X137573848Y-104490071D01*
X137565853Y-104454569D01*
X137564454Y-104410886D01*
X137570551Y-104370857D01*
X137571189Y-104369318D01*
X137597503Y-104350224D01*
X137654530Y-104348224D01*
X137675791Y-104350152D01*
G37*
G36*
X140308641Y-103385390D02*
G01*
X140330831Y-103408924D01*
X140339372Y-103452114D01*
X140331579Y-103496100D01*
X140307589Y-103522945D01*
X140277602Y-103527593D01*
X140238032Y-103511361D01*
X140213018Y-103476819D01*
X140209433Y-103435556D01*
X140234153Y-103399160D01*
X140261818Y-103379619D01*
X140280491Y-103375580D01*
X140308641Y-103385390D01*
G37*
G36*
X139043843Y-107270561D02*
G01*
X139058661Y-107220767D01*
X139086628Y-107164123D01*
X139137273Y-107086259D01*
X139212072Y-107016205D01*
X139308195Y-106969457D01*
X139339150Y-106960153D01*
X139454743Y-106949356D01*
X139564909Y-106976114D01*
X139664548Y-107039428D01*
X139675374Y-107048492D01*
X139690911Y-107054471D01*
X139697294Y-107034903D01*
X139698532Y-106983150D01*
X139685852Y-106895554D01*
X139643768Y-106826809D01*
X139570394Y-106779579D01*
X139485436Y-106756161D01*
X139395620Y-106759170D01*
X139290552Y-106789622D01*
X139192860Y-106826742D01*
X139164121Y-106771167D01*
X139162912Y-106768821D01*
X139143427Y-106728076D01*
X139135382Y-106705602D01*
X139144478Y-106692878D01*
X139183439Y-106670343D01*
X139244887Y-106645920D01*
X139319862Y-106623593D01*
X139412048Y-106609721D01*
X139526906Y-106614835D01*
X139635396Y-106641575D01*
X139727521Y-106687286D01*
X139793287Y-106749314D01*
X139794838Y-106751511D01*
X139819732Y-106792984D01*
X139838907Y-106841107D01*
X139853055Y-106901240D01*
X139862867Y-106978742D01*
X139869033Y-107078972D01*
X139872245Y-107207289D01*
X139873194Y-107369054D01*
X139873302Y-107781707D01*
X139785917Y-107781707D01*
X139781056Y-107781698D01*
X139728660Y-107778702D01*
X139704426Y-107767376D01*
X139698532Y-107743415D01*
X139697227Y-107724952D01*
X139687421Y-107717131D01*
X139660597Y-107726217D01*
X139608254Y-107753124D01*
X139517602Y-107787776D01*
X139402744Y-107797843D01*
X139291204Y-107773475D01*
X139190104Y-107716443D01*
X139106569Y-107628514D01*
X139084223Y-107594494D01*
X139060904Y-107544653D01*
X139048076Y-107485920D01*
X139041412Y-107403344D01*
X139040737Y-107380432D01*
X139201407Y-107380432D01*
X139217412Y-107471477D01*
X139260300Y-107548318D01*
X139324263Y-107606042D01*
X139403491Y-107639734D01*
X139492175Y-107644477D01*
X139584508Y-107615358D01*
X139624784Y-107583307D01*
X139670596Y-107520285D01*
X139704104Y-107445502D01*
X139717098Y-107373908D01*
X139712894Y-107332769D01*
X139684414Y-107251971D01*
X139636197Y-107181098D01*
X139576692Y-107134553D01*
X139537971Y-107119355D01*
X139448611Y-107104184D01*
X139368409Y-107115708D01*
X139350137Y-107124170D01*
X139293151Y-107169401D01*
X139242996Y-107232912D01*
X139211999Y-107300162D01*
X139201407Y-107380432D01*
X139040737Y-107380432D01*
X139039224Y-107329101D01*
X139043843Y-107270561D01*
G37*
G36*
X141452727Y-103219941D02*
G01*
X141461981Y-103263257D01*
X141460322Y-103272164D01*
X141442018Y-103298510D01*
X141397957Y-103305636D01*
X141370698Y-103301982D01*
X141336793Y-103278396D01*
X141331579Y-103242534D01*
X141359424Y-103205723D01*
X141376280Y-103196484D01*
X141419676Y-103195167D01*
X141452727Y-103219941D01*
G37*
G36*
X138797169Y-103200617D02*
G01*
X138819867Y-103215825D01*
X138824678Y-103257089D01*
X138822894Y-103287837D01*
X138807685Y-103310534D01*
X138766421Y-103315346D01*
X138735674Y-103313561D01*
X138712976Y-103298352D01*
X138708165Y-103257089D01*
X138709949Y-103226341D01*
X138725158Y-103203644D01*
X138766421Y-103198832D01*
X138797169Y-103200617D01*
G37*
G36*
X139551502Y-105501366D02*
G01*
X139576822Y-105540328D01*
X139574688Y-105582859D01*
X139541762Y-105614072D01*
X139482348Y-105626202D01*
X139472260Y-105625696D01*
X139429128Y-105606084D01*
X139412328Y-105564622D01*
X139426274Y-105510422D01*
X139457277Y-105479243D01*
X139503958Y-105473981D01*
X139551502Y-105501366D01*
G37*
G36*
X139726063Y-103772224D02*
G01*
X139760060Y-103809954D01*
X139772012Y-103853614D01*
X139757266Y-103887630D01*
X139754889Y-103890390D01*
X139712442Y-103916226D01*
X139667496Y-103913620D01*
X139630371Y-103889139D01*
X139611384Y-103849350D01*
X139620856Y-103800820D01*
X139637371Y-103779784D01*
X139680322Y-103761849D01*
X139726063Y-103772224D01*
G37*
G36*
X141033703Y-105476730D02*
G01*
X141065383Y-105508729D01*
X141073978Y-105560343D01*
X141066857Y-105594472D01*
X141046073Y-105612609D01*
X140999602Y-105616492D01*
X140966953Y-105614960D01*
X140936711Y-105602616D01*
X140925290Y-105571731D01*
X140926083Y-105539753D01*
X140942232Y-105498910D01*
X140947383Y-105493167D01*
X140990511Y-105469744D01*
X141033703Y-105476730D01*
G37*
G36*
X136966246Y-103966696D02*
G01*
X136985684Y-103986488D01*
X136989587Y-104031731D01*
X136987543Y-104058536D01*
X136967688Y-104107900D01*
X136932144Y-104130028D01*
X136887637Y-104119150D01*
X136863197Y-104093297D01*
X136845586Y-104039585D01*
X136851985Y-103982647D01*
X136872439Y-103963644D01*
X136926342Y-103959786D01*
X136966246Y-103966696D01*
G37*
G36*
X138797169Y-104909485D02*
G01*
X138819867Y-104924694D01*
X138824678Y-104965957D01*
X138822894Y-104996705D01*
X138807685Y-105019402D01*
X138766421Y-105024214D01*
X138735674Y-105022429D01*
X138712976Y-105007221D01*
X138708165Y-104965957D01*
X138709949Y-104935210D01*
X138725158Y-104912512D01*
X138766421Y-104907700D01*
X138797169Y-104909485D01*
G37*
G36*
X141744606Y-104912973D02*
G01*
X141777555Y-104928642D01*
X141786070Y-104965957D01*
X141785704Y-104976930D01*
X141772610Y-105008328D01*
X141732557Y-105020660D01*
X141689437Y-105015545D01*
X141662808Y-104985299D01*
X141667368Y-104935528D01*
X141684405Y-104916800D01*
X141732557Y-104911255D01*
X141744606Y-104912973D01*
G37*
G36*
X136192022Y-103598308D02*
G01*
X136217915Y-103643728D01*
X136211150Y-103685625D01*
X136177196Y-103714199D01*
X136121657Y-103719780D01*
X136107174Y-103715734D01*
X136076715Y-103685866D01*
X136068788Y-103640948D01*
X136087492Y-103595852D01*
X136103608Y-103580361D01*
X136145997Y-103570194D01*
X136192022Y-103598308D01*
G37*
G36*
X143297528Y-104928809D02*
G01*
X143306782Y-104972126D01*
X143305124Y-104981032D01*
X143286820Y-105007378D01*
X143242758Y-105014505D01*
X143215499Y-105010851D01*
X143181595Y-104987264D01*
X143176380Y-104951403D01*
X143204225Y-104914591D01*
X143221081Y-104905353D01*
X143264478Y-104904036D01*
X143297528Y-104928809D01*
G37*
G36*
X143459925Y-104534291D02*
G01*
X143480700Y-104566546D01*
X143479967Y-104603580D01*
X143454654Y-104629367D01*
X143442063Y-104631867D01*
X143407107Y-104618339D01*
X143383182Y-104584953D01*
X143382230Y-104545535D01*
X143396877Y-104529851D01*
X143434298Y-104523149D01*
X143459925Y-104534291D01*
G37*
G36*
X139714782Y-104350152D02*
G01*
X139750547Y-104358757D01*
X139764268Y-104381984D01*
X139766498Y-104431936D01*
X139766498Y-104509612D01*
X139688822Y-104509612D01*
X139679902Y-104509581D01*
X139633847Y-104505780D01*
X139612839Y-104490071D01*
X139604843Y-104454569D01*
X139603445Y-104410886D01*
X139609542Y-104370857D01*
X139610180Y-104369318D01*
X139636493Y-104350224D01*
X139693521Y-104348224D01*
X139714782Y-104350152D01*
G37*
G36*
X141230159Y-104904634D02*
G01*
X141259647Y-104938330D01*
X141264972Y-104977379D01*
X141243381Y-105011547D01*
X141196332Y-105020410D01*
X141178494Y-105016424D01*
X141144551Y-104990079D01*
X141138527Y-104951910D01*
X141164439Y-104915172D01*
X141187051Y-104903180D01*
X141230159Y-104904634D01*
G37*
G36*
X140838744Y-102826695D02*
G01*
X140860437Y-102856208D01*
X140859658Y-102890022D01*
X140834420Y-102918444D01*
X140787948Y-102917877D01*
X140760232Y-102898182D01*
X140746667Y-102859551D01*
X140760921Y-102822580D01*
X140764467Y-102819531D01*
X140800150Y-102812238D01*
X140838744Y-102826695D01*
G37*
G36*
X139546450Y-105118719D02*
G01*
X139562599Y-105158452D01*
X139551889Y-105196632D01*
X139515560Y-105226907D01*
X139466436Y-105228409D01*
X139447564Y-105217588D01*
X139428187Y-105180976D01*
X139432098Y-105137710D01*
X139460148Y-105104502D01*
X139463214Y-105102888D01*
X139508216Y-105097508D01*
X139546450Y-105118719D01*
G37*
G36*
X141407955Y-103388723D02*
G01*
X141448896Y-103411407D01*
X141465657Y-103449584D01*
X141454947Y-103487763D01*
X141418618Y-103518038D01*
X141369494Y-103519541D01*
X141366878Y-103518622D01*
X141338607Y-103491797D01*
X141328187Y-103450483D01*
X141336320Y-103410616D01*
X141363707Y-103388131D01*
X141407955Y-103388723D01*
G37*
G36*
X143453475Y-104912973D02*
G01*
X143486423Y-104928642D01*
X143494938Y-104965957D01*
X143494572Y-104976930D01*
X143481478Y-105008328D01*
X143441426Y-105020660D01*
X143398305Y-105015545D01*
X143371677Y-104985299D01*
X143376237Y-104935528D01*
X143393274Y-104916800D01*
X143441426Y-104911255D01*
X143453475Y-104912973D01*
G37*
G36*
X143683546Y-105122121D02*
G01*
X143698837Y-105168462D01*
X143688936Y-105205097D01*
X143652933Y-105230340D01*
X143599007Y-105227245D01*
X143580921Y-105216137D01*
X143564232Y-105179690D01*
X143569267Y-105136833D01*
X143596386Y-105104502D01*
X143600101Y-105102555D01*
X143646313Y-105097454D01*
X143683546Y-105122121D01*
G37*
G36*
X141772477Y-105105774D02*
G01*
X141779272Y-105113584D01*
X141795516Y-105157674D01*
X141787029Y-105201403D01*
X141756010Y-105228409D01*
X141722921Y-105231519D01*
X141684618Y-105213011D01*
X141663122Y-105177699D01*
X141664253Y-105137278D01*
X141693830Y-105103445D01*
X141720435Y-105089223D01*
X141746864Y-105085986D01*
X141772477Y-105105774D01*
G37*
G36*
X140842020Y-104913862D02*
G01*
X140867953Y-104941684D01*
X140872449Y-104979653D01*
X140853700Y-105013404D01*
X140803794Y-105024214D01*
X140774597Y-105022477D01*
X140752019Y-105007262D01*
X140747155Y-104965957D01*
X140748805Y-104936229D01*
X140763431Y-104912784D01*
X140803147Y-104907700D01*
X140842020Y-104913862D01*
G37*
G36*
X143426972Y-106966110D02*
G01*
X143437384Y-106966149D01*
X143482093Y-106969783D01*
X143500844Y-106984519D01*
X143504648Y-107017667D01*
X143505568Y-107045837D01*
X143514224Y-107057044D01*
X143539209Y-107037947D01*
X143542245Y-107035304D01*
X143586191Y-107005634D01*
X143641158Y-106977441D01*
X143699838Y-106957929D01*
X143810727Y-106951484D01*
X143922155Y-106983394D01*
X144015223Y-107042656D01*
X144089845Y-107132205D01*
X144135032Y-107246455D01*
X144150265Y-107384488D01*
X144144882Y-107458545D01*
X144112378Y-107572450D01*
X144054906Y-107666598D01*
X143977616Y-107737886D01*
X143885656Y-107783209D01*
X143784178Y-107799463D01*
X143678329Y-107783542D01*
X143573259Y-107732343D01*
X143504648Y-107685782D01*
X143504648Y-108111829D01*
X143349296Y-108111829D01*
X143349296Y-107344898D01*
X143509443Y-107344898D01*
X143513862Y-107445149D01*
X143545670Y-107529293D01*
X143598868Y-107593703D01*
X143667453Y-107634751D01*
X143745424Y-107648811D01*
X143826781Y-107632256D01*
X143905521Y-107581458D01*
X143905889Y-107581121D01*
X143950783Y-107533281D01*
X143974200Y-107484793D01*
X143985361Y-107416621D01*
X143983414Y-107310998D01*
X143952170Y-107222964D01*
X143889018Y-107150197D01*
X143884344Y-107146361D01*
X143807895Y-107106369D01*
X143727970Y-107100031D01*
X143651379Y-107123897D01*
X143584935Y-107174520D01*
X143535449Y-107248451D01*
X143509733Y-107342240D01*
X143509443Y-107344898D01*
X143349296Y-107344898D01*
X143349296Y-106966110D01*
X143426972Y-106966110D01*
G37*
G36*
X141986085Y-105688343D02*
G01*
X141987909Y-105690237D01*
X142007997Y-105735398D01*
X142001228Y-105784927D01*
X141969816Y-105820784D01*
X141950175Y-105829142D01*
X141897613Y-105830548D01*
X141858335Y-105804593D01*
X141840844Y-105759780D01*
X141853644Y-105704611D01*
X141854885Y-105702402D01*
X141891900Y-105672220D01*
X141941646Y-105666795D01*
X141986085Y-105688343D01*
G37*
G36*
X137481030Y-103960334D02*
G01*
X137523399Y-103985048D01*
X137531219Y-103997389D01*
X137537674Y-104044975D01*
X137520740Y-104092205D01*
X137485458Y-104121014D01*
X137450455Y-104125144D01*
X137404819Y-104107590D01*
X137375128Y-104070431D01*
X137368376Y-104024211D01*
X137391559Y-103979474D01*
X137428560Y-103959961D01*
X137481030Y-103960334D01*
G37*
G36*
X142558064Y-104918977D02*
G01*
X142572538Y-104968222D01*
X142570821Y-104996795D01*
X142555604Y-105019328D01*
X142514281Y-105024214D01*
X142484249Y-105022525D01*
X142461026Y-105007733D01*
X142456024Y-104967576D01*
X142462867Y-104925955D01*
X142480298Y-104902770D01*
X142519403Y-104897753D01*
X142558064Y-104918977D01*
G37*
G36*
X139947094Y-103979474D02*
G01*
X139948918Y-103981369D01*
X139969006Y-104026530D01*
X139962237Y-104076058D01*
X139930826Y-104111916D01*
X139911184Y-104120274D01*
X139858622Y-104121680D01*
X139819344Y-104095725D01*
X139801853Y-104050911D01*
X139814653Y-103995743D01*
X139815894Y-103993534D01*
X139852909Y-103963351D01*
X139902655Y-103957926D01*
X139947094Y-103979474D01*
G37*
G36*
X140321298Y-105484020D02*
G01*
X140349590Y-105522117D01*
X140350569Y-105578583D01*
X140342629Y-105602513D01*
X140320686Y-105621887D01*
X140275579Y-105622528D01*
X140246824Y-105618224D01*
X140217727Y-105600661D01*
X140206724Y-105560343D01*
X140208937Y-105518100D01*
X140226143Y-105487819D01*
X140275325Y-105471318D01*
X140321298Y-105484020D01*
G37*
G36*
X138409114Y-105097333D02*
G01*
X138415032Y-105101749D01*
X138439041Y-105140173D01*
X138439552Y-105185041D01*
X138419355Y-105222282D01*
X138381243Y-105237823D01*
X138370259Y-105237121D01*
X138327489Y-105217420D01*
X138304280Y-105180071D01*
X138305083Y-105137827D01*
X138334350Y-105103445D01*
X138356366Y-105091324D01*
X138383150Y-105084753D01*
X138409114Y-105097333D01*
G37*
G36*
X136174799Y-104157187D02*
G01*
X136206980Y-104174153D01*
X136219086Y-104214647D01*
X136216158Y-104265058D01*
X136187957Y-104309084D01*
X136136658Y-104325132D01*
X136135001Y-104325118D01*
X136084252Y-104308552D01*
X136053259Y-104269246D01*
X136047374Y-104219793D01*
X136071945Y-104172788D01*
X136104778Y-104157712D01*
X136154476Y-104154340D01*
X136174799Y-104157187D01*
G37*
G36*
X140842020Y-103204994D02*
G01*
X140867953Y-103232815D01*
X140872449Y-103270784D01*
X140853700Y-103304535D01*
X140803794Y-103315346D01*
X140774597Y-103313609D01*
X140752019Y-103298393D01*
X140747155Y-103257089D01*
X140748805Y-103227360D01*
X140763431Y-103203915D01*
X140803147Y-103198832D01*
X140842020Y-103204994D01*
G37*
G36*
X141062094Y-105689099D02*
G01*
X141087670Y-105729978D01*
X141086769Y-105782242D01*
X141080662Y-105795210D01*
X141043999Y-105825174D01*
X140994691Y-105835179D01*
X140950802Y-105820182D01*
X140928250Y-105785275D01*
X140924194Y-105732988D01*
X140945229Y-105688343D01*
X140973685Y-105669478D01*
X141020585Y-105666601D01*
X141062094Y-105689099D01*
G37*
G36*
X140622010Y-103568478D02*
G01*
X140663563Y-103588881D01*
X140683322Y-103628096D01*
X140678223Y-103673196D01*
X140645206Y-103711254D01*
X140618017Y-103721275D01*
X140577172Y-103712369D01*
X140547332Y-103681572D01*
X140536765Y-103639305D01*
X140553740Y-103595988D01*
X140570179Y-103581798D01*
X140611223Y-103567792D01*
X140622010Y-103568478D01*
G37*
G36*
X142520419Y-105083879D02*
G01*
X142548957Y-105102428D01*
X142578405Y-105130597D01*
X142591957Y-105153101D01*
X142580624Y-105187102D01*
X142550751Y-105222241D01*
X142517481Y-105237823D01*
X142483529Y-105231894D01*
X142448445Y-105202627D01*
X142441420Y-105159134D01*
X142467120Y-105112987D01*
X142488597Y-105094808D01*
X142514281Y-105082471D01*
X142520419Y-105083879D01*
G37*
G36*
X137674195Y-105281369D02*
G01*
X137707195Y-105311882D01*
X137714498Y-105366153D01*
X137710248Y-105391213D01*
X137692261Y-105416503D01*
X137649831Y-105422303D01*
X137623678Y-105420963D01*
X137595777Y-105406410D01*
X137585165Y-105366153D01*
X137587377Y-105323910D01*
X137604584Y-105293629D01*
X137617153Y-105286792D01*
X137649831Y-105277255D01*
X137674195Y-105281369D01*
G37*
G36*
X139188902Y-105476730D02*
G01*
X139220582Y-105508729D01*
X139229177Y-105560343D01*
X139222056Y-105594472D01*
X139201272Y-105612609D01*
X139154801Y-105616492D01*
X139122152Y-105614960D01*
X139091910Y-105602616D01*
X139080489Y-105571731D01*
X139081282Y-105539753D01*
X139097431Y-105498910D01*
X139102582Y-105493167D01*
X139145710Y-105469744D01*
X139188902Y-105476730D01*
G37*
G36*
X139000536Y-103207163D02*
G01*
X139029293Y-103238291D01*
X139025487Y-103287268D01*
X139009010Y-103305477D01*
X138962985Y-103311541D01*
X138956912Y-103310732D01*
X138920126Y-103294137D01*
X138905919Y-103252234D01*
X138904423Y-103223799D01*
X138917045Y-103203174D01*
X138957244Y-103198832D01*
X139000536Y-103207163D01*
G37*
G36*
X137512900Y-106063420D02*
G01*
X137538295Y-106095680D01*
X137549347Y-106137940D01*
X137565418Y-106094496D01*
X137576918Y-106072060D01*
X137603598Y-106057097D01*
X137654498Y-106057090D01*
X137675783Y-106059020D01*
X137711555Y-106067626D01*
X137725278Y-106090853D01*
X137727507Y-106140804D01*
X137727341Y-106164075D01*
X137721934Y-106202239D01*
X137700801Y-106218375D01*
X137653198Y-106224596D01*
X137609573Y-106225886D01*
X137581064Y-106215621D01*
X137567507Y-106187190D01*
X137556126Y-106143668D01*
X137540055Y-106187112D01*
X137529525Y-106208238D01*
X137503252Y-106224266D01*
X137453077Y-106224518D01*
X137442893Y-106223395D01*
X137386242Y-106201889D01*
X137361401Y-106158880D01*
X137370157Y-106097112D01*
X137380563Y-106079644D01*
X137419338Y-106055528D01*
X137468349Y-106050078D01*
X137512900Y-106063420D01*
G37*
G36*
X138418157Y-105296763D02*
G01*
X138443325Y-105317551D01*
X138455485Y-105356374D01*
X138441396Y-105394903D01*
X138406149Y-105422530D01*
X138354837Y-105428648D01*
X138340354Y-105424603D01*
X138309896Y-105394734D01*
X138301969Y-105349816D01*
X138320672Y-105304720D01*
X138337781Y-105287585D01*
X138370785Y-105278415D01*
X138418157Y-105296763D01*
G37*
G36*
X136386212Y-103598308D02*
G01*
X136412105Y-103643728D01*
X136405339Y-103685625D01*
X136371386Y-103714199D01*
X136315847Y-103719780D01*
X136301363Y-103715734D01*
X136270905Y-103685866D01*
X136262978Y-103640948D01*
X136281682Y-103595852D01*
X136297797Y-103580361D01*
X136340187Y-103570194D01*
X136386212Y-103598308D01*
G37*
G36*
X139950769Y-105499727D02*
G01*
X139963077Y-105527126D01*
X139962486Y-105577402D01*
X139959518Y-105587773D01*
X139937798Y-105618189D01*
X139893034Y-105626202D01*
X139875035Y-105624885D01*
X139826870Y-105602956D01*
X139804740Y-105561370D01*
X139815045Y-105509688D01*
X139820013Y-105501867D01*
X139859447Y-105475565D01*
X139908861Y-105474424D01*
X139950769Y-105499727D01*
G37*
G36*
X137860814Y-103204104D02*
G01*
X137893763Y-103219773D01*
X137902278Y-103257089D01*
X137901912Y-103268062D01*
X137888818Y-103299460D01*
X137848765Y-103311791D01*
X137805645Y-103306677D01*
X137779016Y-103276430D01*
X137783576Y-103226660D01*
X137800613Y-103207932D01*
X137848765Y-103202386D01*
X137860814Y-103204104D01*
G37*
G36*
X141529089Y-106972133D02*
G01*
X141623598Y-107007885D01*
X141678280Y-107041132D01*
X141706318Y-107070134D01*
X141705753Y-107100364D01*
X141680262Y-107140421D01*
X141643341Y-107188508D01*
X141566419Y-107145275D01*
X141518837Y-107123245D01*
X141422684Y-107103139D01*
X141329316Y-107111475D01*
X141246605Y-107145706D01*
X141182425Y-107203286D01*
X141144652Y-107281668D01*
X141131324Y-107335070D01*
X141756941Y-107335070D01*
X141756515Y-107417601D01*
X141743707Y-107508040D01*
X141702722Y-107607084D01*
X141639866Y-107693340D01*
X141561646Y-107758147D01*
X141474568Y-107792847D01*
X141419930Y-107799842D01*
X141297838Y-107791171D01*
X141188567Y-107750970D01*
X141096325Y-107683948D01*
X141025321Y-107594812D01*
X140979765Y-107488268D01*
X140977463Y-107471003D01*
X141131960Y-107471003D01*
X141168793Y-107534071D01*
X141216931Y-107591628D01*
X141290527Y-107634424D01*
X141373181Y-107649286D01*
X141454829Y-107634666D01*
X141525408Y-107589011D01*
X141537049Y-107576718D01*
X141569242Y-107533955D01*
X141582171Y-107501625D01*
X141577572Y-107488796D01*
X141558969Y-107479746D01*
X141520152Y-107474326D01*
X141454918Y-107471693D01*
X141357065Y-107471003D01*
X141131960Y-107471003D01*
X140977463Y-107471003D01*
X140963866Y-107369025D01*
X140981833Y-107241790D01*
X141019962Y-107157874D01*
X141083948Y-107075669D01*
X141162226Y-107009194D01*
X141243998Y-106969656D01*
X141303349Y-106957946D01*
X141416647Y-106954913D01*
X141529089Y-106972133D01*
G37*
G36*
X137675220Y-105669202D02*
G01*
X137717588Y-105693916D01*
X137725408Y-105706257D01*
X137731864Y-105753843D01*
X137714930Y-105801074D01*
X137679648Y-105829883D01*
X137644645Y-105834012D01*
X137599009Y-105816458D01*
X137569317Y-105779300D01*
X137562566Y-105733080D01*
X137585749Y-105688343D01*
X137622750Y-105668830D01*
X137675220Y-105669202D01*
G37*
G36*
X138413125Y-105480520D02*
G01*
X138445238Y-105517691D01*
X138452354Y-105571731D01*
X138446999Y-105593090D01*
X138425596Y-105611854D01*
X138378042Y-105616492D01*
X138345393Y-105614960D01*
X138315151Y-105602616D01*
X138303731Y-105571731D01*
X138304523Y-105539753D01*
X138320672Y-105498910D01*
X138336950Y-105484856D01*
X138378042Y-105470850D01*
X138413125Y-105480520D01*
G37*
G36*
X137675220Y-103960334D02*
G01*
X137717588Y-103985048D01*
X137725408Y-103997389D01*
X137731864Y-104044975D01*
X137714930Y-104092205D01*
X137679648Y-104121014D01*
X137644645Y-104125144D01*
X137599009Y-104107590D01*
X137569317Y-104070431D01*
X137562566Y-104024211D01*
X137585749Y-103979474D01*
X137622750Y-103959961D01*
X137675220Y-103960334D01*
G37*
G36*
X140614818Y-103373957D02*
G01*
X140645609Y-103392255D01*
X140675485Y-103426097D01*
X140688899Y-103458491D01*
X140688491Y-103465945D01*
X140668887Y-103504967D01*
X140630258Y-103524556D01*
X140587035Y-103521202D01*
X140553649Y-103491393D01*
X140537585Y-103457867D01*
X140538919Y-103433089D01*
X140564062Y-103404118D01*
X140585539Y-103385939D01*
X140611223Y-103373603D01*
X140614818Y-103373957D01*
G37*
G36*
X138999555Y-104915094D02*
G01*
X139025890Y-104936829D01*
X139031441Y-104975494D01*
X139009288Y-105010981D01*
X138958533Y-105024214D01*
X138929780Y-105022492D01*
X138907233Y-105007275D01*
X138902354Y-104965957D01*
X138904015Y-104936140D01*
X138918690Y-104912760D01*
X138958533Y-104907700D01*
X138999555Y-104915094D01*
G37*
G36*
X137701649Y-105118719D02*
G01*
X137717798Y-105158452D01*
X137707088Y-105196632D01*
X137670758Y-105226907D01*
X137621635Y-105228409D01*
X137602763Y-105217588D01*
X137583385Y-105180976D01*
X137587297Y-105137710D01*
X137615347Y-105104502D01*
X137618412Y-105102888D01*
X137663414Y-105097508D01*
X137701649Y-105118719D01*
G37*
G36*
X139518996Y-105281369D02*
G01*
X139551996Y-105311882D01*
X139559299Y-105366153D01*
X139555049Y-105391213D01*
X139537062Y-105416503D01*
X139494633Y-105422303D01*
X139468479Y-105420963D01*
X139440579Y-105406410D01*
X139429966Y-105366153D01*
X139432178Y-105323910D01*
X139449385Y-105293629D01*
X139461955Y-105286792D01*
X139494633Y-105277255D01*
X139518996Y-105281369D01*
G37*
G36*
X137706701Y-103792497D02*
G01*
X137732021Y-103831460D01*
X137729887Y-103873991D01*
X137696961Y-103905203D01*
X137637547Y-103917333D01*
X137627459Y-103916827D01*
X137584327Y-103897216D01*
X137567527Y-103855754D01*
X137581472Y-103801553D01*
X137612476Y-103770374D01*
X137659156Y-103765112D01*
X137706701Y-103792497D01*
G37*
G36*
X136179567Y-103217628D02*
G01*
X136199442Y-103250920D01*
X136198128Y-103276995D01*
X136174991Y-103310845D01*
X136136926Y-103322313D01*
X136097663Y-103304211D01*
X136076004Y-103281419D01*
X136068940Y-103260758D01*
X136079376Y-103228498D01*
X136103158Y-103204720D01*
X136142162Y-103201237D01*
X136179567Y-103217628D01*
G37*
G36*
X136560180Y-105669210D02*
G01*
X136596104Y-105696705D01*
X136610917Y-105742416D01*
X136598571Y-105796952D01*
X136561715Y-105830454D01*
X136506685Y-105832482D01*
X136471092Y-105814200D01*
X136448892Y-105769774D01*
X136457838Y-105708008D01*
X136476089Y-105680345D01*
X136515918Y-105662799D01*
X136560180Y-105669210D01*
G37*
G36*
X136733568Y-103375011D02*
G01*
X136762107Y-103393560D01*
X136791555Y-103421728D01*
X136805107Y-103444233D01*
X136793774Y-103478234D01*
X136763901Y-103513372D01*
X136730631Y-103528954D01*
X136696679Y-103523026D01*
X136661595Y-103493758D01*
X136654569Y-103450266D01*
X136680270Y-103404118D01*
X136701747Y-103385939D01*
X136727431Y-103373603D01*
X136733568Y-103375011D01*
G37*
G36*
X141795570Y-105499727D02*
G01*
X141807878Y-105527126D01*
X141807287Y-105577402D01*
X141804319Y-105587773D01*
X141782599Y-105618189D01*
X141737836Y-105626202D01*
X141719836Y-105624885D01*
X141671671Y-105602956D01*
X141649542Y-105561370D01*
X141659847Y-105509688D01*
X141664814Y-105501867D01*
X141704248Y-105475565D01*
X141753662Y-105474424D01*
X141795570Y-105499727D01*
G37*
G36*
X138811047Y-103966696D02*
G01*
X138830485Y-103986488D01*
X138834388Y-104031731D01*
X138832344Y-104058536D01*
X138812490Y-104107900D01*
X138776945Y-104130028D01*
X138732438Y-104119150D01*
X138707998Y-104093297D01*
X138690387Y-104039585D01*
X138696786Y-103982647D01*
X138717241Y-103963644D01*
X138771143Y-103959786D01*
X138811047Y-103966696D01*
G37*
G36*
X140335473Y-103979474D02*
G01*
X140354986Y-104016475D01*
X140354614Y-104068945D01*
X140329900Y-104111314D01*
X140288776Y-104129295D01*
X140244635Y-104120122D01*
X140210176Y-104088609D01*
X140194100Y-104043083D01*
X140205105Y-103991870D01*
X140207165Y-103988362D01*
X140243503Y-103961932D01*
X140292415Y-103958385D01*
X140335473Y-103979474D01*
G37*
G36*
X142878504Y-105476730D02*
G01*
X142910184Y-105508729D01*
X142918779Y-105560343D01*
X142911658Y-105594472D01*
X142890875Y-105612609D01*
X142844403Y-105616492D01*
X142811754Y-105614960D01*
X142781512Y-105602616D01*
X142770091Y-105571731D01*
X142770884Y-105539753D01*
X142787033Y-105498910D01*
X142792184Y-105493167D01*
X142835312Y-105469744D01*
X142878504Y-105476730D01*
G37*
G36*
X141770024Y-105292771D02*
G01*
X141800717Y-105337885D01*
X141802843Y-105344870D01*
X141797167Y-105388774D01*
X141764994Y-105420697D01*
X141717015Y-105429002D01*
X141702462Y-105425170D01*
X141669906Y-105395602D01*
X141661043Y-105350643D01*
X141680153Y-105304720D01*
X141687106Y-105297226D01*
X141728675Y-105278262D01*
X141770024Y-105292771D01*
G37*
G36*
X141438920Y-103778317D02*
G01*
X141469831Y-103820239D01*
X141470255Y-103866929D01*
X141440444Y-103903152D01*
X141387668Y-103917333D01*
X141375433Y-103917022D01*
X141336763Y-103905005D01*
X141318216Y-103868534D01*
X141315428Y-103832829D01*
X141329934Y-103790858D01*
X141346103Y-103776031D01*
X141392870Y-103762571D01*
X141438920Y-103778317D01*
G37*
G36*
X139520021Y-103960334D02*
G01*
X139562390Y-103985048D01*
X139570210Y-103997389D01*
X139576665Y-104044975D01*
X139559731Y-104092205D01*
X139524449Y-104121014D01*
X139489446Y-104125144D01*
X139443810Y-104107590D01*
X139414119Y-104070431D01*
X139407367Y-104024211D01*
X139430550Y-103979474D01*
X139467551Y-103959961D01*
X139520021Y-103960334D01*
G37*
G36*
X139217293Y-103980231D02*
G01*
X139242869Y-104021109D01*
X139241968Y-104073373D01*
X139235861Y-104086341D01*
X139199198Y-104116306D01*
X139149889Y-104126310D01*
X139106001Y-104111314D01*
X139083448Y-104076406D01*
X139079392Y-104024120D01*
X139100428Y-103979474D01*
X139128883Y-103960609D01*
X139175784Y-103957732D01*
X139217293Y-103980231D01*
G37*
G36*
X143647664Y-104912973D02*
G01*
X143680613Y-104928642D01*
X143689128Y-104965957D01*
X143688762Y-104976930D01*
X143675668Y-105008328D01*
X143635615Y-105020660D01*
X143592495Y-105015545D01*
X143565866Y-104985299D01*
X143570426Y-104935528D01*
X143587464Y-104916800D01*
X143635615Y-104911255D01*
X143647664Y-104912973D01*
G37*
G36*
X136956703Y-105480520D02*
G01*
X136988816Y-105517691D01*
X136995932Y-105571731D01*
X136990577Y-105593090D01*
X136969174Y-105611854D01*
X136921620Y-105616492D01*
X136888971Y-105614960D01*
X136858729Y-105602616D01*
X136847308Y-105571731D01*
X136848101Y-105539753D01*
X136864250Y-105498910D01*
X136880528Y-105484856D01*
X136921620Y-105470850D01*
X136956703Y-105480520D01*
G37*
G36*
X136925215Y-105082825D02*
G01*
X136956007Y-105101123D01*
X136985883Y-105134965D01*
X136999296Y-105167360D01*
X136998888Y-105174814D01*
X136979284Y-105213836D01*
X136940656Y-105233425D01*
X136897433Y-105230070D01*
X136864047Y-105200261D01*
X136847983Y-105166735D01*
X136849317Y-105141958D01*
X136874460Y-105112987D01*
X136895937Y-105094808D01*
X136921620Y-105082471D01*
X136925215Y-105082825D01*
G37*
G36*
X139925223Y-105292771D02*
G01*
X139955915Y-105337885D01*
X139958042Y-105344870D01*
X139952366Y-105388774D01*
X139920193Y-105420697D01*
X139872214Y-105429002D01*
X139857661Y-105425170D01*
X139825105Y-105395602D01*
X139816242Y-105350643D01*
X139835351Y-105304720D01*
X139842305Y-105297226D01*
X139883873Y-105278262D01*
X139925223Y-105292771D01*
G37*
G36*
X136964578Y-105292275D02*
G01*
X136990301Y-105330177D01*
X136991385Y-105383213D01*
X136974223Y-105417963D01*
X136934844Y-105432012D01*
X136887813Y-105421094D01*
X136853132Y-105388204D01*
X136844389Y-105344140D01*
X136867247Y-105299963D01*
X136880049Y-105289256D01*
X136924424Y-105276353D01*
X136964578Y-105292275D01*
G37*
G36*
X143101085Y-105689099D02*
G01*
X143126661Y-105729978D01*
X143125760Y-105782242D01*
X143119653Y-105795210D01*
X143082990Y-105825174D01*
X143033682Y-105835179D01*
X142989793Y-105820182D01*
X142967240Y-105785275D01*
X142963184Y-105732988D01*
X142984220Y-105688343D01*
X143012676Y-105669478D01*
X143059576Y-105666601D01*
X143101085Y-105689099D01*
G37*
G36*
X139723992Y-103962857D02*
G01*
X139761420Y-103992853D01*
X139777024Y-104036081D01*
X139767642Y-104080466D01*
X139730116Y-104113937D01*
X139680216Y-104122879D01*
X139635180Y-104105719D01*
X139606077Y-104069915D01*
X139600174Y-104024742D01*
X139624740Y-103979474D01*
X139644259Y-103966688D01*
X139688822Y-103956171D01*
X139723992Y-103962857D01*
G37*
G36*
X138607315Y-103771651D02*
G01*
X138639428Y-103808822D01*
X138646544Y-103862862D01*
X138641188Y-103884221D01*
X138619786Y-103902986D01*
X138572232Y-103907624D01*
X138539583Y-103906091D01*
X138509341Y-103893748D01*
X138497920Y-103862862D01*
X138498713Y-103830884D01*
X138514862Y-103790041D01*
X138531140Y-103775987D01*
X138572232Y-103761982D01*
X138607315Y-103771651D01*
G37*
G36*
X140308641Y-105094258D02*
G01*
X140330831Y-105117792D01*
X140339372Y-105160983D01*
X140331579Y-105204968D01*
X140307589Y-105231813D01*
X140277602Y-105236462D01*
X140238032Y-105220229D01*
X140213018Y-105185687D01*
X140209433Y-105144424D01*
X140234153Y-105108028D01*
X140261818Y-105088487D01*
X140280491Y-105084449D01*
X140308641Y-105094258D01*
G37*
G36*
X135980898Y-107267770D02*
G01*
X136018124Y-107151403D01*
X136085560Y-107058930D01*
X136183960Y-106989115D01*
X136250281Y-106963584D01*
X136352100Y-106950029D01*
X136450707Y-106962905D01*
X136533056Y-107001741D01*
X136560630Y-107021627D01*
X136593506Y-107040253D01*
X136607799Y-107034592D01*
X136610917Y-107004948D01*
X136610950Y-107002158D01*
X136617870Y-106979203D01*
X136643693Y-106968651D01*
X136698302Y-106966110D01*
X136785688Y-106966110D01*
X136785688Y-108111829D01*
X136610917Y-108111829D01*
X136610917Y-107709313D01*
X136520241Y-107755219D01*
X136438858Y-107785787D01*
X136325836Y-107796892D01*
X136217518Y-107774837D01*
X136120732Y-107722420D01*
X136042312Y-107642438D01*
X135989088Y-107537690D01*
X135979227Y-107489991D01*
X135972954Y-107414454D01*
X135973224Y-107369971D01*
X136131515Y-107369971D01*
X136144157Y-107463587D01*
X136180479Y-107544240D01*
X136235735Y-107606753D01*
X136305185Y-107645954D01*
X136384085Y-107656666D01*
X136467692Y-107633715D01*
X136479056Y-107627622D01*
X136536315Y-107584155D01*
X136578634Y-107533339D01*
X136605197Y-107466713D01*
X136615525Y-107372278D01*
X136601703Y-107277328D01*
X136565732Y-107193480D01*
X136509612Y-107132350D01*
X136497685Y-107125542D01*
X136442264Y-107108681D01*
X136375058Y-107102043D01*
X136340198Y-107104124D01*
X136251855Y-107132695D01*
X136185134Y-107192452D01*
X136143891Y-107280418D01*
X136131515Y-107369971D01*
X135973224Y-107369971D01*
X135973442Y-107334134D01*
X135980898Y-107267770D01*
G37*
G36*
X140646306Y-103771651D02*
G01*
X140678418Y-103808822D01*
X140685534Y-103862862D01*
X140680179Y-103884221D01*
X140658776Y-103902986D01*
X140611223Y-103907624D01*
X140578574Y-103906091D01*
X140548332Y-103893748D01*
X140536911Y-103862862D01*
X140537704Y-103830884D01*
X140553853Y-103790041D01*
X140570131Y-103775987D01*
X140611223Y-103761982D01*
X140646306Y-103771651D01*
G37*
G36*
X141019575Y-105097591D02*
G01*
X141060517Y-105120276D01*
X141077278Y-105158452D01*
X141066568Y-105196632D01*
X141030238Y-105226907D01*
X140981115Y-105228409D01*
X140978499Y-105227490D01*
X140950228Y-105200666D01*
X140939808Y-105159352D01*
X140947941Y-105119485D01*
X140975328Y-105097000D01*
X141019575Y-105097591D01*
G37*
G36*
X136185059Y-103775151D02*
G01*
X136213352Y-103813248D01*
X136214330Y-103869715D01*
X136206391Y-103893645D01*
X136184448Y-103913018D01*
X136139341Y-103913659D01*
X136110586Y-103909356D01*
X136081489Y-103891793D01*
X136070486Y-103851474D01*
X136072698Y-103809231D01*
X136089905Y-103778950D01*
X136139086Y-103762450D01*
X136185059Y-103775151D01*
G37*
G36*
X143668112Y-105481093D02*
G01*
X143702109Y-105518823D01*
X143714061Y-105562483D01*
X143699315Y-105596498D01*
X143696938Y-105599258D01*
X143654491Y-105625094D01*
X143609545Y-105622488D01*
X143572420Y-105598007D01*
X143553433Y-105558218D01*
X143562905Y-105509688D01*
X143579420Y-105488652D01*
X143622370Y-105470718D01*
X143668112Y-105481093D01*
G37*
G36*
X139006036Y-103965683D02*
G01*
X139036015Y-103999140D01*
X139045735Y-104046788D01*
X139031134Y-104096137D01*
X138987167Y-104123613D01*
X138963146Y-104126350D01*
X138916892Y-104110389D01*
X138887684Y-104072921D01*
X138881980Y-104025449D01*
X138906238Y-103979474D01*
X138914117Y-103972602D01*
X138959948Y-103956011D01*
X139006036Y-103965683D01*
G37*
G36*
X136364110Y-104524585D02*
G01*
X136390381Y-104548697D01*
X136389281Y-104584280D01*
X136364229Y-104620100D01*
X136326355Y-104635835D01*
X136302572Y-104626438D01*
X136284265Y-104592467D01*
X136287817Y-104548450D01*
X136292995Y-104539267D01*
X136325041Y-104521426D01*
X136364110Y-104524585D01*
G37*
G36*
X136172402Y-105094258D02*
G01*
X136194593Y-105117792D01*
X136203134Y-105160983D01*
X136195341Y-105204968D01*
X136171351Y-105231813D01*
X136141363Y-105236462D01*
X136101794Y-105220229D01*
X136076779Y-105185687D01*
X136073195Y-105144424D01*
X136097914Y-105108028D01*
X136125580Y-105088487D01*
X136144253Y-105084449D01*
X136172402Y-105094258D01*
G37*
G36*
X141039641Y-104914706D02*
G01*
X141067774Y-104946507D01*
X141064881Y-104995086D01*
X141047144Y-105013500D01*
X141006624Y-105024214D01*
X140973607Y-105017209D01*
X140945475Y-104985408D01*
X140948367Y-104936829D01*
X140966105Y-104918414D01*
X141006624Y-104907700D01*
X141039641Y-104914706D01*
G37*
G36*
X140114088Y-103964054D02*
G01*
X140149955Y-103995235D01*
X140164587Y-104045063D01*
X140153001Y-104089702D01*
X140114836Y-104121394D01*
X140059329Y-104123356D01*
X140016105Y-104097951D01*
X139996390Y-104051278D01*
X140008842Y-103995743D01*
X140026818Y-103972885D01*
X140069028Y-103955332D01*
X140114088Y-103964054D01*
G37*
G36*
X142549364Y-105480520D02*
G01*
X142581476Y-105517691D01*
X142588593Y-105571731D01*
X142583237Y-105593090D01*
X142561835Y-105611854D01*
X142514281Y-105616492D01*
X142481632Y-105614960D01*
X142451390Y-105602616D01*
X142439969Y-105571731D01*
X142440762Y-105539753D01*
X142456911Y-105498910D01*
X142473189Y-105484856D01*
X142514281Y-105470850D01*
X142549364Y-105480520D01*
G37*
G36*
X140655848Y-103966696D02*
G01*
X140675286Y-103986488D01*
X140679189Y-104031731D01*
X140677146Y-104058536D01*
X140657291Y-104107900D01*
X140621746Y-104130028D01*
X140577240Y-104119150D01*
X140552799Y-104093297D01*
X140535188Y-104039585D01*
X140541587Y-103982647D01*
X140562042Y-103963644D01*
X140615944Y-103959786D01*
X140655848Y-103966696D01*
G37*
G36*
X139927675Y-105105774D02*
G01*
X139934471Y-105113584D01*
X139950715Y-105157674D01*
X139942228Y-105201403D01*
X139911208Y-105228409D01*
X139878120Y-105231519D01*
X139839817Y-105213011D01*
X139818321Y-105177699D01*
X139819452Y-105137278D01*
X139849029Y-105103445D01*
X139875634Y-105089223D01*
X139902063Y-105085986D01*
X139927675Y-105105774D01*
G37*
G36*
X142554395Y-105296763D02*
G01*
X142584485Y-105324369D01*
X142591646Y-105363305D01*
X142573837Y-105399703D01*
X142536582Y-105423367D01*
X142485405Y-105424101D01*
X142474296Y-105420294D01*
X142442314Y-105389075D01*
X142436526Y-105344135D01*
X142459908Y-105299963D01*
X142476247Y-105286047D01*
X142508550Y-105278493D01*
X142554395Y-105296763D01*
G37*
G36*
X143662343Y-104720601D02*
G01*
X143689400Y-104752661D01*
X143686441Y-104800896D01*
X143670290Y-104818700D01*
X143630871Y-104830025D01*
X143599399Y-104822934D01*
X143572342Y-104790875D01*
X143575301Y-104742639D01*
X143591452Y-104724836D01*
X143630871Y-104713511D01*
X143662343Y-104720601D01*
G37*
G36*
X136959495Y-104731764D02*
G01*
X136970168Y-104771768D01*
X136961096Y-104809768D01*
X136926388Y-104826532D01*
X136889850Y-104820708D01*
X136866586Y-104789353D01*
X136870908Y-104741277D01*
X136885426Y-104724057D01*
X136926388Y-104717004D01*
X136959495Y-104731764D01*
G37*
G36*
X138627189Y-105682009D02*
G01*
X138642257Y-105702443D01*
X138646468Y-105746742D01*
X138633641Y-105794270D01*
X138606215Y-105828043D01*
X138582930Y-105837220D01*
X138542070Y-105829293D01*
X138510324Y-105796520D01*
X138494679Y-105747982D01*
X138502120Y-105692756D01*
X138504699Y-105687785D01*
X138535579Y-105669296D01*
X138582163Y-105666876D01*
X138627189Y-105682009D01*
G37*
G36*
X143074341Y-104537139D02*
G01*
X143093357Y-104572810D01*
X143091917Y-104600994D01*
X143067577Y-104628868D01*
X143058016Y-104631407D01*
X143019741Y-104622076D01*
X142993334Y-104590767D01*
X142991803Y-104550871D01*
X143006379Y-104530901D01*
X143040245Y-104522067D01*
X143074341Y-104537139D01*
G37*
G36*
X137666625Y-103204104D02*
G01*
X137699573Y-103219773D01*
X137708088Y-103257089D01*
X137707722Y-103268062D01*
X137694628Y-103299460D01*
X137654576Y-103311791D01*
X137611455Y-103306677D01*
X137584827Y-103276430D01*
X137589386Y-103226660D01*
X137606424Y-103207932D01*
X137654576Y-103202386D01*
X137666625Y-103204104D01*
G37*
G36*
X139212171Y-105304720D02*
G01*
X139221633Y-105318885D01*
X139230986Y-105365576D01*
X139215076Y-105407121D01*
X139178006Y-105428648D01*
X139122601Y-105423122D01*
X139088576Y-105394602D01*
X139081722Y-105352730D01*
X139107640Y-105307176D01*
X139127089Y-105290849D01*
X139171823Y-105278636D01*
X139212171Y-105304720D01*
G37*
G36*
X139705615Y-104912973D02*
G01*
X139738564Y-104928642D01*
X139747079Y-104965957D01*
X139746713Y-104976930D01*
X139733619Y-105008328D01*
X139693566Y-105020660D01*
X139650446Y-105015545D01*
X139623817Y-104985299D01*
X139628377Y-104935528D01*
X139645415Y-104916800D01*
X139693566Y-104911255D01*
X139705615Y-104912973D01*
G37*
G36*
X140850837Y-105674552D02*
G01*
X140880816Y-105708008D01*
X140890536Y-105755656D01*
X140875935Y-105805006D01*
X140831968Y-105832482D01*
X140807947Y-105835219D01*
X140761693Y-105819258D01*
X140732485Y-105781790D01*
X140726781Y-105734317D01*
X140751039Y-105688343D01*
X140758919Y-105681471D01*
X140804750Y-105664879D01*
X140850837Y-105674552D01*
G37*
G36*
X139520021Y-105669202D02*
G01*
X139562390Y-105693916D01*
X139570210Y-105706257D01*
X139576665Y-105753843D01*
X139559731Y-105801074D01*
X139524449Y-105829883D01*
X139489446Y-105834012D01*
X139443810Y-105816458D01*
X139414119Y-105779300D01*
X139407367Y-105733080D01*
X139430550Y-105688343D01*
X139467551Y-105668830D01*
X139520021Y-105669202D01*
G37*
G36*
X137511667Y-106972773D02*
G01*
X137603874Y-107007885D01*
X137657324Y-107040278D01*
X137686312Y-107069359D01*
X137686718Y-107099157D01*
X137662311Y-107138069D01*
X137627164Y-107183804D01*
X137547031Y-107142924D01*
X137476409Y-107115642D01*
X137375964Y-107103629D01*
X137281997Y-107120964D01*
X137202604Y-107165765D01*
X137145881Y-107236153D01*
X137144275Y-107239288D01*
X137124117Y-107284592D01*
X137115810Y-107314687D01*
X137115889Y-107315314D01*
X137137582Y-107323874D01*
X137197147Y-107330058D01*
X137293738Y-107333808D01*
X137426513Y-107335070D01*
X137737217Y-107335070D01*
X137736790Y-107417601D01*
X137723982Y-107508040D01*
X137682997Y-107607084D01*
X137620141Y-107693340D01*
X137541921Y-107758147D01*
X137454844Y-107792847D01*
X137434988Y-107796178D01*
X137306368Y-107797875D01*
X137191118Y-107765863D01*
X137093668Y-107703829D01*
X137018447Y-107615462D01*
X136969887Y-107504451D01*
X136965391Y-107471003D01*
X137114813Y-107471003D01*
X137144768Y-107528931D01*
X137146098Y-107531456D01*
X137199631Y-107594547D01*
X137273141Y-107633643D01*
X137355842Y-107646950D01*
X137436951Y-107632671D01*
X137505683Y-107589011D01*
X137517324Y-107576718D01*
X137549517Y-107533955D01*
X137562446Y-107501625D01*
X137558006Y-107488949D01*
X137539631Y-107479821D01*
X137501089Y-107474355D01*
X137436161Y-107471699D01*
X137338629Y-107471003D01*
X137114813Y-107471003D01*
X136965391Y-107471003D01*
X136952416Y-107374485D01*
X136954117Y-107328489D01*
X136980566Y-107203537D01*
X137037265Y-107099666D01*
X137121942Y-107020173D01*
X137232324Y-106968354D01*
X137293557Y-106956276D01*
X137402113Y-106954919D01*
X137511667Y-106972773D01*
G37*
G36*
X142864377Y-105097591D02*
G01*
X142905318Y-105120276D01*
X142922079Y-105158452D01*
X142911369Y-105196632D01*
X142875040Y-105226907D01*
X142825916Y-105228409D01*
X142823301Y-105227490D01*
X142795029Y-105200666D01*
X142784609Y-105159352D01*
X142792742Y-105119485D01*
X142820129Y-105097000D01*
X142864377Y-105097591D01*
G37*
G36*
X136196054Y-104355397D02*
G01*
X136223021Y-104394369D01*
X136226965Y-104406105D01*
X136229104Y-104463913D01*
X136201277Y-104504196D01*
X136148062Y-104519321D01*
X136108484Y-104514427D01*
X136063429Y-104485234D01*
X136047767Y-104431936D01*
X136051614Y-104405712D01*
X136071070Y-104367853D01*
X136100561Y-104352350D01*
X136149226Y-104344551D01*
X136196054Y-104355397D01*
G37*
G36*
X136765305Y-104537575D02*
G01*
X136775978Y-104577578D01*
X136766907Y-104615578D01*
X136732199Y-104632342D01*
X136695661Y-104626518D01*
X136672397Y-104595164D01*
X136676719Y-104547088D01*
X136691236Y-104529867D01*
X136732199Y-104522814D01*
X136765305Y-104537575D01*
G37*
G36*
X141039759Y-105288049D02*
G01*
X141068333Y-105322002D01*
X141073914Y-105377541D01*
X141069868Y-105392025D01*
X141040000Y-105422483D01*
X140995082Y-105430410D01*
X140949986Y-105411706D01*
X140934494Y-105395591D01*
X140924328Y-105353201D01*
X140952442Y-105307176D01*
X140997862Y-105281283D01*
X141039759Y-105288049D01*
G37*
G36*
X136782388Y-105682009D02*
G01*
X136797456Y-105702443D01*
X136801666Y-105746742D01*
X136788839Y-105794270D01*
X136761414Y-105828043D01*
X136738129Y-105837220D01*
X136697268Y-105829293D01*
X136665522Y-105796520D01*
X136649877Y-105747982D01*
X136657319Y-105692756D01*
X136659898Y-105687785D01*
X136690778Y-105669296D01*
X136737361Y-105666876D01*
X136782388Y-105682009D01*
G37*
G36*
X141791896Y-105688343D02*
G01*
X141793719Y-105690237D01*
X141813807Y-105735398D01*
X141807038Y-105784927D01*
X141775627Y-105820784D01*
X141755985Y-105829142D01*
X141703424Y-105830548D01*
X141664146Y-105804593D01*
X141646655Y-105759780D01*
X141659454Y-105704611D01*
X141660695Y-105702402D01*
X141697710Y-105672220D01*
X141747456Y-105666795D01*
X141791896Y-105688343D01*
G37*
G36*
X143268531Y-104537139D02*
G01*
X143287546Y-104572810D01*
X143286106Y-104600994D01*
X143261767Y-104628868D01*
X143252206Y-104631407D01*
X143213930Y-104622076D01*
X143187523Y-104590767D01*
X143185993Y-104550871D01*
X143200568Y-104530901D01*
X143234434Y-104522067D01*
X143268531Y-104537139D01*
G37*
G36*
X139947094Y-105688343D02*
G01*
X139948918Y-105690237D01*
X139969006Y-105735398D01*
X139962237Y-105784927D01*
X139930826Y-105820784D01*
X139911184Y-105829142D01*
X139858622Y-105830548D01*
X139819344Y-105804593D01*
X139801853Y-105759780D01*
X139814653Y-105704611D01*
X139815894Y-105702402D01*
X139852909Y-105672220D01*
X139902655Y-105666795D01*
X139947094Y-105688343D01*
G37*
G36*
X141428138Y-103579180D02*
G01*
X141456712Y-103613133D01*
X141462293Y-103668673D01*
X141451930Y-103694832D01*
X141417305Y-103718749D01*
X141373537Y-103718784D01*
X141335667Y-103692148D01*
X141317347Y-103663571D01*
X141314349Y-103632408D01*
X141340821Y-103598308D01*
X141386241Y-103572415D01*
X141428138Y-103579180D01*
G37*
G36*
X138618361Y-104161507D02*
G01*
X138650391Y-104200180D01*
X138654657Y-104212931D01*
X138656512Y-104270963D01*
X138627307Y-104310514D01*
X138571132Y-104325132D01*
X138545707Y-104322098D01*
X138500507Y-104294700D01*
X138480914Y-104247613D01*
X138493241Y-104191655D01*
X138523022Y-104160515D01*
X138570953Y-104148017D01*
X138618361Y-104161507D01*
G37*
G36*
X138583019Y-103568478D02*
G01*
X138624572Y-103588881D01*
X138644331Y-103628096D01*
X138639233Y-103673196D01*
X138606215Y-103711254D01*
X138579026Y-103721275D01*
X138538181Y-103712369D01*
X138508341Y-103681572D01*
X138497774Y-103639305D01*
X138514749Y-103595988D01*
X138531188Y-103581798D01*
X138572232Y-103567792D01*
X138583019Y-103568478D01*
G37*
G36*
X138578370Y-103375011D02*
G01*
X138606908Y-103393560D01*
X138636357Y-103421728D01*
X138649908Y-103444233D01*
X138638575Y-103478234D01*
X138608702Y-103513372D01*
X138575432Y-103528954D01*
X138541480Y-103523026D01*
X138506396Y-103493758D01*
X138499371Y-103450266D01*
X138525072Y-103404118D01*
X138546549Y-103385939D01*
X138572232Y-103373603D01*
X138578370Y-103375011D01*
G37*
G36*
X139174774Y-105097591D02*
G01*
X139215715Y-105120276D01*
X139232477Y-105158452D01*
X139221767Y-105196632D01*
X139185437Y-105226907D01*
X139136314Y-105228409D01*
X139133698Y-105227490D01*
X139105427Y-105200666D01*
X139095007Y-105159352D01*
X139103139Y-105119485D01*
X139130527Y-105097000D01*
X139174774Y-105097591D01*
G37*
G36*
X140261681Y-107532248D02*
G01*
X140318445Y-107589011D01*
X140350945Y-107617684D01*
X140398644Y-107640056D01*
X140464087Y-107645774D01*
X140471709Y-107645716D01*
X140543759Y-107635887D01*
X140591804Y-107606936D01*
X140594560Y-107604121D01*
X140608661Y-107585809D01*
X140618544Y-107560968D01*
X140624944Y-107523139D01*
X140628602Y-107465860D01*
X140630255Y-107382668D01*
X140630642Y-107267104D01*
X140630642Y-106966110D01*
X140808686Y-106966110D01*
X140802194Y-107291378D01*
X140799383Y-107409011D01*
X140795632Y-107502002D01*
X140790344Y-107568956D01*
X140782766Y-107616458D01*
X140772142Y-107651093D01*
X140757718Y-107679443D01*
X140736152Y-107709578D01*
X140665523Y-107766727D01*
X140578363Y-107795670D01*
X140482467Y-107795921D01*
X140385635Y-107766990D01*
X140295665Y-107708389D01*
X140277215Y-107693570D01*
X140264188Y-107695118D01*
X140261681Y-107730149D01*
X140261281Y-107746095D01*
X140253639Y-107769996D01*
X140228133Y-107779808D01*
X140174296Y-107781707D01*
X140086911Y-107781707D01*
X140086911Y-106966110D01*
X140261681Y-106966110D01*
X140261681Y-107532248D01*
G37*
G36*
X136758178Y-104909485D02*
G01*
X136780876Y-104924694D01*
X136785688Y-104965957D01*
X136783903Y-104996705D01*
X136768694Y-105019402D01*
X136727431Y-105024214D01*
X136696683Y-105022429D01*
X136673986Y-105007221D01*
X136669174Y-104965957D01*
X136670959Y-104935210D01*
X136686167Y-104912512D01*
X136727431Y-104907700D01*
X136758178Y-104909485D01*
G37*
G36*
X136762514Y-103771651D02*
G01*
X136794626Y-103808822D01*
X136801742Y-103862862D01*
X136796387Y-103884221D01*
X136774984Y-103902986D01*
X136727431Y-103907624D01*
X136694782Y-103906091D01*
X136664540Y-103893748D01*
X136653119Y-103862862D01*
X136653912Y-103830884D01*
X136670061Y-103790041D01*
X136686339Y-103775987D01*
X136727431Y-103761982D01*
X136762514Y-103771651D01*
G37*
G36*
X138844097Y-107781707D02*
G01*
X138669327Y-107781707D01*
X138669327Y-106966110D01*
X138844097Y-106966110D01*
X138844097Y-107781707D01*
G37*
G36*
X141035254Y-102828900D02*
G01*
X141054366Y-102863942D01*
X141055035Y-102878142D01*
X141039272Y-102912752D01*
X141005448Y-102922541D01*
X140966312Y-102901999D01*
X140950838Y-102878259D01*
X140948312Y-102839725D01*
X140965385Y-102818819D01*
X141000466Y-102812688D01*
X141035254Y-102828900D01*
G37*
G36*
X143274993Y-105673200D02*
G01*
X143310851Y-105704611D01*
X143319209Y-105724253D01*
X143320615Y-105776814D01*
X143294660Y-105816092D01*
X143249846Y-105833583D01*
X143194678Y-105820784D01*
X143192469Y-105819543D01*
X143162287Y-105782528D01*
X143156861Y-105732782D01*
X143178409Y-105688343D01*
X143180304Y-105686519D01*
X143225465Y-105666431D01*
X143274993Y-105673200D01*
G37*
G36*
X136536940Y-104912314D02*
G01*
X136573727Y-104928909D01*
X136587933Y-104970812D01*
X136589430Y-104999247D01*
X136576807Y-105019872D01*
X136536609Y-105024214D01*
X136493316Y-105015884D01*
X136464560Y-104984755D01*
X136468365Y-104935778D01*
X136484842Y-104917569D01*
X136530867Y-104911505D01*
X136536940Y-104912314D01*
G37*
G36*
X143462070Y-105669202D02*
G01*
X143504439Y-105693916D01*
X143512259Y-105706257D01*
X143518714Y-105753843D01*
X143501780Y-105801074D01*
X143466498Y-105829883D01*
X143431495Y-105834012D01*
X143385859Y-105816458D01*
X143356168Y-105779300D01*
X143349416Y-105733080D01*
X143372599Y-105688343D01*
X143409600Y-105668830D01*
X143462070Y-105669202D01*
G37*
G36*
X132776544Y-103083814D02*
G01*
X132966565Y-103084495D01*
X133150092Y-103085666D01*
X133323082Y-103087322D01*
X133481493Y-103089459D01*
X133621282Y-103092072D01*
X133738406Y-103095158D01*
X133828823Y-103098713D01*
X133888490Y-103102731D01*
X133913364Y-103107209D01*
X133934688Y-103127280D01*
X133973837Y-103189986D01*
X133989357Y-103257306D01*
X133989290Y-103260107D01*
X133970845Y-103310202D01*
X133928072Y-103359645D01*
X133873144Y-103397403D01*
X133818232Y-103412440D01*
X133768360Y-103421866D01*
X133714788Y-103449586D01*
X133687063Y-103479022D01*
X133673136Y-103519529D01*
X133670328Y-103583883D01*
X133670997Y-103603086D01*
X133677426Y-103655724D01*
X133692156Y-103711665D01*
X133717169Y-103774298D01*
X133754444Y-103847015D01*
X133805962Y-103933204D01*
X133873702Y-104036255D01*
X133959645Y-104159559D01*
X134065771Y-104306505D01*
X134194059Y-104480483D01*
X134261482Y-104574255D01*
X134405465Y-104801422D01*
X134513733Y-105017128D01*
X134586229Y-105220966D01*
X134622897Y-105412529D01*
X134623682Y-105591413D01*
X134588528Y-105757210D01*
X134517377Y-105909514D01*
X134410175Y-106047920D01*
X134376974Y-106083835D01*
X134350451Y-106119888D01*
X134344350Y-106147677D01*
X134354023Y-106177971D01*
X134376319Y-106214523D01*
X134429004Y-106257996D01*
X134508654Y-106287967D01*
X134620772Y-106307099D01*
X134650272Y-106310802D01*
X134772043Y-106337729D01*
X134882623Y-106385105D01*
X134971202Y-106439777D01*
X135063062Y-106511603D01*
X135144954Y-106590316D01*
X135210890Y-106669467D01*
X135254880Y-106742606D01*
X135270936Y-106803285D01*
X135268927Y-106821932D01*
X135242188Y-106879104D01*
X135193506Y-106928356D01*
X135134613Y-106956502D01*
X135110156Y-106964142D01*
X135078470Y-106983408D01*
X135044703Y-107017443D01*
X135004876Y-107071158D01*
X134955013Y-107149468D01*
X134891137Y-107257285D01*
X134776976Y-107426869D01*
X134644142Y-107569365D01*
X134496808Y-107676760D01*
X134334044Y-107749876D01*
X134328653Y-107752039D01*
X134316055Y-107763705D01*
X134307761Y-107788301D01*
X134302907Y-107832301D01*
X134300628Y-107902181D01*
X134300061Y-108004415D01*
X134299367Y-108082125D01*
X134295726Y-108172853D01*
X134289109Y-108228711D01*
X134279677Y-108247762D01*
X134269091Y-108246938D01*
X134211749Y-108224097D01*
X134143560Y-108174575D01*
X134070537Y-108104625D01*
X133998694Y-108020505D01*
X133934047Y-107928468D01*
X133882608Y-107834769D01*
X133864885Y-107797667D01*
X133827079Y-107730335D01*
X133790425Y-107686644D01*
X133747686Y-107657060D01*
X133708009Y-107631063D01*
X133647673Y-107581708D01*
X133589501Y-107525362D01*
X133578864Y-107513749D01*
X133483989Y-107382308D01*
X133412653Y-107224890D01*
X133364067Y-107039302D01*
X133337444Y-106823350D01*
X133333462Y-106776624D01*
X133313899Y-106655790D01*
X133279516Y-106546463D01*
X133227264Y-106444981D01*
X133154092Y-106347679D01*
X133056949Y-106250893D01*
X132932785Y-106150959D01*
X132778550Y-106044213D01*
X132591192Y-105926991D01*
X132454384Y-105840540D01*
X132233930Y-105679698D01*
X132043841Y-105508298D01*
X131878680Y-105320549D01*
X131733008Y-105110660D01*
X131601389Y-104872840D01*
X131578152Y-104825195D01*
X131494317Y-104628153D01*
X131439555Y-104448466D01*
X131412293Y-104281215D01*
X131401734Y-104199641D01*
X131384161Y-104142723D01*
X131356180Y-104101590D01*
X131349311Y-104094557D01*
X131289339Y-104058979D01*
X131225489Y-104060652D01*
X131164303Y-104099644D01*
X131159694Y-104104413D01*
X131125358Y-104156239D01*
X131104837Y-104226750D01*
X131096993Y-104322190D01*
X131100686Y-104448805D01*
X131111601Y-104547358D01*
X131133828Y-104648012D01*
X131169659Y-104754725D01*
X131221529Y-104873741D01*
X131291871Y-105011308D01*
X131383118Y-105173672D01*
X131406815Y-105214818D01*
X131497165Y-105378944D01*
X131567812Y-105522915D01*
X131621991Y-105655389D01*
X131662936Y-105785024D01*
X131693881Y-105920481D01*
X131718059Y-106070416D01*
X131722539Y-106105252D01*
X131733626Y-106267925D01*
X131722932Y-106405709D01*
X131688532Y-106525903D01*
X131628504Y-106635805D01*
X131540925Y-106742714D01*
X131499609Y-106783871D01*
X131377349Y-106877054D01*
X131248550Y-106933232D01*
X131110616Y-106953678D01*
X131037761Y-106952128D01*
X130975047Y-106940011D01*
X130920422Y-106913579D01*
X130900683Y-106900283D01*
X130826980Y-106824675D01*
X130782192Y-106731154D01*
X130767715Y-106627767D01*
X130784949Y-106522560D01*
X130835290Y-106423580D01*
X130850321Y-106402759D01*
X130896608Y-106338401D01*
X130936296Y-106282919D01*
X130980689Y-106207089D01*
X131028751Y-106071005D01*
X131057144Y-105903702D01*
X131066161Y-105703878D01*
X131065854Y-105647384D01*
X131063549Y-105555028D01*
X131057236Y-105481376D01*
X131044800Y-105412947D01*
X131024129Y-105336256D01*
X130993109Y-105237823D01*
X130975059Y-105182143D01*
X130921856Y-105017418D01*
X130879173Y-104883072D01*
X130845859Y-104774055D01*
X130820761Y-104685318D01*
X130802727Y-104611812D01*
X130790605Y-104548486D01*
X130783242Y-104490292D01*
X130779486Y-104432180D01*
X130778185Y-104369100D01*
X130778186Y-104296003D01*
X130778187Y-104295915D01*
X130780581Y-104166713D01*
X130787633Y-104063895D01*
X130800629Y-103975159D01*
X130820857Y-103888205D01*
X130832116Y-103848342D01*
X130897218Y-103667396D01*
X130979142Y-103503413D01*
X131074602Y-103360767D01*
X131180313Y-103243834D01*
X131292988Y-103156986D01*
X131409344Y-103104600D01*
X131441162Y-103100400D01*
X131507710Y-103096488D01*
X131604147Y-103093102D01*
X131726432Y-103090240D01*
X131870522Y-103087896D01*
X132032373Y-103086067D01*
X132207943Y-103084749D01*
X132393190Y-103083937D01*
X132584071Y-103083627D01*
X132776544Y-103083814D01*
G37*
G36*
X142180275Y-105688343D02*
G01*
X142199788Y-105725344D01*
X142199415Y-105777814D01*
X142174701Y-105820182D01*
X142133577Y-105838164D01*
X142089436Y-105828991D01*
X142054978Y-105797478D01*
X142038901Y-105751952D01*
X142049906Y-105700738D01*
X142051966Y-105697230D01*
X142088304Y-105670800D01*
X142137216Y-105667254D01*
X142180275Y-105688343D01*
G37*
G36*
X140335473Y-105688343D02*
G01*
X140354986Y-105725344D01*
X140354614Y-105777814D01*
X140329900Y-105820182D01*
X140288776Y-105838164D01*
X140244635Y-105828991D01*
X140210176Y-105797478D01*
X140194100Y-105751952D01*
X140205105Y-105700738D01*
X140207165Y-105697230D01*
X140243503Y-105670800D01*
X140292415Y-105667254D01*
X140335473Y-105688343D01*
G37*
G36*
X140113096Y-104920706D02*
G01*
X140140130Y-104951441D01*
X140140252Y-104989816D01*
X140110191Y-105022148D01*
X140090488Y-105029573D01*
X140047260Y-105024598D01*
X140019352Y-104994619D01*
X140018232Y-104948784D01*
X140019030Y-104946345D01*
X140040917Y-104915610D01*
X140083723Y-104911426D01*
X140113096Y-104920706D01*
G37*
G36*
X137472435Y-104912973D02*
G01*
X137505384Y-104928642D01*
X137513899Y-104965957D01*
X137513532Y-104976930D01*
X137500438Y-105008328D01*
X137460386Y-105020660D01*
X137417265Y-105015545D01*
X137390637Y-104985299D01*
X137395197Y-104935528D01*
X137412234Y-104916800D01*
X137460386Y-104911255D01*
X137472435Y-104912973D01*
G37*
%TD*%
M02*
