%TF.GenerationSoftware,KiCad,Pcbnew,(6.0.0-0)*%
%TF.CreationDate,2022-01-22T21:55:44+01:00*%
%TF.ProjectId,GlowCore,476c6f77-436f-4726-952e-6b696361645f,rev?*%
%TF.SameCoordinates,Original*%
%TF.FileFunction,Soldermask,Bot*%
%TF.FilePolarity,Negative*%
%FSLAX46Y46*%
G04 Gerber Fmt 4.6, Leading zero omitted, Abs format (unit mm)*
G04 Created by KiCad (PCBNEW (6.0.0-0)) date 2022-01-22 21:55:44*
%MOMM*%
%LPD*%
G01*
G04 APERTURE LIST*
G04 Aperture macros list*
%AMRoundRect*
0 Rectangle with rounded corners*
0 $1 Rounding radius*
0 $2 $3 $4 $5 $6 $7 $8 $9 X,Y pos of 4 corners*
0 Add a 4 corners polygon primitive as box body*
4,1,4,$2,$3,$4,$5,$6,$7,$8,$9,$2,$3,0*
0 Add four circle primitives for the rounded corners*
1,1,$1+$1,$2,$3*
1,1,$1+$1,$4,$5*
1,1,$1+$1,$6,$7*
1,1,$1+$1,$8,$9*
0 Add four rect primitives between the rounded corners*
20,1,$1+$1,$2,$3,$4,$5,0*
20,1,$1+$1,$4,$5,$6,$7,0*
20,1,$1+$1,$6,$7,$8,$9,0*
20,1,$1+$1,$8,$9,$2,$3,0*%
G04 Aperture macros list end*
%ADD10C,0.300000*%
%ADD11O,2.200000X1.100000*%
%ADD12RoundRect,0.250000X-0.725000X0.600000X-0.725000X-0.600000X0.725000X-0.600000X0.725000X0.600000X0*%
%ADD13O,1.950000X1.700000*%
%ADD14R,1.700000X1.700000*%
%ADD15O,1.700000X1.700000*%
%ADD16C,6.400000*%
%ADD17R,1.378000X1.378000*%
%ADD18C,1.378000*%
%ADD19C,3.200000*%
G04 APERTURE END LIST*
D10*
%TO.C,U7*%
X148017400Y-99156800D03*
X146182400Y-99156800D03*
X148934900Y-98239300D03*
X147099900Y-98239300D03*
X145264900Y-98239300D03*
X148017400Y-97321800D03*
X146182400Y-97321800D03*
X148934900Y-96404300D03*
X147099900Y-96404300D03*
X145264900Y-96404300D03*
X148017400Y-95486800D03*
X146182400Y-95486800D03*
%TD*%
D11*
%TO.C,J2*%
X180467000Y-114429000D03*
X180467000Y-105789000D03*
X176667000Y-114429000D03*
X176667000Y-105789000D03*
%TD*%
D12*
%TO.C,LED3*%
X123825000Y-100330000D03*
D13*
X123825000Y-102830000D03*
X123825000Y-105330000D03*
%TD*%
D14*
%TO.C,JP2*%
X168710000Y-135001000D03*
D15*
X166170000Y-135001000D03*
X163630000Y-135001000D03*
X161090000Y-135001000D03*
X158550000Y-135001000D03*
X156010000Y-135001000D03*
X153470000Y-135001000D03*
X150930000Y-135001000D03*
X148390000Y-135001000D03*
X145850000Y-135001000D03*
X143310000Y-135001000D03*
X140770000Y-135001000D03*
X138230000Y-135001000D03*
X135690000Y-135001000D03*
X133150000Y-135001000D03*
X130610000Y-135001000D03*
%TD*%
D12*
%TO.C,LED1*%
X123825000Y-126198000D03*
D13*
X123825000Y-128698000D03*
X123825000Y-131198000D03*
%TD*%
D12*
%TO.C,LED4*%
X123825000Y-87376000D03*
D13*
X123825000Y-89876000D03*
X123825000Y-92376000D03*
%TD*%
D16*
%TO.C,H2*%
X164973000Y-120396000D03*
%TD*%
D12*
%TO.C,LED2*%
X123825000Y-113284000D03*
D13*
X123825000Y-115784000D03*
X123825000Y-118284000D03*
%TD*%
D14*
%TO.C,JP1*%
X140770000Y-114681000D03*
D15*
X143310000Y-114681000D03*
X145850000Y-114681000D03*
X148390000Y-114681000D03*
X150930000Y-114681000D03*
X153470000Y-114681000D03*
X156010000Y-114681000D03*
X158550000Y-114681000D03*
X161090000Y-114681000D03*
X163630000Y-114681000D03*
X166170000Y-114681000D03*
X168710000Y-114681000D03*
%TD*%
D14*
%TO.C,J1*%
X172466000Y-119634000D03*
D15*
X172466000Y-122174000D03*
X172466000Y-124714000D03*
X172466000Y-127254000D03*
X172466000Y-129794000D03*
X172466000Y-132334000D03*
X172466000Y-134874000D03*
%TD*%
D17*
%TO.C,MK1*%
X152465000Y-123063000D03*
D18*
X152465000Y-120523000D03*
%TD*%
D19*
%TO.C,H1*%
X133223000Y-96774000D03*
%TD*%
M02*
