M48
; DRILL file {KiCad (6.0.0-0)} date 2022 January 22, Saturday 21:24:42
; FORMAT={-:-/ absolute / inch / decimal}
; #@! TF.CreationDate,2022-01-22T21:24:42+01:00
; #@! TF.GenerationSoftware,Kicad,Pcbnew,(6.0.0-0)
; #@! TF.FileFunction,Plated,1,2,PTH
FMAT,2
INCH
; #@! TA.AperFunction,Plated,PTH,ComponentDrill
T1C0.0079
; #@! TA.AperFunction,Plated,PTH,ViaDrill
T2C0.0157
; #@! TA.AperFunction,Plated,PTH,ComponentDrill
T3C0.0236
; #@! TA.AperFunction,Plated,PTH,ComponentDrill
T4C0.0343
; #@! TA.AperFunction,Plated,PTH,ComponentDrill
T5C0.0374
; #@! TA.AperFunction,Plated,PTH,ComponentDrill
T6C0.0394
; #@! TA.AperFunction,Plated,PTH,ComponentDrill
T7C0.1260
%
G90
G05
T1
X5.7191Y-3.7954
X5.7191Y-3.8677
X5.7552Y-3.7593
X5.7552Y-3.8316
X5.7552Y-3.9038
X5.7913Y-3.7954
X5.7913Y-3.8677
X5.8275Y-3.7593
X5.8275Y-3.8316
X5.8275Y-3.9038
X5.8636Y-3.7954
X5.8636Y-3.8677
T2
X4.9285Y-3.3263
X4.9521Y-4.3537
X5.2769Y-4.8846
X5.352Y-3.8995
X5.4157Y-4.741
X5.4288Y-4.0363
X5.4291Y-3.7863
X5.5389Y-5.0825
X5.5495Y-4.8722
X5.5631Y-3.7353
X5.5635Y-4.0181
X5.5973Y-3.6863
X5.7023Y-3.6081
X5.7865Y-4.097
X5.8615Y-4.1587
X5.9421Y-4.1195
X5.9921Y-5.0726
X6.0144Y-3.9886
X6.0167Y-3.9413
X6.0308Y-4.1405
X6.0496Y-4.0764
X6.0908Y-4.0174
X6.0959Y-3.9556
X6.113Y-5.202
X6.1421Y-4.232
X6.1733Y-4.8871
X6.2221Y-4.28
X6.2327Y-3.9834
X6.2328Y-4.1706
X6.2464Y-3.6441
X6.2538Y-3.8005
X6.3206Y-4.8109
X6.3557Y-3.7213
X6.365Y-3.9969
X6.3847Y-4.6195
X6.4074Y-4.9716
X6.4286Y-3.8967
X6.461Y-3.9304
X6.5262Y-4.4267
X6.5718Y-4.1394
T4
X6.0026Y-4.745
X6.0026Y-4.845
T5
X4.875Y-3.44
X4.875Y-3.5384
X4.875Y-3.6369
X4.875Y-3.95
X4.875Y-4.0484
X4.875Y-4.1469
X4.875Y-4.46
X4.875Y-4.5584
X4.875Y-4.6569
X4.875Y-4.9684
X4.875Y-5.0669
X4.875Y-5.1653
T6
X5.1421Y-5.315
X5.2421Y-5.315
X5.3421Y-5.315
X5.4421Y-5.315
X5.5421Y-4.515
X5.5421Y-5.315
X5.6421Y-4.515
X5.6421Y-5.315
X5.7421Y-4.515
X5.7421Y-5.315
X5.8421Y-4.515
X5.8421Y-5.315
X5.9421Y-4.515
X5.9421Y-5.315
X6.0421Y-4.515
X6.0421Y-5.315
X6.1421Y-4.515
X6.1421Y-5.315
X6.2421Y-4.515
X6.2421Y-5.315
X6.3421Y-4.515
X6.3421Y-5.315
X6.4421Y-4.515
X6.4421Y-5.315
X6.5421Y-4.515
X6.5421Y-5.315
X6.6421Y-4.515
X6.6421Y-5.315
X6.79Y-4.71
X6.79Y-4.81
X6.79Y-4.91
X6.79Y-5.01
X6.79Y-5.11
X6.79Y-5.21
X6.79Y-5.31
T7
X6.495Y-4.74
T3
G00X6.9436Y-4.1649
M15
G01X6.9672Y-4.1649
M16
G05
G00X6.9436Y-4.5051
M15
G01X6.9672Y-4.5051
M16
G05
G00X7.0932Y-4.1649
M15
G01X7.1168Y-4.1649
M16
G05
G00X7.0932Y-4.5051
M15
G01X7.1168Y-4.5051
M16
G05
T0
M30
