%TF.GenerationSoftware,KiCad,Pcbnew,(6.0.0-0)*%
%TF.CreationDate,2022-01-22T21:55:44+01:00*%
%TF.ProjectId,GlowCore,476c6f77-436f-4726-952e-6b696361645f,rev?*%
%TF.SameCoordinates,Original*%
%TF.FileFunction,Paste,Top*%
%TF.FilePolarity,Positive*%
%FSLAX46Y46*%
G04 Gerber Fmt 4.6, Leading zero omitted, Abs format (unit mm)*
G04 Created by KiCad (PCBNEW (6.0.0-0)) date 2022-01-22 21:55:44*
%MOMM*%
%LPD*%
G01*
G04 APERTURE LIST*
G04 Aperture macros list*
%AMRoundRect*
0 Rectangle with rounded corners*
0 $1 Rounding radius*
0 $2 $3 $4 $5 $6 $7 $8 $9 X,Y pos of 4 corners*
0 Add a 4 corners polygon primitive as box body*
4,1,4,$2,$3,$4,$5,$6,$7,$8,$9,$2,$3,0*
0 Add four circle primitives for the rounded corners*
1,1,$1+$1,$2,$3*
1,1,$1+$1,$4,$5*
1,1,$1+$1,$6,$7*
1,1,$1+$1,$8,$9*
0 Add four rect primitives between the rounded corners*
20,1,$1+$1,$2,$3,$4,$5,0*
20,1,$1+$1,$4,$5,$6,$7,0*
20,1,$1+$1,$6,$7,$8,$9,0*
20,1,$1+$1,$8,$9,$2,$3,0*%
G04 Aperture macros list end*
%ADD10RoundRect,0.237500X-0.300000X-0.237500X0.300000X-0.237500X0.300000X0.237500X-0.300000X0.237500X0*%
%ADD11RoundRect,0.237500X-0.250000X-0.237500X0.250000X-0.237500X0.250000X0.237500X-0.250000X0.237500X0*%
%ADD12R,1.330000X1.330000*%
%ADD13R,2.000000X0.900000*%
%ADD14R,0.900000X2.000000*%
%ADD15R,1.200000X0.400000*%
%ADD16R,2.209800X1.701800*%
%ADD17RoundRect,0.237500X-0.237500X0.250000X-0.237500X-0.250000X0.237500X-0.250000X0.237500X0.250000X0*%
%ADD18R,1.400000X1.000000*%
%ADD19R,1.200000X0.700000*%
%ADD20R,1.200000X0.760000*%
%ADD21R,1.200000X0.800000*%
%ADD22R,1.200000X1.470000*%
%ADD23RoundRect,0.237500X-0.237500X0.300000X-0.237500X-0.300000X0.237500X-0.300000X0.237500X0.300000X0*%
%ADD24R,1.000000X0.900000*%
%ADD25RoundRect,0.250000X0.550000X-1.500000X0.550000X1.500000X-0.550000X1.500000X-0.550000X-1.500000X0*%
%ADD26RoundRect,0.237500X0.287500X0.237500X-0.287500X0.237500X-0.287500X-0.237500X0.287500X-0.237500X0*%
%ADD27RoundRect,0.237500X0.237500X-0.250000X0.237500X0.250000X-0.237500X0.250000X-0.237500X-0.250000X0*%
%ADD28RoundRect,0.250000X1.500000X0.550000X-1.500000X0.550000X-1.500000X-0.550000X1.500000X-0.550000X0*%
%ADD29RoundRect,0.237500X0.237500X-0.300000X0.237500X0.300000X-0.237500X0.300000X-0.237500X-0.300000X0*%
%ADD30RoundRect,0.237500X0.300000X0.237500X-0.300000X0.237500X-0.300000X-0.237500X0.300000X-0.237500X0*%
%ADD31R,1.000000X1.400000*%
%ADD32RoundRect,0.237500X0.250000X0.237500X-0.250000X0.237500X-0.250000X-0.237500X0.250000X-0.237500X0*%
%ADD33R,0.355600X1.676400*%
%ADD34R,1.200000X1.200000*%
%ADD35R,1.500000X1.600000*%
%ADD36RoundRect,0.150000X0.150000X-0.512500X0.150000X0.512500X-0.150000X0.512500X-0.150000X-0.512500X0*%
G04 APERTURE END LIST*
D10*
%TO.C,C10*%
X158014500Y-120015000D03*
X159739500Y-120015000D03*
%TD*%
D11*
%TO.C,R22*%
X158625200Y-130937000D03*
X160450200Y-130937000D03*
%TD*%
D12*
%TO.C,U7*%
X148934900Y-99156800D03*
X147099900Y-99156800D03*
X145264900Y-99156800D03*
X148934900Y-97321800D03*
X147099900Y-97321800D03*
X145264900Y-97321800D03*
X148934900Y-95486800D03*
X147099900Y-95486800D03*
X145264900Y-95486800D03*
D13*
X156599900Y-89821800D03*
X156599900Y-91091800D03*
X156599900Y-92361800D03*
X156599900Y-93631800D03*
X156599900Y-94901800D03*
X156599900Y-96171800D03*
X156599900Y-97441800D03*
X156599900Y-98711800D03*
X156599900Y-99981800D03*
X156599900Y-101251800D03*
X156599900Y-102521800D03*
X156599900Y-103791800D03*
X156599900Y-105061800D03*
X156599900Y-106331800D03*
D14*
X153814900Y-107331800D03*
X152544900Y-107331800D03*
X151274900Y-107331800D03*
X150004900Y-107331800D03*
X148734900Y-107331800D03*
X147464900Y-107331800D03*
X146194900Y-107331800D03*
X144924900Y-107331800D03*
X143654900Y-107331800D03*
X142384900Y-107331800D03*
D13*
X139599900Y-106331800D03*
X139599900Y-105061800D03*
X139599900Y-103791800D03*
X139599900Y-102521800D03*
X139599900Y-101251800D03*
X139599900Y-99981800D03*
X139599900Y-98711800D03*
X139599900Y-97441800D03*
X139599900Y-96171800D03*
X139599900Y-94901800D03*
X139599900Y-93631800D03*
X139599900Y-92361800D03*
X139599900Y-91091800D03*
X139599900Y-89821800D03*
%TD*%
D11*
%TO.C,R7*%
X123063000Y-109307000D03*
X124888000Y-109307000D03*
%TD*%
%TO.C,R11*%
X129897500Y-91440000D03*
X131722500Y-91440000D03*
%TD*%
D15*
%TO.C,IC1*%
X159730700Y-127874000D03*
X159730700Y-128524000D03*
X159730700Y-129174000D03*
X161630700Y-129174000D03*
X161630700Y-127874000D03*
%TD*%
D16*
%TO.C,U6*%
X169240200Y-110998000D03*
X172643800Y-110998000D03*
%TD*%
D17*
%TO.C,R17*%
X179451000Y-117959500D03*
X179451000Y-119784500D03*
%TD*%
D18*
%TO.C,Q2*%
X175430000Y-117795000D03*
X175430000Y-119695000D03*
X177630000Y-118745000D03*
%TD*%
D19*
%TO.C,J2*%
X176587000Y-110609000D03*
D20*
X176587000Y-108589000D03*
D21*
X176587000Y-107359000D03*
D19*
X176587000Y-109609000D03*
D20*
X176587000Y-111629000D03*
D21*
X176587000Y-112859000D03*
%TD*%
D11*
%TO.C,R8*%
X123039500Y-96353000D03*
X124864500Y-96353000D03*
%TD*%
D22*
%TO.C,FB1*%
X167963000Y-128524000D03*
X166243000Y-128524000D03*
%TD*%
D23*
%TO.C,C2*%
X162433000Y-102642500D03*
X162433000Y-104367500D03*
%TD*%
D24*
%TO.C,RESET1*%
X175349000Y-133114000D03*
X175349000Y-129014000D03*
X176949000Y-133114000D03*
X176949000Y-129014000D03*
%TD*%
D11*
%TO.C,R6*%
X123039500Y-122261000D03*
X124864500Y-122261000D03*
%TD*%
D22*
%TO.C,FB2*%
X167992000Y-130556000D03*
X166272000Y-130556000D03*
%TD*%
D11*
%TO.C,R16*%
X168759500Y-106934000D03*
X170584500Y-106934000D03*
%TD*%
D25*
%TO.C,C9*%
X133223000Y-108464000D03*
X133223000Y-102864000D03*
%TD*%
D26*
%TO.C,D4*%
X134987000Y-91440000D03*
X133237000Y-91440000D03*
%TD*%
D27*
%TO.C,R2*%
X164084000Y-108989500D03*
X164084000Y-107164500D03*
%TD*%
D28*
%TO.C,C8*%
X136150000Y-114808000D03*
X130550000Y-114808000D03*
%TD*%
D29*
%TO.C,C1*%
X165608000Y-108939500D03*
X165608000Y-107214500D03*
%TD*%
D30*
%TO.C,C11*%
X161390500Y-123317000D03*
X159665500Y-123317000D03*
%TD*%
D10*
%TO.C,C12*%
X162078500Y-130937000D03*
X163803500Y-130937000D03*
%TD*%
D11*
%TO.C,R23*%
X155170500Y-130937000D03*
X156995500Y-130937000D03*
%TD*%
D27*
%TO.C,R1*%
X167132000Y-108989500D03*
X167132000Y-107164500D03*
%TD*%
D11*
%TO.C,R19*%
X175236500Y-125984000D03*
X177061500Y-125984000D03*
%TD*%
%TO.C,R9*%
X122936000Y-83312000D03*
X124761000Y-83312000D03*
%TD*%
D23*
%TO.C,C5*%
X163347700Y-127534500D03*
X163347700Y-129259500D03*
%TD*%
D17*
%TO.C,R4*%
X157988000Y-121642500D03*
X157988000Y-123467500D03*
%TD*%
D28*
%TO.C,C7*%
X136150000Y-122174000D03*
X130550000Y-122174000D03*
%TD*%
D27*
%TO.C,R18*%
X175260000Y-124356500D03*
X175260000Y-122531500D03*
%TD*%
D31*
%TO.C,Q3*%
X176977000Y-124163000D03*
X178877000Y-124163000D03*
X177927000Y-121963000D03*
%TD*%
D23*
%TO.C,C18*%
X159385000Y-102642500D03*
X159385000Y-104367500D03*
%TD*%
D30*
%TO.C,C13*%
X158977500Y-132461000D03*
X157252500Y-132461000D03*
%TD*%
D32*
%TO.C,R3*%
X159789500Y-118491000D03*
X157964500Y-118491000D03*
%TD*%
D28*
%TO.C,C6*%
X136150000Y-129540000D03*
X130550000Y-129540000D03*
%TD*%
D33*
%TO.C,U3*%
X143682001Y-121640600D03*
X143032000Y-121640600D03*
X142381999Y-121640600D03*
X141732000Y-121640600D03*
X141082001Y-121640600D03*
X140432000Y-121640600D03*
X139782001Y-121640600D03*
X139781999Y-127279400D03*
X140432000Y-127279400D03*
X141081999Y-127279400D03*
X141732000Y-127279400D03*
X142381999Y-127279400D03*
X143032000Y-127279400D03*
X143681999Y-127279400D03*
%TD*%
D32*
%TO.C,R20*%
X161440500Y-124841000D03*
X159615500Y-124841000D03*
%TD*%
D30*
%TO.C,C19*%
X177011500Y-127508000D03*
X175286500Y-127508000D03*
%TD*%
D23*
%TO.C,C3*%
X160909000Y-102642500D03*
X160909000Y-104367500D03*
%TD*%
D34*
%TO.C,R24*%
X154537000Y-127016000D03*
D35*
X157787000Y-128016000D03*
D34*
X154537000Y-129016000D03*
%TD*%
D23*
%TO.C,C4*%
X145415000Y-125883500D03*
X145415000Y-127608500D03*
%TD*%
D11*
%TO.C,R21*%
X159615500Y-126365000D03*
X161440500Y-126365000D03*
%TD*%
D36*
%TO.C,U1*%
X164023000Y-105023500D03*
X164973000Y-105023500D03*
X165923000Y-105023500D03*
X165923000Y-102748500D03*
X164023000Y-102748500D03*
%TD*%
D11*
%TO.C,R15*%
X168759500Y-108458000D03*
X170584500Y-108458000D03*
%TD*%
M02*
