%TF.GenerationSoftware,KiCad,Pcbnew,(6.0.0-0)*%
%TF.CreationDate,2022-01-22T21:55:44+01:00*%
%TF.ProjectId,GlowCore,476c6f77-436f-4726-952e-6b696361645f,rev?*%
%TF.SameCoordinates,Original*%
%TF.FileFunction,Legend,Bot*%
%TF.FilePolarity,Positive*%
%FSLAX46Y46*%
G04 Gerber Fmt 4.6, Leading zero omitted, Abs format (unit mm)*
G04 Created by KiCad (PCBNEW (6.0.0-0)) date 2022-01-22 21:55:44*
%MOMM*%
%LPD*%
G01*
G04 APERTURE LIST*
%ADD10C,0.250000*%
%ADD11C,0.150000*%
G04 APERTURE END LIST*
D10*
X153868380Y-128219261D02*
X152868380Y-128219261D01*
X152868380Y-128885928D02*
X152868380Y-129076404D01*
X152916000Y-129171642D01*
X153011238Y-129266880D01*
X153201714Y-129314500D01*
X153535047Y-129314500D01*
X153725523Y-129266880D01*
X153820761Y-129171642D01*
X153868380Y-129076404D01*
X153868380Y-128885928D01*
X153820761Y-128790690D01*
X153725523Y-128695452D01*
X153535047Y-128647833D01*
X153201714Y-128647833D01*
X153011238Y-128695452D01*
X152916000Y-128790690D01*
X152868380Y-128885928D01*
X153201714Y-130171642D02*
X153868380Y-130171642D01*
X152820761Y-129933547D02*
X153535047Y-129695452D01*
X153535047Y-130314500D01*
X152820761Y-131409738D02*
X154106476Y-130552595D01*
X153582666Y-131695452D02*
X153582666Y-132171642D01*
X153868380Y-131600214D02*
X152868380Y-131933547D01*
X153868380Y-132266880D01*
X152868380Y-133076404D02*
X152868380Y-132600214D01*
X153344571Y-132552595D01*
X153296952Y-132600214D01*
X153249333Y-132695452D01*
X153249333Y-132933547D01*
X153296952Y-133028785D01*
X153344571Y-133076404D01*
X153439809Y-133124023D01*
X153677904Y-133124023D01*
X153773142Y-133076404D01*
X153820761Y-133028785D01*
X153868380Y-132933547D01*
X153868380Y-132695452D01*
X153820761Y-132600214D01*
X153773142Y-132552595D01*
X169108380Y-129997023D02*
X168108380Y-129997023D01*
X168108380Y-130663690D02*
X168108380Y-130854166D01*
X168156000Y-130949404D01*
X168251238Y-131044642D01*
X168441714Y-131092261D01*
X168775047Y-131092261D01*
X168965523Y-131044642D01*
X169060761Y-130949404D01*
X169108380Y-130854166D01*
X169108380Y-130663690D01*
X169060761Y-130568452D01*
X168965523Y-130473214D01*
X168775047Y-130425595D01*
X168441714Y-130425595D01*
X168251238Y-130473214D01*
X168156000Y-130568452D01*
X168108380Y-130663690D01*
X168203619Y-131473214D02*
X168156000Y-131520833D01*
X168108380Y-131616071D01*
X168108380Y-131854166D01*
X168156000Y-131949404D01*
X168203619Y-131997023D01*
X168298857Y-132044642D01*
X168394095Y-132044642D01*
X168536952Y-131997023D01*
X169108380Y-131425595D01*
X169108380Y-132044642D01*
X169108380Y-132997023D02*
X169108380Y-132425595D01*
X169108380Y-132711309D02*
X168108380Y-132711309D01*
X168251238Y-132616071D01*
X168346476Y-132520833D01*
X168394095Y-132425595D01*
X146375380Y-123600214D02*
X145375380Y-123600214D01*
X145375380Y-124266880D02*
X145375380Y-124457357D01*
X145423000Y-124552595D01*
X145518238Y-124647833D01*
X145708714Y-124695452D01*
X146042047Y-124695452D01*
X146232523Y-124647833D01*
X146327761Y-124552595D01*
X146375380Y-124457357D01*
X146375380Y-124266880D01*
X146327761Y-124171642D01*
X146232523Y-124076404D01*
X146042047Y-124028785D01*
X145708714Y-124028785D01*
X145518238Y-124076404D01*
X145423000Y-124171642D01*
X145375380Y-124266880D01*
X145375380Y-125028785D02*
X145375380Y-125647833D01*
X145756333Y-125314500D01*
X145756333Y-125457357D01*
X145803952Y-125552595D01*
X145851571Y-125600214D01*
X145946809Y-125647833D01*
X146184904Y-125647833D01*
X146280142Y-125600214D01*
X146327761Y-125552595D01*
X146375380Y-125457357D01*
X146375380Y-125171642D01*
X146327761Y-125076404D01*
X146280142Y-125028785D01*
X145708714Y-126504976D02*
X146375380Y-126504976D01*
X145327761Y-126266880D02*
X146042047Y-126028785D01*
X146042047Y-126647833D01*
X145327761Y-127743071D02*
X146613476Y-126885928D01*
X146089666Y-128028785D02*
X146089666Y-128504976D01*
X146375380Y-127933547D02*
X145375380Y-128266880D01*
X146375380Y-128600214D01*
X145470619Y-128885928D02*
X145423000Y-128933547D01*
X145375380Y-129028785D01*
X145375380Y-129266880D01*
X145423000Y-129362119D01*
X145470619Y-129409738D01*
X145565857Y-129457357D01*
X145661095Y-129457357D01*
X145803952Y-129409738D01*
X146375380Y-128838309D01*
X146375380Y-129457357D01*
X145327761Y-130600214D02*
X146613476Y-129743071D01*
X146375380Y-130933547D02*
X145375380Y-130933547D01*
X146089666Y-131266880D01*
X145375380Y-131600214D01*
X146375380Y-131600214D01*
X146375380Y-132076404D02*
X145375380Y-132076404D01*
X146280142Y-133124023D02*
X146327761Y-133076404D01*
X146375380Y-132933547D01*
X146375380Y-132838309D01*
X146327761Y-132695452D01*
X146232523Y-132600214D01*
X146137285Y-132552595D01*
X145946809Y-132504976D01*
X145803952Y-132504976D01*
X145613476Y-132552595D01*
X145518238Y-132600214D01*
X145423000Y-132695452D01*
X145375380Y-132838309D01*
X145375380Y-132933547D01*
X145423000Y-133076404D01*
X145470619Y-133124023D01*
X137676000Y-131028785D02*
X137628380Y-130933547D01*
X137628380Y-130790690D01*
X137676000Y-130647833D01*
X137771238Y-130552595D01*
X137866476Y-130504976D01*
X138056952Y-130457357D01*
X138199809Y-130457357D01*
X138390285Y-130504976D01*
X138485523Y-130552595D01*
X138580761Y-130647833D01*
X138628380Y-130790690D01*
X138628380Y-130885928D01*
X138580761Y-131028785D01*
X138533142Y-131076404D01*
X138199809Y-131076404D01*
X138199809Y-130885928D01*
X138628380Y-131504976D02*
X137628380Y-131504976D01*
X138628380Y-132076404D01*
X137628380Y-132076404D01*
X138628380Y-132552595D02*
X137628380Y-132552595D01*
X137628380Y-132790690D01*
X137676000Y-132933547D01*
X137771238Y-133028785D01*
X137866476Y-133076404D01*
X138056952Y-133124023D01*
X138199809Y-133124023D01*
X138390285Y-133076404D01*
X138485523Y-133028785D01*
X138580761Y-132933547D01*
X138628380Y-132790690D01*
X138628380Y-132552595D01*
X131135380Y-129473214D02*
X130659190Y-129139880D01*
X131135380Y-128901785D02*
X130135380Y-128901785D01*
X130135380Y-129282738D01*
X130183000Y-129377976D01*
X130230619Y-129425595D01*
X130325857Y-129473214D01*
X130468714Y-129473214D01*
X130563952Y-129425595D01*
X130611571Y-129377976D01*
X130659190Y-129282738D01*
X130659190Y-128901785D01*
X130611571Y-129901785D02*
X130611571Y-130235119D01*
X131135380Y-130377976D02*
X131135380Y-129901785D01*
X130135380Y-129901785D01*
X130135380Y-130377976D01*
X131087761Y-130758928D02*
X131135380Y-130901785D01*
X131135380Y-131139880D01*
X131087761Y-131235119D01*
X131040142Y-131282738D01*
X130944904Y-131330357D01*
X130849666Y-131330357D01*
X130754428Y-131282738D01*
X130706809Y-131235119D01*
X130659190Y-131139880D01*
X130611571Y-130949404D01*
X130563952Y-130854166D01*
X130516333Y-130806547D01*
X130421095Y-130758928D01*
X130325857Y-130758928D01*
X130230619Y-130806547D01*
X130183000Y-130854166D01*
X130135380Y-130949404D01*
X130135380Y-131187500D01*
X130183000Y-131330357D01*
X130611571Y-131758928D02*
X130611571Y-132092261D01*
X131135380Y-132235119D02*
X131135380Y-131758928D01*
X130135380Y-131758928D01*
X130135380Y-132235119D01*
X130135380Y-132520833D02*
X130135380Y-133092261D01*
X131135380Y-132806547D02*
X130135380Y-132806547D01*
X158948380Y-109423023D02*
X157948380Y-109423023D01*
X157948380Y-110089690D02*
X157948380Y-110280166D01*
X157996000Y-110375404D01*
X158091238Y-110470642D01*
X158281714Y-110518261D01*
X158615047Y-110518261D01*
X158805523Y-110470642D01*
X158900761Y-110375404D01*
X158948380Y-110280166D01*
X158948380Y-110089690D01*
X158900761Y-109994452D01*
X158805523Y-109899214D01*
X158615047Y-109851595D01*
X158281714Y-109851595D01*
X158091238Y-109899214D01*
X157996000Y-109994452D01*
X157948380Y-110089690D01*
X158948380Y-111470642D02*
X158948380Y-110899214D01*
X158948380Y-111184928D02*
X157948380Y-111184928D01*
X158091238Y-111089690D01*
X158186476Y-110994452D01*
X158234095Y-110899214D01*
X157948380Y-112375404D02*
X157948380Y-111899214D01*
X158424571Y-111851595D01*
X158376952Y-111899214D01*
X158329333Y-111994452D01*
X158329333Y-112232547D01*
X158376952Y-112327785D01*
X158424571Y-112375404D01*
X158519809Y-112423023D01*
X158757904Y-112423023D01*
X158853142Y-112375404D01*
X158900761Y-112327785D01*
X158948380Y-112232547D01*
X158948380Y-111994452D01*
X158900761Y-111899214D01*
X158853142Y-111851595D01*
X149042380Y-117647833D02*
X148042380Y-117647833D01*
X148042380Y-118314500D02*
X148042380Y-118504976D01*
X148090000Y-118600214D01*
X148185238Y-118695452D01*
X148375714Y-118743071D01*
X148709047Y-118743071D01*
X148899523Y-118695452D01*
X148994761Y-118600214D01*
X149042380Y-118504976D01*
X149042380Y-118314500D01*
X148994761Y-118219261D01*
X148899523Y-118124023D01*
X148709047Y-118076404D01*
X148375714Y-118076404D01*
X148185238Y-118124023D01*
X148090000Y-118219261D01*
X148042380Y-118314500D01*
X148042380Y-119076404D02*
X148042380Y-119695452D01*
X148423333Y-119362119D01*
X148423333Y-119504976D01*
X148470952Y-119600214D01*
X148518571Y-119647833D01*
X148613809Y-119695452D01*
X148851904Y-119695452D01*
X148947142Y-119647833D01*
X148994761Y-119600214D01*
X149042380Y-119504976D01*
X149042380Y-119219261D01*
X148994761Y-119124023D01*
X148947142Y-119076404D01*
X149042380Y-120171642D02*
X149042380Y-120362119D01*
X148994761Y-120457357D01*
X148947142Y-120504976D01*
X148804285Y-120600214D01*
X148613809Y-120647833D01*
X148232857Y-120647833D01*
X148137619Y-120600214D01*
X148090000Y-120552595D01*
X148042380Y-120457357D01*
X148042380Y-120266880D01*
X148090000Y-120171642D01*
X148137619Y-120124023D01*
X148232857Y-120076404D01*
X148470952Y-120076404D01*
X148566190Y-120124023D01*
X148613809Y-120171642D01*
X148661428Y-120266880D01*
X148661428Y-120457357D01*
X148613809Y-120552595D01*
X148566190Y-120600214D01*
X148470952Y-120647833D01*
X147994761Y-121790690D02*
X149280476Y-120933547D01*
X148756666Y-122076404D02*
X148756666Y-122552595D01*
X149042380Y-121981166D02*
X148042380Y-122314500D01*
X149042380Y-122647833D01*
X148042380Y-122885928D02*
X148042380Y-123504976D01*
X148423333Y-123171642D01*
X148423333Y-123314500D01*
X148470952Y-123409738D01*
X148518571Y-123457357D01*
X148613809Y-123504976D01*
X148851904Y-123504976D01*
X148947142Y-123457357D01*
X148994761Y-123409738D01*
X149042380Y-123314500D01*
X149042380Y-123028785D01*
X148994761Y-122933547D01*
X148947142Y-122885928D01*
X147994761Y-124647833D02*
X149280476Y-123790690D01*
X148994761Y-124933547D02*
X149042380Y-125076404D01*
X149042380Y-125314500D01*
X148994761Y-125409738D01*
X148947142Y-125457357D01*
X148851904Y-125504976D01*
X148756666Y-125504976D01*
X148661428Y-125457357D01*
X148613809Y-125409738D01*
X148566190Y-125314500D01*
X148518571Y-125124023D01*
X148470952Y-125028785D01*
X148423333Y-124981166D01*
X148328095Y-124933547D01*
X148232857Y-124933547D01*
X148137619Y-124981166D01*
X148090000Y-125028785D01*
X148042380Y-125124023D01*
X148042380Y-125362119D01*
X148090000Y-125504976D01*
X148518571Y-125933547D02*
X148518571Y-126266880D01*
X149042380Y-126409738D02*
X149042380Y-125933547D01*
X148042380Y-125933547D01*
X148042380Y-126409738D01*
X149042380Y-126838309D02*
X148042380Y-126838309D01*
X149042380Y-127409738D01*
X148042380Y-127409738D01*
X148994761Y-127838309D02*
X149042380Y-127981166D01*
X149042380Y-128219261D01*
X148994761Y-128314500D01*
X148947142Y-128362119D01*
X148851904Y-128409738D01*
X148756666Y-128409738D01*
X148661428Y-128362119D01*
X148613809Y-128314500D01*
X148566190Y-128219261D01*
X148518571Y-128028785D01*
X148470952Y-127933547D01*
X148423333Y-127885928D01*
X148328095Y-127838309D01*
X148232857Y-127838309D01*
X148137619Y-127885928D01*
X148090000Y-127933547D01*
X148042380Y-128028785D01*
X148042380Y-128266880D01*
X148090000Y-128409738D01*
X148042380Y-129028785D02*
X148042380Y-129219261D01*
X148090000Y-129314500D01*
X148185238Y-129409738D01*
X148375714Y-129457357D01*
X148709047Y-129457357D01*
X148899523Y-129409738D01*
X148994761Y-129314500D01*
X149042380Y-129219261D01*
X149042380Y-129028785D01*
X148994761Y-128933547D01*
X148899523Y-128838309D01*
X148709047Y-128790690D01*
X148375714Y-128790690D01*
X148185238Y-128838309D01*
X148090000Y-128933547D01*
X148042380Y-129028785D01*
X149042380Y-130457357D02*
X148566190Y-130124023D01*
X149042380Y-129885928D02*
X148042380Y-129885928D01*
X148042380Y-130266880D01*
X148090000Y-130362119D01*
X148137619Y-130409738D01*
X148232857Y-130457357D01*
X148375714Y-130457357D01*
X148470952Y-130409738D01*
X148518571Y-130362119D01*
X148566190Y-130266880D01*
X148566190Y-129885928D01*
X149137619Y-130647833D02*
X149137619Y-131409738D01*
X148042380Y-131504976D02*
X149042380Y-131838309D01*
X148042380Y-132171642D01*
X149042380Y-132504976D02*
X148042380Y-132504976D01*
X149042380Y-133076404D01*
X148042380Y-133076404D01*
X159075380Y-120743071D02*
X158075380Y-120743071D01*
X158075380Y-121409738D02*
X158075380Y-121600214D01*
X158123000Y-121695452D01*
X158218238Y-121790690D01*
X158408714Y-121838309D01*
X158742047Y-121838309D01*
X158932523Y-121790690D01*
X159027761Y-121695452D01*
X159075380Y-121600214D01*
X159075380Y-121409738D01*
X159027761Y-121314500D01*
X158932523Y-121219261D01*
X158742047Y-121171642D01*
X158408714Y-121171642D01*
X158218238Y-121219261D01*
X158123000Y-121314500D01*
X158075380Y-121409738D01*
X159075380Y-122790690D02*
X159075380Y-122219261D01*
X159075380Y-122504976D02*
X158075380Y-122504976D01*
X158218238Y-122409738D01*
X158313476Y-122314500D01*
X158361095Y-122219261D01*
X158503952Y-123362119D02*
X158456333Y-123266880D01*
X158408714Y-123219261D01*
X158313476Y-123171642D01*
X158265857Y-123171642D01*
X158170619Y-123219261D01*
X158123000Y-123266880D01*
X158075380Y-123362119D01*
X158075380Y-123552595D01*
X158123000Y-123647833D01*
X158170619Y-123695452D01*
X158265857Y-123743071D01*
X158313476Y-123743071D01*
X158408714Y-123695452D01*
X158456333Y-123647833D01*
X158503952Y-123552595D01*
X158503952Y-123362119D01*
X158551571Y-123266880D01*
X158599190Y-123219261D01*
X158694428Y-123171642D01*
X158884904Y-123171642D01*
X158980142Y-123219261D01*
X159027761Y-123266880D01*
X159075380Y-123362119D01*
X159075380Y-123552595D01*
X159027761Y-123647833D01*
X158980142Y-123695452D01*
X158884904Y-123743071D01*
X158694428Y-123743071D01*
X158599190Y-123695452D01*
X158551571Y-123647833D01*
X158503952Y-123552595D01*
X158027761Y-124885928D02*
X159313476Y-124028785D01*
X159075380Y-125219261D02*
X158075380Y-125219261D01*
X158789666Y-125552595D01*
X158075380Y-125885928D01*
X159075380Y-125885928D01*
X158075380Y-126552595D02*
X158075380Y-126743071D01*
X158123000Y-126838309D01*
X158218238Y-126933547D01*
X158408714Y-126981166D01*
X158742047Y-126981166D01*
X158932523Y-126933547D01*
X159027761Y-126838309D01*
X159075380Y-126743071D01*
X159075380Y-126552595D01*
X159027761Y-126457357D01*
X158932523Y-126362119D01*
X158742047Y-126314500D01*
X158408714Y-126314500D01*
X158218238Y-126362119D01*
X158123000Y-126457357D01*
X158075380Y-126552595D01*
X159027761Y-127362119D02*
X159075380Y-127504976D01*
X159075380Y-127743071D01*
X159027761Y-127838309D01*
X158980142Y-127885928D01*
X158884904Y-127933547D01*
X158789666Y-127933547D01*
X158694428Y-127885928D01*
X158646809Y-127838309D01*
X158599190Y-127743071D01*
X158551571Y-127552595D01*
X158503952Y-127457357D01*
X158456333Y-127409738D01*
X158361095Y-127362119D01*
X158265857Y-127362119D01*
X158170619Y-127409738D01*
X158123000Y-127457357D01*
X158075380Y-127552595D01*
X158075380Y-127790690D01*
X158123000Y-127933547D01*
X159075380Y-128362119D02*
X158075380Y-128362119D01*
X158027761Y-129552595D02*
X159313476Y-128695452D01*
X159075380Y-130362119D02*
X159075380Y-129885928D01*
X158075380Y-129885928D01*
X158551571Y-130695452D02*
X158551571Y-131028785D01*
X159075380Y-131171642D02*
X159075380Y-130695452D01*
X158075380Y-130695452D01*
X158075380Y-131171642D01*
X159075380Y-131600214D02*
X158075380Y-131600214D01*
X158075380Y-131838309D01*
X158123000Y-131981166D01*
X158218238Y-132076404D01*
X158313476Y-132124023D01*
X158503952Y-132171642D01*
X158646809Y-132171642D01*
X158837285Y-132124023D01*
X158932523Y-132076404D01*
X159027761Y-131981166D01*
X159075380Y-131838309D01*
X159075380Y-131600214D01*
X158075380Y-132504976D02*
X158075380Y-133124023D01*
X158456333Y-132790690D01*
X158456333Y-132933547D01*
X158503952Y-133028785D01*
X158551571Y-133076404D01*
X158646809Y-133124023D01*
X158884904Y-133124023D01*
X158980142Y-133076404D01*
X159027761Y-133028785D01*
X159075380Y-132933547D01*
X159075380Y-132647833D01*
X159027761Y-132552595D01*
X158980142Y-132504976D01*
D11*
X126682476Y-125690380D02*
X127158666Y-125690380D01*
X127206285Y-126166571D01*
X127158666Y-126118952D01*
X127063428Y-126071333D01*
X126825333Y-126071333D01*
X126730095Y-126118952D01*
X126682476Y-126166571D01*
X126634857Y-126261809D01*
X126634857Y-126499904D01*
X126682476Y-126595142D01*
X126730095Y-126642761D01*
X126825333Y-126690380D01*
X127063428Y-126690380D01*
X127158666Y-126642761D01*
X127206285Y-126595142D01*
X126349142Y-125690380D02*
X126015809Y-126690380D01*
X125682476Y-125690380D01*
D10*
X143184571Y-110899214D02*
X143184571Y-111232547D01*
X143708380Y-111375404D02*
X143708380Y-110899214D01*
X142708380Y-110899214D01*
X142708380Y-111375404D01*
X143708380Y-111803976D02*
X142708380Y-111803976D01*
X143708380Y-112375404D01*
X142708380Y-112375404D01*
X148915380Y-109423023D02*
X147915380Y-109423023D01*
X147915380Y-110089690D02*
X147915380Y-110280166D01*
X147963000Y-110375404D01*
X148058238Y-110470642D01*
X148248714Y-110518261D01*
X148582047Y-110518261D01*
X148772523Y-110470642D01*
X148867761Y-110375404D01*
X148915380Y-110280166D01*
X148915380Y-110089690D01*
X148867761Y-109994452D01*
X148772523Y-109899214D01*
X148582047Y-109851595D01*
X148248714Y-109851595D01*
X148058238Y-109899214D01*
X147963000Y-109994452D01*
X147915380Y-110089690D01*
X148915380Y-111470642D02*
X148915380Y-110899214D01*
X148915380Y-111184928D02*
X147915380Y-111184928D01*
X148058238Y-111089690D01*
X148153476Y-110994452D01*
X148201095Y-110899214D01*
X147915380Y-111803976D02*
X147915380Y-112423023D01*
X148296333Y-112089690D01*
X148296333Y-112232547D01*
X148343952Y-112327785D01*
X148391571Y-112375404D01*
X148486809Y-112423023D01*
X148724904Y-112423023D01*
X148820142Y-112375404D01*
X148867761Y-112327785D01*
X148915380Y-112232547D01*
X148915380Y-111946833D01*
X148867761Y-111851595D01*
X148820142Y-111803976D01*
X161488380Y-120743071D02*
X160488380Y-120743071D01*
X160488380Y-121409738D02*
X160488380Y-121600214D01*
X160536000Y-121695452D01*
X160631238Y-121790690D01*
X160821714Y-121838309D01*
X161155047Y-121838309D01*
X161345523Y-121790690D01*
X161440761Y-121695452D01*
X161488380Y-121600214D01*
X161488380Y-121409738D01*
X161440761Y-121314500D01*
X161345523Y-121219261D01*
X161155047Y-121171642D01*
X160821714Y-121171642D01*
X160631238Y-121219261D01*
X160536000Y-121314500D01*
X160488380Y-121409738D01*
X161488380Y-122790690D02*
X161488380Y-122219261D01*
X161488380Y-122504976D02*
X160488380Y-122504976D01*
X160631238Y-122409738D01*
X160726476Y-122314500D01*
X160774095Y-122219261D01*
X161488380Y-123266880D02*
X161488380Y-123457357D01*
X161440761Y-123552595D01*
X161393142Y-123600214D01*
X161250285Y-123695452D01*
X161059809Y-123743071D01*
X160678857Y-123743071D01*
X160583619Y-123695452D01*
X160536000Y-123647833D01*
X160488380Y-123552595D01*
X160488380Y-123362119D01*
X160536000Y-123266880D01*
X160583619Y-123219261D01*
X160678857Y-123171642D01*
X160916952Y-123171642D01*
X161012190Y-123219261D01*
X161059809Y-123266880D01*
X161107428Y-123362119D01*
X161107428Y-123552595D01*
X161059809Y-123647833D01*
X161012190Y-123695452D01*
X160916952Y-123743071D01*
X160440761Y-124885928D02*
X161726476Y-124028785D01*
X161488380Y-125219261D02*
X160488380Y-125219261D01*
X161202666Y-125552595D01*
X160488380Y-125885928D01*
X161488380Y-125885928D01*
X161488380Y-126362119D02*
X160488380Y-126362119D01*
X161440761Y-126790690D02*
X161488380Y-126933547D01*
X161488380Y-127171642D01*
X161440761Y-127266880D01*
X161393142Y-127314500D01*
X161297904Y-127362119D01*
X161202666Y-127362119D01*
X161107428Y-127314500D01*
X161059809Y-127266880D01*
X161012190Y-127171642D01*
X160964571Y-126981166D01*
X160916952Y-126885928D01*
X160869333Y-126838309D01*
X160774095Y-126790690D01*
X160678857Y-126790690D01*
X160583619Y-126838309D01*
X160536000Y-126885928D01*
X160488380Y-126981166D01*
X160488380Y-127219261D01*
X160536000Y-127362119D01*
X160488380Y-127981166D02*
X160488380Y-128171642D01*
X160536000Y-128266880D01*
X160631238Y-128362119D01*
X160821714Y-128409738D01*
X161155047Y-128409738D01*
X161345523Y-128362119D01*
X161440761Y-128266880D01*
X161488380Y-128171642D01*
X161488380Y-127981166D01*
X161440761Y-127885928D01*
X161345523Y-127790690D01*
X161155047Y-127743071D01*
X160821714Y-127743071D01*
X160631238Y-127790690D01*
X160536000Y-127885928D01*
X160488380Y-127981166D01*
X160440761Y-129552595D02*
X161726476Y-128695452D01*
X161488380Y-130362119D02*
X161488380Y-129885928D01*
X160488380Y-129885928D01*
X160964571Y-130695452D02*
X160964571Y-131028785D01*
X161488380Y-131171642D02*
X161488380Y-130695452D01*
X160488380Y-130695452D01*
X160488380Y-131171642D01*
X161488380Y-131600214D02*
X160488380Y-131600214D01*
X160488380Y-131838309D01*
X160536000Y-131981166D01*
X160631238Y-132076404D01*
X160726476Y-132124023D01*
X160916952Y-132171642D01*
X161059809Y-132171642D01*
X161250285Y-132124023D01*
X161345523Y-132076404D01*
X161440761Y-131981166D01*
X161488380Y-131838309D01*
X161488380Y-131600214D01*
X160821714Y-133028785D02*
X161488380Y-133028785D01*
X160440761Y-132790690D02*
X161155047Y-132552595D01*
X161155047Y-133171642D01*
X166568380Y-105613500D02*
X165568380Y-105613500D01*
X165568380Y-106280166D02*
X165568380Y-106470642D01*
X165616000Y-106565880D01*
X165711238Y-106661119D01*
X165901714Y-106708738D01*
X166235047Y-106708738D01*
X166425523Y-106661119D01*
X166520761Y-106565880D01*
X166568380Y-106470642D01*
X166568380Y-106280166D01*
X166520761Y-106184928D01*
X166425523Y-106089690D01*
X166235047Y-106042071D01*
X165901714Y-106042071D01*
X165711238Y-106089690D01*
X165616000Y-106184928D01*
X165568380Y-106280166D01*
X165663619Y-107089690D02*
X165616000Y-107137309D01*
X165568380Y-107232547D01*
X165568380Y-107470642D01*
X165616000Y-107565880D01*
X165663619Y-107613500D01*
X165758857Y-107661119D01*
X165854095Y-107661119D01*
X165996952Y-107613500D01*
X166568380Y-107042071D01*
X166568380Y-107661119D01*
X165663619Y-108042071D02*
X165616000Y-108089690D01*
X165568380Y-108184928D01*
X165568380Y-108423023D01*
X165616000Y-108518261D01*
X165663619Y-108565880D01*
X165758857Y-108613500D01*
X165854095Y-108613500D01*
X165996952Y-108565880D01*
X166568380Y-107994452D01*
X166568380Y-108613500D01*
X165520761Y-109756357D02*
X166806476Y-108899214D01*
X166520761Y-110042071D02*
X166568380Y-110184928D01*
X166568380Y-110423023D01*
X166520761Y-110518261D01*
X166473142Y-110565880D01*
X166377904Y-110613500D01*
X166282666Y-110613500D01*
X166187428Y-110565880D01*
X166139809Y-110518261D01*
X166092190Y-110423023D01*
X166044571Y-110232547D01*
X165996952Y-110137309D01*
X165949333Y-110089690D01*
X165854095Y-110042071D01*
X165758857Y-110042071D01*
X165663619Y-110089690D01*
X165616000Y-110137309D01*
X165568380Y-110232547D01*
X165568380Y-110470642D01*
X165616000Y-110613500D01*
X166473142Y-111613500D02*
X166520761Y-111565880D01*
X166568380Y-111423023D01*
X166568380Y-111327785D01*
X166520761Y-111184928D01*
X166425523Y-111089690D01*
X166330285Y-111042071D01*
X166139809Y-110994452D01*
X165996952Y-110994452D01*
X165806476Y-111042071D01*
X165711238Y-111089690D01*
X165616000Y-111184928D01*
X165568380Y-111327785D01*
X165568380Y-111423023D01*
X165616000Y-111565880D01*
X165663619Y-111613500D01*
X166568380Y-112518261D02*
X166568380Y-112042071D01*
X165568380Y-112042071D01*
X140914428Y-108105547D02*
X140914428Y-108867452D01*
X141295380Y-108486500D02*
X140533476Y-108486500D01*
X140771571Y-109676976D02*
X140819190Y-109819833D01*
X140866809Y-109867452D01*
X140962047Y-109915071D01*
X141104904Y-109915071D01*
X141200142Y-109867452D01*
X141247761Y-109819833D01*
X141295380Y-109724595D01*
X141295380Y-109343642D01*
X140295380Y-109343642D01*
X140295380Y-109676976D01*
X140343000Y-109772214D01*
X140390619Y-109819833D01*
X140485857Y-109867452D01*
X140581095Y-109867452D01*
X140676333Y-109819833D01*
X140723952Y-109772214D01*
X140771571Y-109676976D01*
X140771571Y-109343642D01*
X141009666Y-110296023D02*
X141009666Y-110772214D01*
X141295380Y-110200785D02*
X140295380Y-110534119D01*
X141295380Y-110867452D01*
X140295380Y-111057928D02*
X140295380Y-111629357D01*
X141295380Y-111343642D02*
X140295380Y-111343642D01*
X140295380Y-111819833D02*
X140295380Y-112391261D01*
X141295380Y-112105547D02*
X140295380Y-112105547D01*
X164028380Y-109423023D02*
X163028380Y-109423023D01*
X163028380Y-110089690D02*
X163028380Y-110280166D01*
X163076000Y-110375404D01*
X163171238Y-110470642D01*
X163361714Y-110518261D01*
X163695047Y-110518261D01*
X163885523Y-110470642D01*
X163980761Y-110375404D01*
X164028380Y-110280166D01*
X164028380Y-110089690D01*
X163980761Y-109994452D01*
X163885523Y-109899214D01*
X163695047Y-109851595D01*
X163361714Y-109851595D01*
X163171238Y-109899214D01*
X163076000Y-109994452D01*
X163028380Y-110089690D01*
X164028380Y-111470642D02*
X164028380Y-110899214D01*
X164028380Y-111184928D02*
X163028380Y-111184928D01*
X163171238Y-111089690D01*
X163266476Y-110994452D01*
X163314095Y-110899214D01*
X163361714Y-112327785D02*
X164028380Y-112327785D01*
X162980761Y-112089690D02*
X163695047Y-111851595D01*
X163695047Y-112470642D01*
D11*
X127761904Y-104783000D02*
X127857142Y-104735380D01*
X128000000Y-104735380D01*
X128142857Y-104783000D01*
X128238095Y-104878238D01*
X128285714Y-104973476D01*
X128333333Y-105163952D01*
X128333333Y-105306809D01*
X128285714Y-105497285D01*
X128238095Y-105592523D01*
X128142857Y-105687761D01*
X128000000Y-105735380D01*
X127904761Y-105735380D01*
X127761904Y-105687761D01*
X127714285Y-105640142D01*
X127714285Y-105306809D01*
X127904761Y-105306809D01*
X127285714Y-105735380D02*
X127285714Y-104735380D01*
X126714285Y-105735380D01*
X126714285Y-104735380D01*
X126238095Y-105735380D02*
X126238095Y-104735380D01*
X126000000Y-104735380D01*
X125857142Y-104783000D01*
X125761904Y-104878238D01*
X125714285Y-104973476D01*
X125666666Y-105163952D01*
X125666666Y-105306809D01*
X125714285Y-105497285D01*
X125761904Y-105592523D01*
X125857142Y-105687761D01*
X126000000Y-105735380D01*
X126238095Y-105735380D01*
D10*
X141168380Y-122409738D02*
X140168380Y-122409738D01*
X140168380Y-123076404D02*
X140168380Y-123266880D01*
X140216000Y-123362119D01*
X140311238Y-123457357D01*
X140501714Y-123504976D01*
X140835047Y-123504976D01*
X141025523Y-123457357D01*
X141120761Y-123362119D01*
X141168380Y-123266880D01*
X141168380Y-123076404D01*
X141120761Y-122981166D01*
X141025523Y-122885928D01*
X140835047Y-122838309D01*
X140501714Y-122838309D01*
X140311238Y-122885928D01*
X140216000Y-122981166D01*
X140168380Y-123076404D01*
X140263619Y-123885928D02*
X140216000Y-123933547D01*
X140168380Y-124028785D01*
X140168380Y-124266880D01*
X140216000Y-124362119D01*
X140263619Y-124409738D01*
X140358857Y-124457357D01*
X140454095Y-124457357D01*
X140596952Y-124409738D01*
X141168380Y-123838309D01*
X141168380Y-124457357D01*
X140168380Y-125314500D02*
X140168380Y-125124023D01*
X140216000Y-125028785D01*
X140263619Y-124981166D01*
X140406476Y-124885928D01*
X140596952Y-124838309D01*
X140977904Y-124838309D01*
X141073142Y-124885928D01*
X141120761Y-124933547D01*
X141168380Y-125028785D01*
X141168380Y-125219261D01*
X141120761Y-125314500D01*
X141073142Y-125362119D01*
X140977904Y-125409738D01*
X140739809Y-125409738D01*
X140644571Y-125362119D01*
X140596952Y-125314500D01*
X140549333Y-125219261D01*
X140549333Y-125028785D01*
X140596952Y-124933547D01*
X140644571Y-124885928D01*
X140739809Y-124838309D01*
X140120761Y-126552595D02*
X141406476Y-125695452D01*
X140882666Y-126838309D02*
X140882666Y-127314500D01*
X141168380Y-126743071D02*
X140168380Y-127076404D01*
X141168380Y-127409738D01*
X140168380Y-127933547D02*
X140168380Y-128028785D01*
X140216000Y-128124023D01*
X140263619Y-128171642D01*
X140358857Y-128219261D01*
X140549333Y-128266880D01*
X140787428Y-128266880D01*
X140977904Y-128219261D01*
X141073142Y-128171642D01*
X141120761Y-128124023D01*
X141168380Y-128028785D01*
X141168380Y-127933547D01*
X141120761Y-127838309D01*
X141073142Y-127790690D01*
X140977904Y-127743071D01*
X140787428Y-127695452D01*
X140549333Y-127695452D01*
X140358857Y-127743071D01*
X140263619Y-127790690D01*
X140216000Y-127838309D01*
X140168380Y-127933547D01*
X140120761Y-129409738D02*
X141406476Y-128552595D01*
X141168380Y-129743071D02*
X140168380Y-129743071D01*
X140168380Y-129981166D01*
X140216000Y-130124023D01*
X140311238Y-130219261D01*
X140406476Y-130266880D01*
X140596952Y-130314500D01*
X140739809Y-130314500D01*
X140930285Y-130266880D01*
X141025523Y-130219261D01*
X141120761Y-130124023D01*
X141168380Y-129981166D01*
X141168380Y-129743071D01*
X140882666Y-130695452D02*
X140882666Y-131171642D01*
X141168380Y-130600214D02*
X140168380Y-130933547D01*
X141168380Y-131266880D01*
X141073142Y-132171642D02*
X141120761Y-132124023D01*
X141168380Y-131981166D01*
X141168380Y-131885928D01*
X141120761Y-131743071D01*
X141025523Y-131647833D01*
X140930285Y-131600214D01*
X140739809Y-131552595D01*
X140596952Y-131552595D01*
X140406476Y-131600214D01*
X140311238Y-131647833D01*
X140216000Y-131743071D01*
X140168380Y-131885928D01*
X140168380Y-131981166D01*
X140216000Y-132124023D01*
X140263619Y-132171642D01*
X140263619Y-132552595D02*
X140216000Y-132600214D01*
X140168380Y-132695452D01*
X140168380Y-132933547D01*
X140216000Y-133028785D01*
X140263619Y-133076404D01*
X140358857Y-133124023D01*
X140454095Y-133124023D01*
X140596952Y-133076404D01*
X141168380Y-132504976D01*
X141168380Y-133124023D01*
D11*
X126245904Y-116403380D02*
X126245904Y-115403380D01*
X126007809Y-115403380D01*
X125864952Y-115451000D01*
X125769714Y-115546238D01*
X125722095Y-115641476D01*
X125674476Y-115831952D01*
X125674476Y-115974809D01*
X125722095Y-116165285D01*
X125769714Y-116260523D01*
X125864952Y-116355761D01*
X126007809Y-116403380D01*
X126245904Y-116403380D01*
D10*
X166568380Y-125282738D02*
X165568380Y-125282738D01*
X165568380Y-125949404D02*
X165568380Y-126139880D01*
X165616000Y-126235119D01*
X165711238Y-126330357D01*
X165901714Y-126377976D01*
X166235047Y-126377976D01*
X166425523Y-126330357D01*
X166520761Y-126235119D01*
X166568380Y-126139880D01*
X166568380Y-125949404D01*
X166520761Y-125854166D01*
X166425523Y-125758928D01*
X166235047Y-125711309D01*
X165901714Y-125711309D01*
X165711238Y-125758928D01*
X165616000Y-125854166D01*
X165568380Y-125949404D01*
X166568380Y-127330357D02*
X166568380Y-126758928D01*
X166568380Y-127044642D02*
X165568380Y-127044642D01*
X165711238Y-126949404D01*
X165806476Y-126854166D01*
X165854095Y-126758928D01*
X165568380Y-127663690D02*
X165568380Y-128330357D01*
X166568380Y-127901785D01*
X165520761Y-129425595D02*
X166806476Y-128568452D01*
X166568380Y-130235119D02*
X166568380Y-129758928D01*
X165568380Y-129758928D01*
X166044571Y-130568452D02*
X166044571Y-130901785D01*
X166568380Y-131044642D02*
X166568380Y-130568452D01*
X165568380Y-130568452D01*
X165568380Y-131044642D01*
X166568380Y-131473214D02*
X165568380Y-131473214D01*
X165568380Y-131711309D01*
X165616000Y-131854166D01*
X165711238Y-131949404D01*
X165806476Y-131997023D01*
X165996952Y-132044642D01*
X166139809Y-132044642D01*
X166330285Y-131997023D01*
X166425523Y-131949404D01*
X166520761Y-131854166D01*
X166568380Y-131711309D01*
X166568380Y-131473214D01*
X165663619Y-132425595D02*
X165616000Y-132473214D01*
X165568380Y-132568452D01*
X165568380Y-132806547D01*
X165616000Y-132901785D01*
X165663619Y-132949404D01*
X165758857Y-132997023D01*
X165854095Y-132997023D01*
X165996952Y-132949404D01*
X166568380Y-132377976D01*
X166568380Y-132997023D01*
X169108380Y-105565880D02*
X168108380Y-105565880D01*
X168108380Y-106232547D02*
X168108380Y-106423023D01*
X168156000Y-106518261D01*
X168251238Y-106613500D01*
X168441714Y-106661119D01*
X168775047Y-106661119D01*
X168965523Y-106613500D01*
X169060761Y-106518261D01*
X169108380Y-106423023D01*
X169108380Y-106232547D01*
X169060761Y-106137309D01*
X168965523Y-106042071D01*
X168775047Y-105994452D01*
X168441714Y-105994452D01*
X168251238Y-106042071D01*
X168156000Y-106137309D01*
X168108380Y-106232547D01*
X168203619Y-107042071D02*
X168156000Y-107089690D01*
X168108380Y-107184928D01*
X168108380Y-107423023D01*
X168156000Y-107518261D01*
X168203619Y-107565880D01*
X168298857Y-107613500D01*
X168394095Y-107613500D01*
X168536952Y-107565880D01*
X169108380Y-106994452D01*
X169108380Y-107613500D01*
X168108380Y-107946833D02*
X168108380Y-108565880D01*
X168489333Y-108232547D01*
X168489333Y-108375404D01*
X168536952Y-108470642D01*
X168584571Y-108518261D01*
X168679809Y-108565880D01*
X168917904Y-108565880D01*
X169013142Y-108518261D01*
X169060761Y-108470642D01*
X169108380Y-108375404D01*
X169108380Y-108089690D01*
X169060761Y-107994452D01*
X169013142Y-107946833D01*
X168060761Y-109708738D02*
X169346476Y-108851595D01*
X169060761Y-109994452D02*
X169108380Y-110137309D01*
X169108380Y-110375404D01*
X169060761Y-110470642D01*
X169013142Y-110518261D01*
X168917904Y-110565880D01*
X168822666Y-110565880D01*
X168727428Y-110518261D01*
X168679809Y-110470642D01*
X168632190Y-110375404D01*
X168584571Y-110184928D01*
X168536952Y-110089690D01*
X168489333Y-110042071D01*
X168394095Y-109994452D01*
X168298857Y-109994452D01*
X168203619Y-110042071D01*
X168156000Y-110089690D01*
X168108380Y-110184928D01*
X168108380Y-110423023D01*
X168156000Y-110565880D01*
X169108380Y-110994452D02*
X168108380Y-110994452D01*
X168108380Y-111232547D01*
X168156000Y-111375404D01*
X168251238Y-111470642D01*
X168346476Y-111518261D01*
X168536952Y-111565880D01*
X168679809Y-111565880D01*
X168870285Y-111518261D01*
X168965523Y-111470642D01*
X169060761Y-111375404D01*
X169108380Y-111232547D01*
X169108380Y-110994452D01*
X168822666Y-111946833D02*
X168822666Y-112423023D01*
X169108380Y-111851595D02*
X168108380Y-112184928D01*
X169108380Y-112518261D01*
X132675380Y-130092261D02*
X132675380Y-130711309D01*
X133056333Y-130377976D01*
X133056333Y-130520833D01*
X133103952Y-130616071D01*
X133151571Y-130663690D01*
X133246809Y-130711309D01*
X133484904Y-130711309D01*
X133580142Y-130663690D01*
X133627761Y-130616071D01*
X133675380Y-130520833D01*
X133675380Y-130235119D01*
X133627761Y-130139880D01*
X133580142Y-130092261D01*
X133580142Y-131139880D02*
X133627761Y-131187500D01*
X133675380Y-131139880D01*
X133627761Y-131092261D01*
X133580142Y-131139880D01*
X133675380Y-131139880D01*
X132675380Y-131520833D02*
X132675380Y-132139880D01*
X133056333Y-131806547D01*
X133056333Y-131949404D01*
X133103952Y-132044642D01*
X133151571Y-132092261D01*
X133246809Y-132139880D01*
X133484904Y-132139880D01*
X133580142Y-132092261D01*
X133627761Y-132044642D01*
X133675380Y-131949404D01*
X133675380Y-131663690D01*
X133627761Y-131568452D01*
X133580142Y-131520833D01*
X132675380Y-132425595D02*
X133675380Y-132758928D01*
X132675380Y-133092261D01*
D11*
X126809476Y-112863380D02*
X127285666Y-112863380D01*
X127333285Y-113339571D01*
X127285666Y-113291952D01*
X127190428Y-113244333D01*
X126952333Y-113244333D01*
X126857095Y-113291952D01*
X126809476Y-113339571D01*
X126761857Y-113434809D01*
X126761857Y-113672904D01*
X126809476Y-113768142D01*
X126857095Y-113815761D01*
X126952333Y-113863380D01*
X127190428Y-113863380D01*
X127285666Y-113815761D01*
X127333285Y-113768142D01*
X126476142Y-112863380D02*
X126142809Y-113863380D01*
X125809476Y-112863380D01*
X126372904Y-90368380D02*
X126372904Y-89368380D01*
X126134809Y-89368380D01*
X125991952Y-89416000D01*
X125896714Y-89511238D01*
X125849095Y-89606476D01*
X125801476Y-89796952D01*
X125801476Y-89939809D01*
X125849095Y-90130285D01*
X125896714Y-90225523D01*
X125991952Y-90320761D01*
X126134809Y-90368380D01*
X126372904Y-90368380D01*
D10*
X156535380Y-127076404D02*
X155535380Y-127076404D01*
X155535380Y-127743071D02*
X155535380Y-127933547D01*
X155583000Y-128028785D01*
X155678238Y-128124023D01*
X155868714Y-128171642D01*
X156202047Y-128171642D01*
X156392523Y-128124023D01*
X156487761Y-128028785D01*
X156535380Y-127933547D01*
X156535380Y-127743071D01*
X156487761Y-127647833D01*
X156392523Y-127552595D01*
X156202047Y-127504976D01*
X155868714Y-127504976D01*
X155678238Y-127552595D01*
X155583000Y-127647833D01*
X155535380Y-127743071D01*
X155535380Y-129076404D02*
X155535380Y-128600214D01*
X156011571Y-128552595D01*
X155963952Y-128600214D01*
X155916333Y-128695452D01*
X155916333Y-128933547D01*
X155963952Y-129028785D01*
X156011571Y-129076404D01*
X156106809Y-129124023D01*
X156344904Y-129124023D01*
X156440142Y-129076404D01*
X156487761Y-129028785D01*
X156535380Y-128933547D01*
X156535380Y-128695452D01*
X156487761Y-128600214D01*
X156440142Y-128552595D01*
X155487761Y-130266880D02*
X156773476Y-129409738D01*
X156487761Y-130552595D02*
X156535380Y-130695452D01*
X156535380Y-130933547D01*
X156487761Y-131028785D01*
X156440142Y-131076404D01*
X156344904Y-131124023D01*
X156249666Y-131124023D01*
X156154428Y-131076404D01*
X156106809Y-131028785D01*
X156059190Y-130933547D01*
X156011571Y-130743071D01*
X155963952Y-130647833D01*
X155916333Y-130600214D01*
X155821095Y-130552595D01*
X155725857Y-130552595D01*
X155630619Y-130600214D01*
X155583000Y-130647833D01*
X155535380Y-130743071D01*
X155535380Y-130981166D01*
X155583000Y-131124023D01*
X156440142Y-132124023D02*
X156487761Y-132076404D01*
X156535380Y-131933547D01*
X156535380Y-131838309D01*
X156487761Y-131695452D01*
X156392523Y-131600214D01*
X156297285Y-131552595D01*
X156106809Y-131504976D01*
X155963952Y-131504976D01*
X155773476Y-131552595D01*
X155678238Y-131600214D01*
X155583000Y-131695452D01*
X155535380Y-131838309D01*
X155535380Y-131933547D01*
X155583000Y-132076404D01*
X155630619Y-132124023D01*
X156535380Y-132552595D02*
X155535380Y-132552595D01*
X156535380Y-133124023D02*
X155963952Y-132695452D01*
X155535380Y-133124023D02*
X156106809Y-132552595D01*
X151455380Y-117695452D02*
X150455380Y-117695452D01*
X150455380Y-118362119D02*
X150455380Y-118552595D01*
X150503000Y-118647833D01*
X150598238Y-118743071D01*
X150788714Y-118790690D01*
X151122047Y-118790690D01*
X151312523Y-118743071D01*
X151407761Y-118647833D01*
X151455380Y-118552595D01*
X151455380Y-118362119D01*
X151407761Y-118266880D01*
X151312523Y-118171642D01*
X151122047Y-118124023D01*
X150788714Y-118124023D01*
X150598238Y-118171642D01*
X150503000Y-118266880D01*
X150455380Y-118362119D01*
X150455380Y-119124023D02*
X150455380Y-119743071D01*
X150836333Y-119409738D01*
X150836333Y-119552595D01*
X150883952Y-119647833D01*
X150931571Y-119695452D01*
X151026809Y-119743071D01*
X151264904Y-119743071D01*
X151360142Y-119695452D01*
X151407761Y-119647833D01*
X151455380Y-119552595D01*
X151455380Y-119266880D01*
X151407761Y-119171642D01*
X151360142Y-119124023D01*
X150455380Y-120600214D02*
X150455380Y-120409738D01*
X150503000Y-120314500D01*
X150550619Y-120266880D01*
X150693476Y-120171642D01*
X150883952Y-120124023D01*
X151264904Y-120124023D01*
X151360142Y-120171642D01*
X151407761Y-120219261D01*
X151455380Y-120314500D01*
X151455380Y-120504976D01*
X151407761Y-120600214D01*
X151360142Y-120647833D01*
X151264904Y-120695452D01*
X151026809Y-120695452D01*
X150931571Y-120647833D01*
X150883952Y-120600214D01*
X150836333Y-120504976D01*
X150836333Y-120314500D01*
X150883952Y-120219261D01*
X150931571Y-120171642D01*
X151026809Y-120124023D01*
X150407761Y-121838309D02*
X151693476Y-120981166D01*
X151169666Y-122124023D02*
X151169666Y-122600214D01*
X151455380Y-122028785D02*
X150455380Y-122362119D01*
X151455380Y-122695452D01*
X150788714Y-123457357D02*
X151455380Y-123457357D01*
X150407761Y-123219261D02*
X151122047Y-122981166D01*
X151122047Y-123600214D01*
X150407761Y-124695452D02*
X151693476Y-123838309D01*
X151407761Y-124981166D02*
X151455380Y-125124023D01*
X151455380Y-125362119D01*
X151407761Y-125457357D01*
X151360142Y-125504976D01*
X151264904Y-125552595D01*
X151169666Y-125552595D01*
X151074428Y-125504976D01*
X151026809Y-125457357D01*
X150979190Y-125362119D01*
X150931571Y-125171642D01*
X150883952Y-125076404D01*
X150836333Y-125028785D01*
X150741095Y-124981166D01*
X150645857Y-124981166D01*
X150550619Y-125028785D01*
X150503000Y-125076404D01*
X150455380Y-125171642D01*
X150455380Y-125409738D01*
X150503000Y-125552595D01*
X150931571Y-125981166D02*
X150931571Y-126314500D01*
X151455380Y-126457357D02*
X151455380Y-125981166D01*
X150455380Y-125981166D01*
X150455380Y-126457357D01*
X151455380Y-126885928D02*
X150455380Y-126885928D01*
X151455380Y-127457357D01*
X150455380Y-127457357D01*
X151407761Y-127885928D02*
X151455380Y-128028785D01*
X151455380Y-128266880D01*
X151407761Y-128362119D01*
X151360142Y-128409738D01*
X151264904Y-128457357D01*
X151169666Y-128457357D01*
X151074428Y-128409738D01*
X151026809Y-128362119D01*
X150979190Y-128266880D01*
X150931571Y-128076404D01*
X150883952Y-127981166D01*
X150836333Y-127933547D01*
X150741095Y-127885928D01*
X150645857Y-127885928D01*
X150550619Y-127933547D01*
X150503000Y-127981166D01*
X150455380Y-128076404D01*
X150455380Y-128314500D01*
X150503000Y-128457357D01*
X150455380Y-129076404D02*
X150455380Y-129266880D01*
X150503000Y-129362119D01*
X150598238Y-129457357D01*
X150788714Y-129504976D01*
X151122047Y-129504976D01*
X151312523Y-129457357D01*
X151407761Y-129362119D01*
X151455380Y-129266880D01*
X151455380Y-129076404D01*
X151407761Y-128981166D01*
X151312523Y-128885928D01*
X151122047Y-128838309D01*
X150788714Y-128838309D01*
X150598238Y-128885928D01*
X150503000Y-128981166D01*
X150455380Y-129076404D01*
X151455380Y-130504976D02*
X150979190Y-130171642D01*
X151455380Y-129933547D02*
X150455380Y-129933547D01*
X150455380Y-130314500D01*
X150503000Y-130409738D01*
X150550619Y-130457357D01*
X150645857Y-130504976D01*
X150788714Y-130504976D01*
X150883952Y-130457357D01*
X150931571Y-130409738D01*
X150979190Y-130314500D01*
X150979190Y-129933547D01*
X151550619Y-130695452D02*
X151550619Y-131457357D01*
X150455380Y-131552595D02*
X151455380Y-131885928D01*
X150455380Y-132219261D01*
X151455380Y-132552595D02*
X150455380Y-132552595D01*
X150455380Y-132933547D01*
X150503000Y-133028785D01*
X150550619Y-133076404D01*
X150645857Y-133124023D01*
X150788714Y-133124023D01*
X150883952Y-133076404D01*
X150931571Y-133028785D01*
X150979190Y-132933547D01*
X150979190Y-132552595D01*
D11*
X127634904Y-130691000D02*
X127730142Y-130643380D01*
X127873000Y-130643380D01*
X128015857Y-130691000D01*
X128111095Y-130786238D01*
X128158714Y-130881476D01*
X128206333Y-131071952D01*
X128206333Y-131214809D01*
X128158714Y-131405285D01*
X128111095Y-131500523D01*
X128015857Y-131595761D01*
X127873000Y-131643380D01*
X127777761Y-131643380D01*
X127634904Y-131595761D01*
X127587285Y-131548142D01*
X127587285Y-131214809D01*
X127777761Y-131214809D01*
X127158714Y-131643380D02*
X127158714Y-130643380D01*
X126587285Y-131643380D01*
X126587285Y-130643380D01*
X126111095Y-131643380D02*
X126111095Y-130643380D01*
X125873000Y-130643380D01*
X125730142Y-130691000D01*
X125634904Y-130786238D01*
X125587285Y-130881476D01*
X125539666Y-131071952D01*
X125539666Y-131214809D01*
X125587285Y-131405285D01*
X125634904Y-131500523D01*
X125730142Y-131595761D01*
X125873000Y-131643380D01*
X126111095Y-131643380D01*
X141390714Y-90011428D02*
X142057380Y-90249523D01*
X141390714Y-90487619D01*
X142057380Y-91392380D02*
X142057380Y-90820952D01*
X142057380Y-91106666D02*
X141057380Y-91106666D01*
X141200238Y-91011428D01*
X141295476Y-90916190D01*
X141343095Y-90820952D01*
X141962142Y-91820952D02*
X142009761Y-91868571D01*
X142057380Y-91820952D01*
X142009761Y-91773333D01*
X141962142Y-91820952D01*
X142057380Y-91820952D01*
X141057380Y-92487619D02*
X141057380Y-92582857D01*
X141105000Y-92678095D01*
X141152619Y-92725714D01*
X141247857Y-92773333D01*
X141438333Y-92820952D01*
X141676428Y-92820952D01*
X141866904Y-92773333D01*
X141962142Y-92725714D01*
X142009761Y-92678095D01*
X142057380Y-92582857D01*
X142057380Y-92487619D01*
X142009761Y-92392380D01*
X141962142Y-92344761D01*
X141866904Y-92297142D01*
X141676428Y-92249523D01*
X141438333Y-92249523D01*
X141247857Y-92297142D01*
X141152619Y-92344761D01*
X141105000Y-92392380D01*
X141057380Y-92487619D01*
D10*
X151455380Y-109423023D02*
X150455380Y-109423023D01*
X150455380Y-110089690D02*
X150455380Y-110280166D01*
X150503000Y-110375404D01*
X150598238Y-110470642D01*
X150788714Y-110518261D01*
X151122047Y-110518261D01*
X151312523Y-110470642D01*
X151407761Y-110375404D01*
X151455380Y-110280166D01*
X151455380Y-110089690D01*
X151407761Y-109994452D01*
X151312523Y-109899214D01*
X151122047Y-109851595D01*
X150788714Y-109851595D01*
X150598238Y-109899214D01*
X150503000Y-109994452D01*
X150455380Y-110089690D01*
X151455380Y-111470642D02*
X151455380Y-110899214D01*
X151455380Y-111184928D02*
X150455380Y-111184928D01*
X150598238Y-111089690D01*
X150693476Y-110994452D01*
X150741095Y-110899214D01*
X150550619Y-111851595D02*
X150503000Y-111899214D01*
X150455380Y-111994452D01*
X150455380Y-112232547D01*
X150503000Y-112327785D01*
X150550619Y-112375404D01*
X150645857Y-112423023D01*
X150741095Y-112423023D01*
X150883952Y-112375404D01*
X151455380Y-111803976D01*
X151455380Y-112423023D01*
X156535380Y-109423023D02*
X155535380Y-109423023D01*
X155535380Y-110089690D02*
X155535380Y-110280166D01*
X155583000Y-110375404D01*
X155678238Y-110470642D01*
X155868714Y-110518261D01*
X156202047Y-110518261D01*
X156392523Y-110470642D01*
X156487761Y-110375404D01*
X156535380Y-110280166D01*
X156535380Y-110089690D01*
X156487761Y-109994452D01*
X156392523Y-109899214D01*
X156202047Y-109851595D01*
X155868714Y-109851595D01*
X155678238Y-109899214D01*
X155583000Y-109994452D01*
X155535380Y-110089690D01*
X155535380Y-110851595D02*
X155535380Y-111470642D01*
X155916333Y-111137309D01*
X155916333Y-111280166D01*
X155963952Y-111375404D01*
X156011571Y-111423023D01*
X156106809Y-111470642D01*
X156344904Y-111470642D01*
X156440142Y-111423023D01*
X156487761Y-111375404D01*
X156535380Y-111280166D01*
X156535380Y-110994452D01*
X156487761Y-110899214D01*
X156440142Y-110851595D01*
X155535380Y-111803976D02*
X155535380Y-112423023D01*
X155916333Y-112089690D01*
X155916333Y-112232547D01*
X155963952Y-112327785D01*
X156011571Y-112375404D01*
X156106809Y-112423023D01*
X156344904Y-112423023D01*
X156440142Y-112375404D01*
X156487761Y-112327785D01*
X156535380Y-112232547D01*
X156535380Y-111946833D01*
X156487761Y-111851595D01*
X156440142Y-111803976D01*
X164028380Y-125409738D02*
X163028380Y-125409738D01*
X163028380Y-126076404D02*
X163028380Y-126266880D01*
X163076000Y-126362119D01*
X163171238Y-126457357D01*
X163361714Y-126504976D01*
X163695047Y-126504976D01*
X163885523Y-126457357D01*
X163980761Y-126362119D01*
X164028380Y-126266880D01*
X164028380Y-126076404D01*
X163980761Y-125981166D01*
X163885523Y-125885928D01*
X163695047Y-125838309D01*
X163361714Y-125838309D01*
X163171238Y-125885928D01*
X163076000Y-125981166D01*
X163028380Y-126076404D01*
X164028380Y-127457357D02*
X164028380Y-126885928D01*
X164028380Y-127171642D02*
X163028380Y-127171642D01*
X163171238Y-127076404D01*
X163266476Y-126981166D01*
X163314095Y-126885928D01*
X163028380Y-128314500D02*
X163028380Y-128124023D01*
X163076000Y-128028785D01*
X163123619Y-127981166D01*
X163266476Y-127885928D01*
X163456952Y-127838309D01*
X163837904Y-127838309D01*
X163933142Y-127885928D01*
X163980761Y-127933547D01*
X164028380Y-128028785D01*
X164028380Y-128219261D01*
X163980761Y-128314500D01*
X163933142Y-128362119D01*
X163837904Y-128409738D01*
X163599809Y-128409738D01*
X163504571Y-128362119D01*
X163456952Y-128314500D01*
X163409333Y-128219261D01*
X163409333Y-128028785D01*
X163456952Y-127933547D01*
X163504571Y-127885928D01*
X163599809Y-127838309D01*
X162980761Y-129552595D02*
X164266476Y-128695452D01*
X164028380Y-130362119D02*
X164028380Y-129885928D01*
X163028380Y-129885928D01*
X163504571Y-130695452D02*
X163504571Y-131028785D01*
X164028380Y-131171642D02*
X164028380Y-130695452D01*
X163028380Y-130695452D01*
X163028380Y-131171642D01*
X164028380Y-131600214D02*
X163028380Y-131600214D01*
X163028380Y-131838309D01*
X163076000Y-131981166D01*
X163171238Y-132076404D01*
X163266476Y-132124023D01*
X163456952Y-132171642D01*
X163599809Y-132171642D01*
X163790285Y-132124023D01*
X163885523Y-132076404D01*
X163980761Y-131981166D01*
X164028380Y-131838309D01*
X164028380Y-131600214D01*
X164028380Y-133124023D02*
X164028380Y-132552595D01*
X164028380Y-132838309D02*
X163028380Y-132838309D01*
X163171238Y-132743071D01*
X163266476Y-132647833D01*
X163314095Y-132552595D01*
X161488380Y-109423023D02*
X160488380Y-109423023D01*
X160488380Y-110089690D02*
X160488380Y-110280166D01*
X160536000Y-110375404D01*
X160631238Y-110470642D01*
X160821714Y-110518261D01*
X161155047Y-110518261D01*
X161345523Y-110470642D01*
X161440761Y-110375404D01*
X161488380Y-110280166D01*
X161488380Y-110089690D01*
X161440761Y-109994452D01*
X161345523Y-109899214D01*
X161155047Y-109851595D01*
X160821714Y-109851595D01*
X160631238Y-109899214D01*
X160536000Y-109994452D01*
X160488380Y-110089690D01*
X160488380Y-110851595D02*
X160488380Y-111470642D01*
X160869333Y-111137309D01*
X160869333Y-111280166D01*
X160916952Y-111375404D01*
X160964571Y-111423023D01*
X161059809Y-111470642D01*
X161297904Y-111470642D01*
X161393142Y-111423023D01*
X161440761Y-111375404D01*
X161488380Y-111280166D01*
X161488380Y-110994452D01*
X161440761Y-110899214D01*
X161393142Y-110851595D01*
X160583619Y-111851595D02*
X160536000Y-111899214D01*
X160488380Y-111994452D01*
X160488380Y-112232547D01*
X160536000Y-112327785D01*
X160583619Y-112375404D01*
X160678857Y-112423023D01*
X160774095Y-112423023D01*
X160916952Y-112375404D01*
X161488380Y-111803976D01*
X161488380Y-112423023D01*
D11*
X126118904Y-129230380D02*
X126118904Y-128230380D01*
X125880809Y-128230380D01*
X125737952Y-128278000D01*
X125642714Y-128373238D01*
X125595095Y-128468476D01*
X125547476Y-128658952D01*
X125547476Y-128801809D01*
X125595095Y-128992285D01*
X125642714Y-129087523D01*
X125737952Y-129182761D01*
X125880809Y-129230380D01*
X126118904Y-129230380D01*
D10*
X153868380Y-109423023D02*
X152868380Y-109423023D01*
X152868380Y-110089690D02*
X152868380Y-110280166D01*
X152916000Y-110375404D01*
X153011238Y-110470642D01*
X153201714Y-110518261D01*
X153535047Y-110518261D01*
X153725523Y-110470642D01*
X153820761Y-110375404D01*
X153868380Y-110280166D01*
X153868380Y-110089690D01*
X153820761Y-109994452D01*
X153725523Y-109899214D01*
X153535047Y-109851595D01*
X153201714Y-109851595D01*
X153011238Y-109899214D01*
X152916000Y-109994452D01*
X152868380Y-110089690D01*
X152963619Y-110899214D02*
X152916000Y-110946833D01*
X152868380Y-111042071D01*
X152868380Y-111280166D01*
X152916000Y-111375404D01*
X152963619Y-111423023D01*
X153058857Y-111470642D01*
X153154095Y-111470642D01*
X153296952Y-111423023D01*
X153868380Y-110851595D01*
X153868380Y-111470642D01*
X152868380Y-111803976D02*
X152868380Y-112470642D01*
X153868380Y-112042071D01*
D11*
X126936476Y-86828380D02*
X127412666Y-86828380D01*
X127460285Y-87304571D01*
X127412666Y-87256952D01*
X127317428Y-87209333D01*
X127079333Y-87209333D01*
X126984095Y-87256952D01*
X126936476Y-87304571D01*
X126888857Y-87399809D01*
X126888857Y-87637904D01*
X126936476Y-87733142D01*
X126984095Y-87780761D01*
X127079333Y-87828380D01*
X127317428Y-87828380D01*
X127412666Y-87780761D01*
X127460285Y-87733142D01*
X126603142Y-86828380D02*
X126269809Y-87828380D01*
X125936476Y-86828380D01*
X126245904Y-103322380D02*
X126245904Y-102322380D01*
X126007809Y-102322380D01*
X125864952Y-102370000D01*
X125769714Y-102465238D01*
X125722095Y-102560476D01*
X125674476Y-102750952D01*
X125674476Y-102893809D01*
X125722095Y-103084285D01*
X125769714Y-103179523D01*
X125864952Y-103274761D01*
X126007809Y-103322380D01*
X126245904Y-103322380D01*
D10*
X143835380Y-122409738D02*
X142835380Y-122409738D01*
X142835380Y-123076404D02*
X142835380Y-123266880D01*
X142883000Y-123362119D01*
X142978238Y-123457357D01*
X143168714Y-123504976D01*
X143502047Y-123504976D01*
X143692523Y-123457357D01*
X143787761Y-123362119D01*
X143835380Y-123266880D01*
X143835380Y-123076404D01*
X143787761Y-122981166D01*
X143692523Y-122885928D01*
X143502047Y-122838309D01*
X143168714Y-122838309D01*
X142978238Y-122885928D01*
X142883000Y-122981166D01*
X142835380Y-123076404D01*
X142930619Y-123885928D02*
X142883000Y-123933547D01*
X142835380Y-124028785D01*
X142835380Y-124266880D01*
X142883000Y-124362119D01*
X142930619Y-124409738D01*
X143025857Y-124457357D01*
X143121095Y-124457357D01*
X143263952Y-124409738D01*
X143835380Y-123838309D01*
X143835380Y-124457357D01*
X142835380Y-125362119D02*
X142835380Y-124885928D01*
X143311571Y-124838309D01*
X143263952Y-124885928D01*
X143216333Y-124981166D01*
X143216333Y-125219261D01*
X143263952Y-125314500D01*
X143311571Y-125362119D01*
X143406809Y-125409738D01*
X143644904Y-125409738D01*
X143740142Y-125362119D01*
X143787761Y-125314500D01*
X143835380Y-125219261D01*
X143835380Y-124981166D01*
X143787761Y-124885928D01*
X143740142Y-124838309D01*
X142787761Y-126552595D02*
X144073476Y-125695452D01*
X143549666Y-126838309D02*
X143549666Y-127314500D01*
X143835380Y-126743071D02*
X142835380Y-127076404D01*
X143835380Y-127409738D01*
X143835380Y-128266880D02*
X143835380Y-127695452D01*
X143835380Y-127981166D02*
X142835380Y-127981166D01*
X142978238Y-127885928D01*
X143073476Y-127790690D01*
X143121095Y-127695452D01*
X142787761Y-129409738D02*
X144073476Y-128552595D01*
X143835380Y-129743071D02*
X142835380Y-129743071D01*
X142835380Y-129981166D01*
X142883000Y-130124023D01*
X142978238Y-130219261D01*
X143073476Y-130266880D01*
X143263952Y-130314500D01*
X143406809Y-130314500D01*
X143597285Y-130266880D01*
X143692523Y-130219261D01*
X143787761Y-130124023D01*
X143835380Y-129981166D01*
X143835380Y-129743071D01*
X143549666Y-130695452D02*
X143549666Y-131171642D01*
X143835380Y-130600214D02*
X142835380Y-130933547D01*
X143835380Y-131266880D01*
X143740142Y-132171642D02*
X143787761Y-132124023D01*
X143835380Y-131981166D01*
X143835380Y-131885928D01*
X143787761Y-131743071D01*
X143692523Y-131647833D01*
X143597285Y-131600214D01*
X143406809Y-131552595D01*
X143263952Y-131552595D01*
X143073476Y-131600214D01*
X142978238Y-131647833D01*
X142883000Y-131743071D01*
X142835380Y-131885928D01*
X142835380Y-131981166D01*
X142883000Y-132124023D01*
X142930619Y-132171642D01*
X143835380Y-133124023D02*
X143835380Y-132552595D01*
X143835380Y-132838309D02*
X142835380Y-132838309D01*
X142978238Y-132743071D01*
X143073476Y-132647833D01*
X143121095Y-132552595D01*
D11*
X127888904Y-91829000D02*
X127984142Y-91781380D01*
X128127000Y-91781380D01*
X128269857Y-91829000D01*
X128365095Y-91924238D01*
X128412714Y-92019476D01*
X128460333Y-92209952D01*
X128460333Y-92352809D01*
X128412714Y-92543285D01*
X128365095Y-92638523D01*
X128269857Y-92733761D01*
X128127000Y-92781380D01*
X128031761Y-92781380D01*
X127888904Y-92733761D01*
X127841285Y-92686142D01*
X127841285Y-92352809D01*
X128031761Y-92352809D01*
X127412714Y-92781380D02*
X127412714Y-91781380D01*
X126841285Y-92781380D01*
X126841285Y-91781380D01*
X126365095Y-92781380D02*
X126365095Y-91781380D01*
X126127000Y-91781380D01*
X125984142Y-91829000D01*
X125888904Y-91924238D01*
X125841285Y-92019476D01*
X125793666Y-92209952D01*
X125793666Y-92352809D01*
X125841285Y-92543285D01*
X125888904Y-92638523D01*
X125984142Y-92733761D01*
X126127000Y-92781380D01*
X126365095Y-92781380D01*
D10*
X145375380Y-111518261D02*
X145375380Y-111042071D01*
X145851571Y-110994452D01*
X145803952Y-111042071D01*
X145756333Y-111137309D01*
X145756333Y-111375404D01*
X145803952Y-111470642D01*
X145851571Y-111518261D01*
X145946809Y-111565880D01*
X146184904Y-111565880D01*
X146280142Y-111518261D01*
X146327761Y-111470642D01*
X146375380Y-111375404D01*
X146375380Y-111137309D01*
X146327761Y-111042071D01*
X146280142Y-110994452D01*
X145375380Y-111851595D02*
X146375380Y-112184928D01*
X145375380Y-112518261D01*
D11*
X127761904Y-117864000D02*
X127857142Y-117816380D01*
X128000000Y-117816380D01*
X128142857Y-117864000D01*
X128238095Y-117959238D01*
X128285714Y-118054476D01*
X128333333Y-118244952D01*
X128333333Y-118387809D01*
X128285714Y-118578285D01*
X128238095Y-118673523D01*
X128142857Y-118768761D01*
X128000000Y-118816380D01*
X127904761Y-118816380D01*
X127761904Y-118768761D01*
X127714285Y-118721142D01*
X127714285Y-118387809D01*
X127904761Y-118387809D01*
X127285714Y-118816380D02*
X127285714Y-117816380D01*
X126714285Y-118816380D01*
X126714285Y-117816380D01*
X126238095Y-118816380D02*
X126238095Y-117816380D01*
X126000000Y-117816380D01*
X125857142Y-117864000D01*
X125761904Y-117959238D01*
X125714285Y-118054476D01*
X125666666Y-118244952D01*
X125666666Y-118387809D01*
X125714285Y-118578285D01*
X125761904Y-118673523D01*
X125857142Y-118768761D01*
X126000000Y-118816380D01*
X126238095Y-118816380D01*
X126809476Y-99782380D02*
X127285666Y-99782380D01*
X127333285Y-100258571D01*
X127285666Y-100210952D01*
X127190428Y-100163333D01*
X126952333Y-100163333D01*
X126857095Y-100210952D01*
X126809476Y-100258571D01*
X126761857Y-100353809D01*
X126761857Y-100591904D01*
X126809476Y-100687142D01*
X126857095Y-100734761D01*
X126952333Y-100782380D01*
X127190428Y-100782380D01*
X127285666Y-100734761D01*
X127333285Y-100687142D01*
X126476142Y-99782380D02*
X126142809Y-100782380D01*
X125809476Y-99782380D01*
%TO.C,LED3*%
X120213380Y-101750952D02*
X120213380Y-101274761D01*
X119213380Y-101274761D01*
X119689571Y-102084285D02*
X119689571Y-102417619D01*
X120213380Y-102560476D02*
X120213380Y-102084285D01*
X119213380Y-102084285D01*
X119213380Y-102560476D01*
X120213380Y-102989047D02*
X119213380Y-102989047D01*
X119213380Y-103227142D01*
X119261000Y-103370000D01*
X119356238Y-103465238D01*
X119451476Y-103512857D01*
X119641952Y-103560476D01*
X119784809Y-103560476D01*
X119975285Y-103512857D01*
X120070523Y-103465238D01*
X120165761Y-103370000D01*
X120213380Y-103227142D01*
X120213380Y-102989047D01*
X119213380Y-103893809D02*
X119213380Y-104512857D01*
X119594333Y-104179523D01*
X119594333Y-104322380D01*
X119641952Y-104417619D01*
X119689571Y-104465238D01*
X119784809Y-104512857D01*
X120022904Y-104512857D01*
X120118142Y-104465238D01*
X120165761Y-104417619D01*
X120213380Y-104322380D01*
X120213380Y-104036666D01*
X120165761Y-103941428D01*
X120118142Y-103893809D01*
%TO.C,LED1*%
X120467380Y-127150952D02*
X120467380Y-126674761D01*
X119467380Y-126674761D01*
X119943571Y-127484285D02*
X119943571Y-127817619D01*
X120467380Y-127960476D02*
X120467380Y-127484285D01*
X119467380Y-127484285D01*
X119467380Y-127960476D01*
X120467380Y-128389047D02*
X119467380Y-128389047D01*
X119467380Y-128627142D01*
X119515000Y-128770000D01*
X119610238Y-128865238D01*
X119705476Y-128912857D01*
X119895952Y-128960476D01*
X120038809Y-128960476D01*
X120229285Y-128912857D01*
X120324523Y-128865238D01*
X120419761Y-128770000D01*
X120467380Y-128627142D01*
X120467380Y-128389047D01*
X120467380Y-129912857D02*
X120467380Y-129341428D01*
X120467380Y-129627142D02*
X119467380Y-129627142D01*
X119610238Y-129531904D01*
X119705476Y-129436666D01*
X119753095Y-129341428D01*
%TO.C,LED4*%
X120340380Y-89177952D02*
X120340380Y-88701761D01*
X119340380Y-88701761D01*
X119816571Y-89511285D02*
X119816571Y-89844619D01*
X120340380Y-89987476D02*
X120340380Y-89511285D01*
X119340380Y-89511285D01*
X119340380Y-89987476D01*
X120340380Y-90416047D02*
X119340380Y-90416047D01*
X119340380Y-90654142D01*
X119388000Y-90797000D01*
X119483238Y-90892238D01*
X119578476Y-90939857D01*
X119768952Y-90987476D01*
X119911809Y-90987476D01*
X120102285Y-90939857D01*
X120197523Y-90892238D01*
X120292761Y-90797000D01*
X120340380Y-90654142D01*
X120340380Y-90416047D01*
X119673714Y-91844619D02*
X120340380Y-91844619D01*
X119292761Y-91606523D02*
X120007047Y-91368428D01*
X120007047Y-91987476D01*
%TO.C,LED2*%
X120340380Y-114831952D02*
X120340380Y-114355761D01*
X119340380Y-114355761D01*
X119816571Y-115165285D02*
X119816571Y-115498619D01*
X120340380Y-115641476D02*
X120340380Y-115165285D01*
X119340380Y-115165285D01*
X119340380Y-115641476D01*
X120340380Y-116070047D02*
X119340380Y-116070047D01*
X119340380Y-116308142D01*
X119388000Y-116451000D01*
X119483238Y-116546238D01*
X119578476Y-116593857D01*
X119768952Y-116641476D01*
X119911809Y-116641476D01*
X120102285Y-116593857D01*
X120197523Y-116546238D01*
X120292761Y-116451000D01*
X120340380Y-116308142D01*
X120340380Y-116070047D01*
X119435619Y-117022428D02*
X119388000Y-117070047D01*
X119340380Y-117165285D01*
X119340380Y-117403380D01*
X119388000Y-117498619D01*
X119435619Y-117546238D01*
X119530857Y-117593857D01*
X119626095Y-117593857D01*
X119768952Y-117546238D01*
X120340380Y-116974809D01*
X120340380Y-117593857D01*
%TO.C,logo*%
G36*
X148171677Y-94520094D02*
G01*
X148206197Y-94577267D01*
X148198683Y-94607433D01*
X148141511Y-94641953D01*
X148111344Y-94634439D01*
X148076825Y-94577267D01*
X148084338Y-94547100D01*
X148141511Y-94512581D01*
X148171677Y-94520094D01*
G37*
G36*
X143091027Y-95805718D02*
G01*
X143118797Y-95877296D01*
X143097222Y-95947276D01*
X143029970Y-95978795D01*
X143024218Y-95978672D01*
X142943218Y-95944505D01*
X142908148Y-95872913D01*
X142936451Y-95797674D01*
X142966626Y-95778910D01*
X143049987Y-95777658D01*
X143091027Y-95805718D01*
G37*
G36*
X147321892Y-96986116D02*
G01*
X147343718Y-97056893D01*
X147329377Y-97119931D01*
X147268251Y-97134932D01*
X147228634Y-97117784D01*
X147192784Y-97056893D01*
X147204095Y-97021377D01*
X147268251Y-96978855D01*
X147321892Y-96986116D01*
G37*
G36*
X146274224Y-99263728D02*
G01*
X146308743Y-99320900D01*
X146301230Y-99351067D01*
X146244057Y-99385586D01*
X146213891Y-99378073D01*
X146179371Y-99320900D01*
X146186885Y-99290734D01*
X146244057Y-99256214D01*
X146274224Y-99263728D01*
G37*
G36*
X146274224Y-93873235D02*
G01*
X146308743Y-93930408D01*
X146301230Y-93960574D01*
X146244057Y-93995094D01*
X146213891Y-93987580D01*
X146179371Y-93930408D01*
X146186885Y-93900241D01*
X146244057Y-93865722D01*
X146274224Y-93873235D01*
G37*
G36*
X143842717Y-97358804D02*
G01*
X144025968Y-97360618D01*
X144141952Y-97367242D01*
X144205919Y-97381578D01*
X144233117Y-97406532D01*
X144238794Y-97445009D01*
X144238710Y-97451874D01*
X144228017Y-97494508D01*
X144186450Y-97518436D01*
X144095567Y-97528930D01*
X143936927Y-97531257D01*
X143789061Y-97538124D01*
X143606327Y-97579952D01*
X143498168Y-97660681D01*
X143462563Y-97781376D01*
X143463423Y-97803922D01*
X143490102Y-97881217D01*
X143563615Y-97929891D01*
X143696784Y-97955225D01*
X143902427Y-97962496D01*
X143980448Y-97962733D01*
X144119805Y-97966829D01*
X144197612Y-97979528D01*
X144231424Y-98005333D01*
X144238794Y-98048744D01*
X144235992Y-98079434D01*
X144214078Y-98109521D01*
X144156054Y-98126240D01*
X144045216Y-98133446D01*
X143864855Y-98134992D01*
X143740210Y-98133631D01*
X143579681Y-98123535D01*
X143476375Y-98101157D01*
X143412054Y-98063622D01*
X143385666Y-98033502D01*
X143339899Y-97909411D01*
X143344464Y-97762040D01*
X143400323Y-97627100D01*
X143433220Y-97577703D01*
X143443347Y-97539052D01*
X143400323Y-97531257D01*
X143361253Y-97516134D01*
X143333191Y-97445009D01*
X143333416Y-97434204D01*
X143342943Y-97399299D01*
X143377716Y-97377207D01*
X143452983Y-97365023D01*
X143583992Y-97359842D01*
X143785993Y-97358761D01*
X143842717Y-97358804D01*
G37*
G36*
X146705054Y-101546648D02*
G01*
X146739983Y-101584907D01*
X146732685Y-101604745D01*
X146675297Y-101628031D01*
X146645539Y-101623166D01*
X146610611Y-101584907D01*
X146617909Y-101565069D01*
X146675297Y-101541783D01*
X146705054Y-101546648D01*
G37*
G36*
X139789435Y-89995036D02*
G01*
X140053004Y-90129111D01*
X140280547Y-90323277D01*
X140459786Y-90571715D01*
X140578441Y-90868608D01*
X140580290Y-90875868D01*
X140599928Y-91056380D01*
X140588701Y-91273359D01*
X140551045Y-91486664D01*
X140491396Y-91656151D01*
X140339553Y-91881015D01*
X140120612Y-92069638D01*
X139858241Y-92186769D01*
X139561232Y-92227012D01*
X139322665Y-92227012D01*
X139322665Y-91148914D01*
X139710781Y-91148914D01*
X139710781Y-91493905D01*
X139710968Y-91561735D01*
X139714866Y-91708699D01*
X139726876Y-91792456D01*
X139750993Y-91830143D01*
X139791213Y-91838897D01*
X139793427Y-91838864D01*
X139883391Y-91811634D01*
X139986132Y-91748841D01*
X140062919Y-91676739D01*
X140177799Y-91491191D01*
X140229680Y-91274682D01*
X140220397Y-91044129D01*
X140151784Y-90816448D01*
X140025676Y-90608556D01*
X139843908Y-90437369D01*
X139768690Y-90387377D01*
X139662568Y-90336677D01*
X139542639Y-90313517D01*
X139372855Y-90307997D01*
X139213813Y-90315877D01*
X138994864Y-90368931D01*
X138817207Y-90481049D01*
X138659583Y-90662806D01*
X138608117Y-90746651D01*
X138523924Y-90986993D01*
X138511632Y-91241125D01*
X138570413Y-91487387D01*
X138699438Y-91704120D01*
X138801905Y-91825896D01*
X138674913Y-91947562D01*
X138636631Y-91983826D01*
X138568877Y-92036681D01*
X138520590Y-92037148D01*
X138461889Y-91991371D01*
X138381728Y-91902584D01*
X138264540Y-91696516D01*
X138186606Y-91450276D01*
X138158319Y-91191253D01*
X138163721Y-91050410D01*
X138226705Y-90723539D01*
X138360005Y-90446145D01*
X138563146Y-90219031D01*
X138835654Y-90043003D01*
X138905363Y-90011513D01*
X139203336Y-89930419D01*
X139502119Y-89926866D01*
X139789435Y-89995036D01*
G37*
G36*
X146047131Y-96127955D02*
G01*
X146054754Y-96133041D01*
X146091324Y-96197246D01*
X146049695Y-96259289D01*
X146022359Y-96262841D01*
X145979682Y-96216850D01*
X145968303Y-96171447D01*
X145986691Y-96118219D01*
X146047131Y-96127955D01*
G37*
G36*
X146718102Y-94307976D02*
G01*
X146739983Y-94361647D01*
X146732946Y-94397251D01*
X146693624Y-94418068D01*
X146680839Y-94412211D01*
X146647266Y-94361647D01*
X146649070Y-94349747D01*
X146693624Y-94305227D01*
X146718102Y-94307976D01*
G37*
G36*
X145849927Y-99846747D02*
G01*
X145874584Y-99889164D01*
X145867062Y-99957163D01*
X145812818Y-99989321D01*
X145782707Y-99982132D01*
X145748132Y-99927180D01*
X145755298Y-99886060D01*
X145797161Y-99836718D01*
X145849927Y-99846747D01*
G37*
G36*
X145630938Y-100732543D02*
G01*
X145661884Y-100787114D01*
X145650550Y-100826771D01*
X145586417Y-100843590D01*
X145531782Y-100816624D01*
X145528681Y-100767365D01*
X145594920Y-100730047D01*
X145630938Y-100732543D01*
G37*
G36*
X147747993Y-96339794D02*
G01*
X147774957Y-96410034D01*
X147762951Y-96460330D01*
X147710271Y-96496282D01*
X147672550Y-96480274D01*
X147645585Y-96410034D01*
X147657591Y-96359739D01*
X147710271Y-96323786D01*
X147747993Y-96339794D01*
G37*
G36*
X145403141Y-100054007D02*
G01*
X145444545Y-100108892D01*
X145429392Y-100174252D01*
X145360017Y-100204941D01*
X145309674Y-100193178D01*
X145273769Y-100142800D01*
X145280251Y-100104467D01*
X145330809Y-100048387D01*
X145403141Y-100054007D01*
G37*
G36*
X147528391Y-98619470D02*
G01*
X147559337Y-98674041D01*
X147548003Y-98713698D01*
X147483871Y-98730517D01*
X147429235Y-98703551D01*
X147426134Y-98654292D01*
X147492374Y-98616974D01*
X147528391Y-98619470D01*
G37*
G36*
X145424439Y-97374231D02*
G01*
X145446264Y-97445009D01*
X145431924Y-97508046D01*
X145370798Y-97523047D01*
X145331180Y-97505899D01*
X145295331Y-97445009D01*
X145306642Y-97409493D01*
X145370798Y-97366970D01*
X145424439Y-97374231D01*
G37*
G36*
X147321892Y-95304282D02*
G01*
X147343718Y-95375060D01*
X147329377Y-95438097D01*
X147268251Y-95453098D01*
X147228634Y-95435950D01*
X147192784Y-95375060D01*
X147204095Y-95339544D01*
X147268251Y-95297021D01*
X147321892Y-95304282D01*
G37*
G36*
X147321892Y-99487304D02*
G01*
X147343718Y-99558082D01*
X147329377Y-99621119D01*
X147268251Y-99636120D01*
X147228634Y-99618972D01*
X147192784Y-99558082D01*
X147204095Y-99522566D01*
X147268251Y-99480043D01*
X147321892Y-99487304D01*
G37*
G36*
X146274224Y-95555069D02*
G01*
X146308743Y-95612241D01*
X146301230Y-95642408D01*
X146244057Y-95676927D01*
X146213891Y-95669414D01*
X146179371Y-95612241D01*
X146186885Y-95582075D01*
X146244057Y-95547555D01*
X146274224Y-95555069D01*
G37*
G36*
X145424439Y-101298509D02*
G01*
X145446264Y-101369287D01*
X145431924Y-101432325D01*
X145370798Y-101447326D01*
X145331180Y-101430178D01*
X145295331Y-101369287D01*
X145306642Y-101333771D01*
X145370798Y-101291249D01*
X145424439Y-101298509D01*
G37*
G36*
X138837886Y-95384611D02*
G01*
X138942917Y-95417867D01*
X139102499Y-95470230D01*
X139302019Y-95536752D01*
X139526859Y-95612486D01*
X139762407Y-95692486D01*
X139994045Y-95771804D01*
X140207159Y-95845494D01*
X140387134Y-95908607D01*
X140519354Y-95956198D01*
X140555772Y-96001840D01*
X140572495Y-96096032D01*
X140569055Y-96139552D01*
X140549493Y-96183266D01*
X140500957Y-96225604D01*
X140410594Y-96274728D01*
X140265554Y-96338799D01*
X140052986Y-96425981D01*
X140013869Y-96441885D01*
X139827903Y-96519549D01*
X139679321Y-96584965D01*
X139582406Y-96631666D01*
X139551438Y-96653182D01*
X139552172Y-96653791D01*
X139601423Y-96678716D01*
X139713038Y-96729839D01*
X139871218Y-96800049D01*
X140060166Y-96882232D01*
X140197372Y-96941822D01*
X140360154Y-97016019D01*
X140464907Y-97072115D01*
X140525018Y-97119121D01*
X140553877Y-97166049D01*
X140564874Y-97221910D01*
X140578051Y-97349734D01*
X139670052Y-97652766D01*
X138762054Y-97955797D01*
X138762054Y-97588904D01*
X139364158Y-97402390D01*
X139462104Y-97371593D01*
X139658949Y-97306603D01*
X139814935Y-97250798D01*
X139916124Y-97209307D01*
X139948578Y-97187262D01*
X139916619Y-97166129D01*
X139819288Y-97116199D01*
X139673623Y-97047290D01*
X139496532Y-96967618D01*
X139405655Y-96927475D01*
X139245577Y-96853941D01*
X139145755Y-96799850D01*
X139092789Y-96755299D01*
X139073279Y-96710383D01*
X139073827Y-96655198D01*
X139074921Y-96645182D01*
X139089826Y-96590626D01*
X139128723Y-96542115D01*
X139205520Y-96489851D01*
X139334123Y-96424033D01*
X139528441Y-96334862D01*
X139687683Y-96260116D01*
X139826605Y-96187811D01*
X139914863Y-96133178D01*
X139938118Y-96104285D01*
X139930769Y-96099599D01*
X139858026Y-96069393D01*
X139723552Y-96021239D01*
X139543355Y-95960720D01*
X139333446Y-95893418D01*
X138762054Y-95714181D01*
X138762054Y-95544620D01*
X138762979Y-95508574D01*
X138776983Y-95413281D01*
X138802476Y-95375060D01*
X138837886Y-95384611D01*
G37*
G36*
X146274224Y-99048108D02*
G01*
X146308743Y-99105280D01*
X146301230Y-99135447D01*
X146244057Y-99169966D01*
X146213891Y-99162453D01*
X146179371Y-99105280D01*
X146186885Y-99075114D01*
X146244057Y-99040595D01*
X146274224Y-99048108D01*
G37*
G36*
X145657051Y-99893439D02*
G01*
X145651522Y-99958573D01*
X145599743Y-99989321D01*
X145573185Y-99986450D01*
X145516341Y-99954919D01*
X145515335Y-99953222D01*
X145515337Y-99890892D01*
X145558239Y-99839333D01*
X145613939Y-99835408D01*
X145657051Y-99893439D01*
G37*
G36*
X147944584Y-98241028D02*
G01*
X147952208Y-98246114D01*
X147988777Y-98310319D01*
X147947148Y-98372362D01*
X147919813Y-98375914D01*
X147877135Y-98329923D01*
X147865756Y-98284520D01*
X147884145Y-98231292D01*
X147944584Y-98241028D01*
G37*
G36*
X146274022Y-101766277D02*
G01*
X146308743Y-101825682D01*
X146283851Y-101872801D01*
X146232177Y-101865560D01*
X146189254Y-101808612D01*
X146190169Y-101782477D01*
X146240464Y-101757403D01*
X146274022Y-101766277D01*
G37*
G36*
X145424439Y-98236710D02*
G01*
X145446264Y-98307488D01*
X145431924Y-98370525D01*
X145370798Y-98385526D01*
X145331180Y-98368378D01*
X145295331Y-98307488D01*
X145306642Y-98271972D01*
X145370798Y-98229449D01*
X145424439Y-98236710D01*
G37*
G36*
X144989072Y-99036950D02*
G01*
X144989329Y-99037164D01*
X145030466Y-99110176D01*
X145012343Y-99181181D01*
X144944372Y-99213090D01*
X144878399Y-99179745D01*
X144850783Y-99105036D01*
X144878099Y-99030899D01*
X144918355Y-99007356D01*
X144989072Y-99036950D01*
G37*
G36*
X146058604Y-93657616D02*
G01*
X146093124Y-93714788D01*
X146085610Y-93744955D01*
X146028438Y-93779474D01*
X145998271Y-93771960D01*
X145963752Y-93714788D01*
X145971265Y-93684621D01*
X146028438Y-93650102D01*
X146058604Y-93657616D01*
G37*
G36*
X147740438Y-99479347D02*
G01*
X147774957Y-99536520D01*
X147767444Y-99566686D01*
X147710271Y-99601206D01*
X147680105Y-99593692D01*
X147645585Y-99536520D01*
X147653099Y-99506353D01*
X147710271Y-99471834D01*
X147740438Y-99479347D01*
G37*
G36*
X147746503Y-97583807D02*
G01*
X147767338Y-97641344D01*
X147739144Y-97700110D01*
X147689737Y-97710600D01*
X147653795Y-97649848D01*
X147655896Y-97605382D01*
X147710271Y-97574381D01*
X147746503Y-97583807D01*
G37*
G36*
X146274022Y-95125191D02*
G01*
X146308743Y-95184596D01*
X146301523Y-95217037D01*
X146257534Y-95235805D01*
X146200769Y-95193177D01*
X146193239Y-95141454D01*
X146240464Y-95116316D01*
X146274022Y-95125191D01*
G37*
G36*
X146064669Y-97799426D02*
G01*
X146085505Y-97856964D01*
X146057311Y-97915730D01*
X146007904Y-97926220D01*
X145971961Y-97865467D01*
X145974063Y-97821001D01*
X146028438Y-97790000D01*
X146064669Y-97799426D01*
G37*
G36*
X145849927Y-95318734D02*
G01*
X145874584Y-95361151D01*
X145867062Y-95429149D01*
X145812818Y-95461308D01*
X145782707Y-95454118D01*
X145748132Y-95399167D01*
X145755298Y-95358047D01*
X145797161Y-95308705D01*
X145849927Y-95318734D01*
G37*
G36*
X146274224Y-94520094D02*
G01*
X146308743Y-94577267D01*
X146301230Y-94607433D01*
X146244057Y-94641953D01*
X146213891Y-94634439D01*
X146179371Y-94577267D01*
X146186885Y-94547100D01*
X146244057Y-94512581D01*
X146274224Y-94520094D01*
G37*
G36*
X147317940Y-94501178D02*
G01*
X147324392Y-94509236D01*
X147343718Y-94577267D01*
X147342895Y-94590682D01*
X147317940Y-94653356D01*
X147269171Y-94666495D01*
X147203211Y-94635924D01*
X147171222Y-94577267D01*
X147194684Y-94526668D01*
X147258249Y-94490066D01*
X147317940Y-94501178D01*
G37*
G36*
X150467305Y-95527619D02*
G01*
X150590535Y-95594778D01*
X150714773Y-95712724D01*
X150826138Y-95865261D01*
X150910748Y-96036192D01*
X150954722Y-96209317D01*
X150963025Y-96262640D01*
X151001214Y-96391065D01*
X151051699Y-96474107D01*
X151097237Y-96506255D01*
X151148924Y-96507832D01*
X151226730Y-96471008D01*
X151352494Y-96389650D01*
X151461850Y-96319794D01*
X151576307Y-96266335D01*
X151698078Y-96242797D01*
X151866500Y-96237539D01*
X152009021Y-96246105D01*
X152249214Y-96299502D01*
X152507203Y-96406244D01*
X152794427Y-96571458D01*
X153122326Y-96800270D01*
X153225209Y-96875881D01*
X153398552Y-96999148D01*
X153552050Y-97103598D01*
X153661375Y-97172435D01*
X153773074Y-97226221D01*
X153936640Y-97267412D01*
X154072787Y-97258089D01*
X154165915Y-97200445D01*
X154200424Y-97096673D01*
X154200429Y-97095246D01*
X154235593Y-96994040D01*
X154323155Y-96945570D01*
X154438883Y-96963381D01*
X154545416Y-97011920D01*
X154545416Y-98372967D01*
X154545168Y-98709655D01*
X154543960Y-99024886D01*
X154541251Y-99272459D01*
X154536505Y-99462320D01*
X154529187Y-99604413D01*
X154518762Y-99708684D01*
X154504692Y-99785077D01*
X154486444Y-99843537D01*
X154463480Y-99894010D01*
X154462806Y-99895322D01*
X154320739Y-100083439D01*
X154107331Y-100246453D01*
X153835685Y-100376435D01*
X153518904Y-100465460D01*
X153445293Y-100478748D01*
X153268280Y-100497719D01*
X153090195Y-100493408D01*
X152891423Y-100463294D01*
X152652349Y-100404853D01*
X152353359Y-100315564D01*
X152275943Y-100291832D01*
X151909155Y-100200896D01*
X151595765Y-100165364D01*
X151324609Y-100185851D01*
X151084523Y-100262967D01*
X150864342Y-100397328D01*
X150808834Y-100436076D01*
X150648801Y-100500054D01*
X150499658Y-100479950D01*
X150353758Y-100375436D01*
X150275429Y-100286624D01*
X150240870Y-100200488D01*
X150247536Y-100089086D01*
X150251404Y-100067648D01*
X150334838Y-99848287D01*
X150482688Y-99656961D01*
X150675031Y-99520182D01*
X150697170Y-99509779D01*
X150876883Y-99449421D01*
X151069876Y-99430821D01*
X151287174Y-99456133D01*
X151539804Y-99527510D01*
X151838791Y-99647106D01*
X152195161Y-99817075D01*
X152369065Y-99902723D01*
X152654624Y-100030780D01*
X152884507Y-100112928D01*
X153068462Y-100151655D01*
X153216232Y-100149448D01*
X153337563Y-100108798D01*
X153429451Y-100029701D01*
X153463738Y-99933749D01*
X153429865Y-99848372D01*
X153391445Y-99827425D01*
X153284198Y-99795854D01*
X153143226Y-99770113D01*
X152877402Y-99708133D01*
X152543766Y-99566431D01*
X152213798Y-99362662D01*
X151902954Y-99108157D01*
X151626686Y-98814248D01*
X151400449Y-98492266D01*
X151361650Y-98427961D01*
X151201001Y-98187913D01*
X151038154Y-97981573D01*
X150885731Y-97823881D01*
X150756352Y-97729778D01*
X150666625Y-97699005D01*
X150516947Y-97666761D01*
X150347744Y-97643379D01*
X150027605Y-97582287D01*
X149748671Y-97459100D01*
X149531079Y-97275603D01*
X149483440Y-97225868D01*
X149340143Y-97102895D01*
X149190084Y-97000434D01*
X149174561Y-96991252D01*
X149045348Y-96898446D01*
X148928034Y-96789772D01*
X148842825Y-96686079D01*
X148809932Y-96608216D01*
X148844884Y-96595745D01*
X148944465Y-96586188D01*
X149086019Y-96582530D01*
X149119225Y-96582492D01*
X149256484Y-96578883D01*
X149334581Y-96563117D01*
X149376408Y-96526386D01*
X149404860Y-96459884D01*
X149417091Y-96428281D01*
X149534474Y-96242506D01*
X149721921Y-96061003D01*
X149966258Y-95896979D01*
X150058153Y-95841777D01*
X150192347Y-95738566D01*
X150251602Y-95651890D01*
X150285199Y-95586437D01*
X150367676Y-95524317D01*
X150467305Y-95527619D01*
G37*
G36*
X145424439Y-101514129D02*
G01*
X145446264Y-101584907D01*
X145431924Y-101647944D01*
X145370798Y-101662945D01*
X145331180Y-101645797D01*
X145295331Y-101584907D01*
X145306642Y-101549391D01*
X145370798Y-101506869D01*
X145424439Y-101514129D01*
G37*
G36*
X145424439Y-101729749D02*
G01*
X145446264Y-101800527D01*
X145431924Y-101863564D01*
X145370798Y-101878565D01*
X145331180Y-101861417D01*
X145295331Y-101800527D01*
X145306642Y-101765011D01*
X145370798Y-101722488D01*
X145424439Y-101729749D01*
G37*
G36*
X146058604Y-95339449D02*
G01*
X146093124Y-95396622D01*
X146085610Y-95426788D01*
X146028438Y-95461308D01*
X145998271Y-95453794D01*
X145963752Y-95396622D01*
X145971265Y-95366455D01*
X146028438Y-95331936D01*
X146058604Y-95339449D01*
G37*
G36*
X148171677Y-99048108D02*
G01*
X148206197Y-99105280D01*
X148198683Y-99135447D01*
X148141511Y-99169966D01*
X148111344Y-99162453D01*
X148076825Y-99105280D01*
X148084338Y-99075114D01*
X148141511Y-99040595D01*
X148171677Y-99048108D01*
G37*
G36*
X147037221Y-96340319D02*
G01*
X147108548Y-96363124D01*
X147128098Y-96410034D01*
X147116747Y-96448801D01*
X147058661Y-96476359D01*
X146934040Y-96485555D01*
X146814367Y-96481657D01*
X146755078Y-96459234D01*
X146739983Y-96410034D01*
X146754100Y-96361866D01*
X146811781Y-96338768D01*
X146934040Y-96334513D01*
X147037221Y-96340319D01*
G37*
G36*
X147740438Y-94088855D02*
G01*
X147774957Y-94146027D01*
X147767444Y-94176194D01*
X147710271Y-94210713D01*
X147680105Y-94203200D01*
X147645585Y-94146027D01*
X147653099Y-94115861D01*
X147710271Y-94081342D01*
X147740438Y-94088855D01*
G37*
G36*
X146047131Y-98241028D02*
G01*
X146054754Y-98246114D01*
X146091324Y-98310319D01*
X146049695Y-98372362D01*
X146022359Y-98375914D01*
X145979682Y-98329923D01*
X145968303Y-98284520D01*
X145986691Y-98231292D01*
X146047131Y-98241028D01*
G37*
G36*
X146718102Y-94092357D02*
G01*
X146739983Y-94146027D01*
X146732946Y-94181631D01*
X146693624Y-94202448D01*
X146680839Y-94196592D01*
X146647266Y-94146027D01*
X146649070Y-94134127D01*
X146693624Y-94089607D01*
X146718102Y-94092357D01*
G37*
G36*
X145424439Y-96339256D02*
G01*
X145446264Y-96410034D01*
X145431924Y-96473072D01*
X145370798Y-96488073D01*
X145331180Y-96470925D01*
X145295331Y-96410034D01*
X145306642Y-96374518D01*
X145370798Y-96331996D01*
X145424439Y-96339256D01*
G37*
G36*
X148171677Y-99479347D02*
G01*
X148206197Y-99536520D01*
X148198683Y-99566686D01*
X148141511Y-99601206D01*
X148111344Y-99593692D01*
X148076825Y-99536520D01*
X148084338Y-99506353D01*
X148141511Y-99471834D01*
X148171677Y-99479347D01*
G37*
G36*
X146274022Y-101550657D02*
G01*
X146308743Y-101610063D01*
X146301523Y-101642504D01*
X146257534Y-101661272D01*
X146200769Y-101618644D01*
X146193239Y-101566921D01*
X146240464Y-101541783D01*
X146274022Y-101550657D01*
G37*
G36*
X146710900Y-101764439D02*
G01*
X146731717Y-101803761D01*
X146725861Y-101816546D01*
X146675297Y-101850119D01*
X146663397Y-101848315D01*
X146618876Y-101803761D01*
X146621626Y-101779284D01*
X146675297Y-101757403D01*
X146710900Y-101764439D01*
G37*
G36*
X147088832Y-93611289D02*
G01*
X147122089Y-93663271D01*
X147125402Y-93739455D01*
X147093696Y-93795645D01*
X147069551Y-93801180D01*
X146998114Y-93779095D01*
X146964221Y-93765886D01*
X146879754Y-93788738D01*
X146869386Y-93796382D01*
X146799999Y-93805675D01*
X146752803Y-93756969D01*
X146754465Y-93674563D01*
X146764562Y-93655285D01*
X146821433Y-93613557D01*
X146883391Y-93613437D01*
X146912478Y-93658727D01*
X146921496Y-93688729D01*
X146964227Y-93658727D01*
X146994108Y-93635081D01*
X147072037Y-93606978D01*
X147088832Y-93611289D01*
G37*
G36*
X145848755Y-101096169D02*
G01*
X145874254Y-101139771D01*
X145867118Y-101207881D01*
X145812818Y-101239915D01*
X145775096Y-101223907D01*
X145748132Y-101153668D01*
X145751489Y-101117191D01*
X145787213Y-101068541D01*
X145848755Y-101096169D01*
G37*
G36*
X147956058Y-98616869D02*
G01*
X147990577Y-98674041D01*
X147983063Y-98704208D01*
X147925891Y-98738727D01*
X147895724Y-98731213D01*
X147861205Y-98674041D01*
X147868719Y-98643874D01*
X147925891Y-98609355D01*
X147956058Y-98616869D01*
G37*
G36*
X147321892Y-98021090D02*
G01*
X147343718Y-98091868D01*
X147329377Y-98154905D01*
X147268251Y-98169906D01*
X147228634Y-98152758D01*
X147192784Y-98091868D01*
X147204095Y-98056352D01*
X147268251Y-98013830D01*
X147321892Y-98021090D01*
G37*
G36*
X146888857Y-97565115D02*
G01*
X146934411Y-97579316D01*
X147031069Y-97580745D01*
X147104816Y-97588566D01*
X147128098Y-97651662D01*
X147117944Y-97699438D01*
X147066704Y-97727941D01*
X146951992Y-97735115D01*
X146814946Y-97719069D01*
X146751651Y-97671958D01*
X146758796Y-97604444D01*
X146816181Y-97558378D01*
X146888857Y-97565115D01*
G37*
G36*
X147321892Y-95088662D02*
G01*
X147343718Y-95159440D01*
X147329377Y-95222477D01*
X147268251Y-95237478D01*
X147228634Y-95220330D01*
X147192784Y-95159440D01*
X147204095Y-95123924D01*
X147268251Y-95081402D01*
X147321892Y-95088662D01*
G37*
G36*
X147321892Y-96123637D02*
G01*
X147343718Y-96194415D01*
X147329377Y-96257452D01*
X147268251Y-96272453D01*
X147228634Y-96255305D01*
X147192784Y-96194415D01*
X147204095Y-96158899D01*
X147268251Y-96116376D01*
X147321892Y-96123637D01*
G37*
G36*
X146065547Y-101097341D02*
G01*
X146090204Y-101139758D01*
X146082682Y-101207757D01*
X146028438Y-101239915D01*
X145998327Y-101232726D01*
X145963752Y-101177775D01*
X145970918Y-101136655D01*
X146012781Y-101087312D01*
X146065547Y-101097341D01*
G37*
G36*
X145403141Y-100485247D02*
G01*
X145444545Y-100540132D01*
X145429392Y-100605492D01*
X145360017Y-100636180D01*
X145309674Y-100624417D01*
X145273769Y-100574039D01*
X145280251Y-100535706D01*
X145330809Y-100479626D01*
X145403141Y-100485247D01*
G37*
G36*
X146274224Y-95339449D02*
G01*
X146308743Y-95396622D01*
X146301230Y-95426788D01*
X146244057Y-95461308D01*
X146213891Y-95453794D01*
X146179371Y-95396622D01*
X146186885Y-95366455D01*
X146244057Y-95331936D01*
X146274224Y-95339449D01*
G37*
G36*
X147537512Y-96339256D02*
G01*
X147559337Y-96410034D01*
X147544997Y-96473072D01*
X147483871Y-96488073D01*
X147444253Y-96470925D01*
X147408404Y-96410034D01*
X147419715Y-96374518D01*
X147483871Y-96331996D01*
X147537512Y-96339256D01*
G37*
G36*
X140009191Y-93417302D02*
G01*
X140149048Y-93488006D01*
X140263715Y-93567946D01*
X140451689Y-93773807D01*
X140575848Y-94028042D01*
X140596052Y-94126996D01*
X140595235Y-94331533D01*
X140554149Y-94548266D01*
X140477934Y-94739835D01*
X140381954Y-94879199D01*
X140189977Y-95047892D01*
X139961076Y-95154848D01*
X139711428Y-95198043D01*
X139457212Y-95175452D01*
X139214606Y-95085051D01*
X138999787Y-94924814D01*
X138958206Y-94880945D01*
X138802479Y-94649983D01*
X138729861Y-94399420D01*
X138731496Y-94361458D01*
X139067511Y-94361458D01*
X139121418Y-94543945D01*
X139239576Y-94693800D01*
X139318988Y-94749202D01*
X139510962Y-94822009D01*
X139717183Y-94836670D01*
X139915882Y-94796170D01*
X140085292Y-94703494D01*
X140203644Y-94561626D01*
X140219852Y-94526468D01*
X140262818Y-94348561D01*
X140260784Y-94160325D01*
X140213051Y-94003277D01*
X140208779Y-93995798D01*
X140086646Y-93865502D01*
X139911945Y-93776229D01*
X139709549Y-93733404D01*
X139504327Y-93742449D01*
X139321153Y-93808789D01*
X139270551Y-93843230D01*
X139144152Y-93988598D01*
X139075780Y-94168842D01*
X139067511Y-94361458D01*
X138731496Y-94361458D01*
X138741243Y-94135105D01*
X138837521Y-93862884D01*
X138950016Y-93684707D01*
X139140158Y-93508624D01*
X139377295Y-93404220D01*
X139664275Y-93369797D01*
X139699881Y-93369987D01*
X139709549Y-93370618D01*
X139873171Y-93381303D01*
X140009191Y-93417302D01*
G37*
G36*
X146058604Y-94520094D02*
G01*
X146093124Y-94577267D01*
X146085610Y-94607433D01*
X146028438Y-94641953D01*
X145998271Y-94634439D01*
X145963752Y-94577267D01*
X145971265Y-94547100D01*
X146028438Y-94512581D01*
X146058604Y-94520094D01*
G37*
G36*
X145399309Y-94273032D02*
G01*
X145403747Y-94276953D01*
X145422958Y-94336167D01*
X145430853Y-94434600D01*
X145428004Y-94541005D01*
X145414982Y-94624132D01*
X145392360Y-94652734D01*
X145389092Y-94651710D01*
X145316893Y-94641953D01*
X145311840Y-94641679D01*
X145277081Y-94607226D01*
X145283379Y-94544266D01*
X145327674Y-94494613D01*
X145359387Y-94472622D01*
X145327674Y-94444301D01*
X145294482Y-94416767D01*
X145276191Y-94341045D01*
X145316893Y-94275399D01*
X145330474Y-94268937D01*
X145399309Y-94273032D01*
G37*
G36*
X147555938Y-93682231D02*
G01*
X147549448Y-93747639D01*
X147501839Y-93779474D01*
X147480962Y-93777831D01*
X147415965Y-93751099D01*
X147409082Y-93740396D01*
X147420931Y-93686136D01*
X147468909Y-93637761D01*
X147521100Y-93631560D01*
X147555938Y-93682231D01*
G37*
G36*
X139811780Y-103964325D02*
G01*
X140052640Y-104033731D01*
X140267684Y-104163714D01*
X140442193Y-104350889D01*
X140561448Y-104591873D01*
X140600970Y-104833038D01*
X140574641Y-105102087D01*
X140482998Y-105362548D01*
X140481076Y-105366383D01*
X140403300Y-105505664D01*
X140338696Y-105572110D01*
X140271760Y-105573934D01*
X140186987Y-105519349D01*
X140089526Y-105440430D01*
X140180298Y-105291531D01*
X140228306Y-105189452D01*
X140270103Y-104977647D01*
X140255409Y-104758715D01*
X140184038Y-104568645D01*
X140129708Y-104501358D01*
X140013911Y-104405285D01*
X139884974Y-104331318D01*
X139776852Y-104301715D01*
X139771731Y-104319149D01*
X139764652Y-104408022D01*
X139759001Y-104559360D01*
X139755259Y-104758730D01*
X139753905Y-104991698D01*
X139753905Y-105681681D01*
X139562654Y-105681681D01*
X139544025Y-105681571D01*
X139327180Y-105656517D01*
X139145552Y-105578110D01*
X138966359Y-105432659D01*
X138918247Y-105381999D01*
X138782960Y-105168012D01*
X138733497Y-104972273D01*
X139065161Y-104972273D01*
X139108324Y-105123459D01*
X139149080Y-105172610D01*
X139242916Y-105247627D01*
X139348111Y-105310389D01*
X139428333Y-105336690D01*
X139437149Y-105300923D01*
X139444878Y-105195074D01*
X139450111Y-105036014D01*
X139452037Y-104840764D01*
X139451059Y-104658242D01*
X139444671Y-104494957D01*
X139428460Y-104397708D01*
X139398053Y-104355201D01*
X139349075Y-104356143D01*
X139277153Y-104389241D01*
X139188013Y-104470542D01*
X139111576Y-104617245D01*
X139068435Y-104794012D01*
X139065161Y-104972273D01*
X138733497Y-104972273D01*
X138723177Y-104931433D01*
X138738568Y-104686784D01*
X138828806Y-104448584D01*
X138993561Y-104231355D01*
X139081484Y-104153412D01*
X139311483Y-104020781D01*
X139398053Y-103999202D01*
X139559821Y-103958880D01*
X139811780Y-103964325D01*
G37*
G36*
X148171677Y-93657616D02*
G01*
X148206197Y-93714788D01*
X148198683Y-93744955D01*
X148141511Y-93779474D01*
X148111344Y-93771960D01*
X148076825Y-93714788D01*
X148084338Y-93684621D01*
X148141511Y-93650102D01*
X148171677Y-93657616D01*
G37*
G36*
X146495281Y-101980059D02*
G01*
X146516097Y-102019381D01*
X146510241Y-102032166D01*
X146459677Y-102065739D01*
X146447777Y-102063935D01*
X146403257Y-102019381D01*
X146406006Y-101994903D01*
X146459677Y-101973022D01*
X146495281Y-101980059D01*
G37*
G36*
X146892981Y-95305199D02*
G01*
X146915808Y-95315795D01*
X146953008Y-95371838D01*
X146907224Y-95449313D01*
X146845634Y-95478429D01*
X146773200Y-95459236D01*
X146739983Y-95394553D01*
X146745374Y-95360986D01*
X146801425Y-95303289D01*
X146892981Y-95305199D01*
G37*
G36*
X145842985Y-99048108D02*
G01*
X145877504Y-99105280D01*
X145869990Y-99135447D01*
X145812818Y-99169966D01*
X145782651Y-99162453D01*
X145748132Y-99105280D01*
X145755646Y-99075114D01*
X145812818Y-99040595D01*
X145842985Y-99048108D01*
G37*
G36*
X147956058Y-94304475D02*
G01*
X147990577Y-94361647D01*
X147983063Y-94391814D01*
X147925891Y-94426333D01*
X147895724Y-94418820D01*
X147861205Y-94361647D01*
X147868719Y-94331481D01*
X147925891Y-94296961D01*
X147956058Y-94304475D01*
G37*
G36*
X147740438Y-98616869D02*
G01*
X147774957Y-98674041D01*
X147767444Y-98704208D01*
X147710271Y-98738727D01*
X147680105Y-98731213D01*
X147645585Y-98674041D01*
X147653099Y-98643874D01*
X147710271Y-98609355D01*
X147740438Y-98616869D01*
G37*
G36*
X145424439Y-96554876D02*
G01*
X145446264Y-96625654D01*
X145431924Y-96688691D01*
X145370798Y-96703692D01*
X145331180Y-96686544D01*
X145295331Y-96625654D01*
X145306642Y-96590138D01*
X145370798Y-96547616D01*
X145424439Y-96554876D01*
G37*
G36*
X139564820Y-98232972D02*
G01*
X139802005Y-98272010D01*
X139991086Y-98339108D01*
X140192915Y-98474426D01*
X140398278Y-98697069D01*
X140536993Y-98962222D01*
X140554284Y-99015811D01*
X140597285Y-99299456D01*
X140574557Y-99598665D01*
X140490524Y-99885779D01*
X140349613Y-100133140D01*
X140327853Y-100160119D01*
X140287106Y-100187654D01*
X140229706Y-100173970D01*
X140127293Y-100117012D01*
X140092881Y-100096437D01*
X140014574Y-100041123D01*
X139997799Y-99999148D01*
X140030721Y-99950052D01*
X140033276Y-99947213D01*
X140157413Y-99750283D01*
X140217418Y-99523821D01*
X140215902Y-99287634D01*
X140155478Y-99061527D01*
X140038758Y-98865308D01*
X139868353Y-98718783D01*
X139779896Y-98672525D01*
X139524876Y-98593812D01*
X139270063Y-98585929D01*
X139029954Y-98643997D01*
X138819043Y-98763133D01*
X138651826Y-98938458D01*
X138542800Y-99165092D01*
X138512681Y-99374910D01*
X138554350Y-99591908D01*
X138672558Y-99826321D01*
X138797631Y-100023540D01*
X138668496Y-100146583D01*
X138539362Y-100269627D01*
X138431327Y-100140255D01*
X138354101Y-100037667D01*
X138217031Y-99765960D01*
X138156102Y-99480909D01*
X138168215Y-99195111D01*
X138250270Y-98921157D01*
X138399168Y-98671643D01*
X138611811Y-98459161D01*
X138885098Y-98296306D01*
X139074059Y-98244027D01*
X139311511Y-98223232D01*
X139564820Y-98232972D01*
G37*
G36*
X145842985Y-94520094D02*
G01*
X145877504Y-94577267D01*
X145869990Y-94607433D01*
X145812818Y-94641953D01*
X145782651Y-94634439D01*
X145748132Y-94577267D01*
X145755646Y-94547100D01*
X145812818Y-94512581D01*
X145842985Y-94520094D01*
G37*
G36*
X147321892Y-96770496D02*
G01*
X147343718Y-96841274D01*
X147329377Y-96904311D01*
X147268251Y-96919312D01*
X147228634Y-96902164D01*
X147192784Y-96841274D01*
X147204095Y-96805758D01*
X147268251Y-96763235D01*
X147321892Y-96770496D01*
G37*
G36*
X145848755Y-96999395D02*
G01*
X145874254Y-97042996D01*
X145867118Y-97111107D01*
X145812818Y-97143141D01*
X145775096Y-97127133D01*
X145748132Y-97056893D01*
X145751489Y-97020417D01*
X145787213Y-96971766D01*
X145848755Y-96999395D01*
G37*
G36*
X146274224Y-94088855D02*
G01*
X146308743Y-94146027D01*
X146301230Y-94176194D01*
X146244057Y-94210713D01*
X146213891Y-94203200D01*
X146179371Y-94146027D01*
X146186885Y-94115861D01*
X146244057Y-94081342D01*
X146274224Y-94088855D01*
G37*
G36*
X145849049Y-97799426D02*
G01*
X145869885Y-97856964D01*
X145841691Y-97915730D01*
X145792284Y-97926220D01*
X145756342Y-97865467D01*
X145758443Y-97821001D01*
X145812818Y-97790000D01*
X145849049Y-97799426D01*
G37*
G36*
X147956058Y-99479347D02*
G01*
X147990577Y-99536520D01*
X147983063Y-99566686D01*
X147925891Y-99601206D01*
X147895724Y-99593692D01*
X147861205Y-99536520D01*
X147868719Y-99506353D01*
X147925891Y-99471834D01*
X147956058Y-99479347D01*
G37*
G36*
X148175149Y-96569423D02*
G01*
X148206197Y-96625654D01*
X148196765Y-96659982D01*
X148148484Y-96692431D01*
X148098821Y-96669481D01*
X148087620Y-96617454D01*
X148114931Y-96565611D01*
X148166052Y-96562810D01*
X148175149Y-96569423D01*
G37*
G36*
X147300594Y-93628540D02*
G01*
X147341999Y-93683425D01*
X147326846Y-93748786D01*
X147257470Y-93779474D01*
X147207127Y-93767711D01*
X147171222Y-93717333D01*
X147177704Y-93679000D01*
X147228262Y-93622920D01*
X147300594Y-93628540D01*
G37*
G36*
X147512456Y-95308052D02*
G01*
X147554687Y-95365259D01*
X147548904Y-95430445D01*
X147497197Y-95461308D01*
X147470867Y-95457631D01*
X147406081Y-95414426D01*
X147402042Y-95354616D01*
X147447872Y-95306105D01*
X147512456Y-95308052D01*
G37*
G36*
X143677174Y-94931751D02*
G01*
X143778512Y-95039996D01*
X143865314Y-95226986D01*
X143881795Y-95270393D01*
X143944864Y-95371730D01*
X144012678Y-95389454D01*
X144082248Y-95322252D01*
X144106629Y-95233263D01*
X144076523Y-95108432D01*
X144050639Y-94998857D01*
X144063262Y-94926498D01*
X144107106Y-94911426D01*
X144172575Y-94967700D01*
X144222655Y-95082599D01*
X144237417Y-95232619D01*
X144214931Y-95377115D01*
X144156360Y-95479418D01*
X144111964Y-95511904D01*
X143984128Y-95543924D01*
X143860296Y-95503640D01*
X143766681Y-95396622D01*
X143749822Y-95363300D01*
X143671074Y-95215531D01*
X143614781Y-95131247D01*
X143570345Y-95097352D01*
X143527163Y-95100754D01*
X143476430Y-95153110D01*
X143467182Y-95256521D01*
X143509682Y-95382525D01*
X143532845Y-95456056D01*
X143515053Y-95521619D01*
X143462342Y-95537461D01*
X143394974Y-95485408D01*
X143356183Y-95407820D01*
X143333475Y-95256664D01*
X143355201Y-95103325D01*
X143419439Y-94986944D01*
X143448092Y-94960751D01*
X143565600Y-94904564D01*
X143677174Y-94931751D01*
G37*
G36*
X148609859Y-99070516D02*
G01*
X148621567Y-99083943D01*
X148632224Y-99143483D01*
X148572750Y-99169966D01*
X148543031Y-99165401D01*
X148508064Y-99129387D01*
X148512516Y-99105503D01*
X148556103Y-99061795D01*
X148609859Y-99070516D01*
G37*
G36*
X143967277Y-96235326D02*
G01*
X144105183Y-96312393D01*
X144194392Y-96407646D01*
X144232453Y-96543915D01*
X144231968Y-96707875D01*
X144192454Y-96847283D01*
X144170814Y-96894405D01*
X144185037Y-96923191D01*
X144267602Y-96919915D01*
X144323612Y-96906693D01*
X144423893Y-96829163D01*
X144470027Y-96700449D01*
X144453829Y-96537365D01*
X144435812Y-96422720D01*
X144453652Y-96346609D01*
X144499978Y-96329965D01*
X144565127Y-96385934D01*
X144578574Y-96408695D01*
X144613081Y-96521127D01*
X144626910Y-96658775D01*
X144623086Y-96744021D01*
X144588056Y-96864523D01*
X144500855Y-96973963D01*
X144446043Y-97026275D01*
X144393151Y-97062087D01*
X144325330Y-97083893D01*
X144224750Y-97095167D01*
X144073582Y-97099384D01*
X143853996Y-97100017D01*
X143696922Y-97099692D01*
X143527984Y-97096915D01*
X143421390Y-97089293D01*
X143362892Y-97074468D01*
X143338242Y-97050080D01*
X143333191Y-97013769D01*
X143341568Y-96963626D01*
X143377833Y-96927522D01*
X143400447Y-96912762D01*
X143377833Y-96844109D01*
X143377772Y-96843994D01*
X143339634Y-96707029D01*
X143339632Y-96703291D01*
X143482355Y-96703291D01*
X143520026Y-96799378D01*
X143624496Y-96895675D01*
X143785993Y-96927522D01*
X143897804Y-96912688D01*
X143991010Y-96873617D01*
X144043520Y-96810673D01*
X144089630Y-96703291D01*
X144085398Y-96603892D01*
X144021254Y-96488824D01*
X143913966Y-96401536D01*
X143785993Y-96366910D01*
X143678256Y-96391554D01*
X143566020Y-96471887D01*
X143493232Y-96584094D01*
X143482355Y-96703291D01*
X143339632Y-96703291D01*
X143339565Y-96544410D01*
X143377594Y-96407646D01*
X143391999Y-96384931D01*
X143495865Y-96292155D01*
X143639709Y-96222116D01*
X143785993Y-96194415D01*
X143818214Y-96196044D01*
X143967277Y-96235326D01*
G37*
G36*
X145640058Y-97805470D02*
G01*
X145661884Y-97876248D01*
X145647544Y-97939285D01*
X145586417Y-97954287D01*
X145546800Y-97937139D01*
X145510950Y-97876248D01*
X145522262Y-97840732D01*
X145586417Y-97798210D01*
X145640058Y-97805470D01*
G37*
G36*
X147317940Y-98597952D02*
G01*
X147324392Y-98606010D01*
X147343718Y-98674041D01*
X147342895Y-98687456D01*
X147317940Y-98750130D01*
X147269171Y-98763270D01*
X147203211Y-98732699D01*
X147171222Y-98674041D01*
X147194684Y-98623442D01*
X147258249Y-98586840D01*
X147317940Y-98597952D01*
G37*
G36*
X145403141Y-93844160D02*
G01*
X145444545Y-93899045D01*
X145429392Y-93964405D01*
X145360017Y-93995094D01*
X145309674Y-93983331D01*
X145273769Y-93932953D01*
X145280251Y-93894619D01*
X145330809Y-93838540D01*
X145403141Y-93844160D01*
G37*
G36*
X146058604Y-97366274D02*
G01*
X146093124Y-97423447D01*
X146085610Y-97453613D01*
X146028438Y-97488133D01*
X145998271Y-97480619D01*
X145963752Y-97423447D01*
X145971265Y-97393280D01*
X146028438Y-97358761D01*
X146058604Y-97366274D01*
G37*
G36*
X143792362Y-93887284D02*
G01*
X143916196Y-93895413D01*
X144015445Y-93935845D01*
X144112960Y-94028117D01*
X144150668Y-94073038D01*
X144220005Y-94199893D01*
X144238794Y-94354085D01*
X144238485Y-94374766D01*
X144219640Y-94513758D01*
X144178555Y-94619466D01*
X144124973Y-94674331D01*
X144068636Y-94660793D01*
X144043728Y-94595014D01*
X144069165Y-94479769D01*
X144087655Y-94391221D01*
X144071210Y-94251961D01*
X144006371Y-94142547D01*
X143904180Y-94089123D01*
X143873177Y-94085894D01*
X143836476Y-94095837D01*
X143816857Y-94140305D01*
X143808992Y-94236537D01*
X143807555Y-94401772D01*
X143807555Y-94728201D01*
X143676223Y-94728201D01*
X143534608Y-94696883D01*
X143419275Y-94604550D01*
X143348914Y-94470533D01*
X143331101Y-94328735D01*
X143470229Y-94328735D01*
X143508253Y-94417064D01*
X143565241Y-94497074D01*
X143624278Y-94545060D01*
X143651767Y-94537025D01*
X143671976Y-94467372D01*
X143678183Y-94322117D01*
X143678180Y-94318571D01*
X143669131Y-94164894D01*
X143641172Y-94094072D01*
X143592179Y-94104387D01*
X143520028Y-94194121D01*
X143484067Y-94254710D01*
X143470229Y-94328735D01*
X143331101Y-94328735D01*
X143329299Y-94314387D01*
X143366201Y-94155672D01*
X143465395Y-94013943D01*
X143532698Y-93955967D01*
X143641172Y-93902976D01*
X143644355Y-93901421D01*
X143792362Y-93887284D01*
G37*
G36*
X147944584Y-96343575D02*
G01*
X147952208Y-96348661D01*
X147988777Y-96412866D01*
X147947148Y-96474908D01*
X147919813Y-96478461D01*
X147877135Y-96432470D01*
X147865756Y-96387067D01*
X147884145Y-96333839D01*
X147944584Y-96343575D01*
G37*
G36*
X145842985Y-93657616D02*
G01*
X145877504Y-93714788D01*
X145869990Y-93744955D01*
X145812818Y-93779474D01*
X145782651Y-93771960D01*
X145748132Y-93714788D01*
X145755646Y-93684621D01*
X145812818Y-93650102D01*
X145842985Y-93657616D01*
G37*
G36*
X146058604Y-100729942D02*
G01*
X146093124Y-100787114D01*
X146085610Y-100817281D01*
X146028438Y-100851800D01*
X145998271Y-100844286D01*
X145963752Y-100787114D01*
X145971265Y-100756947D01*
X146028438Y-100722428D01*
X146058604Y-100729942D01*
G37*
G36*
X148171677Y-98832488D02*
G01*
X148206197Y-98889661D01*
X148198683Y-98919827D01*
X148141511Y-98954347D01*
X148111344Y-98946833D01*
X148076825Y-98889661D01*
X148084338Y-98859494D01*
X148141511Y-98824975D01*
X148171677Y-98832488D01*
G37*
G36*
X145002691Y-95090307D02*
G01*
X145043591Y-95143309D01*
X145022196Y-95215485D01*
X144992557Y-95277899D01*
X145029238Y-95312941D01*
X145129237Y-95304914D01*
X145154962Y-95299161D01*
X145215818Y-95306312D01*
X145230645Y-95373471D01*
X145230622Y-95377452D01*
X145209334Y-95445688D01*
X145133616Y-95454943D01*
X145067517Y-95453014D01*
X144991404Y-95470574D01*
X144961368Y-95479330D01*
X144883594Y-95459778D01*
X144872307Y-95452325D01*
X144843273Y-95407002D01*
X144875238Y-95333252D01*
X144901417Y-95275312D01*
X144886019Y-95245688D01*
X144868730Y-95242466D01*
X144843050Y-95199100D01*
X144858784Y-95134783D01*
X144910114Y-95087675D01*
X144923100Y-95083394D01*
X145002691Y-95090307D01*
G37*
G36*
X146058604Y-99048108D02*
G01*
X146093124Y-99105280D01*
X146085610Y-99135447D01*
X146028438Y-99169966D01*
X145998271Y-99162453D01*
X145963752Y-99105280D01*
X145971265Y-99075114D01*
X146028438Y-99040595D01*
X146058604Y-99048108D01*
G37*
G36*
X145640058Y-96123637D02*
G01*
X145661884Y-96194415D01*
X145647544Y-96257452D01*
X145586417Y-96272453D01*
X145546800Y-96255305D01*
X145510950Y-96194415D01*
X145522262Y-96158899D01*
X145586417Y-96116376D01*
X145640058Y-96123637D01*
G37*
G36*
X144101598Y-99456395D02*
G01*
X144192216Y-99547300D01*
X144204908Y-99573532D01*
X144233467Y-99709346D01*
X144229952Y-99864871D01*
X144194153Y-99992156D01*
X144171538Y-100049171D01*
X144194153Y-100075569D01*
X144220107Y-100091752D01*
X144238794Y-100161817D01*
X144238312Y-100176469D01*
X144228753Y-100205464D01*
X144197008Y-100225355D01*
X144130266Y-100237853D01*
X144015715Y-100244665D01*
X143840542Y-100247500D01*
X143591935Y-100248065D01*
X143482043Y-100248001D01*
X143264586Y-100246726D01*
X143115396Y-100242493D01*
X143021663Y-100233594D01*
X142970573Y-100218321D01*
X142949315Y-100194965D01*
X142945076Y-100161817D01*
X142947743Y-100130932D01*
X142974294Y-100095264D01*
X143046175Y-100079265D01*
X143183775Y-100075569D01*
X143299615Y-100074138D01*
X143375997Y-100064555D01*
X143396508Y-100039618D01*
X143377833Y-99992156D01*
X143377772Y-99992042D01*
X143339634Y-99855077D01*
X143339610Y-99798393D01*
X143462563Y-99798393D01*
X143464839Y-99831422D01*
X143518057Y-99951479D01*
X143624156Y-100035354D01*
X143759480Y-100074991D01*
X143900372Y-100062332D01*
X144023174Y-99989321D01*
X144080314Y-99911608D01*
X144109422Y-99821603D01*
X144109227Y-99813483D01*
X144065736Y-99693596D01*
X143963680Y-99591514D01*
X143828436Y-99533279D01*
X143728788Y-99533563D01*
X143598904Y-99586019D01*
X143501153Y-99680824D01*
X143462563Y-99798393D01*
X143339610Y-99798393D01*
X143339565Y-99692458D01*
X143377594Y-99555693D01*
X143391999Y-99532978D01*
X143495865Y-99440203D01*
X143639709Y-99370164D01*
X143785993Y-99342462D01*
X143817051Y-99344041D01*
X143828436Y-99346999D01*
X143963603Y-99382117D01*
X144101598Y-99456395D01*
G37*
G36*
X145424439Y-95304282D02*
G01*
X145446264Y-95375060D01*
X145431924Y-95438097D01*
X145370798Y-95453098D01*
X145331180Y-95435950D01*
X145295331Y-95375060D01*
X145306642Y-95339544D01*
X145370798Y-95297021D01*
X145424439Y-95304282D01*
G37*
G36*
X143926483Y-92813497D02*
G01*
X144047864Y-92856415D01*
X144139228Y-92935424D01*
X144198557Y-93035090D01*
X144236137Y-93182311D01*
X144232630Y-93325744D01*
X144184889Y-93431248D01*
X144152610Y-93479357D01*
X144184889Y-93508153D01*
X144214268Y-93532371D01*
X144238794Y-93610572D01*
X144238476Y-93621213D01*
X144229237Y-93650018D01*
X144197623Y-93669926D01*
X144130860Y-93682568D01*
X144016173Y-93689577D01*
X143840790Y-93692586D01*
X143591935Y-93693226D01*
X143482043Y-93693162D01*
X143264586Y-93691887D01*
X143115396Y-93687655D01*
X143021663Y-93678756D01*
X142970573Y-93663482D01*
X142949315Y-93640126D01*
X142945076Y-93606978D01*
X142947606Y-93576720D01*
X142973787Y-93540660D01*
X143045191Y-93524474D01*
X143182258Y-93520730D01*
X143276847Y-93517460D01*
X143386653Y-93497342D01*
X143421619Y-93461490D01*
X143376315Y-93412921D01*
X143367525Y-93403844D01*
X143343030Y-93328935D01*
X143335518Y-93240425D01*
X143462563Y-93240425D01*
X143477988Y-93305352D01*
X143553366Y-93408219D01*
X143665719Y-93488406D01*
X143785993Y-93520730D01*
X143786410Y-93520730D01*
X143887596Y-93494348D01*
X143995797Y-93431353D01*
X143998404Y-93429276D01*
X144076970Y-93338284D01*
X144109422Y-93244812D01*
X144100423Y-93191500D01*
X144032694Y-93080775D01*
X143922800Y-92994738D01*
X143799810Y-92960119D01*
X143719504Y-92973143D01*
X143595451Y-93037201D01*
X143500458Y-93134063D01*
X143462563Y-93240425D01*
X143335518Y-93240425D01*
X143333191Y-93213001D01*
X143335777Y-93150551D01*
X143371397Y-93025516D01*
X143464542Y-92908382D01*
X143511399Y-92863306D01*
X143590117Y-92808372D01*
X143679907Y-92790563D01*
X143799810Y-92797336D01*
X143817777Y-92798351D01*
X143926483Y-92813497D01*
G37*
G36*
X146277696Y-96353803D02*
G01*
X146308743Y-96410034D01*
X146299312Y-96444363D01*
X146251031Y-96476811D01*
X146201368Y-96453862D01*
X146190167Y-96401835D01*
X146217478Y-96349991D01*
X146268599Y-96347190D01*
X146277696Y-96353803D01*
G37*
G36*
X145850540Y-96124175D02*
G01*
X145877504Y-96194415D01*
X145865498Y-96244710D01*
X145812818Y-96280662D01*
X145775096Y-96264654D01*
X145748132Y-96194415D01*
X145760138Y-96144119D01*
X145812818Y-96108167D01*
X145850540Y-96124175D01*
G37*
G36*
X143842717Y-95806342D02*
G01*
X144025968Y-95808157D01*
X144141952Y-95814780D01*
X144205919Y-95829116D01*
X144233117Y-95854071D01*
X144238794Y-95892547D01*
X144238570Y-95903352D01*
X144229043Y-95938257D01*
X144194270Y-95960349D01*
X144119003Y-95972533D01*
X143987993Y-95977713D01*
X143785993Y-95978795D01*
X143729268Y-95978752D01*
X143546018Y-95976937D01*
X143430034Y-95970314D01*
X143366067Y-95955978D01*
X143338869Y-95931023D01*
X143333191Y-95892547D01*
X143333416Y-95881742D01*
X143342943Y-95846837D01*
X143377716Y-95824745D01*
X143452983Y-95812561D01*
X143583992Y-95807381D01*
X143785993Y-95806299D01*
X143842717Y-95806342D01*
G37*
G36*
X148394239Y-99501756D02*
G01*
X148405948Y-99515183D01*
X148416604Y-99574722D01*
X148357130Y-99601206D01*
X148327411Y-99596640D01*
X148292444Y-99560627D01*
X148296897Y-99536743D01*
X148340483Y-99493034D01*
X148394239Y-99501756D01*
G37*
G36*
X146277696Y-96785043D02*
G01*
X146308743Y-96841274D01*
X146299312Y-96875602D01*
X146251031Y-96908051D01*
X146201368Y-96885101D01*
X146190167Y-96833074D01*
X146217478Y-96781230D01*
X146268599Y-96778429D01*
X146277696Y-96785043D01*
G37*
G36*
X145658484Y-93682231D02*
G01*
X145651994Y-93747639D01*
X145604386Y-93779474D01*
X145583509Y-93777831D01*
X145518512Y-93751099D01*
X145511628Y-93740396D01*
X145523478Y-93686136D01*
X145571456Y-93637761D01*
X145623646Y-93631560D01*
X145658484Y-93682231D01*
G37*
G36*
X147956058Y-93657616D02*
G01*
X147990577Y-93714788D01*
X147983063Y-93744955D01*
X147925891Y-93779474D01*
X147895724Y-93771960D01*
X147861205Y-93714788D01*
X147868719Y-93684621D01*
X147925891Y-93650102D01*
X147956058Y-93657616D01*
G37*
G36*
X140573259Y-103094245D02*
G01*
X140023429Y-103094406D01*
X139989325Y-103094438D01*
X139761871Y-103096744D01*
X139600409Y-103104278D01*
X139486978Y-103119283D01*
X139403619Y-103144001D01*
X139332371Y-103180674D01*
X139227754Y-103265775D01*
X139133500Y-103429254D01*
X139115510Y-103628630D01*
X139116685Y-103706717D01*
X139081130Y-103759898D01*
X138983196Y-103794821D01*
X138973282Y-103797307D01*
X138858497Y-103815076D01*
X138778357Y-103809739D01*
X138745902Y-103786501D01*
X138719421Y-103700065D01*
X138737363Y-103576151D01*
X138793139Y-103434336D01*
X138880161Y-103294199D01*
X138991841Y-103175317D01*
X139085483Y-103097114D01*
X138923769Y-103095680D01*
X138871769Y-103094812D01*
X138795258Y-103081533D01*
X138766466Y-103032212D01*
X138762054Y-102921749D01*
X138762054Y-102749253D01*
X140573259Y-102749253D01*
X140573259Y-103094245D01*
G37*
G36*
X147963000Y-97000567D02*
G01*
X147987657Y-97042984D01*
X147980135Y-97110983D01*
X147925891Y-97143141D01*
X147895780Y-97135952D01*
X147861205Y-97081000D01*
X147868371Y-97039880D01*
X147910234Y-96990538D01*
X147963000Y-97000567D01*
G37*
G36*
X146279994Y-98034369D02*
G01*
X146292745Y-98049083D01*
X146303451Y-98108724D01*
X146244057Y-98134992D01*
X146213891Y-98127478D01*
X146179371Y-98070306D01*
X146180818Y-98051784D01*
X146216875Y-98006900D01*
X146279994Y-98034369D01*
G37*
G36*
X147321892Y-97805470D02*
G01*
X147343718Y-97876248D01*
X147329377Y-97939285D01*
X147268251Y-97954287D01*
X147228634Y-97937139D01*
X147192784Y-97876248D01*
X147204095Y-97840732D01*
X147268251Y-97798210D01*
X147321892Y-97805470D01*
G37*
G36*
X146058604Y-99867463D02*
G01*
X146093124Y-99924635D01*
X146085610Y-99954802D01*
X146028438Y-99989321D01*
X145998271Y-99981808D01*
X145963752Y-99924635D01*
X145971265Y-99894469D01*
X146028438Y-99859949D01*
X146058604Y-99867463D01*
G37*
G36*
X146274224Y-94304475D02*
G01*
X146308743Y-94361647D01*
X146301230Y-94391814D01*
X146244057Y-94426333D01*
X146213891Y-94418820D01*
X146179371Y-94361647D01*
X146186885Y-94331481D01*
X146244057Y-94296961D01*
X146274224Y-94304475D01*
G37*
G36*
X147528391Y-94307076D02*
G01*
X147559337Y-94361647D01*
X147548003Y-94401304D01*
X147483871Y-94418124D01*
X147429235Y-94391158D01*
X147426134Y-94341898D01*
X147492374Y-94304580D01*
X147528391Y-94307076D01*
G37*
G36*
X148171677Y-99263728D02*
G01*
X148206197Y-99320900D01*
X148198683Y-99351067D01*
X148141511Y-99385586D01*
X148111344Y-99378073D01*
X148076825Y-99320900D01*
X148084338Y-99290734D01*
X148141511Y-99256214D01*
X148171677Y-99263728D01*
G37*
G36*
X147747380Y-95318734D02*
G01*
X147772037Y-95361151D01*
X147764516Y-95429149D01*
X147710271Y-95461308D01*
X147680161Y-95454118D01*
X147645585Y-95399167D01*
X147652752Y-95358047D01*
X147694614Y-95308705D01*
X147747380Y-95318734D01*
G37*
G36*
X144056442Y-100986433D02*
G01*
X144155382Y-100994963D01*
X144210238Y-101009618D01*
X144233784Y-101032028D01*
X144238794Y-101063826D01*
X144230025Y-101112089D01*
X144184889Y-101166245D01*
X144152610Y-101191973D01*
X144184889Y-101243150D01*
X144192598Y-101253025D01*
X144225458Y-101343116D01*
X144238794Y-101466219D01*
X144215377Y-101600497D01*
X144125504Y-101740467D01*
X143984025Y-101834463D01*
X143807823Y-101872288D01*
X143613780Y-101843744D01*
X143602887Y-101839970D01*
X143483069Y-101777997D01*
X143398011Y-101701383D01*
X143383298Y-101676350D01*
X143348302Y-101566232D01*
X143336174Y-101454660D01*
X143462563Y-101454660D01*
X143495654Y-101530889D01*
X143580511Y-101616761D01*
X143687264Y-101685896D01*
X143785993Y-101714279D01*
X143789900Y-101714216D01*
X143898472Y-101681971D01*
X144003573Y-101608429D01*
X144023553Y-101587877D01*
X144095487Y-101484188D01*
X144093873Y-101386519D01*
X144020045Y-101267293D01*
X143996873Y-101241907D01*
X143875304Y-101170665D01*
X143733285Y-101149745D01*
X143609172Y-101186671D01*
X143607622Y-101187731D01*
X143544534Y-101260126D01*
X143487431Y-101365096D01*
X143462563Y-101454660D01*
X143336174Y-101454660D01*
X143334375Y-101438105D01*
X143343163Y-101325382D01*
X143376315Y-101261477D01*
X143412419Y-101232256D01*
X143411045Y-101190607D01*
X143332515Y-101163405D01*
X143182258Y-101153668D01*
X143099048Y-101152748D01*
X142999881Y-101143227D01*
X142955371Y-101117262D01*
X142945076Y-101067420D01*
X142945558Y-101052767D01*
X142955117Y-101023773D01*
X142986862Y-101003881D01*
X143053604Y-100991383D01*
X143168155Y-100984571D01*
X143343328Y-100981737D01*
X143591935Y-100981172D01*
X143675215Y-100981212D01*
X143733285Y-100981516D01*
X143900644Y-100982393D01*
X144056442Y-100986433D01*
G37*
G36*
X145630938Y-94522696D02*
G01*
X145661884Y-94577267D01*
X145650550Y-94616924D01*
X145586417Y-94633743D01*
X145531782Y-94606777D01*
X145528681Y-94557517D01*
X145594920Y-94520200D01*
X145630938Y-94522696D01*
G37*
G36*
X145640058Y-98236710D02*
G01*
X145661884Y-98307488D01*
X145647544Y-98370525D01*
X145586417Y-98385526D01*
X145546800Y-98368378D01*
X145510950Y-98307488D01*
X145522262Y-98271972D01*
X145586417Y-98229449D01*
X145640058Y-98236710D01*
G37*
G36*
X147321892Y-97589851D02*
G01*
X147343718Y-97660629D01*
X147329377Y-97723666D01*
X147268251Y-97738667D01*
X147228634Y-97721519D01*
X147192784Y-97660629D01*
X147204095Y-97625113D01*
X147268251Y-97582590D01*
X147321892Y-97589851D01*
G37*
G36*
X145640058Y-101082890D02*
G01*
X145661884Y-101153668D01*
X145647544Y-101216705D01*
X145586417Y-101231706D01*
X145546800Y-101214558D01*
X145510950Y-101153668D01*
X145522262Y-101118152D01*
X145586417Y-101075629D01*
X145640058Y-101082890D01*
G37*
G36*
X140006149Y-100576944D02*
G01*
X140239394Y-100693023D01*
X140421893Y-100878713D01*
X140554504Y-101134599D01*
X140595444Y-101291320D01*
X140597367Y-101546574D01*
X140528054Y-101792736D01*
X140395622Y-102013344D01*
X140208188Y-102191939D01*
X139973870Y-102312058D01*
X139820178Y-102348939D01*
X139553912Y-102350317D01*
X139299363Y-102280002D01*
X139072730Y-102145968D01*
X138890213Y-101956184D01*
X138768009Y-101718625D01*
X138731420Y-101556848D01*
X138734591Y-101433973D01*
X139063921Y-101433973D01*
X139067269Y-101501719D01*
X139125800Y-101703175D01*
X139250882Y-101856460D01*
X139434255Y-101953992D01*
X139667657Y-101988188D01*
X139692183Y-101987819D01*
X139909743Y-101949708D01*
X140087380Y-101855773D01*
X140205976Y-101715690D01*
X140216194Y-101694255D01*
X140260379Y-101520776D01*
X140261466Y-101328548D01*
X140218417Y-101163681D01*
X140191358Y-101118058D01*
X140063076Y-100999606D01*
X139883068Y-100919022D01*
X139675150Y-100888373D01*
X139593337Y-100891112D01*
X139370800Y-100942088D01*
X139204349Y-101053160D01*
X139100037Y-101218923D01*
X139063921Y-101433973D01*
X138734591Y-101433973D01*
X138738119Y-101297262D01*
X138817764Y-101048755D01*
X138963470Y-100829570D01*
X139168350Y-100657952D01*
X139225551Y-100624187D01*
X139354950Y-100563808D01*
X139487442Y-100535564D01*
X139664275Y-100528707D01*
X139675150Y-100528933D01*
X139721298Y-100529891D01*
X140006149Y-100576944D01*
G37*
G36*
X146058604Y-101980536D02*
G01*
X146093124Y-102037708D01*
X146085610Y-102067875D01*
X146028438Y-102102394D01*
X145998271Y-102094881D01*
X145963752Y-102037708D01*
X145971265Y-102007542D01*
X146028438Y-101973022D01*
X146058604Y-101980536D01*
G37*
G36*
X145640058Y-96986116D02*
G01*
X145661884Y-97056893D01*
X145647544Y-97119931D01*
X145586417Y-97134932D01*
X145546800Y-97117784D01*
X145510950Y-97056893D01*
X145522262Y-97021377D01*
X145586417Y-96978855D01*
X145640058Y-96986116D01*
G37*
G36*
X147542980Y-97585815D02*
G01*
X147551882Y-97645931D01*
X147533059Y-97689285D01*
X147472499Y-97725314D01*
X147445429Y-97720941D01*
X147410509Y-97678551D01*
X147425913Y-97620118D01*
X147487787Y-97581836D01*
X147542980Y-97585815D01*
G37*
G36*
X148177447Y-98034369D02*
G01*
X148190198Y-98049083D01*
X148200904Y-98108724D01*
X148141511Y-98134992D01*
X148111344Y-98127478D01*
X148076825Y-98070306D01*
X148078271Y-98051784D01*
X148114328Y-98006900D01*
X148177447Y-98034369D01*
G37*
G36*
X143898627Y-98356683D02*
G01*
X144009899Y-98392884D01*
X144112740Y-98476666D01*
X144146595Y-98512524D01*
X144219136Y-98630432D01*
X144238794Y-98776505D01*
X144225674Y-98921471D01*
X144190990Y-99049039D01*
X144143311Y-99134542D01*
X144091211Y-99155938D01*
X144061791Y-99124705D01*
X144056893Y-99030512D01*
X144088636Y-98867138D01*
X144090227Y-98767410D01*
X144023195Y-98640737D01*
X143944656Y-98552972D01*
X143879406Y-98518353D01*
X143837147Y-98557706D01*
X143814367Y-98674821D01*
X143807555Y-98873489D01*
X143807555Y-99223871D01*
X143669475Y-99196255D01*
X143639793Y-99189599D01*
X143470546Y-99111233D01*
X143367802Y-98978240D01*
X143333191Y-98792579D01*
X143333400Y-98787980D01*
X143477542Y-98787980D01*
X143508779Y-98910633D01*
X143597009Y-99000186D01*
X143640890Y-99017221D01*
X143665657Y-98997756D01*
X143676064Y-98924745D01*
X143678183Y-98781851D01*
X143676178Y-98641186D01*
X143666018Y-98566872D01*
X143641618Y-98546448D01*
X143596896Y-98563576D01*
X143586076Y-98569792D01*
X143503304Y-98663832D01*
X143477542Y-98787980D01*
X143333400Y-98787980D01*
X143337156Y-98705506D01*
X143372277Y-98585647D01*
X143459246Y-98476666D01*
X143535844Y-98409734D01*
X143640632Y-98362582D01*
X143641618Y-98362501D01*
X143785993Y-98350612D01*
X143898627Y-98356683D01*
G37*
G36*
X145638458Y-99055304D02*
G01*
X145662092Y-99115653D01*
X145633509Y-99183967D01*
X145622806Y-99190850D01*
X145568546Y-99179001D01*
X145520171Y-99131023D01*
X145513970Y-99078832D01*
X145528394Y-99063723D01*
X145599743Y-99040595D01*
X145638458Y-99055304D01*
G37*
G36*
X146274224Y-101980536D02*
G01*
X146308743Y-102037708D01*
X146301230Y-102067875D01*
X146244057Y-102102394D01*
X146213891Y-102094881D01*
X146179371Y-102037708D01*
X146186885Y-102007542D01*
X146244057Y-101973022D01*
X146274224Y-101980536D01*
G37*
G36*
X147543416Y-99496751D02*
G01*
X147558768Y-99560510D01*
X147524936Y-99617377D01*
X147503337Y-99623125D01*
X147433163Y-99603182D01*
X147400030Y-99554314D01*
X147424421Y-99498031D01*
X147497197Y-99471834D01*
X147543416Y-99496751D01*
G37*
G36*
X145403141Y-99838387D02*
G01*
X145444545Y-99893272D01*
X145429392Y-99958633D01*
X145360017Y-99989321D01*
X145309674Y-99977558D01*
X145273769Y-99927180D01*
X145280251Y-99888847D01*
X145330809Y-99832767D01*
X145403141Y-99838387D01*
G37*
G36*
X143421520Y-101957728D02*
G01*
X143524854Y-102003299D01*
X143674177Y-102069683D01*
X143850161Y-102148306D01*
X143962607Y-102198488D01*
X144111113Y-102261775D01*
X144212961Y-102296072D01*
X144288608Y-102305419D01*
X144358507Y-102293856D01*
X144443115Y-102265423D01*
X144519435Y-102238564D01*
X144593687Y-102220073D01*
X144622122Y-102236543D01*
X144626563Y-102291015D01*
X144623956Y-102311674D01*
X144599383Y-102352105D01*
X144539481Y-102396808D01*
X144432832Y-102452116D01*
X144268014Y-102524363D01*
X144033609Y-102619881D01*
X143873164Y-102684144D01*
X143663546Y-102767532D01*
X143516521Y-102823514D01*
X143421029Y-102854648D01*
X143366010Y-102863491D01*
X143340404Y-102852601D01*
X143333151Y-102824536D01*
X143333191Y-102781853D01*
X143336095Y-102746379D01*
X143365004Y-102694048D01*
X143440416Y-102650229D01*
X143581154Y-102601209D01*
X143690544Y-102565193D01*
X143833903Y-102512771D01*
X143931422Y-102470773D01*
X143972554Y-102446127D01*
X143982787Y-102420589D01*
X143945259Y-102388651D01*
X143849245Y-102341650D01*
X143684022Y-102270920D01*
X143636303Y-102250710D01*
X143481686Y-102180563D01*
X143389725Y-102126213D01*
X143345415Y-102077013D01*
X143333754Y-102022314D01*
X143344281Y-101958571D01*
X143387096Y-101942884D01*
X143421520Y-101957728D01*
G37*
G36*
X148606259Y-98854948D02*
G01*
X148637436Y-98913768D01*
X148635937Y-98925854D01*
X148597368Y-98953468D01*
X148537986Y-98926770D01*
X148523821Y-98896029D01*
X148546103Y-98850439D01*
X148597292Y-98848378D01*
X148606259Y-98854948D01*
G37*
G36*
X145615003Y-101949138D02*
G01*
X145657234Y-102006345D01*
X145651450Y-102071532D01*
X145599743Y-102102394D01*
X145543161Y-102087609D01*
X145501602Y-102031219D01*
X145523888Y-101964398D01*
X145547160Y-101948362D01*
X145615003Y-101949138D01*
G37*
G36*
X148175149Y-96785043D02*
G01*
X148206197Y-96841274D01*
X148196765Y-96875602D01*
X148148484Y-96908051D01*
X148098821Y-96885101D01*
X148087620Y-96833074D01*
X148114931Y-96781230D01*
X148166052Y-96778429D01*
X148175149Y-96785043D01*
G37*
G36*
X145849049Y-97368187D02*
G01*
X145869885Y-97425725D01*
X145841691Y-97484491D01*
X145792284Y-97494981D01*
X145756342Y-97434228D01*
X145758443Y-97389762D01*
X145812818Y-97358761D01*
X145849049Y-97368187D01*
G37*
G36*
X147321892Y-97374231D02*
G01*
X147343718Y-97445009D01*
X147329377Y-97508046D01*
X147268251Y-97523047D01*
X147228634Y-97505899D01*
X147192784Y-97445009D01*
X147204095Y-97409493D01*
X147268251Y-97366970D01*
X147321892Y-97374231D01*
G37*
G36*
X145424439Y-97805470D02*
G01*
X145446264Y-97876248D01*
X145431924Y-97939285D01*
X145370798Y-97954287D01*
X145331180Y-97937139D01*
X145295331Y-97876248D01*
X145306642Y-97840732D01*
X145370798Y-97798210D01*
X145424439Y-97805470D01*
G37*
G36*
X148609859Y-99286136D02*
G01*
X148621567Y-99299563D01*
X148632224Y-99359102D01*
X148572750Y-99385586D01*
X148543031Y-99381020D01*
X148508064Y-99345007D01*
X148512516Y-99321123D01*
X148556103Y-99277415D01*
X148609859Y-99286136D01*
G37*
G36*
X147321892Y-98236710D02*
G01*
X147343718Y-98307488D01*
X147329377Y-98370525D01*
X147268251Y-98385526D01*
X147228634Y-98368378D01*
X147192784Y-98307488D01*
X147204095Y-98271972D01*
X147268251Y-98229449D01*
X147321892Y-98236710D01*
G37*
G36*
X147956058Y-97581894D02*
G01*
X147990577Y-97639067D01*
X147983063Y-97669233D01*
X147925891Y-97703752D01*
X147895724Y-97696239D01*
X147861205Y-97639067D01*
X147868719Y-97608900D01*
X147925891Y-97574381D01*
X147956058Y-97581894D01*
G37*
G36*
X146277696Y-96569423D02*
G01*
X146308743Y-96625654D01*
X146299312Y-96659982D01*
X146251031Y-96692431D01*
X146201368Y-96669481D01*
X146190167Y-96617454D01*
X146217478Y-96565611D01*
X146268599Y-96562810D01*
X146277696Y-96569423D01*
G37*
G36*
X148171677Y-95555069D02*
G01*
X148206197Y-95612241D01*
X148198683Y-95642408D01*
X148141511Y-95676927D01*
X148111344Y-95669414D01*
X148076825Y-95612241D01*
X148084338Y-95582075D01*
X148141511Y-95547555D01*
X148171677Y-95555069D01*
G37*
G36*
X148171677Y-95339449D02*
G01*
X148206197Y-95396622D01*
X148198683Y-95426788D01*
X148141511Y-95461308D01*
X148111344Y-95453794D01*
X148076825Y-95396622D01*
X148084338Y-95366455D01*
X148141511Y-95331936D01*
X148171677Y-95339449D01*
G37*
G36*
X146274224Y-98832488D02*
G01*
X146308743Y-98889661D01*
X146301230Y-98919827D01*
X146244057Y-98954347D01*
X146213891Y-98946833D01*
X146179371Y-98889661D01*
X146186885Y-98859494D01*
X146244057Y-98824975D01*
X146274224Y-98832488D01*
G37*
G36*
X146274224Y-100729942D02*
G01*
X146308743Y-100787114D01*
X146301230Y-100817281D01*
X146244057Y-100851800D01*
X146213891Y-100844286D01*
X146179371Y-100787114D01*
X146186885Y-100756947D01*
X146244057Y-100722428D01*
X146274224Y-100729942D01*
G37*
G36*
X146274224Y-97581894D02*
G01*
X146308743Y-97639067D01*
X146301230Y-97669233D01*
X146244057Y-97703752D01*
X146213891Y-97696239D01*
X146179371Y-97639067D01*
X146186885Y-97608900D01*
X146244057Y-97574381D01*
X146274224Y-97581894D01*
G37*
G36*
X146279661Y-101333199D02*
G01*
X146300478Y-101372522D01*
X146294622Y-101385307D01*
X146244057Y-101418880D01*
X146232157Y-101417076D01*
X146187637Y-101372522D01*
X146190387Y-101348044D01*
X146244057Y-101326163D01*
X146279661Y-101333199D01*
G37*
G36*
X148177447Y-97818750D02*
G01*
X148190198Y-97833463D01*
X148200904Y-97893104D01*
X148141511Y-97919372D01*
X148111344Y-97911859D01*
X148076825Y-97854686D01*
X148078271Y-97836164D01*
X148114328Y-97791280D01*
X148177447Y-97818750D01*
G37*
G36*
X145849927Y-101959820D02*
G01*
X145874584Y-102002237D01*
X145867062Y-102070236D01*
X145812818Y-102102394D01*
X145782707Y-102095205D01*
X145748132Y-102040253D01*
X145755298Y-101999133D01*
X145797161Y-101949791D01*
X145849927Y-101959820D01*
G37*
G36*
X145429907Y-99052029D02*
G01*
X145438809Y-99112145D01*
X145429022Y-99140724D01*
X145378878Y-99185504D01*
X145322250Y-99182359D01*
X145295331Y-99127433D01*
X145308303Y-99089930D01*
X145374714Y-99048050D01*
X145429907Y-99052029D01*
G37*
G36*
X146705054Y-101331029D02*
G01*
X146739983Y-101369287D01*
X146732685Y-101389125D01*
X146675297Y-101412411D01*
X146645539Y-101407546D01*
X146610611Y-101369287D01*
X146617909Y-101349449D01*
X146675297Y-101326163D01*
X146705054Y-101331029D01*
G37*
G36*
X147740438Y-93657616D02*
G01*
X147774957Y-93714788D01*
X147767444Y-93744955D01*
X147710271Y-93779474D01*
X147680105Y-93771960D01*
X147645585Y-93714788D01*
X147653099Y-93684621D01*
X147710271Y-93650102D01*
X147740438Y-93657616D01*
G37*
G36*
X147740438Y-93873235D02*
G01*
X147774957Y-93930408D01*
X147767444Y-93960574D01*
X147710271Y-93995094D01*
X147680105Y-93987580D01*
X147645585Y-93930408D01*
X147653099Y-93900241D01*
X147710271Y-93865722D01*
X147740438Y-93873235D01*
G37*
G36*
X145842985Y-100729942D02*
G01*
X145877504Y-100787114D01*
X145869990Y-100817281D01*
X145812818Y-100851800D01*
X145782651Y-100844286D01*
X145748132Y-100787114D01*
X145755646Y-100756947D01*
X145812818Y-100722428D01*
X145842985Y-100729942D01*
G37*
G36*
X146274224Y-99867463D02*
G01*
X146308743Y-99924635D01*
X146301230Y-99954802D01*
X146244057Y-99989321D01*
X146213891Y-99981808D01*
X146179371Y-99924635D01*
X146186885Y-99894469D01*
X146244057Y-99859949D01*
X146274224Y-99867463D01*
G37*
G36*
X145645527Y-97370196D02*
G01*
X145654429Y-97430312D01*
X145644641Y-97458890D01*
X145594497Y-97503671D01*
X145537869Y-97500526D01*
X145510950Y-97445599D01*
X145523922Y-97408096D01*
X145590333Y-97366216D01*
X145645527Y-97370196D01*
G37*
G36*
X145403141Y-94059780D02*
G01*
X145444545Y-94114665D01*
X145429392Y-94180025D01*
X145360017Y-94210713D01*
X145309674Y-94198950D01*
X145273769Y-94148573D01*
X145280251Y-94110239D01*
X145330809Y-94054159D01*
X145403141Y-94059780D01*
G37*
G36*
X147956058Y-95339449D02*
G01*
X147990577Y-95396622D01*
X147983063Y-95426788D01*
X147925891Y-95461308D01*
X147895724Y-95453794D01*
X147861205Y-95396622D01*
X147868719Y-95366455D01*
X147925891Y-95331936D01*
X147956058Y-95339449D01*
G37*
G36*
X145403141Y-100269627D02*
G01*
X145444545Y-100324512D01*
X145429392Y-100389872D01*
X145360017Y-100420561D01*
X145309674Y-100408798D01*
X145273769Y-100358420D01*
X145280251Y-100320086D01*
X145330809Y-100264007D01*
X145403141Y-100269627D01*
G37*
G36*
X146733514Y-93906690D02*
G01*
X146725341Y-93924854D01*
X146685000Y-93955204D01*
X146664777Y-93948814D01*
X146654314Y-93909963D01*
X146699015Y-93872190D01*
X146719950Y-93869900D01*
X146733514Y-93906690D01*
G37*
G36*
X148171475Y-95125191D02*
G01*
X148206197Y-95184596D01*
X148198977Y-95217037D01*
X148154987Y-95235805D01*
X148098222Y-95193177D01*
X148090692Y-95141454D01*
X148137917Y-95116316D01*
X148171475Y-95125191D01*
G37*
G36*
X145851308Y-98231586D02*
G01*
X145869885Y-98293133D01*
X145862284Y-98320401D01*
X145818940Y-98375933D01*
X145770853Y-98374306D01*
X145748132Y-98311081D01*
X145759995Y-98257515D01*
X145815980Y-98221240D01*
X145851308Y-98231586D01*
G37*
G36*
X146489844Y-94520094D02*
G01*
X146524363Y-94577267D01*
X146516849Y-94607433D01*
X146459677Y-94641953D01*
X146429510Y-94634439D01*
X146394991Y-94577267D01*
X146402505Y-94547100D01*
X146459677Y-94512581D01*
X146489844Y-94520094D01*
G37*
G36*
X146065547Y-97000567D02*
G01*
X146090204Y-97042984D01*
X146082682Y-97110983D01*
X146028438Y-97143141D01*
X145998327Y-97135952D01*
X145963752Y-97081000D01*
X145970918Y-97039880D01*
X146012781Y-96990538D01*
X146065547Y-97000567D01*
G37*
G36*
X145399383Y-101949138D02*
G01*
X145441614Y-102006345D01*
X145435831Y-102071532D01*
X145384124Y-102102394D01*
X145327541Y-102087609D01*
X145285982Y-102031219D01*
X145308268Y-101964398D01*
X145331540Y-101948362D01*
X145399383Y-101949138D01*
G37*
G36*
X147321892Y-96339256D02*
G01*
X147343718Y-96410034D01*
X147329377Y-96473072D01*
X147268251Y-96488073D01*
X147228634Y-96470925D01*
X147192784Y-96410034D01*
X147204095Y-96374518D01*
X147268251Y-96331996D01*
X147321892Y-96339256D01*
G37*
G36*
X145424439Y-96770496D02*
G01*
X145446264Y-96841274D01*
X145431924Y-96904311D01*
X145370798Y-96919312D01*
X145331180Y-96902164D01*
X145295331Y-96841274D01*
X145306642Y-96805758D01*
X145370798Y-96763235D01*
X145424439Y-96770496D01*
G37*
G36*
X145423054Y-98839315D02*
G01*
X145438055Y-98900442D01*
X145420907Y-98940059D01*
X145360017Y-98975909D01*
X145324501Y-98964597D01*
X145281978Y-98900442D01*
X145289239Y-98846801D01*
X145360017Y-98824975D01*
X145423054Y-98839315D01*
G37*
G36*
X147321892Y-96554876D02*
G01*
X147343718Y-96625654D01*
X147329377Y-96688691D01*
X147268251Y-96703692D01*
X147228634Y-96686544D01*
X147192784Y-96625654D01*
X147204095Y-96590138D01*
X147268251Y-96547616D01*
X147321892Y-96554876D01*
G37*
G36*
X140573259Y-93003243D02*
G01*
X138028947Y-93003243D01*
X138028947Y-92658252D01*
X140573259Y-92658252D01*
X140573259Y-93003243D01*
G37*
G36*
X145615003Y-95308052D02*
G01*
X145657234Y-95365259D01*
X145651450Y-95430445D01*
X145599743Y-95461308D01*
X145573414Y-95457631D01*
X145508628Y-95414426D01*
X145504588Y-95354616D01*
X145550419Y-95306105D01*
X145615003Y-95308052D01*
G37*
%TD*%
M02*
