%TF.GenerationSoftware,KiCad,Pcbnew,(6.0.4-0)*%
%TF.CreationDate,2022-07-05T16:22:49+02:00*%
%TF.ProjectId,Button PCB,42757474-6f6e-4205-9043-422e6b696361,rev?*%
%TF.SameCoordinates,Original*%
%TF.FileFunction,Legend,Top*%
%TF.FilePolarity,Positive*%
%FSLAX46Y46*%
G04 Gerber Fmt 4.6, Leading zero omitted, Abs format (unit mm)*
G04 Created by KiCad (PCBNEW (6.0.4-0)) date 2022-07-05 16:22:49*
%MOMM*%
%LPD*%
G01*
G04 APERTURE LIST*
%ADD10C,0.200000*%
%ADD11C,0.254001*%
G04 APERTURE END LIST*
D10*
X133610000Y-106172857D02*
X133681428Y-106030000D01*
X133681428Y-105815714D01*
X133610000Y-105601428D01*
X133467142Y-105458571D01*
X133324285Y-105387142D01*
X133038571Y-105315714D01*
X132824285Y-105315714D01*
X132538571Y-105387142D01*
X132395714Y-105458571D01*
X132252857Y-105601428D01*
X132181428Y-105815714D01*
X132181428Y-105958571D01*
X132252857Y-106172857D01*
X132324285Y-106244285D01*
X132824285Y-106244285D01*
X132824285Y-105958571D01*
X132967142Y-101102857D02*
X132895714Y-101317142D01*
X132824285Y-101388571D01*
X132681428Y-101460000D01*
X132467142Y-101460000D01*
X132324285Y-101388571D01*
X132252857Y-101317142D01*
X132181428Y-101174285D01*
X132181428Y-100602857D01*
X133681428Y-100602857D01*
X133681428Y-101102857D01*
X133610000Y-101245714D01*
X133538571Y-101317142D01*
X133395714Y-101388571D01*
X133252857Y-101388571D01*
X133110000Y-101317142D01*
X133038571Y-101245714D01*
X132967142Y-101102857D01*
X132967142Y-100602857D01*
X133538571Y-102031428D02*
X133610000Y-102102857D01*
X133681428Y-102245714D01*
X133681428Y-102602857D01*
X133610000Y-102745714D01*
X133538571Y-102817142D01*
X133395714Y-102888571D01*
X133252857Y-102888571D01*
X133038571Y-102817142D01*
X132181428Y-101960000D01*
X132181428Y-102888571D01*
X132967142Y-96892857D02*
X132895714Y-97107142D01*
X132824285Y-97178571D01*
X132681428Y-97250000D01*
X132467142Y-97250000D01*
X132324285Y-97178571D01*
X132252857Y-97107142D01*
X132181428Y-96964285D01*
X132181428Y-96392857D01*
X133681428Y-96392857D01*
X133681428Y-96892857D01*
X133610000Y-97035714D01*
X133538571Y-97107142D01*
X133395714Y-97178571D01*
X133252857Y-97178571D01*
X133110000Y-97107142D01*
X133038571Y-97035714D01*
X132967142Y-96892857D01*
X132967142Y-96392857D01*
X132181428Y-98678571D02*
X132181428Y-97821428D01*
X132181428Y-98250000D02*
X133681428Y-98250000D01*
X133467142Y-98107142D01*
X133324285Y-97964285D01*
X133252857Y-97821428D01*
D11*
%TO.C,SW1*%
X139967533Y-101690000D02*
G75*
G03*
X139967533Y-101690000I-1727457J0D01*
G01*
X139411018Y-101690000D02*
G75*
G03*
X139411018Y-101690000I-1170942J0D01*
G01*
%TO.C,SW2*%
X151231018Y-101690000D02*
G75*
G03*
X151231018Y-101690000I-1170942J0D01*
G01*
X151787533Y-101690000D02*
G75*
G03*
X151787533Y-101690000I-1727457J0D01*
G01*
%TD*%
M02*
