%TF.GenerationSoftware,KiCad,Pcbnew,(6.0.4-0)*%
%TF.CreationDate,2022-07-05T17:28:21+02:00*%
%TF.ProjectId,Button PCB,42757474-6f6e-4205-9043-422e6b696361,rev?*%
%TF.SameCoordinates,Original*%
%TF.FileFunction,Legend,Top*%
%TF.FilePolarity,Positive*%
%FSLAX46Y46*%
G04 Gerber Fmt 4.6, Leading zero omitted, Abs format (unit mm)*
G04 Created by KiCad (PCBNEW (6.0.4-0)) date 2022-07-05 17:28:21*
%MOMM*%
%LPD*%
G01*
G04 APERTURE LIST*
%ADD10C,0.200000*%
%ADD11C,0.254001*%
G04 APERTURE END LIST*
D10*
X133870000Y-106222857D02*
X133941428Y-106080000D01*
X133941428Y-105865714D01*
X133870000Y-105651428D01*
X133727142Y-105508571D01*
X133584285Y-105437142D01*
X133298571Y-105365714D01*
X133084285Y-105365714D01*
X132798571Y-105437142D01*
X132655714Y-105508571D01*
X132512857Y-105651428D01*
X132441428Y-105865714D01*
X132441428Y-106008571D01*
X132512857Y-106222857D01*
X132584285Y-106294285D01*
X133084285Y-106294285D01*
X133084285Y-106008571D01*
X133227142Y-101152857D02*
X133155714Y-101367142D01*
X133084285Y-101438571D01*
X132941428Y-101510000D01*
X132727142Y-101510000D01*
X132584285Y-101438571D01*
X132512857Y-101367142D01*
X132441428Y-101224285D01*
X132441428Y-100652857D01*
X133941428Y-100652857D01*
X133941428Y-101152857D01*
X133870000Y-101295714D01*
X133798571Y-101367142D01*
X133655714Y-101438571D01*
X133512857Y-101438571D01*
X133370000Y-101367142D01*
X133298571Y-101295714D01*
X133227142Y-101152857D01*
X133227142Y-100652857D01*
X133798571Y-102081428D02*
X133870000Y-102152857D01*
X133941428Y-102295714D01*
X133941428Y-102652857D01*
X133870000Y-102795714D01*
X133798571Y-102867142D01*
X133655714Y-102938571D01*
X133512857Y-102938571D01*
X133298571Y-102867142D01*
X132441428Y-102010000D01*
X132441428Y-102938571D01*
X133227142Y-96942857D02*
X133155714Y-97157142D01*
X133084285Y-97228571D01*
X132941428Y-97300000D01*
X132727142Y-97300000D01*
X132584285Y-97228571D01*
X132512857Y-97157142D01*
X132441428Y-97014285D01*
X132441428Y-96442857D01*
X133941428Y-96442857D01*
X133941428Y-96942857D01*
X133870000Y-97085714D01*
X133798571Y-97157142D01*
X133655714Y-97228571D01*
X133512857Y-97228571D01*
X133370000Y-97157142D01*
X133298571Y-97085714D01*
X133227142Y-96942857D01*
X133227142Y-96442857D01*
X132441428Y-98728571D02*
X132441428Y-97871428D01*
X132441428Y-98300000D02*
X133941428Y-98300000D01*
X133727142Y-98157142D01*
X133584285Y-98014285D01*
X133512857Y-97871428D01*
D11*
%TO.C,SW1*%
X139967533Y-101690000D02*
G75*
G03*
X139967533Y-101690000I-1727457J0D01*
G01*
X139411018Y-101690000D02*
G75*
G03*
X139411018Y-101690000I-1170942J0D01*
G01*
%TO.C,SW2*%
X151231018Y-101690000D02*
G75*
G03*
X151231018Y-101690000I-1170942J0D01*
G01*
X151787533Y-101690000D02*
G75*
G03*
X151787533Y-101690000I-1727457J0D01*
G01*
%TD*%
M02*
