%TF.GenerationSoftware,KiCad,Pcbnew,(6.0.4-0)*%
%TF.CreationDate,2022-07-05T17:28:21+02:00*%
%TF.ProjectId,Button PCB,42757474-6f6e-4205-9043-422e6b696361,rev?*%
%TF.SameCoordinates,Original*%
%TF.FileFunction,Legend,Bot*%
%TF.FilePolarity,Positive*%
%FSLAX46Y46*%
G04 Gerber Fmt 4.6, Leading zero omitted, Abs format (unit mm)*
G04 Created by KiCad (PCBNEW (6.0.4-0)) date 2022-07-05 17:28:21*
%MOMM*%
%LPD*%
G01*
G04 APERTURE LIST*
%ADD10C,0.400000*%
%ADD11C,0.150000*%
G04 APERTURE END LIST*
D10*
X152885238Y-95590000D02*
X153123333Y-95470952D01*
X153480476Y-95470952D01*
X153837619Y-95590000D01*
X154075714Y-95828095D01*
X154194761Y-96066190D01*
X154313809Y-96542380D01*
X154313809Y-96899523D01*
X154194761Y-97375714D01*
X154075714Y-97613809D01*
X153837619Y-97851904D01*
X153480476Y-97970952D01*
X153242380Y-97970952D01*
X152885238Y-97851904D01*
X152766190Y-97732857D01*
X152766190Y-96899523D01*
X153242380Y-96899523D01*
X151337619Y-97970952D02*
X151575714Y-97851904D01*
X151694761Y-97613809D01*
X151694761Y-95470952D01*
X150028095Y-97970952D02*
X150266190Y-97851904D01*
X150385238Y-97732857D01*
X150504285Y-97494761D01*
X150504285Y-96780476D01*
X150385238Y-96542380D01*
X150266190Y-96423333D01*
X150028095Y-96304285D01*
X149670952Y-96304285D01*
X149432857Y-96423333D01*
X149313809Y-96542380D01*
X149194761Y-96780476D01*
X149194761Y-97494761D01*
X149313809Y-97732857D01*
X149432857Y-97851904D01*
X149670952Y-97970952D01*
X150028095Y-97970952D01*
X148361428Y-96304285D02*
X147885238Y-97970952D01*
X147409047Y-96780476D01*
X146932857Y-97970952D01*
X146456666Y-96304285D01*
X144075714Y-97732857D02*
X144194761Y-97851904D01*
X144551904Y-97970952D01*
X144790000Y-97970952D01*
X145147142Y-97851904D01*
X145385238Y-97613809D01*
X145504285Y-97375714D01*
X145623333Y-96899523D01*
X145623333Y-96542380D01*
X145504285Y-96066190D01*
X145385238Y-95828095D01*
X145147142Y-95590000D01*
X144790000Y-95470952D01*
X144551904Y-95470952D01*
X144194761Y-95590000D01*
X144075714Y-95709047D01*
X142647142Y-97970952D02*
X142885238Y-97851904D01*
X143004285Y-97732857D01*
X143123333Y-97494761D01*
X143123333Y-96780476D01*
X143004285Y-96542380D01*
X142885238Y-96423333D01*
X142647142Y-96304285D01*
X142290000Y-96304285D01*
X142051904Y-96423333D01*
X141932857Y-96542380D01*
X141813809Y-96780476D01*
X141813809Y-97494761D01*
X141932857Y-97732857D01*
X142051904Y-97851904D01*
X142290000Y-97970952D01*
X142647142Y-97970952D01*
X140742380Y-97970952D02*
X140742380Y-96304285D01*
X140742380Y-96780476D02*
X140623333Y-96542380D01*
X140504285Y-96423333D01*
X140266190Y-96304285D01*
X140028095Y-96304285D01*
X138242380Y-97851904D02*
X138480476Y-97970952D01*
X138956666Y-97970952D01*
X139194761Y-97851904D01*
X139313809Y-97613809D01*
X139313809Y-96661428D01*
X139194761Y-96423333D01*
X138956666Y-96304285D01*
X138480476Y-96304285D01*
X138242380Y-96423333D01*
X138123333Y-96661428D01*
X138123333Y-96899523D01*
X139313809Y-97137619D01*
D11*
X154091071Y-99103571D02*
X153948214Y-99151190D01*
X153900595Y-99198809D01*
X153852976Y-99294047D01*
X153852976Y-99436904D01*
X153900595Y-99532142D01*
X153948214Y-99579761D01*
X154043452Y-99627380D01*
X154424404Y-99627380D01*
X154424404Y-98627380D01*
X154091071Y-98627380D01*
X153995833Y-98675000D01*
X153948214Y-98722619D01*
X153900595Y-98817857D01*
X153900595Y-98913095D01*
X153948214Y-99008333D01*
X153995833Y-99055952D01*
X154091071Y-99103571D01*
X154424404Y-99103571D01*
X152995833Y-98960714D02*
X152995833Y-99627380D01*
X153424404Y-98960714D02*
X153424404Y-99484523D01*
X153376785Y-99579761D01*
X153281547Y-99627380D01*
X153138690Y-99627380D01*
X153043452Y-99579761D01*
X152995833Y-99532142D01*
X152662500Y-98960714D02*
X152281547Y-98960714D01*
X152519642Y-98627380D02*
X152519642Y-99484523D01*
X152472023Y-99579761D01*
X152376785Y-99627380D01*
X152281547Y-99627380D01*
X152091071Y-98960714D02*
X151710119Y-98960714D01*
X151948214Y-98627380D02*
X151948214Y-99484523D01*
X151900595Y-99579761D01*
X151805357Y-99627380D01*
X151710119Y-99627380D01*
X151233928Y-99627380D02*
X151329166Y-99579761D01*
X151376785Y-99532142D01*
X151424404Y-99436904D01*
X151424404Y-99151190D01*
X151376785Y-99055952D01*
X151329166Y-99008333D01*
X151233928Y-98960714D01*
X151091071Y-98960714D01*
X150995833Y-99008333D01*
X150948214Y-99055952D01*
X150900595Y-99151190D01*
X150900595Y-99436904D01*
X150948214Y-99532142D01*
X150995833Y-99579761D01*
X151091071Y-99627380D01*
X151233928Y-99627380D01*
X150472023Y-98960714D02*
X150472023Y-99627380D01*
X150472023Y-99055952D02*
X150424404Y-99008333D01*
X150329166Y-98960714D01*
X150186309Y-98960714D01*
X150091071Y-99008333D01*
X150043452Y-99103571D01*
X150043452Y-99627380D01*
X149614880Y-99579761D02*
X149519642Y-99627380D01*
X149329166Y-99627380D01*
X149233928Y-99579761D01*
X149186309Y-99484523D01*
X149186309Y-99436904D01*
X149233928Y-99341666D01*
X149329166Y-99294047D01*
X149472023Y-99294047D01*
X149567261Y-99246428D01*
X149614880Y-99151190D01*
X149614880Y-99103571D01*
X149567261Y-99008333D01*
X149472023Y-98960714D01*
X149329166Y-98960714D01*
X149233928Y-99008333D01*
X147995833Y-99627380D02*
X147995833Y-98627380D01*
X147614880Y-98627380D01*
X147519642Y-98675000D01*
X147472023Y-98722619D01*
X147424404Y-98817857D01*
X147424404Y-98960714D01*
X147472023Y-99055952D01*
X147519642Y-99103571D01*
X147614880Y-99151190D01*
X147995833Y-99151190D01*
X146424404Y-99532142D02*
X146472023Y-99579761D01*
X146614880Y-99627380D01*
X146710119Y-99627380D01*
X146852976Y-99579761D01*
X146948214Y-99484523D01*
X146995833Y-99389285D01*
X147043452Y-99198809D01*
X147043452Y-99055952D01*
X146995833Y-98865476D01*
X146948214Y-98770238D01*
X146852976Y-98675000D01*
X146710119Y-98627380D01*
X146614880Y-98627380D01*
X146472023Y-98675000D01*
X146424404Y-98722619D01*
X145662500Y-99103571D02*
X145519642Y-99151190D01*
X145472023Y-99198809D01*
X145424404Y-99294047D01*
X145424404Y-99436904D01*
X145472023Y-99532142D01*
X145519642Y-99579761D01*
X145614880Y-99627380D01*
X145995833Y-99627380D01*
X145995833Y-98627380D01*
X145662500Y-98627380D01*
X145567261Y-98675000D01*
X145519642Y-98722619D01*
X145472023Y-98817857D01*
X145472023Y-98913095D01*
X145519642Y-99008333D01*
X145567261Y-99055952D01*
X145662500Y-99103571D01*
X145995833Y-99103571D01*
X144329166Y-98960714D02*
X144091071Y-99627380D01*
X143852976Y-98960714D01*
X142948214Y-99627380D02*
X143519642Y-99627380D01*
X143233928Y-99627380D02*
X143233928Y-98627380D01*
X143329166Y-98770238D01*
X143424404Y-98865476D01*
X143519642Y-98913095D01*
X142519642Y-99532142D02*
X142472023Y-99579761D01*
X142519642Y-99627380D01*
X142567261Y-99579761D01*
X142519642Y-99532142D01*
X142519642Y-99627380D01*
X141852976Y-98627380D02*
X141757738Y-98627380D01*
X141662500Y-98675000D01*
X141614880Y-98722619D01*
X141567261Y-98817857D01*
X141519642Y-99008333D01*
X141519642Y-99246428D01*
X141567261Y-99436904D01*
X141614880Y-99532142D01*
X141662500Y-99579761D01*
X141757738Y-99627380D01*
X141852976Y-99627380D01*
X141948214Y-99579761D01*
X141995833Y-99532142D01*
X142043452Y-99436904D01*
X142091071Y-99246428D01*
X142091071Y-99008333D01*
X142043452Y-98817857D01*
X141995833Y-98722619D01*
X141948214Y-98675000D01*
X141852976Y-98627380D01*
X153852976Y-101237380D02*
X154186309Y-100761190D01*
X154424404Y-101237380D02*
X154424404Y-100237380D01*
X154043452Y-100237380D01*
X153948214Y-100285000D01*
X153900595Y-100332619D01*
X153852976Y-100427857D01*
X153852976Y-100570714D01*
X153900595Y-100665952D01*
X153948214Y-100713571D01*
X154043452Y-100761190D01*
X154424404Y-100761190D01*
X152852976Y-101142142D02*
X152900595Y-101189761D01*
X153043452Y-101237380D01*
X153138690Y-101237380D01*
X153281547Y-101189761D01*
X153376785Y-101094523D01*
X153424404Y-100999285D01*
X153472023Y-100808809D01*
X153472023Y-100665952D01*
X153424404Y-100475476D01*
X153376785Y-100380238D01*
X153281547Y-100285000D01*
X153138690Y-100237380D01*
X153043452Y-100237380D01*
X152900595Y-100285000D01*
X152852976Y-100332619D01*
X151900595Y-101237380D02*
X152472023Y-101237380D01*
X152186309Y-101237380D02*
X152186309Y-100237380D01*
X152281547Y-100380238D01*
X152376785Y-100475476D01*
X152472023Y-100523095D01*
X135252023Y-105353904D02*
X135252023Y-104553904D01*
X134947261Y-104553904D01*
X134871071Y-104592000D01*
X134832976Y-104630095D01*
X134794880Y-104706285D01*
X134794880Y-104820571D01*
X134832976Y-104896761D01*
X134871071Y-104934857D01*
X134947261Y-104972952D01*
X135252023Y-104972952D01*
X133994880Y-105277714D02*
X134032976Y-105315809D01*
X134147261Y-105353904D01*
X134223452Y-105353904D01*
X134337738Y-105315809D01*
X134413928Y-105239619D01*
X134452023Y-105163428D01*
X134490119Y-105011047D01*
X134490119Y-104896761D01*
X134452023Y-104744380D01*
X134413928Y-104668190D01*
X134337738Y-104592000D01*
X134223452Y-104553904D01*
X134147261Y-104553904D01*
X134032976Y-104592000D01*
X133994880Y-104630095D01*
X133385357Y-104934857D02*
X133271071Y-104972952D01*
X133232976Y-105011047D01*
X133194880Y-105087238D01*
X133194880Y-105201523D01*
X133232976Y-105277714D01*
X133271071Y-105315809D01*
X133347261Y-105353904D01*
X133652023Y-105353904D01*
X133652023Y-104553904D01*
X133385357Y-104553904D01*
X133309166Y-104592000D01*
X133271071Y-104630095D01*
X133232976Y-104706285D01*
X133232976Y-104782476D01*
X133271071Y-104858666D01*
X133309166Y-104896761D01*
X133385357Y-104934857D01*
X133652023Y-104934857D01*
X132356785Y-104820571D02*
X132052023Y-104820571D01*
X132242500Y-105353904D02*
X132242500Y-104668190D01*
X132204404Y-104592000D01*
X132128214Y-104553904D01*
X132052023Y-104553904D01*
X131785357Y-105353904D02*
X131785357Y-104820571D01*
X131785357Y-104553904D02*
X131823452Y-104592000D01*
X131785357Y-104630095D01*
X131747261Y-104592000D01*
X131785357Y-104553904D01*
X131785357Y-104630095D01*
X131290119Y-105353904D02*
X131366309Y-105315809D01*
X131404404Y-105239619D01*
X131404404Y-104553904D01*
X130680595Y-105315809D02*
X130756785Y-105353904D01*
X130909166Y-105353904D01*
X130985357Y-105315809D01*
X131023452Y-105239619D01*
X131023452Y-104934857D01*
X130985357Y-104858666D01*
X130909166Y-104820571D01*
X130756785Y-104820571D01*
X130680595Y-104858666D01*
X130642499Y-104934857D01*
X130642499Y-105011047D01*
X131023452Y-105087238D01*
X130337738Y-105315809D02*
X130261547Y-105353904D01*
X130109166Y-105353904D01*
X130032976Y-105315809D01*
X129994880Y-105239619D01*
X129994880Y-105201523D01*
X130032976Y-105125333D01*
X130109166Y-105087238D01*
X130223452Y-105087238D01*
X130299642Y-105049142D01*
X130337738Y-104972952D01*
X130337738Y-104934857D01*
X130299642Y-104858666D01*
X130223452Y-104820571D01*
X130109166Y-104820571D01*
X130032976Y-104858666D01*
X129652023Y-105277714D02*
X129613928Y-105315809D01*
X129652023Y-105353904D01*
X129690119Y-105315809D01*
X129652023Y-105277714D01*
X129652023Y-105353904D01*
X129652023Y-104858666D02*
X129613928Y-104896761D01*
X129652023Y-104934857D01*
X129690119Y-104896761D01*
X129652023Y-104858666D01*
X129652023Y-104934857D01*
X135252023Y-106641904D02*
X135252023Y-105841904D01*
X134909166Y-106641904D02*
X134909166Y-106222857D01*
X134947261Y-106146666D01*
X135023452Y-106108571D01*
X135137738Y-106108571D01*
X135213928Y-106146666D01*
X135252023Y-106184761D01*
X134642500Y-106108571D02*
X134337738Y-106108571D01*
X134528214Y-105841904D02*
X134528214Y-106527619D01*
X134490119Y-106603809D01*
X134413928Y-106641904D01*
X134337738Y-106641904D01*
X134185357Y-106108571D02*
X133880595Y-106108571D01*
X134071071Y-105841904D02*
X134071071Y-106527619D01*
X134032976Y-106603809D01*
X133956785Y-106641904D01*
X133880595Y-106641904D01*
X133613928Y-106108571D02*
X133613928Y-106908571D01*
X133613928Y-106146666D02*
X133537738Y-106108571D01*
X133385357Y-106108571D01*
X133309166Y-106146666D01*
X133271071Y-106184761D01*
X133232976Y-106260952D01*
X133232976Y-106489523D01*
X133271071Y-106565714D01*
X133309166Y-106603809D01*
X133385357Y-106641904D01*
X133537738Y-106641904D01*
X133613928Y-106603809D01*
X132928214Y-106603809D02*
X132852023Y-106641904D01*
X132699642Y-106641904D01*
X132623452Y-106603809D01*
X132585357Y-106527619D01*
X132585357Y-106489523D01*
X132623452Y-106413333D01*
X132699642Y-106375238D01*
X132813928Y-106375238D01*
X132890119Y-106337142D01*
X132928214Y-106260952D01*
X132928214Y-106222857D01*
X132890119Y-106146666D01*
X132813928Y-106108571D01*
X132699642Y-106108571D01*
X132623452Y-106146666D01*
X132242500Y-106565714D02*
X132204404Y-106603809D01*
X132242500Y-106641904D01*
X132280595Y-106603809D01*
X132242500Y-106565714D01*
X132242500Y-106641904D01*
X132242500Y-106146666D02*
X132204404Y-106184761D01*
X132242500Y-106222857D01*
X132280595Y-106184761D01*
X132242500Y-106146666D01*
X132242500Y-106222857D01*
X131290119Y-105803809D02*
X131975833Y-106832380D01*
X130452023Y-105803809D02*
X131137738Y-106832380D01*
X130185357Y-106641904D02*
X130185357Y-105841904D01*
X130185357Y-106146666D02*
X130109166Y-106108571D01*
X129956785Y-106108571D01*
X129880595Y-106146666D01*
X129842500Y-106184761D01*
X129804404Y-106260952D01*
X129804404Y-106489523D01*
X129842500Y-106565714D01*
X129880595Y-106603809D01*
X129956785Y-106641904D01*
X130109166Y-106641904D01*
X130185357Y-106603809D01*
X129461547Y-106641904D02*
X129461547Y-106108571D01*
X129461547Y-105841904D02*
X129499642Y-105880000D01*
X129461547Y-105918095D01*
X129423452Y-105880000D01*
X129461547Y-105841904D01*
X129461547Y-105918095D01*
X129194880Y-106108571D02*
X128890119Y-106108571D01*
X129080595Y-105841904D02*
X129080595Y-106527619D01*
X129042500Y-106603809D01*
X128966309Y-106641904D01*
X128890119Y-106641904D01*
X128623452Y-106565714D02*
X128585357Y-106603809D01*
X128623452Y-106641904D01*
X128661547Y-106603809D01*
X128623452Y-106565714D01*
X128623452Y-106641904D01*
X128128214Y-106641904D02*
X128204404Y-106603809D01*
X128242500Y-106527619D01*
X128242500Y-105841904D01*
X127899642Y-106108571D02*
X127709166Y-106641904D01*
X127518690Y-106108571D02*
X127709166Y-106641904D01*
X127785357Y-106832380D01*
X127823452Y-106870476D01*
X127899642Y-106908571D01*
X126642500Y-105803809D02*
X127328214Y-106832380D01*
X135328214Y-107129904D02*
X134832976Y-107129904D01*
X135099642Y-107434666D01*
X134985357Y-107434666D01*
X134909166Y-107472761D01*
X134871071Y-107510857D01*
X134832976Y-107587047D01*
X134832976Y-107777523D01*
X134871071Y-107853714D01*
X134909166Y-107891809D01*
X134985357Y-107929904D01*
X135213928Y-107929904D01*
X135290119Y-107891809D01*
X135328214Y-107853714D01*
X134490119Y-107929904D02*
X134490119Y-107129904D01*
X133766309Y-107929904D02*
X133766309Y-107129904D01*
X133766309Y-107891809D02*
X133842500Y-107929904D01*
X133994880Y-107929904D01*
X134071071Y-107891809D01*
X134109166Y-107853714D01*
X134147261Y-107777523D01*
X134147261Y-107548952D01*
X134109166Y-107472761D01*
X134071071Y-107434666D01*
X133994880Y-107396571D01*
X133842500Y-107396571D01*
X133766309Y-107434666D01*
X133499642Y-107396571D02*
X133194880Y-107396571D01*
X133385357Y-107129904D02*
X133385357Y-107815619D01*
X133347261Y-107891809D01*
X133271071Y-107929904D01*
X133194880Y-107929904D01*
X132890119Y-107929904D02*
X132737738Y-107929904D01*
X132661547Y-107891809D01*
X132623452Y-107853714D01*
X132547261Y-107739428D01*
X132509166Y-107587047D01*
X132509166Y-107282285D01*
X132547261Y-107206095D01*
X132585357Y-107168000D01*
X132661547Y-107129904D01*
X132813928Y-107129904D01*
X132890119Y-107168000D01*
X132928214Y-107206095D01*
X132966309Y-107282285D01*
X132966309Y-107472761D01*
X132928214Y-107548952D01*
X132890119Y-107587047D01*
X132813928Y-107625142D01*
X132661547Y-107625142D01*
X132585357Y-107587047D01*
X132547261Y-107548952D01*
X132509166Y-107472761D01*
X132166309Y-107929904D02*
X132166309Y-107396571D01*
X132166309Y-107472761D02*
X132128214Y-107434666D01*
X132052023Y-107396571D01*
X131937738Y-107396571D01*
X131861547Y-107434666D01*
X131823452Y-107510857D01*
X131823452Y-107929904D01*
X131823452Y-107510857D02*
X131785357Y-107434666D01*
X131709166Y-107396571D01*
X131594880Y-107396571D01*
X131518690Y-107434666D01*
X131480595Y-107510857D01*
X131480595Y-107929904D01*
X130756785Y-107929904D02*
X130756785Y-107129904D01*
X130756785Y-107891809D02*
X130832976Y-107929904D01*
X130985357Y-107929904D01*
X131061547Y-107891809D01*
X131099642Y-107853714D01*
X131137738Y-107777523D01*
X131137738Y-107548952D01*
X131099642Y-107472761D01*
X131061547Y-107434666D01*
X130985357Y-107396571D01*
X130832976Y-107396571D01*
X130756785Y-107434666D01*
%TO.C,designedby*%
G36*
X149305945Y-106962049D02*
G01*
X149325660Y-107008722D01*
X149313208Y-107064257D01*
X149295232Y-107087115D01*
X149253022Y-107104668D01*
X149207962Y-107095946D01*
X149172095Y-107064765D01*
X149157463Y-107014937D01*
X149169049Y-106970298D01*
X149207214Y-106938606D01*
X149262721Y-106936644D01*
X149305945Y-106962049D01*
G37*
G36*
X147962736Y-107753323D02*
G01*
X147989364Y-107783570D01*
X147984804Y-107833340D01*
X147967767Y-107852068D01*
X147919615Y-107857614D01*
X147907566Y-107855896D01*
X147874617Y-107840227D01*
X147866102Y-107802911D01*
X147866469Y-107791938D01*
X147879563Y-107760540D01*
X147919615Y-107748209D01*
X147962736Y-107753323D01*
G37*
G36*
X149272827Y-105635397D02*
G01*
X149303286Y-105665266D01*
X149311213Y-105710184D01*
X149292509Y-105755280D01*
X149276393Y-105770771D01*
X149234004Y-105780938D01*
X149187979Y-105752824D01*
X149162086Y-105707403D01*
X149168851Y-105665506D01*
X149202805Y-105636933D01*
X149258344Y-105631352D01*
X149272827Y-105635397D01*
G37*
G36*
X146647563Y-105231982D02*
G01*
X146672003Y-105257835D01*
X146689614Y-105311547D01*
X146683215Y-105368484D01*
X146662760Y-105387487D01*
X146608858Y-105391346D01*
X146568954Y-105384436D01*
X146549516Y-105364643D01*
X146545613Y-105319401D01*
X146547657Y-105292596D01*
X146567511Y-105243231D01*
X146603056Y-105221104D01*
X146647563Y-105231982D01*
G37*
G36*
X147064108Y-106954668D02*
G01*
X147086307Y-106999094D01*
X147077362Y-107060860D01*
X147059111Y-107088523D01*
X147019282Y-107106069D01*
X146975020Y-107099659D01*
X146939096Y-107072163D01*
X146924283Y-107026453D01*
X146936629Y-106971916D01*
X146973485Y-106938414D01*
X147028515Y-106936387D01*
X147064108Y-106954668D01*
G37*
G36*
X141802772Y-105245413D02*
G01*
X141831875Y-105281217D01*
X141837779Y-105326390D01*
X141813213Y-105371657D01*
X141793693Y-105384444D01*
X141749130Y-105394960D01*
X141713960Y-105388274D01*
X141676532Y-105358278D01*
X141660929Y-105315051D01*
X141670310Y-105270665D01*
X141707836Y-105237194D01*
X141757736Y-105228252D01*
X141802772Y-105245413D01*
G37*
G36*
X143096375Y-105231009D02*
G01*
X143130834Y-105262522D01*
X143146910Y-105308048D01*
X143135905Y-105359262D01*
X143133845Y-105362770D01*
X143097507Y-105389200D01*
X143048596Y-105392746D01*
X143005537Y-105371657D01*
X142986024Y-105334656D01*
X142986396Y-105282186D01*
X143011110Y-105239818D01*
X143052235Y-105221836D01*
X143096375Y-105231009D01*
G37*
G36*
X144409448Y-104835016D02*
G01*
X144452669Y-104862907D01*
X144471445Y-104910135D01*
X144459390Y-104965287D01*
X144437296Y-104990881D01*
X144383600Y-105006581D01*
X144344021Y-105001686D01*
X144298967Y-104972494D01*
X144283304Y-104919196D01*
X144289105Y-104884161D01*
X144322920Y-104845266D01*
X144384699Y-104831810D01*
X144409448Y-104835016D01*
G37*
G36*
X146463109Y-105240742D02*
G01*
X146492317Y-105278210D01*
X146498021Y-105325683D01*
X146473763Y-105371657D01*
X146465884Y-105378529D01*
X146420053Y-105395121D01*
X146373965Y-105385448D01*
X146343986Y-105351992D01*
X146334266Y-105304344D01*
X146348867Y-105254994D01*
X146392834Y-105227518D01*
X146416855Y-105224781D01*
X146463109Y-105240742D01*
G37*
G36*
X148492364Y-105231982D02*
G01*
X148516804Y-105257835D01*
X148534415Y-105311547D01*
X148528016Y-105368484D01*
X148507562Y-105387487D01*
X148453659Y-105391346D01*
X148413755Y-105384436D01*
X148394317Y-105364643D01*
X148390414Y-105319401D01*
X148392458Y-105292596D01*
X148412313Y-105243231D01*
X148447857Y-105221104D01*
X148492364Y-105231982D01*
G37*
G36*
X148884448Y-107344266D02*
G01*
X148914906Y-107374134D01*
X148922834Y-107419052D01*
X148904130Y-107464148D01*
X148887021Y-107481284D01*
X148854017Y-107490454D01*
X148806645Y-107472106D01*
X148781477Y-107451318D01*
X148769317Y-107412495D01*
X148783407Y-107373966D01*
X148818653Y-107346339D01*
X148869965Y-107340220D01*
X148884448Y-107344266D01*
G37*
G36*
X142356706Y-106043576D02*
G01*
X142390649Y-106069921D01*
X142396673Y-106108090D01*
X142370761Y-106144828D01*
X142348148Y-106156820D01*
X142305041Y-106155366D01*
X142275553Y-106121670D01*
X142270228Y-106082621D01*
X142291819Y-106048453D01*
X142338868Y-106039590D01*
X142356706Y-106043576D01*
G37*
G36*
X147244100Y-103262416D02*
G01*
X147332589Y-103284649D01*
X147408372Y-103326346D01*
X147465257Y-103385190D01*
X147497051Y-103458862D01*
X147497562Y-103545043D01*
X147489739Y-103575690D01*
X147462424Y-103626701D01*
X147414221Y-103670397D01*
X147339324Y-103711348D01*
X147231926Y-103754124D01*
X147188505Y-103770009D01*
X147125650Y-103795478D01*
X147088826Y-103816510D01*
X147070690Y-103837930D01*
X147063898Y-103864567D01*
X147067096Y-103902013D01*
X147096585Y-103943249D01*
X147148323Y-103967032D01*
X147214229Y-103971865D01*
X147286223Y-103956253D01*
X147356223Y-103918698D01*
X147410778Y-103878364D01*
X147470330Y-103920768D01*
X147529882Y-103963173D01*
X147482767Y-104010287D01*
X147476197Y-104016465D01*
X147421901Y-104054639D01*
X147359593Y-104084503D01*
X147302164Y-104100988D01*
X147195452Y-104110858D01*
X147098409Y-104094841D01*
X147015866Y-104056615D01*
X146952652Y-103999859D01*
X146913599Y-103928254D01*
X146903535Y-103845477D01*
X146927292Y-103755209D01*
X146950755Y-103725970D01*
X147001461Y-103686231D01*
X147064613Y-103648200D01*
X147127069Y-103619647D01*
X147175687Y-103608343D01*
X147220992Y-103598156D01*
X147274123Y-103566925D01*
X147315445Y-103524760D01*
X147332081Y-103482062D01*
X147329300Y-103461269D01*
X147301614Y-103422489D01*
X147251198Y-103401928D01*
X147186665Y-103400347D01*
X147116629Y-103418506D01*
X147049706Y-103457163D01*
X146996418Y-103499079D01*
X146948279Y-103443115D01*
X146900140Y-103387150D01*
X146955904Y-103342274D01*
X146964335Y-103335687D01*
X147053780Y-103285616D01*
X147149100Y-103261965D01*
X147244100Y-103262416D01*
G37*
G36*
X148876991Y-106431719D02*
G01*
X148901157Y-106464441D01*
X148897994Y-106511550D01*
X148896625Y-106514604D01*
X148868141Y-106536137D01*
X148828140Y-106538982D01*
X148798105Y-106521086D01*
X148795991Y-106517220D01*
X148793704Y-106477473D01*
X148814384Y-106440479D01*
X148848678Y-106424165D01*
X148876991Y-106431719D01*
G37*
G36*
X147768546Y-106044455D02*
G01*
X147795174Y-106074701D01*
X147790615Y-106124472D01*
X147773577Y-106143200D01*
X147725425Y-106148745D01*
X147713376Y-106147027D01*
X147680428Y-106131358D01*
X147671913Y-106094043D01*
X147672279Y-106083070D01*
X147685373Y-106051672D01*
X147725425Y-106039340D01*
X147768546Y-106044455D01*
G37*
G36*
X141775283Y-105639037D02*
G01*
X141803184Y-105653590D01*
X141813797Y-105693847D01*
X141811584Y-105736090D01*
X141794378Y-105766371D01*
X141781808Y-105773208D01*
X141749130Y-105782745D01*
X141724767Y-105778631D01*
X141691766Y-105748118D01*
X141684463Y-105693847D01*
X141688714Y-105668787D01*
X141706700Y-105643497D01*
X141749130Y-105637697D01*
X141775283Y-105639037D01*
G37*
G36*
X146844234Y-106545258D02*
G01*
X146889052Y-106574601D01*
X146904864Y-106628064D01*
X146901017Y-106654288D01*
X146881561Y-106692147D01*
X146855125Y-106706972D01*
X146807769Y-106715449D01*
X146771305Y-106710870D01*
X146726486Y-106681528D01*
X146710674Y-106628064D01*
X146715763Y-106595246D01*
X146748365Y-106554909D01*
X146807769Y-106540679D01*
X146844234Y-106545258D01*
G37*
G36*
X146838517Y-106037571D02*
G01*
X146861214Y-106052779D01*
X146866026Y-106094043D01*
X146864241Y-106124790D01*
X146849032Y-106147488D01*
X146807769Y-106152300D01*
X146777021Y-106150515D01*
X146754324Y-106135306D01*
X146749512Y-106094043D01*
X146751297Y-106063295D01*
X146766506Y-106040598D01*
X146807769Y-106035786D01*
X146838517Y-106037571D01*
G37*
G36*
X144205061Y-108146792D02*
G01*
X144231469Y-108178101D01*
X144232999Y-108217998D01*
X144218424Y-108237967D01*
X144184558Y-108246802D01*
X144150461Y-108231730D01*
X144131445Y-108196058D01*
X144132886Y-108167875D01*
X144157225Y-108140001D01*
X144166786Y-108137461D01*
X144205061Y-108146792D01*
G37*
G36*
X146647927Y-102892766D02*
G01*
X146696828Y-102920228D01*
X146725017Y-102967294D01*
X146727573Y-103022156D01*
X146699578Y-103073007D01*
X146665308Y-103095464D01*
X146607489Y-103100044D01*
X146551997Y-103071385D01*
X146533832Y-103050218D01*
X146517559Y-102997407D01*
X146530068Y-102945387D01*
X146566824Y-102905707D01*
X146623289Y-102889914D01*
X146647927Y-102892766D01*
G37*
G36*
X147752542Y-105434304D02*
G01*
X147795674Y-105453916D01*
X147812474Y-105495378D01*
X147798529Y-105549578D01*
X147767525Y-105580757D01*
X147720845Y-105586019D01*
X147673300Y-105558634D01*
X147647980Y-105519672D01*
X147650114Y-105477141D01*
X147683040Y-105445928D01*
X147742454Y-105433798D01*
X147752542Y-105434304D01*
G37*
G36*
X146246303Y-107541378D02*
G01*
X146274574Y-107568203D01*
X146284994Y-107609517D01*
X146276862Y-107649384D01*
X146249474Y-107671869D01*
X146205227Y-107671277D01*
X146164286Y-107648593D01*
X146147524Y-107610416D01*
X146158234Y-107572237D01*
X146194564Y-107541962D01*
X146243687Y-107540459D01*
X146246303Y-107541378D01*
G37*
G36*
X148489128Y-106037571D02*
G01*
X148511826Y-106052779D01*
X148516638Y-106094043D01*
X148514853Y-106124790D01*
X148499644Y-106147488D01*
X148458381Y-106152300D01*
X148427633Y-106150515D01*
X148404936Y-106135306D01*
X148400124Y-106094043D01*
X148401909Y-106063295D01*
X148417117Y-106040598D01*
X148458381Y-106035786D01*
X148489128Y-106037571D01*
G37*
G36*
X145332741Y-107744271D02*
G01*
X145360649Y-107774250D01*
X145361769Y-107820084D01*
X145360971Y-107822524D01*
X145339084Y-107853259D01*
X145296278Y-107857442D01*
X145266905Y-107848163D01*
X145239871Y-107817428D01*
X145239749Y-107779052D01*
X145269810Y-107746721D01*
X145289513Y-107739295D01*
X145332741Y-107744271D01*
G37*
G36*
X149083942Y-106044700D02*
G01*
X149110148Y-106074981D01*
X149105826Y-106124222D01*
X149089349Y-106142431D01*
X149043324Y-106148495D01*
X149035985Y-106147508D01*
X149001502Y-106132111D01*
X148992402Y-106094043D01*
X148992545Y-106087030D01*
X149004501Y-106052768D01*
X149043324Y-106039590D01*
X149083942Y-106044700D01*
G37*
G36*
X143479488Y-103835210D02*
G01*
X143455477Y-103890277D01*
X143396707Y-103975599D01*
X143322737Y-104046085D01*
X143244390Y-104090004D01*
X143184111Y-104104788D01*
X143074281Y-104105771D01*
X142968981Y-104077438D01*
X142880995Y-104022173D01*
X142861409Y-104005822D01*
X142848646Y-104007177D01*
X142846301Y-104042333D01*
X142846242Y-104049244D01*
X142840768Y-104078919D01*
X142818566Y-104091365D01*
X142768625Y-104093890D01*
X142690950Y-104093890D01*
X142690950Y-103684845D01*
X142846301Y-103684845D01*
X142851293Y-103743186D01*
X142886925Y-103840102D01*
X142955336Y-103917405D01*
X142981659Y-103933699D01*
X143057090Y-103954761D01*
X143141203Y-103953355D01*
X143217563Y-103928769D01*
X143248131Y-103907272D01*
X143296341Y-103842960D01*
X143323461Y-103760378D01*
X143329443Y-103669255D01*
X143314235Y-103579319D01*
X143277788Y-103500297D01*
X143220052Y-103441918D01*
X143209402Y-103435576D01*
X143134577Y-103411842D01*
X143050519Y-103410066D01*
X142977218Y-103431133D01*
X142943031Y-103456670D01*
X142894071Y-103521068D01*
X142859438Y-103601757D01*
X142846301Y-103684845D01*
X142690950Y-103684845D01*
X142690950Y-102948171D01*
X142846301Y-102948171D01*
X142846301Y-103152070D01*
X142846855Y-103217311D01*
X142849037Y-103288995D01*
X142852488Y-103337889D01*
X142856797Y-103355969D01*
X142857899Y-103355824D01*
X142881645Y-103343297D01*
X142920355Y-103316739D01*
X142981278Y-103286935D01*
X143067560Y-103267458D01*
X143158861Y-103263220D01*
X143238477Y-103276342D01*
X143262900Y-103286228D01*
X143338023Y-103334698D01*
X143408608Y-103402859D01*
X143461028Y-103478342D01*
X143477026Y-103515925D01*
X143499032Y-103618343D01*
X143499536Y-103669255D01*
X143500140Y-103730320D01*
X143479488Y-103835210D01*
G37*
G36*
X148489128Y-107746439D02*
G01*
X148511826Y-107761648D01*
X148516638Y-107802911D01*
X148514853Y-107833659D01*
X148499644Y-107856356D01*
X148458381Y-107861168D01*
X148427633Y-107859383D01*
X148404936Y-107844175D01*
X148400124Y-107802911D01*
X148401909Y-107772163D01*
X148417117Y-107749466D01*
X148458381Y-107744654D01*
X148489128Y-107746439D01*
G37*
G36*
X145535366Y-107753323D02*
G01*
X145561994Y-107783570D01*
X145557434Y-107833340D01*
X145540397Y-107852068D01*
X145492245Y-107857614D01*
X145480196Y-107855896D01*
X145447247Y-107840227D01*
X145438732Y-107802911D01*
X145439099Y-107791938D01*
X145452193Y-107760540D01*
X145492245Y-107748209D01*
X145535366Y-107753323D01*
G37*
G36*
X144406394Y-107751660D02*
G01*
X144434526Y-107783461D01*
X144431634Y-107832040D01*
X144413896Y-107850454D01*
X144373377Y-107861168D01*
X144340360Y-107854163D01*
X144312227Y-107822362D01*
X144315120Y-107773783D01*
X144332857Y-107755368D01*
X144373377Y-107744654D01*
X144406394Y-107751660D01*
G37*
G36*
X144022831Y-107946518D02*
G01*
X144046456Y-107979360D01*
X144043254Y-108026229D01*
X144030863Y-108042028D01*
X143993561Y-108054310D01*
X143952257Y-108048092D01*
X143925796Y-108023768D01*
X143924669Y-107988290D01*
X143950201Y-107953367D01*
X143995007Y-107938844D01*
X144022831Y-107946518D01*
G37*
G36*
X144201507Y-107752445D02*
G01*
X144235450Y-107778790D01*
X144241474Y-107816959D01*
X144215562Y-107853696D01*
X144192950Y-107865688D01*
X144149842Y-107864235D01*
X144120354Y-107830538D01*
X144115029Y-107791489D01*
X144136620Y-107757322D01*
X144183669Y-107748459D01*
X144201507Y-107752445D01*
G37*
G36*
X145717332Y-107347905D02*
G01*
X145745233Y-107362458D01*
X145755846Y-107402715D01*
X145753633Y-107444958D01*
X145736427Y-107475239D01*
X145723857Y-107482076D01*
X145691179Y-107491613D01*
X145666816Y-107487500D01*
X145633815Y-107456986D01*
X145626512Y-107402715D01*
X145630763Y-107377656D01*
X145648749Y-107352365D01*
X145691179Y-107346566D01*
X145717332Y-107347905D01*
G37*
G36*
X147777238Y-107551281D02*
G01*
X147796616Y-107587893D01*
X147792704Y-107631158D01*
X147764654Y-107664367D01*
X147761589Y-107665980D01*
X147716587Y-107671360D01*
X147678352Y-107650150D01*
X147662203Y-107610416D01*
X147672913Y-107572237D01*
X147709243Y-107541962D01*
X147758366Y-107540459D01*
X147777238Y-107551281D01*
G37*
G36*
X144030124Y-106948084D02*
G01*
X144032333Y-106949326D01*
X144062516Y-106986341D01*
X144067941Y-107036087D01*
X144046393Y-107080526D01*
X144044498Y-107082350D01*
X143999337Y-107102438D01*
X143949809Y-107095668D01*
X143913951Y-107064257D01*
X143905593Y-107044616D01*
X143904187Y-106992054D01*
X143930143Y-106952776D01*
X143974956Y-106935285D01*
X144030124Y-106948084D01*
G37*
G36*
X149077415Y-105231009D02*
G01*
X149111874Y-105262522D01*
X149127950Y-105308048D01*
X149116945Y-105359262D01*
X149114885Y-105362770D01*
X149078547Y-105389200D01*
X149029635Y-105392746D01*
X148986576Y-105371657D01*
X148967064Y-105334656D01*
X148967436Y-105282186D01*
X148992150Y-105239818D01*
X149033274Y-105221836D01*
X149077415Y-105231009D01*
G37*
G36*
X141002738Y-103702741D02*
G01*
X140812200Y-104129134D01*
X140877722Y-104279814D01*
X140888658Y-104305191D01*
X140916534Y-104372235D01*
X140935953Y-104422514D01*
X140943243Y-104446672D01*
X140931061Y-104457264D01*
X140893729Y-104462562D01*
X140845331Y-104460752D01*
X140800391Y-104452526D01*
X140773433Y-104438576D01*
X140759782Y-104414317D01*
X140736752Y-104362641D01*
X140711344Y-104297789D01*
X140703206Y-104276210D01*
X140677035Y-104209210D01*
X140640146Y-104116614D01*
X140595302Y-104005302D01*
X140545272Y-103882156D01*
X140492818Y-103754058D01*
X140460927Y-103676470D01*
X140413792Y-103561715D01*
X140372726Y-103461637D01*
X140339907Y-103381546D01*
X140317511Y-103326753D01*
X140307715Y-103302567D01*
X140308628Y-103291548D01*
X140334961Y-103281405D01*
X140395317Y-103278293D01*
X140492372Y-103278293D01*
X140575237Y-103506466D01*
X140608175Y-103596704D01*
X140642602Y-103690119D01*
X140671957Y-103768871D01*
X140692189Y-103822024D01*
X140726276Y-103909410D01*
X140765527Y-103822024D01*
X140786657Y-103774206D01*
X140819854Y-103697950D01*
X140859239Y-103606723D01*
X140900134Y-103511321D01*
X140995491Y-103288003D01*
X141094383Y-103282175D01*
X141193275Y-103276348D01*
X141002738Y-103702741D01*
G37*
G36*
X149269415Y-105441776D02*
G01*
X149298512Y-105459339D01*
X149309515Y-105499657D01*
X149307303Y-105541900D01*
X149290096Y-105572181D01*
X149240915Y-105588682D01*
X149194942Y-105575980D01*
X149166649Y-105537883D01*
X149165671Y-105481417D01*
X149173610Y-105457487D01*
X149195553Y-105438113D01*
X149240660Y-105437472D01*
X149269415Y-105441776D01*
G37*
G36*
X145136589Y-105635397D02*
G01*
X145167047Y-105665266D01*
X145174974Y-105710184D01*
X145156270Y-105755280D01*
X145140155Y-105770771D01*
X145097765Y-105780938D01*
X145051740Y-105752824D01*
X145025847Y-105707403D01*
X145032613Y-105665506D01*
X145066566Y-105636933D01*
X145122105Y-105631352D01*
X145136589Y-105635397D01*
G37*
G36*
X146837931Y-106939576D02*
G01*
X146869677Y-106972348D01*
X146885322Y-107020887D01*
X146877881Y-107076112D01*
X146875302Y-107081084D01*
X146844422Y-107099573D01*
X146797838Y-107101992D01*
X146752812Y-107086860D01*
X146737744Y-107066425D01*
X146733533Y-107022126D01*
X146746360Y-106974598D01*
X146773786Y-106940825D01*
X146797071Y-106931649D01*
X146837931Y-106939576D01*
G37*
G36*
X147574356Y-106044455D02*
G01*
X147600985Y-106074701D01*
X147596425Y-106124472D01*
X147579388Y-106143200D01*
X147531236Y-106148745D01*
X147519187Y-106147027D01*
X147486238Y-106131358D01*
X147477723Y-106094043D01*
X147478089Y-106083070D01*
X147491183Y-106051672D01*
X147531236Y-106039340D01*
X147574356Y-106044455D01*
G37*
G36*
X145692269Y-106734875D02*
G01*
X145742139Y-106751298D01*
X145772899Y-106790614D01*
X145779092Y-106839926D01*
X145755261Y-106886336D01*
X145735742Y-106899123D01*
X145691179Y-106909639D01*
X145664955Y-106905792D01*
X145627096Y-106886336D01*
X145614310Y-106866817D01*
X145603794Y-106822254D01*
X145607346Y-106795046D01*
X145637194Y-106751167D01*
X145691179Y-106734868D01*
X145692269Y-106734875D01*
G37*
G36*
X142567798Y-105636878D02*
G01*
X142601823Y-105665398D01*
X142608677Y-105707270D01*
X142582758Y-105752824D01*
X142563310Y-105769151D01*
X142518576Y-105781364D01*
X142478228Y-105755280D01*
X142468765Y-105741115D01*
X142459413Y-105694424D01*
X142475322Y-105652879D01*
X142512393Y-105631352D01*
X142567798Y-105636878D01*
G37*
G36*
X147731260Y-105026006D02*
G01*
X147781130Y-105042430D01*
X147811890Y-105081746D01*
X147818083Y-105131058D01*
X147794252Y-105177468D01*
X147774733Y-105190254D01*
X147730170Y-105200771D01*
X147702962Y-105197218D01*
X147659083Y-105167370D01*
X147642784Y-105113385D01*
X147646337Y-105086178D01*
X147676185Y-105042299D01*
X147730170Y-105026000D01*
X147731260Y-105026006D01*
G37*
G36*
X149278207Y-107548639D02*
G01*
X149303222Y-107583181D01*
X149306806Y-107624444D01*
X149282087Y-107660840D01*
X149254421Y-107680381D01*
X149235748Y-107684420D01*
X149207599Y-107674610D01*
X149185408Y-107651076D01*
X149176867Y-107607886D01*
X149184660Y-107563900D01*
X149208650Y-107537055D01*
X149238638Y-107532407D01*
X149278207Y-107548639D01*
G37*
G36*
X147756323Y-107347905D02*
G01*
X147784224Y-107362458D01*
X147794836Y-107402715D01*
X147792624Y-107444958D01*
X147775417Y-107475239D01*
X147762848Y-107482076D01*
X147730170Y-107491613D01*
X147705806Y-107487500D01*
X147672806Y-107456986D01*
X147665503Y-107402715D01*
X147669753Y-107377656D01*
X147687740Y-107352365D01*
X147730170Y-107346566D01*
X147756323Y-107347905D01*
G37*
G36*
X145734876Y-107556618D02*
G01*
X145756138Y-107591802D01*
X145755021Y-107631582D01*
X145725664Y-107664367D01*
X145721557Y-107666505D01*
X145675390Y-107671358D01*
X145638374Y-107646393D01*
X145623213Y-107599637D01*
X145629478Y-107569040D01*
X145662982Y-107540459D01*
X145697099Y-107537618D01*
X145734876Y-107556618D01*
G37*
G36*
X147739090Y-106550419D02*
G01*
X147785145Y-106554220D01*
X147806153Y-106569929D01*
X147814148Y-106605431D01*
X147815547Y-106649114D01*
X147809450Y-106689143D01*
X147808812Y-106690682D01*
X147782498Y-106709776D01*
X147725471Y-106711776D01*
X147704210Y-106709848D01*
X147668445Y-106701243D01*
X147654723Y-106678016D01*
X147652494Y-106628064D01*
X147652494Y-106550388D01*
X147730170Y-106550388D01*
X147739090Y-106550419D01*
G37*
G36*
X145141969Y-107548639D02*
G01*
X145166983Y-107583181D01*
X145170568Y-107624444D01*
X145145848Y-107660840D01*
X145118183Y-107680381D01*
X145099510Y-107684420D01*
X145071360Y-107674610D01*
X145049170Y-107651076D01*
X145040629Y-107607886D01*
X145048422Y-107563900D01*
X145072412Y-107537055D01*
X145102399Y-107532407D01*
X145141969Y-107548639D01*
G37*
G36*
X146336158Y-103789439D02*
G01*
X146321340Y-103839233D01*
X146293373Y-103895877D01*
X146242728Y-103973741D01*
X146167929Y-104043795D01*
X146071806Y-104090543D01*
X146040851Y-104099847D01*
X145925258Y-104110644D01*
X145815092Y-104083886D01*
X145715453Y-104020572D01*
X145704627Y-104011508D01*
X145689090Y-104005529D01*
X145682707Y-104025097D01*
X145681469Y-104076850D01*
X145694149Y-104164446D01*
X145736233Y-104233191D01*
X145809607Y-104280421D01*
X145894565Y-104303839D01*
X145984381Y-104300830D01*
X146089449Y-104270378D01*
X146187141Y-104233258D01*
X146215880Y-104288833D01*
X146217089Y-104291179D01*
X146236574Y-104331924D01*
X146244619Y-104354398D01*
X146235523Y-104367122D01*
X146196562Y-104389657D01*
X146135114Y-104414080D01*
X146060139Y-104436407D01*
X145967953Y-104450279D01*
X145853095Y-104445165D01*
X145744605Y-104418425D01*
X145652480Y-104372714D01*
X145586714Y-104310686D01*
X145585163Y-104308489D01*
X145560269Y-104267016D01*
X145541094Y-104218893D01*
X145526946Y-104158760D01*
X145517134Y-104081258D01*
X145510968Y-103981028D01*
X145507756Y-103852711D01*
X145506807Y-103690946D01*
X145506806Y-103686092D01*
X145662903Y-103686092D01*
X145667107Y-103727231D01*
X145695587Y-103808029D01*
X145743804Y-103878902D01*
X145803309Y-103925447D01*
X145842030Y-103940645D01*
X145931390Y-103955816D01*
X146011592Y-103944292D01*
X146029864Y-103935830D01*
X146086850Y-103890599D01*
X146137005Y-103827088D01*
X146168002Y-103759838D01*
X146178594Y-103679568D01*
X146162589Y-103588523D01*
X146119701Y-103511682D01*
X146055738Y-103453958D01*
X145976510Y-103420266D01*
X145887826Y-103415523D01*
X145795493Y-103444642D01*
X145755217Y-103476693D01*
X145709405Y-103539715D01*
X145675897Y-103614498D01*
X145662903Y-103686092D01*
X145506806Y-103686092D01*
X145506699Y-103278293D01*
X145594084Y-103278293D01*
X145598945Y-103278302D01*
X145651341Y-103281298D01*
X145675575Y-103292624D01*
X145681469Y-103316585D01*
X145682774Y-103335048D01*
X145692580Y-103342869D01*
X145719404Y-103333783D01*
X145771747Y-103306876D01*
X145862399Y-103272224D01*
X145977257Y-103262157D01*
X146088797Y-103286525D01*
X146189897Y-103343557D01*
X146273432Y-103431486D01*
X146295778Y-103465506D01*
X146319097Y-103515347D01*
X146331925Y-103574080D01*
X146338589Y-103656656D01*
X146339264Y-103679568D01*
X146340777Y-103730899D01*
X146336158Y-103789439D01*
G37*
G36*
X144009303Y-107758018D02*
G01*
X144043208Y-107781604D01*
X144048422Y-107817466D01*
X144020577Y-107854277D01*
X144003721Y-107863516D01*
X143960325Y-107864833D01*
X143927274Y-107840059D01*
X143918020Y-107796743D01*
X143919679Y-107787836D01*
X143937983Y-107761490D01*
X143982044Y-107754364D01*
X144009303Y-107758018D01*
G37*
G36*
X146644327Y-107746439D02*
G01*
X146667025Y-107761648D01*
X146671836Y-107802911D01*
X146670052Y-107833659D01*
X146654843Y-107856356D01*
X146613580Y-107861168D01*
X146582832Y-107859383D01*
X146560134Y-107844175D01*
X146555323Y-107802911D01*
X146557107Y-107772163D01*
X146572316Y-107749466D01*
X146613580Y-107744654D01*
X146644327Y-107746439D01*
G37*
G36*
X145907741Y-105434304D02*
G01*
X145950873Y-105453916D01*
X145967673Y-105495378D01*
X145953727Y-105549578D01*
X145922724Y-105580757D01*
X145876043Y-105586019D01*
X145828499Y-105558634D01*
X145803179Y-105519672D01*
X145805313Y-105477141D01*
X145838239Y-105445928D01*
X145897653Y-105433798D01*
X145907741Y-105434304D01*
G37*
G36*
X145712505Y-107146380D02*
G01*
X145749630Y-107170861D01*
X145768617Y-107210650D01*
X145759145Y-107259180D01*
X145742630Y-107280216D01*
X145699679Y-107298151D01*
X145653938Y-107287776D01*
X145619941Y-107250046D01*
X145607989Y-107206386D01*
X145622735Y-107172370D01*
X145625112Y-107169610D01*
X145667559Y-107143774D01*
X145712505Y-107146380D01*
G37*
G36*
X144413048Y-105445040D02*
G01*
X144443290Y-105457384D01*
X144454711Y-105488269D01*
X144453918Y-105520247D01*
X144437769Y-105561090D01*
X144432618Y-105566833D01*
X144389490Y-105590256D01*
X144346298Y-105583270D01*
X144314618Y-105551271D01*
X144306023Y-105499657D01*
X144313144Y-105465528D01*
X144333928Y-105447391D01*
X144380399Y-105443508D01*
X144413048Y-105445040D01*
G37*
G36*
X148492364Y-106940850D02*
G01*
X148516804Y-106966703D01*
X148534415Y-107020415D01*
X148528016Y-107077353D01*
X148507562Y-107096356D01*
X148453659Y-107100214D01*
X148413755Y-107093304D01*
X148394317Y-107073512D01*
X148390414Y-107028269D01*
X148392458Y-107001464D01*
X148412313Y-106952100D01*
X148447857Y-106929972D01*
X148492364Y-106940850D01*
G37*
G36*
X146644327Y-106037571D02*
G01*
X146667025Y-106052779D01*
X146671836Y-106094043D01*
X146670052Y-106124790D01*
X146654843Y-106147488D01*
X146613580Y-106152300D01*
X146582832Y-106150515D01*
X146560134Y-106135306D01*
X146555323Y-106094043D01*
X146557107Y-106063295D01*
X146572316Y-106040598D01*
X146613580Y-106035786D01*
X146644327Y-106037571D01*
G37*
G36*
X143690564Y-106044455D02*
G01*
X143717193Y-106074701D01*
X143712633Y-106124472D01*
X143695596Y-106143200D01*
X143647444Y-106148745D01*
X143635395Y-106147027D01*
X143602446Y-106131358D01*
X143593931Y-106094043D01*
X143594297Y-106083070D01*
X143607391Y-106051672D01*
X143647444Y-106039340D01*
X143690564Y-106044455D01*
G37*
G36*
X149272827Y-107344266D02*
G01*
X149303286Y-107374134D01*
X149311213Y-107419052D01*
X149292509Y-107464148D01*
X149276393Y-107479639D01*
X149234004Y-107489806D01*
X149187979Y-107461692D01*
X149162086Y-107416272D01*
X149168851Y-107374375D01*
X149202805Y-107345801D01*
X149258344Y-107340220D01*
X149272827Y-107344266D01*
G37*
G36*
X142164502Y-106049149D02*
G01*
X142198406Y-106072736D01*
X142203621Y-106108597D01*
X142175776Y-106145409D01*
X142158920Y-106154647D01*
X142115523Y-106155964D01*
X142082473Y-106131191D01*
X142073219Y-106087874D01*
X142074877Y-106078968D01*
X142093181Y-106052622D01*
X142137243Y-106045495D01*
X142164502Y-106049149D01*
G37*
G36*
X141972894Y-106441661D02*
G01*
X141996819Y-106475047D01*
X141997771Y-106514465D01*
X141983124Y-106530149D01*
X141945703Y-106536851D01*
X141920076Y-106525709D01*
X141899301Y-106493454D01*
X141900034Y-106456420D01*
X141925347Y-106430633D01*
X141937938Y-106428133D01*
X141972894Y-106441661D01*
G37*
G36*
X145700099Y-106550419D02*
G01*
X145746154Y-106554220D01*
X145767162Y-106569929D01*
X145775158Y-106605431D01*
X145776556Y-106649114D01*
X145770459Y-106689143D01*
X145769821Y-106690682D01*
X145743508Y-106709776D01*
X145686480Y-106711776D01*
X145665219Y-106709848D01*
X145629454Y-106701243D01*
X145615733Y-106678016D01*
X145613503Y-106628064D01*
X145613503Y-106550388D01*
X145691179Y-106550388D01*
X145700099Y-106550419D01*
G37*
G36*
X144201507Y-106043576D02*
G01*
X144235450Y-106069921D01*
X144241474Y-106108090D01*
X144215562Y-106144828D01*
X144192950Y-106156820D01*
X144149842Y-106155366D01*
X144120354Y-106121670D01*
X144115029Y-106082621D01*
X144136620Y-106048453D01*
X144183669Y-106039590D01*
X144201507Y-106043576D01*
G37*
G36*
X144592053Y-108142123D02*
G01*
X144619769Y-108161818D01*
X144633334Y-108200449D01*
X144619080Y-108237420D01*
X144615534Y-108240469D01*
X144579851Y-108247762D01*
X144541257Y-108233305D01*
X144519564Y-108203792D01*
X144520343Y-108169978D01*
X144545581Y-108141556D01*
X144592053Y-108142123D01*
G37*
G36*
X145932437Y-105842412D02*
G01*
X145951814Y-105879024D01*
X145947903Y-105922290D01*
X145919853Y-105955498D01*
X145916787Y-105957112D01*
X145871785Y-105962492D01*
X145833551Y-105941281D01*
X145817402Y-105901548D01*
X145828112Y-105863368D01*
X145864441Y-105833093D01*
X145913565Y-105831591D01*
X145932437Y-105842412D01*
G37*
G36*
X144013123Y-107541378D02*
G01*
X144041394Y-107568203D01*
X144051814Y-107609517D01*
X144043681Y-107649384D01*
X144016294Y-107671869D01*
X143972046Y-107671277D01*
X143931105Y-107648593D01*
X143914344Y-107610416D01*
X143925054Y-107572237D01*
X143961383Y-107541962D01*
X144010507Y-107540459D01*
X144013123Y-107541378D01*
G37*
G36*
X141981696Y-106044455D02*
G01*
X142008324Y-106074701D01*
X142003764Y-106124472D01*
X141986727Y-106143200D01*
X141938575Y-106148745D01*
X141926526Y-106147027D01*
X141893578Y-106131358D01*
X141885063Y-106094043D01*
X141885429Y-106083070D01*
X141898523Y-106051672D01*
X141938575Y-106039340D01*
X141981696Y-106044455D01*
G37*
G36*
X141780994Y-105832755D02*
G01*
X141799080Y-105843863D01*
X141815769Y-105880310D01*
X141810734Y-105923167D01*
X141783615Y-105955498D01*
X141779900Y-105957445D01*
X141733688Y-105962546D01*
X141696455Y-105937879D01*
X141681164Y-105891538D01*
X141691065Y-105854903D01*
X141727068Y-105829660D01*
X141780994Y-105832755D01*
G37*
G36*
X143695383Y-105846989D02*
G01*
X143716879Y-105882301D01*
X143715748Y-105922722D01*
X143686171Y-105956555D01*
X143659566Y-105970777D01*
X143633137Y-105974014D01*
X143607524Y-105954226D01*
X143600729Y-105946416D01*
X143584485Y-105902326D01*
X143592972Y-105858597D01*
X143623991Y-105831591D01*
X143657080Y-105828481D01*
X143695383Y-105846989D01*
G37*
G36*
X144605404Y-106037523D02*
G01*
X144627982Y-106052738D01*
X144632846Y-106094043D01*
X144631196Y-106123771D01*
X144616570Y-106147216D01*
X144576854Y-106152300D01*
X144537981Y-106146138D01*
X144512048Y-106118316D01*
X144507552Y-106080347D01*
X144526301Y-106046596D01*
X144576207Y-106035786D01*
X144605404Y-106037523D01*
G37*
G36*
X141953029Y-104093890D02*
G01*
X141942617Y-104093851D01*
X141897908Y-104090217D01*
X141879157Y-104075481D01*
X141875353Y-104042333D01*
X141874433Y-104014163D01*
X141865777Y-104002956D01*
X141840792Y-104022053D01*
X141837756Y-104024696D01*
X141793810Y-104054366D01*
X141738843Y-104082559D01*
X141680163Y-104102071D01*
X141569274Y-104108516D01*
X141457846Y-104076606D01*
X141364778Y-104017344D01*
X141290156Y-103927795D01*
X141244969Y-103813545D01*
X141229736Y-103675512D01*
X141232072Y-103643379D01*
X141394640Y-103643379D01*
X141396587Y-103749002D01*
X141427831Y-103837036D01*
X141490983Y-103909803D01*
X141495657Y-103913639D01*
X141572106Y-103953631D01*
X141652031Y-103959969D01*
X141728622Y-103936103D01*
X141795066Y-103885480D01*
X141844552Y-103811549D01*
X141870268Y-103717760D01*
X141870558Y-103715102D01*
X141866139Y-103614851D01*
X141834331Y-103530707D01*
X141781133Y-103466297D01*
X141712548Y-103425249D01*
X141634577Y-103411189D01*
X141553220Y-103427744D01*
X141474480Y-103478542D01*
X141474112Y-103478879D01*
X141429218Y-103526719D01*
X141405801Y-103575207D01*
X141394640Y-103643379D01*
X141232072Y-103643379D01*
X141235119Y-103601455D01*
X141267623Y-103487550D01*
X141325095Y-103393402D01*
X141402385Y-103322114D01*
X141494345Y-103276791D01*
X141595823Y-103260537D01*
X141701672Y-103276458D01*
X141806742Y-103327657D01*
X141875353Y-103374218D01*
X141875353Y-102948171D01*
X142030705Y-102948171D01*
X142030705Y-104093890D01*
X141953029Y-104093890D01*
G37*
G36*
X143521666Y-105255407D02*
G01*
X143539157Y-105300220D01*
X143526357Y-105355389D01*
X143525116Y-105357598D01*
X143488101Y-105387780D01*
X143438355Y-105393205D01*
X143393916Y-105371657D01*
X143392092Y-105369763D01*
X143372004Y-105324602D01*
X143378773Y-105275073D01*
X143410185Y-105239216D01*
X143429826Y-105230858D01*
X143482388Y-105229452D01*
X143521666Y-105255407D01*
G37*
G36*
X147975182Y-106952410D02*
G01*
X148004873Y-106989569D01*
X148011625Y-107035789D01*
X147988442Y-107080526D01*
X147951441Y-107100039D01*
X147898971Y-107099666D01*
X147856602Y-107074952D01*
X147848782Y-107062611D01*
X147842327Y-107015025D01*
X147859261Y-106967795D01*
X147894543Y-106938986D01*
X147929546Y-106934856D01*
X147975182Y-106952410D01*
G37*
G36*
X142895752Y-106037475D02*
G01*
X142918975Y-106052267D01*
X142923977Y-106092424D01*
X142917134Y-106134045D01*
X142899703Y-106157230D01*
X142860598Y-106162247D01*
X142821937Y-106141023D01*
X142807463Y-106091778D01*
X142809180Y-106063205D01*
X142824397Y-106040672D01*
X142865720Y-106035786D01*
X142895752Y-106037475D01*
G37*
G36*
X145560657Y-106964275D02*
G01*
X145578148Y-107009089D01*
X145565348Y-107064257D01*
X145564107Y-107066466D01*
X145527092Y-107096649D01*
X145477346Y-107102074D01*
X145432907Y-107080526D01*
X145431083Y-107078631D01*
X145410995Y-107033470D01*
X145417764Y-106983942D01*
X145449175Y-106948084D01*
X145468817Y-106939726D01*
X145521379Y-106938320D01*
X145560657Y-106964275D01*
G37*
G36*
X145133177Y-105441776D02*
G01*
X145162274Y-105459339D01*
X145173277Y-105499657D01*
X145171064Y-105541900D01*
X145153858Y-105572181D01*
X145104676Y-105588682D01*
X145058703Y-105575980D01*
X145030411Y-105537883D01*
X145029432Y-105481417D01*
X145037372Y-105457487D01*
X145059315Y-105438113D01*
X145104422Y-105437472D01*
X145133177Y-105441776D01*
G37*
G36*
X147009742Y-105822879D02*
G01*
X147052512Y-105842580D01*
X147075721Y-105879929D01*
X147074918Y-105922173D01*
X147045651Y-105956555D01*
X147023635Y-105968676D01*
X146996851Y-105975247D01*
X146970887Y-105962667D01*
X146964969Y-105958251D01*
X146940960Y-105919827D01*
X146940449Y-105874959D01*
X146960646Y-105837718D01*
X146998758Y-105822177D01*
X147009742Y-105822879D01*
G37*
G36*
X149245000Y-106734882D02*
G01*
X149295749Y-106751448D01*
X149326742Y-106790754D01*
X149332627Y-106840207D01*
X149308056Y-106887212D01*
X149275223Y-106902288D01*
X149225525Y-106905660D01*
X149205202Y-106902813D01*
X149173021Y-106885847D01*
X149160915Y-106845353D01*
X149163843Y-106794942D01*
X149192044Y-106750916D01*
X149243343Y-106734868D01*
X149245000Y-106734882D01*
G37*
G36*
X144605404Y-107746391D02*
G01*
X144627982Y-107761607D01*
X144632846Y-107802911D01*
X144631196Y-107832640D01*
X144616570Y-107856085D01*
X144576854Y-107861168D01*
X144537981Y-107855006D01*
X144512048Y-107827185D01*
X144507552Y-107789216D01*
X144526301Y-107755465D01*
X144576207Y-107744654D01*
X144605404Y-107746391D01*
G37*
G36*
X144429199Y-105239818D02*
G01*
X144451751Y-105274725D01*
X144455807Y-105327012D01*
X144434772Y-105371657D01*
X144406316Y-105390522D01*
X144359416Y-105393399D01*
X144317907Y-105370901D01*
X144292331Y-105330022D01*
X144293232Y-105277758D01*
X144299339Y-105264790D01*
X144336002Y-105234826D01*
X144385310Y-105224821D01*
X144429199Y-105239818D01*
G37*
G36*
X144802829Y-107347631D02*
G01*
X144832669Y-107378428D01*
X144843236Y-107420695D01*
X144826261Y-107464012D01*
X144809822Y-107478202D01*
X144768778Y-107492208D01*
X144757991Y-107491522D01*
X144716438Y-107471119D01*
X144696679Y-107431904D01*
X144701778Y-107386804D01*
X144734795Y-107348746D01*
X144761984Y-107338725D01*
X144802829Y-107347631D01*
G37*
G36*
X142896472Y-105828106D02*
G01*
X142931556Y-105857373D01*
X142938581Y-105900866D01*
X142912881Y-105947013D01*
X142891404Y-105965192D01*
X142865720Y-105977529D01*
X142859582Y-105976121D01*
X142831044Y-105957572D01*
X142801596Y-105929403D01*
X142788044Y-105906899D01*
X142799377Y-105872898D01*
X142829250Y-105837759D01*
X142862520Y-105822177D01*
X142896472Y-105828106D01*
G37*
G36*
X147756323Y-105639037D02*
G01*
X147784224Y-105653590D01*
X147794836Y-105693847D01*
X147792624Y-105736090D01*
X147775417Y-105766371D01*
X147762848Y-105773208D01*
X147730170Y-105782745D01*
X147705806Y-105778631D01*
X147672806Y-105748118D01*
X147665503Y-105693847D01*
X147669753Y-105668787D01*
X147687740Y-105643497D01*
X147730170Y-105637697D01*
X147756323Y-105639037D01*
G37*
G36*
X146257849Y-105445040D02*
G01*
X146288091Y-105457384D01*
X146299512Y-105488269D01*
X146298719Y-105520247D01*
X146282570Y-105561090D01*
X146277419Y-105566833D01*
X146234291Y-105590256D01*
X146191099Y-105583270D01*
X146159419Y-105551271D01*
X146150824Y-105499657D01*
X146157945Y-105465528D01*
X146178729Y-105447391D01*
X146225200Y-105443508D01*
X146257849Y-105445040D01*
G37*
G36*
X146423089Y-107749268D02*
G01*
X146459875Y-107765863D01*
X146474082Y-107807766D01*
X146475578Y-107836201D01*
X146462956Y-107856826D01*
X146422757Y-107861168D01*
X146379465Y-107852837D01*
X146350708Y-107821709D01*
X146354514Y-107772732D01*
X146370991Y-107754523D01*
X146417016Y-107748459D01*
X146423089Y-107749268D01*
G37*
G36*
X147798937Y-104844379D02*
G01*
X147812494Y-104872810D01*
X147823875Y-104916332D01*
X147839946Y-104872888D01*
X147850476Y-104851762D01*
X147876749Y-104835734D01*
X147926924Y-104835482D01*
X147937108Y-104836605D01*
X147993759Y-104858111D01*
X148018600Y-104901120D01*
X148009844Y-104962888D01*
X147999438Y-104980356D01*
X147960663Y-105004472D01*
X147911652Y-105009922D01*
X147867101Y-104996580D01*
X147841706Y-104964320D01*
X147830654Y-104922060D01*
X147814583Y-104965504D01*
X147803083Y-104987940D01*
X147776403Y-105002903D01*
X147725503Y-105002910D01*
X147704218Y-105000980D01*
X147668446Y-104992374D01*
X147654723Y-104969147D01*
X147652494Y-104919196D01*
X147652660Y-104895925D01*
X147658067Y-104857761D01*
X147679200Y-104841625D01*
X147726803Y-104835404D01*
X147770428Y-104834114D01*
X147798937Y-104844379D01*
G37*
G36*
X147039647Y-105635397D02*
G01*
X147070105Y-105665266D01*
X147078032Y-105710184D01*
X147059329Y-105755280D01*
X147042220Y-105772415D01*
X147009216Y-105781585D01*
X146961844Y-105763237D01*
X146936676Y-105742449D01*
X146924516Y-105703626D01*
X146938605Y-105665097D01*
X146973852Y-105637470D01*
X147025164Y-105631352D01*
X147039647Y-105635397D01*
G37*
G36*
X149078638Y-107344266D02*
G01*
X149109096Y-107374134D01*
X149117023Y-107419052D01*
X149098319Y-107464148D01*
X149082204Y-107479639D01*
X149039814Y-107489806D01*
X148993789Y-107461692D01*
X148967896Y-107416272D01*
X148974662Y-107374375D01*
X149008615Y-107345801D01*
X149064154Y-107340220D01*
X149078638Y-107344266D01*
G37*
G36*
X145504966Y-105435115D02*
G01*
X145553131Y-105457044D01*
X145575261Y-105498630D01*
X145564956Y-105550312D01*
X145559988Y-105558133D01*
X145520554Y-105584435D01*
X145471140Y-105585576D01*
X145429232Y-105560273D01*
X145416924Y-105532874D01*
X145417515Y-105482598D01*
X145420483Y-105472227D01*
X145442203Y-105441811D01*
X145486967Y-105433798D01*
X145504966Y-105435115D01*
G37*
G36*
X147574356Y-107753323D02*
G01*
X147600985Y-107783570D01*
X147596425Y-107833340D01*
X147579388Y-107852068D01*
X147531236Y-107857614D01*
X147519187Y-107855896D01*
X147486238Y-107840227D01*
X147477723Y-107802911D01*
X147478089Y-107791938D01*
X147491183Y-107760540D01*
X147531236Y-107748209D01*
X147574356Y-107753323D01*
G37*
G36*
X144398168Y-103818210D02*
G01*
X144360039Y-103902126D01*
X144296053Y-103984331D01*
X144217775Y-104050806D01*
X144136003Y-104090344D01*
X144076652Y-104102054D01*
X143963354Y-104105087D01*
X143850912Y-104087867D01*
X143756403Y-104052115D01*
X143701721Y-104018868D01*
X143673683Y-103989866D01*
X143674248Y-103959636D01*
X143699739Y-103919579D01*
X143736660Y-103871492D01*
X143813582Y-103914725D01*
X143861164Y-103936755D01*
X143957317Y-103956861D01*
X144050685Y-103948525D01*
X144133396Y-103914294D01*
X144197576Y-103856714D01*
X144235349Y-103778332D01*
X144248677Y-103724930D01*
X143623060Y-103724930D01*
X143623486Y-103642399D01*
X143635386Y-103558375D01*
X143797830Y-103558375D01*
X143802429Y-103571204D01*
X143821032Y-103580254D01*
X143859849Y-103585674D01*
X143925083Y-103588307D01*
X144022936Y-103588997D01*
X144248041Y-103588997D01*
X144211208Y-103525929D01*
X144163070Y-103468372D01*
X144089474Y-103425576D01*
X144006820Y-103410714D01*
X143925172Y-103425334D01*
X143854593Y-103470989D01*
X143842952Y-103483282D01*
X143810759Y-103526045D01*
X143797830Y-103558375D01*
X143635386Y-103558375D01*
X143636294Y-103551960D01*
X143677279Y-103452916D01*
X143740135Y-103366660D01*
X143818355Y-103301853D01*
X143905433Y-103267153D01*
X143960071Y-103260158D01*
X144082163Y-103268829D01*
X144191434Y-103309030D01*
X144283676Y-103376052D01*
X144354680Y-103465188D01*
X144400236Y-103571732D01*
X144402538Y-103588997D01*
X144416135Y-103690975D01*
X144398168Y-103818210D01*
G37*
G36*
X147780992Y-105243542D02*
G01*
X147810684Y-105280700D01*
X147817435Y-105326920D01*
X147794252Y-105371657D01*
X147757251Y-105391170D01*
X147704781Y-105390798D01*
X147662413Y-105366084D01*
X147654593Y-105353743D01*
X147648137Y-105306157D01*
X147665071Y-105258926D01*
X147700353Y-105230117D01*
X147735356Y-105225988D01*
X147780992Y-105243542D01*
G37*
G36*
X147034608Y-105445040D02*
G01*
X147064850Y-105457384D01*
X147076270Y-105488269D01*
X147075478Y-105520247D01*
X147059329Y-105561090D01*
X147043051Y-105575144D01*
X147001959Y-105589150D01*
X146966876Y-105579480D01*
X146934763Y-105542309D01*
X146927647Y-105488269D01*
X146933002Y-105466910D01*
X146954405Y-105448146D01*
X147001959Y-105443508D01*
X147034608Y-105445040D01*
G37*
G36*
X147780992Y-106952410D02*
G01*
X147810684Y-106989569D01*
X147817435Y-107035789D01*
X147794252Y-107080526D01*
X147757251Y-107100039D01*
X147704781Y-107099666D01*
X147662413Y-107074952D01*
X147654593Y-107062611D01*
X147648137Y-107015025D01*
X147665071Y-106967795D01*
X147700353Y-106938986D01*
X147735356Y-106934856D01*
X147780992Y-106952410D01*
G37*
G36*
X144792966Y-107538798D02*
G01*
X144826352Y-107568607D01*
X144842416Y-107602133D01*
X144841082Y-107626911D01*
X144815939Y-107655882D01*
X144794462Y-107674061D01*
X144768778Y-107686397D01*
X144765183Y-107686043D01*
X144734392Y-107667745D01*
X144704516Y-107633903D01*
X144691102Y-107601509D01*
X144691510Y-107594055D01*
X144711114Y-107555033D01*
X144749743Y-107535444D01*
X144792966Y-107538798D01*
G37*
G36*
X146450221Y-106037508D02*
G01*
X146472768Y-106052725D01*
X146477647Y-106094043D01*
X146475986Y-106123860D01*
X146461311Y-106147240D01*
X146421468Y-106152300D01*
X146380446Y-106144906D01*
X146354111Y-106123171D01*
X146348560Y-106084506D01*
X146370713Y-106049019D01*
X146421468Y-106035786D01*
X146450221Y-106037508D01*
G37*
G36*
X147777238Y-105842412D02*
G01*
X147796616Y-105879024D01*
X147792704Y-105922290D01*
X147764654Y-105955498D01*
X147761589Y-105957112D01*
X147716587Y-105962492D01*
X147678352Y-105941281D01*
X147662203Y-105901548D01*
X147672913Y-105863368D01*
X147709243Y-105833093D01*
X147758366Y-105831591D01*
X147777238Y-105842412D01*
G37*
G36*
X145911522Y-105639037D02*
G01*
X145939422Y-105653590D01*
X145950035Y-105693847D01*
X145947823Y-105736090D01*
X145930616Y-105766371D01*
X145918046Y-105773208D01*
X145885368Y-105782745D01*
X145861005Y-105778631D01*
X145828005Y-105748118D01*
X145820702Y-105693847D01*
X145824952Y-105668787D01*
X145842939Y-105643497D01*
X145885368Y-105637697D01*
X145911522Y-105639037D01*
G37*
G36*
X147752542Y-107143173D02*
G01*
X147795674Y-107162784D01*
X147812474Y-107204246D01*
X147798529Y-107258447D01*
X147767525Y-107289626D01*
X147720845Y-107294888D01*
X147673300Y-107267503D01*
X147647980Y-107228540D01*
X147650114Y-107186009D01*
X147683040Y-107154797D01*
X147742454Y-107142667D01*
X147752542Y-107143173D01*
G37*
G36*
X149282338Y-107755789D02*
G01*
X149303997Y-107778581D01*
X149311061Y-107799242D01*
X149300625Y-107831502D01*
X149276843Y-107855280D01*
X149237839Y-107858763D01*
X149200434Y-107842372D01*
X149180559Y-107809080D01*
X149181873Y-107783005D01*
X149205010Y-107749155D01*
X149243075Y-107737687D01*
X149282338Y-107755789D01*
G37*
G36*
X148908909Y-105245800D02*
G01*
X148931109Y-105290226D01*
X148922163Y-105351992D01*
X148903912Y-105379655D01*
X148864083Y-105397201D01*
X148819821Y-105390790D01*
X148783897Y-105363295D01*
X148769084Y-105317584D01*
X148781430Y-105263048D01*
X148818286Y-105229546D01*
X148873316Y-105227518D01*
X148908909Y-105245800D01*
G37*
G36*
X148683322Y-107536974D02*
G01*
X148718406Y-107566242D01*
X148725432Y-107609734D01*
X148699731Y-107655882D01*
X148678254Y-107674061D01*
X148652570Y-107686397D01*
X148646433Y-107684989D01*
X148617894Y-107666440D01*
X148588446Y-107638272D01*
X148574894Y-107615767D01*
X148586227Y-107581766D01*
X148616100Y-107546628D01*
X148649370Y-107531046D01*
X148683322Y-107536974D01*
G37*
G36*
X143660165Y-105435115D02*
G01*
X143708330Y-105457044D01*
X143730459Y-105498630D01*
X143720154Y-105550312D01*
X143715187Y-105558133D01*
X143675753Y-105584435D01*
X143626339Y-105585576D01*
X143584431Y-105560273D01*
X143572123Y-105532874D01*
X143572714Y-105482598D01*
X143575682Y-105472227D01*
X143597402Y-105441811D01*
X143642165Y-105433798D01*
X143660165Y-105435115D01*
G37*
G36*
X146647563Y-106940850D02*
G01*
X146672003Y-106966703D01*
X146689614Y-107020415D01*
X146683215Y-107077353D01*
X146662760Y-107096356D01*
X146608858Y-107100214D01*
X146568954Y-107093304D01*
X146549516Y-107073512D01*
X146545613Y-107028269D01*
X146547657Y-107001464D01*
X146567511Y-106952100D01*
X146603056Y-106929972D01*
X146647563Y-106940850D01*
G37*
G36*
X145135366Y-106939878D02*
G01*
X145169825Y-106971391D01*
X145185901Y-107016917D01*
X145174896Y-107068130D01*
X145172836Y-107071638D01*
X145136498Y-107098068D01*
X145087586Y-107101615D01*
X145044528Y-107080526D01*
X145025015Y-107043525D01*
X145025387Y-106991055D01*
X145050101Y-106948686D01*
X145091225Y-106930705D01*
X145135366Y-106939878D01*
G37*
G36*
X142568247Y-105445040D02*
G01*
X142598489Y-105457384D01*
X142609910Y-105488269D01*
X142609117Y-105520247D01*
X142592968Y-105561090D01*
X142587817Y-105566833D01*
X142544689Y-105590256D01*
X142501497Y-105583270D01*
X142469817Y-105551271D01*
X142461222Y-105499657D01*
X142468343Y-105465528D01*
X142489126Y-105447391D01*
X142535598Y-105443508D01*
X142568247Y-105445040D01*
G37*
G36*
X143677539Y-105634830D02*
G01*
X143710095Y-105664398D01*
X143718958Y-105709357D01*
X143699848Y-105755280D01*
X143692895Y-105762774D01*
X143651326Y-105781738D01*
X143609977Y-105767229D01*
X143579284Y-105722115D01*
X143577158Y-105715130D01*
X143582834Y-105671226D01*
X143615007Y-105639303D01*
X143662986Y-105630998D01*
X143677539Y-105634830D01*
G37*
G36*
X144004568Y-107142978D02*
G01*
X144043238Y-107154995D01*
X144061785Y-107191466D01*
X144064573Y-107227171D01*
X144050067Y-107269142D01*
X144033898Y-107283969D01*
X143987131Y-107297429D01*
X143941081Y-107281683D01*
X143910170Y-107239761D01*
X143909746Y-107193071D01*
X143939557Y-107156848D01*
X143992333Y-107142667D01*
X144004568Y-107142978D01*
G37*
G36*
X145936191Y-106952410D02*
G01*
X145965882Y-106989569D01*
X145972634Y-107035789D01*
X145949451Y-107080526D01*
X145912450Y-107100039D01*
X145859980Y-107099666D01*
X145817611Y-107074952D01*
X145809791Y-107062611D01*
X145803336Y-107015025D01*
X145820270Y-106967795D01*
X145855552Y-106938986D01*
X145890555Y-106934856D01*
X145936191Y-106952410D01*
G37*
G36*
X146274000Y-106948686D02*
G01*
X146296553Y-106983594D01*
X146300609Y-107035880D01*
X146279573Y-107080526D01*
X146251118Y-107099391D01*
X146204217Y-107102268D01*
X146162708Y-107079769D01*
X146137132Y-107038891D01*
X146138033Y-106986627D01*
X146144140Y-106973659D01*
X146180803Y-106943694D01*
X146230112Y-106933690D01*
X146274000Y-106948686D01*
G37*
G36*
X141787506Y-106044455D02*
G01*
X141814135Y-106074701D01*
X141809575Y-106124472D01*
X141792537Y-106143200D01*
X141744386Y-106148745D01*
X141732337Y-106147027D01*
X141699388Y-106131358D01*
X141690873Y-106094043D01*
X141691239Y-106083070D01*
X141704333Y-106051672D01*
X141744386Y-106039340D01*
X141787506Y-106044455D01*
G37*
G36*
X148491030Y-105445040D02*
G01*
X148521272Y-105457384D01*
X148532693Y-105488269D01*
X148531900Y-105520247D01*
X148515751Y-105561090D01*
X148499473Y-105575144D01*
X148458381Y-105589150D01*
X148423298Y-105579480D01*
X148391185Y-105542309D01*
X148384069Y-105488269D01*
X148389424Y-105466910D01*
X148410827Y-105448146D01*
X148458381Y-105443508D01*
X148491030Y-105445040D01*
G37*
G36*
X148482568Y-105829930D02*
G01*
X148515954Y-105859739D01*
X148532018Y-105893265D01*
X148530684Y-105918042D01*
X148505541Y-105947013D01*
X148484064Y-105965192D01*
X148458381Y-105977529D01*
X148454786Y-105977175D01*
X148423994Y-105958877D01*
X148394118Y-105925035D01*
X148380705Y-105892640D01*
X148381113Y-105885186D01*
X148400717Y-105846164D01*
X148439345Y-105826575D01*
X148482568Y-105829930D01*
G37*
G36*
X145522340Y-105634830D02*
G01*
X145554896Y-105664398D01*
X145563759Y-105709357D01*
X145544650Y-105755280D01*
X145537696Y-105762774D01*
X145496128Y-105781738D01*
X145454778Y-105767229D01*
X145424086Y-105722115D01*
X145421959Y-105715130D01*
X145427635Y-105671226D01*
X145459808Y-105639303D01*
X145507787Y-105630998D01*
X145522340Y-105634830D01*
G37*
G36*
X148492188Y-105638906D02*
G01*
X148526869Y-105671796D01*
X148535612Y-105715860D01*
X148512754Y-105760037D01*
X148499952Y-105770744D01*
X148455577Y-105783647D01*
X148415423Y-105767725D01*
X148389700Y-105729823D01*
X148388616Y-105676787D01*
X148405778Y-105642037D01*
X148445157Y-105627988D01*
X148492188Y-105638906D01*
G37*
G36*
X142390208Y-105239818D02*
G01*
X142412761Y-105274725D01*
X142416817Y-105327012D01*
X142395781Y-105371657D01*
X142367325Y-105390522D01*
X142320425Y-105393399D01*
X142278916Y-105370901D01*
X142253340Y-105330022D01*
X142254241Y-105277758D01*
X142260348Y-105264790D01*
X142297011Y-105234826D01*
X142346319Y-105224821D01*
X142390208Y-105239818D01*
G37*
G36*
X145744821Y-106954281D02*
G01*
X145773924Y-106990085D01*
X145779827Y-107035258D01*
X145755261Y-107080526D01*
X145735742Y-107093312D01*
X145691179Y-107103829D01*
X145656009Y-107097143D01*
X145618581Y-107067147D01*
X145602977Y-107023919D01*
X145612359Y-106979534D01*
X145649885Y-106946063D01*
X145699785Y-106937121D01*
X145744821Y-106954281D01*
G37*
G36*
X146840418Y-107153909D02*
G01*
X146870660Y-107166252D01*
X146882081Y-107197138D01*
X146881288Y-107229116D01*
X146865139Y-107269959D01*
X146848861Y-107284013D01*
X146807769Y-107298018D01*
X146772686Y-107288349D01*
X146740573Y-107251178D01*
X146733457Y-107197138D01*
X146738813Y-107175779D01*
X146760215Y-107157014D01*
X146807769Y-107152376D01*
X146840418Y-107153909D01*
G37*
G36*
X145141969Y-105839771D02*
G01*
X145166983Y-105874313D01*
X145170568Y-105915576D01*
X145145848Y-105951972D01*
X145118183Y-105971513D01*
X145099510Y-105975551D01*
X145071360Y-105965742D01*
X145049170Y-105942208D01*
X145040629Y-105899017D01*
X145048422Y-105855032D01*
X145072412Y-105828187D01*
X145102399Y-105823538D01*
X145141969Y-105839771D01*
G37*
G36*
X149399103Y-103792230D02*
G01*
X149361877Y-103908597D01*
X149294441Y-104001070D01*
X149196041Y-104070885D01*
X149129720Y-104096416D01*
X149027901Y-104109971D01*
X148929294Y-104097095D01*
X148846945Y-104058259D01*
X148819371Y-104038373D01*
X148786495Y-104019747D01*
X148772202Y-104025408D01*
X148769084Y-104055052D01*
X148769051Y-104057842D01*
X148762131Y-104080797D01*
X148736308Y-104091349D01*
X148681699Y-104093890D01*
X148594313Y-104093890D01*
X148594313Y-103687722D01*
X148764476Y-103687722D01*
X148778298Y-103782672D01*
X148814269Y-103866520D01*
X148870389Y-103927650D01*
X148882316Y-103934458D01*
X148937737Y-103951319D01*
X149004943Y-103957957D01*
X149039803Y-103955876D01*
X149128146Y-103927305D01*
X149194867Y-103867548D01*
X149236110Y-103779582D01*
X149248486Y-103690029D01*
X149235844Y-103596413D01*
X149199522Y-103515760D01*
X149144266Y-103453247D01*
X149074816Y-103414046D01*
X148995916Y-103403334D01*
X148912309Y-103426285D01*
X148900945Y-103432378D01*
X148843686Y-103475845D01*
X148801367Y-103526661D01*
X148774804Y-103593287D01*
X148764476Y-103687722D01*
X148594313Y-103687722D01*
X148594313Y-102948171D01*
X148769084Y-102948171D01*
X148769084Y-103350687D01*
X148859760Y-103304781D01*
X148941143Y-103274213D01*
X149054165Y-103263108D01*
X149162483Y-103285163D01*
X149259269Y-103337580D01*
X149337689Y-103417562D01*
X149390913Y-103522310D01*
X149400774Y-103570009D01*
X149407047Y-103645546D01*
X149406777Y-103690029D01*
X149406559Y-103725866D01*
X149399103Y-103792230D01*
G37*
G36*
X144801427Y-107153909D02*
G01*
X144831669Y-107166252D01*
X144843090Y-107197138D01*
X144842297Y-107229116D01*
X144826148Y-107269959D01*
X144809870Y-107284013D01*
X144768778Y-107298018D01*
X144733695Y-107288349D01*
X144701583Y-107251178D01*
X144694467Y-107197138D01*
X144699822Y-107175779D01*
X144721225Y-107157014D01*
X144768778Y-107152376D01*
X144801427Y-107153909D01*
G37*
G36*
X144401502Y-105832510D02*
G01*
X144429773Y-105859334D01*
X144440193Y-105900648D01*
X144432060Y-105940515D01*
X144404673Y-105963000D01*
X144360426Y-105962409D01*
X144319484Y-105939724D01*
X144302723Y-105901548D01*
X144313433Y-105863368D01*
X144349763Y-105833093D01*
X144398886Y-105831591D01*
X144401502Y-105832510D01*
G37*
G36*
X149269415Y-107150644D02*
G01*
X149298512Y-107168207D01*
X149309515Y-107208526D01*
X149307303Y-107250769D01*
X149290096Y-107281050D01*
X149240915Y-107297550D01*
X149194942Y-107284849D01*
X149166649Y-107246752D01*
X149165671Y-107190285D01*
X149173610Y-107166355D01*
X149195553Y-107146982D01*
X149240660Y-107146341D01*
X149269415Y-107150644D01*
G37*
G36*
X141770456Y-105437512D02*
G01*
X141807581Y-105461993D01*
X141826568Y-105501782D01*
X141817096Y-105550312D01*
X141800581Y-105571348D01*
X141757631Y-105589282D01*
X141711889Y-105578907D01*
X141677892Y-105541177D01*
X141665940Y-105497517D01*
X141680686Y-105463502D01*
X141683063Y-105460742D01*
X141725510Y-105434906D01*
X141770456Y-105437512D01*
G37*
G36*
X146463109Y-106949611D02*
G01*
X146492317Y-106987079D01*
X146498021Y-107034551D01*
X146473763Y-107080526D01*
X146465884Y-107087398D01*
X146420053Y-107103989D01*
X146373965Y-107094317D01*
X146343986Y-107060860D01*
X146334266Y-107013212D01*
X146348867Y-106963863D01*
X146392834Y-106936387D01*
X146416855Y-106933650D01*
X146463109Y-106949611D01*
G37*
G36*
X149077429Y-106433562D02*
G01*
X149095736Y-106467533D01*
X149092184Y-106511550D01*
X149087006Y-106520733D01*
X149054960Y-106538574D01*
X149015891Y-106535415D01*
X148989620Y-106511303D01*
X148990720Y-106475720D01*
X149015772Y-106439900D01*
X149053646Y-106424165D01*
X149077429Y-106433562D01*
G37*
G36*
X149278207Y-105839771D02*
G01*
X149303222Y-105874313D01*
X149306806Y-105915576D01*
X149282087Y-105951972D01*
X149254421Y-105971513D01*
X149235748Y-105975551D01*
X149207599Y-105965742D01*
X149185408Y-105942208D01*
X149176867Y-105899017D01*
X149184660Y-105855032D01*
X149208650Y-105828187D01*
X149238638Y-105823538D01*
X149278207Y-105839771D01*
G37*
G36*
X144406394Y-106042791D02*
G01*
X144434526Y-106074592D01*
X144431634Y-106123171D01*
X144413896Y-106141586D01*
X144373377Y-106152300D01*
X144340360Y-106145294D01*
X144312227Y-106113493D01*
X144315120Y-106064914D01*
X144332857Y-106046500D01*
X144373377Y-106035786D01*
X144406394Y-106042791D01*
G37*
G36*
X145363896Y-106962049D02*
G01*
X145383611Y-107008722D01*
X145371159Y-107064257D01*
X145353183Y-107087115D01*
X145310973Y-107104668D01*
X145265913Y-107095946D01*
X145230046Y-107064765D01*
X145215414Y-107014937D01*
X145227000Y-106970298D01*
X145265165Y-106938606D01*
X145320672Y-106936644D01*
X145363896Y-106962049D01*
G37*
G36*
X142898369Y-105445040D02*
G01*
X142928611Y-105457384D01*
X142940032Y-105488269D01*
X142939239Y-105520247D01*
X142923090Y-105561090D01*
X142906812Y-105575144D01*
X142865720Y-105589150D01*
X142830637Y-105579480D01*
X142798525Y-105542309D01*
X142791408Y-105488269D01*
X142796764Y-105466910D01*
X142818166Y-105448146D01*
X142865720Y-105443508D01*
X142898369Y-105445040D01*
G37*
G36*
X144802761Y-106940850D02*
G01*
X144827202Y-106966703D01*
X144844813Y-107020415D01*
X144838414Y-107077353D01*
X144817959Y-107096356D01*
X144764057Y-107100214D01*
X144724153Y-107093304D01*
X144704715Y-107073512D01*
X144700812Y-107028269D01*
X144702855Y-107001464D01*
X144722710Y-106952100D01*
X144758255Y-106929972D01*
X144802761Y-106940850D01*
G37*
G36*
X145540184Y-105846989D02*
G01*
X145561680Y-105882301D01*
X145560549Y-105922722D01*
X145530972Y-105956555D01*
X145504367Y-105970777D01*
X145477938Y-105974014D01*
X145452326Y-105954226D01*
X145445530Y-105946416D01*
X145429286Y-105902326D01*
X145437773Y-105858597D01*
X145468793Y-105831591D01*
X145501881Y-105828481D01*
X145540184Y-105846989D01*
G37*
G36*
X142905705Y-105639706D02*
G01*
X142937687Y-105670925D01*
X142943475Y-105715865D01*
X142920093Y-105760037D01*
X142903754Y-105773953D01*
X142871451Y-105781507D01*
X142825606Y-105763237D01*
X142795516Y-105735631D01*
X142788355Y-105696695D01*
X142806164Y-105660297D01*
X142843419Y-105636633D01*
X142894596Y-105635899D01*
X142905705Y-105639706D01*
G37*
G36*
X141780602Y-106237066D02*
G01*
X141807659Y-106269125D01*
X141804700Y-106317361D01*
X141788549Y-106335164D01*
X141749130Y-106346489D01*
X141717658Y-106339399D01*
X141690601Y-106307339D01*
X141693560Y-106259104D01*
X141709711Y-106241300D01*
X141749130Y-106229975D01*
X141780602Y-106237066D01*
G37*
G36*
X148490151Y-106239292D02*
G01*
X148513415Y-106270647D01*
X148509093Y-106318723D01*
X148494575Y-106335943D01*
X148453613Y-106342996D01*
X148420506Y-106328236D01*
X148409833Y-106288232D01*
X148418905Y-106250232D01*
X148453613Y-106233468D01*
X148490151Y-106239292D01*
G37*
G36*
X146837931Y-105230707D02*
G01*
X146869677Y-105263480D01*
X146885322Y-105312018D01*
X146877881Y-105367244D01*
X146875302Y-105372215D01*
X146844422Y-105390704D01*
X146797838Y-105393124D01*
X146752812Y-105377991D01*
X146737744Y-105357557D01*
X146733533Y-105313258D01*
X146746360Y-105265730D01*
X146773786Y-105231957D01*
X146797071Y-105222780D01*
X146837931Y-105230707D01*
G37*
G36*
X142360260Y-106437924D02*
G01*
X142386667Y-106469233D01*
X142388198Y-106509129D01*
X142373622Y-106529099D01*
X142339756Y-106537933D01*
X142305660Y-106522861D01*
X142286644Y-106487190D01*
X142288084Y-106459006D01*
X142312424Y-106431132D01*
X142321985Y-106428593D01*
X142360260Y-106437924D01*
G37*
G36*
X147768546Y-107753323D02*
G01*
X147795174Y-107783570D01*
X147790615Y-107833340D01*
X147773577Y-107852068D01*
X147725425Y-107857614D01*
X147713376Y-107855896D01*
X147680428Y-107840227D01*
X147671913Y-107802911D01*
X147672279Y-107791938D01*
X147685373Y-107760540D01*
X147725425Y-107748209D01*
X147768546Y-107753323D01*
G37*
G36*
X146257400Y-105636878D02*
G01*
X146291425Y-105665398D01*
X146298279Y-105707270D01*
X146272361Y-105752824D01*
X146252912Y-105769151D01*
X146208178Y-105781364D01*
X146167830Y-105755280D01*
X146158368Y-105741115D01*
X146149015Y-105694424D01*
X146164925Y-105652879D01*
X146201995Y-105631352D01*
X146257400Y-105636878D01*
G37*
G36*
X145729555Y-106044455D02*
G01*
X145756184Y-106074701D01*
X145751624Y-106124472D01*
X145734586Y-106143200D01*
X145686435Y-106148745D01*
X145674386Y-106147027D01*
X145641437Y-106131358D01*
X145632922Y-106094043D01*
X145633288Y-106083070D01*
X145646382Y-106051672D01*
X145686435Y-106039340D01*
X145729555Y-106044455D01*
G37*
G36*
X144618308Y-105240742D02*
G01*
X144647516Y-105278210D01*
X144653220Y-105325683D01*
X144628962Y-105371657D01*
X144621082Y-105378529D01*
X144575251Y-105395121D01*
X144529164Y-105385448D01*
X144499185Y-105351992D01*
X144489465Y-105304344D01*
X144504066Y-105254994D01*
X144548033Y-105227518D01*
X144572054Y-105224781D01*
X144618308Y-105240742D01*
G37*
G36*
X145936191Y-105243542D02*
G01*
X145965882Y-105280700D01*
X145972634Y-105326920D01*
X145949451Y-105371657D01*
X145912450Y-105391170D01*
X145859980Y-105390798D01*
X145817611Y-105366084D01*
X145809791Y-105353743D01*
X145803336Y-105306157D01*
X145820270Y-105258926D01*
X145855552Y-105230117D01*
X145890555Y-105225988D01*
X145936191Y-105243542D01*
G37*
G36*
X148425884Y-103731511D02*
G01*
X148399435Y-103856463D01*
X148342736Y-103960334D01*
X148258059Y-104039827D01*
X148147677Y-104091646D01*
X148086444Y-104103724D01*
X147977888Y-104105081D01*
X147868334Y-104087227D01*
X147776127Y-104052115D01*
X147722677Y-104019722D01*
X147693689Y-103990641D01*
X147693283Y-103960843D01*
X147717690Y-103921931D01*
X147752837Y-103876196D01*
X147832970Y-103917076D01*
X147903592Y-103944358D01*
X148004037Y-103956371D01*
X148098004Y-103939036D01*
X148177397Y-103894235D01*
X148234120Y-103823847D01*
X148235726Y-103820712D01*
X148255884Y-103775408D01*
X148264191Y-103745313D01*
X148264112Y-103744686D01*
X148242419Y-103736126D01*
X148182854Y-103729942D01*
X148086263Y-103726192D01*
X147953488Y-103724930D01*
X147642784Y-103724930D01*
X147643211Y-103642399D01*
X147655111Y-103558375D01*
X147817555Y-103558375D01*
X147821995Y-103571051D01*
X147840370Y-103580179D01*
X147878912Y-103585645D01*
X147943840Y-103588301D01*
X148041372Y-103588997D01*
X148265188Y-103588997D01*
X148235233Y-103531069D01*
X148233903Y-103528544D01*
X148180370Y-103465453D01*
X148106860Y-103426357D01*
X148024159Y-103413050D01*
X147943050Y-103427329D01*
X147874318Y-103470989D01*
X147862677Y-103483282D01*
X147830484Y-103526045D01*
X147817555Y-103558375D01*
X147655111Y-103558375D01*
X147656019Y-103551960D01*
X147697004Y-103452916D01*
X147759860Y-103366660D01*
X147838080Y-103301853D01*
X147925157Y-103267153D01*
X147945013Y-103263822D01*
X148073633Y-103262125D01*
X148188883Y-103294137D01*
X148286333Y-103356171D01*
X148361554Y-103444538D01*
X148410114Y-103555549D01*
X148414610Y-103588997D01*
X148427585Y-103685515D01*
X148425884Y-103731511D01*
G37*
G36*
X142556700Y-105832510D02*
G01*
X142584972Y-105859334D01*
X142595392Y-105900648D01*
X142587259Y-105940515D01*
X142559872Y-105963000D01*
X142515624Y-105962409D01*
X142474683Y-105939724D01*
X142457922Y-105901548D01*
X142468632Y-105863368D01*
X142504961Y-105833093D01*
X142554085Y-105831591D01*
X142556700Y-105832510D01*
G37*
G36*
X149271517Y-106545573D02*
G01*
X149316572Y-106574766D01*
X149332234Y-106628064D01*
X149328387Y-106654288D01*
X149308931Y-106692147D01*
X149279440Y-106707650D01*
X149230775Y-106715449D01*
X149183947Y-106704603D01*
X149156980Y-106665631D01*
X149153036Y-106653895D01*
X149150897Y-106596087D01*
X149178724Y-106555804D01*
X149231939Y-106540679D01*
X149271517Y-106545573D01*
G37*
G36*
X148684340Y-106433482D02*
G01*
X148707604Y-106464836D01*
X148703282Y-106512912D01*
X148688765Y-106530133D01*
X148647802Y-106537186D01*
X148614696Y-106522425D01*
X148604023Y-106482422D01*
X148613094Y-106444422D01*
X148647802Y-106427658D01*
X148684340Y-106433482D01*
G37*
G36*
X144430015Y-105648294D02*
G01*
X144445507Y-105664409D01*
X144455673Y-105706799D01*
X144427559Y-105752824D01*
X144382139Y-105778717D01*
X144340242Y-105771951D01*
X144311668Y-105737998D01*
X144306087Y-105682459D01*
X144310133Y-105667975D01*
X144340001Y-105637517D01*
X144384919Y-105629590D01*
X144430015Y-105648294D01*
G37*
G36*
X148682733Y-105230707D02*
G01*
X148714479Y-105263480D01*
X148730124Y-105312018D01*
X148722682Y-105367244D01*
X148720103Y-105372215D01*
X148689223Y-105390704D01*
X148642640Y-105393124D01*
X148597613Y-105377991D01*
X148582545Y-105357557D01*
X148578335Y-105313258D01*
X148591162Y-105265730D01*
X148618587Y-105231957D01*
X148641872Y-105222780D01*
X148682733Y-105230707D01*
G37*
G36*
X143715855Y-105255407D02*
G01*
X143733346Y-105300220D01*
X143720547Y-105355389D01*
X143719306Y-105357598D01*
X143682291Y-105387780D01*
X143632545Y-105393205D01*
X143588105Y-105371657D01*
X143586282Y-105369763D01*
X143566194Y-105324602D01*
X143572963Y-105275073D01*
X143604374Y-105239216D01*
X143624016Y-105230858D01*
X143676577Y-105229452D01*
X143715855Y-105255407D01*
G37*
G36*
X142166071Y-106437924D02*
G01*
X142192478Y-106469233D01*
X142194008Y-106509129D01*
X142179433Y-106529099D01*
X142145567Y-106537933D01*
X142111470Y-106522861D01*
X142092455Y-106487190D01*
X142093895Y-106459006D01*
X142118234Y-106431132D01*
X142127795Y-106428593D01*
X142166071Y-106437924D01*
G37*
G36*
X145560657Y-105255407D02*
G01*
X145578148Y-105300220D01*
X145565348Y-105355389D01*
X145564107Y-105357598D01*
X145527092Y-105387780D01*
X145477346Y-105393205D01*
X145432907Y-105371657D01*
X145431083Y-105369763D01*
X145410995Y-105324602D01*
X145417764Y-105275073D01*
X145449175Y-105239216D01*
X145468817Y-105230858D01*
X145521379Y-105229452D01*
X145560657Y-105255407D01*
G37*
G36*
X144044334Y-107367852D02*
G01*
X144062654Y-107396429D01*
X144065652Y-107427592D01*
X144039180Y-107461692D01*
X143993760Y-107487585D01*
X143951863Y-107480820D01*
X143923289Y-107446867D01*
X143917708Y-107391327D01*
X143928071Y-107365168D01*
X143962696Y-107341251D01*
X144006464Y-107341216D01*
X144044334Y-107367852D01*
G37*
G36*
X146834294Y-106737902D02*
G01*
X146879494Y-106765300D01*
X146899087Y-106812387D01*
X146886760Y-106868345D01*
X146856979Y-106899485D01*
X146809048Y-106911983D01*
X146761640Y-106898493D01*
X146729610Y-106859820D01*
X146725344Y-106847069D01*
X146723489Y-106789037D01*
X146752694Y-106749486D01*
X146808869Y-106734868D01*
X146834294Y-106737902D01*
G37*
G36*
X146841820Y-107347631D02*
G01*
X146871660Y-107378428D01*
X146882227Y-107420695D01*
X146865252Y-107464012D01*
X146848813Y-107478202D01*
X146807769Y-107492208D01*
X146796982Y-107491522D01*
X146755429Y-107471119D01*
X146735670Y-107431904D01*
X146740768Y-107386804D01*
X146773786Y-107348746D01*
X146800975Y-107338725D01*
X146841820Y-107347631D01*
G37*
G36*
X146838521Y-107536974D02*
G01*
X146873605Y-107566242D01*
X146880630Y-107609734D01*
X146854929Y-107655882D01*
X146833452Y-107674061D01*
X146807769Y-107686397D01*
X146801631Y-107684989D01*
X146773093Y-107666440D01*
X146743644Y-107638272D01*
X146730093Y-107615767D01*
X146741426Y-107581766D01*
X146771299Y-107546628D01*
X146804569Y-107531046D01*
X146838521Y-107536974D01*
G37*
G36*
X146246303Y-105832510D02*
G01*
X146274574Y-105859334D01*
X146284994Y-105900648D01*
X146276862Y-105940515D01*
X146249474Y-105963000D01*
X146205227Y-105962409D01*
X146164286Y-105939724D01*
X146147524Y-105901548D01*
X146158234Y-105863368D01*
X146194564Y-105833093D01*
X146243687Y-105831591D01*
X146246303Y-105832510D01*
G37*
G36*
X144994366Y-103293010D02*
G01*
X145084336Y-103351611D01*
X145102786Y-103366430D01*
X145115813Y-103364882D01*
X145118320Y-103329851D01*
X145118720Y-103313905D01*
X145126362Y-103290004D01*
X145151868Y-103280192D01*
X145205705Y-103278293D01*
X145293090Y-103278293D01*
X145293090Y-104093890D01*
X145118320Y-104093890D01*
X145118320Y-103527752D01*
X145061556Y-103470989D01*
X145029056Y-103442316D01*
X144981357Y-103419944D01*
X144915914Y-103414226D01*
X144908292Y-103414284D01*
X144836242Y-103424113D01*
X144788197Y-103453064D01*
X144785441Y-103455879D01*
X144771340Y-103474191D01*
X144761457Y-103499032D01*
X144755057Y-103536861D01*
X144751399Y-103594140D01*
X144749746Y-103677332D01*
X144749359Y-103792896D01*
X144749359Y-104093890D01*
X144571315Y-104093890D01*
X144577807Y-103768622D01*
X144580618Y-103650989D01*
X144584369Y-103557998D01*
X144589657Y-103491044D01*
X144597235Y-103443542D01*
X144607859Y-103408907D01*
X144622283Y-103380557D01*
X144643849Y-103350422D01*
X144714478Y-103293273D01*
X144801638Y-103264330D01*
X144897534Y-103264079D01*
X144994366Y-103293010D01*
G37*
G36*
X148683318Y-106037571D02*
G01*
X148706015Y-106052779D01*
X148710827Y-106094043D01*
X148709042Y-106124790D01*
X148693834Y-106147488D01*
X148652570Y-106152300D01*
X148621823Y-106150515D01*
X148599125Y-106135306D01*
X148594313Y-106094043D01*
X148596098Y-106063295D01*
X148611307Y-106040598D01*
X148652570Y-106035786D01*
X148683318Y-106037571D01*
G37*
G36*
X148685219Y-107153909D02*
G01*
X148715461Y-107166252D01*
X148726882Y-107197138D01*
X148726089Y-107229116D01*
X148709940Y-107269959D01*
X148693662Y-107284013D01*
X148652570Y-107298018D01*
X148617487Y-107288349D01*
X148585375Y-107251178D01*
X148578259Y-107197138D01*
X148583614Y-107175779D01*
X148605017Y-107157014D01*
X148652570Y-107152376D01*
X148685219Y-107153909D01*
G37*
G36*
X146710674Y-104093890D02*
G01*
X146535904Y-104093890D01*
X146535904Y-103278293D01*
X146710674Y-103278293D01*
X146710674Y-104093890D01*
G37*
G36*
X144413689Y-108158001D02*
G01*
X144429163Y-108181741D01*
X144431689Y-108220275D01*
X144414616Y-108241181D01*
X144379535Y-108247312D01*
X144344747Y-108231100D01*
X144325635Y-108196058D01*
X144324966Y-108181858D01*
X144340729Y-108147248D01*
X144374553Y-108137459D01*
X144413689Y-108158001D01*
G37*
G36*
X142185323Y-105239216D02*
G01*
X142187532Y-105240457D01*
X142217714Y-105277472D01*
X142223140Y-105327218D01*
X142201592Y-105371657D01*
X142199697Y-105373481D01*
X142154536Y-105393569D01*
X142105008Y-105386800D01*
X142069150Y-105355389D01*
X142060792Y-105335747D01*
X142059386Y-105283186D01*
X142085341Y-105243908D01*
X142130155Y-105226417D01*
X142185323Y-105239216D01*
G37*
G36*
X148886685Y-106044116D02*
G01*
X148915441Y-106075245D01*
X148911636Y-106124222D01*
X148895159Y-106142431D01*
X148849134Y-106148495D01*
X148843061Y-106147686D01*
X148806274Y-106131091D01*
X148792068Y-106089188D01*
X148790571Y-106060753D01*
X148803194Y-106040128D01*
X148843392Y-106035786D01*
X148886685Y-106044116D01*
G37*
G36*
X141994142Y-105243542D02*
G01*
X142023833Y-105280700D01*
X142030585Y-105326920D01*
X142007402Y-105371657D01*
X141970401Y-105391170D01*
X141917931Y-105390798D01*
X141875562Y-105366084D01*
X141867742Y-105353743D01*
X141861287Y-105306157D01*
X141878221Y-105258926D01*
X141913503Y-105230117D01*
X141948506Y-105225988D01*
X141994142Y-105243542D01*
G37*
G36*
X151110910Y-102813062D02*
G01*
X151168252Y-102835903D01*
X151236441Y-102885425D01*
X151309464Y-102955375D01*
X151381307Y-103039495D01*
X151445954Y-103131532D01*
X151497393Y-103225231D01*
X151515116Y-103262333D01*
X151552922Y-103329665D01*
X151589576Y-103373356D01*
X151632315Y-103402940D01*
X151671992Y-103428937D01*
X151732328Y-103478292D01*
X151790500Y-103534638D01*
X151801137Y-103546251D01*
X151896012Y-103677692D01*
X151967348Y-103835110D01*
X152015934Y-104020698D01*
X152042557Y-104236650D01*
X152046539Y-104283376D01*
X152066102Y-104404210D01*
X152100485Y-104513537D01*
X152152737Y-104615019D01*
X152225909Y-104712321D01*
X152323052Y-104809107D01*
X152447216Y-104909041D01*
X152601451Y-105015787D01*
X152788809Y-105133009D01*
X152925617Y-105219460D01*
X153146071Y-105380302D01*
X153336160Y-105551702D01*
X153501321Y-105739451D01*
X153646993Y-105949340D01*
X153778612Y-106187160D01*
X153801849Y-106234805D01*
X153885684Y-106431847D01*
X153940446Y-106611534D01*
X153967708Y-106778785D01*
X153978267Y-106860359D01*
X153995840Y-106917277D01*
X154023821Y-106958410D01*
X154030690Y-106965443D01*
X154090662Y-107001021D01*
X154154512Y-106999348D01*
X154215698Y-106960356D01*
X154220307Y-106955587D01*
X154254643Y-106903761D01*
X154275164Y-106833250D01*
X154283008Y-106737810D01*
X154279315Y-106611195D01*
X154268400Y-106512642D01*
X154246173Y-106411988D01*
X154210342Y-106305275D01*
X154158472Y-106186259D01*
X154088130Y-106048692D01*
X153996883Y-105886328D01*
X153973186Y-105845182D01*
X153882836Y-105681056D01*
X153812189Y-105537085D01*
X153758010Y-105404611D01*
X153717065Y-105274976D01*
X153686120Y-105139519D01*
X153661942Y-104989584D01*
X153657462Y-104954748D01*
X153646375Y-104792075D01*
X153657069Y-104654291D01*
X153691469Y-104534097D01*
X153751497Y-104424195D01*
X153839076Y-104317286D01*
X153880392Y-104276129D01*
X154002652Y-104182946D01*
X154131451Y-104126768D01*
X154269385Y-104106322D01*
X154342240Y-104107872D01*
X154404954Y-104119989D01*
X154459579Y-104146421D01*
X154479318Y-104159717D01*
X154553021Y-104235325D01*
X154597809Y-104328846D01*
X154612286Y-104432233D01*
X154595052Y-104537440D01*
X154544711Y-104636420D01*
X154529680Y-104657241D01*
X154483393Y-104721599D01*
X154443705Y-104777081D01*
X154399312Y-104852911D01*
X154351250Y-104988995D01*
X154322857Y-105156298D01*
X154313840Y-105356122D01*
X154314147Y-105412616D01*
X154316452Y-105504972D01*
X154322765Y-105578624D01*
X154335201Y-105647053D01*
X154355872Y-105723744D01*
X154386892Y-105822177D01*
X154404942Y-105877857D01*
X154458145Y-106042582D01*
X154500828Y-106176928D01*
X154534142Y-106285945D01*
X154559240Y-106374682D01*
X154577274Y-106448188D01*
X154589396Y-106511514D01*
X154596759Y-106569708D01*
X154600515Y-106627820D01*
X154601816Y-106690900D01*
X154601815Y-106763997D01*
X154601814Y-106764085D01*
X154599420Y-106893287D01*
X154592368Y-106996105D01*
X154579372Y-107084841D01*
X154559144Y-107171795D01*
X154547885Y-107211658D01*
X154482783Y-107392604D01*
X154400859Y-107556587D01*
X154305399Y-107699233D01*
X154199688Y-107816166D01*
X154087013Y-107903014D01*
X153970657Y-107955400D01*
X153938839Y-107959600D01*
X153872291Y-107963512D01*
X153775854Y-107966898D01*
X153653569Y-107969760D01*
X153509479Y-107972104D01*
X153347628Y-107973933D01*
X153172058Y-107975251D01*
X152986811Y-107976063D01*
X152795930Y-107976373D01*
X152603457Y-107976186D01*
X152413436Y-107975505D01*
X152229909Y-107974334D01*
X152056919Y-107972678D01*
X151898508Y-107970541D01*
X151758719Y-107967928D01*
X151641595Y-107964842D01*
X151551178Y-107961287D01*
X151491511Y-107957269D01*
X151466637Y-107952791D01*
X151445313Y-107932720D01*
X151406164Y-107870014D01*
X151390644Y-107802694D01*
X151390711Y-107799893D01*
X151409156Y-107749798D01*
X151451929Y-107700355D01*
X151506857Y-107662597D01*
X151561769Y-107647560D01*
X151611641Y-107638134D01*
X151665213Y-107610414D01*
X151692938Y-107580978D01*
X151706865Y-107540471D01*
X151709673Y-107476117D01*
X151709004Y-107456914D01*
X151702575Y-107404276D01*
X151687845Y-107348335D01*
X151662832Y-107285702D01*
X151625557Y-107212985D01*
X151574039Y-107126796D01*
X151506299Y-107023745D01*
X151420356Y-106900441D01*
X151314230Y-106753495D01*
X151185942Y-106579517D01*
X151118519Y-106485745D01*
X150974536Y-106258578D01*
X150866268Y-106042872D01*
X150793772Y-105839034D01*
X150757104Y-105647471D01*
X150756319Y-105468587D01*
X150791473Y-105302790D01*
X150862624Y-105150486D01*
X150969826Y-105012080D01*
X151003027Y-104976165D01*
X151029550Y-104940112D01*
X151035651Y-104912323D01*
X151025978Y-104882029D01*
X151003682Y-104845477D01*
X150950997Y-104802004D01*
X150871347Y-104772033D01*
X150759229Y-104752901D01*
X150729729Y-104749198D01*
X150607958Y-104722271D01*
X150497378Y-104674895D01*
X150408799Y-104620223D01*
X150316939Y-104548397D01*
X150235047Y-104469684D01*
X150169111Y-104390533D01*
X150125121Y-104317394D01*
X150109065Y-104256715D01*
X150111074Y-104238068D01*
X150137813Y-104180896D01*
X150186495Y-104131644D01*
X150245388Y-104103498D01*
X150269845Y-104095858D01*
X150301531Y-104076592D01*
X150335298Y-104042557D01*
X150375125Y-103988842D01*
X150424988Y-103910532D01*
X150488864Y-103802715D01*
X150603025Y-103633131D01*
X150735859Y-103490635D01*
X150883193Y-103383240D01*
X151045957Y-103310124D01*
X151051348Y-103307961D01*
X151063946Y-103296295D01*
X151072240Y-103271699D01*
X151077094Y-103227699D01*
X151079373Y-103157819D01*
X151079940Y-103055585D01*
X151080634Y-102977875D01*
X151084275Y-102887147D01*
X151090892Y-102831289D01*
X151100324Y-102812238D01*
X151110910Y-102813062D01*
G37*
G36*
X143290565Y-105231009D02*
G01*
X143325023Y-105262522D01*
X143341100Y-105308048D01*
X143330095Y-105359262D01*
X143328035Y-105362770D01*
X143291697Y-105389200D01*
X143242785Y-105392746D01*
X143199726Y-105371657D01*
X143180213Y-105334656D01*
X143180586Y-105282186D01*
X143205300Y-105239818D01*
X143246424Y-105221836D01*
X143290565Y-105231009D01*
G37*
G36*
X145135366Y-105231009D02*
G01*
X145169825Y-105262522D01*
X145185901Y-105308048D01*
X145174896Y-105359262D01*
X145172836Y-105362770D01*
X145136498Y-105389200D01*
X145087586Y-105392746D01*
X145044528Y-105371657D01*
X145025015Y-105334656D01*
X145025387Y-105282186D01*
X145050101Y-105239818D01*
X145091225Y-105221836D01*
X145135366Y-105231009D01*
G37*
G36*
X145332741Y-106035402D02*
G01*
X145360649Y-106065381D01*
X145361769Y-106111216D01*
X145360971Y-106113655D01*
X145339084Y-106144390D01*
X145296278Y-106148574D01*
X145266905Y-106139294D01*
X145239871Y-106108559D01*
X145239749Y-106070184D01*
X145269810Y-106037852D01*
X145289513Y-106030427D01*
X145332741Y-106035402D01*
G37*
G36*
X147962736Y-106044455D02*
G01*
X147989364Y-106074701D01*
X147984804Y-106124472D01*
X147967767Y-106143200D01*
X147919615Y-106148745D01*
X147907566Y-106147027D01*
X147874617Y-106131358D01*
X147866102Y-106094043D01*
X147866469Y-106083070D01*
X147879563Y-106051672D01*
X147919615Y-106039340D01*
X147962736Y-106044455D01*
G37*
%TO.C,G\u002A\u002A\u002A*%
G36*
X130522688Y-97493191D02*
G01*
X130177814Y-97493191D01*
X130177814Y-96803442D01*
X130522688Y-96803442D01*
X130522688Y-97493191D01*
G37*
G36*
X135350930Y-100252186D02*
G01*
X134661181Y-100252186D01*
X134661181Y-99907312D01*
X135350930Y-99907312D01*
X135350930Y-100252186D01*
G37*
G36*
X134316306Y-100597061D02*
G01*
X133971432Y-100597061D01*
X133971432Y-100252186D01*
X134316306Y-100252186D01*
X134316306Y-100597061D01*
G37*
G36*
X132591934Y-96113694D02*
G01*
X132247060Y-96113694D01*
X132247060Y-95768819D01*
X132591934Y-95768819D01*
X132591934Y-96113694D01*
G37*
G36*
X128108567Y-103700930D02*
G01*
X127763693Y-103700930D01*
X127763693Y-103356056D01*
X128108567Y-103356056D01*
X128108567Y-103700930D01*
G37*
G36*
X134661181Y-98182940D02*
G01*
X134316306Y-98182940D01*
X134316306Y-97838066D01*
X134661181Y-97838066D01*
X134661181Y-98182940D01*
G37*
G36*
X132591934Y-95423945D02*
G01*
X132247060Y-95423945D01*
X132247060Y-95079070D01*
X132591934Y-95079070D01*
X132591934Y-95423945D01*
G37*
G36*
X135350930Y-100941935D02*
G01*
X134661181Y-100941935D01*
X134661181Y-100597061D01*
X135350930Y-100597061D01*
X135350930Y-100941935D01*
G37*
G36*
X133281683Y-99217563D02*
G01*
X133281683Y-99562438D01*
X132936809Y-99562438D01*
X132936809Y-99907312D01*
X132591934Y-99907312D01*
X132591934Y-99562438D01*
X132247060Y-99562438D01*
X132247060Y-99217563D01*
X131212437Y-99217563D01*
X131212437Y-98872689D01*
X131557311Y-98872689D01*
X131557311Y-98182940D01*
X130867562Y-98182940D01*
X130867562Y-98527814D01*
X131212437Y-98527814D01*
X131212437Y-98872689D01*
X130522688Y-98872689D01*
X130522688Y-99217563D01*
X129832939Y-99217563D01*
X129832939Y-99562438D01*
X129488065Y-99562438D01*
X129488065Y-99217563D01*
X129143190Y-99217563D01*
X129143190Y-99562438D01*
X129488065Y-99562438D01*
X129488065Y-99907312D01*
X129143190Y-99907312D01*
X129143190Y-100252186D01*
X128798316Y-100252186D01*
X128798316Y-100597061D01*
X129832939Y-100597061D01*
X129832939Y-100941935D01*
X130177814Y-100941935D01*
X130177814Y-101286810D01*
X129832939Y-101286810D01*
X129832939Y-101631684D01*
X130177814Y-101631684D01*
X130177814Y-101976558D01*
X130867562Y-101976558D01*
X130867562Y-101631684D01*
X130522688Y-101631684D01*
X130522688Y-101286810D01*
X130867562Y-101286810D01*
X130867562Y-100597061D01*
X131557311Y-100597061D01*
X131557311Y-100941935D01*
X131212437Y-100941935D01*
X131212437Y-101631684D01*
X132247060Y-101631684D01*
X132247060Y-99907312D01*
X132591934Y-99907312D01*
X132591934Y-100597061D01*
X133971432Y-100597061D01*
X133971432Y-100941935D01*
X132591934Y-100941935D01*
X132591934Y-101631684D01*
X132247060Y-101631684D01*
X132247060Y-102666307D01*
X131902186Y-102666307D01*
X131902186Y-101976558D01*
X130867562Y-101976558D01*
X130867562Y-102666307D01*
X130522688Y-102666307D01*
X130522688Y-102321433D01*
X128453442Y-102321433D01*
X128453442Y-102666307D01*
X128798316Y-102666307D01*
X128798316Y-103011182D01*
X129143190Y-103011182D01*
X129143190Y-102666307D01*
X129488065Y-102666307D01*
X129488065Y-103011182D01*
X129832939Y-103011182D01*
X129832939Y-103700930D01*
X129143190Y-103700930D01*
X129143190Y-103356056D01*
X128108567Y-103356056D01*
X128108567Y-103011182D01*
X127763693Y-103011182D01*
X127763693Y-102666307D01*
X128108567Y-102666307D01*
X128108567Y-101976558D01*
X128453442Y-101976558D01*
X129488065Y-101976558D01*
X129488065Y-100941935D01*
X128453442Y-100941935D01*
X128453442Y-101976558D01*
X128108567Y-101976558D01*
X128108567Y-100597061D01*
X127763693Y-100597061D01*
X127763693Y-100252186D01*
X127418818Y-100252186D01*
X127418818Y-99907312D01*
X128108567Y-99907312D01*
X128108567Y-100252186D01*
X128798316Y-100252186D01*
X128798316Y-99907312D01*
X128453442Y-99907312D01*
X128453442Y-99217563D01*
X129143190Y-99217563D01*
X129143190Y-98527814D01*
X129488065Y-98527814D01*
X129488065Y-98872689D01*
X129832939Y-98872689D01*
X129832939Y-97493191D01*
X130177814Y-97493191D01*
X130177814Y-97838066D01*
X130522688Y-97838066D01*
X130522688Y-98182940D01*
X130867562Y-98182940D01*
X130867562Y-97838066D01*
X131212437Y-97838066D01*
X131212437Y-97493191D01*
X130867562Y-97493191D01*
X130867562Y-96803442D01*
X130522688Y-96803442D01*
X130522688Y-96458568D01*
X130177814Y-96458568D01*
X130177814Y-96803442D01*
X129832939Y-96803442D01*
X129832939Y-97493191D01*
X129488065Y-97493191D01*
X129488065Y-96803442D01*
X129832939Y-96803442D01*
X129832939Y-96113694D01*
X129488065Y-96113694D01*
X129488065Y-95423945D01*
X129832939Y-95423945D01*
X129832939Y-95768819D01*
X130177814Y-95768819D01*
X130177814Y-95079070D01*
X131557311Y-95079070D01*
X131557311Y-95423945D01*
X131902186Y-95423945D01*
X131902186Y-96113694D01*
X132247060Y-96113694D01*
X132247060Y-96458568D01*
X131902186Y-96458568D01*
X131902186Y-96113694D01*
X131557311Y-96113694D01*
X131557311Y-95768819D01*
X131212437Y-95768819D01*
X131212437Y-95423945D01*
X130522688Y-95423945D01*
X130522688Y-95768819D01*
X131212437Y-95768819D01*
X131212437Y-96113694D01*
X130867562Y-96113694D01*
X130867562Y-96458568D01*
X131212437Y-96458568D01*
X131212437Y-96803442D01*
X131557311Y-96803442D01*
X131557311Y-96458568D01*
X131902186Y-96458568D01*
X131902186Y-96803442D01*
X131557311Y-96803442D01*
X131557311Y-97148317D01*
X131212437Y-97148317D01*
X131212437Y-97493191D01*
X131557311Y-97493191D01*
X131557311Y-97838066D01*
X132247060Y-97838066D01*
X132247060Y-98182940D01*
X131902186Y-98182940D01*
X131902186Y-98527814D01*
X132591934Y-98527814D01*
X132591934Y-97838066D01*
X133281683Y-97838066D01*
X133281683Y-98182940D01*
X132936809Y-98182940D01*
X132936809Y-98527814D01*
X133626558Y-98527814D01*
X133626558Y-98182940D01*
X134316306Y-98182940D01*
X134316306Y-98872689D01*
X135006055Y-98872689D01*
X135006055Y-97838066D01*
X135350930Y-97838066D01*
X135350930Y-99562438D01*
X135006055Y-99562438D01*
X135006055Y-99217563D01*
X133281683Y-99217563D01*
X133281683Y-98872689D01*
X132247060Y-98872689D01*
X132247060Y-99217563D01*
X133281683Y-99217563D01*
G37*
G36*
X132591934Y-96803442D02*
G01*
X132591934Y-97493191D01*
X132247060Y-97493191D01*
X132247060Y-97148317D01*
X131902186Y-97148317D01*
X131902186Y-96803442D01*
X132591934Y-96803442D01*
G37*
G36*
X131902186Y-97148317D02*
G01*
X131902186Y-97493191D01*
X131557311Y-97493191D01*
X131557311Y-97148317D01*
X131902186Y-97148317D01*
G37*
G36*
X127763693Y-102666307D02*
G01*
X127418818Y-102666307D01*
X127418818Y-103011182D01*
X126729070Y-103011182D01*
X126729070Y-102666307D01*
X127073944Y-102666307D01*
X127073944Y-102321433D01*
X127763693Y-102321433D01*
X127763693Y-102666307D01*
G37*
G36*
X132936809Y-103700930D02*
G01*
X132936809Y-103338812D01*
X133298927Y-103338812D01*
X134988812Y-103338812D01*
X134988812Y-101648928D01*
X133298927Y-101648928D01*
X133298927Y-103338812D01*
X132936809Y-103338812D01*
X132936809Y-101286810D01*
X135350930Y-101286810D01*
X135350930Y-103700930D01*
X132936809Y-103700930D01*
G37*
G36*
X126729070Y-97493191D02*
G01*
X126729070Y-97131073D01*
X127091188Y-97131073D01*
X128781072Y-97131073D01*
X128781072Y-95441188D01*
X127091188Y-95441188D01*
X127091188Y-97131073D01*
X126729070Y-97131073D01*
X126729070Y-95079070D01*
X129143190Y-95079070D01*
X129143190Y-97493191D01*
X126729070Y-97493191D01*
G37*
G36*
X127418818Y-100941935D02*
G01*
X127073944Y-100941935D01*
X127073944Y-100597061D01*
X127418818Y-100597061D01*
X127418818Y-100941935D01*
G37*
G36*
X128453442Y-96803442D02*
G01*
X127418818Y-96803442D01*
X127418818Y-95768819D01*
X128453442Y-95768819D01*
X128453442Y-96803442D01*
G37*
G36*
X131902186Y-101286810D02*
G01*
X131557311Y-101286810D01*
X131557311Y-100941935D01*
X131902186Y-100941935D01*
X131902186Y-101286810D01*
G37*
G36*
X127073944Y-102321433D02*
G01*
X126729070Y-102321433D01*
X126729070Y-100941935D01*
X127073944Y-100941935D01*
X127073944Y-102321433D01*
G37*
G36*
X130867562Y-103356056D02*
G01*
X131557311Y-103356056D01*
X131557311Y-103011182D01*
X132247060Y-103011182D01*
X132247060Y-103356056D01*
X132591934Y-103356056D01*
X132591934Y-103700930D01*
X130522688Y-103700930D01*
X130522688Y-103011182D01*
X130867562Y-103011182D01*
X130867562Y-103356056D01*
G37*
G36*
X131557311Y-103011182D02*
G01*
X131212437Y-103011182D01*
X131212437Y-102666307D01*
X131557311Y-102666307D01*
X131557311Y-103011182D01*
G37*
G36*
X132247060Y-99907312D02*
G01*
X131902186Y-99907312D01*
X131902186Y-99562438D01*
X132247060Y-99562438D01*
X132247060Y-99907312D01*
G37*
G36*
X131902186Y-100597061D02*
G01*
X131557311Y-100597061D01*
X131557311Y-100252186D01*
X131902186Y-100252186D01*
X131902186Y-100597061D01*
G37*
G36*
X130522688Y-100597061D02*
G01*
X130177814Y-100597061D01*
X130177814Y-100252186D01*
X130522688Y-100252186D01*
X130522688Y-100597061D01*
G37*
G36*
X127763693Y-98182940D02*
G01*
X128108567Y-98182940D01*
X128108567Y-99217563D01*
X127763693Y-99217563D01*
X127763693Y-98872689D01*
X127418818Y-98872689D01*
X127418818Y-98527814D01*
X127763693Y-98527814D01*
X127763693Y-98182940D01*
G37*
G36*
X127073944Y-98182940D02*
G01*
X127418818Y-98182940D01*
X127418818Y-97838066D01*
X127763693Y-97838066D01*
X127763693Y-98182940D01*
X127418818Y-98182940D01*
X127418818Y-98527814D01*
X127073944Y-98527814D01*
X127073944Y-98872689D01*
X126729070Y-98872689D01*
X126729070Y-97838066D01*
X127073944Y-97838066D01*
X127073944Y-98182940D01*
G37*
G36*
X134661181Y-96803442D02*
G01*
X133626558Y-96803442D01*
X133626558Y-95768819D01*
X134661181Y-95768819D01*
X134661181Y-96803442D01*
G37*
G36*
X132591934Y-103011182D02*
G01*
X132247060Y-103011182D01*
X132247060Y-102666307D01*
X132591934Y-102666307D01*
X132591934Y-103011182D01*
G37*
G36*
X127073944Y-103700930D02*
G01*
X126729070Y-103700930D01*
X126729070Y-103356056D01*
X127073944Y-103356056D01*
X127073944Y-103700930D01*
G37*
G36*
X127073944Y-99562438D02*
G01*
X127418818Y-99562438D01*
X127418818Y-99907312D01*
X127073944Y-99907312D01*
X127073944Y-100252186D01*
X126729070Y-100252186D01*
X126729070Y-99217563D01*
X127073944Y-99217563D01*
X127073944Y-99562438D01*
G37*
G36*
X131557311Y-100252186D02*
G01*
X131212437Y-100252186D01*
X131212437Y-99907312D01*
X131557311Y-99907312D01*
X131557311Y-100252186D01*
G37*
G36*
X130867562Y-100252186D02*
G01*
X130522688Y-100252186D01*
X130522688Y-99562438D01*
X130867562Y-99562438D01*
X130867562Y-100252186D01*
G37*
G36*
X129143190Y-101631684D02*
G01*
X128798316Y-101631684D01*
X128798316Y-101286810D01*
X129143190Y-101286810D01*
X129143190Y-101631684D01*
G37*
G36*
X128798316Y-98182940D02*
G01*
X129143190Y-98182940D01*
X129143190Y-98527814D01*
X128798316Y-98527814D01*
X128798316Y-98872689D01*
X128453442Y-98872689D01*
X128453442Y-97838066D01*
X128798316Y-97838066D01*
X128798316Y-98182940D01*
G37*
G36*
X134661181Y-103011182D02*
G01*
X133626558Y-103011182D01*
X133626558Y-101976558D01*
X134661181Y-101976558D01*
X134661181Y-103011182D01*
G37*
G36*
X132936809Y-97493191D02*
G01*
X132936809Y-97131073D01*
X133298927Y-97131073D01*
X134988812Y-97131073D01*
X134988812Y-95441188D01*
X133298927Y-95441188D01*
X133298927Y-97131073D01*
X132936809Y-97131073D01*
X132936809Y-95079070D01*
X135350930Y-95079070D01*
X135350930Y-97493191D01*
X132936809Y-97493191D01*
G37*
G36*
X134316306Y-99907312D02*
G01*
X133626558Y-99907312D01*
X133626558Y-99562438D01*
X134316306Y-99562438D01*
X134316306Y-99907312D01*
G37*
G36*
X130177814Y-100252186D02*
G01*
X129832939Y-100252186D01*
X129832939Y-99562438D01*
X130177814Y-99562438D01*
X130177814Y-100252186D01*
G37*
G36*
X133626558Y-100252186D02*
G01*
X132936809Y-100252186D01*
X132936809Y-99907312D01*
X133626558Y-99907312D01*
X133626558Y-100252186D01*
G37*
%TD*%
M02*
