%TF.GenerationSoftware,KiCad,Pcbnew,(6.0.4-0)*%
%TF.CreationDate,2022-07-05T16:22:49+02:00*%
%TF.ProjectId,Button PCB,42757474-6f6e-4205-9043-422e6b696361,rev?*%
%TF.SameCoordinates,Original*%
%TF.FileFunction,Copper,L1,Top*%
%TF.FilePolarity,Positive*%
%FSLAX46Y46*%
G04 Gerber Fmt 4.6, Leading zero omitted, Abs format (unit mm)*
G04 Created by KiCad (PCBNEW (6.0.4-0)) date 2022-07-05 16:22:49*
%MOMM*%
%LPD*%
G01*
G04 APERTURE LIST*
%TA.AperFunction,SMDPad,CuDef*%
%ADD10R,3.500000X2.000000*%
%TD*%
%TA.AperFunction,SMDPad,CuDef*%
%ADD11R,1.500000X2.200000*%
%TD*%
%TA.AperFunction,ViaPad*%
%ADD12C,0.800000*%
%TD*%
%TA.AperFunction,Conductor*%
%ADD13C,0.350000*%
%TD*%
%TA.AperFunction,Conductor*%
%ADD14C,1.000000*%
%TD*%
%TA.AperFunction,Conductor*%
%ADD15C,0.300000*%
%TD*%
G04 APERTURE END LIST*
D10*
%TO.P,P2,1*%
%TO.N,BUTTON2*%
X129490800Y-101618100D03*
%TD*%
%TO.P,P1,1*%
%TO.N,BUTTON1*%
X129490800Y-97486200D03*
%TD*%
D11*
%TO.P,SW1,1,1*%
%TO.N,BUTTON1*%
X140490013Y-97390000D03*
%TO.P,SW1,2,2*%
%TO.N,unconnected-(SW1-Pad2)*%
X140490013Y-105990000D03*
%TO.P,SW1,3,3*%
%TO.N,GND*%
X135989886Y-97390000D03*
%TO.P,SW1,4,4*%
%TO.N,unconnected-(SW1-Pad4)*%
X135989886Y-105990000D03*
%TD*%
D10*
%TO.P,P3,1*%
%TO.N,GND*%
X129490800Y-105750000D03*
%TD*%
D11*
%TO.P,SW2,1,1*%
%TO.N,BUTTON2*%
X152310013Y-97390000D03*
%TO.P,SW2,2,2*%
%TO.N,unconnected-(SW2-Pad2)*%
X152310013Y-105990000D03*
%TO.P,SW2,3,3*%
%TO.N,GND*%
X147809886Y-97390000D03*
%TO.P,SW2,4,4*%
%TO.N,unconnected-(SW2-Pad4)*%
X147809886Y-105990000D03*
%TD*%
D12*
%TO.N,BUTTON2*%
X150610000Y-97370000D03*
X132120000Y-104110000D03*
%TD*%
D13*
%TO.N,GND*%
X135989886Y-101280114D02*
X135855000Y-101415000D01*
D14*
X147809886Y-97390000D02*
X147809886Y-98840114D01*
X135855000Y-101415000D02*
X135855000Y-102495000D01*
X135855000Y-102495000D02*
X132600000Y-105750000D01*
X147809886Y-98840114D02*
X145235000Y-101415000D01*
X132600000Y-105750000D02*
X129490800Y-105750000D01*
X135989886Y-97390000D02*
X135989886Y-101280114D01*
X145235000Y-101415000D02*
X135855000Y-101415000D01*
D15*
%TO.N,BUTTON1*%
X131437000Y-95540000D02*
X137390000Y-95540000D01*
X139240000Y-97390000D02*
X140490013Y-97390000D01*
D13*
X130000000Y-96977000D02*
X129490800Y-97486200D01*
D15*
X130000000Y-96977000D02*
X131437000Y-95540000D01*
X137390000Y-95540000D02*
X139240000Y-97390000D01*
D14*
%TO.N,BUTTON2*%
X152290013Y-97370000D02*
X152310013Y-97390000D01*
X132120000Y-104110000D02*
X129628100Y-101618100D01*
X150610000Y-97370000D02*
X152290013Y-97370000D01*
X129628100Y-101618100D02*
X129490800Y-101618100D01*
%TD*%
%TA.AperFunction,Conductor*%
%TO.N,GND*%
G36*
X130965759Y-94858502D02*
G01*
X131012252Y-94912158D01*
X131022356Y-94982432D01*
X130992862Y-95047012D01*
X130987383Y-95052715D01*
X130982643Y-95056159D01*
X130977590Y-95062267D01*
X130953198Y-95091752D01*
X130945208Y-95100532D01*
X130104945Y-95940795D01*
X130042633Y-95974821D01*
X130015850Y-95977700D01*
X127692666Y-95977700D01*
X127630484Y-95984455D01*
X127494095Y-96035585D01*
X127377539Y-96122939D01*
X127290185Y-96239495D01*
X127239055Y-96375884D01*
X127232300Y-96438066D01*
X127232300Y-98534334D01*
X127239055Y-98596516D01*
X127290185Y-98732905D01*
X127377539Y-98849461D01*
X127494095Y-98936815D01*
X127630484Y-98987945D01*
X127692666Y-98994700D01*
X131288934Y-98994700D01*
X131351116Y-98987945D01*
X131487505Y-98936815D01*
X131604061Y-98849461D01*
X131691415Y-98732905D01*
X131742545Y-98596516D01*
X131749264Y-98534669D01*
X134731887Y-98534669D01*
X134732257Y-98541490D01*
X134737781Y-98592352D01*
X134741407Y-98607604D01*
X134786562Y-98728054D01*
X134795100Y-98743649D01*
X134871601Y-98845724D01*
X134884162Y-98858285D01*
X134986237Y-98934786D01*
X135001832Y-98943324D01*
X135122280Y-98988478D01*
X135137535Y-98992105D01*
X135188400Y-98997631D01*
X135195214Y-98998000D01*
X135717771Y-98998000D01*
X135733010Y-98993525D01*
X135734215Y-98992135D01*
X135735886Y-98984452D01*
X135735886Y-98979884D01*
X136243886Y-98979884D01*
X136248361Y-98995123D01*
X136249751Y-98996328D01*
X136257434Y-98997999D01*
X136784555Y-98997999D01*
X136791376Y-98997629D01*
X136842238Y-98992105D01*
X136857490Y-98988479D01*
X136977940Y-98943324D01*
X136993535Y-98934786D01*
X137095610Y-98858285D01*
X137108171Y-98845724D01*
X137184672Y-98743649D01*
X137193210Y-98728054D01*
X137238364Y-98607606D01*
X137241991Y-98592351D01*
X137247517Y-98541486D01*
X137247886Y-98534672D01*
X137247886Y-97662115D01*
X137243411Y-97646876D01*
X137242021Y-97645671D01*
X137234338Y-97644000D01*
X136262001Y-97644000D01*
X136246762Y-97648475D01*
X136245557Y-97649865D01*
X136243886Y-97657548D01*
X136243886Y-98979884D01*
X135735886Y-98979884D01*
X135735886Y-97662115D01*
X135731411Y-97646876D01*
X135730021Y-97645671D01*
X135722338Y-97644000D01*
X134750002Y-97644000D01*
X134734763Y-97648475D01*
X134733558Y-97649865D01*
X134731887Y-97657548D01*
X134731887Y-98534669D01*
X131749264Y-98534669D01*
X131749300Y-98534334D01*
X131749300Y-96438066D01*
X131742545Y-96375884D01*
X131739771Y-96368484D01*
X131737944Y-96360800D01*
X131739260Y-96360487D01*
X131734680Y-96297924D01*
X131768600Y-96235554D01*
X131830855Y-96201425D01*
X131857845Y-96198500D01*
X134605886Y-96198500D01*
X134674007Y-96218502D01*
X134720500Y-96272158D01*
X134731886Y-96324500D01*
X134731886Y-97117885D01*
X134736361Y-97133124D01*
X134737751Y-97134329D01*
X134745434Y-97136000D01*
X137229770Y-97136000D01*
X137245009Y-97131525D01*
X137246214Y-97130135D01*
X137247885Y-97122452D01*
X137247885Y-96633335D01*
X137267887Y-96565214D01*
X137321543Y-96518721D01*
X137391817Y-96508617D01*
X137456397Y-96538111D01*
X137462980Y-96544240D01*
X138716345Y-97797605D01*
X138724335Y-97806385D01*
X138728584Y-97813080D01*
X138734362Y-97818506D01*
X138734363Y-97818507D01*
X138780257Y-97861604D01*
X138783099Y-97864359D01*
X138803667Y-97884927D01*
X138807170Y-97887644D01*
X138816195Y-97895352D01*
X138849867Y-97926972D01*
X138856818Y-97930793D01*
X138856819Y-97930794D01*
X138868658Y-97937303D01*
X138885182Y-97948157D01*
X138895271Y-97955982D01*
X138902132Y-97961304D01*
X138909404Y-97964451D01*
X138909406Y-97964452D01*
X138944535Y-97979654D01*
X138955196Y-97984876D01*
X138995663Y-98007124D01*
X139016441Y-98012459D01*
X139035131Y-98018858D01*
X139054824Y-98027380D01*
X139098596Y-98034313D01*
X139100448Y-98034606D01*
X139112070Y-98037013D01*
X139136846Y-98043374D01*
X139197853Y-98079688D01*
X139229542Y-98143220D01*
X139231513Y-98165416D01*
X139231513Y-98538134D01*
X139238268Y-98600316D01*
X139289398Y-98736705D01*
X139376752Y-98853261D01*
X139493308Y-98940615D01*
X139629697Y-98991745D01*
X139691879Y-98998500D01*
X141288147Y-98998500D01*
X141350329Y-98991745D01*
X141486718Y-98940615D01*
X141603274Y-98853261D01*
X141690628Y-98736705D01*
X141741758Y-98600316D01*
X141748513Y-98538134D01*
X141748513Y-98534669D01*
X146551887Y-98534669D01*
X146552257Y-98541490D01*
X146557781Y-98592352D01*
X146561407Y-98607604D01*
X146606562Y-98728054D01*
X146615100Y-98743649D01*
X146691601Y-98845724D01*
X146704162Y-98858285D01*
X146806237Y-98934786D01*
X146821832Y-98943324D01*
X146942280Y-98988478D01*
X146957535Y-98992105D01*
X147008400Y-98997631D01*
X147015214Y-98998000D01*
X147537771Y-98998000D01*
X147553010Y-98993525D01*
X147554215Y-98992135D01*
X147555886Y-98984452D01*
X147555886Y-98979884D01*
X148063886Y-98979884D01*
X148068361Y-98995123D01*
X148069751Y-98996328D01*
X148077434Y-98997999D01*
X148604555Y-98997999D01*
X148611376Y-98997629D01*
X148662238Y-98992105D01*
X148677490Y-98988479D01*
X148797940Y-98943324D01*
X148813535Y-98934786D01*
X148915610Y-98858285D01*
X148928171Y-98845724D01*
X149004672Y-98743649D01*
X149013210Y-98728054D01*
X149058364Y-98607606D01*
X149061991Y-98592351D01*
X149067517Y-98541486D01*
X149067886Y-98534672D01*
X149067886Y-97662115D01*
X149063411Y-97646876D01*
X149062021Y-97645671D01*
X149054338Y-97644000D01*
X148082001Y-97644000D01*
X148066762Y-97648475D01*
X148065557Y-97649865D01*
X148063886Y-97657548D01*
X148063886Y-98979884D01*
X147555886Y-98979884D01*
X147555886Y-97662115D01*
X147551411Y-97646876D01*
X147550021Y-97645671D01*
X147542338Y-97644000D01*
X146570002Y-97644000D01*
X146554763Y-97648475D01*
X146553558Y-97649865D01*
X146551887Y-97657548D01*
X146551887Y-98534669D01*
X141748513Y-98534669D01*
X141748513Y-97362925D01*
X149596645Y-97362925D01*
X149614570Y-97559888D01*
X149616308Y-97565794D01*
X149616309Y-97565798D01*
X149640642Y-97648475D01*
X149670410Y-97749619D01*
X149673263Y-97755077D01*
X149673265Y-97755081D01*
X149698957Y-97804224D01*
X149762040Y-97924890D01*
X149885968Y-98079025D01*
X150037474Y-98206154D01*
X150042872Y-98209121D01*
X150042877Y-98209125D01*
X150186180Y-98287905D01*
X150210787Y-98301433D01*
X150216654Y-98303294D01*
X150216656Y-98303295D01*
X150393436Y-98359373D01*
X150399306Y-98361235D01*
X150553227Y-98378500D01*
X150925513Y-98378500D01*
X150993634Y-98398502D01*
X151040127Y-98452158D01*
X151051513Y-98504500D01*
X151051513Y-98538134D01*
X151058268Y-98600316D01*
X151109398Y-98736705D01*
X151196752Y-98853261D01*
X151313308Y-98940615D01*
X151449697Y-98991745D01*
X151511879Y-98998500D01*
X153108147Y-98998500D01*
X153170329Y-98991745D01*
X153306718Y-98940615D01*
X153423274Y-98853261D01*
X153510628Y-98736705D01*
X153561758Y-98600316D01*
X153568513Y-98538134D01*
X153568513Y-96241866D01*
X153561758Y-96179684D01*
X153510628Y-96043295D01*
X153423274Y-95926739D01*
X153306718Y-95839385D01*
X153170329Y-95788255D01*
X153108147Y-95781500D01*
X151511879Y-95781500D01*
X151449697Y-95788255D01*
X151313308Y-95839385D01*
X151196752Y-95926739D01*
X151109398Y-96043295D01*
X151058268Y-96179684D01*
X151051513Y-96241866D01*
X151051513Y-96242766D01*
X151028019Y-96309250D01*
X150971929Y-96352775D01*
X150925858Y-96361500D01*
X150560231Y-96361500D01*
X150557175Y-96361800D01*
X150557168Y-96361800D01*
X150498660Y-96367537D01*
X150413167Y-96375920D01*
X150407266Y-96377702D01*
X150407264Y-96377702D01*
X150333947Y-96399838D01*
X150223831Y-96433084D01*
X150049204Y-96525934D01*
X149962938Y-96596291D01*
X149900713Y-96647040D01*
X149900710Y-96647043D01*
X149895938Y-96650935D01*
X149892011Y-96655682D01*
X149892009Y-96655684D01*
X149773799Y-96798575D01*
X149773797Y-96798579D01*
X149769870Y-96803325D01*
X149675802Y-96977299D01*
X149617318Y-97166232D01*
X149596645Y-97362925D01*
X141748513Y-97362925D01*
X141748513Y-97117885D01*
X146551886Y-97117885D01*
X146556361Y-97133124D01*
X146557751Y-97134329D01*
X146565434Y-97136000D01*
X147537771Y-97136000D01*
X147553010Y-97131525D01*
X147554215Y-97130135D01*
X147555886Y-97122452D01*
X147555886Y-97117885D01*
X148063886Y-97117885D01*
X148068361Y-97133124D01*
X148069751Y-97134329D01*
X148077434Y-97136000D01*
X149049770Y-97136000D01*
X149065009Y-97131525D01*
X149066214Y-97130135D01*
X149067885Y-97122452D01*
X149067885Y-96245331D01*
X149067515Y-96238510D01*
X149061991Y-96187648D01*
X149058365Y-96172396D01*
X149013210Y-96051946D01*
X149004672Y-96036351D01*
X148928171Y-95934276D01*
X148915610Y-95921715D01*
X148813535Y-95845214D01*
X148797940Y-95836676D01*
X148677492Y-95791522D01*
X148662237Y-95787895D01*
X148611372Y-95782369D01*
X148604558Y-95782000D01*
X148082001Y-95782000D01*
X148066762Y-95786475D01*
X148065557Y-95787865D01*
X148063886Y-95795548D01*
X148063886Y-97117885D01*
X147555886Y-97117885D01*
X147555886Y-95800116D01*
X147551411Y-95784877D01*
X147550021Y-95783672D01*
X147542338Y-95782001D01*
X147015217Y-95782001D01*
X147008396Y-95782371D01*
X146957534Y-95787895D01*
X146942282Y-95791521D01*
X146821832Y-95836676D01*
X146806237Y-95845214D01*
X146704162Y-95921715D01*
X146691601Y-95934276D01*
X146615100Y-96036351D01*
X146606562Y-96051946D01*
X146561408Y-96172394D01*
X146557781Y-96187649D01*
X146552255Y-96238514D01*
X146551886Y-96245328D01*
X146551886Y-97117885D01*
X141748513Y-97117885D01*
X141748513Y-96241866D01*
X141741758Y-96179684D01*
X141690628Y-96043295D01*
X141603274Y-95926739D01*
X141486718Y-95839385D01*
X141350329Y-95788255D01*
X141288147Y-95781500D01*
X139691879Y-95781500D01*
X139629697Y-95788255D01*
X139493308Y-95839385D01*
X139376752Y-95926739D01*
X139289398Y-96043295D01*
X139238268Y-96179684D01*
X139237605Y-96185785D01*
X139202774Y-96246754D01*
X139139818Y-96279573D01*
X139069113Y-96273146D01*
X139026315Y-96245055D01*
X137913655Y-95132395D01*
X137905665Y-95123615D01*
X137905663Y-95123613D01*
X137901416Y-95116920D01*
X137883965Y-95100532D01*
X137849743Y-95068396D01*
X137846901Y-95065641D01*
X137834855Y-95053595D01*
X137800829Y-94991283D01*
X137805894Y-94920468D01*
X137848441Y-94863632D01*
X137914961Y-94838821D01*
X137923950Y-94838500D01*
X155135500Y-94838500D01*
X155203621Y-94858502D01*
X155250114Y-94912158D01*
X155261500Y-94964500D01*
X155261500Y-108235500D01*
X155241498Y-108303621D01*
X155187842Y-108350114D01*
X155135500Y-108361500D01*
X126524500Y-108361500D01*
X126456379Y-108341498D01*
X126409886Y-108287842D01*
X126398500Y-108235500D01*
X126398500Y-106794669D01*
X127232801Y-106794669D01*
X127233171Y-106801490D01*
X127238695Y-106852352D01*
X127242321Y-106867604D01*
X127287476Y-106988054D01*
X127296014Y-107003649D01*
X127372515Y-107105724D01*
X127385076Y-107118285D01*
X127487151Y-107194786D01*
X127502746Y-107203324D01*
X127623194Y-107248478D01*
X127638449Y-107252105D01*
X127689314Y-107257631D01*
X127696128Y-107258000D01*
X129218685Y-107258000D01*
X129233924Y-107253525D01*
X129235129Y-107252135D01*
X129236800Y-107244452D01*
X129236800Y-107239884D01*
X129744800Y-107239884D01*
X129749275Y-107255123D01*
X129750665Y-107256328D01*
X129758348Y-107257999D01*
X131285469Y-107257999D01*
X131292290Y-107257629D01*
X131343152Y-107252105D01*
X131358404Y-107248479D01*
X131478854Y-107203324D01*
X131494449Y-107194786D01*
X131570040Y-107138134D01*
X134731386Y-107138134D01*
X134738141Y-107200316D01*
X134789271Y-107336705D01*
X134876625Y-107453261D01*
X134993181Y-107540615D01*
X135129570Y-107591745D01*
X135191752Y-107598500D01*
X136788020Y-107598500D01*
X136850202Y-107591745D01*
X136986591Y-107540615D01*
X137103147Y-107453261D01*
X137190501Y-107336705D01*
X137241631Y-107200316D01*
X137248386Y-107138134D01*
X139231513Y-107138134D01*
X139238268Y-107200316D01*
X139289398Y-107336705D01*
X139376752Y-107453261D01*
X139493308Y-107540615D01*
X139629697Y-107591745D01*
X139691879Y-107598500D01*
X141288147Y-107598500D01*
X141350329Y-107591745D01*
X141486718Y-107540615D01*
X141603274Y-107453261D01*
X141690628Y-107336705D01*
X141741758Y-107200316D01*
X141748513Y-107138134D01*
X146551386Y-107138134D01*
X146558141Y-107200316D01*
X146609271Y-107336705D01*
X146696625Y-107453261D01*
X146813181Y-107540615D01*
X146949570Y-107591745D01*
X147011752Y-107598500D01*
X148608020Y-107598500D01*
X148670202Y-107591745D01*
X148806591Y-107540615D01*
X148923147Y-107453261D01*
X149010501Y-107336705D01*
X149061631Y-107200316D01*
X149068386Y-107138134D01*
X151051513Y-107138134D01*
X151058268Y-107200316D01*
X151109398Y-107336705D01*
X151196752Y-107453261D01*
X151313308Y-107540615D01*
X151449697Y-107591745D01*
X151511879Y-107598500D01*
X153108147Y-107598500D01*
X153170329Y-107591745D01*
X153306718Y-107540615D01*
X153423274Y-107453261D01*
X153510628Y-107336705D01*
X153561758Y-107200316D01*
X153568513Y-107138134D01*
X153568513Y-104841866D01*
X153561758Y-104779684D01*
X153510628Y-104643295D01*
X153423274Y-104526739D01*
X153306718Y-104439385D01*
X153170329Y-104388255D01*
X153108147Y-104381500D01*
X151511879Y-104381500D01*
X151449697Y-104388255D01*
X151313308Y-104439385D01*
X151196752Y-104526739D01*
X151109398Y-104643295D01*
X151058268Y-104779684D01*
X151051513Y-104841866D01*
X151051513Y-107138134D01*
X149068386Y-107138134D01*
X149068386Y-104841866D01*
X149061631Y-104779684D01*
X149010501Y-104643295D01*
X148923147Y-104526739D01*
X148806591Y-104439385D01*
X148670202Y-104388255D01*
X148608020Y-104381500D01*
X147011752Y-104381500D01*
X146949570Y-104388255D01*
X146813181Y-104439385D01*
X146696625Y-104526739D01*
X146609271Y-104643295D01*
X146558141Y-104779684D01*
X146551386Y-104841866D01*
X146551386Y-107138134D01*
X141748513Y-107138134D01*
X141748513Y-104841866D01*
X141741758Y-104779684D01*
X141690628Y-104643295D01*
X141603274Y-104526739D01*
X141486718Y-104439385D01*
X141350329Y-104388255D01*
X141288147Y-104381500D01*
X139691879Y-104381500D01*
X139629697Y-104388255D01*
X139493308Y-104439385D01*
X139376752Y-104526739D01*
X139289398Y-104643295D01*
X139238268Y-104779684D01*
X139231513Y-104841866D01*
X139231513Y-107138134D01*
X137248386Y-107138134D01*
X137248386Y-104841866D01*
X137241631Y-104779684D01*
X137190501Y-104643295D01*
X137103147Y-104526739D01*
X136986591Y-104439385D01*
X136850202Y-104388255D01*
X136788020Y-104381500D01*
X135191752Y-104381500D01*
X135129570Y-104388255D01*
X134993181Y-104439385D01*
X134876625Y-104526739D01*
X134789271Y-104643295D01*
X134738141Y-104779684D01*
X134731386Y-104841866D01*
X134731386Y-107138134D01*
X131570040Y-107138134D01*
X131596524Y-107118285D01*
X131609085Y-107105724D01*
X131685586Y-107003649D01*
X131694124Y-106988054D01*
X131739278Y-106867606D01*
X131742905Y-106852351D01*
X131748431Y-106801486D01*
X131748800Y-106794672D01*
X131748800Y-106022115D01*
X131744325Y-106006876D01*
X131742935Y-106005671D01*
X131735252Y-106004000D01*
X129762915Y-106004000D01*
X129747676Y-106008475D01*
X129746471Y-106009865D01*
X129744800Y-106017548D01*
X129744800Y-107239884D01*
X129236800Y-107239884D01*
X129236800Y-106022115D01*
X129232325Y-106006876D01*
X129230935Y-106005671D01*
X129223252Y-106004000D01*
X127250916Y-106004000D01*
X127235677Y-106008475D01*
X127234472Y-106009865D01*
X127232801Y-106017548D01*
X127232801Y-106794669D01*
X126398500Y-106794669D01*
X126398500Y-105477885D01*
X127232800Y-105477885D01*
X127237275Y-105493124D01*
X127238665Y-105494329D01*
X127246348Y-105496000D01*
X129218685Y-105496000D01*
X129233924Y-105491525D01*
X129235129Y-105490135D01*
X129236800Y-105482452D01*
X129236800Y-104260116D01*
X129232325Y-104244877D01*
X129230935Y-104243672D01*
X129223252Y-104242001D01*
X127696131Y-104242001D01*
X127689310Y-104242371D01*
X127638448Y-104247895D01*
X127623196Y-104251521D01*
X127502746Y-104296676D01*
X127487151Y-104305214D01*
X127385076Y-104381715D01*
X127372515Y-104394276D01*
X127296014Y-104496351D01*
X127287476Y-104511946D01*
X127242322Y-104632394D01*
X127238695Y-104647649D01*
X127233169Y-104698514D01*
X127232800Y-104705328D01*
X127232800Y-105477885D01*
X126398500Y-105477885D01*
X126398500Y-102666234D01*
X127232300Y-102666234D01*
X127239055Y-102728416D01*
X127290185Y-102864805D01*
X127377539Y-102981361D01*
X127494095Y-103068715D01*
X127630484Y-103119845D01*
X127692666Y-103126600D01*
X129658175Y-103126600D01*
X129726296Y-103146602D01*
X129747265Y-103163500D01*
X130610673Y-104026907D01*
X130644696Y-104089217D01*
X130639632Y-104160032D01*
X130597085Y-104216868D01*
X130530565Y-104241679D01*
X130521576Y-104242000D01*
X129762915Y-104242000D01*
X129747676Y-104246475D01*
X129746471Y-104247865D01*
X129744800Y-104255548D01*
X129744800Y-105477885D01*
X129749275Y-105493124D01*
X129750665Y-105494329D01*
X129758348Y-105496000D01*
X131730684Y-105496000D01*
X131745923Y-105491525D01*
X131747128Y-105490135D01*
X131748799Y-105482452D01*
X131748799Y-105221418D01*
X131768801Y-105153297D01*
X131822457Y-105106804D01*
X131892731Y-105096700D01*
X131911635Y-105100923D01*
X131913799Y-105101585D01*
X131913804Y-105101586D01*
X131919698Y-105103388D01*
X131938926Y-105105341D01*
X132110335Y-105122752D01*
X132110339Y-105122752D01*
X132116463Y-105123374D01*
X132313362Y-105104762D01*
X132319257Y-105103005D01*
X132319260Y-105103004D01*
X132496992Y-105050019D01*
X132496991Y-105050019D01*
X132502896Y-105048259D01*
X132677847Y-104956018D01*
X132823008Y-104838469D01*
X132826758Y-104835432D01*
X132826759Y-104835431D01*
X132831548Y-104831553D01*
X132942392Y-104698514D01*
X132954206Y-104684335D01*
X132954209Y-104684330D01*
X132958147Y-104679604D01*
X133052822Y-104505959D01*
X133091709Y-104381869D01*
X133110122Y-104323114D01*
X133110123Y-104323111D01*
X133111965Y-104317232D01*
X133119104Y-104251521D01*
X133132659Y-104126737D01*
X133132659Y-104126733D01*
X133133324Y-104120612D01*
X133116087Y-103923587D01*
X133114368Y-103917670D01*
X133114367Y-103917665D01*
X133062627Y-103739578D01*
X133060909Y-103733664D01*
X132969892Y-103558074D01*
X132873262Y-103437028D01*
X131786205Y-102349971D01*
X131752179Y-102287659D01*
X131749300Y-102260876D01*
X131749300Y-100569966D01*
X131742545Y-100507784D01*
X131691415Y-100371395D01*
X131604061Y-100254839D01*
X131487505Y-100167485D01*
X131351116Y-100116355D01*
X131288934Y-100109600D01*
X127692666Y-100109600D01*
X127630484Y-100116355D01*
X127494095Y-100167485D01*
X127377539Y-100254839D01*
X127290185Y-100371395D01*
X127239055Y-100507784D01*
X127232300Y-100569966D01*
X127232300Y-102666234D01*
X126398500Y-102666234D01*
X126398500Y-94964500D01*
X126418502Y-94896379D01*
X126472158Y-94849886D01*
X126524500Y-94838500D01*
X130897638Y-94838500D01*
X130965759Y-94858502D01*
G37*
%TD.AperFunction*%
%TD*%
M02*
