%TF.GenerationSoftware,KiCad,Pcbnew,(6.0.0-0)*%
%TF.CreationDate,2022-03-09T17:47:02+01:00*%
%TF.ProjectId,GlowCore,476c6f77-436f-4726-952e-6b696361645f,rev?*%
%TF.SameCoordinates,Original*%
%TF.FileFunction,Soldermask,Top*%
%TF.FilePolarity,Negative*%
%FSLAX46Y46*%
G04 Gerber Fmt 4.6, Leading zero omitted, Abs format (unit mm)*
G04 Created by KiCad (PCBNEW (6.0.0-0)) date 2022-03-09 17:47:02*
%MOMM*%
%LPD*%
G01*
G04 APERTURE LIST*
G04 Aperture macros list*
%AMRoundRect*
0 Rectangle with rounded corners*
0 $1 Rounding radius*
0 $2 $3 $4 $5 $6 $7 $8 $9 X,Y pos of 4 corners*
0 Add a 4 corners polygon primitive as box body*
4,1,4,$2,$3,$4,$5,$6,$7,$8,$9,$2,$3,0*
0 Add four circle primitives for the rounded corners*
1,1,$1+$1,$2,$3*
1,1,$1+$1,$4,$5*
1,1,$1+$1,$6,$7*
1,1,$1+$1,$8,$9*
0 Add four rect primitives between the rounded corners*
20,1,$1+$1,$2,$3,$4,$5,0*
20,1,$1+$1,$4,$5,$6,$7,0*
20,1,$1+$1,$6,$7,$8,$9,0*
20,1,$1+$1,$8,$9,$2,$3,0*%
G04 Aperture macros list end*
%ADD10C,0.500000*%
%ADD11RoundRect,0.150000X-0.150000X0.587500X-0.150000X-0.587500X0.150000X-0.587500X0.150000X0.587500X0*%
%ADD12R,2.500000X1.800000*%
%ADD13RoundRect,0.237500X-0.237500X0.250000X-0.237500X-0.250000X0.237500X-0.250000X0.237500X0.250000X0*%
%ADD14RoundRect,0.237500X0.237500X-0.250000X0.237500X0.250000X-0.237500X0.250000X-0.237500X-0.250000X0*%
%ADD15R,2.200000X2.200000*%
%ADD16C,2.200000*%
%ADD17R,0.900000X1.500000*%
%ADD18RoundRect,0.237500X0.300000X0.237500X-0.300000X0.237500X-0.300000X-0.237500X0.300000X-0.237500X0*%
%ADD19RoundRect,0.237500X0.237500X-0.300000X0.237500X0.300000X-0.237500X0.300000X-0.237500X-0.300000X0*%
%ADD20RoundRect,0.237500X-0.237500X0.300000X-0.237500X-0.300000X0.237500X-0.300000X0.237500X0.300000X0*%
%ADD21R,2.000000X1.500000*%
%ADD22R,2.000000X3.800000*%
%ADD23RoundRect,0.150000X0.587500X0.150000X-0.587500X0.150000X-0.587500X-0.150000X0.587500X-0.150000X0*%
%ADD24RoundRect,0.250000X1.500000X0.550000X-1.500000X0.550000X-1.500000X-0.550000X1.500000X-0.550000X0*%
%ADD25C,0.500000*%
%ADD26R,0.600000X0.400000*%
%ADD27RoundRect,0.237500X-0.250000X-0.237500X0.250000X-0.237500X0.250000X0.237500X-0.250000X0.237500X0*%
%ADD28C,0.700000*%
%ADD29R,0.600000X1.300000*%
%ADD30R,0.300000X1.300000*%
%ADD31O,1.200000X1.800000*%
%ADD32O,1.200000X2.200000*%
%ADD33RoundRect,0.237500X-0.287500X-0.237500X0.287500X-0.237500X0.287500X0.237500X-0.287500X0.237500X0*%
%ADD34R,0.600000X1.200000*%
%ADD35R,3.499873X2.500000*%
%ADD36R,1.400000X2.400000*%
%ADD37C,1.800000*%
%ADD38O,1.600000X3.000000*%
%ADD39O,3.200000X1.600000*%
%ADD40C,2.300000*%
%ADD41RoundRect,0.237500X0.250000X0.237500X-0.250000X0.237500X-0.250000X-0.237500X0.250000X-0.237500X0*%
%ADD42RoundRect,0.150000X0.150000X-0.587500X0.150000X0.587500X-0.150000X0.587500X-0.150000X-0.587500X0*%
%ADD43RoundRect,0.237500X-0.300000X-0.237500X0.300000X-0.237500X0.300000X0.237500X-0.300000X0.237500X0*%
%ADD44RoundRect,0.237500X0.287500X0.237500X-0.287500X0.237500X-0.287500X-0.237500X0.287500X-0.237500X0*%
%ADD45C,2.100000*%
%ADD46R,1.600000X1.600000*%
%ADD47C,1.600000*%
%ADD48R,1.800000X0.700000*%
%ADD49R,0.250000X0.900000*%
%ADD50R,0.900000X0.250000*%
%ADD51R,3.250000X3.250000*%
%ADD52R,1.200000X0.600000*%
%ADD53R,2.500000X3.499873*%
%ADD54R,1.676400X0.355600*%
%ADD55R,1.000000X0.550013*%
%ADD56R,0.900000X2.000000*%
%ADD57R,2.000000X0.900000*%
%ADD58R,1.330000X1.330000*%
%ADD59C,0.300000*%
%ADD60R,0.532004X1.072009*%
%ADD61R,3.000000X2.100000*%
%ADD62R,1.600000X0.800000*%
%ADD63R,1.700000X1.700000*%
%ADD64O,1.700000X1.700000*%
G04 APERTURE END LIST*
D10*
%TO.C,MK1*%
X108493000Y-78587600D02*
G75*
G03*
X108493000Y-78587600I-670000J0D01*
G01*
%TD*%
D11*
%TO.C,Q6*%
X130185200Y-90375500D03*
X128285200Y-90375500D03*
X129235200Y-92250500D03*
%TD*%
D12*
%TO.C,D1*%
X109830900Y-98882200D03*
X113830900Y-98882200D03*
%TD*%
D13*
%TO.C,R17*%
X104927400Y-76608300D03*
X104927400Y-78433300D03*
%TD*%
D14*
%TO.C,R7*%
X121869200Y-55954300D03*
X121869200Y-54129300D03*
%TD*%
D15*
%TO.C,P1*%
X104338608Y-55487450D03*
D16*
X100528600Y-55487450D03*
X96718592Y-55487450D03*
%TD*%
D17*
%TO.C,SW2*%
X100013200Y-108056600D03*
X100013200Y-111856600D03*
X98513200Y-111856600D03*
X98513200Y-108056600D03*
%TD*%
D18*
%TO.C,C21*%
X125449500Y-73964800D03*
X123724500Y-73964800D03*
%TD*%
%TO.C,C19*%
X107950000Y-80735600D03*
X106225000Y-80735600D03*
%TD*%
D19*
%TO.C,C12*%
X121526300Y-101446500D03*
X121526300Y-99721500D03*
%TD*%
D20*
%TO.C,C13*%
X125699394Y-76673242D03*
X125699394Y-78398242D03*
%TD*%
D21*
%TO.C,U6*%
X108179000Y-89371200D03*
X108179000Y-87071200D03*
X108179000Y-84771200D03*
D22*
X101879000Y-87071200D03*
%TD*%
D19*
%TO.C,C2*%
X146329400Y-95248900D03*
X146329400Y-93523900D03*
%TD*%
D23*
%TO.C,Q3*%
X103070900Y-75600600D03*
X103070900Y-73700600D03*
X101195900Y-74650600D03*
%TD*%
D15*
%TO.C,P2*%
X118572608Y-55487450D03*
D16*
X114762600Y-55487450D03*
X110952592Y-55487450D03*
%TD*%
D15*
%TO.C,P4*%
X147040608Y-55487450D03*
D16*
X143230600Y-55487450D03*
X139420592Y-55487450D03*
%TD*%
D23*
%TO.C,Q4*%
X146885900Y-112659200D03*
X146885900Y-110759200D03*
X145010900Y-111709200D03*
%TD*%
D14*
%TO.C,R8*%
X150037800Y-56284500D03*
X150037800Y-54459500D03*
%TD*%
D15*
%TO.C,P3*%
X132806608Y-55487450D03*
D16*
X128996600Y-55487450D03*
X125186592Y-55487450D03*
%TD*%
D24*
%TO.C,C7*%
X117684200Y-61061600D03*
X112084200Y-61061600D03*
%TD*%
D25*
%TO.C,MK1*%
X107823000Y-78587600D03*
D26*
X106748000Y-76012600D03*
X106748000Y-76662600D03*
X106748000Y-77312600D03*
X108898000Y-77312600D03*
X108898000Y-76662600D03*
X108898000Y-76012600D03*
%TD*%
D11*
%TO.C,Q7*%
X137127866Y-90375500D03*
X135227866Y-90375500D03*
X136177866Y-92250500D03*
%TD*%
D17*
%TO.C,SW3*%
X94748300Y-108061200D03*
X94748300Y-111861200D03*
X93248300Y-108061200D03*
X93248300Y-111861200D03*
%TD*%
D27*
%TO.C,R19*%
X137619100Y-67614800D03*
X139444100Y-67614800D03*
%TD*%
D28*
%TO.C,USB1*%
X123844800Y-108062100D03*
X118064800Y-108062100D03*
D29*
X117754800Y-106822100D03*
X118554800Y-106822100D03*
D30*
X119704800Y-106822100D03*
X120704800Y-106822100D03*
X121204800Y-106822100D03*
X122204800Y-106822100D03*
D29*
X124154800Y-106822100D03*
X123354800Y-106822100D03*
D30*
X122704800Y-106822100D03*
X121704800Y-106822100D03*
X120204800Y-106822100D03*
X119204800Y-106822100D03*
D31*
X116634800Y-111742100D03*
X125274800Y-111742100D03*
D32*
X125274800Y-107562100D03*
X116634800Y-107562100D03*
%TD*%
D14*
%TO.C,R6*%
X107670600Y-56057800D03*
X107670600Y-54232800D03*
%TD*%
D33*
%TO.C,D3*%
X144540000Y-90220800D03*
X146290000Y-90220800D03*
%TD*%
D34*
%TO.C,U4*%
X120263790Y-82069648D03*
X121533793Y-82069648D03*
X122803795Y-82069648D03*
X124073798Y-82069648D03*
X124073798Y-76253036D03*
X122803795Y-76253036D03*
X121533793Y-76253036D03*
X120263790Y-76253036D03*
D35*
X122168794Y-79161342D03*
%TD*%
D11*
%TO.C,Q8*%
X133656533Y-90375500D03*
X131756533Y-90375500D03*
X132706533Y-92250500D03*
%TD*%
D18*
%TO.C,C17*%
X104850100Y-82702400D03*
X103125100Y-82702400D03*
%TD*%
D19*
%TO.C,C20*%
X121843800Y-87198200D03*
X121843800Y-85473200D03*
%TD*%
D36*
%TO.C,L1*%
X139191800Y-98856800D03*
X135991800Y-98856800D03*
%TD*%
D37*
%TO.C,J1*%
X106798800Y-112137100D03*
D38*
X111648800Y-104687100D03*
X101948800Y-104687100D03*
X111648800Y-109387100D03*
X101948800Y-109387100D03*
D39*
X106798800Y-108887100D03*
D40*
X106798800Y-101187100D03*
%TD*%
D41*
%TO.C,R18*%
X99159700Y-78994000D03*
X97334700Y-78994000D03*
%TD*%
%TO.C,R16*%
X108711200Y-74639600D03*
X106886200Y-74639600D03*
%TD*%
D27*
%TO.C,R20*%
X98096700Y-103835200D03*
X99921700Y-103835200D03*
%TD*%
%TO.C,R22*%
X120095000Y-73964800D03*
X121920000Y-73964800D03*
%TD*%
D42*
%TO.C,Q5*%
X99253000Y-83157300D03*
X101153000Y-83157300D03*
X100203000Y-81282300D03*
%TD*%
D24*
%TO.C,C9*%
X103231600Y-61112400D03*
X97631600Y-61112400D03*
%TD*%
D33*
%TO.C,D2*%
X144551400Y-91871800D03*
X146301400Y-91871800D03*
%TD*%
D14*
%TO.C,R4*%
X142849600Y-91971500D03*
X142849600Y-90146500D03*
%TD*%
%TO.C,R5*%
X126517400Y-101496500D03*
X126517400Y-99671500D03*
%TD*%
D23*
%TO.C,Q1*%
X147012900Y-102880200D03*
X147012900Y-100980200D03*
X145137900Y-101930200D03*
%TD*%
D14*
%TO.C,R3*%
X144475200Y-95298900D03*
X144475200Y-93473900D03*
%TD*%
D43*
%TO.C,C16*%
X106935100Y-82702400D03*
X108660100Y-82702400D03*
%TD*%
D20*
%TO.C,C3*%
X142348100Y-98527700D03*
X142348100Y-100252700D03*
%TD*%
D44*
%TO.C,D5*%
X142886400Y-67614800D03*
X141136400Y-67614800D03*
%TD*%
D20*
%TO.C,C15*%
X123342400Y-85473200D03*
X123342400Y-87198200D03*
%TD*%
D45*
%TO.C,RJ1*%
X130450800Y-108638049D03*
X142439600Y-108638049D03*
D46*
X138995251Y-103790120D03*
D47*
X137975185Y-106330125D03*
X136955119Y-103790120D03*
X135935307Y-106330125D03*
X134915241Y-103790120D03*
X133895175Y-106330125D03*
%TD*%
D48*
%TO.C,SW1*%
X147063936Y-109332451D03*
X147063936Y-106832324D03*
X147063936Y-104332451D03*
X153164064Y-109332451D03*
X153164064Y-106832324D03*
X153164064Y-104332451D03*
%TD*%
D13*
%TO.C,R9*%
X136067800Y-54182000D03*
X136067800Y-56007000D03*
%TD*%
D11*
%TO.C,Q9*%
X140599200Y-90375500D03*
X138699200Y-90375500D03*
X139649200Y-92250500D03*
%TD*%
D49*
%TO.C,U5*%
X123411100Y-89213987D03*
X122911100Y-89213987D03*
X122411100Y-89213987D03*
X121911100Y-89213987D03*
X121411101Y-89213987D03*
X120911101Y-89213987D03*
X120411101Y-89213987D03*
D50*
X119511087Y-90114001D03*
X119511087Y-90614001D03*
X119511087Y-91114001D03*
X119511087Y-91614001D03*
X119511087Y-92114000D03*
X119511087Y-92614000D03*
X119511087Y-93114000D03*
D49*
X120411101Y-94014014D03*
X120911101Y-94014014D03*
X121411101Y-94014014D03*
X121911100Y-94014014D03*
X122411100Y-94014014D03*
X122911100Y-94014014D03*
X123411100Y-94014014D03*
D50*
X124311114Y-93114000D03*
X124311114Y-92614000D03*
X124311114Y-92114000D03*
X124311114Y-91614001D03*
X124311114Y-91114001D03*
X124311114Y-90614001D03*
X124311114Y-90114001D03*
D51*
X121911101Y-91614000D03*
%TD*%
D24*
%TO.C,C6*%
X146716400Y-60909200D03*
X141116400Y-60909200D03*
%TD*%
D27*
%TO.C,R21*%
X121542201Y-68499692D03*
X123367201Y-68499692D03*
%TD*%
D14*
%TO.C,R10*%
X126492000Y-97965900D03*
X126492000Y-96140900D03*
%TD*%
D52*
%TO.C,U1*%
X133921506Y-100914204D03*
X133921506Y-99644201D03*
X133921506Y-98374199D03*
X133921506Y-97104196D03*
X128104894Y-97104196D03*
X128104894Y-98374199D03*
X128104894Y-99644201D03*
X128104894Y-100914204D03*
D53*
X131013200Y-99009200D03*
%TD*%
D24*
%TO.C,C8*%
X132263800Y-61137800D03*
X126663800Y-61137800D03*
%TD*%
D54*
%TO.C,U3*%
X107035600Y-69945801D03*
X107035600Y-69295800D03*
X107035600Y-68645799D03*
X107035600Y-67995800D03*
X107035600Y-67345801D03*
X107035600Y-66695800D03*
X107035600Y-66045801D03*
X101396800Y-66045799D03*
X101396800Y-66695800D03*
X101396800Y-67345799D03*
X101396800Y-67995800D03*
X101396800Y-68645799D03*
X101396800Y-69295800D03*
X101396800Y-69945799D03*
%TD*%
D19*
%TO.C,C10*%
X124853700Y-101446500D03*
X124853700Y-99721500D03*
%TD*%
D20*
%TO.C,C1*%
X140849500Y-98526600D03*
X140849500Y-100251600D03*
%TD*%
D55*
%TO.C,U9*%
X123904251Y-72235316D03*
X123904251Y-71285354D03*
X123904251Y-70335392D03*
X121104149Y-70335392D03*
X121104149Y-71285354D03*
X121104149Y-72235316D03*
%TD*%
D19*
%TO.C,C11*%
X123190000Y-101446500D03*
X123190000Y-99721500D03*
%TD*%
D43*
%TO.C,C5*%
X144780000Y-67614800D03*
X146505000Y-67614800D03*
%TD*%
D23*
%TO.C,Q2*%
X103070900Y-79080400D03*
X103070900Y-77180400D03*
X101195900Y-78130400D03*
%TD*%
D18*
%TO.C,C18*%
X99922500Y-105587800D03*
X98197500Y-105587800D03*
%TD*%
D56*
%TO.C,U2*%
X146653250Y-70256800D03*
X145383250Y-70256800D03*
X144113250Y-70256800D03*
X142843250Y-70256800D03*
X141573250Y-70256800D03*
X140303250Y-70256800D03*
X139033250Y-70256800D03*
X137763250Y-70256800D03*
X136493250Y-70256800D03*
X135223250Y-70256800D03*
X133953250Y-70256800D03*
X132683250Y-70256800D03*
X131413250Y-70256800D03*
X130143250Y-70256800D03*
D57*
X129143250Y-73041800D03*
X129143250Y-74311800D03*
X129143250Y-75581800D03*
X129143250Y-76851800D03*
X129143250Y-78121800D03*
X129143250Y-79391800D03*
X129143250Y-80661800D03*
X129143250Y-81931800D03*
X129143250Y-83201800D03*
X129143250Y-84471800D03*
D56*
X130143250Y-87256800D03*
X131413250Y-87256800D03*
X132683250Y-87256800D03*
X133953250Y-87256800D03*
X135223250Y-87256800D03*
X136493250Y-87256800D03*
X137763250Y-87256800D03*
X139033250Y-87256800D03*
X140303250Y-87256800D03*
X141573250Y-87256800D03*
X142843250Y-87256800D03*
X144113250Y-87256800D03*
X145383250Y-87256800D03*
X146653250Y-87256800D03*
D58*
X140988250Y-75921800D03*
X140988250Y-77756800D03*
X140988250Y-79591800D03*
X139153250Y-75921800D03*
X139153250Y-77756800D03*
X139153250Y-79591800D03*
X137318250Y-75921800D03*
X137318250Y-77756800D03*
X137318250Y-79591800D03*
D59*
X140988250Y-76839300D03*
X140988250Y-78674300D03*
X140070750Y-75921800D03*
X140070750Y-77756800D03*
X140070750Y-79591800D03*
X139153250Y-76839300D03*
X139153250Y-78674300D03*
X138235750Y-75921800D03*
X138235750Y-77756800D03*
X138235750Y-79591800D03*
X137318250Y-76839300D03*
X137318250Y-78674300D03*
%TD*%
D18*
%TO.C,C4*%
X102792700Y-71678800D03*
X101067700Y-71678800D03*
%TD*%
D27*
%TO.C,R14*%
X121307094Y-83631742D03*
X123132094Y-83631742D03*
%TD*%
D14*
%TO.C,R1*%
X128625600Y-112393100D03*
X128625600Y-110568100D03*
%TD*%
D19*
%TO.C,C14*%
X119862600Y-101446500D03*
X119862600Y-99721500D03*
%TD*%
D60*
%TO.C,U10*%
X121325638Y-66909698D03*
X122275600Y-66909698D03*
X123225562Y-66909698D03*
X123225562Y-64611502D03*
X122275600Y-64611502D03*
X121325638Y-64611502D03*
%TD*%
D14*
%TO.C,R11*%
X147929600Y-95705300D03*
X147929600Y-93880300D03*
%TD*%
D24*
%TO.C,C22*%
X107346400Y-94437200D03*
X101746400Y-94437200D03*
%TD*%
D14*
%TO.C,R2*%
X126974600Y-112395000D03*
X126974600Y-110570000D03*
%TD*%
D61*
%TO.C,U7*%
X152520209Y-94513394D03*
X152520209Y-100863406D03*
D62*
X149620285Y-98313495D03*
X149620285Y-97063305D03*
%TD*%
D63*
%TO.C,JP2*%
X91846400Y-67081400D03*
D64*
X91846400Y-69621400D03*
X91846400Y-72161400D03*
X91846400Y-74701400D03*
X91846400Y-77241400D03*
X91846400Y-79781400D03*
X91846400Y-82321400D03*
X91846400Y-84861400D03*
X91846400Y-87401400D03*
X91846400Y-89941400D03*
X91846400Y-92481400D03*
X91846400Y-95021400D03*
X91846400Y-97561400D03*
X91846400Y-100101400D03*
X91846400Y-102641400D03*
X91846400Y-105181400D03*
%TD*%
D63*
%TO.C,JP1*%
X112166400Y-95021400D03*
D64*
X112166400Y-92481400D03*
X112166400Y-89941400D03*
X112166400Y-87401400D03*
X112166400Y-84861400D03*
X112166400Y-82321400D03*
X112166400Y-79781400D03*
X112166400Y-77241400D03*
X112166400Y-74701400D03*
X112166400Y-72161400D03*
X112166400Y-69621400D03*
X112166400Y-67081400D03*
%TD*%
M02*
