%TF.GenerationSoftware,KiCad,Pcbnew,(6.0.0-0)*%
%TF.CreationDate,2022-02-03T17:18:56+01:00*%
%TF.ProjectId,GlowCore,476c6f77-436f-4726-952e-6b696361645f,rev?*%
%TF.SameCoordinates,Original*%
%TF.FileFunction,Legend,Top*%
%TF.FilePolarity,Positive*%
%FSLAX46Y46*%
G04 Gerber Fmt 4.6, Leading zero omitted, Abs format (unit mm)*
G04 Created by KiCad (PCBNEW (6.0.0-0)) date 2022-02-03 17:18:56*
%MOMM*%
%LPD*%
G01*
G04 APERTURE LIST*
%ADD10C,0.150000*%
%ADD11C,0.120000*%
%ADD12C,0.059995*%
%ADD13C,0.200000*%
%ADD14C,0.254001*%
%ADD15C,0.250000*%
%ADD16C,0.127000*%
%ADD17C,0.100000*%
G04 APERTURE END LIST*
D10*
%TO.C,D1*%
X139956980Y-116317895D02*
X138956980Y-116317895D01*
X138956980Y-116079800D01*
X139004600Y-115936942D01*
X139099838Y-115841704D01*
X139195076Y-115794085D01*
X139385552Y-115746466D01*
X139528409Y-115746466D01*
X139718885Y-115794085D01*
X139814123Y-115841704D01*
X139909361Y-115936942D01*
X139956980Y-116079800D01*
X139956980Y-116317895D01*
X139956980Y-114794085D02*
X139956980Y-115365514D01*
X139956980Y-115079800D02*
X138956980Y-115079800D01*
X139099838Y-115175038D01*
X139195076Y-115270276D01*
X139242695Y-115365514D01*
%TO.C,R17*%
X129088242Y-125573980D02*
X128754909Y-125097790D01*
X128516814Y-125573980D02*
X128516814Y-124573980D01*
X128897766Y-124573980D01*
X128993004Y-124621600D01*
X129040623Y-124669219D01*
X129088242Y-124764457D01*
X129088242Y-124907314D01*
X129040623Y-125002552D01*
X128993004Y-125050171D01*
X128897766Y-125097790D01*
X128516814Y-125097790D01*
X130040623Y-125573980D02*
X129469195Y-125573980D01*
X129754909Y-125573980D02*
X129754909Y-124573980D01*
X129659671Y-124716838D01*
X129564433Y-124812076D01*
X129469195Y-124859695D01*
X130373957Y-124573980D02*
X131040623Y-124573980D01*
X130612052Y-125573980D01*
%TO.C,R7*%
X130152966Y-80828104D02*
X129886300Y-80447152D01*
X129695823Y-80828104D02*
X129695823Y-80028104D01*
X130000585Y-80028104D01*
X130076776Y-80066200D01*
X130114871Y-80104295D01*
X130152966Y-80180485D01*
X130152966Y-80294771D01*
X130114871Y-80370961D01*
X130076776Y-80409057D01*
X130000585Y-80447152D01*
X129695823Y-80447152D01*
X130419633Y-80028104D02*
X130952966Y-80028104D01*
X130610109Y-80828104D01*
%TO.C,P1*%
X118446504Y-75595380D02*
X118446504Y-74595380D01*
X118827457Y-74595380D01*
X118922695Y-74643000D01*
X118970314Y-74690619D01*
X119017933Y-74785857D01*
X119017933Y-74928714D01*
X118970314Y-75023952D01*
X118922695Y-75071571D01*
X118827457Y-75119190D01*
X118446504Y-75119190D01*
X119970314Y-75595380D02*
X119398885Y-75595380D01*
X119684600Y-75595380D02*
X119684600Y-74595380D01*
X119589361Y-74738238D01*
X119494123Y-74833476D01*
X119398885Y-74881095D01*
%TO.C,SW2*%
X114066666Y-125407961D02*
X114209523Y-125455580D01*
X114447619Y-125455580D01*
X114542857Y-125407961D01*
X114590476Y-125360342D01*
X114638095Y-125265104D01*
X114638095Y-125169866D01*
X114590476Y-125074628D01*
X114542857Y-125027009D01*
X114447619Y-124979390D01*
X114257142Y-124931771D01*
X114161904Y-124884152D01*
X114114285Y-124836533D01*
X114066666Y-124741295D01*
X114066666Y-124646057D01*
X114114285Y-124550819D01*
X114161904Y-124503200D01*
X114257142Y-124455580D01*
X114495238Y-124455580D01*
X114638095Y-124503200D01*
X114971428Y-124455580D02*
X115209523Y-125455580D01*
X115400000Y-124741295D01*
X115590476Y-125455580D01*
X115828571Y-124455580D01*
X116161904Y-124550819D02*
X116209523Y-124503200D01*
X116304761Y-124455580D01*
X116542857Y-124455580D01*
X116638095Y-124503200D01*
X116685714Y-124550819D01*
X116733333Y-124646057D01*
X116733333Y-124741295D01*
X116685714Y-124884152D01*
X116114285Y-125455580D01*
X116733333Y-125455580D01*
%TO.C,C19*%
X119456142Y-99912042D02*
X119408523Y-99959661D01*
X119265666Y-100007280D01*
X119170428Y-100007280D01*
X119027571Y-99959661D01*
X118932333Y-99864423D01*
X118884714Y-99769185D01*
X118837095Y-99578709D01*
X118837095Y-99435852D01*
X118884714Y-99245376D01*
X118932333Y-99150138D01*
X119027571Y-99054900D01*
X119170428Y-99007280D01*
X119265666Y-99007280D01*
X119408523Y-99054900D01*
X119456142Y-99102519D01*
X120408523Y-100007280D02*
X119837095Y-100007280D01*
X120122809Y-100007280D02*
X120122809Y-99007280D01*
X120027571Y-99150138D01*
X119932333Y-99245376D01*
X119837095Y-99292995D01*
X120884714Y-100007280D02*
X121075190Y-100007280D01*
X121170428Y-99959661D01*
X121218047Y-99912042D01*
X121313285Y-99769185D01*
X121360904Y-99578709D01*
X121360904Y-99197757D01*
X121313285Y-99102519D01*
X121265666Y-99054900D01*
X121170428Y-99007280D01*
X120979952Y-99007280D01*
X120884714Y-99054900D01*
X120837095Y-99102519D01*
X120789476Y-99197757D01*
X120789476Y-99435852D01*
X120837095Y-99531090D01*
X120884714Y-99578709D01*
X120979952Y-99626328D01*
X121170428Y-99626328D01*
X121265666Y-99578709D01*
X121313285Y-99531090D01*
X121360904Y-99435852D01*
%TO.C,C12*%
X117449542Y-113714442D02*
X117401923Y-113762061D01*
X117259066Y-113809680D01*
X117163828Y-113809680D01*
X117020971Y-113762061D01*
X116925733Y-113666823D01*
X116878114Y-113571585D01*
X116830495Y-113381109D01*
X116830495Y-113238252D01*
X116878114Y-113047776D01*
X116925733Y-112952538D01*
X117020971Y-112857300D01*
X117163828Y-112809680D01*
X117259066Y-112809680D01*
X117401923Y-112857300D01*
X117449542Y-112904919D01*
X118401923Y-113809680D02*
X117830495Y-113809680D01*
X118116209Y-113809680D02*
X118116209Y-112809680D01*
X118020971Y-112952538D01*
X117925733Y-113047776D01*
X117830495Y-113095395D01*
X118782876Y-112904919D02*
X118830495Y-112857300D01*
X118925733Y-112809680D01*
X119163828Y-112809680D01*
X119259066Y-112857300D01*
X119306685Y-112904919D01*
X119354304Y-113000157D01*
X119354304Y-113095395D01*
X119306685Y-113238252D01*
X118735257Y-113809680D01*
X119354304Y-113809680D01*
%TO.C,C13*%
X149529742Y-117638742D02*
X149482123Y-117686361D01*
X149339266Y-117733980D01*
X149244028Y-117733980D01*
X149101171Y-117686361D01*
X149005933Y-117591123D01*
X148958314Y-117495885D01*
X148910695Y-117305409D01*
X148910695Y-117162552D01*
X148958314Y-116972076D01*
X149005933Y-116876838D01*
X149101171Y-116781600D01*
X149244028Y-116733980D01*
X149339266Y-116733980D01*
X149482123Y-116781600D01*
X149529742Y-116829219D01*
X150482123Y-117733980D02*
X149910695Y-117733980D01*
X150196409Y-117733980D02*
X150196409Y-116733980D01*
X150101171Y-116876838D01*
X150005933Y-116972076D01*
X149910695Y-117019695D01*
X150815457Y-116733980D02*
X151434504Y-116733980D01*
X151101171Y-117114933D01*
X151244028Y-117114933D01*
X151339266Y-117162552D01*
X151386885Y-117210171D01*
X151434504Y-117305409D01*
X151434504Y-117543504D01*
X151386885Y-117638742D01*
X151339266Y-117686361D01*
X151244028Y-117733980D01*
X150958314Y-117733980D01*
X150863076Y-117686361D01*
X150815457Y-117638742D01*
%TO.C,U6*%
X132784780Y-111464904D02*
X133594304Y-111464904D01*
X133689542Y-111417285D01*
X133737161Y-111369666D01*
X133784780Y-111274428D01*
X133784780Y-111083952D01*
X133737161Y-110988714D01*
X133689542Y-110941095D01*
X133594304Y-110893476D01*
X132784780Y-110893476D01*
X132784780Y-109988714D02*
X132784780Y-110179190D01*
X132832400Y-110274428D01*
X132880019Y-110322047D01*
X133022876Y-110417285D01*
X133213352Y-110464904D01*
X133594304Y-110464904D01*
X133689542Y-110417285D01*
X133737161Y-110369666D01*
X133784780Y-110274428D01*
X133784780Y-110083952D01*
X133737161Y-109988714D01*
X133689542Y-109941095D01*
X133594304Y-109893476D01*
X133356209Y-109893476D01*
X133260971Y-109941095D01*
X133213352Y-109988714D01*
X133165733Y-110083952D01*
X133165733Y-110274428D01*
X133213352Y-110369666D01*
X133260971Y-110417285D01*
X133356209Y-110464904D01*
%TO.C,C2*%
X159226133Y-118400742D02*
X159178514Y-118448361D01*
X159035657Y-118495980D01*
X158940419Y-118495980D01*
X158797561Y-118448361D01*
X158702323Y-118353123D01*
X158654704Y-118257885D01*
X158607085Y-118067409D01*
X158607085Y-117924552D01*
X158654704Y-117734076D01*
X158702323Y-117638838D01*
X158797561Y-117543600D01*
X158940419Y-117495980D01*
X159035657Y-117495980D01*
X159178514Y-117543600D01*
X159226133Y-117591219D01*
X159607085Y-117591219D02*
X159654704Y-117543600D01*
X159749942Y-117495980D01*
X159988038Y-117495980D01*
X160083276Y-117543600D01*
X160130895Y-117591219D01*
X160178514Y-117686457D01*
X160178514Y-117781695D01*
X160130895Y-117924552D01*
X159559466Y-118495980D01*
X160178514Y-118495980D01*
%TO.C,Q3*%
X132584161Y-118930619D02*
X132488923Y-118883000D01*
X132393685Y-118787761D01*
X132250828Y-118644904D01*
X132155590Y-118597285D01*
X132060352Y-118597285D01*
X132107971Y-118835380D02*
X132012733Y-118787761D01*
X131917495Y-118692523D01*
X131869876Y-118502047D01*
X131869876Y-118168714D01*
X131917495Y-117978238D01*
X132012733Y-117883000D01*
X132107971Y-117835380D01*
X132298447Y-117835380D01*
X132393685Y-117883000D01*
X132488923Y-117978238D01*
X132536542Y-118168714D01*
X132536542Y-118502047D01*
X132488923Y-118692523D01*
X132393685Y-118787761D01*
X132298447Y-118835380D01*
X132107971Y-118835380D01*
X132869876Y-117835380D02*
X133488923Y-117835380D01*
X133155590Y-118216333D01*
X133298447Y-118216333D01*
X133393685Y-118263952D01*
X133441304Y-118311571D01*
X133488923Y-118406809D01*
X133488923Y-118644904D01*
X133441304Y-118740142D01*
X133393685Y-118787761D01*
X133298447Y-118835380D01*
X133012733Y-118835380D01*
X132917495Y-118787761D01*
X132869876Y-118740142D01*
%TO.C,P2*%
X132878302Y-75514583D02*
X132878302Y-74514583D01*
X133259255Y-74514583D01*
X133354493Y-74562203D01*
X133402112Y-74609822D01*
X133449731Y-74705060D01*
X133449731Y-74847917D01*
X133402112Y-74943155D01*
X133354493Y-74990774D01*
X133259255Y-75038393D01*
X132878302Y-75038393D01*
X133830683Y-74609822D02*
X133878302Y-74562203D01*
X133973540Y-74514583D01*
X134211636Y-74514583D01*
X134306874Y-74562203D01*
X134354493Y-74609822D01*
X134402112Y-74705060D01*
X134402112Y-74800298D01*
X134354493Y-74943155D01*
X133783064Y-75514583D01*
X134402112Y-75514583D01*
%TO.C,P4*%
X161427904Y-74981183D02*
X161427904Y-73981183D01*
X161808857Y-73981183D01*
X161904095Y-74028803D01*
X161951714Y-74076422D01*
X161999333Y-74171660D01*
X161999333Y-74314517D01*
X161951714Y-74409755D01*
X161904095Y-74457374D01*
X161808857Y-74504993D01*
X161427904Y-74504993D01*
X162856476Y-74314517D02*
X162856476Y-74981183D01*
X162618380Y-73933564D02*
X162380285Y-74647850D01*
X162999333Y-74647850D01*
%TO.C,R8*%
X158726066Y-80737304D02*
X158459400Y-80356352D01*
X158268923Y-80737304D02*
X158268923Y-79937304D01*
X158573685Y-79937304D01*
X158649876Y-79975400D01*
X158687971Y-80013495D01*
X158726066Y-80089685D01*
X158726066Y-80203971D01*
X158687971Y-80280161D01*
X158649876Y-80318257D01*
X158573685Y-80356352D01*
X158268923Y-80356352D01*
X159183209Y-80280161D02*
X159107019Y-80242066D01*
X159068923Y-80203971D01*
X159030828Y-80127780D01*
X159030828Y-80089685D01*
X159068923Y-80013495D01*
X159107019Y-79975400D01*
X159183209Y-79937304D01*
X159335590Y-79937304D01*
X159411780Y-79975400D01*
X159449876Y-80013495D01*
X159487971Y-80089685D01*
X159487971Y-80127780D01*
X159449876Y-80203971D01*
X159411780Y-80242066D01*
X159335590Y-80280161D01*
X159183209Y-80280161D01*
X159107019Y-80318257D01*
X159068923Y-80356352D01*
X159030828Y-80432542D01*
X159030828Y-80584923D01*
X159068923Y-80661114D01*
X159107019Y-80699209D01*
X159183209Y-80737304D01*
X159335590Y-80737304D01*
X159411780Y-80699209D01*
X159449876Y-80661114D01*
X159487971Y-80584923D01*
X159487971Y-80432542D01*
X159449876Y-80356352D01*
X159411780Y-80318257D01*
X159335590Y-80280161D01*
%TO.C,P3*%
X147280103Y-74930383D02*
X147280103Y-73930383D01*
X147661056Y-73930383D01*
X147756294Y-73978003D01*
X147803913Y-74025622D01*
X147851532Y-74120860D01*
X147851532Y-74263717D01*
X147803913Y-74358955D01*
X147756294Y-74406574D01*
X147661056Y-74454193D01*
X147280103Y-74454193D01*
X148184865Y-73930383D02*
X148803913Y-73930383D01*
X148470579Y-74311336D01*
X148613437Y-74311336D01*
X148708675Y-74358955D01*
X148756294Y-74406574D01*
X148803913Y-74501812D01*
X148803913Y-74739907D01*
X148756294Y-74835145D01*
X148708675Y-74882764D01*
X148613437Y-74930383D01*
X148327722Y-74930383D01*
X148232484Y-74882764D01*
X148184865Y-74835145D01*
%TO.C,C7*%
X138101266Y-88839914D02*
X138063171Y-88878009D01*
X137948885Y-88916104D01*
X137872695Y-88916104D01*
X137758409Y-88878009D01*
X137682219Y-88801819D01*
X137644123Y-88725628D01*
X137606028Y-88573247D01*
X137606028Y-88458961D01*
X137644123Y-88306580D01*
X137682219Y-88230390D01*
X137758409Y-88154200D01*
X137872695Y-88116104D01*
X137948885Y-88116104D01*
X138063171Y-88154200D01*
X138101266Y-88192295D01*
X138367933Y-88116104D02*
X138901266Y-88116104D01*
X138558409Y-88916104D01*
%TO.C,MK1*%
X122701385Y-101243026D02*
X122058154Y-101243026D01*
X122517605Y-101028615D01*
X122058154Y-100814205D01*
X122701385Y-100814205D01*
X122701385Y-100507905D02*
X122058154Y-100507905D01*
X122701385Y-100140344D02*
X122333824Y-100416015D01*
X122058154Y-100140344D02*
X122425715Y-100507905D01*
X122701385Y-99527743D02*
X122701385Y-99895304D01*
X122701385Y-99711523D02*
X122058154Y-99711523D01*
X122150044Y-99772784D01*
X122211304Y-99834044D01*
X122241934Y-99895304D01*
%TO.C,SW1*%
X157972739Y-126708416D02*
X158123054Y-126717438D01*
X158353036Y-126655814D01*
X158432704Y-126585168D01*
X158466376Y-126526847D01*
X158487723Y-126422530D01*
X158463074Y-126330537D01*
X158392428Y-126250868D01*
X158334106Y-126217197D01*
X158229789Y-126195850D01*
X158033478Y-126199152D01*
X157929161Y-126177805D01*
X157870839Y-126144133D01*
X157800193Y-126064465D01*
X157775544Y-125972472D01*
X157796891Y-125868154D01*
X157830563Y-125809833D01*
X157910231Y-125739187D01*
X158140213Y-125677564D01*
X158290527Y-125686586D01*
X158600178Y-125554317D02*
X159088979Y-126458619D01*
X159088095Y-125719373D01*
X159456951Y-126360021D01*
X159428114Y-125332472D01*
X160560866Y-126064228D02*
X160008909Y-126212124D01*
X160284888Y-126138176D02*
X160026069Y-125172250D01*
X159971050Y-125334889D01*
X159903706Y-125451532D01*
X159824038Y-125522177D01*
%TO.C,R19*%
X162280542Y-82326380D02*
X161947209Y-81850190D01*
X161709114Y-82326380D02*
X161709114Y-81326380D01*
X162090066Y-81326380D01*
X162185304Y-81374000D01*
X162232923Y-81421619D01*
X162280542Y-81516857D01*
X162280542Y-81659714D01*
X162232923Y-81754952D01*
X162185304Y-81802571D01*
X162090066Y-81850190D01*
X161709114Y-81850190D01*
X163232923Y-82326380D02*
X162661495Y-82326380D01*
X162947209Y-82326380D02*
X162947209Y-81326380D01*
X162851971Y-81469238D01*
X162756733Y-81564476D01*
X162661495Y-81612095D01*
X163709114Y-82326380D02*
X163899590Y-82326380D01*
X163994828Y-82278761D01*
X164042447Y-82231142D01*
X164137685Y-82088285D01*
X164185304Y-81897809D01*
X164185304Y-81516857D01*
X164137685Y-81421619D01*
X164090066Y-81374000D01*
X163994828Y-81326380D01*
X163804352Y-81326380D01*
X163709114Y-81374000D01*
X163661495Y-81421619D01*
X163613876Y-81516857D01*
X163613876Y-81754952D01*
X163661495Y-81850190D01*
X163709114Y-81897809D01*
X163804352Y-81945428D01*
X163994828Y-81945428D01*
X164090066Y-81897809D01*
X164137685Y-81850190D01*
X164185304Y-81754952D01*
%TO.C,USB1*%
X139214304Y-129459380D02*
X139214304Y-130268904D01*
X139261923Y-130364142D01*
X139309542Y-130411761D01*
X139404780Y-130459380D01*
X139595257Y-130459380D01*
X139690495Y-130411761D01*
X139738114Y-130364142D01*
X139785733Y-130268904D01*
X139785733Y-129459380D01*
X140214304Y-130411761D02*
X140357161Y-130459380D01*
X140595257Y-130459380D01*
X140690495Y-130411761D01*
X140738114Y-130364142D01*
X140785733Y-130268904D01*
X140785733Y-130173666D01*
X140738114Y-130078428D01*
X140690495Y-130030809D01*
X140595257Y-129983190D01*
X140404780Y-129935571D01*
X140309542Y-129887952D01*
X140261923Y-129840333D01*
X140214304Y-129745095D01*
X140214304Y-129649857D01*
X140261923Y-129554619D01*
X140309542Y-129507000D01*
X140404780Y-129459380D01*
X140642876Y-129459380D01*
X140785733Y-129507000D01*
X141547638Y-129935571D02*
X141690495Y-129983190D01*
X141738114Y-130030809D01*
X141785733Y-130126047D01*
X141785733Y-130268904D01*
X141738114Y-130364142D01*
X141690495Y-130411761D01*
X141595257Y-130459380D01*
X141214304Y-130459380D01*
X141214304Y-129459380D01*
X141547638Y-129459380D01*
X141642876Y-129507000D01*
X141690495Y-129554619D01*
X141738114Y-129649857D01*
X141738114Y-129745095D01*
X141690495Y-129840333D01*
X141642876Y-129887952D01*
X141547638Y-129935571D01*
X141214304Y-129935571D01*
X142738114Y-130459380D02*
X142166685Y-130459380D01*
X142452400Y-130459380D02*
X142452400Y-129459380D01*
X142357161Y-129602238D01*
X142261923Y-129697476D01*
X142166685Y-129745095D01*
%TO.C,R6*%
X116460466Y-80828104D02*
X116193800Y-80447152D01*
X116003323Y-80828104D02*
X116003323Y-80028104D01*
X116308085Y-80028104D01*
X116384276Y-80066200D01*
X116422371Y-80104295D01*
X116460466Y-80180485D01*
X116460466Y-80294771D01*
X116422371Y-80370961D01*
X116384276Y-80409057D01*
X116308085Y-80447152D01*
X116003323Y-80447152D01*
X117146180Y-80028104D02*
X116993800Y-80028104D01*
X116917609Y-80066200D01*
X116879514Y-80104295D01*
X116803323Y-80218580D01*
X116765228Y-80370961D01*
X116765228Y-80675723D01*
X116803323Y-80751914D01*
X116841419Y-80790009D01*
X116917609Y-80828104D01*
X117069990Y-80828104D01*
X117146180Y-80790009D01*
X117184276Y-80751914D01*
X117222371Y-80675723D01*
X117222371Y-80485247D01*
X117184276Y-80409057D01*
X117146180Y-80370961D01*
X117069990Y-80332866D01*
X116917609Y-80332866D01*
X116841419Y-80370961D01*
X116803323Y-80409057D01*
X116765228Y-80485247D01*
%TO.C,D3*%
X159743580Y-112965095D02*
X158743580Y-112965095D01*
X158743580Y-112727000D01*
X158791200Y-112584142D01*
X158886438Y-112488904D01*
X158981676Y-112441285D01*
X159172152Y-112393666D01*
X159315009Y-112393666D01*
X159505485Y-112441285D01*
X159600723Y-112488904D01*
X159695961Y-112584142D01*
X159743580Y-112727000D01*
X159743580Y-112965095D01*
X158743580Y-112060333D02*
X158743580Y-111441285D01*
X159124533Y-111774619D01*
X159124533Y-111631761D01*
X159172152Y-111536523D01*
X159219771Y-111488904D01*
X159315009Y-111441285D01*
X159553104Y-111441285D01*
X159648342Y-111488904D01*
X159695961Y-111536523D01*
X159743580Y-111631761D01*
X159743580Y-111917476D01*
X159695961Y-112012714D01*
X159648342Y-112060333D01*
%TO.C,U4*%
X150502895Y-109545780D02*
X150502895Y-110355304D01*
X150550514Y-110450542D01*
X150598133Y-110498161D01*
X150693371Y-110545780D01*
X150883847Y-110545780D01*
X150979085Y-110498161D01*
X151026704Y-110450542D01*
X151074323Y-110355304D01*
X151074323Y-109545780D01*
X151979085Y-109879114D02*
X151979085Y-110545780D01*
X151740990Y-109498161D02*
X151502895Y-110212447D01*
X152121942Y-110212447D01*
%TO.C,C17*%
X123834342Y-112361857D02*
X123881961Y-112409476D01*
X123929580Y-112552333D01*
X123929580Y-112647571D01*
X123881961Y-112790428D01*
X123786723Y-112885666D01*
X123691485Y-112933285D01*
X123501009Y-112980904D01*
X123358152Y-112980904D01*
X123167676Y-112933285D01*
X123072438Y-112885666D01*
X122977200Y-112790428D01*
X122929580Y-112647571D01*
X122929580Y-112552333D01*
X122977200Y-112409476D01*
X123024819Y-112361857D01*
X123929580Y-111409476D02*
X123929580Y-111980904D01*
X123929580Y-111695190D02*
X122929580Y-111695190D01*
X123072438Y-111790428D01*
X123167676Y-111885666D01*
X123215295Y-111980904D01*
X122929580Y-111076142D02*
X122929580Y-110409476D01*
X123929580Y-110838047D01*
%TO.C,C20*%
X129904942Y-105046657D02*
X129952561Y-105094276D01*
X130000180Y-105237133D01*
X130000180Y-105332371D01*
X129952561Y-105475228D01*
X129857323Y-105570466D01*
X129762085Y-105618085D01*
X129571609Y-105665704D01*
X129428752Y-105665704D01*
X129238276Y-105618085D01*
X129143038Y-105570466D01*
X129047800Y-105475228D01*
X129000180Y-105332371D01*
X129000180Y-105237133D01*
X129047800Y-105094276D01*
X129095419Y-105046657D01*
X129095419Y-104665704D02*
X129047800Y-104618085D01*
X129000180Y-104522847D01*
X129000180Y-104284752D01*
X129047800Y-104189514D01*
X129095419Y-104141895D01*
X129190657Y-104094276D01*
X129285895Y-104094276D01*
X129428752Y-104141895D01*
X130000180Y-104713323D01*
X130000180Y-104094276D01*
X129000180Y-103475228D02*
X129000180Y-103379990D01*
X129047800Y-103284752D01*
X129095419Y-103237133D01*
X129190657Y-103189514D01*
X129381133Y-103141895D01*
X129619228Y-103141895D01*
X129809704Y-103189514D01*
X129904942Y-103237133D01*
X129952561Y-103284752D01*
X130000180Y-103379990D01*
X130000180Y-103475228D01*
X129952561Y-103570466D01*
X129904942Y-103618085D01*
X129809704Y-103665704D01*
X129619228Y-103713323D01*
X129381133Y-103713323D01*
X129190657Y-103665704D01*
X129095419Y-103618085D01*
X129047800Y-103570466D01*
X129000180Y-103475228D01*
%TO.C,R16*%
X125588180Y-104243957D02*
X125111990Y-104577290D01*
X125588180Y-104815385D02*
X124588180Y-104815385D01*
X124588180Y-104434433D01*
X124635800Y-104339195D01*
X124683419Y-104291576D01*
X124778657Y-104243957D01*
X124921514Y-104243957D01*
X125016752Y-104291576D01*
X125064371Y-104339195D01*
X125111990Y-104434433D01*
X125111990Y-104815385D01*
X125588180Y-103291576D02*
X125588180Y-103863004D01*
X125588180Y-103577290D02*
X124588180Y-103577290D01*
X124731038Y-103672528D01*
X124826276Y-103767766D01*
X124873895Y-103863004D01*
X124588180Y-102434433D02*
X124588180Y-102624909D01*
X124635800Y-102720147D01*
X124683419Y-102767766D01*
X124826276Y-102863004D01*
X125016752Y-102910623D01*
X125397704Y-102910623D01*
X125492942Y-102863004D01*
X125540561Y-102815385D01*
X125588180Y-102720147D01*
X125588180Y-102529671D01*
X125540561Y-102434433D01*
X125492942Y-102386814D01*
X125397704Y-102339195D01*
X125159609Y-102339195D01*
X125064371Y-102386814D01*
X125016752Y-102434433D01*
X124969133Y-102529671D01*
X124969133Y-102720147D01*
X125016752Y-102815385D01*
X125064371Y-102863004D01*
X125159609Y-102910623D01*
%TO.C,L1*%
X119284079Y-129671974D02*
X118807889Y-129671974D01*
X118807889Y-128671974D01*
X120141222Y-129671974D02*
X119569794Y-129671974D01*
X119855508Y-129671974D02*
X119855508Y-128671974D01*
X119760270Y-128814832D01*
X119665032Y-128910070D01*
X119569794Y-128957689D01*
%TO.C,R18*%
X129217142Y-117354580D02*
X128883809Y-116878390D01*
X128645714Y-117354580D02*
X128645714Y-116354580D01*
X129026666Y-116354580D01*
X129121904Y-116402200D01*
X129169523Y-116449819D01*
X129217142Y-116545057D01*
X129217142Y-116687914D01*
X129169523Y-116783152D01*
X129121904Y-116830771D01*
X129026666Y-116878390D01*
X128645714Y-116878390D01*
X130169523Y-117354580D02*
X129598095Y-117354580D01*
X129883809Y-117354580D02*
X129883809Y-116354580D01*
X129788571Y-116497438D01*
X129693333Y-116592676D01*
X129598095Y-116640295D01*
X130740952Y-116783152D02*
X130645714Y-116735533D01*
X130598095Y-116687914D01*
X130550476Y-116592676D01*
X130550476Y-116545057D01*
X130598095Y-116449819D01*
X130645714Y-116402200D01*
X130740952Y-116354580D01*
X130931428Y-116354580D01*
X131026666Y-116402200D01*
X131074285Y-116449819D01*
X131121904Y-116545057D01*
X131121904Y-116592676D01*
X131074285Y-116687914D01*
X131026666Y-116735533D01*
X130931428Y-116783152D01*
X130740952Y-116783152D01*
X130645714Y-116830771D01*
X130598095Y-116878390D01*
X130550476Y-116973628D01*
X130550476Y-117164104D01*
X130598095Y-117259342D01*
X130645714Y-117306961D01*
X130740952Y-117354580D01*
X130931428Y-117354580D01*
X131026666Y-117306961D01*
X131074285Y-117259342D01*
X131121904Y-117164104D01*
X131121904Y-116973628D01*
X131074285Y-116878390D01*
X131026666Y-116830771D01*
X130931428Y-116783152D01*
%TO.C,R20*%
X119586180Y-123791857D02*
X119109990Y-124125190D01*
X119586180Y-124363285D02*
X118586180Y-124363285D01*
X118586180Y-123982333D01*
X118633800Y-123887095D01*
X118681419Y-123839476D01*
X118776657Y-123791857D01*
X118919514Y-123791857D01*
X119014752Y-123839476D01*
X119062371Y-123887095D01*
X119109990Y-123982333D01*
X119109990Y-124363285D01*
X118681419Y-123410904D02*
X118633800Y-123363285D01*
X118586180Y-123268047D01*
X118586180Y-123029952D01*
X118633800Y-122934714D01*
X118681419Y-122887095D01*
X118776657Y-122839476D01*
X118871895Y-122839476D01*
X119014752Y-122887095D01*
X119586180Y-123458523D01*
X119586180Y-122839476D01*
X118586180Y-122220428D02*
X118586180Y-122125190D01*
X118633800Y-122029952D01*
X118681419Y-121982333D01*
X118776657Y-121934714D01*
X118967133Y-121887095D01*
X119205228Y-121887095D01*
X119395704Y-121934714D01*
X119490942Y-121982333D01*
X119538561Y-122029952D01*
X119586180Y-122125190D01*
X119586180Y-122220428D01*
X119538561Y-122315666D01*
X119490942Y-122363285D01*
X119395704Y-122410904D01*
X119205228Y-122458523D01*
X118967133Y-122458523D01*
X118776657Y-122410904D01*
X118681419Y-122363285D01*
X118633800Y-122315666D01*
X118586180Y-122220428D01*
%TO.C,C9*%
X161588333Y-83628142D02*
X161540714Y-83675761D01*
X161397857Y-83723380D01*
X161302619Y-83723380D01*
X161159761Y-83675761D01*
X161064523Y-83580523D01*
X161016904Y-83485285D01*
X160969285Y-83294809D01*
X160969285Y-83151952D01*
X161016904Y-82961476D01*
X161064523Y-82866238D01*
X161159761Y-82771000D01*
X161302619Y-82723380D01*
X161397857Y-82723380D01*
X161540714Y-82771000D01*
X161588333Y-82818619D01*
X162064523Y-83723380D02*
X162255000Y-83723380D01*
X162350238Y-83675761D01*
X162397857Y-83628142D01*
X162493095Y-83485285D01*
X162540714Y-83294809D01*
X162540714Y-82913857D01*
X162493095Y-82818619D01*
X162445476Y-82771000D01*
X162350238Y-82723380D01*
X162159761Y-82723380D01*
X162064523Y-82771000D01*
X162016904Y-82818619D01*
X161969285Y-82913857D01*
X161969285Y-83151952D01*
X162016904Y-83247190D01*
X162064523Y-83294809D01*
X162159761Y-83342428D01*
X162350238Y-83342428D01*
X162445476Y-83294809D01*
X162493095Y-83247190D01*
X162540714Y-83151952D01*
%TO.C,D2*%
X159718180Y-116343295D02*
X158718180Y-116343295D01*
X158718180Y-116105200D01*
X158765800Y-115962342D01*
X158861038Y-115867104D01*
X158956276Y-115819485D01*
X159146752Y-115771866D01*
X159289609Y-115771866D01*
X159480085Y-115819485D01*
X159575323Y-115867104D01*
X159670561Y-115962342D01*
X159718180Y-116105200D01*
X159718180Y-116343295D01*
X158813419Y-115390914D02*
X158765800Y-115343295D01*
X158718180Y-115248057D01*
X158718180Y-115009961D01*
X158765800Y-114914723D01*
X158813419Y-114867104D01*
X158908657Y-114819485D01*
X159003895Y-114819485D01*
X159146752Y-114867104D01*
X159718180Y-115438533D01*
X159718180Y-114819485D01*
%TO.C,R4*%
X153790533Y-110444180D02*
X153457200Y-109967990D01*
X153219104Y-110444180D02*
X153219104Y-109444180D01*
X153600057Y-109444180D01*
X153695295Y-109491800D01*
X153742914Y-109539419D01*
X153790533Y-109634657D01*
X153790533Y-109777514D01*
X153742914Y-109872752D01*
X153695295Y-109920371D01*
X153600057Y-109967990D01*
X153219104Y-109967990D01*
X154647676Y-109777514D02*
X154647676Y-110444180D01*
X154409580Y-109396561D02*
X154171485Y-110110847D01*
X154790533Y-110110847D01*
%TO.C,R5*%
X118433733Y-118305480D02*
X118100400Y-117829290D01*
X117862304Y-118305480D02*
X117862304Y-117305480D01*
X118243257Y-117305480D01*
X118338495Y-117353100D01*
X118386114Y-117400719D01*
X118433733Y-117495957D01*
X118433733Y-117638814D01*
X118386114Y-117734052D01*
X118338495Y-117781671D01*
X118243257Y-117829290D01*
X117862304Y-117829290D01*
X119338495Y-117305480D02*
X118862304Y-117305480D01*
X118814685Y-117781671D01*
X118862304Y-117734052D01*
X118957542Y-117686433D01*
X119195638Y-117686433D01*
X119290876Y-117734052D01*
X119338495Y-117781671D01*
X119386114Y-117876909D01*
X119386114Y-118115004D01*
X119338495Y-118210242D01*
X119290876Y-118257861D01*
X119195638Y-118305480D01*
X118957542Y-118305480D01*
X118862304Y-118257861D01*
X118814685Y-118210242D01*
%TO.C,R3*%
X155924133Y-110418780D02*
X155590800Y-109942590D01*
X155352704Y-110418780D02*
X155352704Y-109418780D01*
X155733657Y-109418780D01*
X155828895Y-109466400D01*
X155876514Y-109514019D01*
X155924133Y-109609257D01*
X155924133Y-109752114D01*
X155876514Y-109847352D01*
X155828895Y-109894971D01*
X155733657Y-109942590D01*
X155352704Y-109942590D01*
X156257466Y-109418780D02*
X156876514Y-109418780D01*
X156543180Y-109799733D01*
X156686038Y-109799733D01*
X156781276Y-109847352D01*
X156828895Y-109894971D01*
X156876514Y-109990209D01*
X156876514Y-110228304D01*
X156828895Y-110323542D01*
X156781276Y-110371161D01*
X156686038Y-110418780D01*
X156400323Y-110418780D01*
X156305085Y-110371161D01*
X156257466Y-110323542D01*
%TO.C,C16*%
X123834342Y-108526457D02*
X123881961Y-108574076D01*
X123929580Y-108716933D01*
X123929580Y-108812171D01*
X123881961Y-108955028D01*
X123786723Y-109050266D01*
X123691485Y-109097885D01*
X123501009Y-109145504D01*
X123358152Y-109145504D01*
X123167676Y-109097885D01*
X123072438Y-109050266D01*
X122977200Y-108955028D01*
X122929580Y-108812171D01*
X122929580Y-108716933D01*
X122977200Y-108574076D01*
X123024819Y-108526457D01*
X123929580Y-107574076D02*
X123929580Y-108145504D01*
X123929580Y-107859790D02*
X122929580Y-107859790D01*
X123072438Y-107955028D01*
X123167676Y-108050266D01*
X123215295Y-108145504D01*
X122929580Y-106716933D02*
X122929580Y-106907409D01*
X122977200Y-107002647D01*
X123024819Y-107050266D01*
X123167676Y-107145504D01*
X123358152Y-107193123D01*
X123739104Y-107193123D01*
X123834342Y-107145504D01*
X123881961Y-107097885D01*
X123929580Y-107002647D01*
X123929580Y-106812171D01*
X123881961Y-106716933D01*
X123834342Y-106669314D01*
X123739104Y-106621695D01*
X123501009Y-106621695D01*
X123405771Y-106669314D01*
X123358152Y-106716933D01*
X123310533Y-106812171D01*
X123310533Y-107002647D01*
X123358152Y-107097885D01*
X123405771Y-107145504D01*
X123501009Y-107193123D01*
%TO.C,C3*%
X127872942Y-126274766D02*
X127920561Y-126322385D01*
X127968180Y-126465242D01*
X127968180Y-126560480D01*
X127920561Y-126703338D01*
X127825323Y-126798576D01*
X127730085Y-126846195D01*
X127539609Y-126893814D01*
X127396752Y-126893814D01*
X127206276Y-126846195D01*
X127111038Y-126798576D01*
X127015800Y-126703338D01*
X126968180Y-126560480D01*
X126968180Y-126465242D01*
X127015800Y-126322385D01*
X127063419Y-126274766D01*
X126968180Y-125941433D02*
X126968180Y-125322385D01*
X127349133Y-125655719D01*
X127349133Y-125512861D01*
X127396752Y-125417623D01*
X127444371Y-125370004D01*
X127539609Y-125322385D01*
X127777704Y-125322385D01*
X127872942Y-125370004D01*
X127920561Y-125417623D01*
X127968180Y-125512861D01*
X127968180Y-125798576D01*
X127920561Y-125893814D01*
X127872942Y-125941433D01*
%TO.C,D5*%
X166325504Y-80827780D02*
X166325504Y-79827780D01*
X166563600Y-79827780D01*
X166706457Y-79875400D01*
X166801695Y-79970638D01*
X166849314Y-80065876D01*
X166896933Y-80256352D01*
X166896933Y-80399209D01*
X166849314Y-80589685D01*
X166801695Y-80684923D01*
X166706457Y-80780161D01*
X166563600Y-80827780D01*
X166325504Y-80827780D01*
X167801695Y-79827780D02*
X167325504Y-79827780D01*
X167277885Y-80303971D01*
X167325504Y-80256352D01*
X167420742Y-80208733D01*
X167658838Y-80208733D01*
X167754076Y-80256352D01*
X167801695Y-80303971D01*
X167849314Y-80399209D01*
X167849314Y-80637304D01*
X167801695Y-80732542D01*
X167754076Y-80780161D01*
X167658838Y-80827780D01*
X167420742Y-80827780D01*
X167325504Y-80780161D01*
X167277885Y-80732542D01*
%TO.C,C15*%
X128380942Y-105199057D02*
X128428561Y-105246676D01*
X128476180Y-105389533D01*
X128476180Y-105484771D01*
X128428561Y-105627628D01*
X128333323Y-105722866D01*
X128238085Y-105770485D01*
X128047609Y-105818104D01*
X127904752Y-105818104D01*
X127714276Y-105770485D01*
X127619038Y-105722866D01*
X127523800Y-105627628D01*
X127476180Y-105484771D01*
X127476180Y-105389533D01*
X127523800Y-105246676D01*
X127571419Y-105199057D01*
X128476180Y-104246676D02*
X128476180Y-104818104D01*
X128476180Y-104532390D02*
X127476180Y-104532390D01*
X127619038Y-104627628D01*
X127714276Y-104722866D01*
X127761895Y-104818104D01*
X127476180Y-103341914D02*
X127476180Y-103818104D01*
X127952371Y-103865723D01*
X127904752Y-103818104D01*
X127857133Y-103722866D01*
X127857133Y-103484771D01*
X127904752Y-103389533D01*
X127952371Y-103341914D01*
X128047609Y-103294295D01*
X128285704Y-103294295D01*
X128380942Y-103341914D01*
X128428561Y-103389533D01*
X128476180Y-103484771D01*
X128476180Y-103722866D01*
X128428561Y-103818104D01*
X128380942Y-103865723D01*
%TO.C,R9*%
X149478566Y-80737304D02*
X149211900Y-80356352D01*
X149021423Y-80737304D02*
X149021423Y-79937304D01*
X149326185Y-79937304D01*
X149402376Y-79975400D01*
X149440471Y-80013495D01*
X149478566Y-80089685D01*
X149478566Y-80203971D01*
X149440471Y-80280161D01*
X149402376Y-80318257D01*
X149326185Y-80356352D01*
X149021423Y-80356352D01*
X149859519Y-80737304D02*
X150011900Y-80737304D01*
X150088090Y-80699209D01*
X150126185Y-80661114D01*
X150202376Y-80546828D01*
X150240471Y-80394447D01*
X150240471Y-80089685D01*
X150202376Y-80013495D01*
X150164280Y-79975400D01*
X150088090Y-79937304D01*
X149935709Y-79937304D01*
X149859519Y-79975400D01*
X149821423Y-80013495D01*
X149783328Y-80089685D01*
X149783328Y-80280161D01*
X149821423Y-80356352D01*
X149859519Y-80394447D01*
X149935709Y-80432542D01*
X150088090Y-80432542D01*
X150164280Y-80394447D01*
X150202376Y-80356352D01*
X150240471Y-80280161D01*
%TO.C,R13*%
X149166980Y-124149757D02*
X148690790Y-124483090D01*
X149166980Y-124721185D02*
X148166980Y-124721185D01*
X148166980Y-124340233D01*
X148214600Y-124244995D01*
X148262219Y-124197376D01*
X148357457Y-124149757D01*
X148500314Y-124149757D01*
X148595552Y-124197376D01*
X148643171Y-124244995D01*
X148690790Y-124340233D01*
X148690790Y-124721185D01*
X149166980Y-123197376D02*
X149166980Y-123768804D01*
X149166980Y-123483090D02*
X148166980Y-123483090D01*
X148309838Y-123578328D01*
X148405076Y-123673566D01*
X148452695Y-123768804D01*
X148166980Y-122864042D02*
X148166980Y-122244995D01*
X148547933Y-122578328D01*
X148547933Y-122435471D01*
X148595552Y-122340233D01*
X148643171Y-122292614D01*
X148738409Y-122244995D01*
X148976504Y-122244995D01*
X149071742Y-122292614D01*
X149119361Y-122340233D01*
X149166980Y-122435471D01*
X149166980Y-122721185D01*
X149119361Y-122816423D01*
X149071742Y-122864042D01*
%TO.C,U5*%
X126080167Y-98759604D02*
X126889691Y-98759604D01*
X126984929Y-98711985D01*
X127032548Y-98664366D01*
X127080167Y-98569128D01*
X127080167Y-98378652D01*
X127032548Y-98283414D01*
X126984929Y-98235795D01*
X126889691Y-98188176D01*
X126080167Y-98188176D01*
X126080167Y-97235795D02*
X126080167Y-97711985D01*
X126556358Y-97759604D01*
X126508739Y-97711985D01*
X126461120Y-97616747D01*
X126461120Y-97378652D01*
X126508739Y-97283414D01*
X126556358Y-97235795D01*
X126651596Y-97188176D01*
X126889691Y-97188176D01*
X126984929Y-97235795D01*
X127032548Y-97283414D01*
X127080167Y-97378652D01*
X127080167Y-97616747D01*
X127032548Y-97711985D01*
X126984929Y-97759604D01*
%TO.C,C6*%
X125299666Y-88916114D02*
X125261571Y-88954209D01*
X125147285Y-88992304D01*
X125071095Y-88992304D01*
X124956809Y-88954209D01*
X124880619Y-88878019D01*
X124842523Y-88801828D01*
X124804428Y-88649447D01*
X124804428Y-88535161D01*
X124842523Y-88382780D01*
X124880619Y-88306590D01*
X124956809Y-88230400D01*
X125071095Y-88192304D01*
X125147285Y-88192304D01*
X125261571Y-88230400D01*
X125299666Y-88268495D01*
X125985380Y-88192304D02*
X125833000Y-88192304D01*
X125756809Y-88230400D01*
X125718714Y-88268495D01*
X125642523Y-88382780D01*
X125604428Y-88535161D01*
X125604428Y-88839923D01*
X125642523Y-88916114D01*
X125680619Y-88954209D01*
X125756809Y-88992304D01*
X125909190Y-88992304D01*
X125985380Y-88954209D01*
X126023476Y-88916114D01*
X126061571Y-88839923D01*
X126061571Y-88649447D01*
X126023476Y-88573257D01*
X125985380Y-88535161D01*
X125909190Y-88497066D01*
X125756809Y-88497066D01*
X125680619Y-88535161D01*
X125642523Y-88573257D01*
X125604428Y-88649447D01*
%TO.C,Q1*%
X152056219Y-123627538D02*
X152008600Y-123722776D01*
X151913361Y-123818014D01*
X151770504Y-123960871D01*
X151722885Y-124056109D01*
X151722885Y-124151347D01*
X151960980Y-124103728D02*
X151913361Y-124198966D01*
X151818123Y-124294204D01*
X151627647Y-124341823D01*
X151294314Y-124341823D01*
X151103838Y-124294204D01*
X151008600Y-124198966D01*
X150960980Y-124103728D01*
X150960980Y-123913252D01*
X151008600Y-123818014D01*
X151103838Y-123722776D01*
X151294314Y-123675157D01*
X151627647Y-123675157D01*
X151818123Y-123722776D01*
X151913361Y-123818014D01*
X151960980Y-123913252D01*
X151960980Y-124103728D01*
X151960980Y-122722776D02*
X151960980Y-123294204D01*
X151960980Y-123008490D02*
X150960980Y-123008490D01*
X151103838Y-123103728D01*
X151199076Y-123198966D01*
X151246695Y-123294204D01*
%TO.C,R10*%
X127485579Y-117746651D02*
X127009389Y-118079984D01*
X127485579Y-118318079D02*
X126485579Y-118318079D01*
X126485579Y-117937127D01*
X126533199Y-117841889D01*
X126580818Y-117794270D01*
X126676056Y-117746651D01*
X126818913Y-117746651D01*
X126914151Y-117794270D01*
X126961770Y-117841889D01*
X127009389Y-117937127D01*
X127009389Y-118318079D01*
X127485579Y-116794270D02*
X127485579Y-117365698D01*
X127485579Y-117079984D02*
X126485579Y-117079984D01*
X126628437Y-117175222D01*
X126723675Y-117270460D01*
X126771294Y-117365698D01*
X126485579Y-116175222D02*
X126485579Y-116079984D01*
X126533199Y-115984746D01*
X126580818Y-115937127D01*
X126676056Y-115889508D01*
X126866532Y-115841889D01*
X127104627Y-115841889D01*
X127295103Y-115889508D01*
X127390341Y-115937127D01*
X127437960Y-115984746D01*
X127485579Y-116079984D01*
X127485579Y-116175222D01*
X127437960Y-116270460D01*
X127390341Y-116318079D01*
X127295103Y-116365698D01*
X127104627Y-116413317D01*
X126866532Y-116413317D01*
X126676056Y-116365698D01*
X126580818Y-116318079D01*
X126533199Y-116270460D01*
X126485579Y-116175222D01*
%TO.C,U1*%
X118524294Y-120391574D02*
X118524294Y-121201098D01*
X118571913Y-121296336D01*
X118619532Y-121343955D01*
X118714770Y-121391574D01*
X118905246Y-121391574D01*
X119000484Y-121343955D01*
X119048103Y-121296336D01*
X119095722Y-121201098D01*
X119095722Y-120391574D01*
X120095722Y-121391574D02*
X119524294Y-121391574D01*
X119810008Y-121391574D02*
X119810008Y-120391574D01*
X119714770Y-120534432D01*
X119619532Y-120629670D01*
X119524294Y-120677289D01*
%TO.C,C8*%
X151207666Y-88839914D02*
X151169571Y-88878009D01*
X151055285Y-88916104D01*
X150979095Y-88916104D01*
X150864809Y-88878009D01*
X150788619Y-88801819D01*
X150750523Y-88725628D01*
X150712428Y-88573247D01*
X150712428Y-88458961D01*
X150750523Y-88306580D01*
X150788619Y-88230390D01*
X150864809Y-88154200D01*
X150979095Y-88116104D01*
X151055285Y-88116104D01*
X151169571Y-88154200D01*
X151207666Y-88192295D01*
X151664809Y-88458961D02*
X151588619Y-88420866D01*
X151550523Y-88382771D01*
X151512428Y-88306580D01*
X151512428Y-88268485D01*
X151550523Y-88192295D01*
X151588619Y-88154200D01*
X151664809Y-88116104D01*
X151817190Y-88116104D01*
X151893380Y-88154200D01*
X151931476Y-88192295D01*
X151969571Y-88268485D01*
X151969571Y-88306580D01*
X151931476Y-88382771D01*
X151893380Y-88420866D01*
X151817190Y-88458961D01*
X151664809Y-88458961D01*
X151588619Y-88497057D01*
X151550523Y-88535152D01*
X151512428Y-88611342D01*
X151512428Y-88763723D01*
X151550523Y-88839914D01*
X151588619Y-88878009D01*
X151664809Y-88916104D01*
X151817190Y-88916104D01*
X151893380Y-88878009D01*
X151931476Y-88839914D01*
X151969571Y-88763723D01*
X151969571Y-88611342D01*
X151931476Y-88535152D01*
X151893380Y-88497057D01*
X151817190Y-88458961D01*
%TO.C,U3*%
X122684604Y-97393323D02*
X123332223Y-97393323D01*
X123408414Y-97355228D01*
X123446509Y-97317133D01*
X123484604Y-97240942D01*
X123484604Y-97088561D01*
X123446509Y-97012371D01*
X123408414Y-96974276D01*
X123332223Y-96936180D01*
X122684604Y-96936180D01*
X122684604Y-96631419D02*
X122684604Y-96136180D01*
X122989366Y-96402847D01*
X122989366Y-96288561D01*
X123027461Y-96212371D01*
X123065557Y-96174276D01*
X123141747Y-96136180D01*
X123332223Y-96136180D01*
X123408414Y-96174276D01*
X123446509Y-96212371D01*
X123484604Y-96288561D01*
X123484604Y-96517133D01*
X123446509Y-96593323D01*
X123408414Y-96631419D01*
X124291100Y-95747780D02*
X124291100Y-95985876D01*
X124053004Y-95890638D02*
X124291100Y-95985876D01*
X124529195Y-95890638D01*
X124148242Y-96176352D02*
X124291100Y-95985876D01*
X124433957Y-96176352D01*
X124291100Y-95747780D02*
X124291100Y-95985876D01*
X124053004Y-95890638D02*
X124291100Y-95985876D01*
X124529195Y-95890638D01*
X124148242Y-96176352D02*
X124291100Y-95985876D01*
X124433957Y-96176352D01*
%TO.C,C10*%
X117551142Y-116737042D02*
X117503523Y-116784661D01*
X117360666Y-116832280D01*
X117265428Y-116832280D01*
X117122571Y-116784661D01*
X117027333Y-116689423D01*
X116979714Y-116594185D01*
X116932095Y-116403709D01*
X116932095Y-116260852D01*
X116979714Y-116070376D01*
X117027333Y-115975138D01*
X117122571Y-115879900D01*
X117265428Y-115832280D01*
X117360666Y-115832280D01*
X117503523Y-115879900D01*
X117551142Y-115927519D01*
X118503523Y-116832280D02*
X117932095Y-116832280D01*
X118217809Y-116832280D02*
X118217809Y-115832280D01*
X118122571Y-115975138D01*
X118027333Y-116070376D01*
X117932095Y-116117995D01*
X119122571Y-115832280D02*
X119217809Y-115832280D01*
X119313047Y-115879900D01*
X119360666Y-115927519D01*
X119408285Y-116022757D01*
X119455904Y-116213233D01*
X119455904Y-116451328D01*
X119408285Y-116641804D01*
X119360666Y-116737042D01*
X119313047Y-116784661D01*
X119217809Y-116832280D01*
X119122571Y-116832280D01*
X119027333Y-116784661D01*
X118979714Y-116737042D01*
X118932095Y-116641804D01*
X118884476Y-116451328D01*
X118884476Y-116213233D01*
X118932095Y-116022757D01*
X118979714Y-115927519D01*
X119027333Y-115879900D01*
X119122571Y-115832280D01*
%TO.C,C1*%
X126374342Y-126198566D02*
X126421961Y-126246185D01*
X126469580Y-126389042D01*
X126469580Y-126484280D01*
X126421961Y-126627138D01*
X126326723Y-126722376D01*
X126231485Y-126769995D01*
X126041009Y-126817614D01*
X125898152Y-126817614D01*
X125707676Y-126769995D01*
X125612438Y-126722376D01*
X125517200Y-126627138D01*
X125469580Y-126484280D01*
X125469580Y-126389042D01*
X125517200Y-126246185D01*
X125564819Y-126198566D01*
X126469580Y-125246185D02*
X126469580Y-125817614D01*
X126469580Y-125531900D02*
X125469580Y-125531900D01*
X125612438Y-125627138D01*
X125707676Y-125722376D01*
X125755295Y-125817614D01*
%TO.C,C11*%
X117525742Y-115263842D02*
X117478123Y-115311461D01*
X117335266Y-115359080D01*
X117240028Y-115359080D01*
X117097171Y-115311461D01*
X117001933Y-115216223D01*
X116954314Y-115120985D01*
X116906695Y-114930509D01*
X116906695Y-114787652D01*
X116954314Y-114597176D01*
X117001933Y-114501938D01*
X117097171Y-114406700D01*
X117240028Y-114359080D01*
X117335266Y-114359080D01*
X117478123Y-114406700D01*
X117525742Y-114454319D01*
X118478123Y-115359080D02*
X117906695Y-115359080D01*
X118192409Y-115359080D02*
X118192409Y-114359080D01*
X118097171Y-114501938D01*
X118001933Y-114597176D01*
X117906695Y-114644795D01*
X119430504Y-115359080D02*
X118859076Y-115359080D01*
X119144790Y-115359080D02*
X119144790Y-114359080D01*
X119049552Y-114501938D01*
X118954314Y-114597176D01*
X118859076Y-114644795D01*
%TO.C,C5*%
X123841942Y-115136866D02*
X123889561Y-115184485D01*
X123937180Y-115327342D01*
X123937180Y-115422580D01*
X123889561Y-115565438D01*
X123794323Y-115660676D01*
X123699085Y-115708295D01*
X123508609Y-115755914D01*
X123365752Y-115755914D01*
X123175276Y-115708295D01*
X123080038Y-115660676D01*
X122984800Y-115565438D01*
X122937180Y-115422580D01*
X122937180Y-115327342D01*
X122984800Y-115184485D01*
X123032419Y-115136866D01*
X122937180Y-114232104D02*
X122937180Y-114708295D01*
X123413371Y-114755914D01*
X123365752Y-114708295D01*
X123318133Y-114613057D01*
X123318133Y-114374961D01*
X123365752Y-114279723D01*
X123413371Y-114232104D01*
X123508609Y-114184485D01*
X123746704Y-114184485D01*
X123841942Y-114232104D01*
X123889561Y-114279723D01*
X123937180Y-114374961D01*
X123937180Y-114613057D01*
X123889561Y-114708295D01*
X123841942Y-114755914D01*
%TO.C,Q2*%
X127014161Y-124280819D02*
X126918923Y-124233200D01*
X126823685Y-124137961D01*
X126680828Y-123995104D01*
X126585590Y-123947485D01*
X126490352Y-123947485D01*
X126537971Y-124185580D02*
X126442733Y-124137961D01*
X126347495Y-124042723D01*
X126299876Y-123852247D01*
X126299876Y-123518914D01*
X126347495Y-123328438D01*
X126442733Y-123233200D01*
X126537971Y-123185580D01*
X126728447Y-123185580D01*
X126823685Y-123233200D01*
X126918923Y-123328438D01*
X126966542Y-123518914D01*
X126966542Y-123852247D01*
X126918923Y-124042723D01*
X126823685Y-124137961D01*
X126728447Y-124185580D01*
X126537971Y-124185580D01*
X127347495Y-123280819D02*
X127395114Y-123233200D01*
X127490352Y-123185580D01*
X127728447Y-123185580D01*
X127823685Y-123233200D01*
X127871304Y-123280819D01*
X127918923Y-123376057D01*
X127918923Y-123471295D01*
X127871304Y-123614152D01*
X127299876Y-124185580D01*
X127918923Y-124185580D01*
%TO.C,C18*%
X119567142Y-127779657D02*
X119614761Y-127827276D01*
X119662380Y-127970133D01*
X119662380Y-128065371D01*
X119614761Y-128208228D01*
X119519523Y-128303466D01*
X119424285Y-128351085D01*
X119233809Y-128398704D01*
X119090952Y-128398704D01*
X118900476Y-128351085D01*
X118805238Y-128303466D01*
X118710000Y-128208228D01*
X118662380Y-128065371D01*
X118662380Y-127970133D01*
X118710000Y-127827276D01*
X118757619Y-127779657D01*
X119662380Y-126827276D02*
X119662380Y-127398704D01*
X119662380Y-127112990D02*
X118662380Y-127112990D01*
X118805238Y-127208228D01*
X118900476Y-127303466D01*
X118948095Y-127398704D01*
X119090952Y-126255847D02*
X119043333Y-126351085D01*
X118995714Y-126398704D01*
X118900476Y-126446323D01*
X118852857Y-126446323D01*
X118757619Y-126398704D01*
X118710000Y-126351085D01*
X118662380Y-126255847D01*
X118662380Y-126065371D01*
X118710000Y-125970133D01*
X118757619Y-125922514D01*
X118852857Y-125874895D01*
X118900476Y-125874895D01*
X118995714Y-125922514D01*
X119043333Y-125970133D01*
X119090952Y-126065371D01*
X119090952Y-126255847D01*
X119138571Y-126351085D01*
X119186190Y-126398704D01*
X119281428Y-126446323D01*
X119471904Y-126446323D01*
X119567142Y-126398704D01*
X119614761Y-126351085D01*
X119662380Y-126255847D01*
X119662380Y-126065371D01*
X119614761Y-125970133D01*
X119567142Y-125922514D01*
X119471904Y-125874895D01*
X119281428Y-125874895D01*
X119186190Y-125922514D01*
X119138571Y-125970133D01*
X119090952Y-126065371D01*
%TO.C,R15*%
X154272380Y-124251357D02*
X153796190Y-124584690D01*
X154272380Y-124822785D02*
X153272380Y-124822785D01*
X153272380Y-124441833D01*
X153320000Y-124346595D01*
X153367619Y-124298976D01*
X153462857Y-124251357D01*
X153605714Y-124251357D01*
X153700952Y-124298976D01*
X153748571Y-124346595D01*
X153796190Y-124441833D01*
X153796190Y-124822785D01*
X154272380Y-123298976D02*
X154272380Y-123870404D01*
X154272380Y-123584690D02*
X153272380Y-123584690D01*
X153415238Y-123679928D01*
X153510476Y-123775166D01*
X153558095Y-123870404D01*
X153272380Y-122394214D02*
X153272380Y-122870404D01*
X153748571Y-122918023D01*
X153700952Y-122870404D01*
X153653333Y-122775166D01*
X153653333Y-122537071D01*
X153700952Y-122441833D01*
X153748571Y-122394214D01*
X153843809Y-122346595D01*
X154081904Y-122346595D01*
X154177142Y-122394214D01*
X154224761Y-122441833D01*
X154272380Y-122537071D01*
X154272380Y-122775166D01*
X154224761Y-122870404D01*
X154177142Y-122918023D01*
%TO.C,C4*%
X119217414Y-98187133D02*
X119255509Y-98225228D01*
X119293604Y-98339514D01*
X119293604Y-98415704D01*
X119255509Y-98529990D01*
X119179319Y-98606180D01*
X119103128Y-98644276D01*
X118950747Y-98682371D01*
X118836461Y-98682371D01*
X118684080Y-98644276D01*
X118607890Y-98606180D01*
X118531700Y-98529990D01*
X118493604Y-98415704D01*
X118493604Y-98339514D01*
X118531700Y-98225228D01*
X118569795Y-98187133D01*
X118760271Y-97501419D02*
X119293604Y-97501419D01*
X118455509Y-97691895D02*
X119026938Y-97882371D01*
X119026938Y-97387133D01*
%TO.C,R14*%
X147576980Y-111269657D02*
X147100790Y-111602990D01*
X147576980Y-111841085D02*
X146576980Y-111841085D01*
X146576980Y-111460133D01*
X146624600Y-111364895D01*
X146672219Y-111317276D01*
X146767457Y-111269657D01*
X146910314Y-111269657D01*
X147005552Y-111317276D01*
X147053171Y-111364895D01*
X147100790Y-111460133D01*
X147100790Y-111841085D01*
X147576980Y-110317276D02*
X147576980Y-110888704D01*
X147576980Y-110602990D02*
X146576980Y-110602990D01*
X146719838Y-110698228D01*
X146815076Y-110793466D01*
X146862695Y-110888704D01*
X146910314Y-109460133D02*
X147576980Y-109460133D01*
X146529361Y-109698228D02*
X147243647Y-109936323D01*
X147243647Y-109317276D01*
%TO.C,R1*%
X146627733Y-132821580D02*
X146294400Y-132345390D01*
X146056304Y-132821580D02*
X146056304Y-131821580D01*
X146437257Y-131821580D01*
X146532495Y-131869200D01*
X146580114Y-131916819D01*
X146627733Y-132012057D01*
X146627733Y-132154914D01*
X146580114Y-132250152D01*
X146532495Y-132297771D01*
X146437257Y-132345390D01*
X146056304Y-132345390D01*
X147580114Y-132821580D02*
X147008685Y-132821580D01*
X147294400Y-132821580D02*
X147294400Y-131821580D01*
X147199161Y-131964438D01*
X147103923Y-132059676D01*
X147008685Y-132107295D01*
%TO.C,C14*%
X117525742Y-112165042D02*
X117478123Y-112212661D01*
X117335266Y-112260280D01*
X117240028Y-112260280D01*
X117097171Y-112212661D01*
X117001933Y-112117423D01*
X116954314Y-112022185D01*
X116906695Y-111831709D01*
X116906695Y-111688852D01*
X116954314Y-111498376D01*
X117001933Y-111403138D01*
X117097171Y-111307900D01*
X117240028Y-111260280D01*
X117335266Y-111260280D01*
X117478123Y-111307900D01*
X117525742Y-111355519D01*
X118478123Y-112260280D02*
X117906695Y-112260280D01*
X118192409Y-112260280D02*
X118192409Y-111260280D01*
X118097171Y-111403138D01*
X118001933Y-111498376D01*
X117906695Y-111545995D01*
X119335266Y-111593614D02*
X119335266Y-112260280D01*
X119097171Y-111212661D02*
X118859076Y-111926947D01*
X119478123Y-111926947D01*
%TO.C,R11*%
X156286142Y-121442380D02*
X155952809Y-120966190D01*
X155714714Y-121442380D02*
X155714714Y-120442380D01*
X156095666Y-120442380D01*
X156190904Y-120490000D01*
X156238523Y-120537619D01*
X156286142Y-120632857D01*
X156286142Y-120775714D01*
X156238523Y-120870952D01*
X156190904Y-120918571D01*
X156095666Y-120966190D01*
X155714714Y-120966190D01*
X157238523Y-121442380D02*
X156667095Y-121442380D01*
X156952809Y-121442380D02*
X156952809Y-120442380D01*
X156857571Y-120585238D01*
X156762333Y-120680476D01*
X156667095Y-120728095D01*
X158190904Y-121442380D02*
X157619476Y-121442380D01*
X157905190Y-121442380D02*
X157905190Y-120442380D01*
X157809952Y-120585238D01*
X157714714Y-120680476D01*
X157619476Y-120728095D01*
%TO.C,R12*%
X147769980Y-124149757D02*
X147293790Y-124483090D01*
X147769980Y-124721185D02*
X146769980Y-124721185D01*
X146769980Y-124340233D01*
X146817600Y-124244995D01*
X146865219Y-124197376D01*
X146960457Y-124149757D01*
X147103314Y-124149757D01*
X147198552Y-124197376D01*
X147246171Y-124244995D01*
X147293790Y-124340233D01*
X147293790Y-124721185D01*
X147769980Y-123197376D02*
X147769980Y-123768804D01*
X147769980Y-123483090D02*
X146769980Y-123483090D01*
X146912838Y-123578328D01*
X147008076Y-123673566D01*
X147055695Y-123768804D01*
X146865219Y-122816423D02*
X146817600Y-122768804D01*
X146769980Y-122673566D01*
X146769980Y-122435471D01*
X146817600Y-122340233D01*
X146865219Y-122292614D01*
X146960457Y-122244995D01*
X147055695Y-122244995D01*
X147198552Y-122292614D01*
X147769980Y-122864042D01*
X147769980Y-122244995D01*
%TO.C,R2*%
X134140380Y-128040066D02*
X133664190Y-128373400D01*
X134140380Y-128611495D02*
X133140380Y-128611495D01*
X133140380Y-128230542D01*
X133188000Y-128135304D01*
X133235619Y-128087685D01*
X133330857Y-128040066D01*
X133473714Y-128040066D01*
X133568952Y-128087685D01*
X133616571Y-128135304D01*
X133664190Y-128230542D01*
X133664190Y-128611495D01*
X133235619Y-127659114D02*
X133188000Y-127611495D01*
X133140380Y-127516257D01*
X133140380Y-127278161D01*
X133188000Y-127182923D01*
X133235619Y-127135304D01*
X133330857Y-127087685D01*
X133426095Y-127087685D01*
X133568952Y-127135304D01*
X134140380Y-127706733D01*
X134140380Y-127087685D01*
%TO.C,D4*%
X156187580Y-129475095D02*
X155187580Y-129475095D01*
X155187580Y-129237000D01*
X155235200Y-129094142D01*
X155330438Y-128998904D01*
X155425676Y-128951285D01*
X155616152Y-128903666D01*
X155759009Y-128903666D01*
X155949485Y-128951285D01*
X156044723Y-128998904D01*
X156139961Y-129094142D01*
X156187580Y-129237000D01*
X156187580Y-129475095D01*
X155520914Y-128046523D02*
X156187580Y-128046523D01*
X155139961Y-128284619D02*
X155854247Y-128522714D01*
X155854247Y-127903666D01*
D11*
%TO.C,D1*%
X141102800Y-116697400D02*
X141102800Y-122097400D01*
X141102800Y-116697400D02*
X137802800Y-116697400D01*
X137802800Y-116697400D02*
X137802800Y-122097400D01*
%TO.C,R17*%
X129985824Y-124214100D02*
X129476376Y-124214100D01*
X129985824Y-123169100D02*
X129476376Y-123169100D01*
%TO.C,R7*%
X132722076Y-79903700D02*
X133231524Y-79903700D01*
X132722076Y-80948700D02*
X133231524Y-80948700D01*
D12*
%TO.C,P1*%
X125615409Y-70096138D02*
G75*
G03*
X125615409Y-70096138I-29997J0D01*
G01*
D11*
%TO.C,C19*%
X119952733Y-101494900D02*
X120245267Y-101494900D01*
X119952733Y-100474900D02*
X120245267Y-100474900D01*
%TO.C,C12*%
X121121133Y-112847300D02*
X121413667Y-112847300D01*
X121121133Y-113867300D02*
X121413667Y-113867300D01*
%TO.C,C13*%
X153417667Y-116644600D02*
X153125133Y-116644600D01*
X153417667Y-117664600D02*
X153125133Y-117664600D01*
%TO.C,U6*%
X132653000Y-106628400D02*
X132653000Y-112638400D01*
X125833000Y-108878400D02*
X125833000Y-112638400D01*
X132653000Y-112638400D02*
X131393000Y-112638400D01*
X125833000Y-112638400D02*
X127093000Y-112638400D01*
%TO.C,C2*%
X156579533Y-118528200D02*
X156872067Y-118528200D01*
X156579533Y-117508200D02*
X156872067Y-117508200D01*
%TO.C,Q3*%
X130027200Y-121024600D02*
X130027200Y-120374600D01*
X133147200Y-121024600D02*
X133147200Y-121674600D01*
X130027200Y-121024600D02*
X130027200Y-122699600D01*
X133147200Y-121024600D02*
X133147200Y-120374600D01*
D12*
%TO.C,P2*%
X139849409Y-70096138D02*
G75*
G03*
X139849409Y-70096138I-29997J0D01*
G01*
%TO.C,P4*%
X168317409Y-70096138D02*
G75*
G03*
X168317409Y-70096138I-29997J0D01*
G01*
D11*
%TO.C,R8*%
X161577924Y-79852900D02*
X161068476Y-79852900D01*
X161577924Y-80897900D02*
X161068476Y-80897900D01*
D12*
%TO.C,P3*%
X154083409Y-70096138D02*
G75*
G03*
X154083409Y-70096138I-29997J0D01*
G01*
D11*
%TO.C,J5*%
X167682400Y-124622200D02*
X165022400Y-124622200D01*
X167682400Y-127222200D02*
X166352400Y-127222200D01*
X167682400Y-125892200D02*
X167682400Y-127222200D01*
X167682400Y-122022200D02*
X165022400Y-122022200D01*
X165022400Y-124622200D02*
X165022400Y-122022200D01*
X167682400Y-124622200D02*
X167682400Y-122022200D01*
%TO.C,C7*%
X136516163Y-88535200D02*
X130760600Y-88535200D01*
X137580600Y-82779637D02*
X137580600Y-84065200D01*
X137580600Y-87470763D02*
X137580600Y-86185200D01*
X138608100Y-86972700D02*
X137820600Y-86972700D01*
X138214350Y-87366450D02*
X138214350Y-86578950D01*
X137580600Y-87470763D02*
X136516163Y-88535200D01*
X136516163Y-81715200D02*
X130760600Y-81715200D01*
X130760600Y-81715200D02*
X130760600Y-84065200D01*
X137580600Y-82779637D02*
X136516163Y-81715200D01*
X130760600Y-88535200D02*
X130760600Y-86185200D01*
D13*
%TO.C,MK1*%
X122408200Y-101650300D02*
G75*
G03*
X122408200Y-101650300I-100000J0D01*
G01*
D12*
%TO.C,SW1*%
X155505025Y-128770251D02*
G75*
G03*
X155505025Y-128770251I-29997J0D01*
G01*
D11*
%TO.C,R19*%
X165655700Y-82635276D02*
X165655700Y-83144724D01*
X164610700Y-82635276D02*
X164610700Y-83144724D01*
%TO.C,R6*%
X119006076Y-80948700D02*
X119515524Y-80948700D01*
X119006076Y-79903700D02*
X119515524Y-79903700D01*
%TO.C,D3*%
X158400600Y-113027000D02*
X158400600Y-110567000D01*
X158400600Y-110567000D02*
X156930600Y-110567000D01*
X156930600Y-110567000D02*
X156930600Y-113027000D01*
D12*
%TO.C,U4*%
X148700410Y-111296847D02*
G75*
G03*
X148700410Y-111296847I-29972J0D01*
G01*
D14*
X149290453Y-110721028D02*
G75*
G03*
X149290453Y-110721028I-170180J0D01*
G01*
D11*
%TO.C,C17*%
X125384200Y-111623533D02*
X125384200Y-111916067D01*
X124364200Y-111623533D02*
X124364200Y-111916067D01*
%TO.C,C20*%
X133080400Y-104435333D02*
X133080400Y-104727867D01*
X132060400Y-104435333D02*
X132060400Y-104727867D01*
%TO.C,R16*%
X124228300Y-103346376D02*
X124228300Y-103855824D01*
X123183300Y-103346376D02*
X123183300Y-103855824D01*
D15*
%TO.C,L1*%
X124840300Y-130756300D02*
G75*
G03*
X124840300Y-130756300I-125000J0D01*
G01*
D11*
%TO.C,R18*%
X129605276Y-118854700D02*
X130114724Y-118854700D01*
X129605276Y-117809700D02*
X130114724Y-117809700D01*
%TO.C,R20*%
X118259300Y-123503876D02*
X118259300Y-124013324D01*
X117214300Y-123503876D02*
X117214300Y-124013324D01*
%TO.C,C9*%
X160364400Y-87470763D02*
X159299963Y-88535200D01*
X161391900Y-86972700D02*
X160604400Y-86972700D01*
X160364400Y-87470763D02*
X160364400Y-86185200D01*
X159299963Y-81715200D02*
X153544400Y-81715200D01*
X160364400Y-82779637D02*
X160364400Y-84065200D01*
X160364400Y-82779637D02*
X159299963Y-81715200D01*
X153544400Y-88535200D02*
X153544400Y-86185200D01*
X160998150Y-87366450D02*
X160998150Y-86578950D01*
X159299963Y-88535200D02*
X153544400Y-88535200D01*
X153544400Y-81715200D02*
X153544400Y-84065200D01*
%TO.C,D2*%
X156905200Y-113945200D02*
X156905200Y-116405200D01*
X158375200Y-113945200D02*
X156905200Y-113945200D01*
X158375200Y-116405200D02*
X158375200Y-113945200D01*
%TO.C,R4*%
X155593700Y-112467724D02*
X155593700Y-111958276D01*
X156638700Y-112467724D02*
X156638700Y-111958276D01*
%TO.C,R5*%
X121012676Y-117330600D02*
X121522124Y-117330600D01*
X121012676Y-118375600D02*
X121522124Y-118375600D01*
%TO.C,R3*%
X156638700Y-115325076D02*
X156638700Y-115834524D01*
X155593700Y-115325076D02*
X155593700Y-115834524D01*
%TO.C,C16*%
X125384200Y-108106067D02*
X125384200Y-107813533D01*
X124364200Y-108106067D02*
X124364200Y-107813533D01*
%TO.C,C3*%
X127031200Y-128603433D02*
X127031200Y-128895967D01*
X128051200Y-128603433D02*
X128051200Y-128895967D01*
%TO.C,D5*%
X165947600Y-81204600D02*
X165947600Y-83664600D01*
X167417600Y-81204600D02*
X165947600Y-81204600D01*
X167417600Y-83664600D02*
X167417600Y-81204600D01*
%TO.C,C15*%
X131581800Y-104727867D02*
X131581800Y-104435333D01*
X130561800Y-104727867D02*
X130561800Y-104435333D01*
D16*
%TO.C,JST_lipo1*%
X160656300Y-115373000D02*
X168256300Y-115373000D01*
X168256300Y-115373000D02*
X168256300Y-121273000D01*
X160656300Y-121273000D02*
X160656300Y-115373000D01*
X168256300Y-121273000D02*
X160656300Y-121273000D01*
D13*
X160206300Y-119323000D02*
G75*
G03*
X160206300Y-119323000I-100000J0D01*
G01*
D11*
%TO.C,R9*%
X147303124Y-79852900D02*
X146793676Y-79852900D01*
X147303124Y-80897900D02*
X146793676Y-80897900D01*
%TO.C,R13*%
X149313300Y-126885824D02*
X149313300Y-126376376D01*
X148268300Y-126885824D02*
X148268300Y-126376376D01*
D10*
%TO.C,U5*%
X127852800Y-96628400D02*
X128352800Y-96628400D01*
X127852800Y-101128400D02*
X127852800Y-101628400D01*
X132852800Y-96628400D02*
X132352800Y-96628400D01*
X127852800Y-97128400D02*
X127852800Y-96628400D01*
X132852800Y-101628400D02*
X132352800Y-101628400D01*
X132852800Y-97128400D02*
X132852800Y-96628400D01*
X132852800Y-101128400D02*
X132852800Y-101628400D01*
X127852800Y-101628400D02*
X128352800Y-101628400D01*
D15*
X127658400Y-101922400D02*
G75*
G03*
X127658400Y-101922400I-125000J0D01*
G01*
D11*
%TO.C,C6*%
X118136800Y-88535200D02*
X118136800Y-86185200D01*
X124956800Y-82779637D02*
X124956800Y-84065200D01*
X123892363Y-88535200D02*
X118136800Y-88535200D01*
X124956800Y-82779637D02*
X123892363Y-81715200D01*
X125590550Y-87366450D02*
X125590550Y-86578950D01*
X124956800Y-87470763D02*
X124956800Y-86185200D01*
X125984300Y-86972700D02*
X125196800Y-86972700D01*
X124956800Y-87470763D02*
X123892363Y-88535200D01*
X118136800Y-81715200D02*
X118136800Y-84065200D01*
X123892363Y-81715200D02*
X118136800Y-81715200D01*
%TO.C,Q1*%
X152814600Y-126402500D02*
X152814600Y-127052500D01*
X149694600Y-126402500D02*
X149694600Y-128077500D01*
X152814600Y-126402500D02*
X152814600Y-125752500D01*
X149694600Y-126402500D02*
X149694600Y-125752500D01*
%TO.C,R10*%
X124365476Y-117330600D02*
X124874924Y-117330600D01*
X124365476Y-118375600D02*
X124874924Y-118375600D01*
D14*
%TO.C,U1*%
X119982408Y-124849027D02*
G75*
G03*
X119982408Y-124849027I-170180J0D01*
G01*
D12*
X120418019Y-125298862D02*
G75*
G03*
X120418019Y-125298862I-29972J0D01*
G01*
D11*
%TO.C,C8*%
X150687000Y-82779637D02*
X149622563Y-81715200D01*
X151320750Y-87366450D02*
X151320750Y-86578950D01*
X143867000Y-88535200D02*
X143867000Y-86185200D01*
X150687000Y-87470763D02*
X150687000Y-86185200D01*
X150687000Y-82779637D02*
X150687000Y-84065200D01*
X143867000Y-81715200D02*
X143867000Y-84065200D01*
X151714500Y-86972700D02*
X150927000Y-86972700D01*
X149622563Y-81715200D02*
X143867000Y-81715200D01*
X150687000Y-87470763D02*
X149622563Y-88535200D01*
X149622563Y-88535200D02*
X143867000Y-88535200D01*
%TO.C,U3*%
X123465600Y-90294100D02*
X118969800Y-90294100D01*
X118969800Y-95399500D02*
X123465600Y-95399500D01*
X121522500Y-95399500D02*
G75*
G03*
X120912900Y-95399500I-304800J0D01*
G01*
D17*
X117052100Y-92387301D02*
X117052100Y-92006301D01*
X117052100Y-92006301D02*
X117306100Y-92006301D01*
X117306100Y-92006301D02*
X117306100Y-92387301D01*
X117306100Y-92387301D02*
X117052100Y-92387301D01*
G36*
X117306100Y-92387301D02*
G01*
X117052100Y-92387301D01*
X117052100Y-92006301D01*
X117306100Y-92006301D01*
X117306100Y-92387301D01*
G37*
X117306100Y-92387301D02*
X117052100Y-92387301D01*
X117052100Y-92006301D01*
X117306100Y-92006301D01*
X117306100Y-92387301D01*
D11*
%TO.C,C10*%
X121120033Y-116864500D02*
X121412567Y-116864500D01*
X121120033Y-115844500D02*
X121412567Y-115844500D01*
%TO.C,C1*%
X125532600Y-128602333D02*
X125532600Y-128894867D01*
X126552600Y-128602333D02*
X126552600Y-128894867D01*
%TO.C,C11*%
X121120033Y-114345900D02*
X121412567Y-114345900D01*
X121120033Y-115365900D02*
X121412567Y-115365900D01*
%TO.C,C5*%
X124364200Y-114950933D02*
X124364200Y-115243467D01*
X125384200Y-114950933D02*
X125384200Y-115243467D01*
%TO.C,Q2*%
X126590800Y-121015400D02*
X126590800Y-120365400D01*
X129710800Y-121015400D02*
X129710800Y-121665400D01*
X129710800Y-121015400D02*
X129710800Y-120365400D01*
X126590800Y-121015400D02*
X126590800Y-122690400D01*
%TO.C,C18*%
X117226800Y-127257667D02*
X117226800Y-126965133D01*
X118246800Y-127257667D02*
X118246800Y-126965133D01*
D16*
%TO.C,U2*%
X142670800Y-90476200D02*
X142670800Y-92926200D01*
X143320800Y-90476200D02*
X142670800Y-90476200D01*
X142670800Y-106026200D02*
X142670800Y-108476200D01*
X142670800Y-108476200D02*
X143320800Y-108476200D01*
D13*
X160770800Y-89476200D02*
G75*
G03*
X160770800Y-89476200I-100000J0D01*
G01*
D11*
%TO.C,R15*%
X154266300Y-126936624D02*
X154266300Y-126427176D01*
X153221300Y-126936624D02*
X153221300Y-126427176D01*
%TO.C,C4*%
X119077967Y-97039800D02*
X118785433Y-97039800D01*
X119077967Y-96019800D02*
X118785433Y-96019800D01*
%TO.C,R14*%
X146627500Y-113547076D02*
X146627500Y-114056524D01*
X147672500Y-113547076D02*
X147672500Y-114056524D01*
%TO.C,R1*%
X147266100Y-130312524D02*
X147266100Y-129803076D01*
X146221100Y-130312524D02*
X146221100Y-129803076D01*
%TO.C,C14*%
X121121133Y-112368700D02*
X121413667Y-112368700D01*
X121121133Y-111348700D02*
X121413667Y-111348700D01*
%TO.C,R11*%
X156471076Y-118968900D02*
X156980524Y-118968900D01*
X156471076Y-120013900D02*
X156980524Y-120013900D01*
%TO.C,R12*%
X146744300Y-126376376D02*
X146744300Y-126885824D01*
X147789300Y-126376376D02*
X147789300Y-126885824D01*
%TO.C,R2*%
X133063900Y-130336476D02*
X133063900Y-130845924D01*
X134108900Y-130336476D02*
X134108900Y-130845924D01*
%TO.C,D4*%
X155007200Y-131785300D02*
X149607200Y-131785300D01*
X155007200Y-128485300D02*
X149607200Y-128485300D01*
X155007200Y-131785300D02*
X155007200Y-128485300D01*
%TD*%
M02*
