%TF.GenerationSoftware,KiCad,Pcbnew,(6.0.0-0)*%
%TF.CreationDate,2022-03-09T17:47:02+01:00*%
%TF.ProjectId,GlowCore,476c6f77-436f-4726-952e-6b696361645f,rev?*%
%TF.SameCoordinates,Original*%
%TF.FileFunction,Soldermask,Bot*%
%TF.FilePolarity,Negative*%
%FSLAX46Y46*%
G04 Gerber Fmt 4.6, Leading zero omitted, Abs format (unit mm)*
G04 Created by KiCad (PCBNEW (6.0.0-0)) date 2022-03-09 17:47:02*
%MOMM*%
%LPD*%
G01*
G04 APERTURE LIST*
%ADD10R,2.200000X2.200000*%
%ADD11C,2.200000*%
%ADD12C,0.500000*%
%ADD13C,0.700000*%
%ADD14O,1.200000X1.800000*%
%ADD15O,1.200000X2.200000*%
%ADD16C,1.800000*%
%ADD17O,1.600000X3.000000*%
%ADD18O,3.200000X1.600000*%
%ADD19C,2.300000*%
%ADD20C,2.100000*%
%ADD21R,1.600000X1.600000*%
%ADD22C,1.600000*%
%ADD23C,0.300000*%
%ADD24R,3.500000X2.000000*%
%ADD25R,1.700000X1.700000*%
%ADD26O,1.700000X1.700000*%
G04 APERTURE END LIST*
D10*
%TO.C,P1*%
X104338608Y-55487450D03*
D11*
X100528600Y-55487450D03*
X96718592Y-55487450D03*
%TD*%
D10*
%TO.C,P2*%
X118572608Y-55487450D03*
D11*
X114762600Y-55487450D03*
X110952592Y-55487450D03*
%TD*%
D10*
%TO.C,P4*%
X147040608Y-55487450D03*
D11*
X143230600Y-55487450D03*
X139420592Y-55487450D03*
%TD*%
D10*
%TO.C,P3*%
X132806608Y-55487450D03*
D11*
X128996600Y-55487450D03*
X125186592Y-55487450D03*
%TD*%
D12*
%TO.C,MK1*%
X107823000Y-78587600D03*
%TD*%
D13*
%TO.C,USB1*%
X123844800Y-108062100D03*
X118064800Y-108062100D03*
D14*
X116634800Y-111742100D03*
X125274800Y-111742100D03*
D15*
X125274800Y-107562100D03*
X116634800Y-107562100D03*
%TD*%
D16*
%TO.C,J1*%
X106798800Y-112137100D03*
D17*
X111648800Y-104687100D03*
X101948800Y-104687100D03*
X111648800Y-109387100D03*
X101948800Y-109387100D03*
D18*
X106798800Y-108887100D03*
D19*
X106798800Y-101187100D03*
%TD*%
D20*
%TO.C,RJ1*%
X130450800Y-108638049D03*
X142439600Y-108638049D03*
D21*
X138995251Y-103790120D03*
D22*
X137975185Y-106330125D03*
X136955119Y-103790120D03*
X135935307Y-106330125D03*
X134915241Y-103790120D03*
X133895175Y-106330125D03*
%TD*%
D23*
%TO.C,U2*%
X140988250Y-76839300D03*
X140988250Y-78674300D03*
X140070750Y-75921800D03*
X140070750Y-77756800D03*
X140070750Y-79591800D03*
X139153250Y-76839300D03*
X139153250Y-78674300D03*
X138235750Y-75921800D03*
X138235750Y-77756800D03*
X138235750Y-79591800D03*
X137318250Y-76839300D03*
X137318250Y-78674300D03*
%TD*%
D24*
%TO.C,U8*%
X152349200Y-99212400D03*
X152349200Y-96207300D03*
%TD*%
D25*
%TO.C,JP2*%
X91846400Y-67081400D03*
D26*
X91846400Y-69621400D03*
X91846400Y-72161400D03*
X91846400Y-74701400D03*
X91846400Y-77241400D03*
X91846400Y-79781400D03*
X91846400Y-82321400D03*
X91846400Y-84861400D03*
X91846400Y-87401400D03*
X91846400Y-89941400D03*
X91846400Y-92481400D03*
X91846400Y-95021400D03*
X91846400Y-97561400D03*
X91846400Y-100101400D03*
X91846400Y-102641400D03*
X91846400Y-105181400D03*
%TD*%
D25*
%TO.C,JP1*%
X112166400Y-95021400D03*
D26*
X112166400Y-92481400D03*
X112166400Y-89941400D03*
X112166400Y-87401400D03*
X112166400Y-84861400D03*
X112166400Y-82321400D03*
X112166400Y-79781400D03*
X112166400Y-77241400D03*
X112166400Y-74701400D03*
X112166400Y-72161400D03*
X112166400Y-69621400D03*
X112166400Y-67081400D03*
%TD*%
M02*
