%TF.GenerationSoftware,KiCad,Pcbnew,(6.0.0-0)*%
%TF.CreationDate,2022-03-09T17:47:02+01:00*%
%TF.ProjectId,GlowCore,476c6f77-436f-4726-952e-6b696361645f,rev?*%
%TF.SameCoordinates,Original*%
%TF.FileFunction,Copper,L2,Bot*%
%TF.FilePolarity,Positive*%
%FSLAX46Y46*%
G04 Gerber Fmt 4.6, Leading zero omitted, Abs format (unit mm)*
G04 Created by KiCad (PCBNEW (6.0.0-0)) date 2022-03-09 17:47:02*
%MOMM*%
%LPD*%
G01*
G04 APERTURE LIST*
%TA.AperFunction,ComponentPad*%
%ADD10R,2.200000X2.200000*%
%TD*%
%TA.AperFunction,ComponentPad*%
%ADD11C,2.200000*%
%TD*%
%TA.AperFunction,ComponentPad*%
%ADD12C,0.700000*%
%TD*%
%TA.AperFunction,ComponentPad*%
%ADD13O,1.200000X1.800000*%
%TD*%
%TA.AperFunction,ComponentPad*%
%ADD14O,1.200000X2.200000*%
%TD*%
%TA.AperFunction,ComponentPad*%
%ADD15C,1.800000*%
%TD*%
%TA.AperFunction,ComponentPad*%
%ADD16O,1.600000X3.000000*%
%TD*%
%TA.AperFunction,ComponentPad*%
%ADD17O,3.200000X1.600000*%
%TD*%
%TA.AperFunction,ComponentPad*%
%ADD18C,2.300000*%
%TD*%
%TA.AperFunction,ComponentPad*%
%ADD19R,1.600000X1.600000*%
%TD*%
%TA.AperFunction,ComponentPad*%
%ADD20C,1.600000*%
%TD*%
%TA.AperFunction,ComponentPad*%
%ADD21C,0.300000*%
%TD*%
%TA.AperFunction,SMDPad,CuDef*%
%ADD22R,3.500000X2.000000*%
%TD*%
%TA.AperFunction,ComponentPad*%
%ADD23R,1.700000X1.700000*%
%TD*%
%TA.AperFunction,ComponentPad*%
%ADD24O,1.700000X1.700000*%
%TD*%
G04 APERTURE END LIST*
D10*
%TO.P,P1,1,1*%
%TO.N,+5V*%
X104338608Y-55487450D03*
D11*
%TO.P,P1,2,2*%
%TO.N,LED1 DATA OUT*%
X100528600Y-55487450D03*
%TO.P,P1,3,3*%
%TO.N,GND*%
X96718592Y-55487450D03*
%TD*%
D10*
%TO.P,P2,1,1*%
%TO.N,+5V*%
X118572608Y-55487450D03*
D11*
%TO.P,P2,2,2*%
%TO.N,LED2 DATA OUT*%
X114762600Y-55487450D03*
%TO.P,P2,3,3*%
%TO.N,GND*%
X110952592Y-55487450D03*
%TD*%
D10*
%TO.P,P4,1,1*%
%TO.N,+5V*%
X147040608Y-55487450D03*
D11*
%TO.P,P4,2,2*%
%TO.N,LED4 DATA OUT*%
X143230600Y-55487450D03*
%TO.P,P4,3,3*%
%TO.N,GND*%
X139420592Y-55487450D03*
%TD*%
D10*
%TO.P,P3,1,1*%
%TO.N,+5V*%
X132806608Y-55487450D03*
D11*
%TO.P,P3,2,2*%
%TO.N,LED3 DATA OUT*%
X128996600Y-55487450D03*
%TO.P,P3,3,3*%
%TO.N,GND*%
X125186592Y-55487450D03*
%TD*%
D12*
%TO.P,USB1,*%
%TO.N,*%
X123844800Y-108062100D03*
X118064800Y-108062100D03*
D13*
%TO.P,USB1,SHELL,SHELL*%
%TO.N,GND*%
X116634800Y-111742100D03*
X125274800Y-111742100D03*
D14*
X125274800Y-107562100D03*
X116634800Y-107562100D03*
%TD*%
D15*
%TO.P,J1,*%
%TO.N,*%
X106798800Y-112137100D03*
D16*
%TO.P,J1,1*%
%TO.N,GND*%
X111648800Y-104687100D03*
X101948800Y-104687100D03*
X111648800Y-109387100D03*
X101948800Y-109387100D03*
D17*
%TO.P,J1,2*%
%TO.N,N/C*%
X106798800Y-108887100D03*
D18*
%TO.P,J1,3*%
%TO.N,+5V*%
X106798800Y-101187100D03*
%TD*%
D19*
%TO.P,RJ1,1,1*%
%TO.N,unconnected-(RJ1-Pad1)*%
X138995251Y-103790120D03*
D20*
%TO.P,RJ1,2,2*%
%TO.N,RECEIVER 5V*%
X137975185Y-106330125D03*
%TO.P,RJ1,3,3*%
%TO.N,LED1 DATA IN*%
X136955119Y-103790120D03*
%TO.P,RJ1,4,4*%
%TO.N,GND*%
X135935307Y-106330125D03*
%TO.P,RJ1,5,5*%
%TO.N,unconnected-(RJ1-Pad5)*%
X134915241Y-103790120D03*
%TO.P,RJ1,6,6*%
%TO.N,unconnected-(RJ1-Pad6)*%
X133895175Y-106330125D03*
%TD*%
D21*
%TO.P,U2,39_10,GND*%
%TO.N,GND*%
X140988250Y-76839300D03*
%TO.P,U2,39_11,GND*%
X140988250Y-78674300D03*
%TO.P,U2,39_12,GND*%
X140070750Y-75921800D03*
%TO.P,U2,39_13,GND*%
X140070750Y-77756800D03*
%TO.P,U2,39_14,GND*%
X140070750Y-79591800D03*
%TO.P,U2,39_15,GND*%
X139153250Y-76839300D03*
%TO.P,U2,39_16,GND*%
X139153250Y-78674300D03*
%TO.P,U2,39_17,GND*%
X138235750Y-75921800D03*
%TO.P,U2,39_18,GND*%
X138235750Y-77756800D03*
%TO.P,U2,39_19,GND*%
X138235750Y-79591800D03*
%TO.P,U2,39_20,GND*%
X137318250Y-76839300D03*
%TO.P,U2,39_21,GND*%
X137318250Y-78674300D03*
%TD*%
D22*
%TO.P,U8,1,+*%
%TO.N,+BATT*%
X152349200Y-99212400D03*
%TO.P,U8,2,-*%
%TO.N,GND*%
X152349200Y-96207300D03*
%TD*%
D23*
%TO.P,JP2,1,1*%
%TO.N,IO21*%
X91846400Y-67081400D03*
D24*
%TO.P,JP2,2,2*%
%TO.N,IO17{slash}LED2*%
X91846400Y-69621400D03*
%TO.P,JP2,3,3*%
%TO.N,IO16{slash}LED1*%
X91846400Y-72161400D03*
%TO.P,JP2,4,4*%
%TO.N,IO19{slash}LED4*%
X91846400Y-74701400D03*
%TO.P,JP2,5,5*%
%TO.N,IO18{slash}LED3*%
X91846400Y-77241400D03*
%TO.P,JP2,6,6*%
%TO.N,IO5*%
X91846400Y-79781400D03*
%TO.P,JP2,7,7*%
%TO.N,IO4{slash}A5*%
X91846400Y-82321400D03*
%TO.P,JP2,8,8*%
%TO.N,IO36{slash}A4{slash}SENSOR_VP*%
X91846400Y-84861400D03*
%TO.P,JP2,9,9*%
%TO.N,I39{slash}A3{slash}SENSOR_VN*%
X91846400Y-87401400D03*
%TO.P,JP2,10,10*%
%TO.N,I34{slash}A2*%
X91846400Y-89941400D03*
%TO.P,JP2,11,11*%
%TO.N,IO25{slash}A1{slash}DAC1*%
X91846400Y-92481400D03*
%TO.P,JP2,12,12*%
%TO.N,IO26{slash}A0{slash}DAC2*%
X91846400Y-95021400D03*
%TO.P,JP2,13,13*%
%TO.N,GND*%
X91846400Y-97561400D03*
%TO.P,JP2,14,14*%
%TO.N,unconnected-(JP2-Pad14)*%
X91846400Y-100101400D03*
%TO.P,JP2,15,15*%
%TO.N,+3V3*%
X91846400Y-102641400D03*
%TO.P,JP2,16,16*%
%TO.N,RESET*%
X91846400Y-105181400D03*
%TD*%
D23*
%TO.P,JP1,1,1*%
%TO.N,+BATT*%
X112166400Y-95021400D03*
D24*
%TO.P,JP1,2,2*%
%TO.N,POWER_EN*%
X112166400Y-92481400D03*
%TO.P,JP1,3,3*%
%TO.N,+5V*%
X112166400Y-89941400D03*
%TO.P,JP1,4,4*%
%TO.N,IO13{slash}MOSI*%
X112166400Y-87401400D03*
%TO.P,JP1,5,5*%
%TO.N,IO12{slash}MISO*%
X112166400Y-84861400D03*
%TO.P,JP1,6,6*%
%TO.N,IO27*%
X112166400Y-82321400D03*
%TO.P,JP1,7,7*%
%TO.N,IO33*%
X112166400Y-79781400D03*
%TO.P,JP1,8,8*%
%TO.N,IO15{slash}WS*%
X112166400Y-77241400D03*
%TO.P,JP1,9,9*%
%TO.N,IO32{slash}SD*%
X112166400Y-74701400D03*
%TO.P,JP1,10,10*%
%TO.N,IO14{slash}SCK*%
X112166400Y-72161400D03*
%TO.P,JP1,11,11*%
%TO.N,IO22*%
X112166400Y-69621400D03*
%TO.P,JP1,12,12*%
%TO.N,IO23*%
X112166400Y-67081400D03*
%TD*%
M02*
