%TF.GenerationSoftware,KiCad,Pcbnew,(6.0.0-0)*%
%TF.CreationDate,2022-02-02T11:17:39+01:00*%
%TF.ProjectId,GlowCore,476c6f77-436f-4726-952e-6b696361645f,rev?*%
%TF.SameCoordinates,Original*%
%TF.FileFunction,Soldermask,Bot*%
%TF.FilePolarity,Negative*%
%FSLAX46Y46*%
G04 Gerber Fmt 4.6, Leading zero omitted, Abs format (unit mm)*
G04 Created by KiCad (PCBNEW (6.0.0-0)) date 2022-02-02 11:17:39*
%MOMM*%
%LPD*%
G01*
G04 APERTURE LIST*
%ADD10R,2.200000X2.200000*%
%ADD11C,2.200000*%
%ADD12R,1.700000X1.700000*%
%ADD13O,1.700000X1.700000*%
%ADD14C,0.500000*%
%ADD15C,0.700000*%
%ADD16O,2.200000X1.200000*%
%ADD17O,1.800000X1.200000*%
%ADD18C,6.400000*%
%ADD19R,1.308000X1.308000*%
%ADD20C,1.308000*%
%ADD21C,0.300000*%
%ADD22C,3.200000*%
%ADD23R,1.000000X1.500000*%
G04 APERTURE END LIST*
D10*
%TO.C,P1*%
X126709050Y-126822192D03*
D11*
X126709050Y-130632200D03*
X126709050Y-134442208D03*
%TD*%
D10*
%TO.C,P2*%
X126709050Y-112588192D03*
D11*
X126709050Y-116398200D03*
X126709050Y-120208208D03*
%TD*%
D10*
%TO.C,P4*%
X126709050Y-84120192D03*
D11*
X126709050Y-87930200D03*
X126709050Y-91740208D03*
%TD*%
D12*
%TO.C,JP2*%
X168710000Y-135001000D03*
D13*
X166170000Y-135001000D03*
X163630000Y-135001000D03*
X161090000Y-135001000D03*
X158550000Y-135001000D03*
X156010000Y-135001000D03*
X153470000Y-135001000D03*
X150930000Y-135001000D03*
X148390000Y-135001000D03*
X145850000Y-135001000D03*
X143310000Y-135001000D03*
X140770000Y-135001000D03*
X138230000Y-135001000D03*
X135690000Y-135001000D03*
X133150000Y-135001000D03*
X130610000Y-135001000D03*
%TD*%
D10*
%TO.C,P3*%
X126709050Y-98354192D03*
D11*
X126709050Y-102164200D03*
X126709050Y-105974208D03*
%TD*%
D12*
%TO.C,J5*%
X174498000Y-83642200D03*
D13*
X171958000Y-83642200D03*
%TD*%
D14*
%TO.C,MK1*%
X152156100Y-130211400D03*
%TD*%
D15*
%TO.C,USB1*%
X176997700Y-112211600D03*
X176997700Y-106431600D03*
D16*
X176497700Y-113641600D03*
X176497700Y-105001600D03*
D17*
X180677700Y-105001600D03*
X180677700Y-113641600D03*
%TD*%
D18*
%TO.C,H2*%
X167513000Y-104470200D03*
%TD*%
D19*
%TO.C,JST_lipo1*%
X167928800Y-87988300D03*
D20*
X165928800Y-87988300D03*
%TD*%
D12*
%TO.C,JP1*%
X140770000Y-114681000D03*
D13*
X143310000Y-114681000D03*
X145850000Y-114681000D03*
X148390000Y-114681000D03*
X150930000Y-114681000D03*
X153470000Y-114681000D03*
X156010000Y-114681000D03*
X158550000Y-114681000D03*
X161090000Y-114681000D03*
X163630000Y-114681000D03*
X166170000Y-114681000D03*
X168710000Y-114681000D03*
%TD*%
D21*
%TO.C,U2*%
X146164500Y-94978800D03*
X147999500Y-94978800D03*
X145247000Y-95896300D03*
X147082000Y-95896300D03*
X148917000Y-95896300D03*
X146164500Y-96813800D03*
X147999500Y-96813800D03*
X145247000Y-97731300D03*
X147082000Y-97731300D03*
X148917000Y-97731300D03*
X146164500Y-98648800D03*
X147999500Y-98648800D03*
%TD*%
D22*
%TO.C,H1*%
X140995400Y-120218200D03*
%TD*%
D23*
%TO.C,Status_LED1*%
X130617200Y-83972400D03*
X131917200Y-83972400D03*
%TD*%
M02*
