M48
; DRILL file {KiCad (6.0.0-0)} date 2022 February 03, Thursday 17:18:56
; FORMAT={-:-/ absolute / inch / decimal}
; #@! TF.CreationDate,2022-02-03T17:18:56+01:00
; #@! TF.GenerationSoftware,Kicad,Pcbnew,(6.0.0-0)
; #@! TF.FileFunction,Plated,1,2,PTH
FMAT,2
INCH
; #@! TA.AperFunction,Plated,PTH,ComponentDrill
T1C0.0079
; #@! TA.AperFunction,Plated,PTH,ViaDrill
T2C0.0157
; #@! TA.AperFunction,Plated,PTH,ComponentDrill
T3C0.0276
; #@! TA.AperFunction,Plated,PTH,ComponentDrill
T4C0.0276
; #@! TA.AperFunction,Plated,PTH,ComponentDrill
T5C0.0315
; #@! TA.AperFunction,Plated,PTH,ComponentDrill
T6C0.0394
; #@! TA.AperFunction,Plated,PTH,ComponentDrill
T7C0.0591
; #@! TA.AperFunction,Plated,PTH,ComponentDrill
T8C0.1260
%
G90
G05
T1
X5.9585Y-3.8409
X5.9585Y-3.9131
X5.9946Y-3.8048
X5.9946Y-3.877
X5.9946Y-3.9493
X6.0307Y-3.8409
X6.0307Y-3.9131
X6.0669Y-3.8048
X6.0669Y-3.877
X6.0669Y-3.9493
X6.103Y-3.8409
X6.103Y-3.9131
T2
X4.6034Y-3.8785
X4.6173Y-3.5476
X4.6188Y-3.8387
X4.6523Y-3.4437
X4.6533Y-3.5258
X4.6733Y-4.1697
X4.6813Y-3.2844
X4.7377Y-3.843
X4.7431Y-3.7514
X4.7844Y-3.9317
X4.8123Y-3.6184
X4.815Y-3.4494
X4.8612Y-3.8541
X4.8634Y-3.7728
X4.8738Y-4.3592
X4.8742Y-3.9385
X4.8794Y-3.454
X4.8849Y-3.5441
X4.9028Y-3.7638
X4.9193Y-4.0529
X4.9196Y-4.1223
X4.92Y-3.4485
X4.9234Y-3.0315
X4.9439Y-3.822
X4.9486Y-4.9643
X4.9571Y-3.9115
X4.9572Y-3.5395
X4.9606Y-4.0257
X4.9749Y-4.386
X4.984Y-3.7817
X4.9892Y-4.5086
X4.9963Y-4.1595
X5.0302Y-4.5868
X5.0324Y-4.5464
X5.0335Y-4.0919
X5.0381Y-3.9947
X5.0383Y-4.1729
X5.0783Y-5.0344
X5.0864Y-4.5893
X5.0966Y-4.9483
X5.101Y-4.5468
X5.1171Y-4.0752
X5.1256Y-4.3802
X5.1289Y-4.4197
X5.1407Y-4.5503
X5.1753Y-3.2804
X5.1806Y-4.5893
X5.1934Y-4.3747
X5.1994Y-3.755
X5.2207Y-5.0666
X5.2244Y-5.1463
X5.2352Y-4.1971
X5.2353Y-4.7331
X5.2502Y-3.9947
X5.2659Y-3.5503
X5.2823Y-3.3553
X5.2895Y-4.3747
X5.3151Y-2.9387
X5.3636Y-4.773
X5.4236Y-3.5616
X5.4397Y-3.6793
X5.4993Y-4.9254
X5.5018Y-3.3286
X5.5481Y-5.0554
X5.5532Y-3.5193
X5.5576Y-3.8873
X5.5588Y-3.7425
X5.5607Y-3.6024
X5.5671Y-3.7819
X5.5819Y-4.8819
X5.5825Y-3.6541
X5.5926Y-3.5124
X5.5953Y-3.382
X5.5955Y-3.5518
X5.5988Y-5.1308
X5.6337Y-3.5334
X5.6338Y-3.5909
X5.6338Y-4.248
X5.6389Y-5.143
X5.6779Y-4.4539
X5.6953Y-3.2774
X5.781Y-3.5038
X5.781Y-3.3988
X5.7812Y-3.9856
X5.7815Y-3.776
X5.7816Y-4.3167
X5.7838Y-4.8887
X5.7982Y-3.7195
X5.8071Y-5.193
X5.826Y-3.6452
X5.826Y-3.7476
X5.876Y-4.3145
X5.9163Y-4.3158
X5.9573Y-3.5014
X5.9623Y-4.1501
X5.976Y-4.3143
X5.9888Y-3.1486
X5.9999Y-3.695
X6.0073Y-4.7254
X6.0186Y-4.8389
X6.0616Y-3.6538
X6.0673Y-3.2774
X6.076Y-4.1874
X6.0933Y-4.8363
X6.0941Y-4.0135
X6.098Y-3.6971
X6.1132Y-5.0082
X6.1185Y-4.9395
X6.1205Y-4.878
X6.1428Y-3.5131
X6.1501Y-3.3986
X6.176Y-3.6981
X6.2221Y-3.2366
X6.226Y-3.5057
X6.226Y-4.1597
X6.2552Y-3.4597
X6.2759Y-3.2897
X6.2823Y-3.2096
X6.3035Y-3.0472
X6.3129Y-3.0867
X6.5299Y-3.1849
T3
X5.4245Y-5.0548
X5.6521Y-5.0548
T5
X6.3782Y-4.619
X6.3782Y-4.6978
T6
X4.5273Y-3.2285
X4.5273Y-3.3285
X4.5273Y-3.4285
X4.5273Y-3.5285
X4.5273Y-3.6285
X4.5273Y-3.7285
X4.5273Y-3.8285
X4.5273Y-3.9285
X4.5273Y-4.0285
X4.5273Y-4.1285
X4.5273Y-4.2285
X4.5273Y-4.3285
X4.5273Y-4.4285
X4.5273Y-4.5285
X4.5273Y-4.6285
X4.5273Y-4.7285
X5.3273Y-3.6285
X5.3273Y-3.7285
X5.3273Y-3.8285
X5.3273Y-3.9285
X5.3273Y-4.0285
X5.3273Y-4.1285
X5.3273Y-4.2285
X5.3273Y-4.3285
X5.3273Y-4.4285
X5.3273Y-4.5285
X5.3273Y-4.6285
X5.3273Y-4.7285
X6.5493Y-4.8564
X6.5493Y-4.9564
T7
X4.5493Y-3.0749
X4.6993Y-3.0749
X4.8493Y-3.0749
X5.1097Y-3.0749
X5.2597Y-3.0749
X5.4097Y-3.0749
X5.6701Y-3.0749
X5.8201Y-3.0749
X5.9701Y-3.0749
X6.2305Y-3.0749
X6.3805Y-3.0749
X6.5305Y-3.0749
T8
X5.7293Y-4.6814
T4
G00X5.3682Y-5.0135
M15
G01X5.3682Y-5.0568
M16
G05
G00X5.3682Y-5.1879
M15
G01X5.3682Y-5.2115
M16
G05
G00X5.7084Y-5.0135
M15
G01X5.7084Y-5.0568
M16
G05
G00X5.7084Y-5.1879
M15
G01X5.7084Y-5.2115
M16
G05
T0
M30
