%TF.GenerationSoftware,KiCad,Pcbnew,(6.0.0-0)*%
%TF.CreationDate,2022-02-02T11:17:39+01:00*%
%TF.ProjectId,GlowCore,476c6f77-436f-4726-952e-6b696361645f,rev?*%
%TF.SameCoordinates,Original*%
%TF.FileFunction,Soldermask,Top*%
%TF.FilePolarity,Negative*%
%FSLAX46Y46*%
G04 Gerber Fmt 4.6, Leading zero omitted, Abs format (unit mm)*
G04 Created by KiCad (PCBNEW (6.0.0-0)) date 2022-02-02 11:17:39*
%MOMM*%
%LPD*%
G01*
G04 APERTURE LIST*
G04 Aperture macros list*
%AMRoundRect*
0 Rectangle with rounded corners*
0 $1 Rounding radius*
0 $2 $3 $4 $5 $6 $7 $8 $9 X,Y pos of 4 corners*
0 Add a 4 corners polygon primitive as box body*
4,1,4,$2,$3,$4,$5,$6,$7,$8,$9,$2,$3,0*
0 Add four circle primitives for the rounded corners*
1,1,$1+$1,$2,$3*
1,1,$1+$1,$4,$5*
1,1,$1+$1,$6,$7*
1,1,$1+$1,$8,$9*
0 Add four rect primitives between the rounded corners*
20,1,$1+$1,$2,$3,$4,$5,0*
20,1,$1+$1,$4,$5,$6,$7,0*
20,1,$1+$1,$6,$7,$8,$9,0*
20,1,$1+$1,$8,$9,$2,$3,0*%
%AMRotRect*
0 Rectangle, with rotation*
0 The origin of the aperture is its center*
0 $1 length*
0 $2 width*
0 $3 Rotation angle, in degrees counterclockwise*
0 Add horizontal line*
21,1,$1,$2,0,0,$3*%
G04 Aperture macros list end*
%ADD10C,0.500000*%
%ADD11R,2.500000X1.800000*%
%ADD12RoundRect,0.237500X-0.237500X0.250000X-0.237500X-0.250000X0.237500X-0.250000X0.237500X0.250000X0*%
%ADD13RoundRect,0.237500X0.237500X-0.250000X0.237500X0.250000X-0.237500X0.250000X-0.237500X-0.250000X0*%
%ADD14R,2.200000X2.200000*%
%ADD15C,2.200000*%
%ADD16R,1.500000X0.900000*%
%ADD17RoundRect,0.237500X0.237500X-0.300000X0.237500X0.300000X-0.237500X0.300000X-0.237500X-0.300000X0*%
%ADD18RoundRect,0.237500X-0.237500X0.300000X-0.237500X-0.300000X0.237500X-0.300000X0.237500X0.300000X0*%
%ADD19R,2.000000X1.500000*%
%ADD20R,2.000000X3.800000*%
%ADD21RoundRect,0.150000X0.587500X0.150000X-0.587500X0.150000X-0.587500X-0.150000X0.587500X-0.150000X0*%
%ADD22R,1.700000X1.700000*%
%ADD23O,1.700000X1.700000*%
%ADD24RoundRect,0.250000X-0.550000X1.500000X-0.550000X-1.500000X0.550000X-1.500000X0.550000X1.500000X0*%
%ADD25C,0.500000*%
%ADD26R,0.600000X0.400000*%
%ADD27RotRect,1.200000X0.900000X105.000000*%
%ADD28RotRect,0.800000X1.100000X105.000000*%
%ADD29RotRect,1.200000X1.100000X105.000000*%
%ADD30RoundRect,0.237500X-0.250000X-0.237500X0.250000X-0.237500X0.250000X0.237500X-0.250000X0.237500X0*%
%ADD31C,0.700000*%
%ADD32R,1.300000X0.600000*%
%ADD33R,1.300000X0.300000*%
%ADD34O,2.200000X1.200000*%
%ADD35O,1.800000X1.200000*%
%ADD36RoundRect,0.237500X-0.287500X-0.237500X0.287500X-0.237500X0.287500X0.237500X-0.287500X0.237500X0*%
%ADD37R,0.600000X1.200000*%
%ADD38R,3.499873X2.500000*%
%ADD39C,6.400000*%
%ADD40RoundRect,0.237500X-0.300000X-0.237500X0.300000X-0.237500X0.300000X0.237500X-0.300000X0.237500X0*%
%ADD41R,2.400000X1.400000*%
%ADD42RoundRect,0.237500X0.250000X0.237500X-0.250000X0.237500X-0.250000X-0.237500X0.250000X-0.237500X0*%
%ADD43RoundRect,0.237500X0.300000X0.237500X-0.300000X0.237500X-0.300000X-0.237500X0.300000X-0.237500X0*%
%ADD44R,1.308000X1.308000*%
%ADD45C,1.308000*%
%ADD46R,0.900000X0.250000*%
%ADD47R,0.250000X0.900000*%
%ADD48R,3.250000X3.250000*%
%ADD49R,1.200000X0.600000*%
%ADD50R,2.500000X3.499873*%
%ADD51R,0.355600X1.676400*%
%ADD52R,2.000000X0.900000*%
%ADD53R,0.900000X2.000000*%
%ADD54R,1.330000X1.330000*%
%ADD55C,0.300000*%
%ADD56C,3.200000*%
%ADD57R,1.800000X2.500000*%
G04 APERTURE END LIST*
D10*
%TO.C,MK1*%
X152826100Y-130211400D02*
G75*
G03*
X152826100Y-130211400I-670000J0D01*
G01*
%TD*%
D11*
%TO.C,D1*%
X166910000Y-110515400D03*
X170910000Y-110515400D03*
%TD*%
D12*
%TO.C,R17*%
X172297400Y-119351000D03*
X172297400Y-121176000D03*
%TD*%
D13*
%TO.C,R7*%
X129032000Y-117930300D03*
X129032000Y-116105300D03*
%TD*%
D14*
%TO.C,P1*%
X126709050Y-126822192D03*
D15*
X126709050Y-130632200D03*
X126709050Y-134442208D03*
%TD*%
D16*
%TO.C,SW2*%
X171709000Y-135420800D03*
X175509000Y-135420800D03*
X175509000Y-133920800D03*
X171709000Y-133920800D03*
%TD*%
D17*
%TO.C,C19*%
X149590700Y-130758100D03*
X149590700Y-129033100D03*
%TD*%
%TO.C,C12*%
X161963100Y-129589700D03*
X161963100Y-127864700D03*
%TD*%
D18*
%TO.C,C13*%
X165760400Y-95860700D03*
X165760400Y-97585700D03*
%TD*%
D19*
%TO.C,U6*%
X156184200Y-118451600D03*
X156184200Y-120751600D03*
X156184200Y-123051600D03*
D20*
X162484200Y-120751600D03*
%TD*%
D17*
%TO.C,C2*%
X166624000Y-94131300D03*
X166624000Y-92406300D03*
%TD*%
D21*
%TO.C,Q3*%
X170567900Y-119357400D03*
X170567900Y-117457400D03*
X168692900Y-118407400D03*
%TD*%
D14*
%TO.C,P2*%
X126709050Y-112588192D03*
D15*
X126709050Y-116398200D03*
X126709050Y-120208208D03*
%TD*%
D14*
%TO.C,P4*%
X126709050Y-84120192D03*
D15*
X126709050Y-87930200D03*
X126709050Y-91740208D03*
%TD*%
D12*
%TO.C,R8*%
X128981200Y-87758900D03*
X128981200Y-89583900D03*
%TD*%
D22*
%TO.C,JP2*%
X168710000Y-135001000D03*
D23*
X166170000Y-135001000D03*
X163630000Y-135001000D03*
X161090000Y-135001000D03*
X158550000Y-135001000D03*
X156010000Y-135001000D03*
X153470000Y-135001000D03*
X150930000Y-135001000D03*
X148390000Y-135001000D03*
X145850000Y-135001000D03*
X143310000Y-135001000D03*
X140770000Y-135001000D03*
X138230000Y-135001000D03*
X135690000Y-135001000D03*
X133150000Y-135001000D03*
X130610000Y-135001000D03*
%TD*%
D14*
%TO.C,P3*%
X126709050Y-98354192D03*
D15*
X126709050Y-102164200D03*
X126709050Y-105974208D03*
%TD*%
D22*
%TO.C,J5*%
X174498000Y-83642200D03*
D23*
X171958000Y-83642200D03*
%TD*%
D24*
%TO.C,C7*%
X133731000Y-113024000D03*
X133731000Y-118624000D03*
%TD*%
D25*
%TO.C,MK1*%
X152156100Y-130211400D03*
D26*
X151081100Y-127636400D03*
X151081100Y-128286400D03*
X151081100Y-128936400D03*
X153231100Y-128936400D03*
X153231100Y-128286400D03*
X153231100Y-127636400D03*
%TD*%
D27*
%TO.C,SW1*%
X179061501Y-93955094D03*
X176927685Y-85891483D03*
D28*
X176944713Y-91943430D03*
D29*
X176504714Y-90301332D03*
D28*
X176064715Y-88659234D03*
%TD*%
D30*
%TO.C,R19*%
X130583300Y-84861400D03*
X132408300Y-84861400D03*
%TD*%
D31*
%TO.C,USB1*%
X176997700Y-112211600D03*
X176997700Y-106431600D03*
D32*
X175757700Y-112521600D03*
X175757700Y-111721600D03*
D33*
X175757700Y-110571600D03*
X175757700Y-109571600D03*
X175757700Y-109071600D03*
X175757700Y-108071600D03*
D32*
X175757700Y-106121600D03*
X175757700Y-106921600D03*
D33*
X175757700Y-107571600D03*
X175757700Y-108571600D03*
X175757700Y-110071600D03*
X175757700Y-111071600D03*
D34*
X176497700Y-113641600D03*
X176497700Y-105001600D03*
D35*
X180677700Y-105001600D03*
X180677700Y-113641600D03*
%TD*%
D13*
%TO.C,R6*%
X129032000Y-131646300D03*
X129032000Y-129821300D03*
%TD*%
D36*
%TO.C,D3*%
X159957800Y-92329000D03*
X161707800Y-92329000D03*
%TD*%
D37*
%TO.C,U4*%
X160451796Y-101282506D03*
X161721799Y-101282506D03*
X162991801Y-101282506D03*
X164261804Y-101282506D03*
X164261804Y-95465894D03*
X162991801Y-95465894D03*
X161721799Y-95465894D03*
X160451796Y-95465894D03*
D38*
X162356800Y-98374200D03*
%TD*%
D39*
%TO.C,H2*%
X167513000Y-104470200D03*
%TD*%
D40*
%TO.C,C17*%
X159513100Y-125120400D03*
X161238100Y-125120400D03*
%TD*%
%TO.C,C20*%
X152324900Y-117424200D03*
X154049900Y-117424200D03*
%TD*%
D30*
%TO.C,R16*%
X151294400Y-126288800D03*
X153119400Y-126288800D03*
%TD*%
D41*
%TO.C,L1*%
X176822100Y-125609700D03*
X176822100Y-128809700D03*
%TD*%
D13*
%TO.C,R18*%
X166938000Y-121047100D03*
X166938000Y-119222100D03*
%TD*%
D30*
%TO.C,R20*%
X171451900Y-132257800D03*
X173276900Y-132257800D03*
%TD*%
D24*
%TO.C,C9*%
X133731000Y-90240200D03*
X133731000Y-95840200D03*
%TD*%
D36*
%TO.C,D2*%
X163336000Y-92354400D03*
X165086000Y-92354400D03*
%TD*%
D42*
%TO.C,R4*%
X161731300Y-93878400D03*
X159906300Y-93878400D03*
%TD*%
D13*
%TO.C,R5*%
X166458900Y-129639700D03*
X166458900Y-127814700D03*
%TD*%
D30*
%TO.C,R3*%
X163273100Y-93878400D03*
X165098100Y-93878400D03*
%TD*%
D43*
%TO.C,C16*%
X157428100Y-125120400D03*
X155703100Y-125120400D03*
%TD*%
D40*
%TO.C,C3*%
X176493000Y-122453400D03*
X178218000Y-122453400D03*
%TD*%
D36*
%TO.C,D5*%
X130595400Y-83312000D03*
X132345400Y-83312000D03*
%TD*%
D43*
%TO.C,C15*%
X154049900Y-118922800D03*
X152324900Y-118922800D03*
%TD*%
D44*
%TO.C,JST_lipo1*%
X167928800Y-87988300D03*
D45*
X165928800Y-87988300D03*
%TD*%
D12*
%TO.C,R9*%
X128981200Y-102033700D03*
X128981200Y-103858700D03*
%TD*%
D22*
%TO.C,JP1*%
X140770000Y-114681000D03*
D23*
X143310000Y-114681000D03*
X145850000Y-114681000D03*
X148390000Y-114681000D03*
X150930000Y-114681000D03*
X153470000Y-114681000D03*
X156010000Y-114681000D03*
X158550000Y-114681000D03*
X161090000Y-114681000D03*
X163630000Y-114681000D03*
X166170000Y-114681000D03*
X168710000Y-114681000D03*
%TD*%
D42*
%TO.C,R13*%
X176149400Y-101203800D03*
X174324400Y-101203800D03*
%TD*%
D46*
%TO.C,U5*%
X150134213Y-121141799D03*
X150134213Y-120641799D03*
X150134213Y-120141799D03*
X150134213Y-119641799D03*
X150134213Y-119141800D03*
X150134213Y-118641800D03*
X150134213Y-118141800D03*
D47*
X149234199Y-117241786D03*
X148734199Y-117241786D03*
X148234199Y-117241786D03*
X147734199Y-117241786D03*
X147234200Y-117241786D03*
X146734200Y-117241786D03*
X146234200Y-117241786D03*
D46*
X145334186Y-118141800D03*
X145334186Y-118641800D03*
X145334186Y-119141800D03*
X145334186Y-119641799D03*
X145334186Y-120141799D03*
X145334186Y-120641799D03*
X145334186Y-121141799D03*
D47*
X146234200Y-122041813D03*
X146734200Y-122041813D03*
X147234200Y-122041813D03*
X147734199Y-122041813D03*
X148234199Y-122041813D03*
X148734199Y-122041813D03*
X149234199Y-122041813D03*
D48*
X147734200Y-119641800D03*
%TD*%
D24*
%TO.C,C6*%
X133731000Y-125647800D03*
X133731000Y-131247800D03*
%TD*%
D21*
%TO.C,Q1*%
X175945800Y-99690000D03*
X175945800Y-97790000D03*
X174070800Y-98740000D03*
%TD*%
D13*
%TO.C,R10*%
X166458900Y-126286900D03*
X166458900Y-124461900D03*
%TD*%
D49*
%TO.C,U1*%
X173863006Y-129057404D03*
X173863006Y-127787401D03*
X173863006Y-126517399D03*
X173863006Y-125247396D03*
X168046394Y-125247396D03*
X168046394Y-126517399D03*
X168046394Y-127787401D03*
X168046394Y-129057404D03*
D50*
X170954700Y-127152400D03*
%TD*%
D24*
%TO.C,C8*%
X133731000Y-99917600D03*
X133731000Y-105517600D03*
%TD*%
D51*
%TO.C,U3*%
X143402601Y-125957500D03*
X142752600Y-125957500D03*
X142102599Y-125957500D03*
X141452600Y-125957500D03*
X140802601Y-125957500D03*
X140152600Y-125957500D03*
X139502601Y-125957500D03*
X139502599Y-131596300D03*
X140152600Y-131596300D03*
X140802599Y-131596300D03*
X141452600Y-131596300D03*
X142102599Y-131596300D03*
X142752600Y-131596300D03*
X143402599Y-131596300D03*
%TD*%
D17*
%TO.C,C10*%
X164960300Y-129590800D03*
X164960300Y-127865800D03*
%TD*%
D40*
%TO.C,C1*%
X176491900Y-123952000D03*
X178216900Y-123952000D03*
%TD*%
D17*
%TO.C,C11*%
X163461700Y-129590800D03*
X163461700Y-127865800D03*
%TD*%
D40*
%TO.C,C5*%
X162840500Y-125120400D03*
X164565500Y-125120400D03*
%TD*%
D21*
%TO.C,Q2*%
X170558700Y-122793800D03*
X170558700Y-120893800D03*
X168683700Y-121843800D03*
%TD*%
D43*
%TO.C,C18*%
X176579700Y-132257800D03*
X174854700Y-132257800D03*
%TD*%
D52*
%TO.C,U2*%
X139582000Y-89313800D03*
X139582000Y-90583800D03*
X139582000Y-91853800D03*
X139582000Y-93123800D03*
X139582000Y-94393800D03*
X139582000Y-95663800D03*
X139582000Y-96933800D03*
X139582000Y-98203800D03*
X139582000Y-99473800D03*
X139582000Y-100743800D03*
X139582000Y-102013800D03*
X139582000Y-103283800D03*
X139582000Y-104553800D03*
X139582000Y-105823800D03*
D53*
X142367000Y-106823800D03*
X143637000Y-106823800D03*
X144907000Y-106823800D03*
X146177000Y-106823800D03*
X147447000Y-106823800D03*
X148717000Y-106823800D03*
X149987000Y-106823800D03*
X151257000Y-106823800D03*
X152527000Y-106823800D03*
X153797000Y-106823800D03*
D52*
X156582000Y-105823800D03*
X156582000Y-104553800D03*
X156582000Y-103283800D03*
X156582000Y-102013800D03*
X156582000Y-100743800D03*
X156582000Y-99473800D03*
X156582000Y-98203800D03*
X156582000Y-96933800D03*
X156582000Y-95663800D03*
X156582000Y-94393800D03*
X156582000Y-93123800D03*
X156582000Y-91853800D03*
X156582000Y-90583800D03*
X156582000Y-89313800D03*
D54*
X145247000Y-94978800D03*
X147082000Y-94978800D03*
X148917000Y-94978800D03*
X145247000Y-96813800D03*
X147082000Y-96813800D03*
X148917000Y-96813800D03*
X145247000Y-98648800D03*
X147082000Y-98648800D03*
X148917000Y-98648800D03*
D55*
X146164500Y-94978800D03*
X147999500Y-94978800D03*
X145247000Y-95896300D03*
X147082000Y-95896300D03*
X148917000Y-95896300D03*
X146164500Y-96813800D03*
X147999500Y-96813800D03*
X145247000Y-97731300D03*
X147082000Y-97731300D03*
X148917000Y-97731300D03*
X146164500Y-98648800D03*
X147999500Y-98648800D03*
%TD*%
D56*
%TO.C,H1*%
X140995400Y-120218200D03*
%TD*%
D42*
%TO.C,R15*%
X176200200Y-96250800D03*
X174375200Y-96250800D03*
%TD*%
D18*
%TO.C,C4*%
X145135600Y-130200400D03*
X145135600Y-131925400D03*
%TD*%
D30*
%TO.C,R14*%
X161495100Y-102844600D03*
X163320100Y-102844600D03*
%TD*%
D42*
%TO.C,R1*%
X179576100Y-103251000D03*
X177751100Y-103251000D03*
%TD*%
D17*
%TO.C,C14*%
X160464500Y-129589700D03*
X160464500Y-127864700D03*
%TD*%
D13*
%TO.C,R11*%
X168097200Y-94181300D03*
X168097200Y-92356300D03*
%TD*%
D30*
%TO.C,R12*%
X174324400Y-102727800D03*
X176149400Y-102727800D03*
%TD*%
%TO.C,R2*%
X178284500Y-116408200D03*
X180109500Y-116408200D03*
%TD*%
D57*
%TO.C,D4*%
X178767500Y-96594200D03*
X178767500Y-100594200D03*
%TD*%
M02*
