M48
; DRILL file {KiCad (6.0.0-0)} date 2022 February 02, Wednesday 11:17:39
; FORMAT={-:-/ absolute / inch / decimal}
; #@! TF.CreationDate,2022-02-02T11:17:39+01:00
; #@! TF.GenerationSoftware,Kicad,Pcbnew,(6.0.0-0)
; #@! TF.FileFunction,Plated,1,2,PTH
FMAT,2
INCH
; #@! TA.AperFunction,Plated,PTH,ComponentDrill
T1C0.0079
; #@! TA.AperFunction,Plated,PTH,ViaDrill
T2C0.0157
; #@! TA.AperFunction,Plated,PTH,ComponentDrill
T3C0.0276
; #@! TA.AperFunction,Plated,PTH,ComponentDrill
T4C0.0276
; #@! TA.AperFunction,Plated,PTH,ComponentDrill
T5C0.0315
; #@! TA.AperFunction,Plated,PTH,ComponentDrill
T6C0.0394
; #@! TA.AperFunction,Plated,PTH,ComponentDrill
T7C0.0591
; #@! TA.AperFunction,Plated,PTH,ComponentDrill
T8C0.1260
%
G90
G05
T1
X5.7184Y-3.7754
X5.7184Y-3.8477
X5.7545Y-3.7393
X5.7545Y-3.8116
X5.7545Y-3.8838
X5.7906Y-3.7754
X5.7906Y-3.8477
X5.8268Y-3.7393
X5.8268Y-3.8116
X5.8268Y-3.8838
X5.8629Y-3.7754
X5.8629Y-3.8477
T2
X4.8523Y-4.5272
X4.9451Y-4.9189
X4.9608Y-3.5388
X5.0003Y-3.5294
X5.0622Y-3.8535
X5.0985Y-3.3124
X5.1232Y-3.56
X5.1502Y-3.6202
X5.191Y-3.775
X5.191Y-4.147
X5.194Y-4.667
X5.198Y-5.161
X5.2033Y-3.5664
X5.2423Y-4.3406
X5.2689Y-4.56
X5.2957Y-4.247
X5.3122Y-3.6922
X5.3124Y-4.0613
X5.3573Y-5.19
X5.3622Y-4.9223
X5.363Y-5.0273
X5.3676Y-4.9629
X5.3733Y-3.5871
X5.415Y-3.885
X5.4174Y-4.0613
X5.4193Y-3.6163
X5.426Y-4.2497
X5.4267Y-3.6995
X5.4329Y-4.2891
X5.4394Y-5.189
X5.4471Y-4.2086
X5.4532Y-4.8851
X5.4577Y-4.9574
X5.4612Y-5.225
X5.464Y-4.5764
X5.4654Y-4.2468
X5.4752Y-4.4187
X5.5045Y-4.2086
X5.516Y-4.2817
X5.532Y-5.03
X5.5588Y-4.0163
X5.5674Y-3.7807
X5.5677Y-4.2598
X5.5929Y-4.4026
X5.6087Y-3.8424
X5.6107Y-3.7443
X5.6117Y-3.6663
X5.6331Y-4.0441
X5.6561Y-4.2835
X5.6612Y-4.0163
X5.665Y-5.0992
X5.6686Y-4.6429
X5.6774Y-4.9395
X5.6864Y-4.9789
X5.6896Y-4.0608
X5.6953Y-4.8583
X5.6955Y-4.2752
X5.7356Y-4.8984
X5.7523Y-5.2236
X5.7567Y-5.1046
X5.7677Y-4.9811
X5.7921Y-5.2389
X5.8009Y-4.2847
X5.8251Y-4.8852
X5.8453Y-5.0579
X5.8521Y-4.9681
X5.8992Y-4.0611
X5.9083Y-4.5921
X5.9083Y-4.8042
X5.9271Y-3.7482
X5.9393Y-4.8817
X5.9665Y-4.923
X5.9888Y-4.7252
X6.0055Y-4.8088
X6.0359Y-4.9227
X6.0637Y-3.88
X6.0731Y-4.846
X6.0733Y-3.6163
X6.0833Y-5.169
X6.0865Y-4.804
X6.101Y-3.7663
X6.1107Y-4.6071
X6.1616Y-4.2085
X6.2279Y-3.8663
X6.2281Y-3.9663
X6.2295Y-3.926
X6.2303Y-4.0607
X6.2729Y-4.9685
X6.2883Y-4.5528
X6.2883Y-4.6489
X6.2938Y-4.7167
X6.2996Y-4.8674
X6.3333Y-4.7134
X6.3675Y-4.1644
X6.4222Y-4.8531
X6.46Y-4.8099
X6.4604Y-4.7413
X6.4639Y-4.7016
X6.5005Y-4.8121
X6.5029Y-4.6617
X6.5029Y-4.7559
X6.639Y-3.835
X6.6468Y-4.607
X6.6866Y-4.4787
X6.7499Y-3.749
X6.7525Y-3.8237
X6.7916Y-3.7218
X6.7955Y-4.2604
X6.8023Y-4.0585
X6.839Y-4.3431
X6.8532Y-3.7238
X6.862Y-4.7457
X6.8779Y-4.8937
X6.9218Y-3.7291
X6.948Y-4.764
X6.969Y-4.2942
X6.9802Y-4.6216
X7.0444Y-4.2435
X7.0566Y-4.2034
X7.0599Y-4.6179
X7.1066Y-4.0352
T3
X6.9684Y-4.1902
X6.9684Y-4.4178
T5
X6.5326Y-3.4641
X6.6114Y-3.4641
T6
X5.1421Y-5.315
X5.2421Y-5.315
X5.3421Y-5.315
X5.4421Y-5.315
X5.5421Y-4.515
X5.5421Y-5.315
X5.6421Y-4.515
X5.6421Y-5.315
X5.7421Y-4.515
X5.7421Y-5.315
X5.8421Y-4.515
X5.8421Y-5.315
X5.9421Y-4.515
X5.9421Y-5.315
X6.0421Y-4.515
X6.0421Y-5.315
X6.1421Y-4.515
X6.1421Y-5.315
X6.2421Y-4.515
X6.2421Y-5.315
X6.3421Y-4.515
X6.3421Y-5.315
X6.4421Y-4.515
X6.4421Y-5.315
X6.5421Y-4.515
X6.5421Y-5.315
X6.6421Y-4.515
X6.6421Y-5.315
X6.77Y-3.293
X6.87Y-3.293
T7
X4.9885Y-3.3118
X4.9885Y-3.4618
X4.9885Y-3.6118
X4.9885Y-3.8722
X4.9885Y-4.0222
X4.9885Y-4.1722
X4.9885Y-4.4326
X4.9885Y-4.5826
X4.9885Y-4.7326
X4.9885Y-4.993
X4.9885Y-5.143
X4.9885Y-5.293
T8
X6.595Y-4.113
T4
G00X6.9271Y-4.1339
M15
G01X6.9704Y-4.1339
M16
G05
G00X6.9271Y-4.4741
M15
G01X6.9704Y-4.4741
M16
G05
G00X7.1015Y-4.1339
M15
G01X7.1251Y-4.1339
M16
G05
G00X7.1015Y-4.4741
M15
G01X7.1251Y-4.4741
M16
G05
T0
M30
