%TF.GenerationSoftware,KiCad,Pcbnew,(6.0.0-0)*%
%TF.CreationDate,2022-02-02T11:17:39+01:00*%
%TF.ProjectId,GlowCore,476c6f77-436f-4726-952e-6b696361645f,rev?*%
%TF.SameCoordinates,Original*%
%TF.FileFunction,Legend,Bot*%
%TF.FilePolarity,Positive*%
%FSLAX46Y46*%
G04 Gerber Fmt 4.6, Leading zero omitted, Abs format (unit mm)*
G04 Created by KiCad (PCBNEW (6.0.0-0)) date 2022-02-02 11:17:39*
%MOMM*%
%LPD*%
G01*
G04 APERTURE LIST*
%ADD10C,0.150000*%
%ADD11C,0.250000*%
%ADD12C,0.300000*%
%ADD13C,0.120000*%
G04 APERTURE END LIST*
D10*
X172054828Y-85095395D02*
X172054828Y-85857300D01*
X172435780Y-85476347D02*
X171673876Y-85476347D01*
X174467828Y-85146195D02*
X174467828Y-85908100D01*
X167990828Y-85730395D02*
X167990828Y-86492300D01*
X165933428Y-85704995D02*
X165933428Y-86466900D01*
X166314380Y-86085947D02*
X165552476Y-86085947D01*
X170757780Y-87209957D02*
X170757780Y-87829004D01*
X171138733Y-87495671D01*
X171138733Y-87638528D01*
X171186352Y-87733766D01*
X171233971Y-87781385D01*
X171329209Y-87829004D01*
X171567304Y-87829004D01*
X171662542Y-87781385D01*
X171710161Y-87733766D01*
X171757780Y-87638528D01*
X171757780Y-87352814D01*
X171710161Y-87257576D01*
X171662542Y-87209957D01*
X171662542Y-88257576D02*
X171710161Y-88305195D01*
X171757780Y-88257576D01*
X171710161Y-88209957D01*
X171662542Y-88257576D01*
X171757780Y-88257576D01*
X170757780Y-88638528D02*
X170757780Y-89305195D01*
X171757780Y-88876623D01*
X170757780Y-89543290D02*
X171757780Y-89876623D01*
X170757780Y-90209957D01*
X171091114Y-91162338D02*
X171091114Y-91543290D01*
X170757780Y-91305195D02*
X171614923Y-91305195D01*
X171710161Y-91352814D01*
X171757780Y-91448052D01*
X171757780Y-91543290D01*
X171757780Y-92019480D02*
X171710161Y-91924242D01*
X171662542Y-91876623D01*
X171567304Y-91829004D01*
X171281590Y-91829004D01*
X171186352Y-91876623D01*
X171138733Y-91924242D01*
X171091114Y-92019480D01*
X171091114Y-92162338D01*
X171138733Y-92257576D01*
X171186352Y-92305195D01*
X171281590Y-92352814D01*
X171567304Y-92352814D01*
X171662542Y-92305195D01*
X171710161Y-92257576D01*
X171757780Y-92162338D01*
X171757780Y-92019480D01*
X171091114Y-93971861D02*
X171757780Y-93971861D01*
X170710161Y-93733766D02*
X171424447Y-93495671D01*
X171424447Y-94114719D01*
X171662542Y-94495671D02*
X171710161Y-94543290D01*
X171757780Y-94495671D01*
X171710161Y-94448052D01*
X171662542Y-94495671D01*
X171757780Y-94495671D01*
X170757780Y-95448052D02*
X170757780Y-94971861D01*
X171233971Y-94924242D01*
X171186352Y-94971861D01*
X171138733Y-95067100D01*
X171138733Y-95305195D01*
X171186352Y-95400433D01*
X171233971Y-95448052D01*
X171329209Y-95495671D01*
X171567304Y-95495671D01*
X171662542Y-95448052D01*
X171710161Y-95400433D01*
X171757780Y-95305195D01*
X171757780Y-95067100D01*
X171710161Y-94971861D01*
X171662542Y-94924242D01*
X170757780Y-95781385D02*
X171757780Y-96114719D01*
X170757780Y-96448052D01*
X171757780Y-97543290D02*
X170757780Y-97543290D01*
X171138733Y-97543290D02*
X171091114Y-97638528D01*
X171091114Y-97829004D01*
X171138733Y-97924242D01*
X171186352Y-97971861D01*
X171281590Y-98019480D01*
X171567304Y-98019480D01*
X171662542Y-97971861D01*
X171710161Y-97924242D01*
X171757780Y-97829004D01*
X171757780Y-97638528D01*
X171710161Y-97543290D01*
X171757780Y-98876623D02*
X171233971Y-98876623D01*
X171138733Y-98829004D01*
X171091114Y-98733766D01*
X171091114Y-98543290D01*
X171138733Y-98448052D01*
X171710161Y-98876623D02*
X171757780Y-98781385D01*
X171757780Y-98543290D01*
X171710161Y-98448052D01*
X171614923Y-98400433D01*
X171519685Y-98400433D01*
X171424447Y-98448052D01*
X171376828Y-98543290D01*
X171376828Y-98781385D01*
X171329209Y-98876623D01*
X171091114Y-99209957D02*
X171091114Y-99590909D01*
X170757780Y-99352814D02*
X171614923Y-99352814D01*
X171710161Y-99400433D01*
X171757780Y-99495671D01*
X171757780Y-99590909D01*
X171091114Y-99781385D02*
X171091114Y-100162338D01*
X170757780Y-99924242D02*
X171614923Y-99924242D01*
X171710161Y-99971861D01*
X171757780Y-100067100D01*
X171757780Y-100162338D01*
X171710161Y-100876623D02*
X171757780Y-100781385D01*
X171757780Y-100590909D01*
X171710161Y-100495671D01*
X171614923Y-100448052D01*
X171233971Y-100448052D01*
X171138733Y-100495671D01*
X171091114Y-100590909D01*
X171091114Y-100781385D01*
X171138733Y-100876623D01*
X171233971Y-100924242D01*
X171329209Y-100924242D01*
X171424447Y-100448052D01*
X171757780Y-101352814D02*
X171091114Y-101352814D01*
X171281590Y-101352814D02*
X171186352Y-101400433D01*
X171138733Y-101448052D01*
X171091114Y-101543290D01*
X171091114Y-101638528D01*
X171757780Y-101971861D02*
X171091114Y-101971861D01*
X170757780Y-101971861D02*
X170805400Y-101924242D01*
X170853019Y-101971861D01*
X170805400Y-102019480D01*
X170757780Y-101971861D01*
X170853019Y-101971861D01*
X171710161Y-102829004D02*
X171757780Y-102733766D01*
X171757780Y-102543290D01*
X171710161Y-102448052D01*
X171614923Y-102400433D01*
X171233971Y-102400433D01*
X171138733Y-102448052D01*
X171091114Y-102543290D01*
X171091114Y-102733766D01*
X171138733Y-102829004D01*
X171233971Y-102876623D01*
X171329209Y-102876623D01*
X171424447Y-102400433D01*
X171710161Y-103257576D02*
X171757780Y-103352814D01*
X171757780Y-103543290D01*
X171710161Y-103638528D01*
X171614923Y-103686147D01*
X171567304Y-103686147D01*
X171472066Y-103638528D01*
X171424447Y-103543290D01*
X171424447Y-103400433D01*
X171376828Y-103305195D01*
X171281590Y-103257576D01*
X171233971Y-103257576D01*
X171138733Y-103305195D01*
X171091114Y-103400433D01*
X171091114Y-103543290D01*
X171138733Y-103638528D01*
X172701114Y-87209957D02*
X173367780Y-87400433D01*
X172891590Y-87590909D01*
X173367780Y-87781385D01*
X172701114Y-87971861D01*
X173367780Y-88352814D02*
X172701114Y-88352814D01*
X172367780Y-88352814D02*
X172415400Y-88305195D01*
X172463019Y-88352814D01*
X172415400Y-88400433D01*
X172367780Y-88352814D01*
X172463019Y-88352814D01*
X172701114Y-88686147D02*
X172701114Y-89067100D01*
X172367780Y-88829004D02*
X173224923Y-88829004D01*
X173320161Y-88876623D01*
X173367780Y-88971861D01*
X173367780Y-89067100D01*
X173367780Y-89400433D02*
X172367780Y-89400433D01*
X173367780Y-89829004D02*
X172843971Y-89829004D01*
X172748733Y-89781385D01*
X172701114Y-89686147D01*
X172701114Y-89543290D01*
X172748733Y-89448052D01*
X172796352Y-89400433D01*
X172701114Y-91067100D02*
X173701114Y-91067100D01*
X172748733Y-91067100D02*
X172701114Y-91162338D01*
X172701114Y-91352814D01*
X172748733Y-91448052D01*
X172796352Y-91495671D01*
X172891590Y-91543290D01*
X173177304Y-91543290D01*
X173272542Y-91495671D01*
X173320161Y-91448052D01*
X173367780Y-91352814D01*
X173367780Y-91162338D01*
X173320161Y-91067100D01*
X173367780Y-91971861D02*
X172701114Y-91971861D01*
X172891590Y-91971861D02*
X172796352Y-92019480D01*
X172748733Y-92067100D01*
X172701114Y-92162338D01*
X172701114Y-92257576D01*
X173367780Y-92733766D02*
X173320161Y-92638528D01*
X173272542Y-92590909D01*
X173177304Y-92543290D01*
X172891590Y-92543290D01*
X172796352Y-92590909D01*
X172748733Y-92638528D01*
X172701114Y-92733766D01*
X172701114Y-92876623D01*
X172748733Y-92971861D01*
X172796352Y-93019480D01*
X172891590Y-93067100D01*
X173177304Y-93067100D01*
X173272542Y-93019480D01*
X173320161Y-92971861D01*
X173367780Y-92876623D01*
X173367780Y-92733766D01*
X172701114Y-93352814D02*
X172701114Y-93733766D01*
X172367780Y-93495671D02*
X173224923Y-93495671D01*
X173320161Y-93543290D01*
X173367780Y-93638528D01*
X173367780Y-93733766D01*
X173320161Y-94448052D02*
X173367780Y-94352814D01*
X173367780Y-94162338D01*
X173320161Y-94067100D01*
X173224923Y-94019480D01*
X172843971Y-94019480D01*
X172748733Y-94067100D01*
X172701114Y-94162338D01*
X172701114Y-94352814D01*
X172748733Y-94448052D01*
X172843971Y-94495671D01*
X172939209Y-94495671D01*
X173034447Y-94019480D01*
X173320161Y-95352814D02*
X173367780Y-95257576D01*
X173367780Y-95067099D01*
X173320161Y-94971861D01*
X173272542Y-94924242D01*
X173177304Y-94876623D01*
X172891590Y-94876623D01*
X172796352Y-94924242D01*
X172748733Y-94971861D01*
X172701114Y-95067099D01*
X172701114Y-95257576D01*
X172748733Y-95352814D01*
X172701114Y-95638528D02*
X172701114Y-96019480D01*
X172367780Y-95781385D02*
X173224923Y-95781385D01*
X173320161Y-95829004D01*
X173367780Y-95924242D01*
X173367780Y-96019480D01*
X173367780Y-96352814D02*
X172701114Y-96352814D01*
X172367780Y-96352814D02*
X172415400Y-96305195D01*
X172463019Y-96352814D01*
X172415400Y-96400433D01*
X172367780Y-96352814D01*
X172463019Y-96352814D01*
X173367780Y-96971861D02*
X173320161Y-96876623D01*
X173272542Y-96829004D01*
X173177304Y-96781385D01*
X172891590Y-96781385D01*
X172796352Y-96829004D01*
X172748733Y-96876623D01*
X172701114Y-96971861D01*
X172701114Y-97114719D01*
X172748733Y-97209957D01*
X172796352Y-97257576D01*
X172891590Y-97305195D01*
X173177304Y-97305195D01*
X173272542Y-97257576D01*
X173320161Y-97209957D01*
X173367780Y-97114719D01*
X173367780Y-96971861D01*
X172701114Y-97733766D02*
X173367780Y-97733766D01*
X172796352Y-97733766D02*
X172748733Y-97781385D01*
X172701114Y-97876623D01*
X172701114Y-98019480D01*
X172748733Y-98114719D01*
X172843971Y-98162338D01*
X173367780Y-98162338D01*
X173320161Y-99829004D02*
X173367780Y-99733766D01*
X173367780Y-99543290D01*
X173320161Y-99448052D01*
X173272542Y-99400433D01*
X173177304Y-99352814D01*
X172891590Y-99352814D01*
X172796352Y-99400433D01*
X172748733Y-99448052D01*
X172701114Y-99543290D01*
X172701114Y-99733766D01*
X172748733Y-99829004D01*
X173367780Y-100257576D02*
X172701114Y-100257576D01*
X172367780Y-100257576D02*
X172415400Y-100209957D01*
X172463019Y-100257576D01*
X172415400Y-100305195D01*
X172367780Y-100257576D01*
X172463019Y-100257576D01*
X173367780Y-100733766D02*
X172701114Y-100733766D01*
X172891590Y-100733766D02*
X172796352Y-100781385D01*
X172748733Y-100829004D01*
X172701114Y-100924242D01*
X172701114Y-101019480D01*
X173320161Y-101781385D02*
X173367780Y-101686147D01*
X173367780Y-101495671D01*
X173320161Y-101400433D01*
X173272542Y-101352814D01*
X173177304Y-101305195D01*
X172891590Y-101305195D01*
X172796352Y-101352814D01*
X172748733Y-101400433D01*
X172701114Y-101495671D01*
X172701114Y-101686147D01*
X172748733Y-101781385D01*
X172701114Y-102638528D02*
X173367780Y-102638528D01*
X172701114Y-102209957D02*
X173224923Y-102209957D01*
X173320161Y-102257576D01*
X173367780Y-102352814D01*
X173367780Y-102495671D01*
X173320161Y-102590909D01*
X173272542Y-102638528D01*
X173367780Y-103114719D02*
X172701114Y-103114719D01*
X172367780Y-103114719D02*
X172415400Y-103067099D01*
X172463019Y-103114719D01*
X172415400Y-103162338D01*
X172367780Y-103114719D01*
X172463019Y-103114719D01*
X172701114Y-103448052D02*
X172701114Y-103829004D01*
X172367780Y-103590909D02*
X173224923Y-103590909D01*
X173320161Y-103638528D01*
X173367780Y-103733766D01*
X173367780Y-103829004D01*
X173367780Y-105067099D02*
X173320161Y-104971861D01*
X173272542Y-104924242D01*
X173177304Y-104876623D01*
X172891590Y-104876623D01*
X172796352Y-104924242D01*
X172748733Y-104971861D01*
X172701114Y-105067099D01*
X172701114Y-105209957D01*
X172748733Y-105305195D01*
X172796352Y-105352814D01*
X172891590Y-105400433D01*
X173177304Y-105400433D01*
X173272542Y-105352814D01*
X173320161Y-105305195D01*
X173367780Y-105209957D01*
X173367780Y-105067099D01*
X172701114Y-105829004D02*
X173367780Y-105829004D01*
X172796352Y-105829004D02*
X172748733Y-105876623D01*
X172701114Y-105971861D01*
X172701114Y-106114719D01*
X172748733Y-106209957D01*
X172843971Y-106257576D01*
X173367780Y-106257576D01*
X173367780Y-106876623D02*
X173320161Y-106781385D01*
X173224923Y-106733766D01*
X172367780Y-106733766D01*
X172701114Y-107162338D02*
X173367780Y-107400433D01*
X172701114Y-107638528D02*
X173367780Y-107400433D01*
X173605876Y-107305195D01*
X173653495Y-107257576D01*
X173701114Y-107162338D01*
X173272542Y-108019480D02*
X173320161Y-108067099D01*
X173367780Y-108019480D01*
X173320161Y-107971861D01*
X173272542Y-108019480D01*
X173367780Y-108019480D01*
X172986828Y-108019480D02*
X172415400Y-107971861D01*
X172367780Y-108019480D01*
X172415400Y-108067099D01*
X172986828Y-108019480D01*
X172367780Y-108019480D01*
D11*
X153868380Y-128219261D02*
X152868380Y-128219261D01*
X152868380Y-128885928D02*
X152868380Y-129076404D01*
X152916000Y-129171642D01*
X153011238Y-129266880D01*
X153201714Y-129314500D01*
X153535047Y-129314500D01*
X153725523Y-129266880D01*
X153820761Y-129171642D01*
X153868380Y-129076404D01*
X153868380Y-128885928D01*
X153820761Y-128790690D01*
X153725523Y-128695452D01*
X153535047Y-128647833D01*
X153201714Y-128647833D01*
X153011238Y-128695452D01*
X152916000Y-128790690D01*
X152868380Y-128885928D01*
X153201714Y-130171642D02*
X153868380Y-130171642D01*
X152820761Y-129933547D02*
X153535047Y-129695452D01*
X153535047Y-130314500D01*
X152820761Y-131409738D02*
X154106476Y-130552595D01*
X153582666Y-131695452D02*
X153582666Y-132171642D01*
X153868380Y-131600214D02*
X152868380Y-131933547D01*
X153868380Y-132266880D01*
X152868380Y-133076404D02*
X152868380Y-132600214D01*
X153344571Y-132552595D01*
X153296952Y-132600214D01*
X153249333Y-132695452D01*
X153249333Y-132933547D01*
X153296952Y-133028785D01*
X153344571Y-133076404D01*
X153439809Y-133124023D01*
X153677904Y-133124023D01*
X153773142Y-133076404D01*
X153820761Y-133028785D01*
X153868380Y-132933547D01*
X153868380Y-132695452D01*
X153820761Y-132600214D01*
X153773142Y-132552595D01*
D12*
X123233571Y-113548600D02*
X123233571Y-112834314D01*
X121733571Y-112834314D01*
X122447857Y-114048600D02*
X122447857Y-114548600D01*
X123233571Y-114762885D02*
X123233571Y-114048600D01*
X121733571Y-114048600D01*
X121733571Y-114762885D01*
X123233571Y-115405742D02*
X121733571Y-115405742D01*
X121733571Y-115762885D01*
X121805000Y-115977171D01*
X121947857Y-116120028D01*
X122090714Y-116191457D01*
X122376428Y-116262885D01*
X122590714Y-116262885D01*
X122876428Y-116191457D01*
X123019285Y-116120028D01*
X123162142Y-115977171D01*
X123233571Y-115762885D01*
X123233571Y-115405742D01*
X121876428Y-117977171D02*
X121805000Y-118048600D01*
X121733571Y-118191457D01*
X121733571Y-118548600D01*
X121805000Y-118691457D01*
X121876428Y-118762885D01*
X122019285Y-118834314D01*
X122162142Y-118834314D01*
X122376428Y-118762885D01*
X123233571Y-117905742D01*
X123233571Y-118834314D01*
D11*
X169108380Y-129997023D02*
X168108380Y-129997023D01*
X168108380Y-130663690D02*
X168108380Y-130854166D01*
X168156000Y-130949404D01*
X168251238Y-131044642D01*
X168441714Y-131092261D01*
X168775047Y-131092261D01*
X168965523Y-131044642D01*
X169060761Y-130949404D01*
X169108380Y-130854166D01*
X169108380Y-130663690D01*
X169060761Y-130568452D01*
X168965523Y-130473214D01*
X168775047Y-130425595D01*
X168441714Y-130425595D01*
X168251238Y-130473214D01*
X168156000Y-130568452D01*
X168108380Y-130663690D01*
X168203619Y-131473214D02*
X168156000Y-131520833D01*
X168108380Y-131616071D01*
X168108380Y-131854166D01*
X168156000Y-131949404D01*
X168203619Y-131997023D01*
X168298857Y-132044642D01*
X168394095Y-132044642D01*
X168536952Y-131997023D01*
X169108380Y-131425595D01*
X169108380Y-132044642D01*
X169108380Y-132997023D02*
X169108380Y-132425595D01*
X169108380Y-132711309D02*
X168108380Y-132711309D01*
X168251238Y-132616071D01*
X168346476Y-132520833D01*
X168394095Y-132425595D01*
X146375380Y-127266880D02*
X145375380Y-127266880D01*
X145375380Y-127933547D02*
X145375380Y-128124023D01*
X145423000Y-128219261D01*
X145518238Y-128314500D01*
X145708714Y-128362119D01*
X146042047Y-128362119D01*
X146232523Y-128314500D01*
X146327761Y-128219261D01*
X146375380Y-128124023D01*
X146375380Y-127933547D01*
X146327761Y-127838309D01*
X146232523Y-127743071D01*
X146042047Y-127695452D01*
X145708714Y-127695452D01*
X145518238Y-127743071D01*
X145423000Y-127838309D01*
X145375380Y-127933547D01*
X145375380Y-128695452D02*
X145375380Y-129314500D01*
X145756333Y-128981166D01*
X145756333Y-129124023D01*
X145803952Y-129219261D01*
X145851571Y-129266880D01*
X145946809Y-129314500D01*
X146184904Y-129314500D01*
X146280142Y-129266880D01*
X146327761Y-129219261D01*
X146375380Y-129124023D01*
X146375380Y-128838309D01*
X146327761Y-128743071D01*
X146280142Y-128695452D01*
X145708714Y-130171642D02*
X146375380Y-130171642D01*
X145327761Y-129933547D02*
X146042047Y-129695452D01*
X146042047Y-130314500D01*
X145327761Y-131409738D02*
X146613476Y-130552595D01*
X146089666Y-131695452D02*
X146089666Y-132171642D01*
X146375380Y-131600214D02*
X145375380Y-131933547D01*
X146375380Y-132266880D01*
X145470619Y-132552595D02*
X145423000Y-132600214D01*
X145375380Y-132695452D01*
X145375380Y-132933547D01*
X145423000Y-133028785D01*
X145470619Y-133076404D01*
X145565857Y-133124023D01*
X145661095Y-133124023D01*
X145803952Y-133076404D01*
X146375380Y-132504976D01*
X146375380Y-133124023D01*
X137676000Y-131028785D02*
X137628380Y-130933547D01*
X137628380Y-130790690D01*
X137676000Y-130647833D01*
X137771238Y-130552595D01*
X137866476Y-130504976D01*
X138056952Y-130457357D01*
X138199809Y-130457357D01*
X138390285Y-130504976D01*
X138485523Y-130552595D01*
X138580761Y-130647833D01*
X138628380Y-130790690D01*
X138628380Y-130885928D01*
X138580761Y-131028785D01*
X138533142Y-131076404D01*
X138199809Y-131076404D01*
X138199809Y-130885928D01*
X138628380Y-131504976D02*
X137628380Y-131504976D01*
X138628380Y-132076404D01*
X137628380Y-132076404D01*
X138628380Y-132552595D02*
X137628380Y-132552595D01*
X137628380Y-132790690D01*
X137676000Y-132933547D01*
X137771238Y-133028785D01*
X137866476Y-133076404D01*
X138056952Y-133124023D01*
X138199809Y-133124023D01*
X138390285Y-133076404D01*
X138485523Y-133028785D01*
X138580761Y-132933547D01*
X138628380Y-132790690D01*
X138628380Y-132552595D01*
X131135380Y-129473214D02*
X130659190Y-129139880D01*
X131135380Y-128901785D02*
X130135380Y-128901785D01*
X130135380Y-129282738D01*
X130183000Y-129377976D01*
X130230619Y-129425595D01*
X130325857Y-129473214D01*
X130468714Y-129473214D01*
X130563952Y-129425595D01*
X130611571Y-129377976D01*
X130659190Y-129282738D01*
X130659190Y-128901785D01*
X130611571Y-129901785D02*
X130611571Y-130235119D01*
X131135380Y-130377976D02*
X131135380Y-129901785D01*
X130135380Y-129901785D01*
X130135380Y-130377976D01*
X131087761Y-130758928D02*
X131135380Y-130901785D01*
X131135380Y-131139880D01*
X131087761Y-131235119D01*
X131040142Y-131282738D01*
X130944904Y-131330357D01*
X130849666Y-131330357D01*
X130754428Y-131282738D01*
X130706809Y-131235119D01*
X130659190Y-131139880D01*
X130611571Y-130949404D01*
X130563952Y-130854166D01*
X130516333Y-130806547D01*
X130421095Y-130758928D01*
X130325857Y-130758928D01*
X130230619Y-130806547D01*
X130183000Y-130854166D01*
X130135380Y-130949404D01*
X130135380Y-131187500D01*
X130183000Y-131330357D01*
X130611571Y-131758928D02*
X130611571Y-132092261D01*
X131135380Y-132235119D02*
X131135380Y-131758928D01*
X130135380Y-131758928D01*
X130135380Y-132235119D01*
X130135380Y-132520833D02*
X130135380Y-133092261D01*
X131135380Y-132806547D02*
X130135380Y-132806547D01*
X158948380Y-106280166D02*
X157948380Y-106280166D01*
X157948380Y-106946833D02*
X157948380Y-107137309D01*
X157996000Y-107232547D01*
X158091238Y-107327785D01*
X158281714Y-107375404D01*
X158615047Y-107375404D01*
X158805523Y-107327785D01*
X158900761Y-107232547D01*
X158948380Y-107137309D01*
X158948380Y-106946833D01*
X158900761Y-106851595D01*
X158805523Y-106756357D01*
X158615047Y-106708738D01*
X158281714Y-106708738D01*
X158091238Y-106756357D01*
X157996000Y-106851595D01*
X157948380Y-106946833D01*
X158948380Y-108327785D02*
X158948380Y-107756357D01*
X158948380Y-108042071D02*
X157948380Y-108042071D01*
X158091238Y-107946833D01*
X158186476Y-107851595D01*
X158234095Y-107756357D01*
X157948380Y-109232547D02*
X157948380Y-108756357D01*
X158424571Y-108708738D01*
X158376952Y-108756357D01*
X158329333Y-108851595D01*
X158329333Y-109089690D01*
X158376952Y-109184928D01*
X158424571Y-109232547D01*
X158519809Y-109280166D01*
X158757904Y-109280166D01*
X158853142Y-109232547D01*
X158900761Y-109184928D01*
X158948380Y-109089690D01*
X158948380Y-108851595D01*
X158900761Y-108756357D01*
X158853142Y-108708738D01*
X157900761Y-110423023D02*
X159186476Y-109565880D01*
X157948380Y-110661119D02*
X158948380Y-110899214D01*
X158234095Y-111089690D01*
X158948380Y-111280166D01*
X157948380Y-111518261D01*
X158900761Y-111851595D02*
X158948380Y-111994452D01*
X158948380Y-112232547D01*
X158900761Y-112327785D01*
X158853142Y-112375404D01*
X158757904Y-112423023D01*
X158662666Y-112423023D01*
X158567428Y-112375404D01*
X158519809Y-112327785D01*
X158472190Y-112232547D01*
X158424571Y-112042071D01*
X158376952Y-111946833D01*
X158329333Y-111899214D01*
X158234095Y-111851595D01*
X158138857Y-111851595D01*
X158043619Y-111899214D01*
X157996000Y-111946833D01*
X157948380Y-112042071D01*
X157948380Y-112280166D01*
X157996000Y-112423023D01*
D10*
X123886980Y-98479409D02*
X123886980Y-98003219D01*
X124363171Y-97955600D01*
X124315552Y-98003219D01*
X124267933Y-98098457D01*
X124267933Y-98336552D01*
X124315552Y-98431790D01*
X124363171Y-98479409D01*
X124458409Y-98527028D01*
X124696504Y-98527028D01*
X124791742Y-98479409D01*
X124839361Y-98431790D01*
X124886980Y-98336552D01*
X124886980Y-98098457D01*
X124839361Y-98003219D01*
X124791742Y-97955600D01*
X123886980Y-98812742D02*
X124886980Y-99146076D01*
X123886980Y-99479409D01*
X124886980Y-102098457D02*
X123886980Y-102098457D01*
X123886980Y-102336552D01*
X123934600Y-102479409D01*
X124029838Y-102574647D01*
X124125076Y-102622266D01*
X124315552Y-102669885D01*
X124458409Y-102669885D01*
X124648885Y-102622266D01*
X124744123Y-102574647D01*
X124839361Y-102479409D01*
X124886980Y-102336552D01*
X124886980Y-102098457D01*
X123934600Y-105907980D02*
X123886980Y-105812742D01*
X123886980Y-105669885D01*
X123934600Y-105527028D01*
X124029838Y-105431790D01*
X124125076Y-105384171D01*
X124315552Y-105336552D01*
X124458409Y-105336552D01*
X124648885Y-105384171D01*
X124744123Y-105431790D01*
X124839361Y-105527028D01*
X124886980Y-105669885D01*
X124886980Y-105765123D01*
X124839361Y-105907980D01*
X124791742Y-105955600D01*
X124458409Y-105955600D01*
X124458409Y-105765123D01*
D11*
X149042380Y-117647833D02*
X148042380Y-117647833D01*
X148042380Y-118314500D02*
X148042380Y-118504976D01*
X148090000Y-118600214D01*
X148185238Y-118695452D01*
X148375714Y-118743071D01*
X148709047Y-118743071D01*
X148899523Y-118695452D01*
X148994761Y-118600214D01*
X149042380Y-118504976D01*
X149042380Y-118314500D01*
X148994761Y-118219261D01*
X148899523Y-118124023D01*
X148709047Y-118076404D01*
X148375714Y-118076404D01*
X148185238Y-118124023D01*
X148090000Y-118219261D01*
X148042380Y-118314500D01*
X148042380Y-119076404D02*
X148042380Y-119695452D01*
X148423333Y-119362119D01*
X148423333Y-119504976D01*
X148470952Y-119600214D01*
X148518571Y-119647833D01*
X148613809Y-119695452D01*
X148851904Y-119695452D01*
X148947142Y-119647833D01*
X148994761Y-119600214D01*
X149042380Y-119504976D01*
X149042380Y-119219261D01*
X148994761Y-119124023D01*
X148947142Y-119076404D01*
X149042380Y-120171642D02*
X149042380Y-120362119D01*
X148994761Y-120457357D01*
X148947142Y-120504976D01*
X148804285Y-120600214D01*
X148613809Y-120647833D01*
X148232857Y-120647833D01*
X148137619Y-120600214D01*
X148090000Y-120552595D01*
X148042380Y-120457357D01*
X148042380Y-120266880D01*
X148090000Y-120171642D01*
X148137619Y-120124023D01*
X148232857Y-120076404D01*
X148470952Y-120076404D01*
X148566190Y-120124023D01*
X148613809Y-120171642D01*
X148661428Y-120266880D01*
X148661428Y-120457357D01*
X148613809Y-120552595D01*
X148566190Y-120600214D01*
X148470952Y-120647833D01*
X147994761Y-121790690D02*
X149280476Y-120933547D01*
X148756666Y-122076404D02*
X148756666Y-122552595D01*
X149042380Y-121981166D02*
X148042380Y-122314500D01*
X149042380Y-122647833D01*
X148042380Y-122885928D02*
X148042380Y-123504976D01*
X148423333Y-123171642D01*
X148423333Y-123314500D01*
X148470952Y-123409738D01*
X148518571Y-123457357D01*
X148613809Y-123504976D01*
X148851904Y-123504976D01*
X148947142Y-123457357D01*
X148994761Y-123409738D01*
X149042380Y-123314500D01*
X149042380Y-123028785D01*
X148994761Y-122933547D01*
X148947142Y-122885928D01*
X147994761Y-124647833D02*
X149280476Y-123790690D01*
X148994761Y-124933547D02*
X149042380Y-125076404D01*
X149042380Y-125314500D01*
X148994761Y-125409738D01*
X148947142Y-125457357D01*
X148851904Y-125504976D01*
X148756666Y-125504976D01*
X148661428Y-125457357D01*
X148613809Y-125409738D01*
X148566190Y-125314500D01*
X148518571Y-125124023D01*
X148470952Y-125028785D01*
X148423333Y-124981166D01*
X148328095Y-124933547D01*
X148232857Y-124933547D01*
X148137619Y-124981166D01*
X148090000Y-125028785D01*
X148042380Y-125124023D01*
X148042380Y-125362119D01*
X148090000Y-125504976D01*
X148518571Y-125933547D02*
X148518571Y-126266880D01*
X149042380Y-126409738D02*
X149042380Y-125933547D01*
X148042380Y-125933547D01*
X148042380Y-126409738D01*
X149042380Y-126838309D02*
X148042380Y-126838309D01*
X149042380Y-127409738D01*
X148042380Y-127409738D01*
X148994761Y-127838309D02*
X149042380Y-127981166D01*
X149042380Y-128219261D01*
X148994761Y-128314500D01*
X148947142Y-128362119D01*
X148851904Y-128409738D01*
X148756666Y-128409738D01*
X148661428Y-128362119D01*
X148613809Y-128314500D01*
X148566190Y-128219261D01*
X148518571Y-128028785D01*
X148470952Y-127933547D01*
X148423333Y-127885928D01*
X148328095Y-127838309D01*
X148232857Y-127838309D01*
X148137619Y-127885928D01*
X148090000Y-127933547D01*
X148042380Y-128028785D01*
X148042380Y-128266880D01*
X148090000Y-128409738D01*
X148042380Y-129028785D02*
X148042380Y-129219261D01*
X148090000Y-129314500D01*
X148185238Y-129409738D01*
X148375714Y-129457357D01*
X148709047Y-129457357D01*
X148899523Y-129409738D01*
X148994761Y-129314500D01*
X149042380Y-129219261D01*
X149042380Y-129028785D01*
X148994761Y-128933547D01*
X148899523Y-128838309D01*
X148709047Y-128790690D01*
X148375714Y-128790690D01*
X148185238Y-128838309D01*
X148090000Y-128933547D01*
X148042380Y-129028785D01*
X149042380Y-130457357D02*
X148566190Y-130124023D01*
X149042380Y-129885928D02*
X148042380Y-129885928D01*
X148042380Y-130266880D01*
X148090000Y-130362119D01*
X148137619Y-130409738D01*
X148232857Y-130457357D01*
X148375714Y-130457357D01*
X148470952Y-130409738D01*
X148518571Y-130362119D01*
X148566190Y-130266880D01*
X148566190Y-129885928D01*
X149137619Y-130647833D02*
X149137619Y-131409738D01*
X148042380Y-131504976D02*
X149042380Y-131838309D01*
X148042380Y-132171642D01*
X149042380Y-132504976D02*
X148042380Y-132504976D01*
X149042380Y-133076404D01*
X148042380Y-133076404D01*
D12*
X123233571Y-99832600D02*
X123233571Y-99118314D01*
X121733571Y-99118314D01*
X122447857Y-100332600D02*
X122447857Y-100832600D01*
X123233571Y-101046885D02*
X123233571Y-100332600D01*
X121733571Y-100332600D01*
X121733571Y-101046885D01*
X123233571Y-101689742D02*
X121733571Y-101689742D01*
X121733571Y-102046885D01*
X121805000Y-102261171D01*
X121947857Y-102404028D01*
X122090714Y-102475457D01*
X122376428Y-102546885D01*
X122590714Y-102546885D01*
X122876428Y-102475457D01*
X123019285Y-102404028D01*
X123162142Y-102261171D01*
X123233571Y-102046885D01*
X123233571Y-101689742D01*
X121733571Y-104189742D02*
X121733571Y-105118314D01*
X122305000Y-104618314D01*
X122305000Y-104832600D01*
X122376428Y-104975457D01*
X122447857Y-105046885D01*
X122590714Y-105118314D01*
X122947857Y-105118314D01*
X123090714Y-105046885D01*
X123162142Y-104975457D01*
X123233571Y-104832600D01*
X123233571Y-104404028D01*
X123162142Y-104261171D01*
X123090714Y-104189742D01*
D11*
X159075380Y-120743071D02*
X158075380Y-120743071D01*
X158075380Y-121409738D02*
X158075380Y-121600214D01*
X158123000Y-121695452D01*
X158218238Y-121790690D01*
X158408714Y-121838309D01*
X158742047Y-121838309D01*
X158932523Y-121790690D01*
X159027761Y-121695452D01*
X159075380Y-121600214D01*
X159075380Y-121409738D01*
X159027761Y-121314500D01*
X158932523Y-121219261D01*
X158742047Y-121171642D01*
X158408714Y-121171642D01*
X158218238Y-121219261D01*
X158123000Y-121314500D01*
X158075380Y-121409738D01*
X159075380Y-122790690D02*
X159075380Y-122219261D01*
X159075380Y-122504976D02*
X158075380Y-122504976D01*
X158218238Y-122409738D01*
X158313476Y-122314500D01*
X158361095Y-122219261D01*
X158503952Y-123362119D02*
X158456333Y-123266880D01*
X158408714Y-123219261D01*
X158313476Y-123171642D01*
X158265857Y-123171642D01*
X158170619Y-123219261D01*
X158123000Y-123266880D01*
X158075380Y-123362119D01*
X158075380Y-123552595D01*
X158123000Y-123647833D01*
X158170619Y-123695452D01*
X158265857Y-123743071D01*
X158313476Y-123743071D01*
X158408714Y-123695452D01*
X158456333Y-123647833D01*
X158503952Y-123552595D01*
X158503952Y-123362119D01*
X158551571Y-123266880D01*
X158599190Y-123219261D01*
X158694428Y-123171642D01*
X158884904Y-123171642D01*
X158980142Y-123219261D01*
X159027761Y-123266880D01*
X159075380Y-123362119D01*
X159075380Y-123552595D01*
X159027761Y-123647833D01*
X158980142Y-123695452D01*
X158884904Y-123743071D01*
X158694428Y-123743071D01*
X158599190Y-123695452D01*
X158551571Y-123647833D01*
X158503952Y-123552595D01*
X158027761Y-124885928D02*
X159313476Y-124028785D01*
X159075380Y-125219261D02*
X158075380Y-125219261D01*
X158789666Y-125552595D01*
X158075380Y-125885928D01*
X159075380Y-125885928D01*
X158075380Y-126552595D02*
X158075380Y-126743071D01*
X158123000Y-126838309D01*
X158218238Y-126933547D01*
X158408714Y-126981166D01*
X158742047Y-126981166D01*
X158932523Y-126933547D01*
X159027761Y-126838309D01*
X159075380Y-126743071D01*
X159075380Y-126552595D01*
X159027761Y-126457357D01*
X158932523Y-126362119D01*
X158742047Y-126314500D01*
X158408714Y-126314500D01*
X158218238Y-126362119D01*
X158123000Y-126457357D01*
X158075380Y-126552595D01*
X159027761Y-127362119D02*
X159075380Y-127504976D01*
X159075380Y-127743071D01*
X159027761Y-127838309D01*
X158980142Y-127885928D01*
X158884904Y-127933547D01*
X158789666Y-127933547D01*
X158694428Y-127885928D01*
X158646809Y-127838309D01*
X158599190Y-127743071D01*
X158551571Y-127552595D01*
X158503952Y-127457357D01*
X158456333Y-127409738D01*
X158361095Y-127362119D01*
X158265857Y-127362119D01*
X158170619Y-127409738D01*
X158123000Y-127457357D01*
X158075380Y-127552595D01*
X158075380Y-127790690D01*
X158123000Y-127933547D01*
X159075380Y-128362119D02*
X158075380Y-128362119D01*
X158027761Y-129552595D02*
X159313476Y-128695452D01*
X159075380Y-130362119D02*
X159075380Y-129885928D01*
X158075380Y-129885928D01*
X158551571Y-130695452D02*
X158551571Y-131028785D01*
X159075380Y-131171642D02*
X159075380Y-130695452D01*
X158075380Y-130695452D01*
X158075380Y-131171642D01*
X159075380Y-131600214D02*
X158075380Y-131600214D01*
X158075380Y-131838309D01*
X158123000Y-131981166D01*
X158218238Y-132076404D01*
X158313476Y-132124023D01*
X158503952Y-132171642D01*
X158646809Y-132171642D01*
X158837285Y-132124023D01*
X158932523Y-132076404D01*
X159027761Y-131981166D01*
X159075380Y-131838309D01*
X159075380Y-131600214D01*
X158075380Y-132504976D02*
X158075380Y-133124023D01*
X158456333Y-132790690D01*
X158456333Y-132933547D01*
X158503952Y-133028785D01*
X158551571Y-133076404D01*
X158646809Y-133124023D01*
X158884904Y-133124023D01*
X158980142Y-133076404D01*
X159027761Y-133028785D01*
X159075380Y-132933547D01*
X159075380Y-132647833D01*
X159027761Y-132552595D01*
X158980142Y-132504976D01*
D10*
X123886980Y-126800409D02*
X123886980Y-126324219D01*
X124363171Y-126276600D01*
X124315552Y-126324219D01*
X124267933Y-126419457D01*
X124267933Y-126657552D01*
X124315552Y-126752790D01*
X124363171Y-126800409D01*
X124458409Y-126848028D01*
X124696504Y-126848028D01*
X124791742Y-126800409D01*
X124839361Y-126752790D01*
X124886980Y-126657552D01*
X124886980Y-126419457D01*
X124839361Y-126324219D01*
X124791742Y-126276600D01*
X123886980Y-127133742D02*
X124886980Y-127467076D01*
X123886980Y-127800409D01*
X124886980Y-130419457D02*
X123886980Y-130419457D01*
X123886980Y-130657552D01*
X123934600Y-130800409D01*
X124029838Y-130895647D01*
X124125076Y-130943266D01*
X124315552Y-130990885D01*
X124458409Y-130990885D01*
X124648885Y-130943266D01*
X124744123Y-130895647D01*
X124839361Y-130800409D01*
X124886980Y-130657552D01*
X124886980Y-130419457D01*
X123934600Y-134228980D02*
X123886980Y-134133742D01*
X123886980Y-133990885D01*
X123934600Y-133848028D01*
X124029838Y-133752790D01*
X124125076Y-133705171D01*
X124315552Y-133657552D01*
X124458409Y-133657552D01*
X124648885Y-133705171D01*
X124744123Y-133752790D01*
X124839361Y-133848028D01*
X124886980Y-133990885D01*
X124886980Y-134086123D01*
X124839361Y-134228980D01*
X124791742Y-134276600D01*
X124458409Y-134276600D01*
X124458409Y-134086123D01*
D11*
X143184571Y-110899214D02*
X143184571Y-111232547D01*
X143708380Y-111375404D02*
X143708380Y-110899214D01*
X142708380Y-110899214D01*
X142708380Y-111375404D01*
X143708380Y-111803976D02*
X142708380Y-111803976D01*
X143708380Y-112375404D01*
X142708380Y-112375404D01*
X148915380Y-109423023D02*
X147915380Y-109423023D01*
X147915380Y-110089690D02*
X147915380Y-110280166D01*
X147963000Y-110375404D01*
X148058238Y-110470642D01*
X148248714Y-110518261D01*
X148582047Y-110518261D01*
X148772523Y-110470642D01*
X148867761Y-110375404D01*
X148915380Y-110280166D01*
X148915380Y-110089690D01*
X148867761Y-109994452D01*
X148772523Y-109899214D01*
X148582047Y-109851595D01*
X148248714Y-109851595D01*
X148058238Y-109899214D01*
X147963000Y-109994452D01*
X147915380Y-110089690D01*
X148915380Y-111470642D02*
X148915380Y-110899214D01*
X148915380Y-111184928D02*
X147915380Y-111184928D01*
X148058238Y-111089690D01*
X148153476Y-110994452D01*
X148201095Y-110899214D01*
X147915380Y-111803976D02*
X147915380Y-112423023D01*
X148296333Y-112089690D01*
X148296333Y-112232547D01*
X148343952Y-112327785D01*
X148391571Y-112375404D01*
X148486809Y-112423023D01*
X148724904Y-112423023D01*
X148820142Y-112375404D01*
X148867761Y-112327785D01*
X148915380Y-112232547D01*
X148915380Y-111946833D01*
X148867761Y-111851595D01*
X148820142Y-111803976D01*
X161488380Y-120743071D02*
X160488380Y-120743071D01*
X160488380Y-121409738D02*
X160488380Y-121600214D01*
X160536000Y-121695452D01*
X160631238Y-121790690D01*
X160821714Y-121838309D01*
X161155047Y-121838309D01*
X161345523Y-121790690D01*
X161440761Y-121695452D01*
X161488380Y-121600214D01*
X161488380Y-121409738D01*
X161440761Y-121314500D01*
X161345523Y-121219261D01*
X161155047Y-121171642D01*
X160821714Y-121171642D01*
X160631238Y-121219261D01*
X160536000Y-121314500D01*
X160488380Y-121409738D01*
X161488380Y-122790690D02*
X161488380Y-122219261D01*
X161488380Y-122504976D02*
X160488380Y-122504976D01*
X160631238Y-122409738D01*
X160726476Y-122314500D01*
X160774095Y-122219261D01*
X161488380Y-123266880D02*
X161488380Y-123457357D01*
X161440761Y-123552595D01*
X161393142Y-123600214D01*
X161250285Y-123695452D01*
X161059809Y-123743071D01*
X160678857Y-123743071D01*
X160583619Y-123695452D01*
X160536000Y-123647833D01*
X160488380Y-123552595D01*
X160488380Y-123362119D01*
X160536000Y-123266880D01*
X160583619Y-123219261D01*
X160678857Y-123171642D01*
X160916952Y-123171642D01*
X161012190Y-123219261D01*
X161059809Y-123266880D01*
X161107428Y-123362119D01*
X161107428Y-123552595D01*
X161059809Y-123647833D01*
X161012190Y-123695452D01*
X160916952Y-123743071D01*
X160440761Y-124885928D02*
X161726476Y-124028785D01*
X161488380Y-125219261D02*
X160488380Y-125219261D01*
X161202666Y-125552595D01*
X160488380Y-125885928D01*
X161488380Y-125885928D01*
X161488380Y-126362119D02*
X160488380Y-126362119D01*
X161440761Y-126790690D02*
X161488380Y-126933547D01*
X161488380Y-127171642D01*
X161440761Y-127266880D01*
X161393142Y-127314500D01*
X161297904Y-127362119D01*
X161202666Y-127362119D01*
X161107428Y-127314500D01*
X161059809Y-127266880D01*
X161012190Y-127171642D01*
X160964571Y-126981166D01*
X160916952Y-126885928D01*
X160869333Y-126838309D01*
X160774095Y-126790690D01*
X160678857Y-126790690D01*
X160583619Y-126838309D01*
X160536000Y-126885928D01*
X160488380Y-126981166D01*
X160488380Y-127219261D01*
X160536000Y-127362119D01*
X160488380Y-127981166D02*
X160488380Y-128171642D01*
X160536000Y-128266880D01*
X160631238Y-128362119D01*
X160821714Y-128409738D01*
X161155047Y-128409738D01*
X161345523Y-128362119D01*
X161440761Y-128266880D01*
X161488380Y-128171642D01*
X161488380Y-127981166D01*
X161440761Y-127885928D01*
X161345523Y-127790690D01*
X161155047Y-127743071D01*
X160821714Y-127743071D01*
X160631238Y-127790690D01*
X160536000Y-127885928D01*
X160488380Y-127981166D01*
X160440761Y-129552595D02*
X161726476Y-128695452D01*
X161488380Y-130362119D02*
X161488380Y-129885928D01*
X160488380Y-129885928D01*
X160964571Y-130695452D02*
X160964571Y-131028785D01*
X161488380Y-131171642D02*
X161488380Y-130695452D01*
X160488380Y-130695452D01*
X160488380Y-131171642D01*
X161488380Y-131600214D02*
X160488380Y-131600214D01*
X160488380Y-131838309D01*
X160536000Y-131981166D01*
X160631238Y-132076404D01*
X160726476Y-132124023D01*
X160916952Y-132171642D01*
X161059809Y-132171642D01*
X161250285Y-132124023D01*
X161345523Y-132076404D01*
X161440761Y-131981166D01*
X161488380Y-131838309D01*
X161488380Y-131600214D01*
X160821714Y-133028785D02*
X161488380Y-133028785D01*
X160440761Y-132790690D02*
X161155047Y-132552595D01*
X161155047Y-133171642D01*
X166568380Y-109423023D02*
X165568380Y-109423023D01*
X165568380Y-110089690D02*
X165568380Y-110280166D01*
X165616000Y-110375404D01*
X165711238Y-110470642D01*
X165901714Y-110518261D01*
X166235047Y-110518261D01*
X166425523Y-110470642D01*
X166520761Y-110375404D01*
X166568380Y-110280166D01*
X166568380Y-110089690D01*
X166520761Y-109994452D01*
X166425523Y-109899214D01*
X166235047Y-109851595D01*
X165901714Y-109851595D01*
X165711238Y-109899214D01*
X165616000Y-109994452D01*
X165568380Y-110089690D01*
X165663619Y-110899214D02*
X165616000Y-110946833D01*
X165568380Y-111042071D01*
X165568380Y-111280166D01*
X165616000Y-111375404D01*
X165663619Y-111423023D01*
X165758857Y-111470642D01*
X165854095Y-111470642D01*
X165996952Y-111423023D01*
X166568380Y-110851595D01*
X166568380Y-111470642D01*
X165663619Y-111851595D02*
X165616000Y-111899214D01*
X165568380Y-111994452D01*
X165568380Y-112232547D01*
X165616000Y-112327785D01*
X165663619Y-112375404D01*
X165758857Y-112423023D01*
X165854095Y-112423023D01*
X165996952Y-112375404D01*
X166568380Y-111803976D01*
X166568380Y-112423023D01*
D10*
X123886980Y-84230009D02*
X123886980Y-83753819D01*
X124363171Y-83706200D01*
X124315552Y-83753819D01*
X124267933Y-83849057D01*
X124267933Y-84087152D01*
X124315552Y-84182390D01*
X124363171Y-84230009D01*
X124458409Y-84277628D01*
X124696504Y-84277628D01*
X124791742Y-84230009D01*
X124839361Y-84182390D01*
X124886980Y-84087152D01*
X124886980Y-83849057D01*
X124839361Y-83753819D01*
X124791742Y-83706200D01*
X123886980Y-84563342D02*
X124886980Y-84896676D01*
X123886980Y-85230009D01*
X124886980Y-87849057D02*
X123886980Y-87849057D01*
X123886980Y-88087152D01*
X123934600Y-88230009D01*
X124029838Y-88325247D01*
X124125076Y-88372866D01*
X124315552Y-88420485D01*
X124458409Y-88420485D01*
X124648885Y-88372866D01*
X124744123Y-88325247D01*
X124839361Y-88230009D01*
X124886980Y-88087152D01*
X124886980Y-87849057D01*
X123934600Y-91658580D02*
X123886980Y-91563342D01*
X123886980Y-91420485D01*
X123934600Y-91277628D01*
X124029838Y-91182390D01*
X124125076Y-91134771D01*
X124315552Y-91087152D01*
X124458409Y-91087152D01*
X124648885Y-91134771D01*
X124744123Y-91182390D01*
X124839361Y-91277628D01*
X124886980Y-91420485D01*
X124886980Y-91515723D01*
X124839361Y-91658580D01*
X124791742Y-91706200D01*
X124458409Y-91706200D01*
X124458409Y-91515723D01*
D11*
X140914428Y-108105547D02*
X140914428Y-108867452D01*
X141295380Y-108486500D02*
X140533476Y-108486500D01*
X140771571Y-109676976D02*
X140819190Y-109819833D01*
X140866809Y-109867452D01*
X140962047Y-109915071D01*
X141104904Y-109915071D01*
X141200142Y-109867452D01*
X141247761Y-109819833D01*
X141295380Y-109724595D01*
X141295380Y-109343642D01*
X140295380Y-109343642D01*
X140295380Y-109676976D01*
X140343000Y-109772214D01*
X140390619Y-109819833D01*
X140485857Y-109867452D01*
X140581095Y-109867452D01*
X140676333Y-109819833D01*
X140723952Y-109772214D01*
X140771571Y-109676976D01*
X140771571Y-109343642D01*
X141009666Y-110296023D02*
X141009666Y-110772214D01*
X141295380Y-110200785D02*
X140295380Y-110534119D01*
X141295380Y-110867452D01*
X140295380Y-111057928D02*
X140295380Y-111629357D01*
X141295380Y-111343642D02*
X140295380Y-111343642D01*
X140295380Y-111819833D02*
X140295380Y-112391261D01*
X141295380Y-112105547D02*
X140295380Y-112105547D01*
X164028380Y-105423023D02*
X163028380Y-105423023D01*
X163028380Y-106089690D02*
X163028380Y-106280166D01*
X163076000Y-106375404D01*
X163171238Y-106470642D01*
X163361714Y-106518261D01*
X163695047Y-106518261D01*
X163885523Y-106470642D01*
X163980761Y-106375404D01*
X164028380Y-106280166D01*
X164028380Y-106089690D01*
X163980761Y-105994452D01*
X163885523Y-105899214D01*
X163695047Y-105851595D01*
X163361714Y-105851595D01*
X163171238Y-105899214D01*
X163076000Y-105994452D01*
X163028380Y-106089690D01*
X164028380Y-107470642D02*
X164028380Y-106899214D01*
X164028380Y-107184928D02*
X163028380Y-107184928D01*
X163171238Y-107089690D01*
X163266476Y-106994452D01*
X163314095Y-106899214D01*
X163361714Y-108327785D02*
X164028380Y-108327785D01*
X162980761Y-108089690D02*
X163695047Y-107851595D01*
X163695047Y-108470642D01*
X162980761Y-109565880D02*
X164266476Y-108708738D01*
X163980761Y-109851595D02*
X164028380Y-109994452D01*
X164028380Y-110232547D01*
X163980761Y-110327785D01*
X163933142Y-110375404D01*
X163837904Y-110423023D01*
X163742666Y-110423023D01*
X163647428Y-110375404D01*
X163599809Y-110327785D01*
X163552190Y-110232547D01*
X163504571Y-110042071D01*
X163456952Y-109946833D01*
X163409333Y-109899214D01*
X163314095Y-109851595D01*
X163218857Y-109851595D01*
X163123619Y-109899214D01*
X163076000Y-109946833D01*
X163028380Y-110042071D01*
X163028380Y-110280166D01*
X163076000Y-110423023D01*
X163933142Y-111423023D02*
X163980761Y-111375404D01*
X164028380Y-111232547D01*
X164028380Y-111137309D01*
X163980761Y-110994452D01*
X163885523Y-110899214D01*
X163790285Y-110851595D01*
X163599809Y-110803976D01*
X163456952Y-110803976D01*
X163266476Y-110851595D01*
X163171238Y-110899214D01*
X163076000Y-110994452D01*
X163028380Y-111137309D01*
X163028380Y-111232547D01*
X163076000Y-111375404D01*
X163123619Y-111423023D01*
X164028380Y-111851595D02*
X163028380Y-111851595D01*
X164028380Y-112423023D02*
X163456952Y-111994452D01*
X163028380Y-112423023D02*
X163599809Y-111851595D01*
D12*
X123309771Y-126553400D02*
X123309771Y-125839114D01*
X121809771Y-125839114D01*
X122524057Y-127053400D02*
X122524057Y-127553400D01*
X123309771Y-127767685D02*
X123309771Y-127053400D01*
X121809771Y-127053400D01*
X121809771Y-127767685D01*
X123309771Y-128410542D02*
X121809771Y-128410542D01*
X121809771Y-128767685D01*
X121881200Y-128981971D01*
X122024057Y-129124828D01*
X122166914Y-129196257D01*
X122452628Y-129267685D01*
X122666914Y-129267685D01*
X122952628Y-129196257D01*
X123095485Y-129124828D01*
X123238342Y-128981971D01*
X123309771Y-128767685D01*
X123309771Y-128410542D01*
X123309771Y-131839114D02*
X123309771Y-130981971D01*
X123309771Y-131410542D02*
X121809771Y-131410542D01*
X122024057Y-131267685D01*
X122166914Y-131124828D01*
X122238342Y-130981971D01*
D11*
X141168380Y-122409738D02*
X140168380Y-122409738D01*
X140168380Y-123076404D02*
X140168380Y-123266880D01*
X140216000Y-123362119D01*
X140311238Y-123457357D01*
X140501714Y-123504976D01*
X140835047Y-123504976D01*
X141025523Y-123457357D01*
X141120761Y-123362119D01*
X141168380Y-123266880D01*
X141168380Y-123076404D01*
X141120761Y-122981166D01*
X141025523Y-122885928D01*
X140835047Y-122838309D01*
X140501714Y-122838309D01*
X140311238Y-122885928D01*
X140216000Y-122981166D01*
X140168380Y-123076404D01*
X140263619Y-123885928D02*
X140216000Y-123933547D01*
X140168380Y-124028785D01*
X140168380Y-124266880D01*
X140216000Y-124362119D01*
X140263619Y-124409738D01*
X140358857Y-124457357D01*
X140454095Y-124457357D01*
X140596952Y-124409738D01*
X141168380Y-123838309D01*
X141168380Y-124457357D01*
X140168380Y-125314500D02*
X140168380Y-125124023D01*
X140216000Y-125028785D01*
X140263619Y-124981166D01*
X140406476Y-124885928D01*
X140596952Y-124838309D01*
X140977904Y-124838309D01*
X141073142Y-124885928D01*
X141120761Y-124933547D01*
X141168380Y-125028785D01*
X141168380Y-125219261D01*
X141120761Y-125314500D01*
X141073142Y-125362119D01*
X140977904Y-125409738D01*
X140739809Y-125409738D01*
X140644571Y-125362119D01*
X140596952Y-125314500D01*
X140549333Y-125219261D01*
X140549333Y-125028785D01*
X140596952Y-124933547D01*
X140644571Y-124885928D01*
X140739809Y-124838309D01*
X140120761Y-126552595D02*
X141406476Y-125695452D01*
X140882666Y-126838309D02*
X140882666Y-127314500D01*
X141168380Y-126743071D02*
X140168380Y-127076404D01*
X141168380Y-127409738D01*
X140168380Y-127933547D02*
X140168380Y-128028785D01*
X140216000Y-128124023D01*
X140263619Y-128171642D01*
X140358857Y-128219261D01*
X140549333Y-128266880D01*
X140787428Y-128266880D01*
X140977904Y-128219261D01*
X141073142Y-128171642D01*
X141120761Y-128124023D01*
X141168380Y-128028785D01*
X141168380Y-127933547D01*
X141120761Y-127838309D01*
X141073142Y-127790690D01*
X140977904Y-127743071D01*
X140787428Y-127695452D01*
X140549333Y-127695452D01*
X140358857Y-127743071D01*
X140263619Y-127790690D01*
X140216000Y-127838309D01*
X140168380Y-127933547D01*
X140120761Y-129409738D02*
X141406476Y-128552595D01*
X141168380Y-129743071D02*
X140168380Y-129743071D01*
X140168380Y-129981166D01*
X140216000Y-130124023D01*
X140311238Y-130219261D01*
X140406476Y-130266880D01*
X140596952Y-130314500D01*
X140739809Y-130314500D01*
X140930285Y-130266880D01*
X141025523Y-130219261D01*
X141120761Y-130124023D01*
X141168380Y-129981166D01*
X141168380Y-129743071D01*
X140882666Y-130695452D02*
X140882666Y-131171642D01*
X141168380Y-130600214D02*
X140168380Y-130933547D01*
X141168380Y-131266880D01*
X141073142Y-132171642D02*
X141120761Y-132124023D01*
X141168380Y-131981166D01*
X141168380Y-131885928D01*
X141120761Y-131743071D01*
X141025523Y-131647833D01*
X140930285Y-131600214D01*
X140739809Y-131552595D01*
X140596952Y-131552595D01*
X140406476Y-131600214D01*
X140311238Y-131647833D01*
X140216000Y-131743071D01*
X140168380Y-131885928D01*
X140168380Y-131981166D01*
X140216000Y-132124023D01*
X140263619Y-132171642D01*
X140263619Y-132552595D02*
X140216000Y-132600214D01*
X140168380Y-132695452D01*
X140168380Y-132933547D01*
X140216000Y-133028785D01*
X140263619Y-133076404D01*
X140358857Y-133124023D01*
X140454095Y-133124023D01*
X140596952Y-133076404D01*
X141168380Y-132504976D01*
X141168380Y-133124023D01*
X166568380Y-125282738D02*
X165568380Y-125282738D01*
X165568380Y-125949404D02*
X165568380Y-126139880D01*
X165616000Y-126235119D01*
X165711238Y-126330357D01*
X165901714Y-126377976D01*
X166235047Y-126377976D01*
X166425523Y-126330357D01*
X166520761Y-126235119D01*
X166568380Y-126139880D01*
X166568380Y-125949404D01*
X166520761Y-125854166D01*
X166425523Y-125758928D01*
X166235047Y-125711309D01*
X165901714Y-125711309D01*
X165711238Y-125758928D01*
X165616000Y-125854166D01*
X165568380Y-125949404D01*
X166568380Y-127330357D02*
X166568380Y-126758928D01*
X166568380Y-127044642D02*
X165568380Y-127044642D01*
X165711238Y-126949404D01*
X165806476Y-126854166D01*
X165854095Y-126758928D01*
X165568380Y-127663690D02*
X165568380Y-128330357D01*
X166568380Y-127901785D01*
X165520761Y-129425595D02*
X166806476Y-128568452D01*
X166568380Y-130235119D02*
X166568380Y-129758928D01*
X165568380Y-129758928D01*
X166044571Y-130568452D02*
X166044571Y-130901785D01*
X166568380Y-131044642D02*
X166568380Y-130568452D01*
X165568380Y-130568452D01*
X165568380Y-131044642D01*
X166568380Y-131473214D02*
X165568380Y-131473214D01*
X165568380Y-131711309D01*
X165616000Y-131854166D01*
X165711238Y-131949404D01*
X165806476Y-131997023D01*
X165996952Y-132044642D01*
X166139809Y-132044642D01*
X166330285Y-131997023D01*
X166425523Y-131949404D01*
X166520761Y-131854166D01*
X166568380Y-131711309D01*
X166568380Y-131473214D01*
X165663619Y-132425595D02*
X165616000Y-132473214D01*
X165568380Y-132568452D01*
X165568380Y-132806547D01*
X165616000Y-132901785D01*
X165663619Y-132949404D01*
X165758857Y-132997023D01*
X165854095Y-132997023D01*
X165996952Y-132949404D01*
X166568380Y-132377976D01*
X166568380Y-132997023D01*
X169108380Y-109423023D02*
X168108380Y-109423023D01*
X168108380Y-110089690D02*
X168108380Y-110280166D01*
X168156000Y-110375404D01*
X168251238Y-110470642D01*
X168441714Y-110518261D01*
X168775047Y-110518261D01*
X168965523Y-110470642D01*
X169060761Y-110375404D01*
X169108380Y-110280166D01*
X169108380Y-110089690D01*
X169060761Y-109994452D01*
X168965523Y-109899214D01*
X168775047Y-109851595D01*
X168441714Y-109851595D01*
X168251238Y-109899214D01*
X168156000Y-109994452D01*
X168108380Y-110089690D01*
X168203619Y-110899214D02*
X168156000Y-110946833D01*
X168108380Y-111042071D01*
X168108380Y-111280166D01*
X168156000Y-111375404D01*
X168203619Y-111423023D01*
X168298857Y-111470642D01*
X168394095Y-111470642D01*
X168536952Y-111423023D01*
X169108380Y-110851595D01*
X169108380Y-111470642D01*
X168108380Y-111803976D02*
X168108380Y-112423023D01*
X168489333Y-112089690D01*
X168489333Y-112232547D01*
X168536952Y-112327785D01*
X168584571Y-112375404D01*
X168679809Y-112423023D01*
X168917904Y-112423023D01*
X169013142Y-112375404D01*
X169060761Y-112327785D01*
X169108380Y-112232547D01*
X169108380Y-111946833D01*
X169060761Y-111851595D01*
X169013142Y-111803976D01*
X132675380Y-130092261D02*
X132675380Y-130711309D01*
X133056333Y-130377976D01*
X133056333Y-130520833D01*
X133103952Y-130616071D01*
X133151571Y-130663690D01*
X133246809Y-130711309D01*
X133484904Y-130711309D01*
X133580142Y-130663690D01*
X133627761Y-130616071D01*
X133675380Y-130520833D01*
X133675380Y-130235119D01*
X133627761Y-130139880D01*
X133580142Y-130092261D01*
X133580142Y-131139880D02*
X133627761Y-131187500D01*
X133675380Y-131139880D01*
X133627761Y-131092261D01*
X133580142Y-131139880D01*
X133675380Y-131139880D01*
X132675380Y-131520833D02*
X132675380Y-132139880D01*
X133056333Y-131806547D01*
X133056333Y-131949404D01*
X133103952Y-132044642D01*
X133151571Y-132092261D01*
X133246809Y-132139880D01*
X133484904Y-132139880D01*
X133580142Y-132092261D01*
X133627761Y-132044642D01*
X133675380Y-131949404D01*
X133675380Y-131663690D01*
X133627761Y-131568452D01*
X133580142Y-131520833D01*
X132675380Y-132425595D02*
X133675380Y-132758928D01*
X132675380Y-133092261D01*
X156535380Y-131076404D02*
X155535380Y-131076404D01*
X155535380Y-131743071D02*
X155535380Y-131933547D01*
X155583000Y-132028785D01*
X155678238Y-132124023D01*
X155868714Y-132171642D01*
X156202047Y-132171642D01*
X156392523Y-132124023D01*
X156487761Y-132028785D01*
X156535380Y-131933547D01*
X156535380Y-131743071D01*
X156487761Y-131647833D01*
X156392523Y-131552595D01*
X156202047Y-131504976D01*
X155868714Y-131504976D01*
X155678238Y-131552595D01*
X155583000Y-131647833D01*
X155535380Y-131743071D01*
X155535380Y-133076404D02*
X155535380Y-132600214D01*
X156011571Y-132552595D01*
X155963952Y-132600214D01*
X155916333Y-132695452D01*
X155916333Y-132933547D01*
X155963952Y-133028785D01*
X156011571Y-133076404D01*
X156106809Y-133124023D01*
X156344904Y-133124023D01*
X156440142Y-133076404D01*
X156487761Y-133028785D01*
X156535380Y-132933547D01*
X156535380Y-132695452D01*
X156487761Y-132600214D01*
X156440142Y-132552595D01*
X151455380Y-117695452D02*
X150455380Y-117695452D01*
X150455380Y-118362119D02*
X150455380Y-118552595D01*
X150503000Y-118647833D01*
X150598238Y-118743071D01*
X150788714Y-118790690D01*
X151122047Y-118790690D01*
X151312523Y-118743071D01*
X151407761Y-118647833D01*
X151455380Y-118552595D01*
X151455380Y-118362119D01*
X151407761Y-118266880D01*
X151312523Y-118171642D01*
X151122047Y-118124023D01*
X150788714Y-118124023D01*
X150598238Y-118171642D01*
X150503000Y-118266880D01*
X150455380Y-118362119D01*
X150455380Y-119124023D02*
X150455380Y-119743071D01*
X150836333Y-119409738D01*
X150836333Y-119552595D01*
X150883952Y-119647833D01*
X150931571Y-119695452D01*
X151026809Y-119743071D01*
X151264904Y-119743071D01*
X151360142Y-119695452D01*
X151407761Y-119647833D01*
X151455380Y-119552595D01*
X151455380Y-119266880D01*
X151407761Y-119171642D01*
X151360142Y-119124023D01*
X150455380Y-120600214D02*
X150455380Y-120409738D01*
X150503000Y-120314500D01*
X150550619Y-120266880D01*
X150693476Y-120171642D01*
X150883952Y-120124023D01*
X151264904Y-120124023D01*
X151360142Y-120171642D01*
X151407761Y-120219261D01*
X151455380Y-120314500D01*
X151455380Y-120504976D01*
X151407761Y-120600214D01*
X151360142Y-120647833D01*
X151264904Y-120695452D01*
X151026809Y-120695452D01*
X150931571Y-120647833D01*
X150883952Y-120600214D01*
X150836333Y-120504976D01*
X150836333Y-120314500D01*
X150883952Y-120219261D01*
X150931571Y-120171642D01*
X151026809Y-120124023D01*
X150407761Y-121838309D02*
X151693476Y-120981166D01*
X151169666Y-122124023D02*
X151169666Y-122600214D01*
X151455380Y-122028785D02*
X150455380Y-122362119D01*
X151455380Y-122695452D01*
X150788714Y-123457357D02*
X151455380Y-123457357D01*
X150407761Y-123219261D02*
X151122047Y-122981166D01*
X151122047Y-123600214D01*
X150407761Y-124695452D02*
X151693476Y-123838309D01*
X151407761Y-124981166D02*
X151455380Y-125124023D01*
X151455380Y-125362119D01*
X151407761Y-125457357D01*
X151360142Y-125504976D01*
X151264904Y-125552595D01*
X151169666Y-125552595D01*
X151074428Y-125504976D01*
X151026809Y-125457357D01*
X150979190Y-125362119D01*
X150931571Y-125171642D01*
X150883952Y-125076404D01*
X150836333Y-125028785D01*
X150741095Y-124981166D01*
X150645857Y-124981166D01*
X150550619Y-125028785D01*
X150503000Y-125076404D01*
X150455380Y-125171642D01*
X150455380Y-125409738D01*
X150503000Y-125552595D01*
X150931571Y-125981166D02*
X150931571Y-126314500D01*
X151455380Y-126457357D02*
X151455380Y-125981166D01*
X150455380Y-125981166D01*
X150455380Y-126457357D01*
X151455380Y-126885928D02*
X150455380Y-126885928D01*
X151455380Y-127457357D01*
X150455380Y-127457357D01*
X151407761Y-127885928D02*
X151455380Y-128028785D01*
X151455380Y-128266880D01*
X151407761Y-128362119D01*
X151360142Y-128409738D01*
X151264904Y-128457357D01*
X151169666Y-128457357D01*
X151074428Y-128409738D01*
X151026809Y-128362119D01*
X150979190Y-128266880D01*
X150931571Y-128076404D01*
X150883952Y-127981166D01*
X150836333Y-127933547D01*
X150741095Y-127885928D01*
X150645857Y-127885928D01*
X150550619Y-127933547D01*
X150503000Y-127981166D01*
X150455380Y-128076404D01*
X150455380Y-128314500D01*
X150503000Y-128457357D01*
X150455380Y-129076404D02*
X150455380Y-129266880D01*
X150503000Y-129362119D01*
X150598238Y-129457357D01*
X150788714Y-129504976D01*
X151122047Y-129504976D01*
X151312523Y-129457357D01*
X151407761Y-129362119D01*
X151455380Y-129266880D01*
X151455380Y-129076404D01*
X151407761Y-128981166D01*
X151312523Y-128885928D01*
X151122047Y-128838309D01*
X150788714Y-128838309D01*
X150598238Y-128885928D01*
X150503000Y-128981166D01*
X150455380Y-129076404D01*
X151455380Y-130504976D02*
X150979190Y-130171642D01*
X151455380Y-129933547D02*
X150455380Y-129933547D01*
X150455380Y-130314500D01*
X150503000Y-130409738D01*
X150550619Y-130457357D01*
X150645857Y-130504976D01*
X150788714Y-130504976D01*
X150883952Y-130457357D01*
X150931571Y-130409738D01*
X150979190Y-130314500D01*
X150979190Y-129933547D01*
X151550619Y-130695452D02*
X151550619Y-131457357D01*
X150455380Y-131552595D02*
X151455380Y-131885928D01*
X150455380Y-132219261D01*
X151455380Y-132552595D02*
X150455380Y-132552595D01*
X150455380Y-132933547D01*
X150503000Y-133028785D01*
X150550619Y-133076404D01*
X150645857Y-133124023D01*
X150788714Y-133124023D01*
X150883952Y-133076404D01*
X150931571Y-133028785D01*
X150979190Y-132933547D01*
X150979190Y-132552595D01*
D10*
X153455714Y-91154428D02*
X154122380Y-91392523D01*
X153455714Y-91630619D01*
X154122380Y-92535380D02*
X154122380Y-91963952D01*
X154122380Y-92249666D02*
X153122380Y-92249666D01*
X153265238Y-92154428D01*
X153360476Y-92059190D01*
X153408095Y-91963952D01*
X154027142Y-92963952D02*
X154074761Y-93011571D01*
X154122380Y-92963952D01*
X154074761Y-92916333D01*
X154027142Y-92963952D01*
X154122380Y-92963952D01*
X153122380Y-93630619D02*
X153122380Y-93725857D01*
X153170000Y-93821095D01*
X153217619Y-93868714D01*
X153312857Y-93916333D01*
X153503333Y-93963952D01*
X153741428Y-93963952D01*
X153931904Y-93916333D01*
X154027142Y-93868714D01*
X154074761Y-93821095D01*
X154122380Y-93725857D01*
X154122380Y-93630619D01*
X154074761Y-93535380D01*
X154027142Y-93487761D01*
X153931904Y-93440142D01*
X153741428Y-93392523D01*
X153503333Y-93392523D01*
X153312857Y-93440142D01*
X153217619Y-93487761D01*
X153170000Y-93535380D01*
X153122380Y-93630619D01*
D11*
X151455380Y-109423023D02*
X150455380Y-109423023D01*
X150455380Y-110089690D02*
X150455380Y-110280166D01*
X150503000Y-110375404D01*
X150598238Y-110470642D01*
X150788714Y-110518261D01*
X151122047Y-110518261D01*
X151312523Y-110470642D01*
X151407761Y-110375404D01*
X151455380Y-110280166D01*
X151455380Y-110089690D01*
X151407761Y-109994452D01*
X151312523Y-109899214D01*
X151122047Y-109851595D01*
X150788714Y-109851595D01*
X150598238Y-109899214D01*
X150503000Y-109994452D01*
X150455380Y-110089690D01*
X151455380Y-111470642D02*
X151455380Y-110899214D01*
X151455380Y-111184928D02*
X150455380Y-111184928D01*
X150598238Y-111089690D01*
X150693476Y-110994452D01*
X150741095Y-110899214D01*
X150550619Y-111851595D02*
X150503000Y-111899214D01*
X150455380Y-111994452D01*
X150455380Y-112232547D01*
X150503000Y-112327785D01*
X150550619Y-112375404D01*
X150645857Y-112423023D01*
X150741095Y-112423023D01*
X150883952Y-112375404D01*
X151455380Y-111803976D01*
X151455380Y-112423023D01*
X156535380Y-109423023D02*
X155535380Y-109423023D01*
X155535380Y-110089690D02*
X155535380Y-110280166D01*
X155583000Y-110375404D01*
X155678238Y-110470642D01*
X155868714Y-110518261D01*
X156202047Y-110518261D01*
X156392523Y-110470642D01*
X156487761Y-110375404D01*
X156535380Y-110280166D01*
X156535380Y-110089690D01*
X156487761Y-109994452D01*
X156392523Y-109899214D01*
X156202047Y-109851595D01*
X155868714Y-109851595D01*
X155678238Y-109899214D01*
X155583000Y-109994452D01*
X155535380Y-110089690D01*
X155535380Y-110851595D02*
X155535380Y-111470642D01*
X155916333Y-111137309D01*
X155916333Y-111280166D01*
X155963952Y-111375404D01*
X156011571Y-111423023D01*
X156106809Y-111470642D01*
X156344904Y-111470642D01*
X156440142Y-111423023D01*
X156487761Y-111375404D01*
X156535380Y-111280166D01*
X156535380Y-110994452D01*
X156487761Y-110899214D01*
X156440142Y-110851595D01*
X155535380Y-111803976D02*
X155535380Y-112423023D01*
X155916333Y-112089690D01*
X155916333Y-112232547D01*
X155963952Y-112327785D01*
X156011571Y-112375404D01*
X156106809Y-112423023D01*
X156344904Y-112423023D01*
X156440142Y-112375404D01*
X156487761Y-112327785D01*
X156535380Y-112232547D01*
X156535380Y-111946833D01*
X156487761Y-111851595D01*
X156440142Y-111803976D01*
X164028380Y-125409738D02*
X163028380Y-125409738D01*
X163028380Y-126076404D02*
X163028380Y-126266880D01*
X163076000Y-126362119D01*
X163171238Y-126457357D01*
X163361714Y-126504976D01*
X163695047Y-126504976D01*
X163885523Y-126457357D01*
X163980761Y-126362119D01*
X164028380Y-126266880D01*
X164028380Y-126076404D01*
X163980761Y-125981166D01*
X163885523Y-125885928D01*
X163695047Y-125838309D01*
X163361714Y-125838309D01*
X163171238Y-125885928D01*
X163076000Y-125981166D01*
X163028380Y-126076404D01*
X164028380Y-127457357D02*
X164028380Y-126885928D01*
X164028380Y-127171642D02*
X163028380Y-127171642D01*
X163171238Y-127076404D01*
X163266476Y-126981166D01*
X163314095Y-126885928D01*
X163028380Y-128314500D02*
X163028380Y-128124023D01*
X163076000Y-128028785D01*
X163123619Y-127981166D01*
X163266476Y-127885928D01*
X163456952Y-127838309D01*
X163837904Y-127838309D01*
X163933142Y-127885928D01*
X163980761Y-127933547D01*
X164028380Y-128028785D01*
X164028380Y-128219261D01*
X163980761Y-128314500D01*
X163933142Y-128362119D01*
X163837904Y-128409738D01*
X163599809Y-128409738D01*
X163504571Y-128362119D01*
X163456952Y-128314500D01*
X163409333Y-128219261D01*
X163409333Y-128028785D01*
X163456952Y-127933547D01*
X163504571Y-127885928D01*
X163599809Y-127838309D01*
X162980761Y-129552595D02*
X164266476Y-128695452D01*
X164028380Y-130362119D02*
X164028380Y-129885928D01*
X163028380Y-129885928D01*
X163504571Y-130695452D02*
X163504571Y-131028785D01*
X164028380Y-131171642D02*
X164028380Y-130695452D01*
X163028380Y-130695452D01*
X163028380Y-131171642D01*
X164028380Y-131600214D02*
X163028380Y-131600214D01*
X163028380Y-131838309D01*
X163076000Y-131981166D01*
X163171238Y-132076404D01*
X163266476Y-132124023D01*
X163456952Y-132171642D01*
X163599809Y-132171642D01*
X163790285Y-132124023D01*
X163885523Y-132076404D01*
X163980761Y-131981166D01*
X164028380Y-131838309D01*
X164028380Y-131600214D01*
X164028380Y-133124023D02*
X164028380Y-132552595D01*
X164028380Y-132838309D02*
X163028380Y-132838309D01*
X163171238Y-132743071D01*
X163266476Y-132647833D01*
X163314095Y-132552595D01*
X161488380Y-106423023D02*
X160488380Y-106423023D01*
X160488380Y-107089690D02*
X160488380Y-107280166D01*
X160536000Y-107375404D01*
X160631238Y-107470642D01*
X160821714Y-107518261D01*
X161155047Y-107518261D01*
X161345523Y-107470642D01*
X161440761Y-107375404D01*
X161488380Y-107280166D01*
X161488380Y-107089690D01*
X161440761Y-106994452D01*
X161345523Y-106899214D01*
X161155047Y-106851595D01*
X160821714Y-106851595D01*
X160631238Y-106899214D01*
X160536000Y-106994452D01*
X160488380Y-107089690D01*
X160488380Y-107851595D02*
X160488380Y-108470642D01*
X160869333Y-108137309D01*
X160869333Y-108280166D01*
X160916952Y-108375404D01*
X160964571Y-108423023D01*
X161059809Y-108470642D01*
X161297904Y-108470642D01*
X161393142Y-108423023D01*
X161440761Y-108375404D01*
X161488380Y-108280166D01*
X161488380Y-107994452D01*
X161440761Y-107899214D01*
X161393142Y-107851595D01*
X160583619Y-108851595D02*
X160536000Y-108899214D01*
X160488380Y-108994452D01*
X160488380Y-109232547D01*
X160536000Y-109327785D01*
X160583619Y-109375404D01*
X160678857Y-109423023D01*
X160774095Y-109423023D01*
X160916952Y-109375404D01*
X161488380Y-108803976D01*
X161488380Y-109423023D01*
X160440761Y-110565880D02*
X161726476Y-109708738D01*
X161440761Y-110851595D02*
X161488380Y-110994452D01*
X161488380Y-111232547D01*
X161440761Y-111327785D01*
X161393142Y-111375404D01*
X161297904Y-111423023D01*
X161202666Y-111423023D01*
X161107428Y-111375404D01*
X161059809Y-111327785D01*
X161012190Y-111232547D01*
X160964571Y-111042071D01*
X160916952Y-110946833D01*
X160869333Y-110899214D01*
X160774095Y-110851595D01*
X160678857Y-110851595D01*
X160583619Y-110899214D01*
X160536000Y-110946833D01*
X160488380Y-111042071D01*
X160488380Y-111280166D01*
X160536000Y-111423023D01*
X161488380Y-111851595D02*
X160488380Y-111851595D01*
X160488380Y-112089690D01*
X160536000Y-112232547D01*
X160631238Y-112327785D01*
X160726476Y-112375404D01*
X160916952Y-112423023D01*
X161059809Y-112423023D01*
X161250285Y-112375404D01*
X161345523Y-112327785D01*
X161440761Y-112232547D01*
X161488380Y-112089690D01*
X161488380Y-111851595D01*
X153868380Y-109423023D02*
X152868380Y-109423023D01*
X152868380Y-110089690D02*
X152868380Y-110280166D01*
X152916000Y-110375404D01*
X153011238Y-110470642D01*
X153201714Y-110518261D01*
X153535047Y-110518261D01*
X153725523Y-110470642D01*
X153820761Y-110375404D01*
X153868380Y-110280166D01*
X153868380Y-110089690D01*
X153820761Y-109994452D01*
X153725523Y-109899214D01*
X153535047Y-109851595D01*
X153201714Y-109851595D01*
X153011238Y-109899214D01*
X152916000Y-109994452D01*
X152868380Y-110089690D01*
X152963619Y-110899214D02*
X152916000Y-110946833D01*
X152868380Y-111042071D01*
X152868380Y-111280166D01*
X152916000Y-111375404D01*
X152963619Y-111423023D01*
X153058857Y-111470642D01*
X153154095Y-111470642D01*
X153296952Y-111423023D01*
X153868380Y-110851595D01*
X153868380Y-111470642D01*
X152868380Y-111803976D02*
X152868380Y-112470642D01*
X153868380Y-112042071D01*
D10*
X123886980Y-112678009D02*
X123886980Y-112201819D01*
X124363171Y-112154200D01*
X124315552Y-112201819D01*
X124267933Y-112297057D01*
X124267933Y-112535152D01*
X124315552Y-112630390D01*
X124363171Y-112678009D01*
X124458409Y-112725628D01*
X124696504Y-112725628D01*
X124791742Y-112678009D01*
X124839361Y-112630390D01*
X124886980Y-112535152D01*
X124886980Y-112297057D01*
X124839361Y-112201819D01*
X124791742Y-112154200D01*
X123886980Y-113011342D02*
X124886980Y-113344676D01*
X123886980Y-113678009D01*
X124886980Y-116297057D02*
X123886980Y-116297057D01*
X123886980Y-116535152D01*
X123934600Y-116678009D01*
X124029838Y-116773247D01*
X124125076Y-116820866D01*
X124315552Y-116868485D01*
X124458409Y-116868485D01*
X124648885Y-116820866D01*
X124744123Y-116773247D01*
X124839361Y-116678009D01*
X124886980Y-116535152D01*
X124886980Y-116297057D01*
X123934600Y-120106580D02*
X123886980Y-120011342D01*
X123886980Y-119868485D01*
X123934600Y-119725628D01*
X124029838Y-119630390D01*
X124125076Y-119582771D01*
X124315552Y-119535152D01*
X124458409Y-119535152D01*
X124648885Y-119582771D01*
X124744123Y-119630390D01*
X124839361Y-119725628D01*
X124886980Y-119868485D01*
X124886980Y-119963723D01*
X124839361Y-120106580D01*
X124791742Y-120154200D01*
X124458409Y-120154200D01*
X124458409Y-119963723D01*
D12*
X123233571Y-86624600D02*
X123233571Y-85910314D01*
X121733571Y-85910314D01*
X122447857Y-87124600D02*
X122447857Y-87624600D01*
X123233571Y-87838885D02*
X123233571Y-87124600D01*
X121733571Y-87124600D01*
X121733571Y-87838885D01*
X123233571Y-88481742D02*
X121733571Y-88481742D01*
X121733571Y-88838885D01*
X121805000Y-89053171D01*
X121947857Y-89196028D01*
X122090714Y-89267457D01*
X122376428Y-89338885D01*
X122590714Y-89338885D01*
X122876428Y-89267457D01*
X123019285Y-89196028D01*
X123162142Y-89053171D01*
X123233571Y-88838885D01*
X123233571Y-88481742D01*
X122233571Y-91767457D02*
X123233571Y-91767457D01*
X121662142Y-91410314D02*
X122733571Y-91053171D01*
X122733571Y-91981742D01*
D11*
X143835380Y-122409738D02*
X142835380Y-122409738D01*
X142835380Y-123076404D02*
X142835380Y-123266880D01*
X142883000Y-123362119D01*
X142978238Y-123457357D01*
X143168714Y-123504976D01*
X143502047Y-123504976D01*
X143692523Y-123457357D01*
X143787761Y-123362119D01*
X143835380Y-123266880D01*
X143835380Y-123076404D01*
X143787761Y-122981166D01*
X143692523Y-122885928D01*
X143502047Y-122838309D01*
X143168714Y-122838309D01*
X142978238Y-122885928D01*
X142883000Y-122981166D01*
X142835380Y-123076404D01*
X142930619Y-123885928D02*
X142883000Y-123933547D01*
X142835380Y-124028785D01*
X142835380Y-124266880D01*
X142883000Y-124362119D01*
X142930619Y-124409738D01*
X143025857Y-124457357D01*
X143121095Y-124457357D01*
X143263952Y-124409738D01*
X143835380Y-123838309D01*
X143835380Y-124457357D01*
X142835380Y-125362119D02*
X142835380Y-124885928D01*
X143311571Y-124838309D01*
X143263952Y-124885928D01*
X143216333Y-124981166D01*
X143216333Y-125219261D01*
X143263952Y-125314500D01*
X143311571Y-125362119D01*
X143406809Y-125409738D01*
X143644904Y-125409738D01*
X143740142Y-125362119D01*
X143787761Y-125314500D01*
X143835380Y-125219261D01*
X143835380Y-124981166D01*
X143787761Y-124885928D01*
X143740142Y-124838309D01*
X142787761Y-126552595D02*
X144073476Y-125695452D01*
X143549666Y-126838309D02*
X143549666Y-127314500D01*
X143835380Y-126743071D02*
X142835380Y-127076404D01*
X143835380Y-127409738D01*
X143835380Y-128266880D02*
X143835380Y-127695452D01*
X143835380Y-127981166D02*
X142835380Y-127981166D01*
X142978238Y-127885928D01*
X143073476Y-127790690D01*
X143121095Y-127695452D01*
X142787761Y-129409738D02*
X144073476Y-128552595D01*
X143835380Y-129743071D02*
X142835380Y-129743071D01*
X142835380Y-129981166D01*
X142883000Y-130124023D01*
X142978238Y-130219261D01*
X143073476Y-130266880D01*
X143263952Y-130314500D01*
X143406809Y-130314500D01*
X143597285Y-130266880D01*
X143692523Y-130219261D01*
X143787761Y-130124023D01*
X143835380Y-129981166D01*
X143835380Y-129743071D01*
X143549666Y-130695452D02*
X143549666Y-131171642D01*
X143835380Y-130600214D02*
X142835380Y-130933547D01*
X143835380Y-131266880D01*
X143740142Y-132171642D02*
X143787761Y-132124023D01*
X143835380Y-131981166D01*
X143835380Y-131885928D01*
X143787761Y-131743071D01*
X143692523Y-131647833D01*
X143597285Y-131600214D01*
X143406809Y-131552595D01*
X143263952Y-131552595D01*
X143073476Y-131600214D01*
X142978238Y-131647833D01*
X142883000Y-131743071D01*
X142835380Y-131885928D01*
X142835380Y-131981166D01*
X142883000Y-132124023D01*
X142930619Y-132171642D01*
X143835380Y-133124023D02*
X143835380Y-132552595D01*
X143835380Y-132838309D02*
X142835380Y-132838309D01*
X142978238Y-132743071D01*
X143073476Y-132647833D01*
X143121095Y-132552595D01*
X145375380Y-111518261D02*
X145375380Y-111042071D01*
X145851571Y-110994452D01*
X145803952Y-111042071D01*
X145756333Y-111137309D01*
X145756333Y-111375404D01*
X145803952Y-111470642D01*
X145851571Y-111518261D01*
X145946809Y-111565880D01*
X146184904Y-111565880D01*
X146280142Y-111518261D01*
X146327761Y-111470642D01*
X146375380Y-111375404D01*
X146375380Y-111137309D01*
X146327761Y-111042071D01*
X146280142Y-110994452D01*
X145375380Y-111851595D02*
X146375380Y-112184928D01*
X145375380Y-112518261D01*
D10*
%TO.C,Status_LED1*%
X131610761Y-85687447D02*
X131658380Y-85830304D01*
X131658380Y-86068400D01*
X131610761Y-86163638D01*
X131563142Y-86211257D01*
X131467904Y-86258876D01*
X131372666Y-86258876D01*
X131277428Y-86211257D01*
X131229809Y-86163638D01*
X131182190Y-86068400D01*
X131134571Y-85877923D01*
X131086952Y-85782685D01*
X131039333Y-85735066D01*
X130944095Y-85687447D01*
X130848857Y-85687447D01*
X130753619Y-85735066D01*
X130706000Y-85782685D01*
X130658380Y-85877923D01*
X130658380Y-86116019D01*
X130706000Y-86258876D01*
X130991714Y-86544590D02*
X130991714Y-86925542D01*
X130658380Y-86687447D02*
X131515523Y-86687447D01*
X131610761Y-86735066D01*
X131658380Y-86830304D01*
X131658380Y-86925542D01*
X131658380Y-87687447D02*
X131134571Y-87687447D01*
X131039333Y-87639828D01*
X130991714Y-87544590D01*
X130991714Y-87354114D01*
X131039333Y-87258876D01*
X131610761Y-87687447D02*
X131658380Y-87592209D01*
X131658380Y-87354114D01*
X131610761Y-87258876D01*
X131515523Y-87211257D01*
X131420285Y-87211257D01*
X131325047Y-87258876D01*
X131277428Y-87354114D01*
X131277428Y-87592209D01*
X131229809Y-87687447D01*
X130991714Y-88020780D02*
X130991714Y-88401733D01*
X130658380Y-88163638D02*
X131515523Y-88163638D01*
X131610761Y-88211257D01*
X131658380Y-88306495D01*
X131658380Y-88401733D01*
X130991714Y-89163638D02*
X131658380Y-89163638D01*
X130991714Y-88735066D02*
X131515523Y-88735066D01*
X131610761Y-88782685D01*
X131658380Y-88877923D01*
X131658380Y-89020780D01*
X131610761Y-89116019D01*
X131563142Y-89163638D01*
X131610761Y-89592209D02*
X131658380Y-89687447D01*
X131658380Y-89877923D01*
X131610761Y-89973161D01*
X131515523Y-90020780D01*
X131467904Y-90020780D01*
X131372666Y-89973161D01*
X131325047Y-89877923D01*
X131325047Y-89735066D01*
X131277428Y-89639828D01*
X131182190Y-89592209D01*
X131134571Y-89592209D01*
X131039333Y-89639828D01*
X130991714Y-89735066D01*
X130991714Y-89877923D01*
X131039333Y-89973161D01*
X131753619Y-90211257D02*
X131753619Y-90973161D01*
X131658380Y-91687447D02*
X131658380Y-91211257D01*
X130658380Y-91211257D01*
X131134571Y-92020780D02*
X131134571Y-92354114D01*
X131658380Y-92496971D02*
X131658380Y-92020780D01*
X130658380Y-92020780D01*
X130658380Y-92496971D01*
X131658380Y-92925542D02*
X130658380Y-92925542D01*
X130658380Y-93163638D01*
X130706000Y-93306495D01*
X130801238Y-93401733D01*
X130896476Y-93449352D01*
X131086952Y-93496971D01*
X131229809Y-93496971D01*
X131420285Y-93449352D01*
X131515523Y-93401733D01*
X131610761Y-93306495D01*
X131658380Y-93163638D01*
X131658380Y-92925542D01*
X131658380Y-94449352D02*
X131658380Y-93877923D01*
X131658380Y-94163638D02*
X130658380Y-94163638D01*
X130801238Y-94068400D01*
X130896476Y-93973161D01*
X130944095Y-93877923D01*
D13*
X132667200Y-84972400D02*
X132667200Y-82972400D01*
X129867200Y-84972400D02*
X132667200Y-84972400D01*
X129867200Y-82972400D02*
X129867200Y-84972400D01*
X132667200Y-82972400D02*
X129867200Y-82972400D01*
%TO.C,logo*%
G36*
X160236677Y-95663094D02*
G01*
X160271197Y-95720267D01*
X160263683Y-95750433D01*
X160206511Y-95784953D01*
X160176344Y-95777439D01*
X160141825Y-95720267D01*
X160149338Y-95690100D01*
X160206511Y-95655581D01*
X160236677Y-95663094D01*
G37*
G36*
X155156027Y-96948718D02*
G01*
X155183797Y-97020296D01*
X155162222Y-97090276D01*
X155094970Y-97121795D01*
X155089218Y-97121672D01*
X155008218Y-97087505D01*
X154973148Y-97015913D01*
X155001451Y-96940674D01*
X155031626Y-96921910D01*
X155114987Y-96920658D01*
X155156027Y-96948718D01*
G37*
G36*
X159386892Y-98129116D02*
G01*
X159408718Y-98199893D01*
X159394377Y-98262931D01*
X159333251Y-98277932D01*
X159293634Y-98260784D01*
X159257784Y-98199893D01*
X159269095Y-98164377D01*
X159333251Y-98121855D01*
X159386892Y-98129116D01*
G37*
G36*
X158339224Y-100406728D02*
G01*
X158373743Y-100463900D01*
X158366230Y-100494067D01*
X158309057Y-100528586D01*
X158278891Y-100521073D01*
X158244371Y-100463900D01*
X158251885Y-100433734D01*
X158309057Y-100399214D01*
X158339224Y-100406728D01*
G37*
G36*
X158339224Y-95016235D02*
G01*
X158373743Y-95073408D01*
X158366230Y-95103574D01*
X158309057Y-95138094D01*
X158278891Y-95130580D01*
X158244371Y-95073408D01*
X158251885Y-95043241D01*
X158309057Y-95008722D01*
X158339224Y-95016235D01*
G37*
G36*
X155907717Y-98501804D02*
G01*
X156090968Y-98503618D01*
X156206952Y-98510242D01*
X156270919Y-98524578D01*
X156298117Y-98549532D01*
X156303794Y-98588009D01*
X156303710Y-98594874D01*
X156293017Y-98637508D01*
X156251450Y-98661436D01*
X156160567Y-98671930D01*
X156001927Y-98674257D01*
X155854061Y-98681124D01*
X155671327Y-98722952D01*
X155563168Y-98803681D01*
X155527563Y-98924376D01*
X155528423Y-98946922D01*
X155555102Y-99024217D01*
X155628615Y-99072891D01*
X155761784Y-99098225D01*
X155967427Y-99105496D01*
X156045448Y-99105733D01*
X156184805Y-99109829D01*
X156262612Y-99122528D01*
X156296424Y-99148333D01*
X156303794Y-99191744D01*
X156300992Y-99222434D01*
X156279078Y-99252521D01*
X156221054Y-99269240D01*
X156110216Y-99276446D01*
X155929855Y-99277992D01*
X155805210Y-99276631D01*
X155644681Y-99266535D01*
X155541375Y-99244157D01*
X155477054Y-99206622D01*
X155450666Y-99176502D01*
X155404899Y-99052411D01*
X155409464Y-98905040D01*
X155465323Y-98770100D01*
X155498220Y-98720703D01*
X155508347Y-98682052D01*
X155465323Y-98674257D01*
X155426253Y-98659134D01*
X155398191Y-98588009D01*
X155398416Y-98577204D01*
X155407943Y-98542299D01*
X155442716Y-98520207D01*
X155517983Y-98508023D01*
X155648992Y-98502842D01*
X155850993Y-98501761D01*
X155907717Y-98501804D01*
G37*
G36*
X158770054Y-102689648D02*
G01*
X158804983Y-102727907D01*
X158797685Y-102747745D01*
X158740297Y-102771031D01*
X158710539Y-102766166D01*
X158675611Y-102727907D01*
X158682909Y-102708069D01*
X158740297Y-102684783D01*
X158770054Y-102689648D01*
G37*
G36*
X151854435Y-91138036D02*
G01*
X152118004Y-91272111D01*
X152345547Y-91466277D01*
X152524786Y-91714715D01*
X152643441Y-92011608D01*
X152645290Y-92018868D01*
X152664928Y-92199380D01*
X152653701Y-92416359D01*
X152616045Y-92629664D01*
X152556396Y-92799151D01*
X152404553Y-93024015D01*
X152185612Y-93212638D01*
X151923241Y-93329769D01*
X151626232Y-93370012D01*
X151387665Y-93370012D01*
X151387665Y-92291914D01*
X151775781Y-92291914D01*
X151775781Y-92636905D01*
X151775968Y-92704735D01*
X151779866Y-92851699D01*
X151791876Y-92935456D01*
X151815993Y-92973143D01*
X151856213Y-92981897D01*
X151858427Y-92981864D01*
X151948391Y-92954634D01*
X152051132Y-92891841D01*
X152127919Y-92819739D01*
X152242799Y-92634191D01*
X152294680Y-92417682D01*
X152285397Y-92187129D01*
X152216784Y-91959448D01*
X152090676Y-91751556D01*
X151908908Y-91580369D01*
X151833690Y-91530377D01*
X151727568Y-91479677D01*
X151607639Y-91456517D01*
X151437855Y-91450997D01*
X151278813Y-91458877D01*
X151059864Y-91511931D01*
X150882207Y-91624049D01*
X150724583Y-91805806D01*
X150673117Y-91889651D01*
X150588924Y-92129993D01*
X150576632Y-92384125D01*
X150635413Y-92630387D01*
X150764438Y-92847120D01*
X150866905Y-92968896D01*
X150739913Y-93090562D01*
X150701631Y-93126826D01*
X150633877Y-93179681D01*
X150585590Y-93180148D01*
X150526889Y-93134371D01*
X150446728Y-93045584D01*
X150329540Y-92839516D01*
X150251606Y-92593276D01*
X150223319Y-92334253D01*
X150228721Y-92193410D01*
X150291705Y-91866539D01*
X150425005Y-91589145D01*
X150628146Y-91362031D01*
X150900654Y-91186003D01*
X150970363Y-91154513D01*
X151268336Y-91073419D01*
X151567119Y-91069866D01*
X151854435Y-91138036D01*
G37*
G36*
X158112131Y-97270955D02*
G01*
X158119754Y-97276041D01*
X158156324Y-97340246D01*
X158114695Y-97402289D01*
X158087359Y-97405841D01*
X158044682Y-97359850D01*
X158033303Y-97314447D01*
X158051691Y-97261219D01*
X158112131Y-97270955D01*
G37*
G36*
X158783102Y-95450976D02*
G01*
X158804983Y-95504647D01*
X158797946Y-95540251D01*
X158758624Y-95561068D01*
X158745839Y-95555211D01*
X158712266Y-95504647D01*
X158714070Y-95492747D01*
X158758624Y-95448227D01*
X158783102Y-95450976D01*
G37*
G36*
X157914927Y-100989747D02*
G01*
X157939584Y-101032164D01*
X157932062Y-101100163D01*
X157877818Y-101132321D01*
X157847707Y-101125132D01*
X157813132Y-101070180D01*
X157820298Y-101029060D01*
X157862161Y-100979718D01*
X157914927Y-100989747D01*
G37*
G36*
X157695938Y-101875543D02*
G01*
X157726884Y-101930114D01*
X157715550Y-101969771D01*
X157651417Y-101986590D01*
X157596782Y-101959624D01*
X157593681Y-101910365D01*
X157659920Y-101873047D01*
X157695938Y-101875543D01*
G37*
G36*
X159812993Y-97482794D02*
G01*
X159839957Y-97553034D01*
X159827951Y-97603330D01*
X159775271Y-97639282D01*
X159737550Y-97623274D01*
X159710585Y-97553034D01*
X159722591Y-97502739D01*
X159775271Y-97466786D01*
X159812993Y-97482794D01*
G37*
G36*
X157468141Y-101197007D02*
G01*
X157509545Y-101251892D01*
X157494392Y-101317252D01*
X157425017Y-101347941D01*
X157374674Y-101336178D01*
X157338769Y-101285800D01*
X157345251Y-101247467D01*
X157395809Y-101191387D01*
X157468141Y-101197007D01*
G37*
G36*
X159593391Y-99762470D02*
G01*
X159624337Y-99817041D01*
X159613003Y-99856698D01*
X159548871Y-99873517D01*
X159494235Y-99846551D01*
X159491134Y-99797292D01*
X159557374Y-99759974D01*
X159593391Y-99762470D01*
G37*
G36*
X157489439Y-98517231D02*
G01*
X157511264Y-98588009D01*
X157496924Y-98651046D01*
X157435798Y-98666047D01*
X157396180Y-98648899D01*
X157360331Y-98588009D01*
X157371642Y-98552493D01*
X157435798Y-98509970D01*
X157489439Y-98517231D01*
G37*
G36*
X159386892Y-96447282D02*
G01*
X159408718Y-96518060D01*
X159394377Y-96581097D01*
X159333251Y-96596098D01*
X159293634Y-96578950D01*
X159257784Y-96518060D01*
X159269095Y-96482544D01*
X159333251Y-96440021D01*
X159386892Y-96447282D01*
G37*
G36*
X159386892Y-100630304D02*
G01*
X159408718Y-100701082D01*
X159394377Y-100764119D01*
X159333251Y-100779120D01*
X159293634Y-100761972D01*
X159257784Y-100701082D01*
X159269095Y-100665566D01*
X159333251Y-100623043D01*
X159386892Y-100630304D01*
G37*
G36*
X158339224Y-96698069D02*
G01*
X158373743Y-96755241D01*
X158366230Y-96785408D01*
X158309057Y-96819927D01*
X158278891Y-96812414D01*
X158244371Y-96755241D01*
X158251885Y-96725075D01*
X158309057Y-96690555D01*
X158339224Y-96698069D01*
G37*
G36*
X157489439Y-102441509D02*
G01*
X157511264Y-102512287D01*
X157496924Y-102575325D01*
X157435798Y-102590326D01*
X157396180Y-102573178D01*
X157360331Y-102512287D01*
X157371642Y-102476771D01*
X157435798Y-102434249D01*
X157489439Y-102441509D01*
G37*
G36*
X150902886Y-96527611D02*
G01*
X151007917Y-96560867D01*
X151167499Y-96613230D01*
X151367019Y-96679752D01*
X151591859Y-96755486D01*
X151827407Y-96835486D01*
X152059045Y-96914804D01*
X152272159Y-96988494D01*
X152452134Y-97051607D01*
X152584354Y-97099198D01*
X152620772Y-97144840D01*
X152637495Y-97239032D01*
X152634055Y-97282552D01*
X152614493Y-97326266D01*
X152565957Y-97368604D01*
X152475594Y-97417728D01*
X152330554Y-97481799D01*
X152117986Y-97568981D01*
X152078869Y-97584885D01*
X151892903Y-97662549D01*
X151744321Y-97727965D01*
X151647406Y-97774666D01*
X151616438Y-97796182D01*
X151617172Y-97796791D01*
X151666423Y-97821716D01*
X151778038Y-97872839D01*
X151936218Y-97943049D01*
X152125166Y-98025232D01*
X152262372Y-98084822D01*
X152425154Y-98159019D01*
X152529907Y-98215115D01*
X152590018Y-98262121D01*
X152618877Y-98309049D01*
X152629874Y-98364910D01*
X152643051Y-98492734D01*
X151735052Y-98795766D01*
X150827054Y-99098797D01*
X150827054Y-98731904D01*
X151429158Y-98545390D01*
X151527104Y-98514593D01*
X151723949Y-98449603D01*
X151879935Y-98393798D01*
X151981124Y-98352307D01*
X152013578Y-98330262D01*
X151981619Y-98309129D01*
X151884288Y-98259199D01*
X151738623Y-98190290D01*
X151561532Y-98110618D01*
X151470655Y-98070475D01*
X151310577Y-97996941D01*
X151210755Y-97942850D01*
X151157789Y-97898299D01*
X151138279Y-97853383D01*
X151138827Y-97798198D01*
X151139921Y-97788182D01*
X151154826Y-97733626D01*
X151193723Y-97685115D01*
X151270520Y-97632851D01*
X151399123Y-97567033D01*
X151593441Y-97477862D01*
X151752683Y-97403116D01*
X151891605Y-97330811D01*
X151979863Y-97276178D01*
X152003118Y-97247285D01*
X151995769Y-97242599D01*
X151923026Y-97212393D01*
X151788552Y-97164239D01*
X151608355Y-97103720D01*
X151398446Y-97036418D01*
X150827054Y-96857181D01*
X150827054Y-96687620D01*
X150827979Y-96651574D01*
X150841983Y-96556281D01*
X150867476Y-96518060D01*
X150902886Y-96527611D01*
G37*
G36*
X158339224Y-100191108D02*
G01*
X158373743Y-100248280D01*
X158366230Y-100278447D01*
X158309057Y-100312966D01*
X158278891Y-100305453D01*
X158244371Y-100248280D01*
X158251885Y-100218114D01*
X158309057Y-100183595D01*
X158339224Y-100191108D01*
G37*
G36*
X157722051Y-101036439D02*
G01*
X157716522Y-101101573D01*
X157664743Y-101132321D01*
X157638185Y-101129450D01*
X157581341Y-101097919D01*
X157580335Y-101096222D01*
X157580337Y-101033892D01*
X157623239Y-100982333D01*
X157678939Y-100978408D01*
X157722051Y-101036439D01*
G37*
G36*
X160009584Y-99384028D02*
G01*
X160017208Y-99389114D01*
X160053777Y-99453319D01*
X160012148Y-99515362D01*
X159984813Y-99518914D01*
X159942135Y-99472923D01*
X159930756Y-99427520D01*
X159949145Y-99374292D01*
X160009584Y-99384028D01*
G37*
G36*
X158339022Y-102909277D02*
G01*
X158373743Y-102968682D01*
X158348851Y-103015801D01*
X158297177Y-103008560D01*
X158254254Y-102951612D01*
X158255169Y-102925477D01*
X158305464Y-102900403D01*
X158339022Y-102909277D01*
G37*
G36*
X157489439Y-99379710D02*
G01*
X157511264Y-99450488D01*
X157496924Y-99513525D01*
X157435798Y-99528526D01*
X157396180Y-99511378D01*
X157360331Y-99450488D01*
X157371642Y-99414972D01*
X157435798Y-99372449D01*
X157489439Y-99379710D01*
G37*
G36*
X157054072Y-100179950D02*
G01*
X157054329Y-100180164D01*
X157095466Y-100253176D01*
X157077343Y-100324181D01*
X157009372Y-100356090D01*
X156943399Y-100322745D01*
X156915783Y-100248036D01*
X156943099Y-100173899D01*
X156983355Y-100150356D01*
X157054072Y-100179950D01*
G37*
G36*
X158123604Y-94800616D02*
G01*
X158158124Y-94857788D01*
X158150610Y-94887955D01*
X158093438Y-94922474D01*
X158063271Y-94914960D01*
X158028752Y-94857788D01*
X158036265Y-94827621D01*
X158093438Y-94793102D01*
X158123604Y-94800616D01*
G37*
G36*
X159805438Y-100622347D02*
G01*
X159839957Y-100679520D01*
X159832444Y-100709686D01*
X159775271Y-100744206D01*
X159745105Y-100736692D01*
X159710585Y-100679520D01*
X159718099Y-100649353D01*
X159775271Y-100614834D01*
X159805438Y-100622347D01*
G37*
G36*
X159811503Y-98726807D02*
G01*
X159832338Y-98784344D01*
X159804144Y-98843110D01*
X159754737Y-98853600D01*
X159718795Y-98792848D01*
X159720896Y-98748382D01*
X159775271Y-98717381D01*
X159811503Y-98726807D01*
G37*
G36*
X158339022Y-96268191D02*
G01*
X158373743Y-96327596D01*
X158366523Y-96360037D01*
X158322534Y-96378805D01*
X158265769Y-96336177D01*
X158258239Y-96284454D01*
X158305464Y-96259316D01*
X158339022Y-96268191D01*
G37*
G36*
X158129669Y-98942426D02*
G01*
X158150505Y-98999964D01*
X158122311Y-99058730D01*
X158072904Y-99069220D01*
X158036961Y-99008467D01*
X158039063Y-98964001D01*
X158093438Y-98933000D01*
X158129669Y-98942426D01*
G37*
G36*
X157914927Y-96461734D02*
G01*
X157939584Y-96504151D01*
X157932062Y-96572149D01*
X157877818Y-96604308D01*
X157847707Y-96597118D01*
X157813132Y-96542167D01*
X157820298Y-96501047D01*
X157862161Y-96451705D01*
X157914927Y-96461734D01*
G37*
G36*
X158339224Y-95663094D02*
G01*
X158373743Y-95720267D01*
X158366230Y-95750433D01*
X158309057Y-95784953D01*
X158278891Y-95777439D01*
X158244371Y-95720267D01*
X158251885Y-95690100D01*
X158309057Y-95655581D01*
X158339224Y-95663094D01*
G37*
G36*
X159382940Y-95644178D02*
G01*
X159389392Y-95652236D01*
X159408718Y-95720267D01*
X159407895Y-95733682D01*
X159382940Y-95796356D01*
X159334171Y-95809495D01*
X159268211Y-95778924D01*
X159236222Y-95720267D01*
X159259684Y-95669668D01*
X159323249Y-95633066D01*
X159382940Y-95644178D01*
G37*
G36*
X162532305Y-96670619D02*
G01*
X162655535Y-96737778D01*
X162779773Y-96855724D01*
X162891138Y-97008261D01*
X162975748Y-97179192D01*
X163019722Y-97352317D01*
X163028025Y-97405640D01*
X163066214Y-97534065D01*
X163116699Y-97617107D01*
X163162237Y-97649255D01*
X163213924Y-97650832D01*
X163291730Y-97614008D01*
X163417494Y-97532650D01*
X163526850Y-97462794D01*
X163641307Y-97409335D01*
X163763078Y-97385797D01*
X163931500Y-97380539D01*
X164074021Y-97389105D01*
X164314214Y-97442502D01*
X164572203Y-97549244D01*
X164859427Y-97714458D01*
X165187326Y-97943270D01*
X165290209Y-98018881D01*
X165463552Y-98142148D01*
X165617050Y-98246598D01*
X165726375Y-98315435D01*
X165838074Y-98369221D01*
X166001640Y-98410412D01*
X166137787Y-98401089D01*
X166230915Y-98343445D01*
X166265424Y-98239673D01*
X166265429Y-98238246D01*
X166300593Y-98137040D01*
X166388155Y-98088570D01*
X166503883Y-98106381D01*
X166610416Y-98154920D01*
X166610416Y-99515967D01*
X166610168Y-99852655D01*
X166608960Y-100167886D01*
X166606251Y-100415459D01*
X166601505Y-100605320D01*
X166594187Y-100747413D01*
X166583762Y-100851684D01*
X166569692Y-100928077D01*
X166551444Y-100986537D01*
X166528480Y-101037010D01*
X166527806Y-101038322D01*
X166385739Y-101226439D01*
X166172331Y-101389453D01*
X165900685Y-101519435D01*
X165583904Y-101608460D01*
X165510293Y-101621748D01*
X165333280Y-101640719D01*
X165155195Y-101636408D01*
X164956423Y-101606294D01*
X164717349Y-101547853D01*
X164418359Y-101458564D01*
X164340943Y-101434832D01*
X163974155Y-101343896D01*
X163660765Y-101308364D01*
X163389609Y-101328851D01*
X163149523Y-101405967D01*
X162929342Y-101540328D01*
X162873834Y-101579076D01*
X162713801Y-101643054D01*
X162564658Y-101622950D01*
X162418758Y-101518436D01*
X162340429Y-101429624D01*
X162305870Y-101343488D01*
X162312536Y-101232086D01*
X162316404Y-101210648D01*
X162399838Y-100991287D01*
X162547688Y-100799961D01*
X162740031Y-100663182D01*
X162762170Y-100652779D01*
X162941883Y-100592421D01*
X163134876Y-100573821D01*
X163352174Y-100599133D01*
X163604804Y-100670510D01*
X163903791Y-100790106D01*
X164260161Y-100960075D01*
X164434065Y-101045723D01*
X164719624Y-101173780D01*
X164949507Y-101255928D01*
X165133462Y-101294655D01*
X165281232Y-101292448D01*
X165402563Y-101251798D01*
X165494451Y-101172701D01*
X165528738Y-101076749D01*
X165494865Y-100991372D01*
X165456445Y-100970425D01*
X165349198Y-100938854D01*
X165208226Y-100913113D01*
X164942402Y-100851133D01*
X164608766Y-100709431D01*
X164278798Y-100505662D01*
X163967954Y-100251157D01*
X163691686Y-99957248D01*
X163465449Y-99635266D01*
X163426650Y-99570961D01*
X163266001Y-99330913D01*
X163103154Y-99124573D01*
X162950731Y-98966881D01*
X162821352Y-98872778D01*
X162731625Y-98842005D01*
X162581947Y-98809761D01*
X162412744Y-98786379D01*
X162092605Y-98725287D01*
X161813671Y-98602100D01*
X161596079Y-98418603D01*
X161548440Y-98368868D01*
X161405143Y-98245895D01*
X161255084Y-98143434D01*
X161239561Y-98134252D01*
X161110348Y-98041446D01*
X160993034Y-97932772D01*
X160907825Y-97829079D01*
X160874932Y-97751216D01*
X160909884Y-97738745D01*
X161009465Y-97729188D01*
X161151019Y-97725530D01*
X161184225Y-97725492D01*
X161321484Y-97721883D01*
X161399581Y-97706117D01*
X161441408Y-97669386D01*
X161469860Y-97602884D01*
X161482091Y-97571281D01*
X161599474Y-97385506D01*
X161786921Y-97204003D01*
X162031258Y-97039979D01*
X162123153Y-96984777D01*
X162257347Y-96881566D01*
X162316602Y-96794890D01*
X162350199Y-96729437D01*
X162432676Y-96667317D01*
X162532305Y-96670619D01*
G37*
G36*
X157489439Y-102657129D02*
G01*
X157511264Y-102727907D01*
X157496924Y-102790944D01*
X157435798Y-102805945D01*
X157396180Y-102788797D01*
X157360331Y-102727907D01*
X157371642Y-102692391D01*
X157435798Y-102649869D01*
X157489439Y-102657129D01*
G37*
G36*
X157489439Y-102872749D02*
G01*
X157511264Y-102943527D01*
X157496924Y-103006564D01*
X157435798Y-103021565D01*
X157396180Y-103004417D01*
X157360331Y-102943527D01*
X157371642Y-102908011D01*
X157435798Y-102865488D01*
X157489439Y-102872749D01*
G37*
G36*
X158123604Y-96482449D02*
G01*
X158158124Y-96539622D01*
X158150610Y-96569788D01*
X158093438Y-96604308D01*
X158063271Y-96596794D01*
X158028752Y-96539622D01*
X158036265Y-96509455D01*
X158093438Y-96474936D01*
X158123604Y-96482449D01*
G37*
G36*
X160236677Y-100191108D02*
G01*
X160271197Y-100248280D01*
X160263683Y-100278447D01*
X160206511Y-100312966D01*
X160176344Y-100305453D01*
X160141825Y-100248280D01*
X160149338Y-100218114D01*
X160206511Y-100183595D01*
X160236677Y-100191108D01*
G37*
G36*
X159102221Y-97483319D02*
G01*
X159173548Y-97506124D01*
X159193098Y-97553034D01*
X159181747Y-97591801D01*
X159123661Y-97619359D01*
X158999040Y-97628555D01*
X158879367Y-97624657D01*
X158820078Y-97602234D01*
X158804983Y-97553034D01*
X158819100Y-97504866D01*
X158876781Y-97481768D01*
X158999040Y-97477513D01*
X159102221Y-97483319D01*
G37*
G36*
X159805438Y-95231855D02*
G01*
X159839957Y-95289027D01*
X159832444Y-95319194D01*
X159775271Y-95353713D01*
X159745105Y-95346200D01*
X159710585Y-95289027D01*
X159718099Y-95258861D01*
X159775271Y-95224342D01*
X159805438Y-95231855D01*
G37*
G36*
X158112131Y-99384028D02*
G01*
X158119754Y-99389114D01*
X158156324Y-99453319D01*
X158114695Y-99515362D01*
X158087359Y-99518914D01*
X158044682Y-99472923D01*
X158033303Y-99427520D01*
X158051691Y-99374292D01*
X158112131Y-99384028D01*
G37*
G36*
X158783102Y-95235357D02*
G01*
X158804983Y-95289027D01*
X158797946Y-95324631D01*
X158758624Y-95345448D01*
X158745839Y-95339592D01*
X158712266Y-95289027D01*
X158714070Y-95277127D01*
X158758624Y-95232607D01*
X158783102Y-95235357D01*
G37*
G36*
X157489439Y-97482256D02*
G01*
X157511264Y-97553034D01*
X157496924Y-97616072D01*
X157435798Y-97631073D01*
X157396180Y-97613925D01*
X157360331Y-97553034D01*
X157371642Y-97517518D01*
X157435798Y-97474996D01*
X157489439Y-97482256D01*
G37*
G36*
X160236677Y-100622347D02*
G01*
X160271197Y-100679520D01*
X160263683Y-100709686D01*
X160206511Y-100744206D01*
X160176344Y-100736692D01*
X160141825Y-100679520D01*
X160149338Y-100649353D01*
X160206511Y-100614834D01*
X160236677Y-100622347D01*
G37*
G36*
X158339022Y-102693657D02*
G01*
X158373743Y-102753063D01*
X158366523Y-102785504D01*
X158322534Y-102804272D01*
X158265769Y-102761644D01*
X158258239Y-102709921D01*
X158305464Y-102684783D01*
X158339022Y-102693657D01*
G37*
G36*
X158775900Y-102907439D02*
G01*
X158796717Y-102946761D01*
X158790861Y-102959546D01*
X158740297Y-102993119D01*
X158728397Y-102991315D01*
X158683876Y-102946761D01*
X158686626Y-102922284D01*
X158740297Y-102900403D01*
X158775900Y-102907439D01*
G37*
G36*
X159153832Y-94754289D02*
G01*
X159187089Y-94806271D01*
X159190402Y-94882455D01*
X159158696Y-94938645D01*
X159134551Y-94944180D01*
X159063114Y-94922095D01*
X159029221Y-94908886D01*
X158944754Y-94931738D01*
X158934386Y-94939382D01*
X158864999Y-94948675D01*
X158817803Y-94899969D01*
X158819465Y-94817563D01*
X158829562Y-94798285D01*
X158886433Y-94756557D01*
X158948391Y-94756437D01*
X158977478Y-94801727D01*
X158986496Y-94831729D01*
X159029227Y-94801727D01*
X159059108Y-94778081D01*
X159137037Y-94749978D01*
X159153832Y-94754289D01*
G37*
G36*
X157913755Y-102239169D02*
G01*
X157939254Y-102282771D01*
X157932118Y-102350881D01*
X157877818Y-102382915D01*
X157840096Y-102366907D01*
X157813132Y-102296668D01*
X157816489Y-102260191D01*
X157852213Y-102211541D01*
X157913755Y-102239169D01*
G37*
G36*
X160021058Y-99759869D02*
G01*
X160055577Y-99817041D01*
X160048063Y-99847208D01*
X159990891Y-99881727D01*
X159960724Y-99874213D01*
X159926205Y-99817041D01*
X159933719Y-99786874D01*
X159990891Y-99752355D01*
X160021058Y-99759869D01*
G37*
G36*
X159386892Y-99164090D02*
G01*
X159408718Y-99234868D01*
X159394377Y-99297905D01*
X159333251Y-99312906D01*
X159293634Y-99295758D01*
X159257784Y-99234868D01*
X159269095Y-99199352D01*
X159333251Y-99156830D01*
X159386892Y-99164090D01*
G37*
G36*
X158953857Y-98708115D02*
G01*
X158999411Y-98722316D01*
X159096069Y-98723745D01*
X159169816Y-98731566D01*
X159193098Y-98794662D01*
X159182944Y-98842438D01*
X159131704Y-98870941D01*
X159016992Y-98878115D01*
X158879946Y-98862069D01*
X158816651Y-98814958D01*
X158823796Y-98747444D01*
X158881181Y-98701378D01*
X158953857Y-98708115D01*
G37*
G36*
X159386892Y-96231662D02*
G01*
X159408718Y-96302440D01*
X159394377Y-96365477D01*
X159333251Y-96380478D01*
X159293634Y-96363330D01*
X159257784Y-96302440D01*
X159269095Y-96266924D01*
X159333251Y-96224402D01*
X159386892Y-96231662D01*
G37*
G36*
X159386892Y-97266637D02*
G01*
X159408718Y-97337415D01*
X159394377Y-97400452D01*
X159333251Y-97415453D01*
X159293634Y-97398305D01*
X159257784Y-97337415D01*
X159269095Y-97301899D01*
X159333251Y-97259376D01*
X159386892Y-97266637D01*
G37*
G36*
X158130547Y-102240341D02*
G01*
X158155204Y-102282758D01*
X158147682Y-102350757D01*
X158093438Y-102382915D01*
X158063327Y-102375726D01*
X158028752Y-102320775D01*
X158035918Y-102279655D01*
X158077781Y-102230312D01*
X158130547Y-102240341D01*
G37*
G36*
X157468141Y-101628247D02*
G01*
X157509545Y-101683132D01*
X157494392Y-101748492D01*
X157425017Y-101779180D01*
X157374674Y-101767417D01*
X157338769Y-101717039D01*
X157345251Y-101678706D01*
X157395809Y-101622626D01*
X157468141Y-101628247D01*
G37*
G36*
X158339224Y-96482449D02*
G01*
X158373743Y-96539622D01*
X158366230Y-96569788D01*
X158309057Y-96604308D01*
X158278891Y-96596794D01*
X158244371Y-96539622D01*
X158251885Y-96509455D01*
X158309057Y-96474936D01*
X158339224Y-96482449D01*
G37*
G36*
X159602512Y-97482256D02*
G01*
X159624337Y-97553034D01*
X159609997Y-97616072D01*
X159548871Y-97631073D01*
X159509253Y-97613925D01*
X159473404Y-97553034D01*
X159484715Y-97517518D01*
X159548871Y-97474996D01*
X159602512Y-97482256D01*
G37*
G36*
X152074191Y-94560302D02*
G01*
X152214048Y-94631006D01*
X152328715Y-94710946D01*
X152516689Y-94916807D01*
X152640848Y-95171042D01*
X152661052Y-95269996D01*
X152660235Y-95474533D01*
X152619149Y-95691266D01*
X152542934Y-95882835D01*
X152446954Y-96022199D01*
X152254977Y-96190892D01*
X152026076Y-96297848D01*
X151776428Y-96341043D01*
X151522212Y-96318452D01*
X151279606Y-96228051D01*
X151064787Y-96067814D01*
X151023206Y-96023945D01*
X150867479Y-95792983D01*
X150794861Y-95542420D01*
X150796496Y-95504458D01*
X151132511Y-95504458D01*
X151186418Y-95686945D01*
X151304576Y-95836800D01*
X151383988Y-95892202D01*
X151575962Y-95965009D01*
X151782183Y-95979670D01*
X151980882Y-95939170D01*
X152150292Y-95846494D01*
X152268644Y-95704626D01*
X152284852Y-95669468D01*
X152327818Y-95491561D01*
X152325784Y-95303325D01*
X152278051Y-95146277D01*
X152273779Y-95138798D01*
X152151646Y-95008502D01*
X151976945Y-94919229D01*
X151774549Y-94876404D01*
X151569327Y-94885449D01*
X151386153Y-94951789D01*
X151335551Y-94986230D01*
X151209152Y-95131598D01*
X151140780Y-95311842D01*
X151132511Y-95504458D01*
X150796496Y-95504458D01*
X150806243Y-95278105D01*
X150902521Y-95005884D01*
X151015016Y-94827707D01*
X151205158Y-94651624D01*
X151442295Y-94547220D01*
X151729275Y-94512797D01*
X151764881Y-94512987D01*
X151774549Y-94513618D01*
X151938171Y-94524303D01*
X152074191Y-94560302D01*
G37*
G36*
X158123604Y-95663094D02*
G01*
X158158124Y-95720267D01*
X158150610Y-95750433D01*
X158093438Y-95784953D01*
X158063271Y-95777439D01*
X158028752Y-95720267D01*
X158036265Y-95690100D01*
X158093438Y-95655581D01*
X158123604Y-95663094D01*
G37*
G36*
X157464309Y-95416032D02*
G01*
X157468747Y-95419953D01*
X157487958Y-95479167D01*
X157495853Y-95577600D01*
X157493004Y-95684005D01*
X157479982Y-95767132D01*
X157457360Y-95795734D01*
X157454092Y-95794710D01*
X157381893Y-95784953D01*
X157376840Y-95784679D01*
X157342081Y-95750226D01*
X157348379Y-95687266D01*
X157392674Y-95637613D01*
X157424387Y-95615622D01*
X157392674Y-95587301D01*
X157359482Y-95559767D01*
X157341191Y-95484045D01*
X157381893Y-95418399D01*
X157395474Y-95411937D01*
X157464309Y-95416032D01*
G37*
G36*
X159620938Y-94825231D02*
G01*
X159614448Y-94890639D01*
X159566839Y-94922474D01*
X159545962Y-94920831D01*
X159480965Y-94894099D01*
X159474082Y-94883396D01*
X159485931Y-94829136D01*
X159533909Y-94780761D01*
X159586100Y-94774560D01*
X159620938Y-94825231D01*
G37*
G36*
X151876780Y-105107325D02*
G01*
X152117640Y-105176731D01*
X152332684Y-105306714D01*
X152507193Y-105493889D01*
X152626448Y-105734873D01*
X152665970Y-105976038D01*
X152639641Y-106245087D01*
X152547998Y-106505548D01*
X152546076Y-106509383D01*
X152468300Y-106648664D01*
X152403696Y-106715110D01*
X152336760Y-106716934D01*
X152251987Y-106662349D01*
X152154526Y-106583430D01*
X152245298Y-106434531D01*
X152293306Y-106332452D01*
X152335103Y-106120647D01*
X152320409Y-105901715D01*
X152249038Y-105711645D01*
X152194708Y-105644358D01*
X152078911Y-105548285D01*
X151949974Y-105474318D01*
X151841852Y-105444715D01*
X151836731Y-105462149D01*
X151829652Y-105551022D01*
X151824001Y-105702360D01*
X151820259Y-105901730D01*
X151818905Y-106134698D01*
X151818905Y-106824681D01*
X151627654Y-106824681D01*
X151609025Y-106824571D01*
X151392180Y-106799517D01*
X151210552Y-106721110D01*
X151031359Y-106575659D01*
X150983247Y-106524999D01*
X150847960Y-106311012D01*
X150798497Y-106115273D01*
X151130161Y-106115273D01*
X151173324Y-106266459D01*
X151214080Y-106315610D01*
X151307916Y-106390627D01*
X151413111Y-106453389D01*
X151493333Y-106479690D01*
X151502149Y-106443923D01*
X151509878Y-106338074D01*
X151515111Y-106179014D01*
X151517037Y-105983764D01*
X151516059Y-105801242D01*
X151509671Y-105637957D01*
X151493460Y-105540708D01*
X151463053Y-105498201D01*
X151414075Y-105499143D01*
X151342153Y-105532241D01*
X151253013Y-105613542D01*
X151176576Y-105760245D01*
X151133435Y-105937012D01*
X151130161Y-106115273D01*
X150798497Y-106115273D01*
X150788177Y-106074433D01*
X150803568Y-105829784D01*
X150893806Y-105591584D01*
X151058561Y-105374355D01*
X151146484Y-105296412D01*
X151376483Y-105163781D01*
X151463053Y-105142202D01*
X151624821Y-105101880D01*
X151876780Y-105107325D01*
G37*
G36*
X160236677Y-94800616D02*
G01*
X160271197Y-94857788D01*
X160263683Y-94887955D01*
X160206511Y-94922474D01*
X160176344Y-94914960D01*
X160141825Y-94857788D01*
X160149338Y-94827621D01*
X160206511Y-94793102D01*
X160236677Y-94800616D01*
G37*
G36*
X158560281Y-103123059D02*
G01*
X158581097Y-103162381D01*
X158575241Y-103175166D01*
X158524677Y-103208739D01*
X158512777Y-103206935D01*
X158468257Y-103162381D01*
X158471006Y-103137903D01*
X158524677Y-103116022D01*
X158560281Y-103123059D01*
G37*
G36*
X158957981Y-96448199D02*
G01*
X158980808Y-96458795D01*
X159018008Y-96514838D01*
X158972224Y-96592313D01*
X158910634Y-96621429D01*
X158838200Y-96602236D01*
X158804983Y-96537553D01*
X158810374Y-96503986D01*
X158866425Y-96446289D01*
X158957981Y-96448199D01*
G37*
G36*
X157907985Y-100191108D02*
G01*
X157942504Y-100248280D01*
X157934990Y-100278447D01*
X157877818Y-100312966D01*
X157847651Y-100305453D01*
X157813132Y-100248280D01*
X157820646Y-100218114D01*
X157877818Y-100183595D01*
X157907985Y-100191108D01*
G37*
G36*
X160021058Y-95447475D02*
G01*
X160055577Y-95504647D01*
X160048063Y-95534814D01*
X159990891Y-95569333D01*
X159960724Y-95561820D01*
X159926205Y-95504647D01*
X159933719Y-95474481D01*
X159990891Y-95439961D01*
X160021058Y-95447475D01*
G37*
G36*
X159805438Y-99759869D02*
G01*
X159839957Y-99817041D01*
X159832444Y-99847208D01*
X159775271Y-99881727D01*
X159745105Y-99874213D01*
X159710585Y-99817041D01*
X159718099Y-99786874D01*
X159775271Y-99752355D01*
X159805438Y-99759869D01*
G37*
G36*
X157489439Y-97697876D02*
G01*
X157511264Y-97768654D01*
X157496924Y-97831691D01*
X157435798Y-97846692D01*
X157396180Y-97829544D01*
X157360331Y-97768654D01*
X157371642Y-97733138D01*
X157435798Y-97690616D01*
X157489439Y-97697876D01*
G37*
G36*
X151629820Y-99375972D02*
G01*
X151867005Y-99415010D01*
X152056086Y-99482108D01*
X152257915Y-99617426D01*
X152463278Y-99840069D01*
X152601993Y-100105222D01*
X152619284Y-100158811D01*
X152662285Y-100442456D01*
X152639557Y-100741665D01*
X152555524Y-101028779D01*
X152414613Y-101276140D01*
X152392853Y-101303119D01*
X152352106Y-101330654D01*
X152294706Y-101316970D01*
X152192293Y-101260012D01*
X152157881Y-101239437D01*
X152079574Y-101184123D01*
X152062799Y-101142148D01*
X152095721Y-101093052D01*
X152098276Y-101090213D01*
X152222413Y-100893283D01*
X152282418Y-100666821D01*
X152280902Y-100430634D01*
X152220478Y-100204527D01*
X152103758Y-100008308D01*
X151933353Y-99861783D01*
X151844896Y-99815525D01*
X151589876Y-99736812D01*
X151335063Y-99728929D01*
X151094954Y-99786997D01*
X150884043Y-99906133D01*
X150716826Y-100081458D01*
X150607800Y-100308092D01*
X150577681Y-100517910D01*
X150619350Y-100734908D01*
X150737558Y-100969321D01*
X150862631Y-101166540D01*
X150733496Y-101289583D01*
X150604362Y-101412627D01*
X150496327Y-101283255D01*
X150419101Y-101180667D01*
X150282031Y-100908960D01*
X150221102Y-100623909D01*
X150233215Y-100338111D01*
X150315270Y-100064157D01*
X150464168Y-99814643D01*
X150676811Y-99602161D01*
X150950098Y-99439306D01*
X151139059Y-99387027D01*
X151376511Y-99366232D01*
X151629820Y-99375972D01*
G37*
G36*
X157907985Y-95663094D02*
G01*
X157942504Y-95720267D01*
X157934990Y-95750433D01*
X157877818Y-95784953D01*
X157847651Y-95777439D01*
X157813132Y-95720267D01*
X157820646Y-95690100D01*
X157877818Y-95655581D01*
X157907985Y-95663094D01*
G37*
G36*
X159386892Y-97913496D02*
G01*
X159408718Y-97984274D01*
X159394377Y-98047311D01*
X159333251Y-98062312D01*
X159293634Y-98045164D01*
X159257784Y-97984274D01*
X159269095Y-97948758D01*
X159333251Y-97906235D01*
X159386892Y-97913496D01*
G37*
G36*
X157913755Y-98142395D02*
G01*
X157939254Y-98185996D01*
X157932118Y-98254107D01*
X157877818Y-98286141D01*
X157840096Y-98270133D01*
X157813132Y-98199893D01*
X157816489Y-98163417D01*
X157852213Y-98114766D01*
X157913755Y-98142395D01*
G37*
G36*
X158339224Y-95231855D02*
G01*
X158373743Y-95289027D01*
X158366230Y-95319194D01*
X158309057Y-95353713D01*
X158278891Y-95346200D01*
X158244371Y-95289027D01*
X158251885Y-95258861D01*
X158309057Y-95224342D01*
X158339224Y-95231855D01*
G37*
G36*
X157914049Y-98942426D02*
G01*
X157934885Y-98999964D01*
X157906691Y-99058730D01*
X157857284Y-99069220D01*
X157821342Y-99008467D01*
X157823443Y-98964001D01*
X157877818Y-98933000D01*
X157914049Y-98942426D01*
G37*
G36*
X160021058Y-100622347D02*
G01*
X160055577Y-100679520D01*
X160048063Y-100709686D01*
X159990891Y-100744206D01*
X159960724Y-100736692D01*
X159926205Y-100679520D01*
X159933719Y-100649353D01*
X159990891Y-100614834D01*
X160021058Y-100622347D01*
G37*
G36*
X160240149Y-97712423D02*
G01*
X160271197Y-97768654D01*
X160261765Y-97802982D01*
X160213484Y-97835431D01*
X160163821Y-97812481D01*
X160152620Y-97760454D01*
X160179931Y-97708611D01*
X160231052Y-97705810D01*
X160240149Y-97712423D01*
G37*
G36*
X159365594Y-94771540D02*
G01*
X159406999Y-94826425D01*
X159391846Y-94891786D01*
X159322470Y-94922474D01*
X159272127Y-94910711D01*
X159236222Y-94860333D01*
X159242704Y-94822000D01*
X159293262Y-94765920D01*
X159365594Y-94771540D01*
G37*
G36*
X159577456Y-96451052D02*
G01*
X159619687Y-96508259D01*
X159613904Y-96573445D01*
X159562197Y-96604308D01*
X159535867Y-96600631D01*
X159471081Y-96557426D01*
X159467042Y-96497616D01*
X159512872Y-96449105D01*
X159577456Y-96451052D01*
G37*
G36*
X155742174Y-96074751D02*
G01*
X155843512Y-96182996D01*
X155930314Y-96369986D01*
X155946795Y-96413393D01*
X156009864Y-96514730D01*
X156077678Y-96532454D01*
X156147248Y-96465252D01*
X156171629Y-96376263D01*
X156141523Y-96251432D01*
X156115639Y-96141857D01*
X156128262Y-96069498D01*
X156172106Y-96054426D01*
X156237575Y-96110700D01*
X156287655Y-96225599D01*
X156302417Y-96375619D01*
X156279931Y-96520115D01*
X156221360Y-96622418D01*
X156176964Y-96654904D01*
X156049128Y-96686924D01*
X155925296Y-96646640D01*
X155831681Y-96539622D01*
X155814822Y-96506300D01*
X155736074Y-96358531D01*
X155679781Y-96274247D01*
X155635345Y-96240352D01*
X155592163Y-96243754D01*
X155541430Y-96296110D01*
X155532182Y-96399521D01*
X155574682Y-96525525D01*
X155597845Y-96599056D01*
X155580053Y-96664619D01*
X155527342Y-96680461D01*
X155459974Y-96628408D01*
X155421183Y-96550820D01*
X155398475Y-96399664D01*
X155420201Y-96246325D01*
X155484439Y-96129944D01*
X155513092Y-96103751D01*
X155630600Y-96047564D01*
X155742174Y-96074751D01*
G37*
G36*
X160674859Y-100213516D02*
G01*
X160686567Y-100226943D01*
X160697224Y-100286483D01*
X160637750Y-100312966D01*
X160608031Y-100308401D01*
X160573064Y-100272387D01*
X160577516Y-100248503D01*
X160621103Y-100204795D01*
X160674859Y-100213516D01*
G37*
G36*
X156032277Y-97378326D02*
G01*
X156170183Y-97455393D01*
X156259392Y-97550646D01*
X156297453Y-97686915D01*
X156296968Y-97850875D01*
X156257454Y-97990283D01*
X156235814Y-98037405D01*
X156250037Y-98066191D01*
X156332602Y-98062915D01*
X156388612Y-98049693D01*
X156488893Y-97972163D01*
X156535027Y-97843449D01*
X156518829Y-97680365D01*
X156500812Y-97565720D01*
X156518652Y-97489609D01*
X156564978Y-97472965D01*
X156630127Y-97528934D01*
X156643574Y-97551695D01*
X156678081Y-97664127D01*
X156691910Y-97801775D01*
X156688086Y-97887021D01*
X156653056Y-98007523D01*
X156565855Y-98116963D01*
X156511043Y-98169275D01*
X156458151Y-98205087D01*
X156390330Y-98226893D01*
X156289750Y-98238167D01*
X156138582Y-98242384D01*
X155918996Y-98243017D01*
X155761922Y-98242692D01*
X155592984Y-98239915D01*
X155486390Y-98232293D01*
X155427892Y-98217468D01*
X155403242Y-98193080D01*
X155398191Y-98156769D01*
X155406568Y-98106626D01*
X155442833Y-98070522D01*
X155465447Y-98055762D01*
X155442833Y-97987109D01*
X155442772Y-97986994D01*
X155404634Y-97850029D01*
X155404632Y-97846291D01*
X155547355Y-97846291D01*
X155585026Y-97942378D01*
X155689496Y-98038675D01*
X155850993Y-98070522D01*
X155962804Y-98055688D01*
X156056010Y-98016617D01*
X156108520Y-97953673D01*
X156154630Y-97846291D01*
X156150398Y-97746892D01*
X156086254Y-97631824D01*
X155978966Y-97544536D01*
X155850993Y-97509910D01*
X155743256Y-97534554D01*
X155631020Y-97614887D01*
X155558232Y-97727094D01*
X155547355Y-97846291D01*
X155404632Y-97846291D01*
X155404565Y-97687410D01*
X155442594Y-97550646D01*
X155456999Y-97527931D01*
X155560865Y-97435155D01*
X155704709Y-97365116D01*
X155850993Y-97337415D01*
X155883214Y-97339044D01*
X156032277Y-97378326D01*
G37*
G36*
X157705058Y-98948470D02*
G01*
X157726884Y-99019248D01*
X157712544Y-99082285D01*
X157651417Y-99097287D01*
X157611800Y-99080139D01*
X157575950Y-99019248D01*
X157587262Y-98983732D01*
X157651417Y-98941210D01*
X157705058Y-98948470D01*
G37*
G36*
X159382940Y-99740952D02*
G01*
X159389392Y-99749010D01*
X159408718Y-99817041D01*
X159407895Y-99830456D01*
X159382940Y-99893130D01*
X159334171Y-99906270D01*
X159268211Y-99875699D01*
X159236222Y-99817041D01*
X159259684Y-99766442D01*
X159323249Y-99729840D01*
X159382940Y-99740952D01*
G37*
G36*
X157468141Y-94987160D02*
G01*
X157509545Y-95042045D01*
X157494392Y-95107405D01*
X157425017Y-95138094D01*
X157374674Y-95126331D01*
X157338769Y-95075953D01*
X157345251Y-95037619D01*
X157395809Y-94981540D01*
X157468141Y-94987160D01*
G37*
G36*
X158123604Y-98509274D02*
G01*
X158158124Y-98566447D01*
X158150610Y-98596613D01*
X158093438Y-98631133D01*
X158063271Y-98623619D01*
X158028752Y-98566447D01*
X158036265Y-98536280D01*
X158093438Y-98501761D01*
X158123604Y-98509274D01*
G37*
G36*
X155857362Y-95030284D02*
G01*
X155981196Y-95038413D01*
X156080445Y-95078845D01*
X156177960Y-95171117D01*
X156215668Y-95216038D01*
X156285005Y-95342893D01*
X156303794Y-95497085D01*
X156303485Y-95517766D01*
X156284640Y-95656758D01*
X156243555Y-95762466D01*
X156189973Y-95817331D01*
X156133636Y-95803793D01*
X156108728Y-95738014D01*
X156134165Y-95622769D01*
X156152655Y-95534221D01*
X156136210Y-95394961D01*
X156071371Y-95285547D01*
X155969180Y-95232123D01*
X155938177Y-95228894D01*
X155901476Y-95238837D01*
X155881857Y-95283305D01*
X155873992Y-95379537D01*
X155872555Y-95544772D01*
X155872555Y-95871201D01*
X155741223Y-95871201D01*
X155599608Y-95839883D01*
X155484275Y-95747550D01*
X155413914Y-95613533D01*
X155396101Y-95471735D01*
X155535229Y-95471735D01*
X155573253Y-95560064D01*
X155630241Y-95640074D01*
X155689278Y-95688060D01*
X155716767Y-95680025D01*
X155736976Y-95610372D01*
X155743183Y-95465117D01*
X155743180Y-95461571D01*
X155734131Y-95307894D01*
X155706172Y-95237072D01*
X155657179Y-95247387D01*
X155585028Y-95337121D01*
X155549067Y-95397710D01*
X155535229Y-95471735D01*
X155396101Y-95471735D01*
X155394299Y-95457387D01*
X155431201Y-95298672D01*
X155530395Y-95156943D01*
X155597698Y-95098967D01*
X155706172Y-95045976D01*
X155709355Y-95044421D01*
X155857362Y-95030284D01*
G37*
G36*
X160009584Y-97486575D02*
G01*
X160017208Y-97491661D01*
X160053777Y-97555866D01*
X160012148Y-97617908D01*
X159984813Y-97621461D01*
X159942135Y-97575470D01*
X159930756Y-97530067D01*
X159949145Y-97476839D01*
X160009584Y-97486575D01*
G37*
G36*
X157907985Y-94800616D02*
G01*
X157942504Y-94857788D01*
X157934990Y-94887955D01*
X157877818Y-94922474D01*
X157847651Y-94914960D01*
X157813132Y-94857788D01*
X157820646Y-94827621D01*
X157877818Y-94793102D01*
X157907985Y-94800616D01*
G37*
G36*
X158123604Y-101872942D02*
G01*
X158158124Y-101930114D01*
X158150610Y-101960281D01*
X158093438Y-101994800D01*
X158063271Y-101987286D01*
X158028752Y-101930114D01*
X158036265Y-101899947D01*
X158093438Y-101865428D01*
X158123604Y-101872942D01*
G37*
G36*
X160236677Y-99975488D02*
G01*
X160271197Y-100032661D01*
X160263683Y-100062827D01*
X160206511Y-100097347D01*
X160176344Y-100089833D01*
X160141825Y-100032661D01*
X160149338Y-100002494D01*
X160206511Y-99967975D01*
X160236677Y-99975488D01*
G37*
G36*
X157067691Y-96233307D02*
G01*
X157108591Y-96286309D01*
X157087196Y-96358485D01*
X157057557Y-96420899D01*
X157094238Y-96455941D01*
X157194237Y-96447914D01*
X157219962Y-96442161D01*
X157280818Y-96449312D01*
X157295645Y-96516471D01*
X157295622Y-96520452D01*
X157274334Y-96588688D01*
X157198616Y-96597943D01*
X157132517Y-96596014D01*
X157056404Y-96613574D01*
X157026368Y-96622330D01*
X156948594Y-96602778D01*
X156937307Y-96595325D01*
X156908273Y-96550002D01*
X156940238Y-96476252D01*
X156966417Y-96418312D01*
X156951019Y-96388688D01*
X156933730Y-96385466D01*
X156908050Y-96342100D01*
X156923784Y-96277783D01*
X156975114Y-96230675D01*
X156988100Y-96226394D01*
X157067691Y-96233307D01*
G37*
G36*
X158123604Y-100191108D02*
G01*
X158158124Y-100248280D01*
X158150610Y-100278447D01*
X158093438Y-100312966D01*
X158063271Y-100305453D01*
X158028752Y-100248280D01*
X158036265Y-100218114D01*
X158093438Y-100183595D01*
X158123604Y-100191108D01*
G37*
G36*
X157705058Y-97266637D02*
G01*
X157726884Y-97337415D01*
X157712544Y-97400452D01*
X157651417Y-97415453D01*
X157611800Y-97398305D01*
X157575950Y-97337415D01*
X157587262Y-97301899D01*
X157651417Y-97259376D01*
X157705058Y-97266637D01*
G37*
G36*
X156166598Y-100599395D02*
G01*
X156257216Y-100690300D01*
X156269908Y-100716532D01*
X156298467Y-100852346D01*
X156294952Y-101007871D01*
X156259153Y-101135156D01*
X156236538Y-101192171D01*
X156259153Y-101218569D01*
X156285107Y-101234752D01*
X156303794Y-101304817D01*
X156303312Y-101319469D01*
X156293753Y-101348464D01*
X156262008Y-101368355D01*
X156195266Y-101380853D01*
X156080715Y-101387665D01*
X155905542Y-101390500D01*
X155656935Y-101391065D01*
X155547043Y-101391001D01*
X155329586Y-101389726D01*
X155180396Y-101385493D01*
X155086663Y-101376594D01*
X155035573Y-101361321D01*
X155014315Y-101337965D01*
X155010076Y-101304817D01*
X155012743Y-101273932D01*
X155039294Y-101238264D01*
X155111175Y-101222265D01*
X155248775Y-101218569D01*
X155364615Y-101217138D01*
X155440997Y-101207555D01*
X155461508Y-101182618D01*
X155442833Y-101135156D01*
X155442772Y-101135042D01*
X155404634Y-100998077D01*
X155404610Y-100941393D01*
X155527563Y-100941393D01*
X155529839Y-100974422D01*
X155583057Y-101094479D01*
X155689156Y-101178354D01*
X155824480Y-101217991D01*
X155965372Y-101205332D01*
X156088174Y-101132321D01*
X156145314Y-101054608D01*
X156174422Y-100964603D01*
X156174227Y-100956483D01*
X156130736Y-100836596D01*
X156028680Y-100734514D01*
X155893436Y-100676279D01*
X155793788Y-100676563D01*
X155663904Y-100729019D01*
X155566153Y-100823824D01*
X155527563Y-100941393D01*
X155404610Y-100941393D01*
X155404565Y-100835458D01*
X155442594Y-100698693D01*
X155456999Y-100675978D01*
X155560865Y-100583203D01*
X155704709Y-100513164D01*
X155850993Y-100485462D01*
X155882051Y-100487041D01*
X155893436Y-100489999D01*
X156028603Y-100525117D01*
X156166598Y-100599395D01*
G37*
G36*
X157489439Y-96447282D02*
G01*
X157511264Y-96518060D01*
X157496924Y-96581097D01*
X157435798Y-96596098D01*
X157396180Y-96578950D01*
X157360331Y-96518060D01*
X157371642Y-96482544D01*
X157435798Y-96440021D01*
X157489439Y-96447282D01*
G37*
G36*
X155991483Y-93956497D02*
G01*
X156112864Y-93999415D01*
X156204228Y-94078424D01*
X156263557Y-94178090D01*
X156301137Y-94325311D01*
X156297630Y-94468744D01*
X156249889Y-94574248D01*
X156217610Y-94622357D01*
X156249889Y-94651153D01*
X156279268Y-94675371D01*
X156303794Y-94753572D01*
X156303476Y-94764213D01*
X156294237Y-94793018D01*
X156262623Y-94812926D01*
X156195860Y-94825568D01*
X156081173Y-94832577D01*
X155905790Y-94835586D01*
X155656935Y-94836226D01*
X155547043Y-94836162D01*
X155329586Y-94834887D01*
X155180396Y-94830655D01*
X155086663Y-94821756D01*
X155035573Y-94806482D01*
X155014315Y-94783126D01*
X155010076Y-94749978D01*
X155012606Y-94719720D01*
X155038787Y-94683660D01*
X155110191Y-94667474D01*
X155247258Y-94663730D01*
X155341847Y-94660460D01*
X155451653Y-94640342D01*
X155486619Y-94604490D01*
X155441315Y-94555921D01*
X155432525Y-94546844D01*
X155408030Y-94471935D01*
X155400518Y-94383425D01*
X155527563Y-94383425D01*
X155542988Y-94448352D01*
X155618366Y-94551219D01*
X155730719Y-94631406D01*
X155850993Y-94663730D01*
X155851410Y-94663730D01*
X155952596Y-94637348D01*
X156060797Y-94574353D01*
X156063404Y-94572276D01*
X156141970Y-94481284D01*
X156174422Y-94387812D01*
X156165423Y-94334500D01*
X156097694Y-94223775D01*
X155987800Y-94137738D01*
X155864810Y-94103119D01*
X155784504Y-94116143D01*
X155660451Y-94180201D01*
X155565458Y-94277063D01*
X155527563Y-94383425D01*
X155400518Y-94383425D01*
X155398191Y-94356001D01*
X155400777Y-94293551D01*
X155436397Y-94168516D01*
X155529542Y-94051382D01*
X155576399Y-94006306D01*
X155655117Y-93951372D01*
X155744907Y-93933563D01*
X155864810Y-93940336D01*
X155882777Y-93941351D01*
X155991483Y-93956497D01*
G37*
G36*
X158342696Y-97496803D02*
G01*
X158373743Y-97553034D01*
X158364312Y-97587363D01*
X158316031Y-97619811D01*
X158266368Y-97596862D01*
X158255167Y-97544835D01*
X158282478Y-97492991D01*
X158333599Y-97490190D01*
X158342696Y-97496803D01*
G37*
G36*
X157915540Y-97267175D02*
G01*
X157942504Y-97337415D01*
X157930498Y-97387710D01*
X157877818Y-97423662D01*
X157840096Y-97407654D01*
X157813132Y-97337415D01*
X157825138Y-97287119D01*
X157877818Y-97251167D01*
X157915540Y-97267175D01*
G37*
G36*
X155907717Y-96949342D02*
G01*
X156090968Y-96951157D01*
X156206952Y-96957780D01*
X156270919Y-96972116D01*
X156298117Y-96997071D01*
X156303794Y-97035547D01*
X156303570Y-97046352D01*
X156294043Y-97081257D01*
X156259270Y-97103349D01*
X156184003Y-97115533D01*
X156052993Y-97120713D01*
X155850993Y-97121795D01*
X155794268Y-97121752D01*
X155611018Y-97119937D01*
X155495034Y-97113314D01*
X155431067Y-97098978D01*
X155403869Y-97074023D01*
X155398191Y-97035547D01*
X155398416Y-97024742D01*
X155407943Y-96989837D01*
X155442716Y-96967745D01*
X155517983Y-96955561D01*
X155648992Y-96950381D01*
X155850993Y-96949299D01*
X155907717Y-96949342D01*
G37*
G36*
X160459239Y-100644756D02*
G01*
X160470948Y-100658183D01*
X160481604Y-100717722D01*
X160422130Y-100744206D01*
X160392411Y-100739640D01*
X160357444Y-100703627D01*
X160361897Y-100679743D01*
X160405483Y-100636034D01*
X160459239Y-100644756D01*
G37*
G36*
X158342696Y-97928043D02*
G01*
X158373743Y-97984274D01*
X158364312Y-98018602D01*
X158316031Y-98051051D01*
X158266368Y-98028101D01*
X158255167Y-97976074D01*
X158282478Y-97924230D01*
X158333599Y-97921429D01*
X158342696Y-97928043D01*
G37*
G36*
X157723484Y-94825231D02*
G01*
X157716994Y-94890639D01*
X157669386Y-94922474D01*
X157648509Y-94920831D01*
X157583512Y-94894099D01*
X157576628Y-94883396D01*
X157588478Y-94829136D01*
X157636456Y-94780761D01*
X157688646Y-94774560D01*
X157723484Y-94825231D01*
G37*
G36*
X160021058Y-94800616D02*
G01*
X160055577Y-94857788D01*
X160048063Y-94887955D01*
X159990891Y-94922474D01*
X159960724Y-94914960D01*
X159926205Y-94857788D01*
X159933719Y-94827621D01*
X159990891Y-94793102D01*
X160021058Y-94800616D01*
G37*
G36*
X152638259Y-104237245D02*
G01*
X152088429Y-104237406D01*
X152054325Y-104237438D01*
X151826871Y-104239744D01*
X151665409Y-104247278D01*
X151551978Y-104262283D01*
X151468619Y-104287001D01*
X151397371Y-104323674D01*
X151292754Y-104408775D01*
X151198500Y-104572254D01*
X151180510Y-104771630D01*
X151181685Y-104849717D01*
X151146130Y-104902898D01*
X151048196Y-104937821D01*
X151038282Y-104940307D01*
X150923497Y-104958076D01*
X150843357Y-104952739D01*
X150810902Y-104929501D01*
X150784421Y-104843065D01*
X150802363Y-104719151D01*
X150858139Y-104577336D01*
X150945161Y-104437199D01*
X151056841Y-104318317D01*
X151150483Y-104240114D01*
X150988769Y-104238680D01*
X150936769Y-104237812D01*
X150860258Y-104224533D01*
X150831466Y-104175212D01*
X150827054Y-104064749D01*
X150827054Y-103892253D01*
X152638259Y-103892253D01*
X152638259Y-104237245D01*
G37*
G36*
X160028000Y-98143567D02*
G01*
X160052657Y-98185984D01*
X160045135Y-98253983D01*
X159990891Y-98286141D01*
X159960780Y-98278952D01*
X159926205Y-98224000D01*
X159933371Y-98182880D01*
X159975234Y-98133538D01*
X160028000Y-98143567D01*
G37*
G36*
X158344994Y-99177369D02*
G01*
X158357745Y-99192083D01*
X158368451Y-99251724D01*
X158309057Y-99277992D01*
X158278891Y-99270478D01*
X158244371Y-99213306D01*
X158245818Y-99194784D01*
X158281875Y-99149900D01*
X158344994Y-99177369D01*
G37*
G36*
X159386892Y-98948470D02*
G01*
X159408718Y-99019248D01*
X159394377Y-99082285D01*
X159333251Y-99097287D01*
X159293634Y-99080139D01*
X159257784Y-99019248D01*
X159269095Y-98983732D01*
X159333251Y-98941210D01*
X159386892Y-98948470D01*
G37*
G36*
X158123604Y-101010463D02*
G01*
X158158124Y-101067635D01*
X158150610Y-101097802D01*
X158093438Y-101132321D01*
X158063271Y-101124808D01*
X158028752Y-101067635D01*
X158036265Y-101037469D01*
X158093438Y-101002949D01*
X158123604Y-101010463D01*
G37*
G36*
X158339224Y-95447475D02*
G01*
X158373743Y-95504647D01*
X158366230Y-95534814D01*
X158309057Y-95569333D01*
X158278891Y-95561820D01*
X158244371Y-95504647D01*
X158251885Y-95474481D01*
X158309057Y-95439961D01*
X158339224Y-95447475D01*
G37*
G36*
X159593391Y-95450076D02*
G01*
X159624337Y-95504647D01*
X159613003Y-95544304D01*
X159548871Y-95561124D01*
X159494235Y-95534158D01*
X159491134Y-95484898D01*
X159557374Y-95447580D01*
X159593391Y-95450076D01*
G37*
G36*
X160236677Y-100406728D02*
G01*
X160271197Y-100463900D01*
X160263683Y-100494067D01*
X160206511Y-100528586D01*
X160176344Y-100521073D01*
X160141825Y-100463900D01*
X160149338Y-100433734D01*
X160206511Y-100399214D01*
X160236677Y-100406728D01*
G37*
G36*
X159812380Y-96461734D02*
G01*
X159837037Y-96504151D01*
X159829516Y-96572149D01*
X159775271Y-96604308D01*
X159745161Y-96597118D01*
X159710585Y-96542167D01*
X159717752Y-96501047D01*
X159759614Y-96451705D01*
X159812380Y-96461734D01*
G37*
G36*
X156121442Y-102129433D02*
G01*
X156220382Y-102137963D01*
X156275238Y-102152618D01*
X156298784Y-102175028D01*
X156303794Y-102206826D01*
X156295025Y-102255089D01*
X156249889Y-102309245D01*
X156217610Y-102334973D01*
X156249889Y-102386150D01*
X156257598Y-102396025D01*
X156290458Y-102486116D01*
X156303794Y-102609219D01*
X156280377Y-102743497D01*
X156190504Y-102883467D01*
X156049025Y-102977463D01*
X155872823Y-103015288D01*
X155678780Y-102986744D01*
X155667887Y-102982970D01*
X155548069Y-102920997D01*
X155463011Y-102844383D01*
X155448298Y-102819350D01*
X155413302Y-102709232D01*
X155401174Y-102597660D01*
X155527563Y-102597660D01*
X155560654Y-102673889D01*
X155645511Y-102759761D01*
X155752264Y-102828896D01*
X155850993Y-102857279D01*
X155854900Y-102857216D01*
X155963472Y-102824971D01*
X156068573Y-102751429D01*
X156088553Y-102730877D01*
X156160487Y-102627188D01*
X156158873Y-102529519D01*
X156085045Y-102410293D01*
X156061873Y-102384907D01*
X155940304Y-102313665D01*
X155798285Y-102292745D01*
X155674172Y-102329671D01*
X155672622Y-102330731D01*
X155609534Y-102403126D01*
X155552431Y-102508096D01*
X155527563Y-102597660D01*
X155401174Y-102597660D01*
X155399375Y-102581105D01*
X155408163Y-102468382D01*
X155441315Y-102404477D01*
X155477419Y-102375256D01*
X155476045Y-102333607D01*
X155397515Y-102306405D01*
X155247258Y-102296668D01*
X155164048Y-102295748D01*
X155064881Y-102286227D01*
X155020371Y-102260262D01*
X155010076Y-102210420D01*
X155010558Y-102195767D01*
X155020117Y-102166773D01*
X155051862Y-102146881D01*
X155118604Y-102134383D01*
X155233155Y-102127571D01*
X155408328Y-102124737D01*
X155656935Y-102124172D01*
X155740215Y-102124212D01*
X155798285Y-102124516D01*
X155965644Y-102125393D01*
X156121442Y-102129433D01*
G37*
G36*
X157695938Y-95665696D02*
G01*
X157726884Y-95720267D01*
X157715550Y-95759924D01*
X157651417Y-95776743D01*
X157596782Y-95749777D01*
X157593681Y-95700517D01*
X157659920Y-95663200D01*
X157695938Y-95665696D01*
G37*
G36*
X157705058Y-99379710D02*
G01*
X157726884Y-99450488D01*
X157712544Y-99513525D01*
X157651417Y-99528526D01*
X157611800Y-99511378D01*
X157575950Y-99450488D01*
X157587262Y-99414972D01*
X157651417Y-99372449D01*
X157705058Y-99379710D01*
G37*
G36*
X159386892Y-98732851D02*
G01*
X159408718Y-98803629D01*
X159394377Y-98866666D01*
X159333251Y-98881667D01*
X159293634Y-98864519D01*
X159257784Y-98803629D01*
X159269095Y-98768113D01*
X159333251Y-98725590D01*
X159386892Y-98732851D01*
G37*
G36*
X157705058Y-102225890D02*
G01*
X157726884Y-102296668D01*
X157712544Y-102359705D01*
X157651417Y-102374706D01*
X157611800Y-102357558D01*
X157575950Y-102296668D01*
X157587262Y-102261152D01*
X157651417Y-102218629D01*
X157705058Y-102225890D01*
G37*
G36*
X152071149Y-101719944D02*
G01*
X152304394Y-101836023D01*
X152486893Y-102021713D01*
X152619504Y-102277599D01*
X152660444Y-102434320D01*
X152662367Y-102689574D01*
X152593054Y-102935736D01*
X152460622Y-103156344D01*
X152273188Y-103334939D01*
X152038870Y-103455058D01*
X151885178Y-103491939D01*
X151618912Y-103493317D01*
X151364363Y-103423002D01*
X151137730Y-103288968D01*
X150955213Y-103099184D01*
X150833009Y-102861625D01*
X150796420Y-102699848D01*
X150799591Y-102576973D01*
X151128921Y-102576973D01*
X151132269Y-102644719D01*
X151190800Y-102846175D01*
X151315882Y-102999460D01*
X151499255Y-103096992D01*
X151732657Y-103131188D01*
X151757183Y-103130819D01*
X151974743Y-103092708D01*
X152152380Y-102998773D01*
X152270976Y-102858690D01*
X152281194Y-102837255D01*
X152325379Y-102663776D01*
X152326466Y-102471548D01*
X152283417Y-102306681D01*
X152256358Y-102261058D01*
X152128076Y-102142606D01*
X151948068Y-102062022D01*
X151740150Y-102031373D01*
X151658337Y-102034112D01*
X151435800Y-102085088D01*
X151269349Y-102196160D01*
X151165037Y-102361923D01*
X151128921Y-102576973D01*
X150799591Y-102576973D01*
X150803119Y-102440262D01*
X150882764Y-102191755D01*
X151028470Y-101972570D01*
X151233350Y-101800952D01*
X151290551Y-101767187D01*
X151419950Y-101706808D01*
X151552442Y-101678564D01*
X151729275Y-101671707D01*
X151740150Y-101671933D01*
X151786298Y-101672891D01*
X152071149Y-101719944D01*
G37*
G36*
X158123604Y-103123536D02*
G01*
X158158124Y-103180708D01*
X158150610Y-103210875D01*
X158093438Y-103245394D01*
X158063271Y-103237881D01*
X158028752Y-103180708D01*
X158036265Y-103150542D01*
X158093438Y-103116022D01*
X158123604Y-103123536D01*
G37*
G36*
X157705058Y-98129116D02*
G01*
X157726884Y-98199893D01*
X157712544Y-98262931D01*
X157651417Y-98277932D01*
X157611800Y-98260784D01*
X157575950Y-98199893D01*
X157587262Y-98164377D01*
X157651417Y-98121855D01*
X157705058Y-98129116D01*
G37*
G36*
X159607980Y-98728815D02*
G01*
X159616882Y-98788931D01*
X159598059Y-98832285D01*
X159537499Y-98868314D01*
X159510429Y-98863941D01*
X159475509Y-98821551D01*
X159490913Y-98763118D01*
X159552787Y-98724836D01*
X159607980Y-98728815D01*
G37*
G36*
X160242447Y-99177369D02*
G01*
X160255198Y-99192083D01*
X160265904Y-99251724D01*
X160206511Y-99277992D01*
X160176344Y-99270478D01*
X160141825Y-99213306D01*
X160143271Y-99194784D01*
X160179328Y-99149900D01*
X160242447Y-99177369D01*
G37*
G36*
X155963627Y-99499683D02*
G01*
X156074899Y-99535884D01*
X156177740Y-99619666D01*
X156211595Y-99655524D01*
X156284136Y-99773432D01*
X156303794Y-99919505D01*
X156290674Y-100064471D01*
X156255990Y-100192039D01*
X156208311Y-100277542D01*
X156156211Y-100298938D01*
X156126791Y-100267705D01*
X156121893Y-100173512D01*
X156153636Y-100010138D01*
X156155227Y-99910410D01*
X156088195Y-99783737D01*
X156009656Y-99695972D01*
X155944406Y-99661353D01*
X155902147Y-99700706D01*
X155879367Y-99817821D01*
X155872555Y-100016489D01*
X155872555Y-100366871D01*
X155734475Y-100339255D01*
X155704793Y-100332599D01*
X155535546Y-100254233D01*
X155432802Y-100121240D01*
X155398191Y-99935579D01*
X155398400Y-99930980D01*
X155542542Y-99930980D01*
X155573779Y-100053633D01*
X155662009Y-100143186D01*
X155705890Y-100160221D01*
X155730657Y-100140756D01*
X155741064Y-100067745D01*
X155743183Y-99924851D01*
X155741178Y-99784186D01*
X155731018Y-99709872D01*
X155706618Y-99689448D01*
X155661896Y-99706576D01*
X155651076Y-99712792D01*
X155568304Y-99806832D01*
X155542542Y-99930980D01*
X155398400Y-99930980D01*
X155402156Y-99848506D01*
X155437277Y-99728647D01*
X155524246Y-99619666D01*
X155600844Y-99552734D01*
X155705632Y-99505582D01*
X155706618Y-99505501D01*
X155850993Y-99493612D01*
X155963627Y-99499683D01*
G37*
G36*
X157703458Y-100198304D02*
G01*
X157727092Y-100258653D01*
X157698509Y-100326967D01*
X157687806Y-100333850D01*
X157633546Y-100322001D01*
X157585171Y-100274023D01*
X157578970Y-100221832D01*
X157593394Y-100206723D01*
X157664743Y-100183595D01*
X157703458Y-100198304D01*
G37*
G36*
X158339224Y-103123536D02*
G01*
X158373743Y-103180708D01*
X158366230Y-103210875D01*
X158309057Y-103245394D01*
X158278891Y-103237881D01*
X158244371Y-103180708D01*
X158251885Y-103150542D01*
X158309057Y-103116022D01*
X158339224Y-103123536D01*
G37*
G36*
X159608416Y-100639751D02*
G01*
X159623768Y-100703510D01*
X159589936Y-100760377D01*
X159568337Y-100766125D01*
X159498163Y-100746182D01*
X159465030Y-100697314D01*
X159489421Y-100641031D01*
X159562197Y-100614834D01*
X159608416Y-100639751D01*
G37*
G36*
X157468141Y-100981387D02*
G01*
X157509545Y-101036272D01*
X157494392Y-101101633D01*
X157425017Y-101132321D01*
X157374674Y-101120558D01*
X157338769Y-101070180D01*
X157345251Y-101031847D01*
X157395809Y-100975767D01*
X157468141Y-100981387D01*
G37*
G36*
X155486520Y-103100728D02*
G01*
X155589854Y-103146299D01*
X155739177Y-103212683D01*
X155915161Y-103291306D01*
X156027607Y-103341488D01*
X156176113Y-103404775D01*
X156277961Y-103439072D01*
X156353608Y-103448419D01*
X156423507Y-103436856D01*
X156508115Y-103408423D01*
X156584435Y-103381564D01*
X156658687Y-103363073D01*
X156687122Y-103379543D01*
X156691563Y-103434015D01*
X156688956Y-103454674D01*
X156664383Y-103495105D01*
X156604481Y-103539808D01*
X156497832Y-103595116D01*
X156333014Y-103667363D01*
X156098609Y-103762881D01*
X155938164Y-103827144D01*
X155728546Y-103910532D01*
X155581521Y-103966514D01*
X155486029Y-103997648D01*
X155431010Y-104006491D01*
X155405404Y-103995601D01*
X155398151Y-103967536D01*
X155398191Y-103924853D01*
X155401095Y-103889379D01*
X155430004Y-103837048D01*
X155505416Y-103793229D01*
X155646154Y-103744209D01*
X155755544Y-103708193D01*
X155898903Y-103655771D01*
X155996422Y-103613773D01*
X156037554Y-103589127D01*
X156047787Y-103563589D01*
X156010259Y-103531651D01*
X155914245Y-103484650D01*
X155749022Y-103413920D01*
X155701303Y-103393710D01*
X155546686Y-103323563D01*
X155454725Y-103269213D01*
X155410415Y-103220013D01*
X155398754Y-103165314D01*
X155409281Y-103101571D01*
X155452096Y-103085884D01*
X155486520Y-103100728D01*
G37*
G36*
X160671259Y-99997948D02*
G01*
X160702436Y-100056768D01*
X160700937Y-100068854D01*
X160662368Y-100096468D01*
X160602986Y-100069770D01*
X160588821Y-100039029D01*
X160611103Y-99993439D01*
X160662292Y-99991378D01*
X160671259Y-99997948D01*
G37*
G36*
X157680003Y-103092138D02*
G01*
X157722234Y-103149345D01*
X157716450Y-103214532D01*
X157664743Y-103245394D01*
X157608161Y-103230609D01*
X157566602Y-103174219D01*
X157588888Y-103107398D01*
X157612160Y-103091362D01*
X157680003Y-103092138D01*
G37*
G36*
X160240149Y-97928043D02*
G01*
X160271197Y-97984274D01*
X160261765Y-98018602D01*
X160213484Y-98051051D01*
X160163821Y-98028101D01*
X160152620Y-97976074D01*
X160179931Y-97924230D01*
X160231052Y-97921429D01*
X160240149Y-97928043D01*
G37*
G36*
X157914049Y-98511187D02*
G01*
X157934885Y-98568725D01*
X157906691Y-98627491D01*
X157857284Y-98637981D01*
X157821342Y-98577228D01*
X157823443Y-98532762D01*
X157877818Y-98501761D01*
X157914049Y-98511187D01*
G37*
G36*
X159386892Y-98517231D02*
G01*
X159408718Y-98588009D01*
X159394377Y-98651046D01*
X159333251Y-98666047D01*
X159293634Y-98648899D01*
X159257784Y-98588009D01*
X159269095Y-98552493D01*
X159333251Y-98509970D01*
X159386892Y-98517231D01*
G37*
G36*
X157489439Y-98948470D02*
G01*
X157511264Y-99019248D01*
X157496924Y-99082285D01*
X157435798Y-99097287D01*
X157396180Y-99080139D01*
X157360331Y-99019248D01*
X157371642Y-98983732D01*
X157435798Y-98941210D01*
X157489439Y-98948470D01*
G37*
G36*
X160674859Y-100429136D02*
G01*
X160686567Y-100442563D01*
X160697224Y-100502102D01*
X160637750Y-100528586D01*
X160608031Y-100524020D01*
X160573064Y-100488007D01*
X160577516Y-100464123D01*
X160621103Y-100420415D01*
X160674859Y-100429136D01*
G37*
G36*
X159386892Y-99379710D02*
G01*
X159408718Y-99450488D01*
X159394377Y-99513525D01*
X159333251Y-99528526D01*
X159293634Y-99511378D01*
X159257784Y-99450488D01*
X159269095Y-99414972D01*
X159333251Y-99372449D01*
X159386892Y-99379710D01*
G37*
G36*
X160021058Y-98724894D02*
G01*
X160055577Y-98782067D01*
X160048063Y-98812233D01*
X159990891Y-98846752D01*
X159960724Y-98839239D01*
X159926205Y-98782067D01*
X159933719Y-98751900D01*
X159990891Y-98717381D01*
X160021058Y-98724894D01*
G37*
G36*
X158342696Y-97712423D02*
G01*
X158373743Y-97768654D01*
X158364312Y-97802982D01*
X158316031Y-97835431D01*
X158266368Y-97812481D01*
X158255167Y-97760454D01*
X158282478Y-97708611D01*
X158333599Y-97705810D01*
X158342696Y-97712423D01*
G37*
G36*
X160236677Y-96698069D02*
G01*
X160271197Y-96755241D01*
X160263683Y-96785408D01*
X160206511Y-96819927D01*
X160176344Y-96812414D01*
X160141825Y-96755241D01*
X160149338Y-96725075D01*
X160206511Y-96690555D01*
X160236677Y-96698069D01*
G37*
G36*
X160236677Y-96482449D02*
G01*
X160271197Y-96539622D01*
X160263683Y-96569788D01*
X160206511Y-96604308D01*
X160176344Y-96596794D01*
X160141825Y-96539622D01*
X160149338Y-96509455D01*
X160206511Y-96474936D01*
X160236677Y-96482449D01*
G37*
G36*
X158339224Y-99975488D02*
G01*
X158373743Y-100032661D01*
X158366230Y-100062827D01*
X158309057Y-100097347D01*
X158278891Y-100089833D01*
X158244371Y-100032661D01*
X158251885Y-100002494D01*
X158309057Y-99967975D01*
X158339224Y-99975488D01*
G37*
G36*
X158339224Y-101872942D02*
G01*
X158373743Y-101930114D01*
X158366230Y-101960281D01*
X158309057Y-101994800D01*
X158278891Y-101987286D01*
X158244371Y-101930114D01*
X158251885Y-101899947D01*
X158309057Y-101865428D01*
X158339224Y-101872942D01*
G37*
G36*
X158339224Y-98724894D02*
G01*
X158373743Y-98782067D01*
X158366230Y-98812233D01*
X158309057Y-98846752D01*
X158278891Y-98839239D01*
X158244371Y-98782067D01*
X158251885Y-98751900D01*
X158309057Y-98717381D01*
X158339224Y-98724894D01*
G37*
G36*
X158344661Y-102476199D02*
G01*
X158365478Y-102515522D01*
X158359622Y-102528307D01*
X158309057Y-102561880D01*
X158297157Y-102560076D01*
X158252637Y-102515522D01*
X158255387Y-102491044D01*
X158309057Y-102469163D01*
X158344661Y-102476199D01*
G37*
G36*
X160242447Y-98961750D02*
G01*
X160255198Y-98976463D01*
X160265904Y-99036104D01*
X160206511Y-99062372D01*
X160176344Y-99054859D01*
X160141825Y-98997686D01*
X160143271Y-98979164D01*
X160179328Y-98934280D01*
X160242447Y-98961750D01*
G37*
G36*
X157914927Y-103102820D02*
G01*
X157939584Y-103145237D01*
X157932062Y-103213236D01*
X157877818Y-103245394D01*
X157847707Y-103238205D01*
X157813132Y-103183253D01*
X157820298Y-103142133D01*
X157862161Y-103092791D01*
X157914927Y-103102820D01*
G37*
G36*
X157494907Y-100195029D02*
G01*
X157503809Y-100255145D01*
X157494022Y-100283724D01*
X157443878Y-100328504D01*
X157387250Y-100325359D01*
X157360331Y-100270433D01*
X157373303Y-100232930D01*
X157439714Y-100191050D01*
X157494907Y-100195029D01*
G37*
G36*
X158770054Y-102474029D02*
G01*
X158804983Y-102512287D01*
X158797685Y-102532125D01*
X158740297Y-102555411D01*
X158710539Y-102550546D01*
X158675611Y-102512287D01*
X158682909Y-102492449D01*
X158740297Y-102469163D01*
X158770054Y-102474029D01*
G37*
G36*
X159805438Y-94800616D02*
G01*
X159839957Y-94857788D01*
X159832444Y-94887955D01*
X159775271Y-94922474D01*
X159745105Y-94914960D01*
X159710585Y-94857788D01*
X159718099Y-94827621D01*
X159775271Y-94793102D01*
X159805438Y-94800616D01*
G37*
G36*
X159805438Y-95016235D02*
G01*
X159839957Y-95073408D01*
X159832444Y-95103574D01*
X159775271Y-95138094D01*
X159745105Y-95130580D01*
X159710585Y-95073408D01*
X159718099Y-95043241D01*
X159775271Y-95008722D01*
X159805438Y-95016235D01*
G37*
G36*
X157907985Y-101872942D02*
G01*
X157942504Y-101930114D01*
X157934990Y-101960281D01*
X157877818Y-101994800D01*
X157847651Y-101987286D01*
X157813132Y-101930114D01*
X157820646Y-101899947D01*
X157877818Y-101865428D01*
X157907985Y-101872942D01*
G37*
G36*
X158339224Y-101010463D02*
G01*
X158373743Y-101067635D01*
X158366230Y-101097802D01*
X158309057Y-101132321D01*
X158278891Y-101124808D01*
X158244371Y-101067635D01*
X158251885Y-101037469D01*
X158309057Y-101002949D01*
X158339224Y-101010463D01*
G37*
G36*
X157710527Y-98513196D02*
G01*
X157719429Y-98573312D01*
X157709641Y-98601890D01*
X157659497Y-98646671D01*
X157602869Y-98643526D01*
X157575950Y-98588599D01*
X157588922Y-98551096D01*
X157655333Y-98509216D01*
X157710527Y-98513196D01*
G37*
G36*
X157468141Y-95202780D02*
G01*
X157509545Y-95257665D01*
X157494392Y-95323025D01*
X157425017Y-95353713D01*
X157374674Y-95341950D01*
X157338769Y-95291573D01*
X157345251Y-95253239D01*
X157395809Y-95197159D01*
X157468141Y-95202780D01*
G37*
G36*
X160021058Y-96482449D02*
G01*
X160055577Y-96539622D01*
X160048063Y-96569788D01*
X159990891Y-96604308D01*
X159960724Y-96596794D01*
X159926205Y-96539622D01*
X159933719Y-96509455D01*
X159990891Y-96474936D01*
X160021058Y-96482449D01*
G37*
G36*
X157468141Y-101412627D02*
G01*
X157509545Y-101467512D01*
X157494392Y-101532872D01*
X157425017Y-101563561D01*
X157374674Y-101551798D01*
X157338769Y-101501420D01*
X157345251Y-101463086D01*
X157395809Y-101407007D01*
X157468141Y-101412627D01*
G37*
G36*
X158798514Y-95049690D02*
G01*
X158790341Y-95067854D01*
X158750000Y-95098204D01*
X158729777Y-95091814D01*
X158719314Y-95052963D01*
X158764015Y-95015190D01*
X158784950Y-95012900D01*
X158798514Y-95049690D01*
G37*
G36*
X160236475Y-96268191D02*
G01*
X160271197Y-96327596D01*
X160263977Y-96360037D01*
X160219987Y-96378805D01*
X160163222Y-96336177D01*
X160155692Y-96284454D01*
X160202917Y-96259316D01*
X160236475Y-96268191D01*
G37*
G36*
X157916308Y-99374586D02*
G01*
X157934885Y-99436133D01*
X157927284Y-99463401D01*
X157883940Y-99518933D01*
X157835853Y-99517306D01*
X157813132Y-99454081D01*
X157824995Y-99400515D01*
X157880980Y-99364240D01*
X157916308Y-99374586D01*
G37*
G36*
X158554844Y-95663094D02*
G01*
X158589363Y-95720267D01*
X158581849Y-95750433D01*
X158524677Y-95784953D01*
X158494510Y-95777439D01*
X158459991Y-95720267D01*
X158467505Y-95690100D01*
X158524677Y-95655581D01*
X158554844Y-95663094D01*
G37*
G36*
X158130547Y-98143567D02*
G01*
X158155204Y-98185984D01*
X158147682Y-98253983D01*
X158093438Y-98286141D01*
X158063327Y-98278952D01*
X158028752Y-98224000D01*
X158035918Y-98182880D01*
X158077781Y-98133538D01*
X158130547Y-98143567D01*
G37*
G36*
X157464383Y-103092138D02*
G01*
X157506614Y-103149345D01*
X157500831Y-103214532D01*
X157449124Y-103245394D01*
X157392541Y-103230609D01*
X157350982Y-103174219D01*
X157373268Y-103107398D01*
X157396540Y-103091362D01*
X157464383Y-103092138D01*
G37*
G36*
X159386892Y-97482256D02*
G01*
X159408718Y-97553034D01*
X159394377Y-97616072D01*
X159333251Y-97631073D01*
X159293634Y-97613925D01*
X159257784Y-97553034D01*
X159269095Y-97517518D01*
X159333251Y-97474996D01*
X159386892Y-97482256D01*
G37*
G36*
X157489439Y-97913496D02*
G01*
X157511264Y-97984274D01*
X157496924Y-98047311D01*
X157435798Y-98062312D01*
X157396180Y-98045164D01*
X157360331Y-97984274D01*
X157371642Y-97948758D01*
X157435798Y-97906235D01*
X157489439Y-97913496D01*
G37*
G36*
X157488054Y-99982315D02*
G01*
X157503055Y-100043442D01*
X157485907Y-100083059D01*
X157425017Y-100118909D01*
X157389501Y-100107597D01*
X157346978Y-100043442D01*
X157354239Y-99989801D01*
X157425017Y-99967975D01*
X157488054Y-99982315D01*
G37*
G36*
X159386892Y-97697876D02*
G01*
X159408718Y-97768654D01*
X159394377Y-97831691D01*
X159333251Y-97846692D01*
X159293634Y-97829544D01*
X159257784Y-97768654D01*
X159269095Y-97733138D01*
X159333251Y-97690616D01*
X159386892Y-97697876D01*
G37*
G36*
X152638259Y-94146243D02*
G01*
X150093947Y-94146243D01*
X150093947Y-93801252D01*
X152638259Y-93801252D01*
X152638259Y-94146243D01*
G37*
G36*
X157680003Y-96451052D02*
G01*
X157722234Y-96508259D01*
X157716450Y-96573445D01*
X157664743Y-96604308D01*
X157638414Y-96600631D01*
X157573628Y-96557426D01*
X157569588Y-96497616D01*
X157615419Y-96449105D01*
X157680003Y-96451052D01*
G37*
%TD*%
M02*
