%TF.GenerationSoftware,KiCad,Pcbnew,(6.0.0-0)*%
%TF.CreationDate,2022-02-02T11:17:39+01:00*%
%TF.ProjectId,GlowCore,476c6f77-436f-4726-952e-6b696361645f,rev?*%
%TF.SameCoordinates,Original*%
%TF.FileFunction,Copper,L2,Bot*%
%TF.FilePolarity,Positive*%
%FSLAX46Y46*%
G04 Gerber Fmt 4.6, Leading zero omitted, Abs format (unit mm)*
G04 Created by KiCad (PCBNEW (6.0.0-0)) date 2022-02-02 11:17:39*
%MOMM*%
%LPD*%
G01*
G04 APERTURE LIST*
%TA.AperFunction,ComponentPad*%
%ADD10R,2.200000X2.200000*%
%TD*%
%TA.AperFunction,ComponentPad*%
%ADD11C,2.200000*%
%TD*%
%TA.AperFunction,ComponentPad*%
%ADD12R,1.700000X1.700000*%
%TD*%
%TA.AperFunction,ComponentPad*%
%ADD13O,1.700000X1.700000*%
%TD*%
%TA.AperFunction,ComponentPad*%
%ADD14C,0.700000*%
%TD*%
%TA.AperFunction,ComponentPad*%
%ADD15O,2.200000X1.200000*%
%TD*%
%TA.AperFunction,ComponentPad*%
%ADD16O,1.800000X1.200000*%
%TD*%
%TA.AperFunction,ComponentPad*%
%ADD17C,6.400000*%
%TD*%
%TA.AperFunction,ComponentPad*%
%ADD18R,1.308000X1.308000*%
%TD*%
%TA.AperFunction,ComponentPad*%
%ADD19C,1.308000*%
%TD*%
%TA.AperFunction,ComponentPad*%
%ADD20C,0.300000*%
%TD*%
%TA.AperFunction,SMDPad,CuDef*%
%ADD21R,1.000000X1.500000*%
%TD*%
%TA.AperFunction,ViaPad*%
%ADD22C,0.800000*%
%TD*%
%TA.AperFunction,Conductor*%
%ADD23C,0.160000*%
%TD*%
%TA.AperFunction,Conductor*%
%ADD24C,1.400000*%
%TD*%
%TA.AperFunction,Conductor*%
%ADD25C,0.600000*%
%TD*%
G04 APERTURE END LIST*
D10*
%TO.P,P1,1,1*%
%TO.N,+5V*%
X126709050Y-126822192D03*
D11*
%TO.P,P1,2,2*%
%TO.N,LED1 DATA OUT*%
X126709050Y-130632200D03*
%TO.P,P1,3,3*%
%TO.N,GND*%
X126709050Y-134442208D03*
%TD*%
D10*
%TO.P,P2,1,1*%
%TO.N,+5V*%
X126709050Y-112588192D03*
D11*
%TO.P,P2,2,2*%
%TO.N,LED2 DATA OUT*%
X126709050Y-116398200D03*
%TO.P,P2,3,3*%
%TO.N,GND*%
X126709050Y-120208208D03*
%TD*%
D10*
%TO.P,P4,1,1*%
%TO.N,+5V*%
X126709050Y-84120192D03*
D11*
%TO.P,P4,2,2*%
%TO.N,LED4 DATA OUT*%
X126709050Y-87930200D03*
%TO.P,P4,3,3*%
%TO.N,GND*%
X126709050Y-91740208D03*
%TD*%
D12*
%TO.P,JP2,1,1*%
%TO.N,IO21*%
X168710000Y-135001000D03*
D13*
%TO.P,JP2,2,2*%
%TO.N,IO17{slash}LED2*%
X166170000Y-135001000D03*
%TO.P,JP2,3,3*%
%TO.N,IO16{slash}LED1*%
X163630000Y-135001000D03*
%TO.P,JP2,4,4*%
%TO.N,IO19{slash}MISO{slash}LED4*%
X161090000Y-135001000D03*
%TO.P,JP2,5,5*%
%TO.N,IO18{slash}MOSI{slash}LED3*%
X158550000Y-135001000D03*
%TO.P,JP2,6,6*%
%TO.N,IO5*%
X156010000Y-135001000D03*
%TO.P,JP2,7,7*%
%TO.N,IO4{slash}A5*%
X153470000Y-135001000D03*
%TO.P,JP2,8,8*%
%TO.N,IO36{slash}A4{slash}SENSOR_VP*%
X150930000Y-135001000D03*
%TO.P,JP2,9,9*%
%TO.N,I39{slash}A3{slash}SENSOR_VN*%
X148390000Y-135001000D03*
%TO.P,JP2,10,10*%
%TO.N,I34{slash}A2*%
X145850000Y-135001000D03*
%TO.P,JP2,11,11*%
%TO.N,IO25{slash}A1{slash}DAC1*%
X143310000Y-135001000D03*
%TO.P,JP2,12,12*%
%TO.N,IO26{slash}A0{slash}DAC2*%
X140770000Y-135001000D03*
%TO.P,JP2,13,13*%
%TO.N,GND*%
X138230000Y-135001000D03*
%TO.P,JP2,14,14*%
%TO.N,unconnected-(JP2-Pad14)*%
X135690000Y-135001000D03*
%TO.P,JP2,15,15*%
%TO.N,+3V3*%
X133150000Y-135001000D03*
%TO.P,JP2,16,16*%
%TO.N,RESET*%
X130610000Y-135001000D03*
%TD*%
D10*
%TO.P,P3,1,1*%
%TO.N,+5V*%
X126709050Y-98354192D03*
D11*
%TO.P,P3,2,2*%
%TO.N,LED3 DATA OUT*%
X126709050Y-102164200D03*
%TO.P,P3,3,3*%
%TO.N,GND*%
X126709050Y-105974208D03*
%TD*%
D12*
%TO.P,J5,1,Pin_1*%
%TO.N,GND*%
X174498000Y-83642200D03*
D13*
%TO.P,J5,2,Pin_2*%
%TO.N,+BATT*%
X171958000Y-83642200D03*
%TD*%
D14*
%TO.P,USB1,*%
%TO.N,*%
X176997700Y-112211600D03*
X176997700Y-106431600D03*
D15*
%TO.P,USB1,SHELL,SHELL*%
%TO.N,GND*%
X176497700Y-113641600D03*
X176497700Y-105001600D03*
D16*
X180677700Y-105001600D03*
X180677700Y-113641600D03*
%TD*%
D17*
%TO.P,H2,1,1*%
%TO.N,GND*%
X167513000Y-104470200D03*
%TD*%
D18*
%TO.P,JST_lipo1,1,1*%
%TO.N,GND*%
X167928800Y-87988300D03*
D19*
%TO.P,JST_lipo1,2,2*%
%TO.N,+BATT*%
X165928800Y-87988300D03*
%TD*%
D12*
%TO.P,JP1,1,1*%
%TO.N,+BATT*%
X140770000Y-114681000D03*
D13*
%TO.P,JP1,2,2*%
%TO.N,POWER_EN*%
X143310000Y-114681000D03*
%TO.P,JP1,3,3*%
%TO.N,+5V*%
X145850000Y-114681000D03*
%TO.P,JP1,4,4*%
%TO.N,IO13*%
X148390000Y-114681000D03*
%TO.P,JP1,5,5*%
%TO.N,IO12*%
X150930000Y-114681000D03*
%TO.P,JP1,6,6*%
%TO.N,IO27*%
X153470000Y-114681000D03*
%TO.P,JP1,7,7*%
%TO.N,IO33*%
X156010000Y-114681000D03*
%TO.P,JP1,8,8*%
%TO.N,IO15{slash}WS*%
X158550000Y-114681000D03*
%TO.P,JP1,9,9*%
%TO.N,IO32{slash}SD*%
X161090000Y-114681000D03*
%TO.P,JP1,10,10*%
%TO.N,IO14{slash}SCK*%
X163630000Y-114681000D03*
%TO.P,JP1,11,11*%
%TO.N,IO22*%
X166170000Y-114681000D03*
%TO.P,JP1,12,12*%
%TO.N,IO23*%
X168710000Y-114681000D03*
%TD*%
D20*
%TO.P,U2,39_10,GND*%
%TO.N,GND*%
X146164500Y-94978800D03*
%TO.P,U2,39_11,GND*%
X147999500Y-94978800D03*
%TO.P,U2,39_12,GND*%
X145247000Y-95896300D03*
%TO.P,U2,39_13,GND*%
X147082000Y-95896300D03*
%TO.P,U2,39_14,GND*%
X148917000Y-95896300D03*
%TO.P,U2,39_15,GND*%
X146164500Y-96813800D03*
%TO.P,U2,39_16,GND*%
X147999500Y-96813800D03*
%TO.P,U2,39_17,GND*%
X145247000Y-97731300D03*
%TO.P,U2,39_18,GND*%
X147082000Y-97731300D03*
%TO.P,U2,39_19,GND*%
X148917000Y-97731300D03*
%TO.P,U2,39_20,GND*%
X146164500Y-98648800D03*
%TO.P,U2,39_21,GND*%
X147999500Y-98648800D03*
%TD*%
D21*
%TO.P,Status_LED1,2,B*%
%TO.N,Net-(R19-Pad1)*%
X130617200Y-83972400D03*
%TO.P,Status_LED1,1,A*%
%TO.N,IO13*%
X131917200Y-83972400D03*
%TD*%
D22*
%TO.N,GND*%
X131851000Y-105334000D03*
X168630600Y-97409000D03*
X131928000Y-118541000D03*
X159330600Y-126199300D03*
X132029000Y-131089000D03*
X154515900Y-131292800D03*
X131851000Y-95885000D03*
%TO.N,+3V3*%
X136481300Y-91113100D03*
%TO.N,+BATT*%
X176479000Y-121006000D03*
X171513000Y-97121200D03*
%TO.N,IO15{slash}WS*%
X152540300Y-122142500D03*
X169840400Y-113758800D03*
X149840800Y-103152800D03*
%TO.N,IO32{slash}SD*%
X171448000Y-95224200D03*
X174070300Y-94583500D03*
X143081100Y-102719900D03*
X154018200Y-98552500D03*
X153311600Y-125037200D03*
X142460000Y-97597400D03*
%TO.N,IO19{slash}MISO{slash}LED4*%
X158188400Y-98203800D03*
%TO.N,IO14{slash}SCK*%
X144205100Y-125463300D03*
X160010800Y-123632300D03*
X138821800Y-107869100D03*
X146500100Y-126520100D03*
X154596900Y-122021200D03*
X151550300Y-125044900D03*
%TO.N,IO22*%
X154261700Y-91853800D03*
X158228300Y-99721000D03*
%TO.N,IO33*%
X158249800Y-103141100D03*
X150547900Y-95204200D03*
%TO.N,IO18{slash}MOSI{slash}LED3*%
X138161700Y-131801300D03*
X142511700Y-95105600D03*
%TO.N,IO27*%
X164094400Y-120429800D03*
X159722600Y-118083300D03*
X141420700Y-108198900D03*
X138510100Y-124082300D03*
X165111500Y-122227600D03*
X159722600Y-115641600D03*
X136336500Y-126057300D03*
X148471100Y-128471900D03*
X159863200Y-119804300D03*
X146219100Y-129658100D03*
%TO.N,IO12*%
X139814900Y-106897200D03*
X138784400Y-116239900D03*
%TO.N,IO13*%
X142060600Y-111825800D03*
X143665700Y-108801200D03*
X144516600Y-103145100D03*
%TO.N,IO5*%
X158193400Y-100743800D03*
%TO.N,IO0*%
X156504200Y-106895300D03*
X144661800Y-123402000D03*
X136198800Y-125027500D03*
X163125100Y-123269200D03*
%TO.N,IO4{slash}A5*%
X137996400Y-108942300D03*
X147342100Y-108832500D03*
X140106400Y-108754000D03*
%TO.N,RXD0*%
X143981700Y-117930200D03*
X147956900Y-124084000D03*
X139070700Y-112234400D03*
X161735600Y-105777000D03*
%TO.N,Net-(R9-Pad2)*%
X138714000Y-132714800D03*
X133153500Y-110250000D03*
%TO.N,Net-(R8-Pad2)*%
X136075300Y-131826000D03*
X130129900Y-90424100D03*
%TO.N,RESET*%
X128579600Y-97878800D03*
X134929500Y-93782900D03*
X137651400Y-91853800D03*
%TO.N,IO36{slash}A4{slash}SENSOR_VP*%
X137602400Y-103157900D03*
X137821400Y-107941900D03*
X141412700Y-96028700D03*
%TO.N,TXD0*%
X142536500Y-93123800D03*
X127008600Y-89646700D03*
X125605900Y-124939500D03*
X132164400Y-90587800D03*
%TO.N,IO21*%
X154965200Y-95663800D03*
%TO.N,I39{slash}A3{slash}SENSOR_VN*%
X137837900Y-93968500D03*
%TO.N,IO16{slash}LED1*%
X147119700Y-133067700D03*
X143891000Y-129520900D03*
X144666100Y-108590300D03*
X144434800Y-126463600D03*
%TO.N,IO17{slash}LED2*%
X146108300Y-132678300D03*
X140512800Y-127762000D03*
X126004500Y-89886700D03*
X138626200Y-125918200D03*
X123248000Y-114991300D03*
X133829500Y-115824000D03*
X143795100Y-102013800D03*
X130814400Y-91952900D03*
X136220400Y-127694600D03*
%TO.N,IO25{slash}A1{slash}DAC1*%
X138355100Y-106898700D03*
%TO.N,+5V*%
X154257000Y-123088000D03*
X148643700Y-126189300D03*
%TO.N,RTS*%
X165172800Y-118407400D03*
X164084700Y-122171100D03*
X165172800Y-120800900D03*
X145684100Y-124419700D03*
%TO.N,DTR*%
X150071900Y-116639000D03*
X164182200Y-119421700D03*
X150071900Y-122027400D03*
X160865400Y-119721300D03*
%TO.N,IO26{slash}A0{slash}DAC2*%
X141193200Y-102013800D03*
X134509800Y-107874800D03*
X134934800Y-103157100D03*
%TO.N,USB-C CC1*%
X179238800Y-106766600D03*
X180508800Y-102494800D03*
%TO.N,USB-C 5V*%
X172605900Y-108213100D03*
X172507500Y-94533900D03*
X172778400Y-103086500D03*
%TO.N,USB-C CC2*%
X179321300Y-117293800D03*
X178928800Y-107784500D03*
%TO.N,I34{slash}A2*%
X137541800Y-98679900D03*
%TO.N,USB-C DATA+*%
X173710900Y-110313600D03*
X150859300Y-123994600D03*
%TO.N,USB-C DATA-*%
X168827700Y-117018800D03*
X174293700Y-120540900D03*
X177298000Y-117389100D03*
X155211800Y-117020100D03*
X152114800Y-120020900D03*
X177012000Y-109071600D03*
%TO.N,POWER_EN*%
X175813900Y-94719000D03*
X174699200Y-124299900D03*
%TO.N,Net-(R19-Pad1)*%
X129503100Y-84134600D03*
%TD*%
D23*
%TO.N,IO16{slash}LED1*%
X144548500Y-129520900D02*
X147119700Y-132092100D01*
X143891000Y-129520900D02*
X144548500Y-129520900D01*
X147119700Y-132092100D02*
X147119700Y-133067700D01*
%TO.N,GND*%
X131851000Y-118426500D02*
X131851000Y-118389000D01*
D24*
X131928000Y-118466000D02*
X131928000Y-118503500D01*
D23*
X148917000Y-97731300D02*
X148917000Y-96813800D01*
D25*
X167929000Y-96707400D02*
X167929000Y-92693900D01*
D24*
X131928000Y-118503500D02*
X131928000Y-118541000D01*
D23*
X154515900Y-131292800D02*
X159330600Y-126478100D01*
X167929000Y-92693900D02*
X167928800Y-92693700D01*
D25*
X167929000Y-87988300D02*
X167929000Y-92693900D01*
D23*
X132029000Y-124865500D02*
X132029000Y-131089000D01*
X167512800Y-104470000D02*
X167513000Y-104470200D01*
X147999500Y-96813800D02*
X147999500Y-94978800D01*
X159330600Y-126478100D02*
X159330600Y-126199300D01*
D24*
X167513000Y-104470000D02*
X167512800Y-104470000D01*
X146166000Y-104470000D02*
X147295000Y-104470000D01*
D23*
X132715000Y-102890800D02*
X132715000Y-104470000D01*
D24*
X131928000Y-118541000D02*
X131928000Y-124764500D01*
D23*
X148917000Y-96813800D02*
X148917000Y-95896300D01*
X131851000Y-102026800D02*
X132715000Y-102890800D01*
X147082000Y-95896300D02*
X147082000Y-97731300D01*
X148917000Y-96813800D02*
X147999500Y-96813800D01*
X167928800Y-92693700D02*
X167928800Y-87988300D01*
D24*
X131851000Y-105334000D02*
X131851000Y-118389000D01*
X147295000Y-104470000D02*
X146166000Y-104470000D01*
X146166000Y-104470000D02*
X132715000Y-104470000D01*
D23*
X131928000Y-124764500D02*
X132029000Y-124865500D01*
D25*
X168630600Y-97409000D02*
X167929000Y-96707400D01*
D24*
X131851000Y-102026800D02*
X131851000Y-95885000D01*
D23*
X146166000Y-98650300D02*
X146164500Y-98648800D01*
X131928000Y-118503500D02*
X131851000Y-118426500D01*
D24*
X131851000Y-105334000D02*
X131851000Y-102026800D01*
D23*
X145247000Y-95896300D02*
X145247000Y-97731300D01*
D24*
X131928000Y-124764500D02*
X131928000Y-130988000D01*
D23*
X146166000Y-104470000D02*
X146166000Y-98650300D01*
D24*
X167512800Y-104470000D02*
X147295000Y-104470000D01*
D23*
X147999500Y-98648800D02*
X147999500Y-96813800D01*
%TO.N,+3V3*%
X128787300Y-88138300D02*
X128787300Y-83814200D01*
X133150000Y-135001000D02*
X133150000Y-133870700D01*
X129140500Y-88491500D02*
X128787300Y-88138300D01*
X128787300Y-83814200D02*
X129714300Y-82887200D01*
X129714300Y-82887200D02*
X132554500Y-82887200D01*
X132848300Y-83181000D02*
X132848300Y-87480100D01*
X129784300Y-93805600D02*
X129140500Y-93161800D01*
X129140500Y-93161800D02*
X129140500Y-88491500D01*
X133150000Y-133870700D02*
X131814700Y-133870700D01*
X129784300Y-131840300D02*
X129784300Y-93805600D01*
X131814700Y-133870700D02*
X129784300Y-131840300D01*
X132848300Y-87480100D02*
X136481300Y-91113100D01*
X132554500Y-82887200D02*
X132848300Y-83181000D01*
D25*
%TO.N,+BATT*%
X165928800Y-92163100D02*
X165928800Y-87988300D01*
X171298000Y-113214700D02*
X170628600Y-112545300D01*
X165929000Y-97114800D02*
X165929000Y-97229800D01*
X165929000Y-96453200D02*
X165929000Y-97114800D01*
X165929000Y-87988300D02*
X165929000Y-92163300D01*
X171298000Y-113214700D02*
X171298000Y-106756000D01*
X171513000Y-102698000D02*
X171513000Y-97121200D01*
X171298000Y-115824000D02*
X171298000Y-113214700D01*
X171298000Y-106756000D02*
X171513000Y-106541000D01*
X170628600Y-112545300D02*
X162922300Y-112545300D01*
X162436900Y-113030700D02*
X140770000Y-113030700D01*
X165929000Y-92163300D02*
X165928800Y-92163100D01*
X176479000Y-121006000D02*
X171298000Y-115824000D01*
X171513000Y-106541000D02*
X171513000Y-102698000D01*
X171513000Y-102698000D02*
X165929000Y-97114800D01*
X140770000Y-114681000D02*
X140770000Y-113030700D01*
X165929000Y-92163300D02*
X165929000Y-96453200D01*
X162922300Y-112545300D02*
X162436900Y-113030700D01*
D23*
%TO.N,IO15{slash}WS*%
X177511200Y-120602800D02*
X177511200Y-121452500D01*
X157548800Y-117134100D02*
X157548800Y-116812500D01*
X150794700Y-94484400D02*
X154182500Y-97872200D01*
X168147300Y-117349400D02*
X168147300Y-116699000D01*
X158452800Y-101462500D02*
X164223400Y-95691900D01*
X169479800Y-87283500D02*
X169479800Y-87793000D01*
X173106200Y-108675000D02*
X173106200Y-109122900D01*
X154698500Y-98270700D02*
X154698500Y-98388200D01*
X176977300Y-121986400D02*
X172784300Y-121986400D01*
X177511200Y-121452500D02*
X176977300Y-121986400D01*
X172784300Y-121986400D02*
X168147300Y-117349400D01*
X173106200Y-109122900D02*
X173137000Y-109153700D01*
X165219300Y-86362400D02*
X168558700Y-86362400D01*
X173390000Y-94865200D02*
X173466500Y-94941700D01*
X149840800Y-103152800D02*
X149840800Y-94931100D01*
X150287500Y-94484400D02*
X150794700Y-94484400D01*
X173466500Y-94225300D02*
X173390000Y-94301800D01*
X164117800Y-87463900D02*
X165219300Y-86362400D01*
X173466500Y-94941700D02*
X173466500Y-108463900D01*
X154182500Y-97872200D02*
X154300000Y-97872200D01*
X158550000Y-114681000D02*
X158550000Y-115811300D01*
X172670200Y-110963100D02*
X173030500Y-111323400D01*
X169840400Y-115228300D02*
X169840400Y-113758800D01*
X168558700Y-86362400D02*
X169479800Y-87283500D01*
X154300000Y-97872200D02*
X154698500Y-98270700D01*
X169479800Y-87793000D02*
X173466500Y-91779700D01*
X168507900Y-116338400D02*
X168730300Y-116338400D01*
X172670200Y-109424800D02*
X172670200Y-110963100D01*
X173317300Y-108463900D02*
X173106200Y-108675000D01*
X173390000Y-94301800D02*
X173390000Y-94865200D01*
X168730300Y-116338400D02*
X169840400Y-115228300D01*
X173030500Y-116122100D02*
X177511200Y-120602800D01*
X157548800Y-116812500D02*
X158550000Y-115811300D01*
X164117800Y-95586400D02*
X164117800Y-87463900D01*
X172881300Y-109213700D02*
X172670200Y-109424800D01*
X173137000Y-109153700D02*
X173077000Y-109213700D01*
X173466500Y-91779700D02*
X173466500Y-94225300D01*
X168147300Y-116699000D02*
X168507900Y-116338400D01*
X152540300Y-122142500D02*
X157548700Y-117134100D01*
X154698500Y-98388200D02*
X157772800Y-101462500D01*
X173030500Y-111323400D02*
X173030500Y-116122100D01*
X149840800Y-94931100D02*
X150287500Y-94484400D01*
X157772800Y-101462500D02*
X158452800Y-101462500D01*
X164223400Y-95691900D02*
X164117800Y-95586400D01*
X173466500Y-108463900D02*
X173317300Y-108463900D01*
X173077000Y-109213700D02*
X172881300Y-109213700D01*
X157548700Y-117134100D02*
X157548800Y-117134100D01*
%TO.N,IO32{slash}SD*%
X162026200Y-115386300D02*
X161708900Y-115386300D01*
X177871600Y-120453500D02*
X177871600Y-121601800D01*
X164605400Y-95855500D02*
X164605400Y-87485800D01*
X159483400Y-119123900D02*
X160153600Y-119123900D01*
X165992000Y-116490900D02*
X164760300Y-115259200D01*
X172676600Y-122388400D02*
X166779100Y-116490900D01*
X165368500Y-86722700D02*
X168409500Y-86722700D01*
X168992000Y-87305200D02*
X168992000Y-92768200D01*
X154018200Y-98552500D02*
X154170900Y-98552500D01*
X174070300Y-94583500D02*
X174070300Y-108730000D01*
X173030500Y-109769800D02*
X173030500Y-110653700D01*
X164760300Y-115259200D02*
X164760300Y-114212800D01*
X161708900Y-115386300D02*
X161310300Y-115784900D01*
X161284000Y-115811300D02*
X161090000Y-115811300D01*
X142460000Y-97597400D02*
X143081100Y-98218500D01*
X153311600Y-125037200D02*
X153828100Y-125037200D01*
X173710900Y-116292800D02*
X177871600Y-120453500D01*
X160402300Y-118875200D02*
X161144300Y-118875200D01*
X168409500Y-86722700D02*
X168992000Y-87305200D01*
X164760300Y-114212800D02*
X164098200Y-113550700D01*
X173030500Y-110653700D02*
X173710900Y-111334100D01*
X159182900Y-119424400D02*
X159483400Y-119123900D01*
X161310300Y-115785000D02*
X161284000Y-115811300D01*
X174070300Y-108730000D02*
X173030500Y-109769800D01*
X162499700Y-114912800D02*
X162026200Y-115386300D01*
X177871600Y-121601800D02*
X177085000Y-122388400D01*
X161310300Y-115784900D02*
X161310300Y-115785000D01*
X161144300Y-118875200D02*
X164760300Y-115259200D01*
X162499700Y-114212800D02*
X162499700Y-114912800D01*
X164605400Y-87485800D02*
X165368500Y-86722700D01*
X160153600Y-119123900D02*
X160402300Y-118875200D01*
X177085000Y-122388400D02*
X172676600Y-122388400D01*
X166779100Y-116490900D02*
X165992000Y-116490900D01*
X153828100Y-125037200D02*
X159182900Y-119682400D01*
X161090000Y-114681000D02*
X161090000Y-115811300D01*
X143081100Y-98218500D02*
X143081100Y-102719900D01*
X164098200Y-113550700D02*
X163161800Y-113550700D01*
X168992000Y-92768200D02*
X171448000Y-95224200D01*
X163161800Y-113550700D02*
X162499700Y-114212800D01*
X173710900Y-111334100D02*
X173710900Y-116292800D01*
X154170900Y-98552500D02*
X157480200Y-101861800D01*
X159182900Y-119682400D02*
X159182900Y-119424400D01*
X158599100Y-101861800D02*
X164605400Y-95855500D01*
X157480200Y-101861800D02*
X158599100Y-101861800D01*
%TO.N,IO19{slash}MISO{slash}LED4*%
X163397200Y-92995000D02*
X158188400Y-98203800D01*
X168857100Y-85641800D02*
X164920900Y-85641800D01*
X162220300Y-134718400D02*
X173469400Y-123469300D01*
X177532600Y-123469300D02*
X178952500Y-122049400D01*
X178621500Y-119674800D02*
X175113700Y-116167000D01*
X178621500Y-119674900D02*
X178621500Y-119674800D01*
X173469400Y-123469300D02*
X177532600Y-123469300D01*
X175113700Y-116167000D02*
X175113700Y-92407900D01*
X175113700Y-92407900D02*
X170200400Y-87494600D01*
X178952500Y-120005900D02*
X178621500Y-119674900D01*
X164920900Y-85641800D02*
X163397200Y-87165500D01*
X162220300Y-135001000D02*
X162220300Y-134718400D01*
X163397200Y-87165500D02*
X163397200Y-92995000D01*
X161090000Y-135001000D02*
X162220300Y-135001000D01*
X178952500Y-122049400D02*
X178952500Y-120005900D01*
X170200400Y-86985100D02*
X168857100Y-85641800D01*
X170200400Y-87494600D02*
X170200400Y-86985100D01*
%TO.N,IO14{slash}SCK*%
X163504800Y-115777800D02*
X163538300Y-115811300D01*
X160004400Y-118763600D02*
X162670900Y-116097100D01*
X155120700Y-122545000D02*
X154596900Y-122021200D01*
X162730300Y-115379200D02*
X163106300Y-115379200D01*
X152399500Y-124195700D02*
X154120500Y-124195700D01*
X147619000Y-127639000D02*
X146500100Y-126520100D01*
X138821800Y-109577200D02*
X138821800Y-107869100D01*
X144205100Y-125463300D02*
X144396600Y-125463300D01*
X160010800Y-123632300D02*
X156004100Y-127639000D01*
X144158600Y-127149700D02*
X137996500Y-120987600D01*
X145115100Y-126181800D02*
X145115100Y-126773400D01*
X156004100Y-127639000D02*
X147619000Y-127639000D01*
X137996500Y-120987600D02*
X137996500Y-110402500D01*
X162670900Y-115438600D02*
X162730300Y-115379200D01*
X158902100Y-118763600D02*
X160004400Y-118763600D01*
X163630000Y-114681000D02*
X163630000Y-115811300D01*
X144396600Y-125463300D02*
X145115100Y-126181800D01*
X155120700Y-123195500D02*
X155120700Y-122545000D01*
X144738800Y-127149700D02*
X144158600Y-127149700D01*
X162670900Y-116097100D02*
X162670900Y-115438600D01*
X137996500Y-110402500D02*
X138821800Y-109577200D01*
X145115100Y-126773400D02*
X144738800Y-127149700D01*
X154120500Y-124195700D02*
X155120700Y-123195500D01*
X163106300Y-115379200D02*
X163504800Y-115777700D01*
X163504800Y-115777700D02*
X163504800Y-115777800D01*
X151550300Y-125044900D02*
X152399500Y-124195700D01*
X155120700Y-122545000D02*
X158902100Y-118763600D01*
X163538300Y-115811300D02*
X163630000Y-115811300D01*
%TO.N,IO22*%
X158228300Y-99721000D02*
X158035800Y-99721000D01*
X158035800Y-99721000D02*
X154261700Y-95946900D01*
X154261700Y-95946900D02*
X154261700Y-91853800D01*
%TO.N,IO33*%
X150547900Y-95204200D02*
X150547900Y-95439200D01*
X153337900Y-98270800D02*
X153337900Y-98834200D01*
X154320800Y-99212000D02*
X158249800Y-103141100D01*
X154300000Y-99232800D02*
X154320800Y-99212000D01*
X153736500Y-99232800D02*
X154300000Y-99232800D01*
X150547900Y-95439200D02*
X153358700Y-98250000D01*
X153358700Y-98250000D02*
X153337900Y-98270800D01*
X153337900Y-98834200D02*
X153736500Y-99232800D01*
%TO.N,IO18{slash}MOSI{slash}LED3*%
X139572000Y-96390500D02*
X140994600Y-94967900D01*
X130865200Y-95469500D02*
X131436700Y-94898000D01*
X131436700Y-94898000D02*
X132358800Y-94898000D01*
X137111900Y-130751500D02*
X133793500Y-130751500D01*
X139572000Y-97660100D02*
X139572000Y-96390500D01*
X133793500Y-130751500D02*
X132548000Y-131997000D01*
X140994600Y-94967900D02*
X142374000Y-94967900D01*
X130865200Y-131314000D02*
X130865200Y-95469500D01*
X132548000Y-131997000D02*
X131548200Y-131997000D01*
X137827500Y-99404600D02*
X139572000Y-97660100D01*
X138161700Y-131801300D02*
X137111900Y-130751500D01*
X131548200Y-131997000D02*
X130865200Y-131314000D01*
X136865400Y-99404600D02*
X137827500Y-99404600D01*
X142374000Y-94967900D02*
X142511700Y-95105600D01*
X132358800Y-94898000D02*
X136865400Y-99404600D01*
%TO.N,IO27*%
X144914900Y-107367300D02*
X147060400Y-109512800D01*
X159035900Y-125371300D02*
X155935300Y-128471900D01*
X155935300Y-128471900D02*
X148471100Y-128471900D01*
X165111500Y-122311800D02*
X162052000Y-125371300D01*
X159722600Y-118083300D02*
X159722600Y-115641600D01*
X162052000Y-125371300D02*
X159035900Y-125371300D01*
X137972200Y-105781700D02*
X135518400Y-108235500D01*
X136259700Y-126057300D02*
X136336500Y-126057300D01*
X160488700Y-120429800D02*
X164094400Y-120429800D01*
X156376400Y-105781700D02*
X137972200Y-105781700D01*
X157184600Y-107215100D02*
X157184600Y-106589900D01*
X165111500Y-122227600D02*
X165111500Y-122311800D01*
X142658400Y-128230600D02*
X144791600Y-128230600D01*
X144791600Y-128230600D02*
X146219100Y-129658100D01*
X142252300Y-107367300D02*
X144914900Y-107367300D01*
X157184600Y-106589900D02*
X156376400Y-105781700D01*
X135518400Y-108235500D02*
X135518400Y-125316000D01*
X138510100Y-124082300D02*
X142658400Y-128230600D01*
X154886900Y-109512800D02*
X157184600Y-107215100D01*
X147060400Y-109512800D02*
X154886900Y-109512800D01*
X159863200Y-119804300D02*
X160488700Y-120429800D01*
X141420700Y-108198900D02*
X142252300Y-107367300D01*
X135518400Y-125316000D02*
X136259700Y-126057300D01*
%TO.N,IO12*%
X138390400Y-115845900D02*
X138390400Y-110552000D01*
X139426000Y-109516400D02*
X139426000Y-108286500D01*
X138390400Y-110552000D02*
X139426000Y-109516400D01*
X138784400Y-116239900D02*
X138390400Y-115845900D01*
X139814900Y-107897600D02*
X139814900Y-106897200D01*
X139426000Y-108286500D02*
X139814900Y-107897600D01*
%TO.N,IO13*%
X143019400Y-94065000D02*
X139776000Y-94065000D01*
X144516600Y-95562200D02*
X143019400Y-94065000D01*
X131484100Y-85435800D02*
X131917200Y-85002700D01*
X139776000Y-94065000D02*
X138820200Y-95020800D01*
X131917200Y-83972400D02*
X131917200Y-85002700D01*
X142060600Y-111825800D02*
X142060600Y-110406300D01*
X142060600Y-110406300D02*
X143665700Y-108801200D01*
X131494700Y-91671100D02*
X131484100Y-91660500D01*
X134649800Y-95020800D02*
X131494700Y-91865700D01*
X131494700Y-91865700D02*
X131494700Y-91671100D01*
X131484100Y-91660500D02*
X131484100Y-85435800D01*
X138820200Y-95020800D02*
X134649800Y-95020800D01*
X144516600Y-103145100D02*
X144516600Y-95562200D01*
%TO.N,IO5*%
X168707900Y-86002100D02*
X165070100Y-86002100D01*
X163757500Y-95179700D02*
X158193400Y-100743800D01*
X163757500Y-87314700D02*
X163757500Y-95179700D01*
X174750600Y-94865300D02*
X174750600Y-94301700D01*
X174705000Y-116267900D02*
X174705000Y-94910900D01*
X172305600Y-123109000D02*
X177383400Y-123109000D01*
X157140300Y-135001000D02*
X157140300Y-134718400D01*
X177383400Y-123109000D02*
X178592200Y-121900200D01*
X174705000Y-94910900D02*
X174750600Y-94865300D01*
X174705000Y-94256100D02*
X174705000Y-92508700D01*
X178592200Y-121900200D02*
X178592200Y-120155100D01*
X174750600Y-94301700D02*
X174705000Y-94256100D01*
X169840100Y-87134300D02*
X168707900Y-86002100D01*
X172303500Y-123106900D02*
X172305600Y-123109000D01*
X174705000Y-92508700D02*
X169840100Y-87643800D01*
X157140300Y-134718400D02*
X168751800Y-123106900D01*
X169840100Y-87643800D02*
X169840100Y-87134300D01*
X156010000Y-135001000D02*
X157140300Y-135001000D01*
X168751800Y-123106900D02*
X172303500Y-123106900D01*
X165070100Y-86002100D02*
X163757500Y-87314700D01*
X178592200Y-120155100D02*
X174705000Y-116267900D01*
%TO.N,IO0*%
X146781900Y-125839800D02*
X146094700Y-125839800D01*
X154019900Y-127242200D02*
X148184300Y-127242200D01*
X163125100Y-123269200D02*
X162807900Y-122952000D01*
X158310100Y-122952000D02*
X154019900Y-127242200D01*
X155794500Y-106185600D02*
X156504200Y-106895300D01*
X148184300Y-127242200D02*
X146781900Y-125839800D01*
X136198800Y-108092700D02*
X138105900Y-106185600D01*
X138105900Y-106185600D02*
X155794500Y-106185600D01*
X162807900Y-122952000D02*
X158310100Y-122952000D01*
X146094700Y-125839800D02*
X144661800Y-124406900D01*
X136198800Y-125027500D02*
X136198800Y-108092700D01*
X144661800Y-124406900D02*
X144661800Y-123402000D01*
%TO.N,IO4{slash}A5*%
X140106400Y-108551200D02*
X140106400Y-108754000D01*
X141660700Y-106996900D02*
X140106400Y-108551200D01*
X145506500Y-106996900D02*
X141660700Y-106996900D01*
X153470000Y-135001000D02*
X152339700Y-135001000D01*
X144009400Y-127510000D02*
X137636100Y-121136700D01*
X145588400Y-127510000D02*
X144009400Y-127510000D01*
X152339700Y-135001000D02*
X152339700Y-134261300D01*
X152339700Y-134261300D02*
X145588400Y-127510000D01*
X147342100Y-108832500D02*
X145506500Y-106996900D01*
X137636100Y-109302600D02*
X137996400Y-108942300D01*
X137636100Y-121136700D02*
X137636100Y-109302600D01*
%TO.N,RXD0*%
X146911200Y-109873100D02*
X157639500Y-109873100D01*
X139070700Y-112234400D02*
X139070700Y-111924700D01*
X143260800Y-107734600D02*
X144772700Y-107734600D01*
X145094800Y-119043300D02*
X143981700Y-117930200D01*
X145094800Y-122836200D02*
X145094800Y-119043300D01*
X146342600Y-124084000D02*
X145094800Y-122836200D01*
X147956900Y-124084000D02*
X146342600Y-124084000D01*
X139070700Y-111924700D02*
X143260800Y-107734600D01*
X157639500Y-109873100D02*
X161735600Y-105777000D01*
X144772700Y-107734600D02*
X146911200Y-109873100D01*
%TO.N,Net-(R9-Pad2)*%
X138842000Y-131519500D02*
X138842000Y-132586800D01*
X138842000Y-132586800D02*
X138714000Y-132714800D01*
X133149200Y-125826700D02*
X138842000Y-131519500D01*
X133153500Y-110250000D02*
X133149200Y-110254300D01*
X133149200Y-110254300D02*
X133149200Y-125826700D01*
%TO.N,Net-(R8-Pad2)*%
X135183700Y-132717600D02*
X131171100Y-132717600D01*
X131171100Y-132717600D02*
X130144600Y-131691100D01*
X130144600Y-92245100D02*
X130129900Y-92230400D01*
X130129900Y-92230400D02*
X130129900Y-90424100D01*
X130144600Y-131691100D02*
X130144600Y-92245100D01*
X136075300Y-131826000D02*
X135183700Y-132717600D01*
%TO.N,RESET*%
X130610000Y-133870700D02*
X128579600Y-131840300D01*
X134929500Y-93782900D02*
X135722300Y-93782900D01*
X130610000Y-135001000D02*
X130610000Y-133870700D01*
X128579600Y-131840300D02*
X128579600Y-97878800D01*
X135722300Y-93782900D02*
X137651400Y-91853800D01*
%TO.N,IO36{slash}A4{slash}SENSOR_VP*%
X137275800Y-108487500D02*
X137821400Y-107941900D01*
X137275800Y-121349600D02*
X137275800Y-108487500D01*
X150930000Y-135001000D02*
X150930000Y-133870700D01*
X145439200Y-127870300D02*
X143796500Y-127870300D01*
X143796500Y-127870300D02*
X137275800Y-121349600D01*
X141412700Y-99347600D02*
X137602400Y-103157900D01*
X141412700Y-96028700D02*
X141412700Y-99347600D01*
X150930000Y-133361100D02*
X145439200Y-127870300D01*
X150930000Y-133870700D02*
X150930000Y-133361100D01*
%TO.N,TXD0*%
X132164400Y-90587800D02*
X132164400Y-92000400D01*
X128112100Y-90750200D02*
X127008600Y-89646700D01*
X125605900Y-124939500D02*
X124933800Y-124267400D01*
X124933800Y-96152600D02*
X128112100Y-92974300D01*
X124933800Y-124267400D02*
X124933800Y-96152600D01*
X134824500Y-94660500D02*
X138663100Y-94660500D01*
X128112100Y-92974300D02*
X128112100Y-90750200D01*
X140199800Y-93123800D02*
X142536500Y-93123800D01*
X132164400Y-92000400D02*
X134824500Y-94660500D01*
X138663100Y-94660500D02*
X140199800Y-93123800D01*
%TO.N,IO21*%
X168710000Y-133870700D02*
X179356500Y-123224200D01*
X168710000Y-135001000D02*
X168710000Y-133870700D01*
X155056100Y-95663800D02*
X154965200Y-95663800D01*
X170560700Y-87345400D02*
X170560700Y-86835900D01*
X179356500Y-119104800D02*
X178612000Y-118360300D01*
X178612000Y-110733400D02*
X178238300Y-110359700D01*
X179673100Y-122347800D02*
X179673100Y-119707500D01*
X169006300Y-85281500D02*
X164771700Y-85281500D01*
X178238300Y-110359700D02*
X178238300Y-95023000D01*
X178238300Y-95023000D02*
X170560700Y-87345400D01*
X179356500Y-122664400D02*
X179673100Y-122347800D01*
X179673100Y-119707500D02*
X179356500Y-119390900D01*
X163036900Y-87016300D02*
X163036900Y-87683000D01*
X163036900Y-87683000D02*
X155056100Y-95663800D01*
X179356500Y-123224200D02*
X179356500Y-122664400D01*
X178612000Y-118360300D02*
X178612000Y-110733400D01*
X164771700Y-85281500D02*
X163036900Y-87016300D01*
X179356500Y-119390900D02*
X179356500Y-119104800D01*
X170560700Y-86835900D02*
X169006300Y-85281500D01*
%TO.N,I39{slash}A3{slash}SENSOR_VN*%
X133302600Y-83103900D02*
X133302600Y-87420900D01*
X126823100Y-104069200D02*
X126642100Y-104069200D01*
X126642100Y-104069200D02*
X125304500Y-102731600D01*
X128419900Y-88429600D02*
X128419900Y-83653000D01*
X128494500Y-93101400D02*
X128494500Y-88504200D01*
X128494500Y-88504200D02*
X128419900Y-88429600D01*
X128219300Y-105465400D02*
X126823100Y-104069200D01*
X138356700Y-91531600D02*
X138356700Y-93449700D01*
X128419900Y-83653000D02*
X129582000Y-82490900D01*
X132689600Y-82490900D02*
X133302600Y-83103900D01*
X147259700Y-135001000D02*
X147259700Y-135283600D01*
X137257800Y-90432700D02*
X138356700Y-91531600D01*
X147259700Y-135283600D02*
X146016700Y-136526600D01*
X133302600Y-87420900D02*
X136314400Y-90432700D01*
X146016700Y-136526600D02*
X130513500Y-136526600D01*
X125304500Y-102731600D02*
X125304500Y-96291400D01*
X148390000Y-135001000D02*
X147259700Y-135001000D01*
X136314400Y-90432700D02*
X137257800Y-90432700D01*
X125304500Y-96291400D02*
X128494500Y-93101400D01*
X129582000Y-82490900D02*
X132689600Y-82490900D01*
X128219300Y-134232400D02*
X128219300Y-105465400D01*
X130513500Y-136526600D02*
X128219300Y-134232400D01*
X138356700Y-93449700D02*
X137837900Y-93968500D01*
%TO.N,IO16{slash}LED1*%
X143315700Y-125570900D02*
X143315700Y-119329600D01*
X144196700Y-108120900D02*
X144666100Y-108590300D01*
X139751000Y-112516200D02*
X139751000Y-111753900D01*
X139751000Y-111753900D02*
X143384000Y-108120900D01*
X143315700Y-119329600D02*
X140726700Y-116740600D01*
X144434800Y-126463600D02*
X144208400Y-126463600D01*
X139333500Y-112933700D02*
X139751000Y-112516200D01*
X139333500Y-115765500D02*
X139333500Y-112933700D01*
X140308600Y-116740600D02*
X139333500Y-115765500D01*
X143384000Y-108120900D02*
X144196700Y-108120900D01*
X144208400Y-126463600D02*
X143315700Y-125570900D01*
X140726700Y-116740600D02*
X140308600Y-116740600D01*
%TO.N,IO17{slash}LED2*%
X140097600Y-94425300D02*
X139138800Y-95384100D01*
X143795100Y-95415400D02*
X142805000Y-94425300D01*
X126004500Y-89886700D02*
X123248000Y-92643200D01*
X142805000Y-94425300D02*
X140097600Y-94425300D01*
X134500700Y-95384100D02*
X131069500Y-91952900D01*
X140512800Y-127804800D02*
X145386300Y-132678300D01*
X138626200Y-125918200D02*
X140470000Y-127762000D01*
X133829500Y-125303700D02*
X136220400Y-127694600D01*
X133829500Y-115824000D02*
X133829500Y-125303700D01*
X143795100Y-102013800D02*
X143795100Y-95415400D01*
X140512800Y-127762000D02*
X140512800Y-127804800D01*
X139138800Y-95384100D02*
X134500700Y-95384100D01*
X131069500Y-91952900D02*
X130814400Y-91952900D01*
X123248000Y-92643200D02*
X123248000Y-114991300D01*
X145386300Y-132678300D02*
X146108300Y-132678300D01*
X140470000Y-127762000D02*
X140512800Y-127762000D01*
%TO.N,IO25{slash}A1{slash}DAC1*%
X137902400Y-106898700D02*
X138355100Y-106898700D01*
X143310000Y-135001000D02*
X143310000Y-133870700D01*
X136881800Y-125640500D02*
X136881800Y-107919300D01*
X143310000Y-132068700D02*
X136881800Y-125640500D01*
X143310000Y-133870700D02*
X143310000Y-132068700D01*
X136881800Y-107919300D02*
X137902400Y-106898700D01*
D25*
%TO.N,+5V*%
X146177000Y-123088000D02*
X145850000Y-122761000D01*
X145850000Y-122761000D02*
X145850000Y-114681000D01*
X154257000Y-123088000D02*
X147954900Y-123088000D01*
D23*
X148643700Y-123776800D02*
X148643700Y-126189300D01*
D25*
X147954900Y-123088000D02*
X146177000Y-123088000D01*
D23*
X147954900Y-123088000D02*
X148643700Y-123776800D01*
%TO.N,RTS*%
X153870700Y-126881900D02*
X148333500Y-126881900D01*
X148333500Y-126881900D02*
X145871300Y-124419700D01*
X164084700Y-122171100D02*
X158581500Y-122171100D01*
X165172800Y-120800900D02*
X165172800Y-118407400D01*
X145871300Y-124419700D02*
X145684100Y-124419700D01*
X158581500Y-122171100D02*
X153870700Y-126881900D01*
%TO.N,DTR*%
X163882600Y-119721300D02*
X160865400Y-119721300D01*
X150071900Y-122027400D02*
X150071900Y-116639000D01*
X164182200Y-119421700D02*
X163882600Y-119721300D01*
%TO.N,IO26{slash}A0{slash}DAC2*%
X141779700Y-97315700D02*
X141779700Y-97879100D01*
X142131600Y-95721900D02*
X142131600Y-96963800D01*
X142131600Y-101075400D02*
X141193200Y-102013800D01*
X141737900Y-95328200D02*
X142131600Y-95721900D01*
X140112300Y-97979600D02*
X140112300Y-96360000D01*
X134509800Y-107874800D02*
X134509800Y-125192700D01*
X140770000Y-131282100D02*
X140770000Y-135001000D01*
X142131600Y-98231000D02*
X142131600Y-101075400D01*
X134934800Y-103157100D02*
X140112300Y-97979600D01*
X142131600Y-96963800D02*
X141779700Y-97315700D01*
X136054700Y-126737600D02*
X136225500Y-126737600D01*
X141144100Y-95328200D02*
X141737900Y-95328200D01*
X140112300Y-96360000D02*
X141144100Y-95328200D01*
X134509800Y-125192700D02*
X136054700Y-126737600D01*
X136225500Y-126737600D02*
X140770000Y-131282100D01*
X141779700Y-97879100D02*
X142131600Y-98231000D01*
%TO.N,USB-C CC1*%
X179238800Y-103764800D02*
X180508800Y-102494800D01*
X179238800Y-106766600D02*
X179238800Y-103764800D01*
%TO.N,USB-C 5V*%
X172605900Y-108489800D02*
X172605900Y-108213100D01*
X172507500Y-102815600D02*
X172778400Y-103086500D01*
X172507500Y-94533900D02*
X172507500Y-102815600D01*
X172778400Y-108489800D02*
X172605900Y-108489800D01*
X172778400Y-103086500D02*
X172778400Y-108489800D01*
%TO.N,USB-C CC2*%
X179321300Y-117293800D02*
X179321300Y-108177000D01*
X179321300Y-108177000D02*
X178928800Y-107784500D01*
%TO.N,I34{slash}A2*%
X144719700Y-135283600D02*
X143858200Y-136145100D01*
X144719700Y-135001000D02*
X144719700Y-135283600D01*
X136771700Y-131943200D02*
X136771700Y-131544300D01*
X139499900Y-135400400D02*
X139499900Y-134671400D01*
X131320300Y-132357300D02*
X130504900Y-131541900D01*
X143858200Y-136145100D02*
X140244600Y-136145100D01*
X139499900Y-134671400D02*
X136771700Y-131943200D01*
X145850000Y-135001000D02*
X144719700Y-135001000D01*
X132877500Y-132357300D02*
X131320300Y-132357300D01*
X131287500Y-94537700D02*
X132890100Y-94537700D01*
X130504900Y-131541900D02*
X130504900Y-95320300D01*
X140244600Y-136145100D02*
X139499900Y-135400400D01*
X134089300Y-131145500D02*
X132877500Y-132357300D01*
X132890100Y-94537700D02*
X137032300Y-98679900D01*
X136771700Y-131544300D02*
X136372900Y-131145500D01*
X136372900Y-131145500D02*
X134089300Y-131145500D01*
X137032300Y-98679900D02*
X137541800Y-98679900D01*
X130504900Y-95320300D02*
X131287500Y-94537700D01*
%TO.N,USB-C DATA+*%
X153704400Y-125758300D02*
X157972000Y-121490700D01*
X166234400Y-122388400D02*
X172094500Y-122388400D01*
X178231900Y-121751000D02*
X178231900Y-120304300D01*
X151274200Y-125758300D02*
X153704400Y-125758300D01*
X177234200Y-122748700D02*
X178231900Y-121751000D01*
X174071200Y-110844800D02*
X173860100Y-110633700D01*
X150859300Y-123994600D02*
X150859300Y-125343400D01*
X173860100Y-110633700D02*
X173710900Y-110633700D01*
X178231900Y-120304300D02*
X174071200Y-116143600D01*
X157972000Y-121490700D02*
X165336700Y-121490700D01*
X174071200Y-116143600D02*
X174071200Y-110844800D01*
X172094500Y-122388400D02*
X172454800Y-122748700D01*
X173710900Y-110633700D02*
X173710900Y-110313600D01*
X172454800Y-122748700D02*
X177234200Y-122748700D01*
X150859300Y-125343400D02*
X151274200Y-125758300D01*
X165336700Y-121490700D02*
X166234400Y-122388400D01*
%TO.N,USB-C DATA-*%
X177012000Y-110152500D02*
X177887000Y-111027500D01*
X177012000Y-109071600D02*
X177012000Y-110152500D01*
X177887000Y-111027500D02*
X177887000Y-116800100D01*
X174293700Y-120540900D02*
X170771600Y-117018800D01*
X155115600Y-117020100D02*
X155211800Y-117020100D01*
X170771600Y-117018800D02*
X168827700Y-117018800D01*
X177887000Y-116800100D02*
X177298000Y-117389100D01*
X152114800Y-120020900D02*
X155115600Y-117020100D01*
%TO.N,POWER_EN*%
X153656300Y-133580600D02*
X154867500Y-134791800D01*
X154867500Y-135534100D02*
X155538500Y-136205100D01*
X143734200Y-118849100D02*
X143734200Y-124027300D01*
X145819800Y-126112900D02*
X145819800Y-126818300D01*
X143310000Y-114681000D02*
X143310000Y-115811300D01*
X164044300Y-136205100D02*
X164900000Y-135349400D01*
X143310000Y-115811300D02*
X143301400Y-115819900D01*
X154867500Y-134791800D02*
X154867500Y-135534100D01*
X143734200Y-124027300D02*
X145819800Y-126112900D01*
X177681800Y-123829600D02*
X179312800Y-122198600D01*
X164900000Y-135349400D02*
X164900000Y-134099100D01*
X179312800Y-119856700D02*
X178996200Y-119540100D01*
X143301400Y-115819900D02*
X143301400Y-118416300D01*
X178996200Y-119540100D02*
X178996200Y-119540000D01*
X177878000Y-110508900D02*
X177878000Y-96783100D01*
X177878000Y-96783100D02*
X175813900Y-94719000D01*
X178251600Y-118795400D02*
X178251600Y-110882500D01*
X155538500Y-136205100D02*
X164044300Y-136205100D01*
X178251600Y-110882500D02*
X177878000Y-110508900D01*
X143301400Y-118416300D02*
X143734200Y-118849100D01*
X164900000Y-134099100D02*
X174699200Y-124299900D01*
X178996200Y-119540000D02*
X178251600Y-118795400D01*
X152582100Y-133580600D02*
X153656300Y-133580600D01*
X179312800Y-122198600D02*
X179312800Y-119856700D01*
X174699200Y-124299900D02*
X176787200Y-124299900D01*
X177257500Y-123829600D02*
X177681800Y-123829600D01*
X176787200Y-124299900D02*
X177257500Y-123829600D01*
X145819800Y-126818300D02*
X152582100Y-133580600D01*
%TO.N,Net-(R19-Pad1)*%
X130617200Y-83972400D02*
X129665300Y-83972400D01*
X129665300Y-83972400D02*
X129503100Y-84134600D01*
%TD*%
%TA.AperFunction,Conductor*%
%TO.N,GND*%
G36*
X128893199Y-82142683D02*
G01*
X128939692Y-82196339D01*
X128949796Y-82266613D01*
X128920302Y-82331193D01*
X128914173Y-82337776D01*
X128449061Y-82802888D01*
X128386749Y-82836914D01*
X128315934Y-82831849D01*
X128259098Y-82789302D01*
X128254191Y-82781676D01*
X128252576Y-82777368D01*
X128231660Y-82749459D01*
X128171978Y-82669827D01*
X128166596Y-82662646D01*
X128159415Y-82657264D01*
X128059056Y-82582048D01*
X128059053Y-82582046D01*
X128051874Y-82576666D01*
X127936223Y-82533311D01*
X127925025Y-82529113D01*
X127925023Y-82529113D01*
X127917630Y-82526341D01*
X127909780Y-82525488D01*
X127909779Y-82525488D01*
X127859824Y-82520061D01*
X127859823Y-82520061D01*
X127856427Y-82519692D01*
X126709218Y-82519692D01*
X125561674Y-82519693D01*
X125558280Y-82520062D01*
X125558274Y-82520062D01*
X125508328Y-82525487D01*
X125508324Y-82525488D01*
X125500470Y-82526341D01*
X125366226Y-82576666D01*
X125359047Y-82582046D01*
X125359044Y-82582048D01*
X125258685Y-82657264D01*
X125251504Y-82662646D01*
X125246122Y-82669827D01*
X125170906Y-82770186D01*
X125170904Y-82770189D01*
X125165524Y-82777368D01*
X125115199Y-82911612D01*
X125108550Y-82972815D01*
X125108551Y-85267568D01*
X125108920Y-85270962D01*
X125108920Y-85270968D01*
X125111700Y-85296557D01*
X125115199Y-85328772D01*
X125165524Y-85463016D01*
X125170904Y-85470195D01*
X125170906Y-85470198D01*
X125246122Y-85570557D01*
X125251504Y-85577738D01*
X125258685Y-85583120D01*
X125359044Y-85658336D01*
X125359047Y-85658338D01*
X125366226Y-85663718D01*
X125455611Y-85697226D01*
X125493075Y-85711271D01*
X125493077Y-85711271D01*
X125500470Y-85714043D01*
X125508320Y-85714896D01*
X125508321Y-85714896D01*
X125558276Y-85720323D01*
X125561673Y-85720692D01*
X125621812Y-85720692D01*
X127713400Y-85720691D01*
X127781521Y-85740693D01*
X127828014Y-85794349D01*
X127839400Y-85846691D01*
X127839400Y-86520779D01*
X127819398Y-86588900D01*
X127765742Y-86635393D01*
X127695468Y-86645497D01*
X127647565Y-86628212D01*
X127498061Y-86536595D01*
X127437909Y-86499734D01*
X127433339Y-86497841D01*
X127433335Y-86497839D01*
X127209734Y-86405221D01*
X127209732Y-86405220D01*
X127205161Y-86403327D01*
X127120761Y-86383065D01*
X126965011Y-86345672D01*
X126965005Y-86345671D01*
X126960198Y-86344517D01*
X126709050Y-86324751D01*
X126457902Y-86344517D01*
X126453095Y-86345671D01*
X126453089Y-86345672D01*
X126297339Y-86383065D01*
X126212939Y-86403327D01*
X126208368Y-86405220D01*
X126208366Y-86405221D01*
X125984765Y-86497839D01*
X125984761Y-86497841D01*
X125980191Y-86499734D01*
X125765391Y-86631364D01*
X125761631Y-86634576D01*
X125761626Y-86634579D01*
X125591998Y-86779456D01*
X125573826Y-86794976D01*
X125570613Y-86798738D01*
X125413429Y-86982776D01*
X125413426Y-86982781D01*
X125410214Y-86986541D01*
X125278584Y-87201341D01*
X125276691Y-87205911D01*
X125276689Y-87205915D01*
X125188594Y-87418596D01*
X125182177Y-87434089D01*
X125181022Y-87438901D01*
X125148878Y-87572792D01*
X125123367Y-87679052D01*
X125103601Y-87930200D01*
X125123367Y-88181348D01*
X125124521Y-88186155D01*
X125124522Y-88186161D01*
X125159614Y-88332328D01*
X125182177Y-88426311D01*
X125184070Y-88430882D01*
X125184071Y-88430884D01*
X125272768Y-88645017D01*
X125278584Y-88659059D01*
X125410214Y-88873859D01*
X125429318Y-88896227D01*
X125496423Y-88974797D01*
X125525454Y-89039586D01*
X125514849Y-89109786D01*
X125474673Y-89158563D01*
X125398629Y-89213812D01*
X125394216Y-89218714D01*
X125394214Y-89218715D01*
X125276386Y-89349576D01*
X125271967Y-89354484D01*
X125177321Y-89518416D01*
X125118826Y-89698444D01*
X125118136Y-89705005D01*
X125118136Y-89705007D01*
X125114409Y-89740472D01*
X125099040Y-89886700D01*
X125099730Y-89893265D01*
X125099730Y-89893271D01*
X125100795Y-89903408D01*
X125088021Y-89973246D01*
X125064580Y-90005669D01*
X122870267Y-92199982D01*
X122857884Y-92210843D01*
X122833983Y-92229183D01*
X122810625Y-92259623D01*
X122810610Y-92259641D01*
X122755994Y-92330819D01*
X122755993Y-92330821D01*
X122740934Y-92350446D01*
X122737775Y-92358072D01*
X122737774Y-92358074D01*
X122724165Y-92390929D01*
X122682442Y-92491659D01*
X122667500Y-92605153D01*
X122667500Y-92605159D01*
X122662492Y-92643200D01*
X122663570Y-92651389D01*
X122666422Y-92673054D01*
X122667500Y-92689499D01*
X122667500Y-114241867D01*
X122647498Y-114309988D01*
X122635136Y-114326177D01*
X122519890Y-114454171D01*
X122519887Y-114454175D01*
X122515467Y-114459084D01*
X122420821Y-114623016D01*
X122362326Y-114803044D01*
X122361636Y-114809605D01*
X122361636Y-114809607D01*
X122355725Y-114865852D01*
X122342540Y-114991300D01*
X122343230Y-114997865D01*
X122359718Y-115154738D01*
X122362326Y-115179556D01*
X122420821Y-115359584D01*
X122515467Y-115523516D01*
X122519885Y-115528423D01*
X122519886Y-115528424D01*
X122626961Y-115647342D01*
X122642129Y-115664188D01*
X122647468Y-115668067D01*
X122786606Y-115769156D01*
X122795270Y-115775451D01*
X122968197Y-115852444D01*
X123066212Y-115873278D01*
X123146897Y-115890428D01*
X123146901Y-115890428D01*
X123153354Y-115891800D01*
X123342646Y-115891800D01*
X123349099Y-115890428D01*
X123349103Y-115890428D01*
X123429788Y-115873278D01*
X123527803Y-115852444D01*
X123700730Y-115775451D01*
X123709395Y-115769156D01*
X123848532Y-115668067D01*
X123853871Y-115664188D01*
X123869040Y-115647342D01*
X123976114Y-115528424D01*
X123976115Y-115528423D01*
X123980533Y-115523516D01*
X124075179Y-115359584D01*
X124107467Y-115260212D01*
X124147541Y-115201606D01*
X124212937Y-115173969D01*
X124282894Y-115186076D01*
X124335200Y-115234082D01*
X124353300Y-115299148D01*
X124353300Y-124221102D01*
X124352222Y-124237547D01*
X124348292Y-124267400D01*
X124353300Y-124305441D01*
X124353300Y-124305447D01*
X124364280Y-124388847D01*
X124368242Y-124418941D01*
X124426734Y-124560154D01*
X124496421Y-124650972D01*
X124496423Y-124650974D01*
X124519783Y-124681417D01*
X124543684Y-124699757D01*
X124556067Y-124710618D01*
X124665980Y-124820531D01*
X124700006Y-124882843D01*
X124702195Y-124922792D01*
X124701130Y-124932929D01*
X124701130Y-124932935D01*
X124700440Y-124939500D01*
X124701799Y-124952426D01*
X124715633Y-125084051D01*
X124720226Y-125127756D01*
X124778721Y-125307784D01*
X124782024Y-125313506D01*
X124782025Y-125313507D01*
X124799284Y-125343400D01*
X124873367Y-125471716D01*
X124877785Y-125476623D01*
X124877786Y-125476624D01*
X124976210Y-125585934D01*
X125000029Y-125612388D01*
X125005368Y-125616267D01*
X125056611Y-125653497D01*
X125099965Y-125709719D01*
X125108550Y-125755433D01*
X125108551Y-126861500D01*
X125108551Y-127969568D01*
X125115199Y-128030772D01*
X125165524Y-128165016D01*
X125170904Y-128172195D01*
X125170906Y-128172198D01*
X125235175Y-128257950D01*
X125251504Y-128279738D01*
X125258685Y-128285120D01*
X125359044Y-128360336D01*
X125359047Y-128360338D01*
X125366226Y-128365718D01*
X125455611Y-128399226D01*
X125493075Y-128413271D01*
X125493077Y-128413271D01*
X125500470Y-128416043D01*
X125508320Y-128416896D01*
X125508321Y-128416896D01*
X125558276Y-128422323D01*
X125561673Y-128422692D01*
X125616515Y-128422692D01*
X127512800Y-128422691D01*
X127580921Y-128442693D01*
X127627414Y-128496349D01*
X127638800Y-128548691D01*
X127638800Y-129099852D01*
X127618798Y-129167973D01*
X127565142Y-129214466D01*
X127494868Y-129224570D01*
X127446965Y-129207283D01*
X127437909Y-129201734D01*
X127433339Y-129199841D01*
X127433337Y-129199840D01*
X127209734Y-129107221D01*
X127209732Y-129107220D01*
X127205161Y-129105327D01*
X127068018Y-129072402D01*
X126965011Y-129047672D01*
X126965005Y-129047671D01*
X126960198Y-129046517D01*
X126709050Y-129026751D01*
X126457902Y-129046517D01*
X126453095Y-129047671D01*
X126453089Y-129047672D01*
X126350082Y-129072402D01*
X126212939Y-129105327D01*
X126208368Y-129107220D01*
X126208366Y-129107221D01*
X125984765Y-129199839D01*
X125984761Y-129199841D01*
X125980191Y-129201734D01*
X125975973Y-129204319D01*
X125975971Y-129204320D01*
X125959414Y-129214466D01*
X125765391Y-129333364D01*
X125761631Y-129336576D01*
X125761626Y-129336579D01*
X125674000Y-129411419D01*
X125573826Y-129496976D01*
X125570613Y-129500738D01*
X125413429Y-129684776D01*
X125413426Y-129684781D01*
X125410214Y-129688541D01*
X125278584Y-129903341D01*
X125276691Y-129907911D01*
X125276689Y-129907915D01*
X125184071Y-130131516D01*
X125182177Y-130136089D01*
X125169431Y-130189181D01*
X125125116Y-130373767D01*
X125123367Y-130381052D01*
X125103601Y-130632200D01*
X125123367Y-130883348D01*
X125124521Y-130888155D01*
X125124522Y-130888161D01*
X125143300Y-130966377D01*
X125182177Y-131128311D01*
X125184070Y-131132882D01*
X125184071Y-131132884D01*
X125261638Y-131320147D01*
X125278584Y-131361059D01*
X125410214Y-131575859D01*
X125413426Y-131579619D01*
X125413429Y-131579624D01*
X125540905Y-131728879D01*
X125573826Y-131767424D01*
X125577588Y-131770637D01*
X125761626Y-131927821D01*
X125761631Y-131927824D01*
X125765391Y-131931036D01*
X125940881Y-132038577D01*
X125971138Y-132057118D01*
X125980191Y-132062666D01*
X125984761Y-132064559D01*
X125984765Y-132064561D01*
X126208366Y-132157179D01*
X126212939Y-132159073D01*
X126297339Y-132179335D01*
X126453089Y-132216728D01*
X126453095Y-132216729D01*
X126457902Y-132217883D01*
X126709050Y-132237649D01*
X126960198Y-132217883D01*
X126965005Y-132216729D01*
X126965011Y-132216728D01*
X127120761Y-132179335D01*
X127205161Y-132159073D01*
X127209734Y-132157179D01*
X127433337Y-132064560D01*
X127433339Y-132064559D01*
X127437909Y-132062666D01*
X127446964Y-132057117D01*
X127515494Y-132038577D01*
X127583171Y-132060031D01*
X127628507Y-132114668D01*
X127638800Y-132164548D01*
X127638800Y-132901063D01*
X127618798Y-132969184D01*
X127565142Y-133015677D01*
X127494868Y-133025781D01*
X127450087Y-133009621D01*
X127449958Y-133009874D01*
X127447945Y-133008848D01*
X127446963Y-133008494D01*
X127445550Y-133007628D01*
X127436750Y-133003144D01*
X127212059Y-132910074D01*
X127202674Y-132907025D01*
X126966187Y-132850249D01*
X126956440Y-132848706D01*
X126713980Y-132829624D01*
X126704120Y-132829624D01*
X126461660Y-132848706D01*
X126451913Y-132850249D01*
X126215426Y-132907025D01*
X126206041Y-132910074D01*
X125981350Y-133003144D01*
X125972556Y-133007625D01*
X125777883Y-133126921D01*
X125768423Y-133137378D01*
X125772206Y-133146154D01*
X128002060Y-135376008D01*
X128014440Y-135382768D01*
X128022090Y-135377041D01*
X128136501Y-135190340D01*
X128189149Y-135142709D01*
X128259190Y-135131102D01*
X128324388Y-135159205D01*
X128333029Y-135167080D01*
X129268165Y-136102216D01*
X129302191Y-136164528D01*
X129297126Y-136235343D01*
X129254579Y-136292179D01*
X129188059Y-136316990D01*
X129179070Y-136317311D01*
X125158702Y-136317311D01*
X125139318Y-136315811D01*
X125125043Y-136313588D01*
X125125040Y-136313588D01*
X125116170Y-136312207D01*
X125097327Y-136314671D01*
X125074812Y-136315583D01*
X124773115Y-136300761D01*
X124760821Y-136299551D01*
X124433307Y-136250968D01*
X124421185Y-136248558D01*
X124261450Y-136208546D01*
X124100010Y-136168107D01*
X124088178Y-136164518D01*
X123776436Y-136052975D01*
X123765012Y-136048243D01*
X123465707Y-135906682D01*
X123454802Y-135900853D01*
X123199112Y-135747598D01*
X125768490Y-135747598D01*
X125774217Y-135755248D01*
X125972556Y-135876791D01*
X125981350Y-135881272D01*
X126206041Y-135974342D01*
X126215426Y-135977391D01*
X126451913Y-136034167D01*
X126461660Y-136035710D01*
X126704120Y-136054792D01*
X126713980Y-136054792D01*
X126956440Y-136035710D01*
X126966187Y-136034167D01*
X127202674Y-135977391D01*
X127212059Y-135974342D01*
X127436750Y-135881272D01*
X127445544Y-135876791D01*
X127640217Y-135757495D01*
X127649677Y-135747038D01*
X127645894Y-135738262D01*
X126721862Y-134814230D01*
X126707918Y-134806616D01*
X126706085Y-134806747D01*
X126699470Y-134810998D01*
X125775250Y-135735218D01*
X125768490Y-135747598D01*
X123199112Y-135747598D01*
X123170811Y-135730635D01*
X123160530Y-135723765D01*
X122894603Y-135526540D01*
X122885044Y-135518696D01*
X122730971Y-135379052D01*
X122639710Y-135296337D01*
X122630972Y-135287598D01*
X122408619Y-135042269D01*
X122400775Y-135032711D01*
X122203550Y-134766782D01*
X122196680Y-134756501D01*
X122061602Y-134531137D01*
X122026461Y-134472507D01*
X122020634Y-134461606D01*
X122015713Y-134451200D01*
X122013792Y-134447138D01*
X125096466Y-134447138D01*
X125115548Y-134689598D01*
X125117091Y-134699345D01*
X125173867Y-134935832D01*
X125176916Y-134945217D01*
X125269986Y-135169908D01*
X125274467Y-135178702D01*
X125393763Y-135373375D01*
X125404220Y-135382835D01*
X125412996Y-135379052D01*
X126337028Y-134455020D01*
X126344642Y-134441076D01*
X126344511Y-134439243D01*
X126340260Y-134432628D01*
X125416040Y-133508408D01*
X125403660Y-133501648D01*
X125396010Y-133507375D01*
X125274467Y-133705714D01*
X125269986Y-133714508D01*
X125176916Y-133939199D01*
X125173867Y-133948584D01*
X125117091Y-134185071D01*
X125115548Y-134194818D01*
X125096466Y-134437278D01*
X125096466Y-134447138D01*
X122013792Y-134447138D01*
X121936396Y-134283498D01*
X121879074Y-134162300D01*
X121874342Y-134150876D01*
X121762799Y-133839132D01*
X121759210Y-133827299D01*
X121678763Y-133506130D01*
X121676351Y-133494003D01*
X121641551Y-133259401D01*
X121627768Y-133166490D01*
X121626557Y-133154189D01*
X121626163Y-133146154D01*
X121612095Y-132859771D01*
X121613443Y-132834208D01*
X121613732Y-132832355D01*
X121615113Y-132823484D01*
X121611073Y-132792588D01*
X121610009Y-132776251D01*
X121610009Y-85671384D01*
X121611509Y-85652000D01*
X121613732Y-85637725D01*
X121613732Y-85637722D01*
X121615113Y-85628852D01*
X121612649Y-85610010D01*
X121611737Y-85587491D01*
X121618265Y-85454612D01*
X121626558Y-85285800D01*
X121627769Y-85273499D01*
X121628145Y-85270968D01*
X121658487Y-85066416D01*
X121676351Y-84945991D01*
X121678763Y-84933864D01*
X121759210Y-84612695D01*
X121762799Y-84600862D01*
X121874342Y-84289118D01*
X121879074Y-84277694D01*
X122020634Y-83978388D01*
X122026463Y-83967483D01*
X122067465Y-83899076D01*
X122196680Y-83683492D01*
X122203550Y-83673211D01*
X122400775Y-83407282D01*
X122408619Y-83397724D01*
X122630972Y-83152395D01*
X122639710Y-83143656D01*
X122885044Y-82921297D01*
X122894603Y-82913453D01*
X123160530Y-82716228D01*
X123170811Y-82709358D01*
X123454802Y-82539140D01*
X123465707Y-82533311D01*
X123765012Y-82391750D01*
X123776436Y-82387018D01*
X124088180Y-82275474D01*
X124100012Y-82271885D01*
X124121059Y-82266613D01*
X124421194Y-82191433D01*
X124433301Y-82189026D01*
X124760822Y-82140441D01*
X124773117Y-82139231D01*
X125067541Y-82124767D01*
X125093098Y-82126115D01*
X125103828Y-82127785D01*
X125112730Y-82126621D01*
X125112733Y-82126621D01*
X125134724Y-82123745D01*
X125151061Y-82122681D01*
X128825078Y-82122681D01*
X128893199Y-82142683D01*
G37*
%TD.AperFunction*%
%TA.AperFunction,Conductor*%
G36*
X165865176Y-122846411D02*
G01*
X165904087Y-122866647D01*
X165932624Y-122888544D01*
X165935091Y-122890437D01*
X165935095Y-122890439D01*
X165941646Y-122895466D01*
X165964304Y-122904851D01*
X166075229Y-122950798D01*
X166075232Y-122950799D01*
X166082859Y-122953958D01*
X166145721Y-122962234D01*
X166234400Y-122973909D01*
X166264261Y-122969978D01*
X166280706Y-122968900D01*
X167764659Y-122968900D01*
X167832780Y-122988902D01*
X167879273Y-123042558D01*
X167889377Y-123112832D01*
X167859883Y-123177412D01*
X167853754Y-123183995D01*
X157067418Y-133970332D01*
X157005106Y-134004358D01*
X156934291Y-133999293D01*
X156889228Y-133970332D01*
X156881401Y-133962505D01*
X156876893Y-133959348D01*
X156876890Y-133959346D01*
X156692339Y-133830122D01*
X156692336Y-133830120D01*
X156687830Y-133826965D01*
X156682848Y-133824642D01*
X156682843Y-133824639D01*
X156478645Y-133729420D01*
X156478644Y-133729419D01*
X156473663Y-133727097D01*
X156468355Y-133725675D01*
X156468353Y-133725674D01*
X156250723Y-133667361D01*
X156250722Y-133667361D01*
X156245408Y-133665937D01*
X156010000Y-133645341D01*
X155774592Y-133665937D01*
X155769278Y-133667361D01*
X155769277Y-133667361D01*
X155551647Y-133725674D01*
X155551645Y-133725675D01*
X155546337Y-133727097D01*
X155541357Y-133729419D01*
X155541355Y-133729420D01*
X155337152Y-133824642D01*
X155337149Y-133824644D01*
X155332171Y-133826965D01*
X155232909Y-133896469D01*
X155167431Y-133942317D01*
X155138599Y-133962505D01*
X155134705Y-133966399D01*
X155134699Y-133966404D01*
X155087972Y-134013131D01*
X155025660Y-134047157D01*
X154954845Y-134042092D01*
X154909782Y-134013131D01*
X154099518Y-133202867D01*
X154088657Y-133190484D01*
X154070317Y-133166583D01*
X154039874Y-133143223D01*
X154039872Y-133143221D01*
X153949054Y-133073534D01*
X153845011Y-133030438D01*
X153815661Y-133018281D01*
X153815660Y-133018281D01*
X153807841Y-133015042D01*
X153807833Y-133015041D01*
X153694347Y-133000100D01*
X153694344Y-133000100D01*
X153694335Y-133000099D01*
X153664490Y-132996170D01*
X153664489Y-132996170D01*
X153656300Y-132995092D01*
X153648111Y-132996170D01*
X153626446Y-132999022D01*
X153610001Y-133000100D01*
X152874741Y-133000100D01*
X152806620Y-132980098D01*
X152785646Y-132963195D01*
X149109529Y-129287078D01*
X149075503Y-129224766D01*
X149080568Y-129153951D01*
X149104989Y-129113672D01*
X149122622Y-129094089D01*
X149183068Y-129056850D01*
X149216257Y-129052400D01*
X151826230Y-129052400D01*
X151894351Y-129072402D01*
X151940844Y-129126058D01*
X151950948Y-129196332D01*
X151921454Y-129260912D01*
X151887421Y-129288544D01*
X151859269Y-129304184D01*
X151666245Y-129411419D01*
X151666239Y-129411423D01*
X151663400Y-129413000D01*
X151660730Y-129414869D01*
X151421138Y-129582583D01*
X151421137Y-129582584D01*
X151409400Y-129590800D01*
X151282400Y-129819400D01*
X151280674Y-129830333D01*
X151280673Y-129830335D01*
X151213024Y-130258782D01*
X151206200Y-130302000D01*
X151240314Y-130421400D01*
X151299045Y-130626956D01*
X151307800Y-130657600D01*
X151313224Y-130665736D01*
X151500830Y-130947146D01*
X151500831Y-130947147D01*
X151511000Y-130962400D01*
X151527851Y-130969622D01*
X151573874Y-130989346D01*
X151866600Y-131114800D01*
X151866600Y-131073777D01*
X151886602Y-131005656D01*
X151940258Y-130959163D01*
X152010532Y-130949059D01*
X152022531Y-130951384D01*
X152062706Y-130961215D01*
X152068306Y-130961562D01*
X152068310Y-130961563D01*
X152071809Y-130961780D01*
X152071818Y-130961780D01*
X152073748Y-130961900D01*
X152199922Y-130961900D01*
X152291469Y-130951227D01*
X152322656Y-130947591D01*
X152322658Y-130947591D01*
X152329928Y-130946743D01*
X152336808Y-130944246D01*
X152343935Y-130942561D01*
X152344652Y-130945593D01*
X152401554Y-130942036D01*
X152463558Y-130976619D01*
X152497022Y-131039235D01*
X152499579Y-131060244D01*
X152501600Y-131114800D01*
X152731902Y-130976619D01*
X152748972Y-130966377D01*
X152748973Y-130966376D01*
X152755600Y-130962400D01*
X152933400Y-130784600D01*
X153060400Y-130530600D01*
X153064186Y-130519244D01*
X153131577Y-130317069D01*
X153136600Y-130302000D01*
X153127048Y-130249461D01*
X153086855Y-130028403D01*
X153085800Y-130022600D01*
X152958800Y-129692400D01*
X152806400Y-129489200D01*
X152487802Y-129284387D01*
X152441318Y-129230726D01*
X152431224Y-129160451D01*
X152460726Y-129095874D01*
X152520458Y-129057499D01*
X152555939Y-129052400D01*
X155889002Y-129052400D01*
X155905447Y-129053478D01*
X155935300Y-129057408D01*
X155943489Y-129056330D01*
X155943490Y-129056330D01*
X155973335Y-129052401D01*
X155973345Y-129052400D01*
X155973347Y-129052400D01*
X156086841Y-129037458D01*
X156204593Y-128988684D01*
X156220426Y-128982126D01*
X156220428Y-128982125D01*
X156228054Y-128978966D01*
X156242589Y-128967813D01*
X156258841Y-128955343D01*
X156318856Y-128909292D01*
X156318874Y-128909277D01*
X156349317Y-128885917D01*
X156367657Y-128862016D01*
X156378518Y-128849633D01*
X159239446Y-125988705D01*
X159301758Y-125954679D01*
X159328541Y-125951800D01*
X162005702Y-125951800D01*
X162022147Y-125952878D01*
X162052000Y-125956808D01*
X162060189Y-125955730D01*
X162060190Y-125955730D01*
X162090035Y-125951801D01*
X162090045Y-125951800D01*
X162090047Y-125951800D01*
X162203541Y-125936858D01*
X162344754Y-125878366D01*
X162356903Y-125869044D01*
X162435572Y-125808679D01*
X162435574Y-125808677D01*
X162466017Y-125785317D01*
X162484360Y-125761413D01*
X162495218Y-125749033D01*
X163773677Y-124470574D01*
X165079245Y-123165005D01*
X165141557Y-123130980D01*
X165168340Y-123128100D01*
X165206146Y-123128100D01*
X165212599Y-123126728D01*
X165212603Y-123126728D01*
X165293288Y-123109578D01*
X165391303Y-123088744D01*
X165564230Y-123011751D01*
X165717371Y-122900488D01*
X165721786Y-122895585D01*
X165721789Y-122895582D01*
X165733747Y-122882301D01*
X165794192Y-122845060D01*
X165865176Y-122846411D01*
G37*
%TD.AperFunction*%
%TA.AperFunction,Conductor*%
G36*
X160709062Y-88943053D02*
G01*
X160764466Y-88987449D01*
X160787072Y-89054750D01*
X160769703Y-89123589D01*
X160750260Y-89148689D01*
X155170309Y-94728640D01*
X155107997Y-94762666D01*
X155068048Y-94764855D01*
X155066295Y-94764671D01*
X155059846Y-94763300D01*
X154968200Y-94763300D01*
X154900079Y-94743298D01*
X154853586Y-94689642D01*
X154842200Y-94637300D01*
X154842200Y-92603233D01*
X154862202Y-92535112D01*
X154874564Y-92518923D01*
X154989810Y-92390929D01*
X154989813Y-92390925D01*
X154994233Y-92386016D01*
X155065455Y-92262656D01*
X155085575Y-92227807D01*
X155085576Y-92227806D01*
X155088879Y-92222084D01*
X155147374Y-92042056D01*
X155150463Y-92012671D01*
X155166470Y-91860365D01*
X155167160Y-91853800D01*
X155160033Y-91785988D01*
X155148064Y-91672107D01*
X155148064Y-91672105D01*
X155147374Y-91665544D01*
X155088879Y-91485516D01*
X155027994Y-91380059D01*
X154997536Y-91327305D01*
X154994233Y-91321584D01*
X154989814Y-91316676D01*
X154871986Y-91185815D01*
X154871984Y-91185814D01*
X154867571Y-91180912D01*
X154783755Y-91120016D01*
X154719772Y-91073530D01*
X154719771Y-91073529D01*
X154714430Y-91069649D01*
X154541503Y-90992656D01*
X154443488Y-90971822D01*
X154362803Y-90954672D01*
X154362799Y-90954672D01*
X154356346Y-90953300D01*
X154167054Y-90953300D01*
X154160601Y-90954672D01*
X154160597Y-90954672D01*
X154079912Y-90971822D01*
X153981897Y-90992656D01*
X153808970Y-91069649D01*
X153803629Y-91073529D01*
X153803628Y-91073530D01*
X153739645Y-91120016D01*
X153655829Y-91180912D01*
X153651416Y-91185814D01*
X153651414Y-91185815D01*
X153533586Y-91316676D01*
X153529167Y-91321584D01*
X153525864Y-91327305D01*
X153495407Y-91380059D01*
X153434521Y-91485516D01*
X153376026Y-91665544D01*
X153375336Y-91672105D01*
X153375336Y-91672107D01*
X153363367Y-91785988D01*
X153356240Y-91853800D01*
X153356930Y-91860365D01*
X153372938Y-92012671D01*
X153376026Y-92042056D01*
X153434521Y-92222084D01*
X153437824Y-92227806D01*
X153437825Y-92227807D01*
X153457945Y-92262656D01*
X153529167Y-92386016D01*
X153533587Y-92390925D01*
X153533590Y-92390929D01*
X153648836Y-92518923D01*
X153679554Y-92582930D01*
X153681200Y-92603233D01*
X153681200Y-95900602D01*
X153680122Y-95917047D01*
X153676192Y-95946900D01*
X153681200Y-95984941D01*
X153681200Y-95984947D01*
X153689626Y-96048945D01*
X153696142Y-96098441D01*
X153699301Y-96106068D01*
X153699302Y-96106071D01*
X153715183Y-96144411D01*
X153754634Y-96239654D01*
X153824321Y-96330472D01*
X153824323Y-96330474D01*
X153847683Y-96360917D01*
X153871584Y-96379257D01*
X153883967Y-96390118D01*
X154599324Y-97105475D01*
X154633350Y-97167787D01*
X154628285Y-97238602D01*
X154585738Y-97295438D01*
X154519218Y-97320249D01*
X154467263Y-97311829D01*
X154467228Y-97311961D01*
X154467112Y-97311930D01*
X154466811Y-97311756D01*
X154462009Y-97310978D01*
X154451539Y-97306641D01*
X154452774Y-97303658D01*
X154410548Y-97279297D01*
X151237918Y-94106667D01*
X151227057Y-94094284D01*
X151208717Y-94070383D01*
X151178274Y-94047023D01*
X151178272Y-94047021D01*
X151087454Y-93977334D01*
X151016847Y-93948088D01*
X150953871Y-93922002D01*
X150953868Y-93922001D01*
X150946241Y-93918842D01*
X150941577Y-93918228D01*
X150832747Y-93903900D01*
X150832744Y-93903900D01*
X150832735Y-93903899D01*
X150802890Y-93899970D01*
X150802889Y-93899970D01*
X150794700Y-93898892D01*
X150786511Y-93899970D01*
X150764846Y-93902822D01*
X150748401Y-93903900D01*
X150333798Y-93903900D01*
X150317352Y-93902822D01*
X150287500Y-93898892D01*
X150279311Y-93899970D01*
X150279310Y-93899970D01*
X150249464Y-93903899D01*
X150249455Y-93903900D01*
X150249453Y-93903900D01*
X150249447Y-93903901D01*
X150249445Y-93903901D01*
X150152698Y-93916638D01*
X150144145Y-93917764D01*
X150144144Y-93917764D01*
X150135958Y-93918842D01*
X150128333Y-93922001D01*
X150128331Y-93922001D01*
X150102874Y-93932546D01*
X150002372Y-93974175D01*
X150002371Y-93974176D01*
X149994746Y-93977334D01*
X149948138Y-94013098D01*
X149903928Y-94047021D01*
X149903926Y-94047023D01*
X149873483Y-94070383D01*
X149855143Y-94094284D01*
X149844282Y-94106667D01*
X149463067Y-94487882D01*
X149450684Y-94498743D01*
X149426783Y-94517083D01*
X149403423Y-94547526D01*
X149403421Y-94547528D01*
X149351129Y-94615677D01*
X149333734Y-94638346D01*
X149330575Y-94645972D01*
X149330574Y-94645974D01*
X149303045Y-94712436D01*
X149275242Y-94779559D01*
X149260300Y-94893053D01*
X149260300Y-94893059D01*
X149255292Y-94931100D01*
X149256370Y-94939289D01*
X149259222Y-94960954D01*
X149260300Y-94977399D01*
X149260300Y-95142495D01*
X149240298Y-95210616D01*
X149186642Y-95257109D01*
X149116368Y-95267213D01*
X149103604Y-95264699D01*
X149007444Y-95240545D01*
X148992474Y-95238654D01*
X148848410Y-95237900D01*
X148833434Y-95239632D01*
X148800021Y-95247654D01*
X148729113Y-95244107D01*
X148671379Y-95202787D01*
X148645149Y-95136813D01*
X148645864Y-95107382D01*
X148661607Y-94996763D01*
X148662231Y-94988558D01*
X148662290Y-94982921D01*
X148661838Y-94974706D01*
X148644112Y-94828232D01*
X148640516Y-94813589D01*
X148589589Y-94678814D01*
X148582606Y-94665457D01*
X148569392Y-94646231D01*
X148559138Y-94637888D01*
X148545399Y-94645033D01*
X148224444Y-94965988D01*
X148216830Y-94979932D01*
X148216961Y-94981765D01*
X148221212Y-94988380D01*
X148559694Y-95326862D01*
X148559010Y-95327546D01*
X148569287Y-95335927D01*
X148572197Y-95339365D01*
X149040037Y-95807205D01*
X149074063Y-95869517D01*
X149068998Y-95940332D01*
X149040037Y-95985395D01*
X148569201Y-96456231D01*
X148566924Y-96453954D01*
X148556752Y-96463922D01*
X148559131Y-96466301D01*
X148224444Y-96800988D01*
X148216830Y-96814932D01*
X148216961Y-96816765D01*
X148221212Y-96823380D01*
X148559694Y-97161862D01*
X148559010Y-97162546D01*
X148569287Y-97170927D01*
X148572197Y-97174365D01*
X149040037Y-97642205D01*
X149074063Y-97704517D01*
X149068998Y-97775332D01*
X149040037Y-97820395D01*
X148569201Y-98291231D01*
X148566924Y-98288954D01*
X148556752Y-98298922D01*
X148559131Y-98301301D01*
X148224444Y-98635988D01*
X148216830Y-98649932D01*
X148216961Y-98651765D01*
X148221212Y-98658380D01*
X148546882Y-98984050D01*
X148558892Y-98990608D01*
X148570633Y-98981638D01*
X148575913Y-98974290D01*
X148583178Y-98961075D01*
X148636913Y-98827407D01*
X148640819Y-98812828D01*
X148661607Y-98666762D01*
X148662231Y-98658558D01*
X148662290Y-98652921D01*
X148661838Y-98644706D01*
X148646611Y-98518882D01*
X148658284Y-98448852D01*
X148705965Y-98396250D01*
X148774516Y-98377777D01*
X148803669Y-98381869D01*
X148819688Y-98386071D01*
X148834644Y-98388119D01*
X148978687Y-98390383D01*
X148993691Y-98388806D01*
X149106171Y-98363045D01*
X149177038Y-98367335D01*
X149234336Y-98409257D01*
X149259873Y-98475501D01*
X149260300Y-98485865D01*
X149260300Y-102403367D01*
X149240298Y-102471488D01*
X149227936Y-102487677D01*
X149112690Y-102615671D01*
X149112687Y-102615675D01*
X149108267Y-102620584D01*
X149104964Y-102626305D01*
X149018067Y-102776816D01*
X149013621Y-102784516D01*
X148955126Y-102964544D01*
X148954436Y-102971105D01*
X148954436Y-102971107D01*
X148943984Y-103070554D01*
X148935340Y-103152800D01*
X148936030Y-103159365D01*
X148952882Y-103319702D01*
X148955126Y-103341056D01*
X149013621Y-103521084D01*
X149016924Y-103526806D01*
X149016925Y-103526807D01*
X149057199Y-103596564D01*
X149108267Y-103685016D01*
X149112685Y-103689923D01*
X149112686Y-103689924D01*
X149219980Y-103809085D01*
X149234929Y-103825688D01*
X149240268Y-103829567D01*
X149366625Y-103921370D01*
X149388070Y-103936951D01*
X149560997Y-104013944D01*
X149659012Y-104034778D01*
X149739697Y-104051928D01*
X149739701Y-104051928D01*
X149746154Y-104053300D01*
X149935446Y-104053300D01*
X149941899Y-104051928D01*
X149941903Y-104051928D01*
X150022588Y-104034778D01*
X150120603Y-104013944D01*
X150293530Y-103936951D01*
X150314976Y-103921370D01*
X150441332Y-103829567D01*
X150446671Y-103825688D01*
X150461621Y-103809085D01*
X150568914Y-103689924D01*
X150568915Y-103689923D01*
X150573333Y-103685016D01*
X150624401Y-103596564D01*
X150664675Y-103526807D01*
X150664676Y-103526806D01*
X150667979Y-103521084D01*
X150726474Y-103341056D01*
X150728719Y-103319702D01*
X150745570Y-103159365D01*
X150746260Y-103152800D01*
X150737616Y-103070554D01*
X150727164Y-102971107D01*
X150727164Y-102971105D01*
X150726474Y-102964544D01*
X150667979Y-102784516D01*
X150663534Y-102776816D01*
X150576636Y-102626305D01*
X150573333Y-102620584D01*
X150568913Y-102615675D01*
X150568910Y-102615671D01*
X150453664Y-102487677D01*
X150422946Y-102423670D01*
X150421300Y-102403367D01*
X150421300Y-96437741D01*
X150441302Y-96369620D01*
X150494958Y-96323127D01*
X150565232Y-96313023D01*
X150629812Y-96342517D01*
X150636395Y-96348646D01*
X152720495Y-98432746D01*
X152754521Y-98495058D01*
X152757400Y-98521841D01*
X152757400Y-98787902D01*
X152756322Y-98804347D01*
X152752392Y-98834200D01*
X152753470Y-98842389D01*
X152756613Y-98866261D01*
X152757400Y-98872241D01*
X152757400Y-98872247D01*
X152767362Y-98947906D01*
X152768305Y-98955071D01*
X152768305Y-98955074D01*
X152770835Y-98974290D01*
X152772342Y-98985741D01*
X152830834Y-99126954D01*
X152900521Y-99217772D01*
X152900523Y-99217774D01*
X152923883Y-99248217D01*
X152947784Y-99266557D01*
X152960167Y-99277418D01*
X153293282Y-99610533D01*
X153304143Y-99622916D01*
X153322483Y-99646817D01*
X153352926Y-99670177D01*
X153352928Y-99670179D01*
X153443746Y-99739866D01*
X153584959Y-99798358D01*
X153736500Y-99818309D01*
X153766361Y-99814378D01*
X153782806Y-99813300D01*
X154048951Y-99813300D01*
X154117072Y-99833302D01*
X154138048Y-99850206D01*
X157309884Y-103022122D01*
X157343908Y-103084434D01*
X157346097Y-103124384D01*
X157344340Y-103141100D01*
X157364126Y-103329356D01*
X157422621Y-103509384D01*
X157425924Y-103515106D01*
X157425925Y-103515107D01*
X157470365Y-103592080D01*
X157517267Y-103673316D01*
X157521685Y-103678223D01*
X157521686Y-103678224D01*
X157597435Y-103762351D01*
X157643929Y-103813988D01*
X157649268Y-103817867D01*
X157764878Y-103901862D01*
X157797070Y-103925251D01*
X157969997Y-104002244D01*
X158055495Y-104020417D01*
X158148697Y-104040228D01*
X158148701Y-104040228D01*
X158155154Y-104041600D01*
X158344446Y-104041600D01*
X158350899Y-104040228D01*
X158350903Y-104040228D01*
X158444105Y-104020417D01*
X158529603Y-104002244D01*
X158702530Y-103925251D01*
X158734723Y-103901862D01*
X158850332Y-103817867D01*
X158855671Y-103813988D01*
X158902166Y-103762351D01*
X158977914Y-103678224D01*
X158977915Y-103678223D01*
X158982333Y-103673316D01*
X159029235Y-103592080D01*
X159073675Y-103515107D01*
X159073676Y-103515106D01*
X159076979Y-103509384D01*
X159135474Y-103329356D01*
X159155260Y-103141100D01*
X159153504Y-103124388D01*
X159136164Y-102959407D01*
X159136164Y-102959405D01*
X159135474Y-102952844D01*
X159076979Y-102772816D01*
X158982333Y-102608884D01*
X158977913Y-102603975D01*
X158977910Y-102603971D01*
X158908761Y-102527173D01*
X158878043Y-102463166D01*
X158886808Y-102392712D01*
X158925693Y-102342901D01*
X158982672Y-102299179D01*
X158982674Y-102299177D01*
X159006567Y-102280843D01*
X159013117Y-102275817D01*
X159031457Y-102251916D01*
X159042318Y-102239533D01*
X164913405Y-96368446D01*
X164975717Y-96334420D01*
X165046532Y-96339485D01*
X165103368Y-96382032D01*
X165128179Y-96448552D01*
X165128500Y-96457541D01*
X165128500Y-97105739D01*
X165128493Y-97107050D01*
X165127829Y-97170927D01*
X165127565Y-97196264D01*
X165128269Y-97199517D01*
X165128500Y-97204082D01*
X165128500Y-97274955D01*
X165143454Y-97408272D01*
X165145771Y-97414925D01*
X165145771Y-97414926D01*
X165160267Y-97456554D01*
X165202515Y-97577873D01*
X165297684Y-97730175D01*
X165335370Y-97768125D01*
X165419267Y-97852610D01*
X165419271Y-97852613D01*
X165424230Y-97857607D01*
X165430176Y-97861381D01*
X165430178Y-97861382D01*
X165474191Y-97889313D01*
X165575864Y-97953837D01*
X165582507Y-97956202D01*
X165582506Y-97956202D01*
X165642514Y-97977570D01*
X165689336Y-98007167D01*
X166254334Y-98572084D01*
X168290952Y-100608411D01*
X168324982Y-100670721D01*
X168319922Y-100741537D01*
X168277379Y-100798376D01*
X168210861Y-100823191D01*
X168182153Y-100821962D01*
X167904374Y-100777967D01*
X167897833Y-100777280D01*
X167516301Y-100757284D01*
X167509699Y-100757284D01*
X167128167Y-100777280D01*
X167121629Y-100777966D01*
X166744266Y-100837735D01*
X166737816Y-100839106D01*
X166368784Y-100937988D01*
X166362502Y-100940029D01*
X166005836Y-101076940D01*
X165999811Y-101079622D01*
X165659397Y-101253072D01*
X165653687Y-101256369D01*
X165333265Y-101464453D01*
X165327939Y-101468323D01*
X165089165Y-101661678D01*
X165080700Y-101673933D01*
X165087034Y-101685024D01*
X170297310Y-106895300D01*
X170311254Y-106902914D01*
X170324847Y-106901942D01*
X170364905Y-106887864D01*
X170433979Y-106904273D01*
X170483217Y-106955422D01*
X170497500Y-107013691D01*
X170497500Y-111618800D01*
X170477498Y-111686921D01*
X170423842Y-111733414D01*
X170371500Y-111744800D01*
X162931383Y-111744800D01*
X162930063Y-111744793D01*
X162928725Y-111744779D01*
X162840893Y-111743859D01*
X162799004Y-111752916D01*
X162786430Y-111754975D01*
X162771823Y-111756614D01*
X162750824Y-111758969D01*
X162750822Y-111758970D01*
X162743828Y-111759754D01*
X162712541Y-111770650D01*
X162697736Y-111774811D01*
X162672244Y-111780322D01*
X162672242Y-111780323D01*
X162665358Y-111781811D01*
X162658976Y-111784787D01*
X162658970Y-111784789D01*
X162626519Y-111799921D01*
X162614708Y-111804717D01*
X162580880Y-111816497D01*
X162580871Y-111816501D01*
X162574227Y-111818815D01*
X162546124Y-111836375D01*
X162532623Y-111843706D01*
X162502592Y-111857710D01*
X162486684Y-111870050D01*
X162468729Y-111883977D01*
X162458273Y-111891271D01*
X162427899Y-111910251D01*
X162421925Y-111913984D01*
X162416928Y-111918946D01*
X162416927Y-111918947D01*
X162393407Y-111942303D01*
X162392785Y-111942885D01*
X162392123Y-111943399D01*
X162366263Y-111969259D01*
X162294493Y-112040530D01*
X162293841Y-112041557D01*
X162292757Y-112042765D01*
X162142227Y-112193295D01*
X162079915Y-112227321D01*
X162053132Y-112230200D01*
X143049468Y-112230200D01*
X142981347Y-112210198D01*
X142934854Y-112156542D01*
X142924750Y-112086268D01*
X142929633Y-112065271D01*
X142946274Y-112014056D01*
X142950020Y-111978420D01*
X142965370Y-111832365D01*
X142966060Y-111825800D01*
X142959362Y-111762069D01*
X142946964Y-111644107D01*
X142946964Y-111644105D01*
X142946274Y-111637544D01*
X142887779Y-111457516D01*
X142882528Y-111448420D01*
X142796436Y-111299305D01*
X142793133Y-111293584D01*
X142788713Y-111288675D01*
X142788710Y-111288671D01*
X142673464Y-111160677D01*
X142642746Y-111096670D01*
X142641100Y-111076367D01*
X142641100Y-110698941D01*
X142661102Y-110630820D01*
X142678005Y-110609846D01*
X143549246Y-109738605D01*
X143611558Y-109704579D01*
X143638341Y-109701700D01*
X143760346Y-109701700D01*
X143766799Y-109700328D01*
X143766803Y-109700328D01*
X143847488Y-109683178D01*
X143945503Y-109662344D01*
X144118430Y-109585351D01*
X144159902Y-109555220D01*
X144266227Y-109477971D01*
X144266229Y-109477969D01*
X144271571Y-109474088D01*
X144272278Y-109475061D01*
X144330247Y-109447237D01*
X144386283Y-109451512D01*
X144386297Y-109451444D01*
X144392747Y-109452815D01*
X144392750Y-109452816D01*
X144564997Y-109489428D01*
X144565001Y-109489428D01*
X144571454Y-109490800D01*
X144760746Y-109490800D01*
X144767199Y-109489428D01*
X144767203Y-109489428D01*
X144859873Y-109469730D01*
X144945903Y-109451444D01*
X145118830Y-109374451D01*
X145151284Y-109350872D01*
X145266627Y-109267071D01*
X145266629Y-109267069D01*
X145271971Y-109263188D01*
X145279447Y-109254885D01*
X145281853Y-109252213D01*
X145342300Y-109214976D01*
X145413284Y-109216330D01*
X145464581Y-109247432D01*
X146467982Y-110250833D01*
X146478843Y-110263216D01*
X146497183Y-110287117D01*
X146527626Y-110310477D01*
X146527628Y-110310479D01*
X146618446Y-110380166D01*
X146759659Y-110438658D01*
X146911200Y-110458609D01*
X146919397Y-110457530D01*
X146941060Y-110454678D01*
X146957506Y-110453600D01*
X157593202Y-110453600D01*
X157609647Y-110454678D01*
X157639500Y-110458608D01*
X157647689Y-110457530D01*
X157647690Y-110457530D01*
X157677535Y-110453601D01*
X157677545Y-110453600D01*
X157677547Y-110453600D01*
X157791041Y-110438658D01*
X157932254Y-110380166D01*
X158023072Y-110310479D01*
X158023074Y-110310477D01*
X158053517Y-110287117D01*
X158071857Y-110263216D01*
X158082718Y-110250833D01*
X161065965Y-107267586D01*
X165080759Y-107267586D01*
X165088216Y-107277953D01*
X165327935Y-107472074D01*
X165333272Y-107475951D01*
X165653685Y-107684030D01*
X165659394Y-107687327D01*
X165999811Y-107860778D01*
X166005836Y-107863460D01*
X166362502Y-108000371D01*
X166368784Y-108002412D01*
X166737816Y-108101294D01*
X166744266Y-108102665D01*
X167121629Y-108162434D01*
X167128167Y-108163120D01*
X167509699Y-108183116D01*
X167516301Y-108183116D01*
X167897833Y-108163120D01*
X167904371Y-108162434D01*
X168281734Y-108102665D01*
X168288184Y-108101294D01*
X168657216Y-108002412D01*
X168663498Y-108000371D01*
X169020164Y-107863460D01*
X169026189Y-107860778D01*
X169366606Y-107687327D01*
X169372315Y-107684030D01*
X169692728Y-107475951D01*
X169698065Y-107472074D01*
X169936835Y-107278722D01*
X169945300Y-107266467D01*
X169938966Y-107255376D01*
X167525812Y-104842222D01*
X167511868Y-104834608D01*
X167510035Y-104834739D01*
X167503420Y-104838990D01*
X165087900Y-107254510D01*
X165080759Y-107267586D01*
X161065965Y-107267586D01*
X161619146Y-106714405D01*
X161681458Y-106680379D01*
X161708241Y-106677500D01*
X161830246Y-106677500D01*
X161836699Y-106676128D01*
X161836703Y-106676128D01*
X161934873Y-106655261D01*
X162015403Y-106638144D01*
X162188330Y-106561151D01*
X162201120Y-106551859D01*
X162336132Y-106453767D01*
X162341471Y-106449888D01*
X162346693Y-106444089D01*
X162463714Y-106314124D01*
X162463715Y-106314123D01*
X162468133Y-106309216D01*
X162562779Y-106145284D01*
X162621274Y-105965256D01*
X162625092Y-105928935D01*
X162640370Y-105783565D01*
X162641060Y-105777000D01*
X162626040Y-105634091D01*
X162621964Y-105595307D01*
X162621964Y-105595305D01*
X162621274Y-105588744D01*
X162562779Y-105408716D01*
X162536188Y-105362658D01*
X162471436Y-105250505D01*
X162468133Y-105244784D01*
X162459862Y-105235598D01*
X162345886Y-105109015D01*
X162345884Y-105109014D01*
X162341471Y-105104112D01*
X162188330Y-104992849D01*
X162015403Y-104915856D01*
X161917388Y-104895022D01*
X161836703Y-104877872D01*
X161836699Y-104877872D01*
X161830246Y-104876500D01*
X161640954Y-104876500D01*
X161634501Y-104877872D01*
X161634497Y-104877872D01*
X161553812Y-104895022D01*
X161455797Y-104915856D01*
X161282870Y-104992849D01*
X161129729Y-105104112D01*
X161125316Y-105109014D01*
X161125314Y-105109015D01*
X161011338Y-105235598D01*
X161003067Y-105244784D01*
X160999764Y-105250505D01*
X160935013Y-105362658D01*
X160908421Y-105408716D01*
X160849926Y-105588744D01*
X160849236Y-105595305D01*
X160849236Y-105595307D01*
X160845160Y-105634091D01*
X160830140Y-105777000D01*
X160830830Y-105783565D01*
X160830830Y-105783571D01*
X160831895Y-105793708D01*
X160819121Y-105863546D01*
X160795680Y-105895969D01*
X157435954Y-109255695D01*
X157373642Y-109289721D01*
X157346859Y-109292600D01*
X156232241Y-109292600D01*
X156164120Y-109272598D01*
X156117627Y-109218942D01*
X156107523Y-109148668D01*
X156137017Y-109084088D01*
X156143146Y-109077505D01*
X157562333Y-107658318D01*
X157574716Y-107647457D01*
X157598617Y-107629117D01*
X157621977Y-107598674D01*
X157621979Y-107598672D01*
X157691666Y-107507854D01*
X157720912Y-107437248D01*
X157746998Y-107374271D01*
X157746999Y-107374268D01*
X157750158Y-107366641D01*
X157759087Y-107298816D01*
X157761288Y-107282101D01*
X157765100Y-107253148D01*
X157765100Y-107253147D01*
X157769031Y-107223288D01*
X157770109Y-107215100D01*
X157766178Y-107185239D01*
X157765100Y-107168794D01*
X157765100Y-106636198D01*
X157766178Y-106619752D01*
X157766714Y-106615682D01*
X157770108Y-106589900D01*
X157765100Y-106551859D01*
X157765100Y-106551853D01*
X157750158Y-106438359D01*
X157747359Y-106431600D01*
X157725930Y-106379866D01*
X157691666Y-106297146D01*
X157598617Y-106175883D01*
X157574717Y-106157544D01*
X157562332Y-106146682D01*
X156819614Y-105403963D01*
X156808752Y-105391577D01*
X156790417Y-105367683D01*
X156759974Y-105344323D01*
X156759972Y-105344321D01*
X156669154Y-105274634D01*
X156527941Y-105216142D01*
X156527933Y-105216141D01*
X156414447Y-105201200D01*
X156414444Y-105201200D01*
X156414435Y-105201199D01*
X156384590Y-105197270D01*
X156384589Y-105197270D01*
X156376400Y-105196192D01*
X156368211Y-105197270D01*
X156346546Y-105200122D01*
X156330101Y-105201200D01*
X138018498Y-105201200D01*
X138002052Y-105200122D01*
X137983814Y-105197721D01*
X137972200Y-105196192D01*
X137964011Y-105197270D01*
X137964010Y-105197270D01*
X137934164Y-105201199D01*
X137934155Y-105201200D01*
X137934153Y-105201200D01*
X137837398Y-105213938D01*
X137820658Y-105216142D01*
X137779298Y-105233274D01*
X137679446Y-105274634D01*
X137628327Y-105313859D01*
X137588628Y-105344321D01*
X137588626Y-105344323D01*
X137558183Y-105367683D01*
X137539843Y-105391584D01*
X137528982Y-105403967D01*
X135485833Y-107447116D01*
X135423521Y-107481142D01*
X135352706Y-107476077D01*
X135295870Y-107433530D01*
X135287619Y-107421021D01*
X135245636Y-107348305D01*
X135242333Y-107342584D01*
X135187873Y-107282100D01*
X135120086Y-107206815D01*
X135120084Y-107206814D01*
X135115671Y-107201912D01*
X134962530Y-107090649D01*
X134789603Y-107013656D01*
X134691588Y-106992822D01*
X134610903Y-106975672D01*
X134610899Y-106975672D01*
X134604446Y-106974300D01*
X134415154Y-106974300D01*
X134408701Y-106975672D01*
X134408697Y-106975672D01*
X134328012Y-106992822D01*
X134229997Y-107013656D01*
X134057070Y-107090649D01*
X133903929Y-107201912D01*
X133899516Y-107206814D01*
X133899514Y-107206815D01*
X133831727Y-107282100D01*
X133777267Y-107342584D01*
X133773964Y-107348305D01*
X133693788Y-107487175D01*
X133682621Y-107506516D01*
X133624126Y-107686544D01*
X133604340Y-107874800D01*
X133624126Y-108063056D01*
X133682621Y-108243084D01*
X133777267Y-108407016D01*
X133781687Y-108411925D01*
X133781690Y-108411929D01*
X133896936Y-108539923D01*
X133927654Y-108603930D01*
X133929300Y-108624233D01*
X133929300Y-109453284D01*
X133909298Y-109521405D01*
X133855642Y-109567898D01*
X133785368Y-109578002D01*
X133729239Y-109555220D01*
X133611572Y-109469730D01*
X133611571Y-109469729D01*
X133606230Y-109465849D01*
X133433303Y-109388856D01*
X133335288Y-109368022D01*
X133254603Y-109350872D01*
X133254599Y-109350872D01*
X133248146Y-109349500D01*
X133058854Y-109349500D01*
X133052401Y-109350872D01*
X133052397Y-109350872D01*
X132971712Y-109368022D01*
X132873697Y-109388856D01*
X132700770Y-109465849D01*
X132695429Y-109469729D01*
X132695428Y-109469730D01*
X132684110Y-109477953D01*
X132547629Y-109577112D01*
X132543216Y-109582014D01*
X132543214Y-109582015D01*
X132469649Y-109663717D01*
X132420967Y-109717784D01*
X132326321Y-109881716D01*
X132267826Y-110061744D01*
X132267136Y-110068305D01*
X132267136Y-110068307D01*
X132261425Y-110122648D01*
X132248040Y-110250000D01*
X132248730Y-110256565D01*
X132261721Y-110380166D01*
X132267826Y-110438256D01*
X132326321Y-110618284D01*
X132329624Y-110624006D01*
X132329625Y-110624007D01*
X132342756Y-110646751D01*
X132420967Y-110782216D01*
X132425385Y-110787123D01*
X132425386Y-110787124D01*
X132536336Y-110910346D01*
X132567053Y-110974354D01*
X132568700Y-110994657D01*
X132568700Y-125780402D01*
X132567622Y-125796847D01*
X132563692Y-125826700D01*
X132564770Y-125834889D01*
X132568700Y-125864741D01*
X132568700Y-125864747D01*
X132580161Y-125951799D01*
X132582605Y-125970366D01*
X132583642Y-125978241D01*
X132642134Y-126119454D01*
X132711821Y-126210272D01*
X132711823Y-126210274D01*
X132735183Y-126240717D01*
X132759084Y-126259057D01*
X132771467Y-126269918D01*
X136457454Y-129955905D01*
X136491480Y-130018217D01*
X136486415Y-130089032D01*
X136443868Y-130145868D01*
X136377348Y-130170679D01*
X136368359Y-130171000D01*
X133839798Y-130171000D01*
X133823352Y-130169922D01*
X133793500Y-130165992D01*
X133785311Y-130167070D01*
X133785310Y-130167070D01*
X133755465Y-130170999D01*
X133755456Y-130171000D01*
X133755453Y-130171000D01*
X133641967Y-130185941D01*
X133641959Y-130185942D01*
X133500746Y-130244434D01*
X133409928Y-130314121D01*
X133409926Y-130314123D01*
X133379483Y-130337483D01*
X133361143Y-130361384D01*
X133350282Y-130373767D01*
X132344454Y-131379595D01*
X132282142Y-131413621D01*
X132255359Y-131416500D01*
X131840841Y-131416500D01*
X131772720Y-131396498D01*
X131751746Y-131379595D01*
X131482605Y-131110454D01*
X131448579Y-131048142D01*
X131445700Y-131021359D01*
X131445700Y-104473501D01*
X163800084Y-104473501D01*
X163820080Y-104855033D01*
X163820766Y-104861571D01*
X163880535Y-105238934D01*
X163881906Y-105245384D01*
X163980788Y-105614416D01*
X163982829Y-105620698D01*
X164119740Y-105977364D01*
X164122422Y-105983389D01*
X164295872Y-106323803D01*
X164299169Y-106329513D01*
X164507253Y-106649935D01*
X164511123Y-106655261D01*
X164704478Y-106894035D01*
X164716733Y-106902500D01*
X164727824Y-106896166D01*
X167140978Y-104483012D01*
X167148592Y-104469068D01*
X167148461Y-104467235D01*
X167144210Y-104460620D01*
X164728690Y-102045100D01*
X164715614Y-102037959D01*
X164705247Y-102045416D01*
X164511123Y-102285139D01*
X164507253Y-102290465D01*
X164299169Y-102610887D01*
X164295872Y-102616597D01*
X164122422Y-102957011D01*
X164119740Y-102963036D01*
X163982829Y-103319702D01*
X163980788Y-103325984D01*
X163881906Y-103695016D01*
X163880535Y-103701466D01*
X163820766Y-104078829D01*
X163820080Y-104085367D01*
X163800084Y-104466899D01*
X163800084Y-104473501D01*
X131445700Y-104473501D01*
X131445700Y-95762141D01*
X131465702Y-95694020D01*
X131482605Y-95673046D01*
X131640246Y-95515405D01*
X131702558Y-95481379D01*
X131729341Y-95478500D01*
X132066159Y-95478500D01*
X132134280Y-95498502D01*
X132155254Y-95515405D01*
X136422182Y-99782333D01*
X136433043Y-99794716D01*
X136451383Y-99818617D01*
X136481826Y-99841977D01*
X136481828Y-99841979D01*
X136572646Y-99911666D01*
X136713859Y-99970158D01*
X136865400Y-99990109D01*
X136895261Y-99986178D01*
X136911706Y-99985100D01*
X136981659Y-99985100D01*
X137049780Y-100005102D01*
X137096273Y-100058758D01*
X137106377Y-100129032D01*
X137076883Y-100193612D01*
X137070754Y-100200195D01*
X135051254Y-102219695D01*
X134988942Y-102253721D01*
X134962159Y-102256600D01*
X134840154Y-102256600D01*
X134833701Y-102257972D01*
X134833697Y-102257972D01*
X134753012Y-102275122D01*
X134654997Y-102295956D01*
X134482070Y-102372949D01*
X134476729Y-102376829D01*
X134476728Y-102376830D01*
X134454868Y-102392712D01*
X134328929Y-102484212D01*
X134324516Y-102489114D01*
X134324514Y-102489115D01*
X134206686Y-102619976D01*
X134202267Y-102624884D01*
X134198964Y-102630605D01*
X134116859Y-102772816D01*
X134107621Y-102788816D01*
X134049126Y-102968844D01*
X134029340Y-103157100D01*
X134049126Y-103345356D01*
X134107621Y-103525384D01*
X134202267Y-103689316D01*
X134206685Y-103694223D01*
X134206686Y-103694224D01*
X134321617Y-103821867D01*
X134328929Y-103829988D01*
X134334268Y-103833867D01*
X134476152Y-103936951D01*
X134482070Y-103941251D01*
X134654997Y-104018244D01*
X134753012Y-104039078D01*
X134833697Y-104056228D01*
X134833701Y-104056228D01*
X134840154Y-104057600D01*
X135029446Y-104057600D01*
X135035899Y-104056228D01*
X135035903Y-104056228D01*
X135116588Y-104039078D01*
X135214603Y-104018244D01*
X135387530Y-103941251D01*
X135393449Y-103936951D01*
X135535332Y-103833867D01*
X135540671Y-103829988D01*
X135547984Y-103821867D01*
X135662914Y-103694224D01*
X135662915Y-103694223D01*
X135667333Y-103689316D01*
X135761979Y-103525384D01*
X135820474Y-103345356D01*
X135840260Y-103157100D01*
X135839570Y-103150535D01*
X135839570Y-103150529D01*
X135838505Y-103140392D01*
X135851279Y-103070554D01*
X135874720Y-103038131D01*
X140490033Y-98422818D01*
X140502416Y-98411957D01*
X140526317Y-98393617D01*
X140549677Y-98363174D01*
X140549679Y-98363172D01*
X140606237Y-98289464D01*
X140663575Y-98247597D01*
X140734446Y-98243375D01*
X140796349Y-98278139D01*
X140829630Y-98340852D01*
X140832200Y-98366168D01*
X140832200Y-99054959D01*
X140812198Y-99123080D01*
X140795295Y-99144054D01*
X137718854Y-102220495D01*
X137656542Y-102254521D01*
X137629759Y-102257400D01*
X137507754Y-102257400D01*
X137501301Y-102258772D01*
X137501297Y-102258772D01*
X137421108Y-102275817D01*
X137322597Y-102296756D01*
X137149670Y-102373749D01*
X137144329Y-102377629D01*
X137144328Y-102377630D01*
X137026598Y-102463166D01*
X136996529Y-102485012D01*
X136992116Y-102489914D01*
X136992114Y-102489915D01*
X136874459Y-102620584D01*
X136869867Y-102625684D01*
X136866564Y-102631405D01*
X136781470Y-102778793D01*
X136775221Y-102789616D01*
X136716726Y-102969644D01*
X136716036Y-102976205D01*
X136716036Y-102976207D01*
X136706120Y-103070554D01*
X136696940Y-103157900D01*
X136697630Y-103164465D01*
X136715381Y-103333356D01*
X136716726Y-103346156D01*
X136775221Y-103526184D01*
X136778524Y-103531906D01*
X136778525Y-103531907D01*
X136856865Y-103667595D01*
X136869867Y-103690116D01*
X136874285Y-103695023D01*
X136874286Y-103695024D01*
X136985004Y-103817988D01*
X136996529Y-103830788D01*
X137001868Y-103834667D01*
X137137309Y-103933070D01*
X137149670Y-103942051D01*
X137322597Y-104019044D01*
X137420612Y-104039878D01*
X137501297Y-104057028D01*
X137501301Y-104057028D01*
X137507754Y-104058400D01*
X137697046Y-104058400D01*
X137703499Y-104057028D01*
X137703503Y-104057028D01*
X137784188Y-104039878D01*
X137882203Y-104019044D01*
X138055130Y-103942051D01*
X138067492Y-103933070D01*
X138202932Y-103834667D01*
X138208271Y-103830788D01*
X138219797Y-103817988D01*
X138330514Y-103695024D01*
X138330515Y-103695023D01*
X138334933Y-103690116D01*
X138347935Y-103667595D01*
X138426275Y-103531907D01*
X138426276Y-103531906D01*
X138429579Y-103526184D01*
X138488074Y-103346156D01*
X138489420Y-103333356D01*
X138507170Y-103164465D01*
X138507860Y-103157900D01*
X138507170Y-103151335D01*
X138507170Y-103151329D01*
X138506105Y-103141192D01*
X138518879Y-103071354D01*
X138542320Y-103038931D01*
X140321902Y-101259349D01*
X140384214Y-101225323D01*
X140417828Y-101227727D01*
X140414048Y-101209072D01*
X140439806Y-101142913D01*
X140450491Y-101130760D01*
X141336005Y-100245246D01*
X141398317Y-100211220D01*
X141469132Y-100216285D01*
X141525968Y-100258832D01*
X141550779Y-100325352D01*
X141551100Y-100334341D01*
X141551100Y-100782759D01*
X141531098Y-100850880D01*
X141514195Y-100871854D01*
X141309654Y-101076395D01*
X141247342Y-101110421D01*
X141220559Y-101113300D01*
X141098554Y-101113300D01*
X141092101Y-101114672D01*
X141092097Y-101114672D01*
X141016410Y-101130760D01*
X140913397Y-101152656D01*
X140740470Y-101229649D01*
X140735129Y-101233529D01*
X140735128Y-101233530D01*
X140613647Y-101321791D01*
X140546779Y-101345650D01*
X140535880Y-101343115D01*
X140521585Y-101408829D01*
X140504633Y-101432755D01*
X140460667Y-101481584D01*
X140457364Y-101487305D01*
X140395591Y-101594300D01*
X140366021Y-101645516D01*
X140307526Y-101825544D01*
X140287740Y-102013800D01*
X140288430Y-102020365D01*
X140306617Y-102193404D01*
X140307526Y-102202056D01*
X140366021Y-102382084D01*
X140369324Y-102387806D01*
X140369325Y-102387807D01*
X140425446Y-102485012D01*
X140460667Y-102546016D01*
X140465085Y-102550923D01*
X140465086Y-102550924D01*
X140532960Y-102626305D01*
X140587329Y-102686688D01*
X140592668Y-102690567D01*
X140727897Y-102788816D01*
X140740470Y-102797951D01*
X140913397Y-102874944D01*
X141011412Y-102895778D01*
X141092097Y-102912928D01*
X141092101Y-102912928D01*
X141098554Y-102914300D01*
X141287846Y-102914300D01*
X141294299Y-102912928D01*
X141294303Y-102912928D01*
X141374988Y-102895778D01*
X141473003Y-102874944D01*
X141645930Y-102797951D01*
X141658504Y-102788816D01*
X141793732Y-102690567D01*
X141799071Y-102686688D01*
X141853441Y-102626305D01*
X141921314Y-102550924D01*
X141921315Y-102550923D01*
X141925733Y-102546016D01*
X141929033Y-102540300D01*
X141929036Y-102540296D01*
X141951509Y-102501371D01*
X141957212Y-102491494D01*
X142008593Y-102442501D01*
X142078307Y-102429064D01*
X142144218Y-102455451D01*
X142185400Y-102513283D01*
X142191640Y-102567664D01*
X142186497Y-102616597D01*
X142175640Y-102719900D01*
X142176330Y-102726465D01*
X142192080Y-102876317D01*
X142195426Y-102908156D01*
X142253921Y-103088184D01*
X142257224Y-103093906D01*
X142257225Y-103093907D01*
X142302062Y-103171567D01*
X142348567Y-103252116D01*
X142352985Y-103257023D01*
X142352986Y-103257024D01*
X142457541Y-103373143D01*
X142475229Y-103392788D01*
X142628370Y-103504051D01*
X142801297Y-103581044D01*
X142895720Y-103601114D01*
X142979997Y-103619028D01*
X142980001Y-103619028D01*
X142986454Y-103620400D01*
X143175746Y-103620400D01*
X143182199Y-103619028D01*
X143182203Y-103619028D01*
X143266480Y-103601114D01*
X143360903Y-103581044D01*
X143533830Y-103504051D01*
X143537684Y-103501251D01*
X143606020Y-103484676D01*
X143673111Y-103507900D01*
X143709137Y-103547533D01*
X143784067Y-103677316D01*
X143788485Y-103682223D01*
X143788486Y-103682224D01*
X143902713Y-103809085D01*
X143910729Y-103817988D01*
X143916068Y-103821867D01*
X144053023Y-103921370D01*
X144063870Y-103929251D01*
X144236797Y-104006244D01*
X144334812Y-104027078D01*
X144415497Y-104044228D01*
X144415501Y-104044228D01*
X144421954Y-104045600D01*
X144611246Y-104045600D01*
X144617699Y-104044228D01*
X144617703Y-104044228D01*
X144698388Y-104027078D01*
X144796403Y-104006244D01*
X144969330Y-103929251D01*
X144980178Y-103921370D01*
X145117132Y-103821867D01*
X145122471Y-103817988D01*
X145130488Y-103809085D01*
X145244714Y-103682224D01*
X145244715Y-103682223D01*
X145249133Y-103677316D01*
X145336851Y-103525384D01*
X145340475Y-103519107D01*
X145340479Y-103519099D01*
X145343779Y-103513384D01*
X145402274Y-103333356D01*
X145403385Y-103322792D01*
X145421370Y-103151665D01*
X145422060Y-103145100D01*
X145416446Y-103091681D01*
X145402964Y-102963407D01*
X145402964Y-102963405D01*
X145402274Y-102956844D01*
X145343779Y-102776816D01*
X145338166Y-102767093D01*
X145252436Y-102618605D01*
X145249133Y-102612884D01*
X145244713Y-102607975D01*
X145244710Y-102607971D01*
X145129464Y-102479977D01*
X145098746Y-102415970D01*
X145097100Y-102395667D01*
X145097100Y-99208299D01*
X145822753Y-99208299D01*
X145827442Y-99214563D01*
X145913818Y-99261462D01*
X145927844Y-99267015D01*
X146067193Y-99303572D01*
X146082144Y-99305619D01*
X146226187Y-99307883D01*
X146241191Y-99306306D01*
X146381625Y-99274142D01*
X146395810Y-99269035D01*
X146497254Y-99218014D01*
X146507560Y-99208383D01*
X146507532Y-99208299D01*
X147657753Y-99208299D01*
X147662442Y-99214563D01*
X147748818Y-99261462D01*
X147762844Y-99267015D01*
X147902193Y-99303572D01*
X147917144Y-99305619D01*
X148061187Y-99307883D01*
X148076191Y-99306306D01*
X148216625Y-99274142D01*
X148230810Y-99269035D01*
X148332254Y-99218014D01*
X148342560Y-99208383D01*
X148340348Y-99201780D01*
X148012312Y-98873744D01*
X147998368Y-98866130D01*
X147996535Y-98866261D01*
X147989920Y-98870512D01*
X147664513Y-99195919D01*
X147657753Y-99208299D01*
X146507532Y-99208299D01*
X146505348Y-99201780D01*
X146177312Y-98873744D01*
X146163368Y-98866130D01*
X146161535Y-98866261D01*
X146154920Y-98870512D01*
X145829513Y-99195919D01*
X145822753Y-99208299D01*
X145097100Y-99208299D01*
X145097100Y-98515053D01*
X145117102Y-98446932D01*
X145170758Y-98400439D01*
X145225079Y-98389069D01*
X145308687Y-98390383D01*
X145323691Y-98388806D01*
X145364874Y-98379374D01*
X145435741Y-98383664D01*
X145493039Y-98425586D01*
X145518576Y-98491831D01*
X145517925Y-98518640D01*
X145502694Y-98634328D01*
X145502537Y-98649409D01*
X145518346Y-98792605D01*
X145521792Y-98807294D01*
X145571299Y-98942583D01*
X145578149Y-98956026D01*
X145594970Y-98981059D01*
X145604954Y-98989358D01*
X145619045Y-98982123D01*
X145939556Y-98661612D01*
X145945934Y-98649932D01*
X146381830Y-98649932D01*
X146381961Y-98651765D01*
X146386212Y-98658380D01*
X146711882Y-98984050D01*
X146723892Y-98990608D01*
X146735633Y-98981638D01*
X146740913Y-98974290D01*
X146748178Y-98961075D01*
X146801913Y-98827407D01*
X146805819Y-98812828D01*
X146826607Y-98666762D01*
X146827231Y-98658558D01*
X146827290Y-98652921D01*
X146826838Y-98644706D01*
X146811611Y-98518882D01*
X146823284Y-98448852D01*
X146870965Y-98396250D01*
X146939516Y-98377777D01*
X146968669Y-98381869D01*
X146984688Y-98386071D01*
X146999644Y-98388119D01*
X147143687Y-98390383D01*
X147158691Y-98388806D01*
X147199874Y-98379374D01*
X147270741Y-98383664D01*
X147328039Y-98425586D01*
X147353576Y-98491831D01*
X147352925Y-98518640D01*
X147337694Y-98634328D01*
X147337537Y-98649409D01*
X147353346Y-98792605D01*
X147356792Y-98807294D01*
X147406299Y-98942583D01*
X147413149Y-98956026D01*
X147429970Y-98981059D01*
X147439954Y-98989358D01*
X147454045Y-98982123D01*
X147774556Y-98661612D01*
X147782170Y-98647668D01*
X147782039Y-98645835D01*
X147777788Y-98639220D01*
X147439613Y-98301045D01*
X147440345Y-98300313D01*
X147429510Y-98291428D01*
X147427006Y-98288438D01*
X147094812Y-97956244D01*
X147080868Y-97948630D01*
X147079035Y-97948761D01*
X147072420Y-97953012D01*
X146734201Y-98291231D01*
X146731924Y-98288954D01*
X146721752Y-98298922D01*
X146724131Y-98301301D01*
X146389444Y-98635988D01*
X146381830Y-98649932D01*
X145945934Y-98649932D01*
X145947170Y-98647668D01*
X145947039Y-98645835D01*
X145942788Y-98639220D01*
X145604613Y-98301045D01*
X145605345Y-98300313D01*
X145594510Y-98291428D01*
X145592006Y-98288438D01*
X145134005Y-97830437D01*
X145099979Y-97768125D01*
X145097100Y-97741342D01*
X145097100Y-97732432D01*
X145464330Y-97732432D01*
X145464461Y-97734265D01*
X145468712Y-97740880D01*
X145807194Y-98079362D01*
X145806510Y-98080046D01*
X145816787Y-98088427D01*
X145819697Y-98091865D01*
X146151688Y-98423856D01*
X146165632Y-98431470D01*
X146167465Y-98431339D01*
X146174080Y-98427088D01*
X146512624Y-98088544D01*
X146514960Y-98090880D01*
X146525035Y-98081057D01*
X146522573Y-98078595D01*
X146857056Y-97744112D01*
X146863434Y-97732432D01*
X147299330Y-97732432D01*
X147299461Y-97734265D01*
X147303712Y-97740880D01*
X147642194Y-98079362D01*
X147641510Y-98080046D01*
X147651787Y-98088427D01*
X147654697Y-98091865D01*
X147986688Y-98423856D01*
X148000632Y-98431470D01*
X148002465Y-98431339D01*
X148009080Y-98427088D01*
X148347624Y-98088544D01*
X148349960Y-98090880D01*
X148360035Y-98081057D01*
X148357573Y-98078595D01*
X148692056Y-97744112D01*
X148699670Y-97730168D01*
X148699539Y-97728335D01*
X148695288Y-97721720D01*
X148357113Y-97383545D01*
X148357845Y-97382813D01*
X148347010Y-97373928D01*
X148344506Y-97370938D01*
X148012312Y-97038744D01*
X147998368Y-97031130D01*
X147996535Y-97031261D01*
X147989920Y-97035512D01*
X147651701Y-97373731D01*
X147649424Y-97371454D01*
X147639252Y-97381422D01*
X147641631Y-97383801D01*
X147306944Y-97718488D01*
X147299330Y-97732432D01*
X146863434Y-97732432D01*
X146864670Y-97730168D01*
X146864539Y-97728335D01*
X146860288Y-97721720D01*
X146522113Y-97383545D01*
X146522845Y-97382813D01*
X146512010Y-97373928D01*
X146509506Y-97370938D01*
X146177312Y-97038744D01*
X146163368Y-97031130D01*
X146161535Y-97031261D01*
X146154920Y-97035512D01*
X145816701Y-97373731D01*
X145814424Y-97371454D01*
X145804252Y-97381422D01*
X145806631Y-97383801D01*
X145471944Y-97718488D01*
X145464330Y-97732432D01*
X145097100Y-97732432D01*
X145097100Y-97721258D01*
X145117102Y-97653137D01*
X145134005Y-97632163D01*
X145595124Y-97171044D01*
X145597460Y-97173380D01*
X145607535Y-97163557D01*
X145605073Y-97161095D01*
X145939556Y-96826612D01*
X145945934Y-96814932D01*
X146381830Y-96814932D01*
X146381961Y-96816765D01*
X146386212Y-96823380D01*
X146724694Y-97161862D01*
X146724010Y-97162546D01*
X146734287Y-97170927D01*
X146737197Y-97174365D01*
X147069188Y-97506356D01*
X147083132Y-97513970D01*
X147084965Y-97513839D01*
X147091580Y-97509588D01*
X147430124Y-97171044D01*
X147432460Y-97173380D01*
X147442535Y-97163557D01*
X147440073Y-97161095D01*
X147774556Y-96826612D01*
X147782170Y-96812668D01*
X147782039Y-96810835D01*
X147777788Y-96804220D01*
X147439613Y-96466045D01*
X147440345Y-96465313D01*
X147429510Y-96456428D01*
X147427006Y-96453438D01*
X147094812Y-96121244D01*
X147080868Y-96113630D01*
X147079035Y-96113761D01*
X147072420Y-96118012D01*
X146734201Y-96456231D01*
X146731924Y-96453954D01*
X146721752Y-96463922D01*
X146724131Y-96466301D01*
X146389444Y-96800988D01*
X146381830Y-96814932D01*
X145945934Y-96814932D01*
X145947170Y-96812668D01*
X145947039Y-96810835D01*
X145942788Y-96804220D01*
X145604613Y-96466045D01*
X145605345Y-96465313D01*
X145594510Y-96456428D01*
X145592006Y-96453438D01*
X145134005Y-95995437D01*
X145099979Y-95933125D01*
X145097100Y-95906342D01*
X145097100Y-95897432D01*
X145464330Y-95897432D01*
X145464461Y-95899265D01*
X145468712Y-95905880D01*
X145807194Y-96244362D01*
X145806510Y-96245046D01*
X145816787Y-96253427D01*
X145819697Y-96256865D01*
X146151688Y-96588856D01*
X146165632Y-96596470D01*
X146167465Y-96596339D01*
X146174080Y-96592088D01*
X146512624Y-96253544D01*
X146514960Y-96255880D01*
X146525035Y-96246057D01*
X146522573Y-96243595D01*
X146857056Y-95909112D01*
X146863434Y-95897432D01*
X147299330Y-95897432D01*
X147299461Y-95899265D01*
X147303712Y-95905880D01*
X147642194Y-96244362D01*
X147641510Y-96245046D01*
X147651787Y-96253427D01*
X147654697Y-96256865D01*
X147986688Y-96588856D01*
X148000632Y-96596470D01*
X148002465Y-96596339D01*
X148009080Y-96592088D01*
X148347624Y-96253544D01*
X148349960Y-96255880D01*
X148360035Y-96246057D01*
X148357573Y-96243595D01*
X148692056Y-95909112D01*
X148699670Y-95895168D01*
X148699539Y-95893335D01*
X148695288Y-95886720D01*
X148357113Y-95548545D01*
X148357845Y-95547813D01*
X148347010Y-95538928D01*
X148344506Y-95535938D01*
X148012312Y-95203744D01*
X147998368Y-95196130D01*
X147996535Y-95196261D01*
X147989920Y-95200512D01*
X147651701Y-95538731D01*
X147649424Y-95536454D01*
X147639252Y-95546422D01*
X147641631Y-95548801D01*
X147306944Y-95883488D01*
X147299330Y-95897432D01*
X146863434Y-95897432D01*
X146864670Y-95895168D01*
X146864539Y-95893335D01*
X146860288Y-95886720D01*
X146522113Y-95548545D01*
X146522845Y-95547813D01*
X146512010Y-95538928D01*
X146509506Y-95535938D01*
X146177312Y-95203744D01*
X146163368Y-95196130D01*
X146161535Y-95196261D01*
X146154920Y-95200512D01*
X145816701Y-95538731D01*
X145814424Y-95536454D01*
X145804252Y-95546422D01*
X145806631Y-95548801D01*
X145471944Y-95883488D01*
X145464330Y-95897432D01*
X145097100Y-95897432D01*
X145097100Y-95886258D01*
X145117102Y-95818137D01*
X145134005Y-95797163D01*
X145595124Y-95336044D01*
X145597460Y-95338380D01*
X145607535Y-95328557D01*
X145605073Y-95326095D01*
X145939556Y-94991612D01*
X145945934Y-94979932D01*
X146381830Y-94979932D01*
X146381961Y-94981765D01*
X146386212Y-94988380D01*
X146724694Y-95326862D01*
X146724010Y-95327546D01*
X146734287Y-95335927D01*
X146737197Y-95339365D01*
X147069188Y-95671356D01*
X147083132Y-95678970D01*
X147084965Y-95678839D01*
X147091580Y-95674588D01*
X147430124Y-95336044D01*
X147432460Y-95338380D01*
X147442535Y-95328557D01*
X147440073Y-95326095D01*
X147774556Y-94991612D01*
X147782170Y-94977668D01*
X147782039Y-94975835D01*
X147777788Y-94969220D01*
X147452425Y-94643857D01*
X147440616Y-94637408D01*
X147428642Y-94646656D01*
X147419712Y-94659362D01*
X147412583Y-94672656D01*
X147360251Y-94806880D01*
X147356499Y-94821494D01*
X147337694Y-94964328D01*
X147337537Y-94979409D01*
X147352004Y-95110448D01*
X147339598Y-95180352D01*
X147291369Y-95232452D01*
X147222628Y-95250207D01*
X147196071Y-95246479D01*
X147172449Y-95240546D01*
X147157474Y-95238654D01*
X147013410Y-95237900D01*
X146998434Y-95239632D01*
X146965021Y-95247654D01*
X146894113Y-95244107D01*
X146836379Y-95202787D01*
X146810149Y-95136813D01*
X146810864Y-95107382D01*
X146826607Y-94996763D01*
X146827231Y-94988558D01*
X146827290Y-94982921D01*
X146826838Y-94974706D01*
X146809112Y-94828232D01*
X146805516Y-94813589D01*
X146754589Y-94678814D01*
X146747606Y-94665457D01*
X146734392Y-94646231D01*
X146724138Y-94637888D01*
X146710399Y-94645033D01*
X146389444Y-94965988D01*
X146381830Y-94979932D01*
X145945934Y-94979932D01*
X145947170Y-94977668D01*
X145947039Y-94975835D01*
X145942788Y-94969220D01*
X145617425Y-94643857D01*
X145605616Y-94637408D01*
X145593642Y-94646656D01*
X145584712Y-94659362D01*
X145577583Y-94672656D01*
X145525251Y-94806880D01*
X145521499Y-94821494D01*
X145502694Y-94964328D01*
X145502537Y-94979409D01*
X145517004Y-95110448D01*
X145504598Y-95180352D01*
X145456369Y-95232452D01*
X145387628Y-95250207D01*
X145361071Y-95246479D01*
X145337449Y-95240546D01*
X145322474Y-95238654D01*
X145178410Y-95237900D01*
X145163436Y-95239632D01*
X145105656Y-95253504D01*
X145034748Y-95249957D01*
X144976278Y-95207688D01*
X144953990Y-95178641D01*
X144953975Y-95178623D01*
X144930617Y-95148183D01*
X144906716Y-95129843D01*
X144894333Y-95118982D01*
X144194943Y-94419592D01*
X145821893Y-94419592D01*
X145824264Y-94426432D01*
X146151688Y-94753856D01*
X146165632Y-94761470D01*
X146167465Y-94761339D01*
X146174080Y-94757088D01*
X146499812Y-94431356D01*
X146506236Y-94419592D01*
X147656893Y-94419592D01*
X147659264Y-94426432D01*
X147986688Y-94753856D01*
X148000632Y-94761470D01*
X148002465Y-94761339D01*
X148009080Y-94757088D01*
X148334812Y-94431356D01*
X148341572Y-94418976D01*
X148337062Y-94412952D01*
X148243749Y-94363545D01*
X148229672Y-94358142D01*
X148089946Y-94323045D01*
X148074974Y-94321154D01*
X147930910Y-94320400D01*
X147915934Y-94322132D01*
X147775835Y-94355767D01*
X147761711Y-94361020D01*
X147667095Y-94409855D01*
X147656893Y-94419592D01*
X146506236Y-94419592D01*
X146506572Y-94418976D01*
X146502062Y-94412952D01*
X146408749Y-94363545D01*
X146394672Y-94358142D01*
X146254946Y-94323045D01*
X146239974Y-94321154D01*
X146095910Y-94320400D01*
X146080934Y-94322132D01*
X145940835Y-94355767D01*
X145926711Y-94361020D01*
X145832095Y-94409855D01*
X145821893Y-94419592D01*
X144194943Y-94419592D01*
X143462618Y-93687267D01*
X143451757Y-93674884D01*
X143433417Y-93650983D01*
X143406916Y-93630648D01*
X143365049Y-93573310D01*
X143360827Y-93502439D01*
X143363782Y-93491767D01*
X143422174Y-93312056D01*
X143437362Y-93167553D01*
X143441270Y-93130365D01*
X143441960Y-93123800D01*
X143437276Y-93079234D01*
X143422864Y-92942107D01*
X143422864Y-92942105D01*
X143422174Y-92935544D01*
X143363679Y-92755516D01*
X143269033Y-92591584D01*
X143261241Y-92582930D01*
X143146786Y-92455815D01*
X143146784Y-92455814D01*
X143142371Y-92450912D01*
X142989230Y-92339649D01*
X142816303Y-92262656D01*
X142718288Y-92241822D01*
X142637603Y-92224672D01*
X142637599Y-92224672D01*
X142631146Y-92223300D01*
X142441854Y-92223300D01*
X142435401Y-92224672D01*
X142435397Y-92224672D01*
X142354712Y-92241822D01*
X142256697Y-92262656D01*
X142083770Y-92339649D01*
X141930629Y-92450912D01*
X141926216Y-92455814D01*
X141926214Y-92455815D01*
X141884979Y-92501611D01*
X141824533Y-92538850D01*
X141791343Y-92543300D01*
X140246098Y-92543300D01*
X140229652Y-92542222D01*
X140199800Y-92538292D01*
X140191611Y-92539370D01*
X140191610Y-92539370D01*
X140161765Y-92543299D01*
X140161756Y-92543300D01*
X140161753Y-92543300D01*
X140055247Y-92557322D01*
X140048259Y-92558242D01*
X139907046Y-92616734D01*
X139816228Y-92686421D01*
X139816226Y-92686423D01*
X139785783Y-92709783D01*
X139767443Y-92733684D01*
X139756582Y-92746067D01*
X139152295Y-93350354D01*
X139089983Y-93384380D01*
X139019168Y-93379315D01*
X138962332Y-93336768D01*
X138937521Y-93270248D01*
X138937200Y-93261259D01*
X138937200Y-91577898D01*
X138938278Y-91561452D01*
X138941130Y-91539788D01*
X138942208Y-91531600D01*
X138937200Y-91493559D01*
X138937200Y-91493553D01*
X138922258Y-91380059D01*
X138921828Y-91379019D01*
X138888289Y-91298050D01*
X138863766Y-91238846D01*
X138819311Y-91180912D01*
X138819310Y-91180910D01*
X138794096Y-91148050D01*
X138794094Y-91148047D01*
X138794079Y-91148028D01*
X138794077Y-91148026D01*
X138770717Y-91117583D01*
X138746816Y-91099243D01*
X138734433Y-91088382D01*
X137701018Y-90054967D01*
X137690157Y-90042584D01*
X137671817Y-90018683D01*
X137641374Y-89995323D01*
X137641372Y-89995321D01*
X137550554Y-89925634D01*
X137409341Y-89867142D01*
X137409333Y-89867141D01*
X137295847Y-89852200D01*
X137295844Y-89852200D01*
X137295835Y-89852199D01*
X137265990Y-89848270D01*
X137265989Y-89848270D01*
X137257800Y-89847192D01*
X137249611Y-89848270D01*
X137227946Y-89851122D01*
X137211501Y-89852200D01*
X136607040Y-89852200D01*
X136538919Y-89832198D01*
X136517945Y-89815295D01*
X135913748Y-89211098D01*
X135879722Y-89148786D01*
X135884787Y-89077971D01*
X135927334Y-89021135D01*
X135993854Y-88996324D01*
X136010450Y-88996233D01*
X136039979Y-88998019D01*
X136052120Y-88998753D01*
X136063579Y-89000061D01*
X136064858Y-89000176D01*
X136069655Y-89000983D01*
X136074516Y-89001042D01*
X136074522Y-89001043D01*
X136075777Y-89001058D01*
X136081997Y-89001134D01*
X136108958Y-88997273D01*
X136126820Y-88996001D01*
X139043055Y-88996002D01*
X157117913Y-88996002D01*
X160029475Y-88996001D01*
X160050378Y-88997747D01*
X160064869Y-89000185D01*
X160064874Y-89000185D01*
X160069668Y-89000992D01*
X160082010Y-89001143D01*
X160086841Y-89000451D01*
X160090250Y-89000229D01*
X160094084Y-88999840D01*
X160380107Y-88982538D01*
X160380114Y-88982537D01*
X160383902Y-88982308D01*
X160638453Y-88935658D01*
X160709062Y-88943053D01*
G37*
%TD.AperFunction*%
%TA.AperFunction,Conductor*%
G36*
X181282224Y-103091681D02*
G01*
X181341209Y-103131194D01*
X181370065Y-103202279D01*
X181415403Y-103795624D01*
X181400649Y-103865071D01*
X181350691Y-103915517D01*
X181281392Y-103930945D01*
X181265619Y-103928888D01*
X181090772Y-103894743D01*
X181081909Y-103893666D01*
X181079200Y-103893600D01*
X180949815Y-103893600D01*
X180934576Y-103898075D01*
X180933371Y-103899465D01*
X180931700Y-103907148D01*
X180931700Y-106091485D01*
X180936175Y-106106724D01*
X180937565Y-106107929D01*
X180945248Y-106109600D01*
X181027532Y-106109600D01*
X181033508Y-106109315D01*
X181182194Y-106095129D01*
X181193929Y-106092870D01*
X181384923Y-106036839D01*
X181455919Y-106036856D01*
X181515636Y-106075255D01*
X181545114Y-106139842D01*
X181546324Y-106153618D01*
X181591685Y-107540969D01*
X181591745Y-107543699D01*
X181597083Y-108033648D01*
X181609993Y-109218623D01*
X181609993Y-109221369D01*
X181609248Y-109289721D01*
X181592308Y-110844641D01*
X181591745Y-110896279D01*
X181591685Y-110899009D01*
X181540706Y-112458234D01*
X181539635Y-112490979D01*
X181517417Y-112558410D01*
X181462271Y-112603125D01*
X181391704Y-112610927D01*
X181366603Y-112603728D01*
X181299385Y-112576638D01*
X181287930Y-112573245D01*
X181090772Y-112534743D01*
X181081909Y-112533666D01*
X181079200Y-112533600D01*
X180949815Y-112533600D01*
X180934576Y-112538075D01*
X180933371Y-112539465D01*
X180931700Y-112547148D01*
X180931700Y-114731485D01*
X180936175Y-114746724D01*
X180937565Y-114747929D01*
X180945248Y-114749600D01*
X181027532Y-114749600D01*
X181033508Y-114749315D01*
X181182194Y-114735129D01*
X181193935Y-114732869D01*
X181238566Y-114719775D01*
X181309562Y-114719791D01*
X181369279Y-114758188D01*
X181398758Y-114822776D01*
X181399670Y-114850279D01*
X181393275Y-114933973D01*
X181318194Y-115916581D01*
X181317837Y-115921250D01*
X181317602Y-115923942D01*
X181187885Y-117242637D01*
X181153621Y-117590962D01*
X181153322Y-117593691D01*
X181124755Y-117830924D01*
X180964739Y-119159756D01*
X180953070Y-119256658D01*
X180952716Y-119259349D01*
X180758821Y-120619207D01*
X180716274Y-120917602D01*
X180715857Y-120920315D01*
X180503921Y-122205627D01*
X180473103Y-122269586D01*
X180412598Y-122306730D01*
X180341616Y-122305266D01*
X180282694Y-122265659D01*
X180254539Y-122200484D01*
X180253600Y-122185128D01*
X180253600Y-119753798D01*
X180254678Y-119737352D01*
X180257530Y-119715688D01*
X180258608Y-119707500D01*
X180253600Y-119669459D01*
X180253600Y-119669453D01*
X180238658Y-119555959D01*
X180180166Y-119414746D01*
X180159995Y-119388459D01*
X180159994Y-119388457D01*
X180110490Y-119323941D01*
X180110475Y-119323923D01*
X180087117Y-119293483D01*
X180063216Y-119275143D01*
X180050833Y-119264282D01*
X179977835Y-119191284D01*
X179943809Y-119128972D01*
X179941569Y-119108134D01*
X179942008Y-119104800D01*
X179937000Y-119066759D01*
X179937000Y-119066753D01*
X179922058Y-118953259D01*
X179893609Y-118884576D01*
X179866725Y-118819672D01*
X179866724Y-118819671D01*
X179863566Y-118812046D01*
X179858460Y-118805392D01*
X179839182Y-118780268D01*
X179793890Y-118721241D01*
X179793875Y-118721223D01*
X179770517Y-118690783D01*
X179746616Y-118672443D01*
X179734233Y-118661582D01*
X179457163Y-118384512D01*
X179423137Y-118322200D01*
X179428202Y-118251385D01*
X179470749Y-118194549D01*
X179520061Y-118172170D01*
X179535486Y-118168891D01*
X179601103Y-118154944D01*
X179774030Y-118077951D01*
X179818832Y-118045401D01*
X179921832Y-117970567D01*
X179927171Y-117966688D01*
X179963602Y-117926228D01*
X180049414Y-117830924D01*
X180049415Y-117830923D01*
X180053833Y-117826016D01*
X180127308Y-117698754D01*
X180145175Y-117667807D01*
X180145176Y-117667806D01*
X180148479Y-117662084D01*
X180206974Y-117482056D01*
X180208901Y-117463728D01*
X180226070Y-117300365D01*
X180226760Y-117293800D01*
X180222517Y-117253433D01*
X180207664Y-117112107D01*
X180207664Y-117112105D01*
X180206974Y-117105544D01*
X180148479Y-116925516D01*
X180139488Y-116909942D01*
X180057136Y-116767305D01*
X180053833Y-116761584D01*
X180049413Y-116756675D01*
X180049410Y-116756671D01*
X179934164Y-116628677D01*
X179903446Y-116564670D01*
X179901800Y-116544367D01*
X179901800Y-114829616D01*
X179921802Y-114761495D01*
X179975458Y-114715002D01*
X180045732Y-114704898D01*
X180063591Y-114708806D01*
X180067470Y-114709955D01*
X180264628Y-114748457D01*
X180273491Y-114749534D01*
X180276200Y-114749600D01*
X180405585Y-114749600D01*
X180420824Y-114745125D01*
X180422029Y-114743735D01*
X180423700Y-114736052D01*
X180423700Y-112551715D01*
X180419225Y-112536476D01*
X180417835Y-112535271D01*
X180410152Y-112533600D01*
X180327868Y-112533600D01*
X180321892Y-112533885D01*
X180173206Y-112548071D01*
X180161471Y-112550330D01*
X180063269Y-112579139D01*
X179992272Y-112579121D01*
X179932556Y-112540723D01*
X179903078Y-112476135D01*
X179901800Y-112458234D01*
X179901800Y-108223305D01*
X179902878Y-108206859D01*
X179905731Y-108185188D01*
X179906809Y-108177000D01*
X179886858Y-108025459D01*
X179836951Y-107904972D01*
X179828050Y-107843583D01*
X179833570Y-107791065D01*
X179834260Y-107784500D01*
X179832901Y-107771574D01*
X179815164Y-107602807D01*
X179815164Y-107602805D01*
X179814474Y-107596244D01*
X179806956Y-107573106D01*
X179804928Y-107502139D01*
X179841879Y-107441516D01*
X179844671Y-107439488D01*
X179971333Y-107298816D01*
X179997700Y-107253147D01*
X180062675Y-107140607D01*
X180062676Y-107140606D01*
X180065979Y-107134884D01*
X180124474Y-106954856D01*
X180126123Y-106939173D01*
X180143570Y-106773165D01*
X180144260Y-106766600D01*
X180138774Y-106714405D01*
X180125164Y-106584907D01*
X180125164Y-106584905D01*
X180124474Y-106578344D01*
X180065979Y-106398316D01*
X179990520Y-106267616D01*
X179973782Y-106198623D01*
X179997002Y-106131531D01*
X180052809Y-106087644D01*
X180123788Y-106080954D01*
X180264625Y-106108457D01*
X180273491Y-106109534D01*
X180276200Y-106109600D01*
X180405585Y-106109600D01*
X180420824Y-106105125D01*
X180422029Y-106103735D01*
X180423700Y-106096052D01*
X180423700Y-103911715D01*
X180419225Y-103896476D01*
X180417835Y-103895271D01*
X180410152Y-103893600D01*
X180327868Y-103893600D01*
X180321891Y-103893885D01*
X180238276Y-103901862D01*
X180168563Y-103888421D01*
X180117185Y-103839423D01*
X180100452Y-103770426D01*
X180123678Y-103703336D01*
X180137214Y-103687337D01*
X180392346Y-103432205D01*
X180454658Y-103398179D01*
X180481441Y-103395300D01*
X180603446Y-103395300D01*
X180609899Y-103393928D01*
X180609903Y-103393928D01*
X180707687Y-103373143D01*
X180788603Y-103355944D01*
X180961530Y-103278951D01*
X180998466Y-103252116D01*
X181109332Y-103171567D01*
X181114671Y-103167688D01*
X181119086Y-103162784D01*
X181119090Y-103162781D01*
X181150795Y-103127569D01*
X181211240Y-103090329D01*
X181282224Y-103091681D01*
G37*
%TD.AperFunction*%
%TA.AperFunction,Conductor*%
G36*
X176693821Y-113407602D02*
G01*
X176740314Y-113461258D01*
X176751700Y-113513600D01*
X176751700Y-114731485D01*
X176756175Y-114746724D01*
X176757565Y-114747929D01*
X176765248Y-114749600D01*
X177047532Y-114749600D01*
X177053509Y-114749315D01*
X177168533Y-114738341D01*
X177238245Y-114751782D01*
X177289624Y-114800780D01*
X177306500Y-114863771D01*
X177306500Y-116365002D01*
X177286498Y-116433123D01*
X177232842Y-116479616D01*
X177203166Y-116487717D01*
X177203354Y-116488600D01*
X177018197Y-116527956D01*
X176845270Y-116604949D01*
X176839929Y-116608829D01*
X176839928Y-116608830D01*
X176756907Y-116669148D01*
X176692129Y-116716212D01*
X176687715Y-116721115D01*
X176687712Y-116721117D01*
X176682295Y-116727133D01*
X176621848Y-116764371D01*
X176550864Y-116763017D01*
X176499566Y-116731915D01*
X175731105Y-115963454D01*
X175697079Y-115901142D01*
X175694200Y-115874359D01*
X175694200Y-114864256D01*
X175714202Y-114796135D01*
X175767858Y-114749642D01*
X175844349Y-114740592D01*
X175884624Y-114748457D01*
X175893491Y-114749534D01*
X175896200Y-114749600D01*
X176225585Y-114749600D01*
X176240824Y-114745125D01*
X176242029Y-114743735D01*
X176243700Y-114736052D01*
X176243700Y-113513600D01*
X176263702Y-113445479D01*
X176317358Y-113398986D01*
X176369700Y-113387600D01*
X176625700Y-113387600D01*
X176693821Y-113407602D01*
G37*
%TD.AperFunction*%
%TA.AperFunction,Conductor*%
G36*
X126753082Y-91441132D02*
G01*
X126798145Y-91470093D01*
X126979165Y-91651113D01*
X127013191Y-91713425D01*
X127008126Y-91784240D01*
X126979165Y-91829303D01*
X125775250Y-93033218D01*
X125768490Y-93045598D01*
X125774217Y-93053248D01*
X125972556Y-93174791D01*
X125981350Y-93179272D01*
X126206041Y-93272342D01*
X126215426Y-93275391D01*
X126451913Y-93332167D01*
X126461660Y-93333710D01*
X126624970Y-93346563D01*
X126691311Y-93371848D01*
X126733451Y-93428986D01*
X126738010Y-93499837D01*
X126704179Y-93561270D01*
X124556067Y-95709382D01*
X124543684Y-95720243D01*
X124519783Y-95738583D01*
X124496423Y-95769026D01*
X124496421Y-95769028D01*
X124432157Y-95852779D01*
X124432156Y-95852778D01*
X124431766Y-95853288D01*
X124426734Y-95859846D01*
X124368242Y-96001059D01*
X124353300Y-96114553D01*
X124353300Y-96114559D01*
X124348292Y-96152600D01*
X124349370Y-96160789D01*
X124352222Y-96182454D01*
X124353300Y-96198899D01*
X124353300Y-114683452D01*
X124333298Y-114751573D01*
X124279642Y-114798066D01*
X124209368Y-114808170D01*
X124144788Y-114778676D01*
X124107467Y-114722388D01*
X124077221Y-114629301D01*
X124075179Y-114623016D01*
X123980533Y-114459084D01*
X123976113Y-114454175D01*
X123976110Y-114454171D01*
X123860864Y-114326177D01*
X123830146Y-114262170D01*
X123828500Y-114241867D01*
X123828500Y-92935841D01*
X123848502Y-92867720D01*
X123865405Y-92846746D01*
X124893758Y-91818393D01*
X124956070Y-91784367D01*
X125026885Y-91789432D01*
X125083721Y-91831979D01*
X125108465Y-91897602D01*
X125115548Y-91987598D01*
X125117091Y-91997345D01*
X125173867Y-92233832D01*
X125176916Y-92243217D01*
X125269986Y-92467908D01*
X125274467Y-92476702D01*
X125393763Y-92671375D01*
X125404220Y-92680835D01*
X125412996Y-92677052D01*
X126619955Y-91470093D01*
X126682267Y-91436067D01*
X126753082Y-91441132D01*
G37*
%TD.AperFunction*%
%TA.AperFunction,Conductor*%
G36*
X175909380Y-95639502D02*
G01*
X175930354Y-95656405D01*
X177260595Y-96986646D01*
X177294621Y-97048958D01*
X177297500Y-97075741D01*
X177297500Y-103778222D01*
X177277498Y-103846343D01*
X177223842Y-103892836D01*
X177147349Y-103901886D01*
X177110769Y-103894742D01*
X177101909Y-103893666D01*
X177099200Y-103893600D01*
X176769815Y-103893600D01*
X176754576Y-103898075D01*
X176753371Y-103899465D01*
X176751700Y-103907148D01*
X176751700Y-105129600D01*
X176731698Y-105197721D01*
X176678042Y-105244214D01*
X176625700Y-105255600D01*
X176369700Y-105255600D01*
X176301579Y-105235598D01*
X176255086Y-105181942D01*
X176243700Y-105129600D01*
X176243700Y-103911715D01*
X176239225Y-103896476D01*
X176237835Y-103895271D01*
X176230152Y-103893600D01*
X175947868Y-103893600D01*
X175941891Y-103893885D01*
X175832167Y-103904353D01*
X175762454Y-103890912D01*
X175711076Y-103841914D01*
X175694200Y-103778923D01*
X175694200Y-95745500D01*
X175714202Y-95677379D01*
X175767858Y-95630886D01*
X175820200Y-95619500D01*
X175841259Y-95619500D01*
X175909380Y-95639502D01*
G37*
%TD.AperFunction*%
%TA.AperFunction,Conductor*%
G36*
X171524102Y-82142683D02*
G01*
X171570595Y-82196339D01*
X171580699Y-82266613D01*
X171551205Y-82331193D01*
X171499206Y-82366992D01*
X171494337Y-82368297D01*
X171489357Y-82370619D01*
X171489355Y-82370620D01*
X171285152Y-82465842D01*
X171285149Y-82465844D01*
X171280171Y-82468165D01*
X171086599Y-82603705D01*
X170919505Y-82770799D01*
X170783965Y-82964371D01*
X170781644Y-82969349D01*
X170781642Y-82969352D01*
X170721148Y-83099081D01*
X170684097Y-83178537D01*
X170682675Y-83183845D01*
X170682674Y-83183847D01*
X170624361Y-83401477D01*
X170622937Y-83406792D01*
X170602341Y-83642200D01*
X170622937Y-83877608D01*
X170624361Y-83882922D01*
X170624361Y-83882923D01*
X170649941Y-83978388D01*
X170684097Y-84105863D01*
X170686419Y-84110843D01*
X170686420Y-84110845D01*
X170764224Y-84277694D01*
X170783965Y-84320029D01*
X170919505Y-84513601D01*
X171086599Y-84680695D01*
X171091107Y-84683852D01*
X171091110Y-84683854D01*
X171179648Y-84745849D01*
X171280170Y-84816235D01*
X171285152Y-84818558D01*
X171285157Y-84818561D01*
X171379295Y-84862458D01*
X171494337Y-84916103D01*
X171499645Y-84917525D01*
X171499647Y-84917526D01*
X171717277Y-84975839D01*
X171722592Y-84977263D01*
X171958000Y-84997859D01*
X172193408Y-84977263D01*
X172198723Y-84975839D01*
X172416353Y-84917526D01*
X172416355Y-84917525D01*
X172421663Y-84916103D01*
X172536705Y-84862458D01*
X172630843Y-84818561D01*
X172630848Y-84818558D01*
X172635830Y-84816235D01*
X172736352Y-84745849D01*
X172824890Y-84683854D01*
X172824893Y-84683852D01*
X172829401Y-84680695D01*
X172943184Y-84566912D01*
X173005496Y-84532886D01*
X173076311Y-84537951D01*
X173133147Y-84580498D01*
X173150261Y-84611778D01*
X173194675Y-84730252D01*
X173203214Y-84745849D01*
X173279715Y-84847924D01*
X173292276Y-84860485D01*
X173394351Y-84936986D01*
X173409946Y-84945524D01*
X173530394Y-84990678D01*
X173545649Y-84994305D01*
X173596514Y-84999831D01*
X173603328Y-85000200D01*
X174225885Y-85000200D01*
X174241124Y-84995725D01*
X174242329Y-84994335D01*
X174244000Y-84986652D01*
X174244000Y-84982084D01*
X174752000Y-84982084D01*
X174756475Y-84997323D01*
X174757865Y-84998528D01*
X174765548Y-85000199D01*
X175392669Y-85000199D01*
X175399490Y-84999829D01*
X175450352Y-84994305D01*
X175465604Y-84990679D01*
X175586054Y-84945524D01*
X175601649Y-84936986D01*
X175703724Y-84860485D01*
X175716285Y-84847924D01*
X175792786Y-84745849D01*
X175801324Y-84730254D01*
X175846478Y-84609806D01*
X175850105Y-84594551D01*
X175855631Y-84543686D01*
X175856000Y-84536872D01*
X175856000Y-83914315D01*
X175851525Y-83899076D01*
X175850135Y-83897871D01*
X175842452Y-83896200D01*
X174770115Y-83896200D01*
X174754876Y-83900675D01*
X174753671Y-83902065D01*
X174752000Y-83909748D01*
X174752000Y-84982084D01*
X174244000Y-84982084D01*
X174244000Y-83514200D01*
X174264002Y-83446079D01*
X174317658Y-83399586D01*
X174370000Y-83388200D01*
X175837884Y-83388200D01*
X175853123Y-83383725D01*
X175854328Y-83382335D01*
X175855999Y-83374652D01*
X175855999Y-82749459D01*
X175876001Y-82681338D01*
X175929657Y-82634845D01*
X175999931Y-82624741D01*
X176045293Y-82640510D01*
X176057508Y-82647606D01*
X176114692Y-82680827D01*
X176124807Y-82687370D01*
X176309295Y-82819629D01*
X176387097Y-82875405D01*
X176396543Y-82882886D01*
X176639663Y-83095118D01*
X176648343Y-83103459D01*
X176870072Y-83337946D01*
X176877922Y-83347086D01*
X176920933Y-83402305D01*
X177076244Y-83601699D01*
X177083186Y-83611551D01*
X177256258Y-83883922D01*
X177262227Y-83894389D01*
X177372281Y-84110845D01*
X177408490Y-84182062D01*
X177413430Y-84193050D01*
X177518150Y-84459333D01*
X177525020Y-84483824D01*
X177526930Y-84494792D01*
X177533958Y-84509089D01*
X177539249Y-84519853D01*
X177545935Y-84536286D01*
X177957191Y-85794349D01*
X178054616Y-86092381D01*
X178055437Y-86094986D01*
X178324388Y-86982776D01*
X178541086Y-87698081D01*
X178541850Y-87700706D01*
X178944031Y-89140625D01*
X178992440Y-89313944D01*
X178993146Y-89316582D01*
X179056896Y-89565645D01*
X179408487Y-90939279D01*
X179409139Y-90941945D01*
X179621479Y-91853800D01*
X179782465Y-92545121D01*
X179789037Y-92573345D01*
X179789624Y-92576000D01*
X180114648Y-94123683D01*
X180133876Y-94215241D01*
X180134407Y-94217911D01*
X180440817Y-95853345D01*
X180442869Y-95864296D01*
X180443341Y-95866977D01*
X180643794Y-97082654D01*
X180715855Y-97519677D01*
X180716272Y-97522390D01*
X180951373Y-99171226D01*
X180952711Y-99180613D01*
X180953065Y-99183303D01*
X181050840Y-99995261D01*
X181153321Y-100846302D01*
X181153620Y-100849031D01*
X181232226Y-101648137D01*
X181218988Y-101717889D01*
X181170142Y-101769411D01*
X181101195Y-101786346D01*
X181032770Y-101762408D01*
X180961530Y-101710649D01*
X180788603Y-101633656D01*
X180690588Y-101612822D01*
X180609903Y-101595672D01*
X180609899Y-101595672D01*
X180603446Y-101594300D01*
X180414154Y-101594300D01*
X180407701Y-101595672D01*
X180407697Y-101595672D01*
X180327012Y-101612822D01*
X180228997Y-101633656D01*
X180056070Y-101710649D01*
X180050729Y-101714529D01*
X180050728Y-101714530D01*
X179975191Y-101769411D01*
X179902929Y-101821912D01*
X179898516Y-101826814D01*
X179898514Y-101826815D01*
X179780686Y-101957676D01*
X179776267Y-101962584D01*
X179772964Y-101968305D01*
X179727523Y-102047012D01*
X179681621Y-102126516D01*
X179623126Y-102306544D01*
X179622436Y-102313105D01*
X179622436Y-102313107D01*
X179613759Y-102395667D01*
X179603340Y-102494800D01*
X179604030Y-102501365D01*
X179604030Y-102501371D01*
X179605095Y-102511508D01*
X179592321Y-102581346D01*
X179568880Y-102613769D01*
X179033895Y-103148754D01*
X178971583Y-103182780D01*
X178900768Y-103177715D01*
X178843932Y-103135168D01*
X178819121Y-103068648D01*
X178818800Y-103059659D01*
X178818800Y-95069298D01*
X178819878Y-95052852D01*
X178822730Y-95031188D01*
X178823808Y-95023000D01*
X178818800Y-94984959D01*
X178818800Y-94984953D01*
X178817841Y-94977668D01*
X178804936Y-94879645D01*
X178804936Y-94879643D01*
X178804592Y-94877034D01*
X178803858Y-94871458D01*
X178745366Y-94730246D01*
X178675679Y-94639428D01*
X178675677Y-94639426D01*
X178652317Y-94608983D01*
X178628416Y-94590643D01*
X178616033Y-94579782D01*
X171178105Y-87141854D01*
X171144079Y-87079542D01*
X171141200Y-87052759D01*
X171141200Y-86882205D01*
X171142278Y-86865759D01*
X171145131Y-86844088D01*
X171146209Y-86835900D01*
X171126258Y-86684359D01*
X171067766Y-86543146D01*
X170998079Y-86452328D01*
X170998077Y-86452326D01*
X170974717Y-86421883D01*
X170950816Y-86403543D01*
X170938433Y-86392682D01*
X169449518Y-84903767D01*
X169438657Y-84891384D01*
X169420317Y-84867483D01*
X169389874Y-84844123D01*
X169389872Y-84844121D01*
X169299054Y-84774434D01*
X169157841Y-84715942D01*
X169157833Y-84715941D01*
X169044347Y-84701000D01*
X169044344Y-84701000D01*
X169044335Y-84700999D01*
X169014490Y-84697070D01*
X169014489Y-84697070D01*
X169006300Y-84695992D01*
X168998111Y-84697070D01*
X168976446Y-84699922D01*
X168960001Y-84701000D01*
X164818005Y-84701000D01*
X164801559Y-84699922D01*
X164779888Y-84697069D01*
X164771700Y-84695991D01*
X164733653Y-84701000D01*
X164649106Y-84712131D01*
X164620159Y-84715942D01*
X164612532Y-84719101D01*
X164612529Y-84719102D01*
X164549552Y-84745188D01*
X164478946Y-84774434D01*
X164388128Y-84844121D01*
X164388126Y-84844123D01*
X164357683Y-84867483D01*
X164339343Y-84891384D01*
X164328482Y-84903767D01*
X162797094Y-86435155D01*
X162734782Y-86469181D01*
X162663967Y-86464116D01*
X162607131Y-86421569D01*
X162582320Y-86355049D01*
X162581999Y-86346060D01*
X162581999Y-83671385D01*
X162583499Y-83652001D01*
X162585722Y-83637726D01*
X162585722Y-83637723D01*
X162587103Y-83628853D01*
X162585169Y-83614063D01*
X162584426Y-83588739D01*
X162596624Y-83418201D01*
X162599182Y-83400408D01*
X162640843Y-83208890D01*
X162645909Y-83191639D01*
X162714404Y-83008000D01*
X162721871Y-82991648D01*
X162815800Y-82819629D01*
X162825520Y-82804505D01*
X162942973Y-82647606D01*
X162954745Y-82634020D01*
X163093335Y-82495429D01*
X163106922Y-82483656D01*
X163263821Y-82366203D01*
X163278944Y-82356484D01*
X163407034Y-82286541D01*
X163450968Y-82262551D01*
X163467313Y-82255086D01*
X163650968Y-82186587D01*
X163668204Y-82181527D01*
X163859724Y-82139864D01*
X163877505Y-82137307D01*
X164041058Y-82125609D01*
X164057981Y-82126313D01*
X164057981Y-82126294D01*
X164066957Y-82126404D01*
X164075828Y-82127785D01*
X164084730Y-82126621D01*
X164084733Y-82126621D01*
X164106724Y-82123745D01*
X164123061Y-82122681D01*
X171455981Y-82122681D01*
X171524102Y-82142683D01*
G37*
%TD.AperFunction*%
%TA.AperFunction,Conductor*%
G36*
X168124921Y-87754302D02*
G01*
X168171414Y-87807958D01*
X168182800Y-87860300D01*
X168182800Y-89132184D01*
X168187275Y-89147423D01*
X168188665Y-89148628D01*
X168196348Y-89150299D01*
X168285500Y-89150299D01*
X168353621Y-89170301D01*
X168400114Y-89223957D01*
X168411500Y-89276299D01*
X168411500Y-92721902D01*
X168410422Y-92738347D01*
X168406492Y-92768200D01*
X168411500Y-92806241D01*
X168411500Y-92806247D01*
X168422816Y-92892197D01*
X168426442Y-92919741D01*
X168484934Y-93060954D01*
X168554621Y-93151772D01*
X168554623Y-93151774D01*
X168577983Y-93182217D01*
X168601884Y-93200557D01*
X168614267Y-93211418D01*
X170508080Y-95105231D01*
X170542106Y-95167543D01*
X170544295Y-95207492D01*
X170543230Y-95217629D01*
X170543230Y-95217635D01*
X170542540Y-95224200D01*
X170543230Y-95230765D01*
X170552151Y-95315641D01*
X170562326Y-95412456D01*
X170620821Y-95592484D01*
X170624124Y-95598206D01*
X170624125Y-95598207D01*
X170666119Y-95670942D01*
X170715467Y-95756416D01*
X170719885Y-95761323D01*
X170719886Y-95761324D01*
X170835523Y-95889751D01*
X170842129Y-95897088D01*
X170847468Y-95900967D01*
X170963674Y-95985395D01*
X170995270Y-96008351D01*
X171086440Y-96048943D01*
X171138370Y-96072064D01*
X171192466Y-96118044D01*
X171213115Y-96185971D01*
X171193762Y-96254279D01*
X171138372Y-96302276D01*
X171060270Y-96337049D01*
X171054929Y-96340929D01*
X171054928Y-96340930D01*
X171015440Y-96369620D01*
X170907129Y-96448312D01*
X170902716Y-96453214D01*
X170902714Y-96453215D01*
X170805439Y-96561250D01*
X170780467Y-96588984D01*
X170777164Y-96594705D01*
X170695440Y-96736256D01*
X170685821Y-96752916D01*
X170627326Y-96932944D01*
X170626636Y-96939505D01*
X170626636Y-96939507D01*
X170610331Y-97094649D01*
X170607540Y-97121200D01*
X170608230Y-97127765D01*
X170625853Y-97295438D01*
X170627326Y-97309456D01*
X170685821Y-97489484D01*
X170695563Y-97506356D01*
X170695618Y-97506452D01*
X170712500Y-97569454D01*
X170712500Y-100461458D01*
X170692498Y-100529579D01*
X170638842Y-100576072D01*
X170568568Y-100586176D01*
X170503988Y-100556682D01*
X170497411Y-100550560D01*
X170205641Y-100258832D01*
X166766411Y-96820093D01*
X166732381Y-96757784D01*
X166729500Y-96730992D01*
X166729500Y-92172383D01*
X166729507Y-92171063D01*
X166730367Y-92088939D01*
X166730441Y-92081893D01*
X166729733Y-92078619D01*
X166729500Y-92074018D01*
X166729500Y-89120396D01*
X166749502Y-89052275D01*
X166803158Y-89005782D01*
X166873432Y-88995678D01*
X166931065Y-89019570D01*
X167021152Y-89087086D01*
X167036746Y-89095624D01*
X167157194Y-89140778D01*
X167172449Y-89144405D01*
X167223314Y-89149931D01*
X167230128Y-89150300D01*
X167656685Y-89150300D01*
X167671924Y-89145825D01*
X167673129Y-89144435D01*
X167674800Y-89136752D01*
X167674800Y-87860300D01*
X167694802Y-87792179D01*
X167748458Y-87745686D01*
X167800800Y-87734300D01*
X168056800Y-87734300D01*
X168124921Y-87754302D01*
G37*
%TD.AperFunction*%
%TA.AperFunction,Conductor*%
G36*
X149177038Y-96532335D02*
G01*
X149234336Y-96574257D01*
X149259873Y-96640501D01*
X149260300Y-96650865D01*
X149260300Y-96977495D01*
X149240298Y-97045616D01*
X149186642Y-97092109D01*
X149116368Y-97102213D01*
X149103604Y-97099699D01*
X149007444Y-97075545D01*
X148992474Y-97073654D01*
X148848410Y-97072900D01*
X148833434Y-97074632D01*
X148800021Y-97082654D01*
X148729113Y-97079107D01*
X148671379Y-97037787D01*
X148645149Y-96971813D01*
X148645864Y-96942382D01*
X148661607Y-96831763D01*
X148662231Y-96823558D01*
X148662290Y-96817921D01*
X148661838Y-96809706D01*
X148646611Y-96683882D01*
X148658284Y-96613852D01*
X148705965Y-96561250D01*
X148774516Y-96542777D01*
X148803669Y-96546869D01*
X148819688Y-96551071D01*
X148834644Y-96553119D01*
X148978687Y-96555383D01*
X148993691Y-96553806D01*
X149106171Y-96528045D01*
X149177038Y-96532335D01*
G37*
%TD.AperFunction*%
%TD*%
M02*
