M48
; DRILL file {KiCad (6.0.0-0)} date 2022 March 09, Wednesday 17:47:02
; FORMAT={-:-/ absolute / inch / decimal}
; #@! TF.CreationDate,2022-03-09T17:47:02+01:00
; #@! TF.GenerationSoftware,Kicad,Pcbnew,(6.0.0-0)
; #@! TF.FileFunction,Plated,1,2,PTH
FMAT,2
INCH
; #@! TA.AperFunction,Plated,PTH,ComponentDrill
T1C0.0079
; #@! TA.AperFunction,Plated,PTH,ComponentDrill
T2C0.0276
; #@! TA.AperFunction,Plated,PTH,ComponentDrill
T3C0.0276
; #@! TA.AperFunction,Plated,PTH,ComponentDrill
T4C0.0354
; #@! TA.AperFunction,Plated,PTH,ComponentDrill
T5C0.0394
; #@! TA.AperFunction,Plated,PTH,ComponentDrill
T6C0.0591
; #@! TA.AperFunction,Plated,PTH,ComponentDrill
T7C0.0591
; #@! TA.AperFunction,Plated,PTH,ComponentDrill
T8C0.0709
%
G90
G05
T1
X5.4062Y-3.0252
X5.4062Y-3.0974
X5.4424Y-2.989
X5.4424Y-3.0613
X5.4424Y-3.1335
X5.4785Y-3.0252
X5.4785Y-3.0974
X5.5146Y-2.989
X5.5146Y-3.0613
X5.5146Y-3.1335
X5.5507Y-3.0252
X5.5507Y-3.0974
T2
X4.6482Y-4.2544
X4.8758Y-4.2544
T5
X3.616Y-2.641
X3.616Y-2.741
X3.616Y-2.841
X3.616Y-2.941
X3.616Y-3.041
X3.616Y-3.141
X3.616Y-3.241
X3.616Y-3.341
X3.616Y-3.441
X3.616Y-3.541
X3.616Y-3.641
X3.616Y-3.741
X3.616Y-3.841
X3.616Y-3.941
X3.616Y-4.041
X3.616Y-4.141
X4.416Y-2.641
X4.416Y-2.741
X4.416Y-2.841
X4.416Y-2.941
X4.416Y-3.041
X4.416Y-3.141
X4.416Y-3.241
X4.416Y-3.341
X4.416Y-3.441
X4.416Y-3.541
X4.416Y-3.641
X4.416Y-3.741
X5.2715Y-4.1862
X5.3116Y-4.0862
X5.3518Y-4.1862
X5.3919Y-4.0862
X5.4321Y-4.1862
X5.4723Y-4.0862
T6
X4.2047Y-3.9837
T7
X3.8078Y-2.1845
X3.9578Y-2.1845
X4.1078Y-2.1845
X4.3682Y-2.1845
X4.5182Y-2.1845
X4.6682Y-2.1845
X4.9286Y-2.1845
X5.0786Y-2.1845
X5.2286Y-2.1845
X5.489Y-2.1845
X5.639Y-2.1845
X5.789Y-2.1845
T8
X4.2047Y-4.4148
T3
G00X4.5919Y-4.2131
M15
G01X4.5919Y-4.2564
M16
G05
G00X4.5919Y-4.3875
M15
G01X4.5919Y-4.4111
M16
G05
G00X4.9321Y-4.2131
M15
G01X4.9321Y-4.2564
M16
G05
G00X4.9321Y-4.3875
M15
G01X4.9321Y-4.4111
M16
G05
T4
G00X4.0137Y-4.1452
M15
G01X4.0137Y-4.0979
M16
G05
G00X4.0137Y-4.3302
M15
G01X4.0137Y-4.283
M16
G05
G00X4.2362Y-4.2869
M15
G01X4.1732Y-4.2869
M16
G05
G00X4.3956Y-4.1452
M15
G01X4.3956Y-4.0979
M16
G05
G00X4.3956Y-4.3302
M15
G01X4.3956Y-4.283
M16
G05
T0
M30
