%TF.GenerationSoftware,KiCad,Pcbnew,(6.0.0-0)*%
%TF.CreationDate,2022-02-02T11:17:39+01:00*%
%TF.ProjectId,GlowCore,476c6f77-436f-4726-952e-6b696361645f,rev?*%
%TF.SameCoordinates,Original*%
%TF.FileFunction,Legend,Top*%
%TF.FilePolarity,Positive*%
%FSLAX46Y46*%
G04 Gerber Fmt 4.6, Leading zero omitted, Abs format (unit mm)*
G04 Created by KiCad (PCBNEW (6.0.0-0)) date 2022-02-02 11:17:39*
%MOMM*%
%LPD*%
G01*
G04 APERTURE LIST*
%ADD10C,0.150000*%
%ADD11C,0.120000*%
%ADD12C,0.059995*%
%ADD13C,0.200000*%
%ADD14C,0.254001*%
%ADD15C,0.250000*%
%ADD16C,0.127000*%
%ADD17C,0.100000*%
G04 APERTURE END LIST*
D10*
%TO.C,D1*%
X163447504Y-110942380D02*
X163447504Y-109942380D01*
X163685600Y-109942380D01*
X163828457Y-109990000D01*
X163923695Y-110085238D01*
X163971314Y-110180476D01*
X164018933Y-110370952D01*
X164018933Y-110513809D01*
X163971314Y-110704285D01*
X163923695Y-110799523D01*
X163828457Y-110894761D01*
X163685600Y-110942380D01*
X163447504Y-110942380D01*
X164971314Y-110942380D02*
X164399885Y-110942380D01*
X164685600Y-110942380D02*
X164685600Y-109942380D01*
X164590361Y-110085238D01*
X164495123Y-110180476D01*
X164399885Y-110228095D01*
%TO.C,R17*%
X174179780Y-120906357D02*
X173703590Y-121239690D01*
X174179780Y-121477785D02*
X173179780Y-121477785D01*
X173179780Y-121096833D01*
X173227400Y-121001595D01*
X173275019Y-120953976D01*
X173370257Y-120906357D01*
X173513114Y-120906357D01*
X173608352Y-120953976D01*
X173655971Y-121001595D01*
X173703590Y-121096833D01*
X173703590Y-121477785D01*
X174179780Y-119953976D02*
X174179780Y-120525404D01*
X174179780Y-120239690D02*
X173179780Y-120239690D01*
X173322638Y-120334928D01*
X173417876Y-120430166D01*
X173465495Y-120525404D01*
X173179780Y-119620642D02*
X173179780Y-118953976D01*
X174179780Y-119382547D01*
%TO.C,R7*%
X129433904Y-119841633D02*
X129052952Y-120108300D01*
X129433904Y-120298776D02*
X128633904Y-120298776D01*
X128633904Y-119994014D01*
X128672000Y-119917823D01*
X128710095Y-119879728D01*
X128786285Y-119841633D01*
X128900571Y-119841633D01*
X128976761Y-119879728D01*
X129014857Y-119917823D01*
X129052952Y-119994014D01*
X129052952Y-120298776D01*
X128633904Y-119574966D02*
X128633904Y-119041633D01*
X129433904Y-119384490D01*
%TO.C,P1*%
X124201180Y-131548095D02*
X123201180Y-131548095D01*
X123201180Y-131167142D01*
X123248800Y-131071904D01*
X123296419Y-131024285D01*
X123391657Y-130976666D01*
X123534514Y-130976666D01*
X123629752Y-131024285D01*
X123677371Y-131071904D01*
X123724990Y-131167142D01*
X123724990Y-131548095D01*
X124201180Y-130024285D02*
X124201180Y-130595714D01*
X124201180Y-130310000D02*
X123201180Y-130310000D01*
X123344038Y-130405238D01*
X123439276Y-130500476D01*
X123486895Y-130595714D01*
%TO.C,SW2*%
X174013761Y-135927933D02*
X174061380Y-135785076D01*
X174061380Y-135546980D01*
X174013761Y-135451742D01*
X173966142Y-135404123D01*
X173870904Y-135356504D01*
X173775666Y-135356504D01*
X173680428Y-135404123D01*
X173632809Y-135451742D01*
X173585190Y-135546980D01*
X173537571Y-135737457D01*
X173489952Y-135832695D01*
X173442333Y-135880314D01*
X173347095Y-135927933D01*
X173251857Y-135927933D01*
X173156619Y-135880314D01*
X173109000Y-135832695D01*
X173061380Y-135737457D01*
X173061380Y-135499361D01*
X173109000Y-135356504D01*
X173061380Y-135023171D02*
X174061380Y-134785076D01*
X173347095Y-134594600D01*
X174061380Y-134404123D01*
X173061380Y-134166028D01*
X173156619Y-133832695D02*
X173109000Y-133785076D01*
X173061380Y-133689838D01*
X173061380Y-133451742D01*
X173109000Y-133356504D01*
X173156619Y-133308885D01*
X173251857Y-133261266D01*
X173347095Y-133261266D01*
X173489952Y-133308885D01*
X174061380Y-133880314D01*
X174061380Y-133261266D01*
%TO.C,C19*%
X148517842Y-130538457D02*
X148565461Y-130586076D01*
X148613080Y-130728933D01*
X148613080Y-130824171D01*
X148565461Y-130967028D01*
X148470223Y-131062266D01*
X148374985Y-131109885D01*
X148184509Y-131157504D01*
X148041652Y-131157504D01*
X147851176Y-131109885D01*
X147755938Y-131062266D01*
X147660700Y-130967028D01*
X147613080Y-130824171D01*
X147613080Y-130728933D01*
X147660700Y-130586076D01*
X147708319Y-130538457D01*
X148613080Y-129586076D02*
X148613080Y-130157504D01*
X148613080Y-129871790D02*
X147613080Y-129871790D01*
X147755938Y-129967028D01*
X147851176Y-130062266D01*
X147898795Y-130157504D01*
X148613080Y-129109885D02*
X148613080Y-128919409D01*
X148565461Y-128824171D01*
X148517842Y-128776552D01*
X148374985Y-128681314D01*
X148184509Y-128633695D01*
X147803557Y-128633695D01*
X147708319Y-128681314D01*
X147660700Y-128728933D01*
X147613080Y-128824171D01*
X147613080Y-129014647D01*
X147660700Y-129109885D01*
X147708319Y-129157504D01*
X147803557Y-129205123D01*
X148041652Y-129205123D01*
X148136890Y-129157504D01*
X148184509Y-129109885D01*
X148232128Y-129014647D01*
X148232128Y-128824171D01*
X148184509Y-128728933D01*
X148136890Y-128681314D01*
X148041652Y-128633695D01*
%TO.C,C12*%
X162320242Y-132545057D02*
X162367861Y-132592676D01*
X162415480Y-132735533D01*
X162415480Y-132830771D01*
X162367861Y-132973628D01*
X162272623Y-133068866D01*
X162177385Y-133116485D01*
X161986909Y-133164104D01*
X161844052Y-133164104D01*
X161653576Y-133116485D01*
X161558338Y-133068866D01*
X161463100Y-132973628D01*
X161415480Y-132830771D01*
X161415480Y-132735533D01*
X161463100Y-132592676D01*
X161510719Y-132545057D01*
X162415480Y-131592676D02*
X162415480Y-132164104D01*
X162415480Y-131878390D02*
X161415480Y-131878390D01*
X161558338Y-131973628D01*
X161653576Y-132068866D01*
X161701195Y-132164104D01*
X161510719Y-131211723D02*
X161463100Y-131164104D01*
X161415480Y-131068866D01*
X161415480Y-130830771D01*
X161463100Y-130735533D01*
X161510719Y-130687914D01*
X161605957Y-130640295D01*
X161701195Y-130640295D01*
X161844052Y-130687914D01*
X162415480Y-131259342D01*
X162415480Y-130640295D01*
%TO.C,C13*%
X166244542Y-100464857D02*
X166292161Y-100512476D01*
X166339780Y-100655333D01*
X166339780Y-100750571D01*
X166292161Y-100893428D01*
X166196923Y-100988666D01*
X166101685Y-101036285D01*
X165911209Y-101083904D01*
X165768352Y-101083904D01*
X165577876Y-101036285D01*
X165482638Y-100988666D01*
X165387400Y-100893428D01*
X165339780Y-100750571D01*
X165339780Y-100655333D01*
X165387400Y-100512476D01*
X165435019Y-100464857D01*
X166339780Y-99512476D02*
X166339780Y-100083904D01*
X166339780Y-99798190D02*
X165339780Y-99798190D01*
X165482638Y-99893428D01*
X165577876Y-99988666D01*
X165625495Y-100083904D01*
X165339780Y-99179142D02*
X165339780Y-98560095D01*
X165720733Y-98893428D01*
X165720733Y-98750571D01*
X165768352Y-98655333D01*
X165815971Y-98607714D01*
X165911209Y-98560095D01*
X166149304Y-98560095D01*
X166244542Y-98607714D01*
X166292161Y-98655333D01*
X166339780Y-98750571D01*
X166339780Y-99036285D01*
X166292161Y-99131523D01*
X166244542Y-99179142D01*
%TO.C,U6*%
X158546895Y-116114580D02*
X158546895Y-116924104D01*
X158594514Y-117019342D01*
X158642133Y-117066961D01*
X158737371Y-117114580D01*
X158927847Y-117114580D01*
X159023085Y-117066961D01*
X159070704Y-117019342D01*
X159118323Y-116924104D01*
X159118323Y-116114580D01*
X160023085Y-116114580D02*
X159832609Y-116114580D01*
X159737371Y-116162200D01*
X159689752Y-116209819D01*
X159594514Y-116352676D01*
X159546895Y-116543152D01*
X159546895Y-116924104D01*
X159594514Y-117019342D01*
X159642133Y-117066961D01*
X159737371Y-117114580D01*
X159927847Y-117114580D01*
X160023085Y-117066961D01*
X160070704Y-117019342D01*
X160118323Y-116924104D01*
X160118323Y-116686009D01*
X160070704Y-116590771D01*
X160023085Y-116543152D01*
X159927847Y-116495533D01*
X159737371Y-116495533D01*
X159642133Y-116543152D01*
X159594514Y-116590771D01*
X159546895Y-116686009D01*
%TO.C,C2*%
X167006542Y-90768466D02*
X167054161Y-90816085D01*
X167101780Y-90958942D01*
X167101780Y-91054180D01*
X167054161Y-91197038D01*
X166958923Y-91292276D01*
X166863685Y-91339895D01*
X166673209Y-91387514D01*
X166530352Y-91387514D01*
X166339876Y-91339895D01*
X166244638Y-91292276D01*
X166149400Y-91197038D01*
X166101780Y-91054180D01*
X166101780Y-90958942D01*
X166149400Y-90816085D01*
X166197019Y-90768466D01*
X166197019Y-90387514D02*
X166149400Y-90339895D01*
X166101780Y-90244657D01*
X166101780Y-90006561D01*
X166149400Y-89911323D01*
X166197019Y-89863704D01*
X166292257Y-89816085D01*
X166387495Y-89816085D01*
X166530352Y-89863704D01*
X167101780Y-90435133D01*
X167101780Y-89816085D01*
%TO.C,Q3*%
X167536419Y-117410438D02*
X167488800Y-117505676D01*
X167393561Y-117600914D01*
X167250704Y-117743771D01*
X167203085Y-117839009D01*
X167203085Y-117934247D01*
X167441180Y-117886628D02*
X167393561Y-117981866D01*
X167298323Y-118077104D01*
X167107847Y-118124723D01*
X166774514Y-118124723D01*
X166584038Y-118077104D01*
X166488800Y-117981866D01*
X166441180Y-117886628D01*
X166441180Y-117696152D01*
X166488800Y-117600914D01*
X166584038Y-117505676D01*
X166774514Y-117458057D01*
X167107847Y-117458057D01*
X167298323Y-117505676D01*
X167393561Y-117600914D01*
X167441180Y-117696152D01*
X167441180Y-117886628D01*
X166441180Y-117124723D02*
X166441180Y-116505676D01*
X166822133Y-116839009D01*
X166822133Y-116696152D01*
X166869752Y-116600914D01*
X166917371Y-116553295D01*
X167012609Y-116505676D01*
X167250704Y-116505676D01*
X167345942Y-116553295D01*
X167393561Y-116600914D01*
X167441180Y-116696152D01*
X167441180Y-116981866D01*
X167393561Y-117077104D01*
X167345942Y-117124723D01*
%TO.C,P2*%
X124120383Y-117116297D02*
X123120383Y-117116297D01*
X123120383Y-116735344D01*
X123168003Y-116640106D01*
X123215622Y-116592487D01*
X123310860Y-116544868D01*
X123453717Y-116544868D01*
X123548955Y-116592487D01*
X123596574Y-116640106D01*
X123644193Y-116735344D01*
X123644193Y-117116297D01*
X123215622Y-116163916D02*
X123168003Y-116116297D01*
X123120383Y-116021059D01*
X123120383Y-115782963D01*
X123168003Y-115687725D01*
X123215622Y-115640106D01*
X123310860Y-115592487D01*
X123406098Y-115592487D01*
X123548955Y-115640106D01*
X124120383Y-116211535D01*
X124120383Y-115592487D01*
%TO.C,P4*%
X123586983Y-88566695D02*
X122586983Y-88566695D01*
X122586983Y-88185742D01*
X122634603Y-88090504D01*
X122682222Y-88042885D01*
X122777460Y-87995266D01*
X122920317Y-87995266D01*
X123015555Y-88042885D01*
X123063174Y-88090504D01*
X123110793Y-88185742D01*
X123110793Y-88566695D01*
X122920317Y-87138123D02*
X123586983Y-87138123D01*
X122539364Y-87376219D02*
X123253650Y-87614314D01*
X123253650Y-86995266D01*
%TO.C,R8*%
X129343104Y-91268533D02*
X128962152Y-91535200D01*
X129343104Y-91725676D02*
X128543104Y-91725676D01*
X128543104Y-91420914D01*
X128581200Y-91344723D01*
X128619295Y-91306628D01*
X128695485Y-91268533D01*
X128809771Y-91268533D01*
X128885961Y-91306628D01*
X128924057Y-91344723D01*
X128962152Y-91420914D01*
X128962152Y-91725676D01*
X128885961Y-90811390D02*
X128847866Y-90887580D01*
X128809771Y-90925676D01*
X128733580Y-90963771D01*
X128695485Y-90963771D01*
X128619295Y-90925676D01*
X128581200Y-90887580D01*
X128543104Y-90811390D01*
X128543104Y-90659009D01*
X128581200Y-90582819D01*
X128619295Y-90544723D01*
X128695485Y-90506628D01*
X128733580Y-90506628D01*
X128809771Y-90544723D01*
X128847866Y-90582819D01*
X128885961Y-90659009D01*
X128885961Y-90811390D01*
X128924057Y-90887580D01*
X128962152Y-90925676D01*
X129038342Y-90963771D01*
X129190723Y-90963771D01*
X129266914Y-90925676D01*
X129305009Y-90887580D01*
X129343104Y-90811390D01*
X129343104Y-90659009D01*
X129305009Y-90582819D01*
X129266914Y-90544723D01*
X129190723Y-90506628D01*
X129038342Y-90506628D01*
X128962152Y-90544723D01*
X128924057Y-90582819D01*
X128885961Y-90659009D01*
%TO.C,P3*%
X123536183Y-102714496D02*
X122536183Y-102714496D01*
X122536183Y-102333543D01*
X122583803Y-102238305D01*
X122631422Y-102190686D01*
X122726660Y-102143067D01*
X122869517Y-102143067D01*
X122964755Y-102190686D01*
X123012374Y-102238305D01*
X123059993Y-102333543D01*
X123059993Y-102714496D01*
X122536183Y-101809734D02*
X122536183Y-101190686D01*
X122917136Y-101524020D01*
X122917136Y-101381162D01*
X122964755Y-101285924D01*
X123012374Y-101238305D01*
X123107612Y-101190686D01*
X123345707Y-101190686D01*
X123440945Y-101238305D01*
X123488564Y-101285924D01*
X123536183Y-101381162D01*
X123536183Y-101666877D01*
X123488564Y-101762115D01*
X123440945Y-101809734D01*
%TO.C,C7*%
X137445714Y-111893333D02*
X137483809Y-111931428D01*
X137521904Y-112045714D01*
X137521904Y-112121904D01*
X137483809Y-112236190D01*
X137407619Y-112312380D01*
X137331428Y-112350476D01*
X137179047Y-112388571D01*
X137064761Y-112388571D01*
X136912380Y-112350476D01*
X136836190Y-112312380D01*
X136760000Y-112236190D01*
X136721904Y-112121904D01*
X136721904Y-112045714D01*
X136760000Y-111931428D01*
X136798095Y-111893333D01*
X136721904Y-111626666D02*
X136721904Y-111093333D01*
X137521904Y-111436190D01*
%TO.C,MK1*%
X148164173Y-127875185D02*
X148164173Y-127231954D01*
X148378584Y-127691405D01*
X148592994Y-127231954D01*
X148592994Y-127875185D01*
X148899294Y-127875185D02*
X148899294Y-127231954D01*
X149266855Y-127875185D02*
X148991184Y-127507624D01*
X149266855Y-127231954D02*
X148899294Y-127599515D01*
X149879456Y-127875185D02*
X149511895Y-127875185D01*
X149695676Y-127875185D02*
X149695676Y-127231954D01*
X149634415Y-127323844D01*
X149573155Y-127385104D01*
X149511895Y-127415734D01*
%TO.C,SW1*%
X175314216Y-92021860D02*
X175323238Y-91871545D01*
X175261614Y-91641563D01*
X175190968Y-91561895D01*
X175132647Y-91528223D01*
X175028330Y-91506876D01*
X174936337Y-91531525D01*
X174856668Y-91602171D01*
X174822997Y-91660493D01*
X174801650Y-91764810D01*
X174804952Y-91961121D01*
X174783605Y-92065438D01*
X174749933Y-92123760D01*
X174670265Y-92194406D01*
X174578272Y-92219055D01*
X174473954Y-92197708D01*
X174415633Y-92164036D01*
X174344987Y-92084368D01*
X174283364Y-91854386D01*
X174292386Y-91704072D01*
X174160117Y-91394421D02*
X175064419Y-90905620D01*
X174325173Y-90906504D01*
X174965821Y-90537648D01*
X173938272Y-90566485D01*
X174670028Y-89433733D02*
X174817924Y-89985690D01*
X174743976Y-89709711D02*
X173778050Y-89968530D01*
X173940689Y-90023549D01*
X174057332Y-90090893D01*
X174127977Y-90170561D01*
%TO.C,R19*%
X130932180Y-87714057D02*
X130455990Y-88047390D01*
X130932180Y-88285485D02*
X129932180Y-88285485D01*
X129932180Y-87904533D01*
X129979800Y-87809295D01*
X130027419Y-87761676D01*
X130122657Y-87714057D01*
X130265514Y-87714057D01*
X130360752Y-87761676D01*
X130408371Y-87809295D01*
X130455990Y-87904533D01*
X130455990Y-88285485D01*
X130932180Y-86761676D02*
X130932180Y-87333104D01*
X130932180Y-87047390D02*
X129932180Y-87047390D01*
X130075038Y-87142628D01*
X130170276Y-87237866D01*
X130217895Y-87333104D01*
X130932180Y-86285485D02*
X130932180Y-86095009D01*
X130884561Y-85999771D01*
X130836942Y-85952152D01*
X130694085Y-85856914D01*
X130503609Y-85809295D01*
X130122657Y-85809295D01*
X130027419Y-85856914D01*
X129979800Y-85904533D01*
X129932180Y-85999771D01*
X129932180Y-86190247D01*
X129979800Y-86285485D01*
X130027419Y-86333104D01*
X130122657Y-86380723D01*
X130360752Y-86380723D01*
X130455990Y-86333104D01*
X130503609Y-86285485D01*
X130551228Y-86190247D01*
X130551228Y-85999771D01*
X130503609Y-85904533D01*
X130455990Y-85856914D01*
X130360752Y-85809295D01*
%TO.C,USB1*%
X178065180Y-110780295D02*
X178874704Y-110780295D01*
X178969942Y-110732676D01*
X179017561Y-110685057D01*
X179065180Y-110589819D01*
X179065180Y-110399342D01*
X179017561Y-110304104D01*
X178969942Y-110256485D01*
X178874704Y-110208866D01*
X178065180Y-110208866D01*
X179017561Y-109780295D02*
X179065180Y-109637438D01*
X179065180Y-109399342D01*
X179017561Y-109304104D01*
X178969942Y-109256485D01*
X178874704Y-109208866D01*
X178779466Y-109208866D01*
X178684228Y-109256485D01*
X178636609Y-109304104D01*
X178588990Y-109399342D01*
X178541371Y-109589819D01*
X178493752Y-109685057D01*
X178446133Y-109732676D01*
X178350895Y-109780295D01*
X178255657Y-109780295D01*
X178160419Y-109732676D01*
X178112800Y-109685057D01*
X178065180Y-109589819D01*
X178065180Y-109351723D01*
X178112800Y-109208866D01*
X178541371Y-108446961D02*
X178588990Y-108304104D01*
X178636609Y-108256485D01*
X178731847Y-108208866D01*
X178874704Y-108208866D01*
X178969942Y-108256485D01*
X179017561Y-108304104D01*
X179065180Y-108399342D01*
X179065180Y-108780295D01*
X178065180Y-108780295D01*
X178065180Y-108446961D01*
X178112800Y-108351723D01*
X178160419Y-108304104D01*
X178255657Y-108256485D01*
X178350895Y-108256485D01*
X178446133Y-108304104D01*
X178493752Y-108351723D01*
X178541371Y-108446961D01*
X178541371Y-108780295D01*
X179065180Y-107256485D02*
X179065180Y-107827914D01*
X179065180Y-107542200D02*
X178065180Y-107542200D01*
X178208038Y-107637438D01*
X178303276Y-107732676D01*
X178350895Y-107827914D01*
%TO.C,R6*%
X129433904Y-133534133D02*
X129052952Y-133800800D01*
X129433904Y-133991276D02*
X128633904Y-133991276D01*
X128633904Y-133686514D01*
X128672000Y-133610323D01*
X128710095Y-133572228D01*
X128786285Y-133534133D01*
X128900571Y-133534133D01*
X128976761Y-133572228D01*
X129014857Y-133610323D01*
X129052952Y-133686514D01*
X129052952Y-133991276D01*
X128633904Y-132848419D02*
X128633904Y-133000800D01*
X128672000Y-133076990D01*
X128710095Y-133115085D01*
X128824380Y-133191276D01*
X128976761Y-133229371D01*
X129281523Y-133229371D01*
X129357714Y-133191276D01*
X129395809Y-133153180D01*
X129433904Y-133076990D01*
X129433904Y-132924609D01*
X129395809Y-132848419D01*
X129357714Y-132810323D01*
X129281523Y-132772228D01*
X129091047Y-132772228D01*
X129014857Y-132810323D01*
X128976761Y-132848419D01*
X128938666Y-132924609D01*
X128938666Y-133076990D01*
X128976761Y-133153180D01*
X129014857Y-133191276D01*
X129091047Y-133229371D01*
%TO.C,D3*%
X160094704Y-91155780D02*
X160094704Y-90155780D01*
X160332800Y-90155780D01*
X160475657Y-90203400D01*
X160570895Y-90298638D01*
X160618514Y-90393876D01*
X160666133Y-90584352D01*
X160666133Y-90727209D01*
X160618514Y-90917685D01*
X160570895Y-91012923D01*
X160475657Y-91108161D01*
X160332800Y-91155780D01*
X160094704Y-91155780D01*
X160999466Y-90155780D02*
X161618514Y-90155780D01*
X161285180Y-90536733D01*
X161428038Y-90536733D01*
X161523276Y-90584352D01*
X161570895Y-90631971D01*
X161618514Y-90727209D01*
X161618514Y-90965304D01*
X161570895Y-91060542D01*
X161523276Y-91108161D01*
X161428038Y-91155780D01*
X161142323Y-91155780D01*
X161047085Y-91108161D01*
X160999466Y-91060542D01*
%TO.C,U4*%
X158151580Y-99491704D02*
X158961104Y-99491704D01*
X159056342Y-99444085D01*
X159103961Y-99396466D01*
X159151580Y-99301228D01*
X159151580Y-99110752D01*
X159103961Y-99015514D01*
X159056342Y-98967895D01*
X158961104Y-98920276D01*
X158151580Y-98920276D01*
X158484914Y-98015514D02*
X159151580Y-98015514D01*
X158103961Y-98253609D02*
X158818247Y-98491704D01*
X158818247Y-97872657D01*
%TO.C,C17*%
X159681942Y-126874542D02*
X159634323Y-126922161D01*
X159491466Y-126969780D01*
X159396228Y-126969780D01*
X159253371Y-126922161D01*
X159158133Y-126826923D01*
X159110514Y-126731685D01*
X159062895Y-126541209D01*
X159062895Y-126398352D01*
X159110514Y-126207876D01*
X159158133Y-126112638D01*
X159253371Y-126017400D01*
X159396228Y-125969780D01*
X159491466Y-125969780D01*
X159634323Y-126017400D01*
X159681942Y-126065019D01*
X160634323Y-126969780D02*
X160062895Y-126969780D01*
X160348609Y-126969780D02*
X160348609Y-125969780D01*
X160253371Y-126112638D01*
X160158133Y-126207876D01*
X160062895Y-126255495D01*
X160967657Y-125969780D02*
X161634323Y-125969780D01*
X161205752Y-126969780D01*
%TO.C,C20*%
X152366742Y-120803942D02*
X152319123Y-120851561D01*
X152176266Y-120899180D01*
X152081028Y-120899180D01*
X151938171Y-120851561D01*
X151842933Y-120756323D01*
X151795314Y-120661085D01*
X151747695Y-120470609D01*
X151747695Y-120327752D01*
X151795314Y-120137276D01*
X151842933Y-120042038D01*
X151938171Y-119946800D01*
X152081028Y-119899180D01*
X152176266Y-119899180D01*
X152319123Y-119946800D01*
X152366742Y-119994419D01*
X152747695Y-119994419D02*
X152795314Y-119946800D01*
X152890552Y-119899180D01*
X153128647Y-119899180D01*
X153223885Y-119946800D01*
X153271504Y-119994419D01*
X153319123Y-120089657D01*
X153319123Y-120184895D01*
X153271504Y-120327752D01*
X152700076Y-120899180D01*
X153319123Y-120899180D01*
X153938171Y-119899180D02*
X154033409Y-119899180D01*
X154128647Y-119946800D01*
X154176266Y-119994419D01*
X154223885Y-120089657D01*
X154271504Y-120280133D01*
X154271504Y-120518228D01*
X154223885Y-120708704D01*
X154176266Y-120803942D01*
X154128647Y-120851561D01*
X154033409Y-120899180D01*
X153938171Y-120899180D01*
X153842933Y-120851561D01*
X153795314Y-120803942D01*
X153747695Y-120708704D01*
X153700076Y-120518228D01*
X153700076Y-120280133D01*
X153747695Y-120089657D01*
X153795314Y-119994419D01*
X153842933Y-119946800D01*
X153938171Y-119899180D01*
%TO.C,R16*%
X151564042Y-125311180D02*
X151230709Y-124834990D01*
X150992614Y-125311180D02*
X150992614Y-124311180D01*
X151373566Y-124311180D01*
X151468804Y-124358800D01*
X151516423Y-124406419D01*
X151564042Y-124501657D01*
X151564042Y-124644514D01*
X151516423Y-124739752D01*
X151468804Y-124787371D01*
X151373566Y-124834990D01*
X150992614Y-124834990D01*
X152516423Y-125311180D02*
X151944995Y-125311180D01*
X152230709Y-125311180D02*
X152230709Y-124311180D01*
X152135471Y-124454038D01*
X152040233Y-124549276D01*
X151944995Y-124596895D01*
X153373566Y-124311180D02*
X153183090Y-124311180D01*
X153087852Y-124358800D01*
X153040233Y-124406419D01*
X152944995Y-124549276D01*
X152897376Y-124739752D01*
X152897376Y-125120704D01*
X152944995Y-125215942D01*
X152992614Y-125263561D01*
X153087852Y-125311180D01*
X153278328Y-125311180D01*
X153373566Y-125263561D01*
X153421185Y-125215942D01*
X153468804Y-125120704D01*
X153468804Y-124882609D01*
X153421185Y-124787371D01*
X153373566Y-124739752D01*
X153278328Y-124692133D01*
X153087852Y-124692133D01*
X152992614Y-124739752D01*
X152944995Y-124787371D01*
X152897376Y-124882609D01*
%TO.C,L1*%
X178277774Y-130710520D02*
X178277774Y-131186710D01*
X177277774Y-131186710D01*
X178277774Y-129853377D02*
X178277774Y-130424805D01*
X178277774Y-130139091D02*
X177277774Y-130139091D01*
X177420632Y-130234329D01*
X177515870Y-130329567D01*
X177563489Y-130424805D01*
%TO.C,R18*%
X165960380Y-120777457D02*
X165484190Y-121110790D01*
X165960380Y-121348885D02*
X164960380Y-121348885D01*
X164960380Y-120967933D01*
X165008000Y-120872695D01*
X165055619Y-120825076D01*
X165150857Y-120777457D01*
X165293714Y-120777457D01*
X165388952Y-120825076D01*
X165436571Y-120872695D01*
X165484190Y-120967933D01*
X165484190Y-121348885D01*
X165960380Y-119825076D02*
X165960380Y-120396504D01*
X165960380Y-120110790D02*
X164960380Y-120110790D01*
X165103238Y-120206028D01*
X165198476Y-120301266D01*
X165246095Y-120396504D01*
X165388952Y-119253647D02*
X165341333Y-119348885D01*
X165293714Y-119396504D01*
X165198476Y-119444123D01*
X165150857Y-119444123D01*
X165055619Y-119396504D01*
X165008000Y-119348885D01*
X164960380Y-119253647D01*
X164960380Y-119063171D01*
X165008000Y-118967933D01*
X165055619Y-118920314D01*
X165150857Y-118872695D01*
X165198476Y-118872695D01*
X165293714Y-118920314D01*
X165341333Y-118967933D01*
X165388952Y-119063171D01*
X165388952Y-119253647D01*
X165436571Y-119348885D01*
X165484190Y-119396504D01*
X165579428Y-119444123D01*
X165769904Y-119444123D01*
X165865142Y-119396504D01*
X165912761Y-119348885D01*
X165960380Y-119253647D01*
X165960380Y-119063171D01*
X165912761Y-118967933D01*
X165865142Y-118920314D01*
X165769904Y-118872695D01*
X165579428Y-118872695D01*
X165484190Y-118920314D01*
X165436571Y-118967933D01*
X165388952Y-119063171D01*
%TO.C,R20*%
X171111942Y-131313180D02*
X170778609Y-130836990D01*
X170540514Y-131313180D02*
X170540514Y-130313180D01*
X170921466Y-130313180D01*
X171016704Y-130360800D01*
X171064323Y-130408419D01*
X171111942Y-130503657D01*
X171111942Y-130646514D01*
X171064323Y-130741752D01*
X171016704Y-130789371D01*
X170921466Y-130836990D01*
X170540514Y-130836990D01*
X171492895Y-130408419D02*
X171540514Y-130360800D01*
X171635752Y-130313180D01*
X171873847Y-130313180D01*
X171969085Y-130360800D01*
X172016704Y-130408419D01*
X172064323Y-130503657D01*
X172064323Y-130598895D01*
X172016704Y-130741752D01*
X171445276Y-131313180D01*
X172064323Y-131313180D01*
X172683371Y-130313180D02*
X172778609Y-130313180D01*
X172873847Y-130360800D01*
X172921466Y-130408419D01*
X172969085Y-130503657D01*
X173016704Y-130694133D01*
X173016704Y-130932228D01*
X172969085Y-131122704D01*
X172921466Y-131217942D01*
X172873847Y-131265561D01*
X172778609Y-131313180D01*
X172683371Y-131313180D01*
X172588133Y-131265561D01*
X172540514Y-131217942D01*
X172492895Y-131122704D01*
X172445276Y-130932228D01*
X172445276Y-130694133D01*
X172492895Y-130503657D01*
X172540514Y-130408419D01*
X172588133Y-130360800D01*
X172683371Y-130313180D01*
%TO.C,C9*%
X132233942Y-88406266D02*
X132281561Y-88453885D01*
X132329180Y-88596742D01*
X132329180Y-88691980D01*
X132281561Y-88834838D01*
X132186323Y-88930076D01*
X132091085Y-88977695D01*
X131900609Y-89025314D01*
X131757752Y-89025314D01*
X131567276Y-88977695D01*
X131472038Y-88930076D01*
X131376800Y-88834838D01*
X131329180Y-88691980D01*
X131329180Y-88596742D01*
X131376800Y-88453885D01*
X131424419Y-88406266D01*
X132329180Y-87930076D02*
X132329180Y-87739600D01*
X132281561Y-87644361D01*
X132233942Y-87596742D01*
X132091085Y-87501504D01*
X131900609Y-87453885D01*
X131519657Y-87453885D01*
X131424419Y-87501504D01*
X131376800Y-87549123D01*
X131329180Y-87644361D01*
X131329180Y-87834838D01*
X131376800Y-87930076D01*
X131424419Y-87977695D01*
X131519657Y-88025314D01*
X131757752Y-88025314D01*
X131852990Y-87977695D01*
X131900609Y-87930076D01*
X131948228Y-87834838D01*
X131948228Y-87644361D01*
X131900609Y-87549123D01*
X131852990Y-87501504D01*
X131757752Y-87453885D01*
%TO.C,D2*%
X163472904Y-91181180D02*
X163472904Y-90181180D01*
X163711000Y-90181180D01*
X163853857Y-90228800D01*
X163949095Y-90324038D01*
X163996714Y-90419276D01*
X164044333Y-90609752D01*
X164044333Y-90752609D01*
X163996714Y-90943085D01*
X163949095Y-91038323D01*
X163853857Y-91133561D01*
X163711000Y-91181180D01*
X163472904Y-91181180D01*
X164425285Y-90276419D02*
X164472904Y-90228800D01*
X164568142Y-90181180D01*
X164806238Y-90181180D01*
X164901476Y-90228800D01*
X164949095Y-90276419D01*
X164996714Y-90371657D01*
X164996714Y-90466895D01*
X164949095Y-90609752D01*
X164377666Y-91181180D01*
X164996714Y-91181180D01*
%TO.C,R4*%
X159049980Y-96204066D02*
X158573790Y-96537400D01*
X159049980Y-96775495D02*
X158049980Y-96775495D01*
X158049980Y-96394542D01*
X158097600Y-96299304D01*
X158145219Y-96251685D01*
X158240457Y-96204066D01*
X158383314Y-96204066D01*
X158478552Y-96251685D01*
X158526171Y-96299304D01*
X158573790Y-96394542D01*
X158573790Y-96775495D01*
X158383314Y-95346923D02*
X159049980Y-95346923D01*
X158002361Y-95585019D02*
X158716647Y-95823114D01*
X158716647Y-95204066D01*
%TO.C,R5*%
X166911280Y-131560866D02*
X166435090Y-131894200D01*
X166911280Y-132132295D02*
X165911280Y-132132295D01*
X165911280Y-131751342D01*
X165958900Y-131656104D01*
X166006519Y-131608485D01*
X166101757Y-131560866D01*
X166244614Y-131560866D01*
X166339852Y-131608485D01*
X166387471Y-131656104D01*
X166435090Y-131751342D01*
X166435090Y-132132295D01*
X165911280Y-130656104D02*
X165911280Y-131132295D01*
X166387471Y-131179914D01*
X166339852Y-131132295D01*
X166292233Y-131037057D01*
X166292233Y-130798961D01*
X166339852Y-130703723D01*
X166387471Y-130656104D01*
X166482709Y-130608485D01*
X166720804Y-130608485D01*
X166816042Y-130656104D01*
X166863661Y-130703723D01*
X166911280Y-130798961D01*
X166911280Y-131037057D01*
X166863661Y-131132295D01*
X166816042Y-131179914D01*
%TO.C,R3*%
X159024580Y-94070466D02*
X158548390Y-94403800D01*
X159024580Y-94641895D02*
X158024580Y-94641895D01*
X158024580Y-94260942D01*
X158072200Y-94165704D01*
X158119819Y-94118085D01*
X158215057Y-94070466D01*
X158357914Y-94070466D01*
X158453152Y-94118085D01*
X158500771Y-94165704D01*
X158548390Y-94260942D01*
X158548390Y-94641895D01*
X158024580Y-93737133D02*
X158024580Y-93118085D01*
X158405533Y-93451419D01*
X158405533Y-93308561D01*
X158453152Y-93213323D01*
X158500771Y-93165704D01*
X158596009Y-93118085D01*
X158834104Y-93118085D01*
X158929342Y-93165704D01*
X158976961Y-93213323D01*
X159024580Y-93308561D01*
X159024580Y-93594276D01*
X158976961Y-93689514D01*
X158929342Y-93737133D01*
%TO.C,C16*%
X155846542Y-126874542D02*
X155798923Y-126922161D01*
X155656066Y-126969780D01*
X155560828Y-126969780D01*
X155417971Y-126922161D01*
X155322733Y-126826923D01*
X155275114Y-126731685D01*
X155227495Y-126541209D01*
X155227495Y-126398352D01*
X155275114Y-126207876D01*
X155322733Y-126112638D01*
X155417971Y-126017400D01*
X155560828Y-125969780D01*
X155656066Y-125969780D01*
X155798923Y-126017400D01*
X155846542Y-126065019D01*
X156798923Y-126969780D02*
X156227495Y-126969780D01*
X156513209Y-126969780D02*
X156513209Y-125969780D01*
X156417971Y-126112638D01*
X156322733Y-126207876D01*
X156227495Y-126255495D01*
X157656066Y-125969780D02*
X157465590Y-125969780D01*
X157370352Y-126017400D01*
X157322733Y-126065019D01*
X157227495Y-126207876D01*
X157179876Y-126398352D01*
X157179876Y-126779304D01*
X157227495Y-126874542D01*
X157275114Y-126922161D01*
X157370352Y-126969780D01*
X157560828Y-126969780D01*
X157656066Y-126922161D01*
X157703685Y-126874542D01*
X157751304Y-126779304D01*
X157751304Y-126541209D01*
X157703685Y-126445971D01*
X157656066Y-126398352D01*
X157560828Y-126350733D01*
X157370352Y-126350733D01*
X157275114Y-126398352D01*
X157227495Y-126445971D01*
X157179876Y-126541209D01*
%TO.C,C3*%
X174547233Y-122835942D02*
X174499614Y-122883561D01*
X174356757Y-122931180D01*
X174261519Y-122931180D01*
X174118661Y-122883561D01*
X174023423Y-122788323D01*
X173975804Y-122693085D01*
X173928185Y-122502609D01*
X173928185Y-122359752D01*
X173975804Y-122169276D01*
X174023423Y-122074038D01*
X174118661Y-121978800D01*
X174261519Y-121931180D01*
X174356757Y-121931180D01*
X174499614Y-121978800D01*
X174547233Y-122026419D01*
X174880566Y-121931180D02*
X175499614Y-121931180D01*
X175166280Y-122312133D01*
X175309138Y-122312133D01*
X175404376Y-122359752D01*
X175451995Y-122407371D01*
X175499614Y-122502609D01*
X175499614Y-122740704D01*
X175451995Y-122835942D01*
X175404376Y-122883561D01*
X175309138Y-122931180D01*
X175023423Y-122931180D01*
X174928185Y-122883561D01*
X174880566Y-122835942D01*
%TO.C,D5*%
X129433580Y-83669095D02*
X128433580Y-83669095D01*
X128433580Y-83431000D01*
X128481200Y-83288142D01*
X128576438Y-83192904D01*
X128671676Y-83145285D01*
X128862152Y-83097666D01*
X129005009Y-83097666D01*
X129195485Y-83145285D01*
X129290723Y-83192904D01*
X129385961Y-83288142D01*
X129433580Y-83431000D01*
X129433580Y-83669095D01*
X128433580Y-82192904D02*
X128433580Y-82669095D01*
X128909771Y-82716714D01*
X128862152Y-82669095D01*
X128814533Y-82573857D01*
X128814533Y-82335761D01*
X128862152Y-82240523D01*
X128909771Y-82192904D01*
X129005009Y-82145285D01*
X129243104Y-82145285D01*
X129338342Y-82192904D01*
X129385961Y-82240523D01*
X129433580Y-82335761D01*
X129433580Y-82573857D01*
X129385961Y-82669095D01*
X129338342Y-82716714D01*
%TO.C,C15*%
X152519142Y-122327942D02*
X152471523Y-122375561D01*
X152328666Y-122423180D01*
X152233428Y-122423180D01*
X152090571Y-122375561D01*
X151995333Y-122280323D01*
X151947714Y-122185085D01*
X151900095Y-121994609D01*
X151900095Y-121851752D01*
X151947714Y-121661276D01*
X151995333Y-121566038D01*
X152090571Y-121470800D01*
X152233428Y-121423180D01*
X152328666Y-121423180D01*
X152471523Y-121470800D01*
X152519142Y-121518419D01*
X153471523Y-122423180D02*
X152900095Y-122423180D01*
X153185809Y-122423180D02*
X153185809Y-121423180D01*
X153090571Y-121566038D01*
X152995333Y-121661276D01*
X152900095Y-121708895D01*
X154376285Y-121423180D02*
X153900095Y-121423180D01*
X153852476Y-121899371D01*
X153900095Y-121851752D01*
X153995333Y-121804133D01*
X154233428Y-121804133D01*
X154328666Y-121851752D01*
X154376285Y-121899371D01*
X154423904Y-121994609D01*
X154423904Y-122232704D01*
X154376285Y-122327942D01*
X154328666Y-122375561D01*
X154233428Y-122423180D01*
X153995333Y-122423180D01*
X153900095Y-122375561D01*
X153852476Y-122327942D01*
%TO.C,R9*%
X129343104Y-100516033D02*
X128962152Y-100782700D01*
X129343104Y-100973176D02*
X128543104Y-100973176D01*
X128543104Y-100668414D01*
X128581200Y-100592223D01*
X128619295Y-100554128D01*
X128695485Y-100516033D01*
X128809771Y-100516033D01*
X128885961Y-100554128D01*
X128924057Y-100592223D01*
X128962152Y-100668414D01*
X128962152Y-100973176D01*
X129343104Y-100135080D02*
X129343104Y-99982700D01*
X129305009Y-99906509D01*
X129266914Y-99868414D01*
X129152628Y-99792223D01*
X129000247Y-99754128D01*
X128695485Y-99754128D01*
X128619295Y-99792223D01*
X128581200Y-99830319D01*
X128543104Y-99906509D01*
X128543104Y-100058890D01*
X128581200Y-100135080D01*
X128619295Y-100173176D01*
X128695485Y-100211271D01*
X128885961Y-100211271D01*
X128962152Y-100173176D01*
X129000247Y-100135080D01*
X129038342Y-100058890D01*
X129038342Y-99906509D01*
X129000247Y-99830319D01*
X128962152Y-99792223D01*
X128885961Y-99754128D01*
%TO.C,R13*%
X171469842Y-101732380D02*
X171136509Y-101256190D01*
X170898414Y-101732380D02*
X170898414Y-100732380D01*
X171279366Y-100732380D01*
X171374604Y-100780000D01*
X171422223Y-100827619D01*
X171469842Y-100922857D01*
X171469842Y-101065714D01*
X171422223Y-101160952D01*
X171374604Y-101208571D01*
X171279366Y-101256190D01*
X170898414Y-101256190D01*
X172422223Y-101732380D02*
X171850795Y-101732380D01*
X172136509Y-101732380D02*
X172136509Y-100732380D01*
X172041271Y-100875238D01*
X171946033Y-100970476D01*
X171850795Y-101018095D01*
X172755557Y-100732380D02*
X173374604Y-100732380D01*
X173041271Y-101113333D01*
X173184128Y-101113333D01*
X173279366Y-101160952D01*
X173326985Y-101208571D01*
X173374604Y-101303809D01*
X173374604Y-101541904D01*
X173326985Y-101637142D01*
X173279366Y-101684761D01*
X173184128Y-101732380D01*
X172898414Y-101732380D01*
X172803176Y-101684761D01*
X172755557Y-101637142D01*
%TO.C,U5*%
X145841595Y-122819193D02*
X145841595Y-123628717D01*
X145889214Y-123723955D01*
X145936833Y-123771574D01*
X146032071Y-123819193D01*
X146222547Y-123819193D01*
X146317785Y-123771574D01*
X146365404Y-123723955D01*
X146413023Y-123628717D01*
X146413023Y-122819193D01*
X147365404Y-122819193D02*
X146889214Y-122819193D01*
X146841595Y-123295384D01*
X146889214Y-123247765D01*
X146984452Y-123200146D01*
X147222547Y-123200146D01*
X147317785Y-123247765D01*
X147365404Y-123295384D01*
X147413023Y-123390622D01*
X147413023Y-123628717D01*
X147365404Y-123723955D01*
X147317785Y-123771574D01*
X147222547Y-123819193D01*
X146984452Y-123819193D01*
X146889214Y-123771574D01*
X146841595Y-123723955D01*
%TO.C,C6*%
X137521914Y-124694933D02*
X137560009Y-124733028D01*
X137598104Y-124847314D01*
X137598104Y-124923504D01*
X137560009Y-125037790D01*
X137483819Y-125113980D01*
X137407628Y-125152076D01*
X137255247Y-125190171D01*
X137140961Y-125190171D01*
X136988580Y-125152076D01*
X136912390Y-125113980D01*
X136836200Y-125037790D01*
X136798104Y-124923504D01*
X136798104Y-124847314D01*
X136836200Y-124733028D01*
X136874295Y-124694933D01*
X136798104Y-124009219D02*
X136798104Y-124161600D01*
X136836200Y-124237790D01*
X136874295Y-124275885D01*
X136988580Y-124352076D01*
X137140961Y-124390171D01*
X137445723Y-124390171D01*
X137521914Y-124352076D01*
X137560009Y-124313980D01*
X137598104Y-124237790D01*
X137598104Y-124085409D01*
X137560009Y-124009219D01*
X137521914Y-123971123D01*
X137445723Y-123933028D01*
X137255247Y-123933028D01*
X137179057Y-123971123D01*
X137140961Y-124009219D01*
X137102866Y-124085409D01*
X137102866Y-124237790D01*
X137140961Y-124313980D01*
X137179057Y-124352076D01*
X137255247Y-124390171D01*
%TO.C,Q1*%
X172042861Y-99033619D02*
X171947623Y-98986000D01*
X171852385Y-98890761D01*
X171709528Y-98747904D01*
X171614290Y-98700285D01*
X171519052Y-98700285D01*
X171566671Y-98938380D02*
X171471433Y-98890761D01*
X171376195Y-98795523D01*
X171328576Y-98605047D01*
X171328576Y-98271714D01*
X171376195Y-98081238D01*
X171471433Y-97986000D01*
X171566671Y-97938380D01*
X171757147Y-97938380D01*
X171852385Y-97986000D01*
X171947623Y-98081238D01*
X171995242Y-98271714D01*
X171995242Y-98605047D01*
X171947623Y-98795523D01*
X171852385Y-98890761D01*
X171757147Y-98938380D01*
X171566671Y-98938380D01*
X172947623Y-98938380D02*
X172376195Y-98938380D01*
X172661909Y-98938380D02*
X172661909Y-97938380D01*
X172566671Y-98081238D01*
X172471433Y-98176476D01*
X172376195Y-98224095D01*
%TO.C,R10*%
X165066736Y-123413781D02*
X164733403Y-122937591D01*
X164495308Y-123413781D02*
X164495308Y-122413781D01*
X164876260Y-122413781D01*
X164971498Y-122461401D01*
X165019117Y-122509020D01*
X165066736Y-122604258D01*
X165066736Y-122747115D01*
X165019117Y-122842353D01*
X164971498Y-122889972D01*
X164876260Y-122937591D01*
X164495308Y-122937591D01*
X166019117Y-123413781D02*
X165447689Y-123413781D01*
X165733403Y-123413781D02*
X165733403Y-122413781D01*
X165638165Y-122556639D01*
X165542927Y-122651877D01*
X165447689Y-122699496D01*
X166638165Y-122413781D02*
X166733403Y-122413781D01*
X166828641Y-122461401D01*
X166876260Y-122509020D01*
X166923879Y-122604258D01*
X166971498Y-122794734D01*
X166971498Y-123032829D01*
X166923879Y-123223305D01*
X166876260Y-123318543D01*
X166828641Y-123366162D01*
X166733403Y-123413781D01*
X166638165Y-123413781D01*
X166542927Y-123366162D01*
X166495308Y-123318543D01*
X166447689Y-123223305D01*
X166400070Y-123032829D01*
X166400070Y-122794734D01*
X166447689Y-122604258D01*
X166495308Y-122509020D01*
X166542927Y-122461401D01*
X166638165Y-122413781D01*
%TO.C,U1*%
X168997374Y-131470305D02*
X169806898Y-131470305D01*
X169902136Y-131422686D01*
X169949755Y-131375067D01*
X169997374Y-131279829D01*
X169997374Y-131089353D01*
X169949755Y-130994115D01*
X169902136Y-130946496D01*
X169806898Y-130898877D01*
X168997374Y-130898877D01*
X169997374Y-129898877D02*
X169997374Y-130470305D01*
X169997374Y-130184591D02*
X168997374Y-130184591D01*
X169140232Y-130279829D01*
X169235470Y-130375067D01*
X169283089Y-130470305D01*
%TO.C,C8*%
X137445714Y-98786933D02*
X137483809Y-98825028D01*
X137521904Y-98939314D01*
X137521904Y-99015504D01*
X137483809Y-99129790D01*
X137407619Y-99205980D01*
X137331428Y-99244076D01*
X137179047Y-99282171D01*
X137064761Y-99282171D01*
X136912380Y-99244076D01*
X136836190Y-99205980D01*
X136760000Y-99129790D01*
X136721904Y-99015504D01*
X136721904Y-98939314D01*
X136760000Y-98825028D01*
X136798095Y-98786933D01*
X137064761Y-98329790D02*
X137026666Y-98405980D01*
X136988571Y-98444076D01*
X136912380Y-98482171D01*
X136874285Y-98482171D01*
X136798095Y-98444076D01*
X136760000Y-98405980D01*
X136721904Y-98329790D01*
X136721904Y-98177409D01*
X136760000Y-98101219D01*
X136798095Y-98063123D01*
X136874285Y-98025028D01*
X136912380Y-98025028D01*
X136988571Y-98063123D01*
X137026666Y-98101219D01*
X137064761Y-98177409D01*
X137064761Y-98329790D01*
X137102857Y-98405980D01*
X137140952Y-98444076D01*
X137217142Y-98482171D01*
X137369523Y-98482171D01*
X137445714Y-98444076D01*
X137483809Y-98405980D01*
X137521904Y-98329790D01*
X137521904Y-98177409D01*
X137483809Y-98101219D01*
X137445714Y-98063123D01*
X137369523Y-98025028D01*
X137217142Y-98025028D01*
X137140952Y-98063123D01*
X137102857Y-98101219D01*
X137064761Y-98177409D01*
%TO.C,U3*%
X144780076Y-126433804D02*
X144780076Y-127081423D01*
X144818171Y-127157614D01*
X144856266Y-127195709D01*
X144932457Y-127233804D01*
X145084838Y-127233804D01*
X145161028Y-127195709D01*
X145199123Y-127157614D01*
X145237219Y-127081423D01*
X145237219Y-126433804D01*
X145541980Y-126433804D02*
X146037219Y-126433804D01*
X145770552Y-126738566D01*
X145884838Y-126738566D01*
X145961028Y-126776661D01*
X145999123Y-126814757D01*
X146037219Y-126890947D01*
X146037219Y-127081423D01*
X145999123Y-127157614D01*
X145961028Y-127195709D01*
X145884838Y-127233804D01*
X145656266Y-127233804D01*
X145580076Y-127195709D01*
X145541980Y-127157614D01*
X144353580Y-125703500D02*
X144591676Y-125703500D01*
X144496438Y-125941595D02*
X144591676Y-125703500D01*
X144496438Y-125465404D01*
X144782152Y-125846357D02*
X144591676Y-125703500D01*
X144782152Y-125560642D01*
X144353580Y-125703500D02*
X144591676Y-125703500D01*
X144496438Y-125941595D02*
X144591676Y-125703500D01*
X144496438Y-125465404D01*
X144782152Y-125846357D02*
X144591676Y-125703500D01*
X144782152Y-125560642D01*
%TO.C,C10*%
X165342842Y-132443457D02*
X165390461Y-132491076D01*
X165438080Y-132633933D01*
X165438080Y-132729171D01*
X165390461Y-132872028D01*
X165295223Y-132967266D01*
X165199985Y-133014885D01*
X165009509Y-133062504D01*
X164866652Y-133062504D01*
X164676176Y-133014885D01*
X164580938Y-132967266D01*
X164485700Y-132872028D01*
X164438080Y-132729171D01*
X164438080Y-132633933D01*
X164485700Y-132491076D01*
X164533319Y-132443457D01*
X165438080Y-131491076D02*
X165438080Y-132062504D01*
X165438080Y-131776790D02*
X164438080Y-131776790D01*
X164580938Y-131872028D01*
X164676176Y-131967266D01*
X164723795Y-132062504D01*
X164438080Y-130872028D02*
X164438080Y-130776790D01*
X164485700Y-130681552D01*
X164533319Y-130633933D01*
X164628557Y-130586314D01*
X164819033Y-130538695D01*
X165057128Y-130538695D01*
X165247604Y-130586314D01*
X165342842Y-130633933D01*
X165390461Y-130681552D01*
X165438080Y-130776790D01*
X165438080Y-130872028D01*
X165390461Y-130967266D01*
X165342842Y-131014885D01*
X165247604Y-131062504D01*
X165057128Y-131110123D01*
X164819033Y-131110123D01*
X164628557Y-131062504D01*
X164533319Y-131014885D01*
X164485700Y-130967266D01*
X164438080Y-130872028D01*
%TO.C,C1*%
X174471033Y-124334542D02*
X174423414Y-124382161D01*
X174280557Y-124429780D01*
X174185319Y-124429780D01*
X174042461Y-124382161D01*
X173947223Y-124286923D01*
X173899604Y-124191685D01*
X173851985Y-124001209D01*
X173851985Y-123858352D01*
X173899604Y-123667876D01*
X173947223Y-123572638D01*
X174042461Y-123477400D01*
X174185319Y-123429780D01*
X174280557Y-123429780D01*
X174423414Y-123477400D01*
X174471033Y-123525019D01*
X175423414Y-124429780D02*
X174851985Y-124429780D01*
X175137700Y-124429780D02*
X175137700Y-123429780D01*
X175042461Y-123572638D01*
X174947223Y-123667876D01*
X174851985Y-123715495D01*
%TO.C,C11*%
X163869642Y-132468857D02*
X163917261Y-132516476D01*
X163964880Y-132659333D01*
X163964880Y-132754571D01*
X163917261Y-132897428D01*
X163822023Y-132992666D01*
X163726785Y-133040285D01*
X163536309Y-133087904D01*
X163393452Y-133087904D01*
X163202976Y-133040285D01*
X163107738Y-132992666D01*
X163012500Y-132897428D01*
X162964880Y-132754571D01*
X162964880Y-132659333D01*
X163012500Y-132516476D01*
X163060119Y-132468857D01*
X163964880Y-131516476D02*
X163964880Y-132087904D01*
X163964880Y-131802190D02*
X162964880Y-131802190D01*
X163107738Y-131897428D01*
X163202976Y-131992666D01*
X163250595Y-132087904D01*
X163964880Y-130564095D02*
X163964880Y-131135523D01*
X163964880Y-130849809D02*
X162964880Y-130849809D01*
X163107738Y-130945047D01*
X163202976Y-131040285D01*
X163250595Y-131135523D01*
%TO.C,C5*%
X163409333Y-126866942D02*
X163361714Y-126914561D01*
X163218857Y-126962180D01*
X163123619Y-126962180D01*
X162980761Y-126914561D01*
X162885523Y-126819323D01*
X162837904Y-126724085D01*
X162790285Y-126533609D01*
X162790285Y-126390752D01*
X162837904Y-126200276D01*
X162885523Y-126105038D01*
X162980761Y-126009800D01*
X163123619Y-125962180D01*
X163218857Y-125962180D01*
X163361714Y-126009800D01*
X163409333Y-126057419D01*
X164314095Y-125962180D02*
X163837904Y-125962180D01*
X163790285Y-126438371D01*
X163837904Y-126390752D01*
X163933142Y-126343133D01*
X164171238Y-126343133D01*
X164266476Y-126390752D01*
X164314095Y-126438371D01*
X164361714Y-126533609D01*
X164361714Y-126771704D01*
X164314095Y-126866942D01*
X164266476Y-126914561D01*
X164171238Y-126962180D01*
X163933142Y-126962180D01*
X163837904Y-126914561D01*
X163790285Y-126866942D01*
%TO.C,Q2*%
X172886619Y-122980438D02*
X172839000Y-123075676D01*
X172743761Y-123170914D01*
X172600904Y-123313771D01*
X172553285Y-123409009D01*
X172553285Y-123504247D01*
X172791380Y-123456628D02*
X172743761Y-123551866D01*
X172648523Y-123647104D01*
X172458047Y-123694723D01*
X172124714Y-123694723D01*
X171934238Y-123647104D01*
X171839000Y-123551866D01*
X171791380Y-123456628D01*
X171791380Y-123266152D01*
X171839000Y-123170914D01*
X171934238Y-123075676D01*
X172124714Y-123028057D01*
X172458047Y-123028057D01*
X172648523Y-123075676D01*
X172743761Y-123170914D01*
X172791380Y-123266152D01*
X172791380Y-123456628D01*
X171886619Y-122647104D02*
X171839000Y-122599485D01*
X171791380Y-122504247D01*
X171791380Y-122266152D01*
X171839000Y-122170914D01*
X171886619Y-122123295D01*
X171981857Y-122075676D01*
X172077095Y-122075676D01*
X172219952Y-122123295D01*
X172791380Y-122694723D01*
X172791380Y-122075676D01*
%TO.C,C18*%
X175099742Y-131141742D02*
X175052123Y-131189361D01*
X174909266Y-131236980D01*
X174814028Y-131236980D01*
X174671171Y-131189361D01*
X174575933Y-131094123D01*
X174528314Y-130998885D01*
X174480695Y-130808409D01*
X174480695Y-130665552D01*
X174528314Y-130475076D01*
X174575933Y-130379838D01*
X174671171Y-130284600D01*
X174814028Y-130236980D01*
X174909266Y-130236980D01*
X175052123Y-130284600D01*
X175099742Y-130332219D01*
X176052123Y-131236980D02*
X175480695Y-131236980D01*
X175766409Y-131236980D02*
X175766409Y-130236980D01*
X175671171Y-130379838D01*
X175575933Y-130475076D01*
X175480695Y-130522695D01*
X176623552Y-130665552D02*
X176528314Y-130617933D01*
X176480695Y-130570314D01*
X176433076Y-130475076D01*
X176433076Y-130427457D01*
X176480695Y-130332219D01*
X176528314Y-130284600D01*
X176623552Y-130236980D01*
X176814028Y-130236980D01*
X176909266Y-130284600D01*
X176956885Y-130332219D01*
X177004504Y-130427457D01*
X177004504Y-130475076D01*
X176956885Y-130570314D01*
X176909266Y-130617933D01*
X176814028Y-130665552D01*
X176623552Y-130665552D01*
X176528314Y-130713171D01*
X176480695Y-130760790D01*
X176433076Y-130856028D01*
X176433076Y-131046504D01*
X176480695Y-131141742D01*
X176528314Y-131189361D01*
X176623552Y-131236980D01*
X176814028Y-131236980D01*
X176909266Y-131189361D01*
X176956885Y-131141742D01*
X177004504Y-131046504D01*
X177004504Y-130856028D01*
X176956885Y-130760790D01*
X176909266Y-130713171D01*
X176814028Y-130665552D01*
%TO.C,R15*%
X171571442Y-96626980D02*
X171238109Y-96150790D01*
X171000014Y-96626980D02*
X171000014Y-95626980D01*
X171380966Y-95626980D01*
X171476204Y-95674600D01*
X171523823Y-95722219D01*
X171571442Y-95817457D01*
X171571442Y-95960314D01*
X171523823Y-96055552D01*
X171476204Y-96103171D01*
X171380966Y-96150790D01*
X171000014Y-96150790D01*
X172523823Y-96626980D02*
X171952395Y-96626980D01*
X172238109Y-96626980D02*
X172238109Y-95626980D01*
X172142871Y-95769838D01*
X172047633Y-95865076D01*
X171952395Y-95912695D01*
X173428585Y-95626980D02*
X172952395Y-95626980D01*
X172904776Y-96103171D01*
X172952395Y-96055552D01*
X173047633Y-96007933D01*
X173285728Y-96007933D01*
X173380966Y-96055552D01*
X173428585Y-96103171D01*
X173476204Y-96198409D01*
X173476204Y-96436504D01*
X173428585Y-96531742D01*
X173380966Y-96579361D01*
X173285728Y-96626980D01*
X173047633Y-96626980D01*
X172952395Y-96579361D01*
X172904776Y-96531742D01*
%TO.C,C4*%
X146526266Y-131348614D02*
X146488171Y-131386709D01*
X146373885Y-131424804D01*
X146297695Y-131424804D01*
X146183409Y-131386709D01*
X146107219Y-131310519D01*
X146069123Y-131234328D01*
X146031028Y-131081947D01*
X146031028Y-130967661D01*
X146069123Y-130815280D01*
X146107219Y-130739090D01*
X146183409Y-130662900D01*
X146297695Y-130624804D01*
X146373885Y-130624804D01*
X146488171Y-130662900D01*
X146526266Y-130700995D01*
X147211980Y-130891471D02*
X147211980Y-131424804D01*
X147021504Y-130586709D02*
X146831028Y-131158138D01*
X147326266Y-131158138D01*
%TO.C,R14*%
X158589742Y-103322380D02*
X158256409Y-102846190D01*
X158018314Y-103322380D02*
X158018314Y-102322380D01*
X158399266Y-102322380D01*
X158494504Y-102370000D01*
X158542123Y-102417619D01*
X158589742Y-102512857D01*
X158589742Y-102655714D01*
X158542123Y-102750952D01*
X158494504Y-102798571D01*
X158399266Y-102846190D01*
X158018314Y-102846190D01*
X159542123Y-103322380D02*
X158970695Y-103322380D01*
X159256409Y-103322380D02*
X159256409Y-102322380D01*
X159161171Y-102465238D01*
X159065933Y-102560476D01*
X158970695Y-102608095D01*
X160399266Y-102655714D02*
X160399266Y-103322380D01*
X160161171Y-102274761D02*
X159923076Y-102989047D01*
X160542123Y-102989047D01*
%TO.C,R1*%
X181427380Y-103366866D02*
X180951190Y-103700200D01*
X181427380Y-103938295D02*
X180427380Y-103938295D01*
X180427380Y-103557342D01*
X180475000Y-103462104D01*
X180522619Y-103414485D01*
X180617857Y-103366866D01*
X180760714Y-103366866D01*
X180855952Y-103414485D01*
X180903571Y-103462104D01*
X180951190Y-103557342D01*
X180951190Y-103938295D01*
X181427380Y-102414485D02*
X181427380Y-102985914D01*
X181427380Y-102700200D02*
X180427380Y-102700200D01*
X180570238Y-102795438D01*
X180665476Y-102890676D01*
X180713095Y-102985914D01*
%TO.C,C14*%
X160770842Y-132468857D02*
X160818461Y-132516476D01*
X160866080Y-132659333D01*
X160866080Y-132754571D01*
X160818461Y-132897428D01*
X160723223Y-132992666D01*
X160627985Y-133040285D01*
X160437509Y-133087904D01*
X160294652Y-133087904D01*
X160104176Y-133040285D01*
X160008938Y-132992666D01*
X159913700Y-132897428D01*
X159866080Y-132754571D01*
X159866080Y-132659333D01*
X159913700Y-132516476D01*
X159961319Y-132468857D01*
X160866080Y-131516476D02*
X160866080Y-132087904D01*
X160866080Y-131802190D02*
X159866080Y-131802190D01*
X160008938Y-131897428D01*
X160104176Y-131992666D01*
X160151795Y-132087904D01*
X160199414Y-130659333D02*
X160866080Y-130659333D01*
X159818461Y-130897428D02*
X160532747Y-131135523D01*
X160532747Y-130516476D01*
%TO.C,R11*%
X170048180Y-93708457D02*
X169571990Y-94041790D01*
X170048180Y-94279885D02*
X169048180Y-94279885D01*
X169048180Y-93898933D01*
X169095800Y-93803695D01*
X169143419Y-93756076D01*
X169238657Y-93708457D01*
X169381514Y-93708457D01*
X169476752Y-93756076D01*
X169524371Y-93803695D01*
X169571990Y-93898933D01*
X169571990Y-94279885D01*
X170048180Y-92756076D02*
X170048180Y-93327504D01*
X170048180Y-93041790D02*
X169048180Y-93041790D01*
X169191038Y-93137028D01*
X169286276Y-93232266D01*
X169333895Y-93327504D01*
X170048180Y-91803695D02*
X170048180Y-92375123D01*
X170048180Y-92089409D02*
X169048180Y-92089409D01*
X169191038Y-92184647D01*
X169286276Y-92279885D01*
X169333895Y-92375123D01*
%TO.C,R12*%
X171469842Y-103129380D02*
X171136509Y-102653190D01*
X170898414Y-103129380D02*
X170898414Y-102129380D01*
X171279366Y-102129380D01*
X171374604Y-102177000D01*
X171422223Y-102224619D01*
X171469842Y-102319857D01*
X171469842Y-102462714D01*
X171422223Y-102557952D01*
X171374604Y-102605571D01*
X171279366Y-102653190D01*
X170898414Y-102653190D01*
X172422223Y-103129380D02*
X171850795Y-103129380D01*
X172136509Y-103129380D02*
X172136509Y-102129380D01*
X172041271Y-102272238D01*
X171946033Y-102367476D01*
X171850795Y-102415095D01*
X172803176Y-102224619D02*
X172850795Y-102177000D01*
X172946033Y-102129380D01*
X173184128Y-102129380D01*
X173279366Y-102177000D01*
X173326985Y-102224619D01*
X173374604Y-102319857D01*
X173374604Y-102415095D01*
X173326985Y-102557952D01*
X172755557Y-103129380D01*
X173374604Y-103129380D01*
%TO.C,R2*%
X176312533Y-116758980D02*
X175979200Y-116282790D01*
X175741104Y-116758980D02*
X175741104Y-115758980D01*
X176122057Y-115758980D01*
X176217295Y-115806600D01*
X176264914Y-115854219D01*
X176312533Y-115949457D01*
X176312533Y-116092314D01*
X176264914Y-116187552D01*
X176217295Y-116235171D01*
X176122057Y-116282790D01*
X175741104Y-116282790D01*
X176693485Y-115854219D02*
X176741104Y-115806600D01*
X176836342Y-115758980D01*
X177074438Y-115758980D01*
X177169676Y-115806600D01*
X177217295Y-115854219D01*
X177264914Y-115949457D01*
X177264914Y-116044695D01*
X177217295Y-116187552D01*
X176645866Y-116758980D01*
X177264914Y-116758980D01*
%TO.C,D4*%
X176604704Y-94711780D02*
X176604704Y-93711780D01*
X176842800Y-93711780D01*
X176985657Y-93759400D01*
X177080895Y-93854638D01*
X177128514Y-93949876D01*
X177176133Y-94140352D01*
X177176133Y-94283209D01*
X177128514Y-94473685D01*
X177080895Y-94568923D01*
X176985657Y-94664161D01*
X176842800Y-94711780D01*
X176604704Y-94711780D01*
X178033276Y-94045114D02*
X178033276Y-94711780D01*
X177795180Y-93664161D02*
X177557085Y-94378447D01*
X178176133Y-94378447D01*
D11*
%TO.C,D1*%
X165303200Y-108891800D02*
X165303200Y-112191800D01*
X165303200Y-112191800D02*
X170703200Y-112191800D01*
X165303200Y-108891800D02*
X170703200Y-108891800D01*
%TO.C,R17*%
X171774900Y-120008776D02*
X171774900Y-120518224D01*
X172819900Y-120008776D02*
X172819900Y-120518224D01*
%TO.C,R7*%
X129554500Y-117272524D02*
X129554500Y-116763076D01*
X128509500Y-117272524D02*
X128509500Y-116763076D01*
D12*
%TO.C,P1*%
X118731935Y-124409188D02*
G75*
G03*
X118731935Y-124409188I-29997J0D01*
G01*
D11*
%TO.C,C19*%
X150100700Y-130041867D02*
X150100700Y-129749333D01*
X149080700Y-130041867D02*
X149080700Y-129749333D01*
%TO.C,C12*%
X162473100Y-128873467D02*
X162473100Y-128580933D01*
X161453100Y-128873467D02*
X161453100Y-128580933D01*
%TO.C,C13*%
X165250400Y-96576933D02*
X165250400Y-96869467D01*
X166270400Y-96576933D02*
X166270400Y-96869467D01*
%TO.C,U6*%
X161244200Y-117341600D02*
X161244200Y-118601600D01*
X157484200Y-124161600D02*
X161244200Y-124161600D01*
X161244200Y-124161600D02*
X161244200Y-122901600D01*
X155234200Y-117341600D02*
X161244200Y-117341600D01*
%TO.C,C2*%
X167134000Y-93415067D02*
X167134000Y-93122533D01*
X166114000Y-93415067D02*
X166114000Y-93122533D01*
%TO.C,Q3*%
X169630400Y-119967400D02*
X168980400Y-119967400D01*
X169630400Y-116847400D02*
X168980400Y-116847400D01*
X169630400Y-119967400D02*
X171305400Y-119967400D01*
X169630400Y-116847400D02*
X170280400Y-116847400D01*
D12*
%TO.C,P2*%
X118731935Y-110175188D02*
G75*
G03*
X118731935Y-110175188I-29997J0D01*
G01*
%TO.C,P4*%
X118731935Y-81707188D02*
G75*
G03*
X118731935Y-81707188I-29997J0D01*
G01*
D11*
%TO.C,R8*%
X128458700Y-88416676D02*
X128458700Y-88926124D01*
X129503700Y-88416676D02*
X129503700Y-88926124D01*
D12*
%TO.C,P3*%
X118731935Y-95941188D02*
G75*
G03*
X118731935Y-95941188I-29997J0D01*
G01*
D11*
%TO.C,J5*%
X173228000Y-82312200D02*
X173228000Y-84972200D01*
X174498000Y-82312200D02*
X175828000Y-82312200D01*
X170628000Y-82312200D02*
X170628000Y-84972200D01*
X173228000Y-82312200D02*
X170628000Y-82312200D01*
X173228000Y-84972200D02*
X170628000Y-84972200D01*
X175828000Y-82312200D02*
X175828000Y-83642200D01*
%TO.C,C7*%
X136076563Y-112414000D02*
X137141000Y-113478437D01*
X135972250Y-111780250D02*
X135184750Y-111780250D01*
X137141000Y-119234000D02*
X134791000Y-119234000D01*
X137141000Y-113478437D02*
X137141000Y-119234000D01*
X135578500Y-111386500D02*
X135578500Y-112174000D01*
X131385437Y-112414000D02*
X130321000Y-113478437D01*
X130321000Y-119234000D02*
X132671000Y-119234000D01*
X131385437Y-112414000D02*
X132671000Y-112414000D01*
X136076563Y-112414000D02*
X134791000Y-112414000D01*
X130321000Y-113478437D02*
X130321000Y-119234000D01*
D13*
%TO.C,MK1*%
X150356100Y-127686400D02*
G75*
G03*
X150356100Y-127686400I-100000J0D01*
G01*
D12*
%TO.C,SW1*%
X177406048Y-94519572D02*
G75*
G03*
X177406048Y-94519572I-29997J0D01*
G01*
D11*
%TO.C,R19*%
X131241076Y-85383900D02*
X131750524Y-85383900D01*
X131241076Y-84338900D02*
X131750524Y-84338900D01*
%TO.C,R6*%
X129554500Y-130988524D02*
X129554500Y-130479076D01*
X128509500Y-130988524D02*
X128509500Y-130479076D01*
%TO.C,D3*%
X159172800Y-93064000D02*
X161632800Y-93064000D01*
X161632800Y-91594000D02*
X159172800Y-91594000D01*
X159172800Y-91594000D02*
X159172800Y-93064000D01*
D12*
%TO.C,U4*%
X159932619Y-101324162D02*
G75*
G03*
X159932619Y-101324162I-29972J0D01*
G01*
D14*
X159497008Y-100874327D02*
G75*
G03*
X159497008Y-100874327I-170180J0D01*
G01*
D11*
%TO.C,C17*%
X160229333Y-125630400D02*
X160521867Y-125630400D01*
X160229333Y-124610400D02*
X160521867Y-124610400D01*
%TO.C,C20*%
X153041133Y-117934200D02*
X153333667Y-117934200D01*
X153041133Y-116914200D02*
X153333667Y-116914200D01*
%TO.C,R16*%
X151952176Y-126811300D02*
X152461624Y-126811300D01*
X151952176Y-125766300D02*
X152461624Y-125766300D01*
D15*
%TO.C,L1*%
X179487100Y-125279300D02*
G75*
G03*
X179487100Y-125279300I-125000J0D01*
G01*
D11*
%TO.C,R18*%
X167460500Y-120389324D02*
X167460500Y-119879876D01*
X166415500Y-120389324D02*
X166415500Y-119879876D01*
%TO.C,R20*%
X172109676Y-132780300D02*
X172619124Y-132780300D01*
X172109676Y-131735300D02*
X172619124Y-131735300D01*
%TO.C,C9*%
X136076563Y-89630200D02*
X137141000Y-90694637D01*
X135972250Y-88996450D02*
X135184750Y-88996450D01*
X137141000Y-96450200D02*
X134791000Y-96450200D01*
X137141000Y-90694637D02*
X137141000Y-96450200D01*
X135578500Y-88602700D02*
X135578500Y-89390200D01*
X131385437Y-89630200D02*
X130321000Y-90694637D01*
X130321000Y-96450200D02*
X132671000Y-96450200D01*
X131385437Y-89630200D02*
X132671000Y-89630200D01*
X136076563Y-89630200D02*
X134791000Y-89630200D01*
X130321000Y-90694637D02*
X130321000Y-96450200D01*
%TO.C,D2*%
X162551000Y-93089400D02*
X165011000Y-93089400D01*
X165011000Y-91619400D02*
X162551000Y-91619400D01*
X162551000Y-91619400D02*
X162551000Y-93089400D01*
%TO.C,R4*%
X161073524Y-93355900D02*
X160564076Y-93355900D01*
X161073524Y-94400900D02*
X160564076Y-94400900D01*
%TO.C,R5*%
X166981400Y-128981924D02*
X166981400Y-128472476D01*
X165936400Y-128981924D02*
X165936400Y-128472476D01*
%TO.C,R3*%
X163930876Y-94400900D02*
X164440324Y-94400900D01*
X163930876Y-93355900D02*
X164440324Y-93355900D01*
%TO.C,C16*%
X156711867Y-124610400D02*
X156419333Y-124610400D01*
X156711867Y-125630400D02*
X156419333Y-125630400D01*
%TO.C,C3*%
X177209233Y-122963400D02*
X177501767Y-122963400D01*
X177209233Y-121943400D02*
X177501767Y-121943400D01*
%TO.C,D5*%
X129810400Y-84047000D02*
X132270400Y-84047000D01*
X132270400Y-82577000D02*
X129810400Y-82577000D01*
X129810400Y-82577000D02*
X129810400Y-84047000D01*
%TO.C,C15*%
X153333667Y-118412800D02*
X153041133Y-118412800D01*
X153333667Y-119432800D02*
X153041133Y-119432800D01*
D16*
%TO.C,JST_lipo1*%
X163978800Y-81738300D02*
X169878800Y-81738300D01*
X163978800Y-89338300D02*
X163978800Y-81738300D01*
X169878800Y-81738300D02*
X169878800Y-89338300D01*
X169878800Y-89338300D02*
X163978800Y-89338300D01*
D13*
X168028800Y-89888300D02*
G75*
G03*
X168028800Y-89888300I-100000J0D01*
G01*
D11*
%TO.C,R9*%
X128458700Y-102691476D02*
X128458700Y-103200924D01*
X129503700Y-102691476D02*
X129503700Y-103200924D01*
%TO.C,R13*%
X175491624Y-100681300D02*
X174982176Y-100681300D01*
X175491624Y-101726300D02*
X174982176Y-101726300D01*
D10*
%TO.C,U5*%
X145234200Y-117141800D02*
X145234200Y-117641800D01*
X149734200Y-117141800D02*
X150234200Y-117141800D01*
X145734200Y-122141800D02*
X145234200Y-122141800D01*
X145234200Y-122141800D02*
X145234200Y-121641800D01*
X150234200Y-122141800D02*
X150234200Y-121641800D01*
X149734200Y-122141800D02*
X150234200Y-122141800D01*
X145734200Y-117141800D02*
X145234200Y-117141800D01*
X150234200Y-117141800D02*
X150234200Y-117641800D01*
D15*
X150653200Y-122461200D02*
G75*
G03*
X150653200Y-122461200I-125000J0D01*
G01*
D11*
%TO.C,C6*%
X136076563Y-125037800D02*
X137141000Y-126102237D01*
X135972250Y-124404050D02*
X135184750Y-124404050D01*
X137141000Y-131857800D02*
X134791000Y-131857800D01*
X137141000Y-126102237D02*
X137141000Y-131857800D01*
X135578500Y-124010300D02*
X135578500Y-124797800D01*
X131385437Y-125037800D02*
X130321000Y-126102237D01*
X130321000Y-131857800D02*
X132671000Y-131857800D01*
X131385437Y-125037800D02*
X132671000Y-125037800D01*
X136076563Y-125037800D02*
X134791000Y-125037800D01*
X130321000Y-126102237D02*
X130321000Y-131857800D01*
%TO.C,Q1*%
X175008300Y-100300000D02*
X174358300Y-100300000D01*
X175008300Y-97180000D02*
X174358300Y-97180000D01*
X175008300Y-100300000D02*
X176683300Y-100300000D01*
X175008300Y-97180000D02*
X175658300Y-97180000D01*
%TO.C,R10*%
X166981400Y-125629124D02*
X166981400Y-125119676D01*
X165936400Y-125629124D02*
X165936400Y-125119676D01*
D12*
%TO.C,U1*%
X173934634Y-129606553D02*
G75*
G03*
X173934634Y-129606553I-29972J0D01*
G01*
D14*
X173625007Y-130182372D02*
G75*
G03*
X173625007Y-130182372I-170180J0D01*
G01*
D11*
%TO.C,C8*%
X136076563Y-99307600D02*
X137141000Y-100372037D01*
X135972250Y-98673850D02*
X135184750Y-98673850D01*
X137141000Y-106127600D02*
X134791000Y-106127600D01*
X137141000Y-100372037D02*
X137141000Y-106127600D01*
X135578500Y-98280100D02*
X135578500Y-99067600D01*
X131385437Y-99307600D02*
X130321000Y-100372037D01*
X130321000Y-106127600D02*
X132671000Y-106127600D01*
X131385437Y-99307600D02*
X132671000Y-99307600D01*
X136076563Y-99307600D02*
X134791000Y-99307600D01*
X130321000Y-100372037D02*
X130321000Y-106127600D01*
%TO.C,U3*%
X144005300Y-131024800D02*
X144005300Y-126529000D01*
X138899900Y-126529000D02*
X138899900Y-131024800D01*
X144005300Y-128472100D02*
G75*
G03*
X144005300Y-129081700I0J-304800D01*
G01*
D17*
X140993101Y-132942500D02*
X140612101Y-132942500D01*
X140612101Y-132942500D02*
X140612101Y-132688500D01*
X140612101Y-132688500D02*
X140993101Y-132688500D01*
X140993101Y-132688500D02*
X140993101Y-132942500D01*
G36*
X140993101Y-132942500D02*
G01*
X140612101Y-132942500D01*
X140612101Y-132688500D01*
X140993101Y-132688500D01*
X140993101Y-132942500D01*
G37*
X140993101Y-132942500D02*
X140612101Y-132942500D01*
X140612101Y-132688500D01*
X140993101Y-132688500D01*
X140993101Y-132942500D01*
D11*
%TO.C,C10*%
X165470300Y-128874567D02*
X165470300Y-128582033D01*
X164450300Y-128874567D02*
X164450300Y-128582033D01*
%TO.C,C1*%
X177208133Y-124462000D02*
X177500667Y-124462000D01*
X177208133Y-123442000D02*
X177500667Y-123442000D01*
%TO.C,C11*%
X163971700Y-128874567D02*
X163971700Y-128582033D01*
X162951700Y-128874567D02*
X162951700Y-128582033D01*
%TO.C,C5*%
X163556733Y-125630400D02*
X163849267Y-125630400D01*
X163556733Y-124610400D02*
X163849267Y-124610400D01*
%TO.C,Q2*%
X169621200Y-123403800D02*
X168971200Y-123403800D01*
X169621200Y-120283800D02*
X168971200Y-120283800D01*
X169621200Y-123403800D02*
X171296200Y-123403800D01*
X169621200Y-120283800D02*
X170271200Y-120283800D01*
%TO.C,C18*%
X175863467Y-131747800D02*
X175570933Y-131747800D01*
X175863467Y-132767800D02*
X175570933Y-132767800D01*
D16*
%TO.C,U2*%
X154632000Y-107323800D02*
X157082000Y-107323800D01*
X139082000Y-106673800D02*
X139082000Y-107323800D01*
X139082000Y-107323800D02*
X141532000Y-107323800D01*
X157082000Y-107323800D02*
X157082000Y-106673800D01*
D13*
X138182000Y-89323800D02*
G75*
G03*
X138182000Y-89323800I-100000J0D01*
G01*
D11*
%TO.C,R15*%
X175542424Y-95728300D02*
X175032976Y-95728300D01*
X175542424Y-96773300D02*
X175032976Y-96773300D01*
%TO.C,C4*%
X144625600Y-130916633D02*
X144625600Y-131209167D01*
X145645600Y-130916633D02*
X145645600Y-131209167D01*
%TO.C,R14*%
X162152876Y-103367100D02*
X162662324Y-103367100D01*
X162152876Y-102322100D02*
X162662324Y-102322100D01*
%TO.C,R1*%
X178918324Y-102728500D02*
X178408876Y-102728500D01*
X178918324Y-103773500D02*
X178408876Y-103773500D01*
%TO.C,C14*%
X160974500Y-128873467D02*
X160974500Y-128580933D01*
X159954500Y-128873467D02*
X159954500Y-128580933D01*
%TO.C,R11*%
X168619700Y-93523524D02*
X168619700Y-93014076D01*
X167574700Y-93523524D02*
X167574700Y-93014076D01*
%TO.C,R12*%
X174982176Y-103250300D02*
X175491624Y-103250300D01*
X174982176Y-102205300D02*
X175491624Y-102205300D01*
%TO.C,R2*%
X178942276Y-116930700D02*
X179451724Y-116930700D01*
X178942276Y-115885700D02*
X179451724Y-115885700D01*
%TO.C,D4*%
X180391100Y-94987400D02*
X177091100Y-94987400D01*
X177091100Y-94987400D02*
X177091100Y-100387400D01*
X180391100Y-94987400D02*
X180391100Y-100387400D01*
%TD*%
M02*
