%TF.GenerationSoftware,KiCad,Pcbnew,(6.0.0-0)*%
%TF.CreationDate,2022-02-03T17:18:56+01:00*%
%TF.ProjectId,GlowCore,476c6f77-436f-4726-952e-6b696361645f,rev?*%
%TF.SameCoordinates,Original*%
%TF.FileFunction,Legend,Bot*%
%TF.FilePolarity,Positive*%
%FSLAX46Y46*%
G04 Gerber Fmt 4.6, Leading zero omitted, Abs format (unit mm)*
G04 Created by KiCad (PCBNEW (6.0.0-0)) date 2022-02-03 17:18:56*
%MOMM*%
%LPD*%
G01*
G04 APERTURE LIST*
%ADD10C,0.150000*%
%ADD11C,0.250000*%
%ADD12C,0.300000*%
%ADD13C,0.120000*%
G04 APERTURE END LIST*
D10*
X164848404Y-125862028D02*
X164086500Y-125862028D01*
X142276190Y-129611780D02*
X142752380Y-129611780D01*
X142800000Y-130087971D01*
X142752380Y-130040352D01*
X142657142Y-129992733D01*
X142419047Y-129992733D01*
X142323809Y-130040352D01*
X142276190Y-130087971D01*
X142228571Y-130183209D01*
X142228571Y-130421304D01*
X142276190Y-130516542D01*
X142323809Y-130564161D01*
X142419047Y-130611780D01*
X142657142Y-130611780D01*
X142752380Y-130564161D01*
X142800000Y-130516542D01*
X141942857Y-129611780D02*
X141609523Y-130611780D01*
X141276190Y-129611780D01*
X140276190Y-129611780D02*
X139657142Y-129611780D01*
X139990476Y-129992733D01*
X139847619Y-129992733D01*
X139752380Y-130040352D01*
X139704761Y-130087971D01*
X139657142Y-130183209D01*
X139657142Y-130421304D01*
X139704761Y-130516542D01*
X139752380Y-130564161D01*
X139847619Y-130611780D01*
X140133333Y-130611780D01*
X140228571Y-130564161D01*
X140276190Y-130516542D01*
X139276190Y-130326066D02*
X138800000Y-130326066D01*
X139371428Y-130611780D02*
X139038095Y-129611780D01*
X138704761Y-130611780D01*
D11*
X121775338Y-105262580D02*
X121775338Y-104262580D01*
X121108671Y-104262580D02*
X120918195Y-104262580D01*
X120822957Y-104310200D01*
X120727719Y-104405438D01*
X120680100Y-104595914D01*
X120680100Y-104929247D01*
X120727719Y-105119723D01*
X120822957Y-105214961D01*
X120918195Y-105262580D01*
X121108671Y-105262580D01*
X121203909Y-105214961D01*
X121299147Y-105119723D01*
X121346766Y-104929247D01*
X121346766Y-104595914D01*
X121299147Y-104405438D01*
X121203909Y-104310200D01*
X121108671Y-104262580D01*
X119822957Y-104595914D02*
X119822957Y-105262580D01*
X120061052Y-104214961D02*
X120299147Y-104929247D01*
X119680100Y-104929247D01*
X118584861Y-104214961D02*
X119442004Y-105500676D01*
X118299147Y-104976866D02*
X117822957Y-104976866D01*
X118394385Y-105262580D02*
X118061052Y-104262580D01*
X117727719Y-105262580D01*
X116918195Y-104262580D02*
X117394385Y-104262580D01*
X117442004Y-104738771D01*
X117394385Y-104691152D01*
X117299147Y-104643533D01*
X117061052Y-104643533D01*
X116965814Y-104691152D01*
X116918195Y-104738771D01*
X116870576Y-104834009D01*
X116870576Y-105072104D01*
X116918195Y-105167342D01*
X116965814Y-105214961D01*
X117061052Y-105262580D01*
X117299147Y-105262580D01*
X117394385Y-105214961D01*
X117442004Y-105167342D01*
D12*
X136446000Y-74627771D02*
X137160285Y-74627771D01*
X137160285Y-73127771D01*
X135946000Y-73842057D02*
X135446000Y-73842057D01*
X135231714Y-74627771D02*
X135946000Y-74627771D01*
X135946000Y-73127771D01*
X135231714Y-73127771D01*
X134588857Y-74627771D02*
X134588857Y-73127771D01*
X134231714Y-73127771D01*
X134017428Y-73199200D01*
X133874571Y-73342057D01*
X133803142Y-73484914D01*
X133731714Y-73770628D01*
X133731714Y-73984914D01*
X133803142Y-74270628D01*
X133874571Y-74413485D01*
X134017428Y-74556342D01*
X134231714Y-74627771D01*
X134588857Y-74627771D01*
X132017428Y-73270628D02*
X131946000Y-73199200D01*
X131803142Y-73127771D01*
X131446000Y-73127771D01*
X131303142Y-73199200D01*
X131231714Y-73270628D01*
X131160285Y-73413485D01*
X131160285Y-73556342D01*
X131231714Y-73770628D01*
X132088857Y-74627771D01*
X131160285Y-74627771D01*
D11*
X119997576Y-120502580D02*
X119997576Y-119502580D01*
X119330909Y-119502580D02*
X119140433Y-119502580D01*
X119045195Y-119550200D01*
X118949957Y-119645438D01*
X118902338Y-119835914D01*
X118902338Y-120169247D01*
X118949957Y-120359723D01*
X119045195Y-120454961D01*
X119140433Y-120502580D01*
X119330909Y-120502580D01*
X119426147Y-120454961D01*
X119521385Y-120359723D01*
X119569004Y-120169247D01*
X119569004Y-119835914D01*
X119521385Y-119645438D01*
X119426147Y-119550200D01*
X119330909Y-119502580D01*
X118521385Y-119597819D02*
X118473766Y-119550200D01*
X118378528Y-119502580D01*
X118140433Y-119502580D01*
X118045195Y-119550200D01*
X117997576Y-119597819D01*
X117949957Y-119693057D01*
X117949957Y-119788295D01*
X117997576Y-119931152D01*
X118569004Y-120502580D01*
X117949957Y-120502580D01*
X116997576Y-120502580D02*
X117569004Y-120502580D01*
X117283290Y-120502580D02*
X117283290Y-119502580D01*
X117378528Y-119645438D01*
X117473766Y-119740676D01*
X117569004Y-119788295D01*
X122727719Y-97769580D02*
X122727719Y-96769580D01*
X122061052Y-96769580D02*
X121870576Y-96769580D01*
X121775338Y-96817200D01*
X121680100Y-96912438D01*
X121632480Y-97102914D01*
X121632480Y-97436247D01*
X121680100Y-97626723D01*
X121775338Y-97721961D01*
X121870576Y-97769580D01*
X122061052Y-97769580D01*
X122156290Y-97721961D01*
X122251528Y-97626723D01*
X122299147Y-97436247D01*
X122299147Y-97102914D01*
X122251528Y-96912438D01*
X122156290Y-96817200D01*
X122061052Y-96769580D01*
X121299147Y-96769580D02*
X120680100Y-96769580D01*
X121013433Y-97150533D01*
X120870576Y-97150533D01*
X120775338Y-97198152D01*
X120727719Y-97245771D01*
X120680100Y-97341009D01*
X120680100Y-97579104D01*
X120727719Y-97674342D01*
X120775338Y-97721961D01*
X120870576Y-97769580D01*
X121156290Y-97769580D01*
X121251528Y-97721961D01*
X121299147Y-97674342D01*
X119822957Y-97102914D02*
X119822957Y-97769580D01*
X120061052Y-96721961D02*
X120299147Y-97436247D01*
X119680100Y-97436247D01*
X118584861Y-96721961D02*
X119442004Y-98007676D01*
X118299147Y-97483866D02*
X117822957Y-97483866D01*
X118394385Y-97769580D02*
X118061052Y-96769580D01*
X117727719Y-97769580D01*
X117442004Y-96864819D02*
X117394385Y-96817200D01*
X117299147Y-96769580D01*
X117061052Y-96769580D01*
X116965814Y-96817200D01*
X116918195Y-96864819D01*
X116870576Y-96960057D01*
X116870576Y-97055295D01*
X116918195Y-97198152D01*
X117489623Y-97769580D01*
X116870576Y-97769580D01*
X118965814Y-89070200D02*
X119061052Y-89022580D01*
X119203909Y-89022580D01*
X119346766Y-89070200D01*
X119442004Y-89165438D01*
X119489623Y-89260676D01*
X119537242Y-89451152D01*
X119537242Y-89594009D01*
X119489623Y-89784485D01*
X119442004Y-89879723D01*
X119346766Y-89974961D01*
X119203909Y-90022580D01*
X119108671Y-90022580D01*
X118965814Y-89974961D01*
X118918195Y-89927342D01*
X118918195Y-89594009D01*
X119108671Y-89594009D01*
X118489623Y-90022580D02*
X118489623Y-89022580D01*
X117918195Y-90022580D01*
X117918195Y-89022580D01*
X117442004Y-90022580D02*
X117442004Y-89022580D01*
X117203909Y-89022580D01*
X117061052Y-89070200D01*
X116965814Y-89165438D01*
X116918195Y-89260676D01*
X116870576Y-89451152D01*
X116870576Y-89594009D01*
X116918195Y-89784485D01*
X116965814Y-89879723D01*
X117061052Y-89974961D01*
X117203909Y-90022580D01*
X117442004Y-90022580D01*
X120521385Y-82529580D02*
X120854719Y-82053390D01*
X121092814Y-82529580D02*
X121092814Y-81529580D01*
X120711861Y-81529580D01*
X120616623Y-81577200D01*
X120569004Y-81624819D01*
X120521385Y-81720057D01*
X120521385Y-81862914D01*
X120569004Y-81958152D01*
X120616623Y-82005771D01*
X120711861Y-82053390D01*
X121092814Y-82053390D01*
X120092814Y-82005771D02*
X119759480Y-82005771D01*
X119616623Y-82529580D02*
X120092814Y-82529580D01*
X120092814Y-81529580D01*
X119616623Y-81529580D01*
X119235671Y-82481961D02*
X119092814Y-82529580D01*
X118854719Y-82529580D01*
X118759480Y-82481961D01*
X118711861Y-82434342D01*
X118664242Y-82339104D01*
X118664242Y-82243866D01*
X118711861Y-82148628D01*
X118759480Y-82101009D01*
X118854719Y-82053390D01*
X119045195Y-82005771D01*
X119140433Y-81958152D01*
X119188052Y-81910533D01*
X119235671Y-81815295D01*
X119235671Y-81720057D01*
X119188052Y-81624819D01*
X119140433Y-81577200D01*
X119045195Y-81529580D01*
X118807100Y-81529580D01*
X118664242Y-81577200D01*
X118235671Y-82005771D02*
X117902338Y-82005771D01*
X117759480Y-82529580D02*
X118235671Y-82529580D01*
X118235671Y-81529580D01*
X117759480Y-81529580D01*
X117473766Y-81529580D02*
X116902338Y-81529580D01*
X117188052Y-82529580D02*
X117188052Y-81529580D01*
X143714433Y-110342580D02*
X143714433Y-109342580D01*
X143047766Y-109342580D02*
X142857290Y-109342580D01*
X142762052Y-109390200D01*
X142666814Y-109485438D01*
X142619195Y-109675914D01*
X142619195Y-110009247D01*
X142666814Y-110199723D01*
X142762052Y-110294961D01*
X142857290Y-110342580D01*
X143047766Y-110342580D01*
X143143004Y-110294961D01*
X143238242Y-110199723D01*
X143285861Y-110009247D01*
X143285861Y-109675914D01*
X143238242Y-109485438D01*
X143143004Y-109390200D01*
X143047766Y-109342580D01*
X141666814Y-110342580D02*
X142238242Y-110342580D01*
X141952528Y-110342580D02*
X141952528Y-109342580D01*
X142047766Y-109485438D01*
X142143004Y-109580676D01*
X142238242Y-109628295D01*
X140762052Y-109342580D02*
X141238242Y-109342580D01*
X141285861Y-109818771D01*
X141238242Y-109771152D01*
X141143004Y-109723533D01*
X140904909Y-109723533D01*
X140809671Y-109771152D01*
X140762052Y-109818771D01*
X140714433Y-109914009D01*
X140714433Y-110152104D01*
X140762052Y-110247342D01*
X140809671Y-110294961D01*
X140904909Y-110342580D01*
X141143004Y-110342580D01*
X141238242Y-110294961D01*
X141285861Y-110247342D01*
X139571576Y-109294961D02*
X140428719Y-110580676D01*
X139333480Y-109342580D02*
X139095385Y-110342580D01*
X138904909Y-109628295D01*
X138714433Y-110342580D01*
X138476338Y-109342580D01*
X138143004Y-110294961D02*
X138000147Y-110342580D01*
X137762052Y-110342580D01*
X137666814Y-110294961D01*
X137619195Y-110247342D01*
X137571576Y-110152104D01*
X137571576Y-110056866D01*
X137619195Y-109961628D01*
X137666814Y-109914009D01*
X137762052Y-109866390D01*
X137952528Y-109818771D01*
X138047766Y-109771152D01*
X138095385Y-109723533D01*
X138143004Y-109628295D01*
X138143004Y-109533057D01*
X138095385Y-109437819D01*
X138047766Y-109390200D01*
X137952528Y-109342580D01*
X137714433Y-109342580D01*
X137571576Y-109390200D01*
D10*
X151515190Y-75281180D02*
X151991380Y-75281180D01*
X152039000Y-75757371D01*
X151991380Y-75709752D01*
X151896142Y-75662133D01*
X151658047Y-75662133D01*
X151562809Y-75709752D01*
X151515190Y-75757371D01*
X151467571Y-75852609D01*
X151467571Y-76090704D01*
X151515190Y-76185942D01*
X151562809Y-76233561D01*
X151658047Y-76281180D01*
X151896142Y-76281180D01*
X151991380Y-76233561D01*
X152039000Y-76185942D01*
X151181857Y-75281180D02*
X150848523Y-76281180D01*
X150515190Y-75281180D01*
X147896142Y-76281180D02*
X147896142Y-75281180D01*
X147658047Y-75281180D01*
X147515190Y-75328800D01*
X147419952Y-75424038D01*
X147372333Y-75519276D01*
X147324714Y-75709752D01*
X147324714Y-75852609D01*
X147372333Y-76043085D01*
X147419952Y-76138323D01*
X147515190Y-76233561D01*
X147658047Y-76281180D01*
X147896142Y-76281180D01*
X144086619Y-75328800D02*
X144181857Y-75281180D01*
X144324714Y-75281180D01*
X144467571Y-75328800D01*
X144562809Y-75424038D01*
X144610428Y-75519276D01*
X144658047Y-75709752D01*
X144658047Y-75852609D01*
X144610428Y-76043085D01*
X144562809Y-76138323D01*
X144467571Y-76233561D01*
X144324714Y-76281180D01*
X144229476Y-76281180D01*
X144086619Y-76233561D01*
X144039000Y-76185942D01*
X144039000Y-75852609D01*
X144229476Y-75852609D01*
D11*
X132346766Y-100436580D02*
X132346766Y-99436580D01*
X131680100Y-99436580D02*
X131489623Y-99436580D01*
X131394385Y-99484200D01*
X131299147Y-99579438D01*
X131251528Y-99769914D01*
X131251528Y-100103247D01*
X131299147Y-100293723D01*
X131394385Y-100388961D01*
X131489623Y-100436580D01*
X131680100Y-100436580D01*
X131775338Y-100388961D01*
X131870576Y-100293723D01*
X131918195Y-100103247D01*
X131918195Y-99769914D01*
X131870576Y-99579438D01*
X131775338Y-99484200D01*
X131680100Y-99436580D01*
X130918195Y-99436580D02*
X130299147Y-99436580D01*
X130632480Y-99817533D01*
X130489623Y-99817533D01*
X130394385Y-99865152D01*
X130346766Y-99912771D01*
X130299147Y-100008009D01*
X130299147Y-100246104D01*
X130346766Y-100341342D01*
X130394385Y-100388961D01*
X130489623Y-100436580D01*
X130775338Y-100436580D01*
X130870576Y-100388961D01*
X130918195Y-100341342D01*
X129822957Y-100436580D02*
X129632480Y-100436580D01*
X129537242Y-100388961D01*
X129489623Y-100341342D01*
X129394385Y-100198485D01*
X129346766Y-100008009D01*
X129346766Y-99627057D01*
X129394385Y-99531819D01*
X129442004Y-99484200D01*
X129537242Y-99436580D01*
X129727719Y-99436580D01*
X129822957Y-99484200D01*
X129870576Y-99531819D01*
X129918195Y-99627057D01*
X129918195Y-99865152D01*
X129870576Y-99960390D01*
X129822957Y-100008009D01*
X129727719Y-100055628D01*
X129537242Y-100055628D01*
X129442004Y-100008009D01*
X129394385Y-99960390D01*
X129346766Y-99865152D01*
X128203909Y-99388961D02*
X129061052Y-100674676D01*
X127918195Y-100150866D02*
X127442004Y-100150866D01*
X128013433Y-100436580D02*
X127680100Y-99436580D01*
X127346766Y-100436580D01*
X127108671Y-99436580D02*
X126489623Y-99436580D01*
X126822957Y-99817533D01*
X126680100Y-99817533D01*
X126584861Y-99865152D01*
X126537242Y-99912771D01*
X126489623Y-100008009D01*
X126489623Y-100246104D01*
X126537242Y-100341342D01*
X126584861Y-100388961D01*
X126680100Y-100436580D01*
X126965814Y-100436580D01*
X127061052Y-100388961D01*
X127108671Y-100341342D01*
X125346766Y-99388961D02*
X126203909Y-100674676D01*
X125061052Y-100388961D02*
X124918195Y-100436580D01*
X124680100Y-100436580D01*
X124584861Y-100388961D01*
X124537242Y-100341342D01*
X124489623Y-100246104D01*
X124489623Y-100150866D01*
X124537242Y-100055628D01*
X124584861Y-100008009D01*
X124680100Y-99960390D01*
X124870576Y-99912771D01*
X124965814Y-99865152D01*
X125013433Y-99817533D01*
X125061052Y-99722295D01*
X125061052Y-99627057D01*
X125013433Y-99531819D01*
X124965814Y-99484200D01*
X124870576Y-99436580D01*
X124632480Y-99436580D01*
X124489623Y-99484200D01*
X124061052Y-99912771D02*
X123727719Y-99912771D01*
X123584861Y-100436580D02*
X124061052Y-100436580D01*
X124061052Y-99436580D01*
X123584861Y-99436580D01*
X123156290Y-100436580D02*
X123156290Y-99436580D01*
X122584861Y-100436580D01*
X122584861Y-99436580D01*
X122156290Y-100388961D02*
X122013433Y-100436580D01*
X121775338Y-100436580D01*
X121680100Y-100388961D01*
X121632480Y-100341342D01*
X121584861Y-100246104D01*
X121584861Y-100150866D01*
X121632480Y-100055628D01*
X121680100Y-100008009D01*
X121775338Y-99960390D01*
X121965814Y-99912771D01*
X122061052Y-99865152D01*
X122108671Y-99817533D01*
X122156290Y-99722295D01*
X122156290Y-99627057D01*
X122108671Y-99531819D01*
X122061052Y-99484200D01*
X121965814Y-99436580D01*
X121727719Y-99436580D01*
X121584861Y-99484200D01*
X120965814Y-99436580D02*
X120775338Y-99436580D01*
X120680100Y-99484200D01*
X120584861Y-99579438D01*
X120537242Y-99769914D01*
X120537242Y-100103247D01*
X120584861Y-100293723D01*
X120680100Y-100388961D01*
X120775338Y-100436580D01*
X120965814Y-100436580D01*
X121061052Y-100388961D01*
X121156290Y-100293723D01*
X121203909Y-100103247D01*
X121203909Y-99769914D01*
X121156290Y-99579438D01*
X121061052Y-99484200D01*
X120965814Y-99436580D01*
X119537242Y-100436580D02*
X119870576Y-99960390D01*
X120108671Y-100436580D02*
X120108671Y-99436580D01*
X119727719Y-99436580D01*
X119632480Y-99484200D01*
X119584861Y-99531819D01*
X119537242Y-99627057D01*
X119537242Y-99769914D01*
X119584861Y-99865152D01*
X119632480Y-99912771D01*
X119727719Y-99960390D01*
X120108671Y-99960390D01*
X119346766Y-100531819D02*
X118584861Y-100531819D01*
X118489623Y-99436580D02*
X118156290Y-100436580D01*
X117822957Y-99436580D01*
X117489623Y-100436580D02*
X117489623Y-99436580D01*
X116918195Y-100436580D01*
X116918195Y-99436580D01*
D10*
X162529580Y-128824380D02*
X162339104Y-128824380D01*
X162243866Y-128872000D01*
X162148628Y-128967238D01*
X162101009Y-129157714D01*
X162101009Y-129491047D01*
X162148628Y-129681523D01*
X162243866Y-129776761D01*
X162339104Y-129824380D01*
X162529580Y-129824380D01*
X162624819Y-129776761D01*
X162720057Y-129681523D01*
X162767676Y-129491047D01*
X162767676Y-129157714D01*
X162720057Y-128967238D01*
X162624819Y-128872000D01*
X162529580Y-128824380D01*
X161339104Y-129300571D02*
X161672438Y-129300571D01*
X161672438Y-129824380D02*
X161672438Y-128824380D01*
X161196247Y-128824380D01*
X160481961Y-129300571D02*
X160815295Y-129300571D01*
X160815295Y-129824380D02*
X160815295Y-128824380D01*
X160339104Y-128824380D01*
D12*
X150162000Y-74627771D02*
X150876285Y-74627771D01*
X150876285Y-73127771D01*
X149662000Y-73842057D02*
X149162000Y-73842057D01*
X148947714Y-74627771D02*
X149662000Y-74627771D01*
X149662000Y-73127771D01*
X148947714Y-73127771D01*
X148304857Y-74627771D02*
X148304857Y-73127771D01*
X147947714Y-73127771D01*
X147733428Y-73199200D01*
X147590571Y-73342057D01*
X147519142Y-73484914D01*
X147447714Y-73770628D01*
X147447714Y-73984914D01*
X147519142Y-74270628D01*
X147590571Y-74413485D01*
X147733428Y-74556342D01*
X147947714Y-74627771D01*
X148304857Y-74627771D01*
X145804857Y-73127771D02*
X144876285Y-73127771D01*
X145376285Y-73699200D01*
X145162000Y-73699200D01*
X145019142Y-73770628D01*
X144947714Y-73842057D01*
X144876285Y-73984914D01*
X144876285Y-74342057D01*
X144947714Y-74484914D01*
X145019142Y-74556342D01*
X145162000Y-74627771D01*
X145590571Y-74627771D01*
X145733428Y-74556342D01*
X145804857Y-74484914D01*
D11*
X129251528Y-110469580D02*
X129251528Y-109469580D01*
X128584861Y-109469580D02*
X128394385Y-109469580D01*
X128299147Y-109517200D01*
X128203909Y-109612438D01*
X128156290Y-109802914D01*
X128156290Y-110136247D01*
X128203909Y-110326723D01*
X128299147Y-110421961D01*
X128394385Y-110469580D01*
X128584861Y-110469580D01*
X128680100Y-110421961D01*
X128775338Y-110326723D01*
X128822957Y-110136247D01*
X128822957Y-109802914D01*
X128775338Y-109612438D01*
X128680100Y-109517200D01*
X128584861Y-109469580D01*
X127203909Y-110469580D02*
X127775338Y-110469580D01*
X127489623Y-110469580D02*
X127489623Y-109469580D01*
X127584861Y-109612438D01*
X127680100Y-109707676D01*
X127775338Y-109755295D01*
X126632480Y-109898152D02*
X126727719Y-109850533D01*
X126775338Y-109802914D01*
X126822957Y-109707676D01*
X126822957Y-109660057D01*
X126775338Y-109564819D01*
X126727719Y-109517200D01*
X126632480Y-109469580D01*
X126442004Y-109469580D01*
X126346766Y-109517200D01*
X126299147Y-109564819D01*
X126251528Y-109660057D01*
X126251528Y-109707676D01*
X126299147Y-109802914D01*
X126346766Y-109850533D01*
X126442004Y-109898152D01*
X126632480Y-109898152D01*
X126727719Y-109945771D01*
X126775338Y-109993390D01*
X126822957Y-110088628D01*
X126822957Y-110279104D01*
X126775338Y-110374342D01*
X126727719Y-110421961D01*
X126632480Y-110469580D01*
X126442004Y-110469580D01*
X126346766Y-110421961D01*
X126299147Y-110374342D01*
X126251528Y-110279104D01*
X126251528Y-110088628D01*
X126299147Y-109993390D01*
X126346766Y-109945771D01*
X126442004Y-109898152D01*
X125108671Y-109421961D02*
X125965814Y-110707676D01*
X124775338Y-110469580D02*
X124775338Y-109469580D01*
X124442004Y-110183866D01*
X124108671Y-109469580D01*
X124108671Y-110469580D01*
X123442004Y-109469580D02*
X123251528Y-109469580D01*
X123156290Y-109517200D01*
X123061052Y-109612438D01*
X123013433Y-109802914D01*
X123013433Y-110136247D01*
X123061052Y-110326723D01*
X123156290Y-110421961D01*
X123251528Y-110469580D01*
X123442004Y-110469580D01*
X123537242Y-110421961D01*
X123632480Y-110326723D01*
X123680100Y-110136247D01*
X123680100Y-109802914D01*
X123632480Y-109612438D01*
X123537242Y-109517200D01*
X123442004Y-109469580D01*
X122632480Y-110421961D02*
X122489623Y-110469580D01*
X122251528Y-110469580D01*
X122156290Y-110421961D01*
X122108671Y-110374342D01*
X122061052Y-110279104D01*
X122061052Y-110183866D01*
X122108671Y-110088628D01*
X122156290Y-110041009D01*
X122251528Y-109993390D01*
X122442004Y-109945771D01*
X122537242Y-109898152D01*
X122584861Y-109850533D01*
X122632480Y-109755295D01*
X122632480Y-109660057D01*
X122584861Y-109564819D01*
X122537242Y-109517200D01*
X122442004Y-109469580D01*
X122203909Y-109469580D01*
X122061052Y-109517200D01*
X121632480Y-110469580D02*
X121632480Y-109469580D01*
X120442004Y-109421961D02*
X121299147Y-110707676D01*
X119632480Y-110469580D02*
X120108671Y-110469580D01*
X120108671Y-109469580D01*
X119299147Y-109945771D02*
X118965814Y-109945771D01*
X118822957Y-110469580D02*
X119299147Y-110469580D01*
X119299147Y-109469580D01*
X118822957Y-109469580D01*
X118394385Y-110469580D02*
X118394385Y-109469580D01*
X118156290Y-109469580D01*
X118013433Y-109517200D01*
X117918195Y-109612438D01*
X117870576Y-109707676D01*
X117822957Y-109898152D01*
X117822957Y-110041009D01*
X117870576Y-110231485D01*
X117918195Y-110326723D01*
X118013433Y-110421961D01*
X118156290Y-110469580D01*
X118394385Y-110469580D01*
X117489623Y-109469580D02*
X116870576Y-109469580D01*
X117203909Y-109850533D01*
X117061052Y-109850533D01*
X116965814Y-109898152D01*
X116918195Y-109945771D01*
X116870576Y-110041009D01*
X116870576Y-110279104D01*
X116918195Y-110374342D01*
X116965814Y-110421961D01*
X117061052Y-110469580D01*
X117346766Y-110469580D01*
X117442004Y-110421961D01*
X117489623Y-110374342D01*
D10*
X123194190Y-75281180D02*
X123670380Y-75281180D01*
X123718000Y-75757371D01*
X123670380Y-75709752D01*
X123575142Y-75662133D01*
X123337047Y-75662133D01*
X123241809Y-75709752D01*
X123194190Y-75757371D01*
X123146571Y-75852609D01*
X123146571Y-76090704D01*
X123194190Y-76185942D01*
X123241809Y-76233561D01*
X123337047Y-76281180D01*
X123575142Y-76281180D01*
X123670380Y-76233561D01*
X123718000Y-76185942D01*
X122860857Y-75281180D02*
X122527523Y-76281180D01*
X122194190Y-75281180D01*
X119575142Y-76281180D02*
X119575142Y-75281180D01*
X119337047Y-75281180D01*
X119194190Y-75328800D01*
X119098952Y-75424038D01*
X119051333Y-75519276D01*
X119003714Y-75709752D01*
X119003714Y-75852609D01*
X119051333Y-76043085D01*
X119098952Y-76138323D01*
X119194190Y-76233561D01*
X119337047Y-76281180D01*
X119575142Y-76281180D01*
X115765619Y-75328800D02*
X115860857Y-75281180D01*
X116003714Y-75281180D01*
X116146571Y-75328800D01*
X116241809Y-75424038D01*
X116289428Y-75519276D01*
X116337047Y-75709752D01*
X116337047Y-75852609D01*
X116289428Y-76043085D01*
X116241809Y-76138323D01*
X116146571Y-76233561D01*
X116003714Y-76281180D01*
X115908476Y-76281180D01*
X115765619Y-76233561D01*
X115718000Y-76185942D01*
X115718000Y-75852609D01*
X115908476Y-75852609D01*
X164264204Y-119385028D02*
X163502300Y-119385028D01*
X164289604Y-117327628D02*
X163527700Y-117327628D01*
X163908652Y-117708580D02*
X163908652Y-116946676D01*
X158665647Y-129840380D02*
X158475171Y-129840380D01*
X158379933Y-129888000D01*
X158284695Y-129983238D01*
X158237076Y-130173714D01*
X158237076Y-130507047D01*
X158284695Y-130697523D01*
X158379933Y-130792761D01*
X158475171Y-130840380D01*
X158665647Y-130840380D01*
X158760885Y-130792761D01*
X158856123Y-130697523D01*
X158903742Y-130507047D01*
X158903742Y-130173714D01*
X158856123Y-129983238D01*
X158760885Y-129888000D01*
X158665647Y-129840380D01*
X157808504Y-130840380D02*
X157808504Y-129840380D01*
X157237076Y-130840380D01*
X157237076Y-129840380D01*
D11*
X139095385Y-94578771D02*
X138762052Y-94578771D01*
X138619195Y-95102580D02*
X139095385Y-95102580D01*
X139095385Y-94102580D01*
X138619195Y-94102580D01*
X138190623Y-95102580D02*
X138190623Y-94102580D01*
X137619195Y-95102580D01*
X137619195Y-94102580D01*
X140571576Y-100309580D02*
X140571576Y-99309580D01*
X139904909Y-99309580D02*
X139714433Y-99309580D01*
X139619195Y-99357200D01*
X139523957Y-99452438D01*
X139476338Y-99642914D01*
X139476338Y-99976247D01*
X139523957Y-100166723D01*
X139619195Y-100261961D01*
X139714433Y-100309580D01*
X139904909Y-100309580D01*
X140000147Y-100261961D01*
X140095385Y-100166723D01*
X140143004Y-99976247D01*
X140143004Y-99642914D01*
X140095385Y-99452438D01*
X140000147Y-99357200D01*
X139904909Y-99309580D01*
X138523957Y-100309580D02*
X139095385Y-100309580D01*
X138809671Y-100309580D02*
X138809671Y-99309580D01*
X138904909Y-99452438D01*
X139000147Y-99547676D01*
X139095385Y-99595295D01*
X138190623Y-99309580D02*
X137571576Y-99309580D01*
X137904909Y-99690533D01*
X137762052Y-99690533D01*
X137666814Y-99738152D01*
X137619195Y-99785771D01*
X137571576Y-99881009D01*
X137571576Y-100119104D01*
X137619195Y-100214342D01*
X137666814Y-100261961D01*
X137762052Y-100309580D01*
X138047766Y-100309580D01*
X138143004Y-100261961D01*
X138190623Y-100214342D01*
X129251528Y-112882580D02*
X129251528Y-111882580D01*
X128584861Y-111882580D02*
X128394385Y-111882580D01*
X128299147Y-111930200D01*
X128203909Y-112025438D01*
X128156290Y-112215914D01*
X128156290Y-112549247D01*
X128203909Y-112739723D01*
X128299147Y-112834961D01*
X128394385Y-112882580D01*
X128584861Y-112882580D01*
X128680100Y-112834961D01*
X128775338Y-112739723D01*
X128822957Y-112549247D01*
X128822957Y-112215914D01*
X128775338Y-112025438D01*
X128680100Y-111930200D01*
X128584861Y-111882580D01*
X127203909Y-112882580D02*
X127775338Y-112882580D01*
X127489623Y-112882580D02*
X127489623Y-111882580D01*
X127584861Y-112025438D01*
X127680100Y-112120676D01*
X127775338Y-112168295D01*
X126727719Y-112882580D02*
X126537242Y-112882580D01*
X126442004Y-112834961D01*
X126394385Y-112787342D01*
X126299147Y-112644485D01*
X126251528Y-112454009D01*
X126251528Y-112073057D01*
X126299147Y-111977819D01*
X126346766Y-111930200D01*
X126442004Y-111882580D01*
X126632480Y-111882580D01*
X126727719Y-111930200D01*
X126775338Y-111977819D01*
X126822957Y-112073057D01*
X126822957Y-112311152D01*
X126775338Y-112406390D01*
X126727719Y-112454009D01*
X126632480Y-112501628D01*
X126442004Y-112501628D01*
X126346766Y-112454009D01*
X126299147Y-112406390D01*
X126251528Y-112311152D01*
X125108671Y-111834961D02*
X125965814Y-113120676D01*
X124775338Y-112882580D02*
X124775338Y-111882580D01*
X124442004Y-112596866D01*
X124108671Y-111882580D01*
X124108671Y-112882580D01*
X123632480Y-112882580D02*
X123632480Y-111882580D01*
X123203909Y-112834961D02*
X123061052Y-112882580D01*
X122822957Y-112882580D01*
X122727719Y-112834961D01*
X122680100Y-112787342D01*
X122632480Y-112692104D01*
X122632480Y-112596866D01*
X122680100Y-112501628D01*
X122727719Y-112454009D01*
X122822957Y-112406390D01*
X123013433Y-112358771D01*
X123108671Y-112311152D01*
X123156290Y-112263533D01*
X123203909Y-112168295D01*
X123203909Y-112073057D01*
X123156290Y-111977819D01*
X123108671Y-111930200D01*
X123013433Y-111882580D01*
X122775338Y-111882580D01*
X122632480Y-111930200D01*
X122013433Y-111882580D02*
X121822957Y-111882580D01*
X121727719Y-111930200D01*
X121632480Y-112025438D01*
X121584861Y-112215914D01*
X121584861Y-112549247D01*
X121632480Y-112739723D01*
X121727719Y-112834961D01*
X121822957Y-112882580D01*
X122013433Y-112882580D01*
X122108671Y-112834961D01*
X122203909Y-112739723D01*
X122251528Y-112549247D01*
X122251528Y-112215914D01*
X122203909Y-112025438D01*
X122108671Y-111930200D01*
X122013433Y-111882580D01*
X120442004Y-111834961D02*
X121299147Y-113120676D01*
X119632480Y-112882580D02*
X120108671Y-112882580D01*
X120108671Y-111882580D01*
X119299147Y-112358771D02*
X118965814Y-112358771D01*
X118822957Y-112882580D02*
X119299147Y-112882580D01*
X119299147Y-111882580D01*
X118822957Y-111882580D01*
X118394385Y-112882580D02*
X118394385Y-111882580D01*
X118156290Y-111882580D01*
X118013433Y-111930200D01*
X117918195Y-112025438D01*
X117870576Y-112120676D01*
X117822957Y-112311152D01*
X117822957Y-112454009D01*
X117870576Y-112644485D01*
X117918195Y-112739723D01*
X118013433Y-112834961D01*
X118156290Y-112882580D01*
X118394385Y-112882580D01*
X116965814Y-112215914D02*
X116965814Y-112882580D01*
X117203909Y-111834961D02*
X117442004Y-112549247D01*
X116822957Y-112549247D01*
X140571576Y-117962580D02*
X140571576Y-116962580D01*
X139904909Y-116962580D02*
X139714433Y-116962580D01*
X139619195Y-117010200D01*
X139523957Y-117105438D01*
X139476338Y-117295914D01*
X139476338Y-117629247D01*
X139523957Y-117819723D01*
X139619195Y-117914961D01*
X139714433Y-117962580D01*
X139904909Y-117962580D01*
X140000147Y-117914961D01*
X140095385Y-117819723D01*
X140143004Y-117629247D01*
X140143004Y-117295914D01*
X140095385Y-117105438D01*
X140000147Y-117010200D01*
X139904909Y-116962580D01*
X139095385Y-117057819D02*
X139047766Y-117010200D01*
X138952528Y-116962580D01*
X138714433Y-116962580D01*
X138619195Y-117010200D01*
X138571576Y-117057819D01*
X138523957Y-117153057D01*
X138523957Y-117248295D01*
X138571576Y-117391152D01*
X139143004Y-117962580D01*
X138523957Y-117962580D01*
X138143004Y-117057819D02*
X138095385Y-117010200D01*
X138000147Y-116962580D01*
X137762052Y-116962580D01*
X137666814Y-117010200D01*
X137619195Y-117057819D01*
X137571576Y-117153057D01*
X137571576Y-117248295D01*
X137619195Y-117391152D01*
X138190623Y-117962580D01*
X137571576Y-117962580D01*
D10*
X165764590Y-75281180D02*
X166240780Y-75281180D01*
X166288400Y-75757371D01*
X166240780Y-75709752D01*
X166145542Y-75662133D01*
X165907447Y-75662133D01*
X165812209Y-75709752D01*
X165764590Y-75757371D01*
X165716971Y-75852609D01*
X165716971Y-76090704D01*
X165764590Y-76185942D01*
X165812209Y-76233561D01*
X165907447Y-76281180D01*
X166145542Y-76281180D01*
X166240780Y-76233561D01*
X166288400Y-76185942D01*
X165431257Y-75281180D02*
X165097923Y-76281180D01*
X164764590Y-75281180D01*
X162145542Y-76281180D02*
X162145542Y-75281180D01*
X161907447Y-75281180D01*
X161764590Y-75328800D01*
X161669352Y-75424038D01*
X161621733Y-75519276D01*
X161574114Y-75709752D01*
X161574114Y-75852609D01*
X161621733Y-76043085D01*
X161669352Y-76138323D01*
X161764590Y-76233561D01*
X161907447Y-76281180D01*
X162145542Y-76281180D01*
X158336019Y-75328800D02*
X158431257Y-75281180D01*
X158574114Y-75281180D01*
X158716971Y-75328800D01*
X158812209Y-75424038D01*
X158859828Y-75519276D01*
X158907447Y-75709752D01*
X158907447Y-75852609D01*
X158859828Y-76043085D01*
X158812209Y-76138323D01*
X158716971Y-76233561D01*
X158574114Y-76281180D01*
X158478876Y-76281180D01*
X158336019Y-76233561D01*
X158288400Y-76185942D01*
X158288400Y-75852609D01*
X158478876Y-75852609D01*
D11*
X141889052Y-92308628D02*
X141127147Y-92308628D01*
X141508100Y-92689580D02*
X141508100Y-91927676D01*
X140317623Y-92165771D02*
X140174766Y-92213390D01*
X140127147Y-92261009D01*
X140079528Y-92356247D01*
X140079528Y-92499104D01*
X140127147Y-92594342D01*
X140174766Y-92641961D01*
X140270004Y-92689580D01*
X140650957Y-92689580D01*
X140650957Y-91689580D01*
X140317623Y-91689580D01*
X140222385Y-91737200D01*
X140174766Y-91784819D01*
X140127147Y-91880057D01*
X140127147Y-91975295D01*
X140174766Y-92070533D01*
X140222385Y-92118152D01*
X140317623Y-92165771D01*
X140650957Y-92165771D01*
X139698576Y-92403866D02*
X139222385Y-92403866D01*
X139793814Y-92689580D02*
X139460480Y-91689580D01*
X139127147Y-92689580D01*
X138936671Y-91689580D02*
X138365242Y-91689580D01*
X138650957Y-92689580D02*
X138650957Y-91689580D01*
X138174766Y-91689580D02*
X137603338Y-91689580D01*
X137889052Y-92689580D02*
X137889052Y-91689580D01*
X144571576Y-115422580D02*
X144571576Y-114422580D01*
X143904909Y-114422580D02*
X143714433Y-114422580D01*
X143619195Y-114470200D01*
X143523957Y-114565438D01*
X143476338Y-114755914D01*
X143476338Y-115089247D01*
X143523957Y-115279723D01*
X143619195Y-115374961D01*
X143714433Y-115422580D01*
X143904909Y-115422580D01*
X144000147Y-115374961D01*
X144095385Y-115279723D01*
X144143004Y-115089247D01*
X144143004Y-114755914D01*
X144095385Y-114565438D01*
X144000147Y-114470200D01*
X143904909Y-114422580D01*
X142523957Y-115422580D02*
X143095385Y-115422580D01*
X142809671Y-115422580D02*
X142809671Y-114422580D01*
X142904909Y-114565438D01*
X143000147Y-114660676D01*
X143095385Y-114708295D01*
X141666814Y-114755914D02*
X141666814Y-115422580D01*
X141904909Y-114374961D02*
X142143004Y-115089247D01*
X141523957Y-115089247D01*
X140428719Y-114374961D02*
X141285861Y-115660676D01*
X140143004Y-115374961D02*
X140000147Y-115422580D01*
X139762052Y-115422580D01*
X139666814Y-115374961D01*
X139619195Y-115327342D01*
X139571576Y-115232104D01*
X139571576Y-115136866D01*
X139619195Y-115041628D01*
X139666814Y-114994009D01*
X139762052Y-114946390D01*
X139952528Y-114898771D01*
X140047766Y-114851152D01*
X140095385Y-114803533D01*
X140143004Y-114708295D01*
X140143004Y-114613057D01*
X140095385Y-114517819D01*
X140047766Y-114470200D01*
X139952528Y-114422580D01*
X139714433Y-114422580D01*
X139571576Y-114470200D01*
X138571576Y-115327342D02*
X138619195Y-115374961D01*
X138762052Y-115422580D01*
X138857290Y-115422580D01*
X139000147Y-115374961D01*
X139095385Y-115279723D01*
X139143004Y-115184485D01*
X139190623Y-114994009D01*
X139190623Y-114851152D01*
X139143004Y-114660676D01*
X139095385Y-114565438D01*
X139000147Y-114470200D01*
X138857290Y-114422580D01*
X138762052Y-114422580D01*
X138619195Y-114470200D01*
X138571576Y-114517819D01*
X138143004Y-115422580D02*
X138143004Y-114422580D01*
X137571576Y-115422580D02*
X138000147Y-114851152D01*
X137571576Y-114422580D02*
X138143004Y-114994009D01*
D12*
X123441200Y-74703971D02*
X124155485Y-74703971D01*
X124155485Y-73203971D01*
X122941200Y-73918257D02*
X122441200Y-73918257D01*
X122226914Y-74703971D02*
X122941200Y-74703971D01*
X122941200Y-73203971D01*
X122226914Y-73203971D01*
X121584057Y-74703971D02*
X121584057Y-73203971D01*
X121226914Y-73203971D01*
X121012628Y-73275400D01*
X120869771Y-73418257D01*
X120798342Y-73561114D01*
X120726914Y-73846828D01*
X120726914Y-74061114D01*
X120798342Y-74346828D01*
X120869771Y-74489685D01*
X121012628Y-74632542D01*
X121226914Y-74703971D01*
X121584057Y-74703971D01*
X118155485Y-74703971D02*
X119012628Y-74703971D01*
X118584057Y-74703971D02*
X118584057Y-73203971D01*
X118726914Y-73418257D01*
X118869771Y-73561114D01*
X119012628Y-73632542D01*
D11*
X127584861Y-92562580D02*
X127584861Y-91562580D01*
X126918195Y-91562580D02*
X126727719Y-91562580D01*
X126632480Y-91610200D01*
X126537242Y-91705438D01*
X126489623Y-91895914D01*
X126489623Y-92229247D01*
X126537242Y-92419723D01*
X126632480Y-92514961D01*
X126727719Y-92562580D01*
X126918195Y-92562580D01*
X127013433Y-92514961D01*
X127108671Y-92419723D01*
X127156290Y-92229247D01*
X127156290Y-91895914D01*
X127108671Y-91705438D01*
X127013433Y-91610200D01*
X126918195Y-91562580D01*
X126108671Y-91657819D02*
X126061052Y-91610200D01*
X125965814Y-91562580D01*
X125727719Y-91562580D01*
X125632480Y-91610200D01*
X125584861Y-91657819D01*
X125537242Y-91753057D01*
X125537242Y-91848295D01*
X125584861Y-91991152D01*
X126156290Y-92562580D01*
X125537242Y-92562580D01*
X124680100Y-91562580D02*
X124870576Y-91562580D01*
X124965814Y-91610200D01*
X125013433Y-91657819D01*
X125108671Y-91800676D01*
X125156290Y-91991152D01*
X125156290Y-92372104D01*
X125108671Y-92467342D01*
X125061052Y-92514961D01*
X124965814Y-92562580D01*
X124775338Y-92562580D01*
X124680100Y-92514961D01*
X124632480Y-92467342D01*
X124584861Y-92372104D01*
X124584861Y-92134009D01*
X124632480Y-92038771D01*
X124680100Y-91991152D01*
X124775338Y-91943533D01*
X124965814Y-91943533D01*
X125061052Y-91991152D01*
X125108671Y-92038771D01*
X125156290Y-92134009D01*
X123442004Y-91514961D02*
X124299147Y-92800676D01*
X123156290Y-92276866D02*
X122680100Y-92276866D01*
X123251528Y-92562580D02*
X122918195Y-91562580D01*
X122584861Y-92562580D01*
X122061052Y-91562580D02*
X121965814Y-91562580D01*
X121870576Y-91610200D01*
X121822957Y-91657819D01*
X121775338Y-91753057D01*
X121727719Y-91943533D01*
X121727719Y-92181628D01*
X121775338Y-92372104D01*
X121822957Y-92467342D01*
X121870576Y-92514961D01*
X121965814Y-92562580D01*
X122061052Y-92562580D01*
X122156290Y-92514961D01*
X122203909Y-92467342D01*
X122251528Y-92372104D01*
X122299147Y-92181628D01*
X122299147Y-91943533D01*
X122251528Y-91753057D01*
X122203909Y-91657819D01*
X122156290Y-91610200D01*
X122061052Y-91562580D01*
X120584861Y-91514961D02*
X121442004Y-92800676D01*
X120251528Y-92562580D02*
X120251528Y-91562580D01*
X120013433Y-91562580D01*
X119870576Y-91610200D01*
X119775338Y-91705438D01*
X119727719Y-91800676D01*
X119680100Y-91991152D01*
X119680100Y-92134009D01*
X119727719Y-92324485D01*
X119775338Y-92419723D01*
X119870576Y-92514961D01*
X120013433Y-92562580D01*
X120251528Y-92562580D01*
X119299147Y-92276866D02*
X118822957Y-92276866D01*
X119394385Y-92562580D02*
X119061052Y-91562580D01*
X118727719Y-92562580D01*
X117822957Y-92467342D02*
X117870576Y-92514961D01*
X118013433Y-92562580D01*
X118108671Y-92562580D01*
X118251528Y-92514961D01*
X118346766Y-92419723D01*
X118394385Y-92324485D01*
X118442004Y-92134009D01*
X118442004Y-91991152D01*
X118394385Y-91800676D01*
X118346766Y-91705438D01*
X118251528Y-91610200D01*
X118108671Y-91562580D01*
X118013433Y-91562580D01*
X117870576Y-91610200D01*
X117822957Y-91657819D01*
X117442004Y-91657819D02*
X117394385Y-91610200D01*
X117299147Y-91562580D01*
X117061052Y-91562580D01*
X116965814Y-91610200D01*
X116918195Y-91657819D01*
X116870576Y-91753057D01*
X116870576Y-91848295D01*
X116918195Y-91991152D01*
X117489623Y-92562580D01*
X116870576Y-92562580D01*
X124711861Y-117962580D02*
X124711861Y-116962580D01*
X124045195Y-116962580D02*
X123854719Y-116962580D01*
X123759480Y-117010200D01*
X123664242Y-117105438D01*
X123616623Y-117295914D01*
X123616623Y-117629247D01*
X123664242Y-117819723D01*
X123759480Y-117914961D01*
X123854719Y-117962580D01*
X124045195Y-117962580D01*
X124140433Y-117914961D01*
X124235671Y-117819723D01*
X124283290Y-117629247D01*
X124283290Y-117295914D01*
X124235671Y-117105438D01*
X124140433Y-117010200D01*
X124045195Y-116962580D01*
X122664242Y-117962580D02*
X123235671Y-117962580D01*
X122949957Y-117962580D02*
X122949957Y-116962580D01*
X123045195Y-117105438D01*
X123140433Y-117200676D01*
X123235671Y-117248295D01*
X122330909Y-116962580D02*
X121664242Y-116962580D01*
X122092814Y-117962580D01*
X120569004Y-116914961D02*
X121426147Y-118200676D01*
X119759480Y-117962580D02*
X120235671Y-117962580D01*
X120235671Y-116962580D01*
X119426147Y-117438771D02*
X119092814Y-117438771D01*
X118949957Y-117962580D02*
X119426147Y-117962580D01*
X119426147Y-116962580D01*
X118949957Y-116962580D01*
X118521385Y-117962580D02*
X118521385Y-116962580D01*
X118283290Y-116962580D01*
X118140433Y-117010200D01*
X118045195Y-117105438D01*
X117997576Y-117200676D01*
X117949957Y-117391152D01*
X117949957Y-117534009D01*
X117997576Y-117724485D01*
X118045195Y-117819723D01*
X118140433Y-117914961D01*
X118283290Y-117962580D01*
X118521385Y-117962580D01*
X117569004Y-117057819D02*
X117521385Y-117010200D01*
X117426147Y-116962580D01*
X117188052Y-116962580D01*
X117092814Y-117010200D01*
X117045195Y-117057819D01*
X116997576Y-117153057D01*
X116997576Y-117248295D01*
X117045195Y-117391152D01*
X117616623Y-117962580D01*
X116997576Y-117962580D01*
X140571576Y-120502580D02*
X140571576Y-119502580D01*
X139904909Y-119502580D02*
X139714433Y-119502580D01*
X139619195Y-119550200D01*
X139523957Y-119645438D01*
X139476338Y-119835914D01*
X139476338Y-120169247D01*
X139523957Y-120359723D01*
X139619195Y-120454961D01*
X139714433Y-120502580D01*
X139904909Y-120502580D01*
X140000147Y-120454961D01*
X140095385Y-120359723D01*
X140143004Y-120169247D01*
X140143004Y-119835914D01*
X140095385Y-119645438D01*
X140000147Y-119550200D01*
X139904909Y-119502580D01*
X139095385Y-119597819D02*
X139047766Y-119550200D01*
X138952528Y-119502580D01*
X138714433Y-119502580D01*
X138619195Y-119550200D01*
X138571576Y-119597819D01*
X138523957Y-119693057D01*
X138523957Y-119788295D01*
X138571576Y-119931152D01*
X139143004Y-120502580D01*
X138523957Y-120502580D01*
X138190623Y-119502580D02*
X137571576Y-119502580D01*
X137904909Y-119883533D01*
X137762052Y-119883533D01*
X137666814Y-119931152D01*
X137619195Y-119978771D01*
X137571576Y-120074009D01*
X137571576Y-120312104D01*
X137619195Y-120407342D01*
X137666814Y-120454961D01*
X137762052Y-120502580D01*
X138047766Y-120502580D01*
X138143004Y-120454961D01*
X138190623Y-120407342D01*
X119902338Y-84069580D02*
X119283290Y-84069580D01*
X119616623Y-84450533D01*
X119473766Y-84450533D01*
X119378528Y-84498152D01*
X119330909Y-84545771D01*
X119283290Y-84641009D01*
X119283290Y-84879104D01*
X119330909Y-84974342D01*
X119378528Y-85021961D01*
X119473766Y-85069580D01*
X119759480Y-85069580D01*
X119854719Y-85021961D01*
X119902338Y-84974342D01*
X118854719Y-84974342D02*
X118807100Y-85021961D01*
X118854719Y-85069580D01*
X118902338Y-85021961D01*
X118854719Y-84974342D01*
X118854719Y-85069580D01*
X118473766Y-84069580D02*
X117854719Y-84069580D01*
X118188052Y-84450533D01*
X118045195Y-84450533D01*
X117949957Y-84498152D01*
X117902338Y-84545771D01*
X117854719Y-84641009D01*
X117854719Y-84879104D01*
X117902338Y-84974342D01*
X117949957Y-85021961D01*
X118045195Y-85069580D01*
X118330909Y-85069580D01*
X118426147Y-85021961D01*
X118473766Y-84974342D01*
X117569004Y-84069580D02*
X117235671Y-85069580D01*
X116902338Y-84069580D01*
X118918195Y-107929580D02*
X118918195Y-106929580D01*
X118251528Y-106929580D02*
X118061052Y-106929580D01*
X117965814Y-106977200D01*
X117870576Y-107072438D01*
X117822957Y-107262914D01*
X117822957Y-107596247D01*
X117870576Y-107786723D01*
X117965814Y-107881961D01*
X118061052Y-107929580D01*
X118251528Y-107929580D01*
X118346766Y-107881961D01*
X118442004Y-107786723D01*
X118489623Y-107596247D01*
X118489623Y-107262914D01*
X118442004Y-107072438D01*
X118346766Y-106977200D01*
X118251528Y-106929580D01*
X116918195Y-106929580D02*
X117394385Y-106929580D01*
X117442004Y-107405771D01*
X117394385Y-107358152D01*
X117299147Y-107310533D01*
X117061052Y-107310533D01*
X116965814Y-107358152D01*
X116918195Y-107405771D01*
X116870576Y-107501009D01*
X116870576Y-107739104D01*
X116918195Y-107834342D01*
X116965814Y-107881961D01*
X117061052Y-107929580D01*
X117299147Y-107929580D01*
X117394385Y-107881961D01*
X117442004Y-107834342D01*
X132299147Y-102849580D02*
X132299147Y-101849580D01*
X131632480Y-101849580D02*
X131442004Y-101849580D01*
X131346766Y-101897200D01*
X131251528Y-101992438D01*
X131203909Y-102182914D01*
X131203909Y-102516247D01*
X131251528Y-102706723D01*
X131346766Y-102801961D01*
X131442004Y-102849580D01*
X131632480Y-102849580D01*
X131727719Y-102801961D01*
X131822957Y-102706723D01*
X131870576Y-102516247D01*
X131870576Y-102182914D01*
X131822957Y-101992438D01*
X131727719Y-101897200D01*
X131632480Y-101849580D01*
X130870576Y-101849580D02*
X130251528Y-101849580D01*
X130584861Y-102230533D01*
X130442004Y-102230533D01*
X130346766Y-102278152D01*
X130299147Y-102325771D01*
X130251528Y-102421009D01*
X130251528Y-102659104D01*
X130299147Y-102754342D01*
X130346766Y-102801961D01*
X130442004Y-102849580D01*
X130727719Y-102849580D01*
X130822957Y-102801961D01*
X130870576Y-102754342D01*
X129394385Y-101849580D02*
X129584861Y-101849580D01*
X129680100Y-101897200D01*
X129727719Y-101944819D01*
X129822957Y-102087676D01*
X129870576Y-102278152D01*
X129870576Y-102659104D01*
X129822957Y-102754342D01*
X129775338Y-102801961D01*
X129680100Y-102849580D01*
X129489623Y-102849580D01*
X129394385Y-102801961D01*
X129346766Y-102754342D01*
X129299147Y-102659104D01*
X129299147Y-102421009D01*
X129346766Y-102325771D01*
X129394385Y-102278152D01*
X129489623Y-102230533D01*
X129680100Y-102230533D01*
X129775338Y-102278152D01*
X129822957Y-102325771D01*
X129870576Y-102421009D01*
X128156290Y-101801961D02*
X129013433Y-103087676D01*
X127870576Y-102563866D02*
X127394385Y-102563866D01*
X127965814Y-102849580D02*
X127632480Y-101849580D01*
X127299147Y-102849580D01*
X126537242Y-102182914D02*
X126537242Y-102849580D01*
X126775338Y-101801961D02*
X127013433Y-102516247D01*
X126394385Y-102516247D01*
X125299147Y-101801961D02*
X126156290Y-103087676D01*
X125013433Y-102801961D02*
X124870576Y-102849580D01*
X124632480Y-102849580D01*
X124537242Y-102801961D01*
X124489623Y-102754342D01*
X124442004Y-102659104D01*
X124442004Y-102563866D01*
X124489623Y-102468628D01*
X124537242Y-102421009D01*
X124632480Y-102373390D01*
X124822957Y-102325771D01*
X124918195Y-102278152D01*
X124965814Y-102230533D01*
X125013433Y-102135295D01*
X125013433Y-102040057D01*
X124965814Y-101944819D01*
X124918195Y-101897200D01*
X124822957Y-101849580D01*
X124584861Y-101849580D01*
X124442004Y-101897200D01*
X124013433Y-102325771D02*
X123680100Y-102325771D01*
X123537242Y-102849580D02*
X124013433Y-102849580D01*
X124013433Y-101849580D01*
X123537242Y-101849580D01*
X123108671Y-102849580D02*
X123108671Y-101849580D01*
X122537242Y-102849580D01*
X122537242Y-101849580D01*
X122108671Y-102801961D02*
X121965814Y-102849580D01*
X121727719Y-102849580D01*
X121632480Y-102801961D01*
X121584861Y-102754342D01*
X121537242Y-102659104D01*
X121537242Y-102563866D01*
X121584861Y-102468628D01*
X121632480Y-102421009D01*
X121727719Y-102373390D01*
X121918195Y-102325771D01*
X122013433Y-102278152D01*
X122061052Y-102230533D01*
X122108671Y-102135295D01*
X122108671Y-102040057D01*
X122061052Y-101944819D01*
X122013433Y-101897200D01*
X121918195Y-101849580D01*
X121680100Y-101849580D01*
X121537242Y-101897200D01*
X120918195Y-101849580D02*
X120727719Y-101849580D01*
X120632480Y-101897200D01*
X120537242Y-101992438D01*
X120489623Y-102182914D01*
X120489623Y-102516247D01*
X120537242Y-102706723D01*
X120632480Y-102801961D01*
X120727719Y-102849580D01*
X120918195Y-102849580D01*
X121013433Y-102801961D01*
X121108671Y-102706723D01*
X121156290Y-102516247D01*
X121156290Y-102182914D01*
X121108671Y-101992438D01*
X121013433Y-101897200D01*
X120918195Y-101849580D01*
X119489623Y-102849580D02*
X119822957Y-102373390D01*
X120061052Y-102849580D02*
X120061052Y-101849580D01*
X119680100Y-101849580D01*
X119584861Y-101897200D01*
X119537242Y-101944819D01*
X119489623Y-102040057D01*
X119489623Y-102182914D01*
X119537242Y-102278152D01*
X119584861Y-102325771D01*
X119680100Y-102373390D01*
X120061052Y-102373390D01*
X119299147Y-102944819D02*
X118537242Y-102944819D01*
X118442004Y-101849580D02*
X118108671Y-102849580D01*
X117775338Y-101849580D01*
X117442004Y-102849580D02*
X117442004Y-101849580D01*
X117061052Y-101849580D01*
X116965814Y-101897200D01*
X116918195Y-101944819D01*
X116870576Y-102040057D01*
X116870576Y-102182914D01*
X116918195Y-102278152D01*
X116965814Y-102325771D01*
X117061052Y-102373390D01*
X117442004Y-102373390D01*
D10*
X164899204Y-123449028D02*
X164137300Y-123449028D01*
X164518252Y-123829980D02*
X164518252Y-123068076D01*
X158840171Y-104849914D02*
X158602076Y-105516580D01*
X158363980Y-104849914D01*
X157459219Y-105516580D02*
X158030647Y-105516580D01*
X157744933Y-105516580D02*
X157744933Y-104516580D01*
X157840171Y-104659438D01*
X157935409Y-104754676D01*
X158030647Y-104802295D01*
X157030647Y-105421342D02*
X156983028Y-105468961D01*
X157030647Y-105516580D01*
X157078266Y-105468961D01*
X157030647Y-105421342D01*
X157030647Y-105516580D01*
X156363980Y-104516580D02*
X156268742Y-104516580D01*
X156173504Y-104564200D01*
X156125885Y-104611819D01*
X156078266Y-104707057D01*
X156030647Y-104897533D01*
X156030647Y-105135628D01*
X156078266Y-105326104D01*
X156125885Y-105421342D01*
X156173504Y-105468961D01*
X156268742Y-105516580D01*
X156363980Y-105516580D01*
X156459219Y-105468961D01*
X156506838Y-105421342D01*
X156554457Y-105326104D01*
X156602076Y-105135628D01*
X156602076Y-104897533D01*
X156554457Y-104707057D01*
X156506838Y-104611819D01*
X156459219Y-104564200D01*
X156363980Y-104516580D01*
D11*
X140571576Y-102849580D02*
X140571576Y-101849580D01*
X139904909Y-101849580D02*
X139714433Y-101849580D01*
X139619195Y-101897200D01*
X139523957Y-101992438D01*
X139476338Y-102182914D01*
X139476338Y-102516247D01*
X139523957Y-102706723D01*
X139619195Y-102801961D01*
X139714433Y-102849580D01*
X139904909Y-102849580D01*
X140000147Y-102801961D01*
X140095385Y-102706723D01*
X140143004Y-102516247D01*
X140143004Y-102182914D01*
X140095385Y-101992438D01*
X140000147Y-101897200D01*
X139904909Y-101849580D01*
X138523957Y-102849580D02*
X139095385Y-102849580D01*
X138809671Y-102849580D02*
X138809671Y-101849580D01*
X138904909Y-101992438D01*
X139000147Y-102087676D01*
X139095385Y-102135295D01*
X138143004Y-101944819D02*
X138095385Y-101897200D01*
X138000147Y-101849580D01*
X137762052Y-101849580D01*
X137666814Y-101897200D01*
X137619195Y-101944819D01*
X137571576Y-102040057D01*
X137571576Y-102135295D01*
X137619195Y-102278152D01*
X138190623Y-102849580D01*
X137571576Y-102849580D01*
X140571576Y-107929580D02*
X140571576Y-106929580D01*
X139904909Y-106929580D02*
X139714433Y-106929580D01*
X139619195Y-106977200D01*
X139523957Y-107072438D01*
X139476338Y-107262914D01*
X139476338Y-107596247D01*
X139523957Y-107786723D01*
X139619195Y-107881961D01*
X139714433Y-107929580D01*
X139904909Y-107929580D01*
X140000147Y-107881961D01*
X140095385Y-107786723D01*
X140143004Y-107596247D01*
X140143004Y-107262914D01*
X140095385Y-107072438D01*
X140000147Y-106977200D01*
X139904909Y-106929580D01*
X139143004Y-106929580D02*
X138523957Y-106929580D01*
X138857290Y-107310533D01*
X138714433Y-107310533D01*
X138619195Y-107358152D01*
X138571576Y-107405771D01*
X138523957Y-107501009D01*
X138523957Y-107739104D01*
X138571576Y-107834342D01*
X138619195Y-107881961D01*
X138714433Y-107929580D01*
X139000147Y-107929580D01*
X139095385Y-107881961D01*
X139143004Y-107834342D01*
X138190623Y-106929580D02*
X137571576Y-106929580D01*
X137904909Y-107310533D01*
X137762052Y-107310533D01*
X137666814Y-107358152D01*
X137619195Y-107405771D01*
X137571576Y-107501009D01*
X137571576Y-107739104D01*
X137619195Y-107834342D01*
X137666814Y-107881961D01*
X137762052Y-107929580D01*
X138047766Y-107929580D01*
X138143004Y-107881961D01*
X138190623Y-107834342D01*
D10*
X162784642Y-122151980D02*
X162165595Y-122151980D01*
X162498928Y-122532933D01*
X162356071Y-122532933D01*
X162260833Y-122580552D01*
X162213214Y-122628171D01*
X162165595Y-122723409D01*
X162165595Y-122961504D01*
X162213214Y-123056742D01*
X162260833Y-123104361D01*
X162356071Y-123151980D01*
X162641785Y-123151980D01*
X162737023Y-123104361D01*
X162784642Y-123056742D01*
X161737023Y-123056742D02*
X161689404Y-123104361D01*
X161737023Y-123151980D01*
X161784642Y-123104361D01*
X161737023Y-123056742D01*
X161737023Y-123151980D01*
X161356071Y-122151980D02*
X160689404Y-122151980D01*
X161117976Y-123151980D01*
X160451309Y-122151980D02*
X160117976Y-123151980D01*
X159784642Y-122151980D01*
X158832261Y-122485314D02*
X158451309Y-122485314D01*
X158689404Y-122151980D02*
X158689404Y-123009123D01*
X158641785Y-123104361D01*
X158546547Y-123151980D01*
X158451309Y-123151980D01*
X157975119Y-123151980D02*
X158070357Y-123104361D01*
X158117976Y-123056742D01*
X158165595Y-122961504D01*
X158165595Y-122675790D01*
X158117976Y-122580552D01*
X158070357Y-122532933D01*
X157975119Y-122485314D01*
X157832261Y-122485314D01*
X157737023Y-122532933D01*
X157689404Y-122580552D01*
X157641785Y-122675790D01*
X157641785Y-122961504D01*
X157689404Y-123056742D01*
X157737023Y-123104361D01*
X157832261Y-123151980D01*
X157975119Y-123151980D01*
X156022738Y-122485314D02*
X156022738Y-123151980D01*
X156260833Y-122104361D02*
X156498928Y-122818647D01*
X155879880Y-122818647D01*
X155498928Y-123056742D02*
X155451309Y-123104361D01*
X155498928Y-123151980D01*
X155546547Y-123104361D01*
X155498928Y-123056742D01*
X155498928Y-123151980D01*
X154546547Y-122151980D02*
X155022738Y-122151980D01*
X155070357Y-122628171D01*
X155022738Y-122580552D01*
X154927500Y-122532933D01*
X154689404Y-122532933D01*
X154594166Y-122580552D01*
X154546547Y-122628171D01*
X154498928Y-122723409D01*
X154498928Y-122961504D01*
X154546547Y-123056742D01*
X154594166Y-123104361D01*
X154689404Y-123151980D01*
X154927500Y-123151980D01*
X155022738Y-123104361D01*
X155070357Y-123056742D01*
X154213214Y-122151980D02*
X153879880Y-123151980D01*
X153546547Y-122151980D01*
X152451309Y-123151980D02*
X152451309Y-122151980D01*
X152451309Y-122532933D02*
X152356071Y-122485314D01*
X152165595Y-122485314D01*
X152070357Y-122532933D01*
X152022738Y-122580552D01*
X151975119Y-122675790D01*
X151975119Y-122961504D01*
X152022738Y-123056742D01*
X152070357Y-123104361D01*
X152165595Y-123151980D01*
X152356071Y-123151980D01*
X152451309Y-123104361D01*
X151117976Y-123151980D02*
X151117976Y-122628171D01*
X151165595Y-122532933D01*
X151260833Y-122485314D01*
X151451309Y-122485314D01*
X151546547Y-122532933D01*
X151117976Y-123104361D02*
X151213214Y-123151980D01*
X151451309Y-123151980D01*
X151546547Y-123104361D01*
X151594166Y-123009123D01*
X151594166Y-122913885D01*
X151546547Y-122818647D01*
X151451309Y-122771028D01*
X151213214Y-122771028D01*
X151117976Y-122723409D01*
X150784642Y-122485314D02*
X150403690Y-122485314D01*
X150641785Y-122151980D02*
X150641785Y-123009123D01*
X150594166Y-123104361D01*
X150498928Y-123151980D01*
X150403690Y-123151980D01*
X150213214Y-122485314D02*
X149832261Y-122485314D01*
X150070357Y-122151980D02*
X150070357Y-123009123D01*
X150022738Y-123104361D01*
X149927500Y-123151980D01*
X149832261Y-123151980D01*
X149117976Y-123104361D02*
X149213214Y-123151980D01*
X149403690Y-123151980D01*
X149498928Y-123104361D01*
X149546547Y-123009123D01*
X149546547Y-122628171D01*
X149498928Y-122532933D01*
X149403690Y-122485314D01*
X149213214Y-122485314D01*
X149117976Y-122532933D01*
X149070357Y-122628171D01*
X149070357Y-122723409D01*
X149546547Y-122818647D01*
X148641785Y-123151980D02*
X148641785Y-122485314D01*
X148641785Y-122675790D02*
X148594166Y-122580552D01*
X148546547Y-122532933D01*
X148451309Y-122485314D01*
X148356071Y-122485314D01*
X148022738Y-123151980D02*
X148022738Y-122485314D01*
X148022738Y-122151980D02*
X148070357Y-122199600D01*
X148022738Y-122247219D01*
X147975119Y-122199600D01*
X148022738Y-122151980D01*
X148022738Y-122247219D01*
X147165595Y-123104361D02*
X147260833Y-123151980D01*
X147451309Y-123151980D01*
X147546547Y-123104361D01*
X147594166Y-123009123D01*
X147594166Y-122628171D01*
X147546547Y-122532933D01*
X147451309Y-122485314D01*
X147260833Y-122485314D01*
X147165595Y-122532933D01*
X147117976Y-122628171D01*
X147117976Y-122723409D01*
X147594166Y-122818647D01*
X146737023Y-123104361D02*
X146641785Y-123151980D01*
X146451309Y-123151980D01*
X146356071Y-123104361D01*
X146308452Y-123009123D01*
X146308452Y-122961504D01*
X146356071Y-122866266D01*
X146451309Y-122818647D01*
X146594166Y-122818647D01*
X146689404Y-122771028D01*
X146737023Y-122675790D01*
X146737023Y-122628171D01*
X146689404Y-122532933D01*
X146594166Y-122485314D01*
X146451309Y-122485314D01*
X146356071Y-122532933D01*
X162784642Y-124095314D02*
X162594166Y-124761980D01*
X162403690Y-124285790D01*
X162213214Y-124761980D01*
X162022738Y-124095314D01*
X161641785Y-124761980D02*
X161641785Y-124095314D01*
X161641785Y-123761980D02*
X161689404Y-123809600D01*
X161641785Y-123857219D01*
X161594166Y-123809600D01*
X161641785Y-123761980D01*
X161641785Y-123857219D01*
X161308452Y-124095314D02*
X160927500Y-124095314D01*
X161165595Y-123761980D02*
X161165595Y-124619123D01*
X161117976Y-124714361D01*
X161022738Y-124761980D01*
X160927500Y-124761980D01*
X160594166Y-124761980D02*
X160594166Y-123761980D01*
X160165595Y-124761980D02*
X160165595Y-124238171D01*
X160213214Y-124142933D01*
X160308452Y-124095314D01*
X160451309Y-124095314D01*
X160546547Y-124142933D01*
X160594166Y-124190552D01*
X158927500Y-124095314D02*
X158927500Y-125095314D01*
X158927500Y-124142933D02*
X158832261Y-124095314D01*
X158641785Y-124095314D01*
X158546547Y-124142933D01*
X158498928Y-124190552D01*
X158451309Y-124285790D01*
X158451309Y-124571504D01*
X158498928Y-124666742D01*
X158546547Y-124714361D01*
X158641785Y-124761980D01*
X158832261Y-124761980D01*
X158927500Y-124714361D01*
X158022738Y-124761980D02*
X158022738Y-124095314D01*
X158022738Y-124285790D02*
X157975119Y-124190552D01*
X157927500Y-124142933D01*
X157832261Y-124095314D01*
X157737023Y-124095314D01*
X157260833Y-124761980D02*
X157356071Y-124714361D01*
X157403690Y-124666742D01*
X157451309Y-124571504D01*
X157451309Y-124285790D01*
X157403690Y-124190552D01*
X157356071Y-124142933D01*
X157260833Y-124095314D01*
X157117976Y-124095314D01*
X157022738Y-124142933D01*
X156975119Y-124190552D01*
X156927500Y-124285790D01*
X156927500Y-124571504D01*
X156975119Y-124666742D01*
X157022738Y-124714361D01*
X157117976Y-124761980D01*
X157260833Y-124761980D01*
X156641785Y-124095314D02*
X156260833Y-124095314D01*
X156498928Y-123761980D02*
X156498928Y-124619123D01*
X156451309Y-124714361D01*
X156356071Y-124761980D01*
X156260833Y-124761980D01*
X155546547Y-124714361D02*
X155641785Y-124761980D01*
X155832261Y-124761980D01*
X155927500Y-124714361D01*
X155975119Y-124619123D01*
X155975119Y-124238171D01*
X155927500Y-124142933D01*
X155832261Y-124095314D01*
X155641785Y-124095314D01*
X155546547Y-124142933D01*
X155498928Y-124238171D01*
X155498928Y-124333409D01*
X155975119Y-124428647D01*
X154641785Y-124714361D02*
X154737023Y-124761980D01*
X154927500Y-124761980D01*
X155022738Y-124714361D01*
X155070357Y-124666742D01*
X155117976Y-124571504D01*
X155117976Y-124285790D01*
X155070357Y-124190552D01*
X155022738Y-124142933D01*
X154927500Y-124095314D01*
X154737023Y-124095314D01*
X154641785Y-124142933D01*
X154356071Y-124095314D02*
X153975119Y-124095314D01*
X154213214Y-123761980D02*
X154213214Y-124619123D01*
X154165595Y-124714361D01*
X154070357Y-124761980D01*
X153975119Y-124761980D01*
X153641785Y-124761980D02*
X153641785Y-124095314D01*
X153641785Y-123761980D02*
X153689404Y-123809600D01*
X153641785Y-123857219D01*
X153594166Y-123809600D01*
X153641785Y-123761980D01*
X153641785Y-123857219D01*
X153022738Y-124761980D02*
X153117976Y-124714361D01*
X153165595Y-124666742D01*
X153213214Y-124571504D01*
X153213214Y-124285790D01*
X153165595Y-124190552D01*
X153117976Y-124142933D01*
X153022738Y-124095314D01*
X152879880Y-124095314D01*
X152784642Y-124142933D01*
X152737023Y-124190552D01*
X152689404Y-124285790D01*
X152689404Y-124571504D01*
X152737023Y-124666742D01*
X152784642Y-124714361D01*
X152879880Y-124761980D01*
X153022738Y-124761980D01*
X152260833Y-124095314D02*
X152260833Y-124761980D01*
X152260833Y-124190552D02*
X152213214Y-124142933D01*
X152117976Y-124095314D01*
X151975119Y-124095314D01*
X151879880Y-124142933D01*
X151832261Y-124238171D01*
X151832261Y-124761980D01*
X150165595Y-124714361D02*
X150260833Y-124761980D01*
X150451309Y-124761980D01*
X150546547Y-124714361D01*
X150594166Y-124666742D01*
X150641785Y-124571504D01*
X150641785Y-124285790D01*
X150594166Y-124190552D01*
X150546547Y-124142933D01*
X150451309Y-124095314D01*
X150260833Y-124095314D01*
X150165595Y-124142933D01*
X149737023Y-124761980D02*
X149737023Y-124095314D01*
X149737023Y-123761980D02*
X149784642Y-123809600D01*
X149737023Y-123857219D01*
X149689404Y-123809600D01*
X149737023Y-123761980D01*
X149737023Y-123857219D01*
X149260833Y-124761980D02*
X149260833Y-124095314D01*
X149260833Y-124285790D02*
X149213214Y-124190552D01*
X149165595Y-124142933D01*
X149070357Y-124095314D01*
X148975119Y-124095314D01*
X148213214Y-124714361D02*
X148308452Y-124761980D01*
X148498928Y-124761980D01*
X148594166Y-124714361D01*
X148641785Y-124666742D01*
X148689404Y-124571504D01*
X148689404Y-124285790D01*
X148641785Y-124190552D01*
X148594166Y-124142933D01*
X148498928Y-124095314D01*
X148308452Y-124095314D01*
X148213214Y-124142933D01*
X147356071Y-124095314D02*
X147356071Y-124761980D01*
X147784642Y-124095314D02*
X147784642Y-124619123D01*
X147737023Y-124714361D01*
X147641785Y-124761980D01*
X147498928Y-124761980D01*
X147403690Y-124714361D01*
X147356071Y-124666742D01*
X146879880Y-124761980D02*
X146879880Y-124095314D01*
X146879880Y-123761980D02*
X146927500Y-123809600D01*
X146879880Y-123857219D01*
X146832261Y-123809600D01*
X146879880Y-123761980D01*
X146879880Y-123857219D01*
X146546547Y-124095314D02*
X146165595Y-124095314D01*
X146403690Y-123761980D02*
X146403690Y-124619123D01*
X146356071Y-124714361D01*
X146260833Y-124761980D01*
X146165595Y-124761980D01*
X144927500Y-124761980D02*
X145022738Y-124714361D01*
X145070357Y-124666742D01*
X145117976Y-124571504D01*
X145117976Y-124285790D01*
X145070357Y-124190552D01*
X145022738Y-124142933D01*
X144927500Y-124095314D01*
X144784642Y-124095314D01*
X144689404Y-124142933D01*
X144641785Y-124190552D01*
X144594166Y-124285790D01*
X144594166Y-124571504D01*
X144641785Y-124666742D01*
X144689404Y-124714361D01*
X144784642Y-124761980D01*
X144927500Y-124761980D01*
X144165595Y-124095314D02*
X144165595Y-124761980D01*
X144165595Y-124190552D02*
X144117976Y-124142933D01*
X144022738Y-124095314D01*
X143879880Y-124095314D01*
X143784642Y-124142933D01*
X143737023Y-124238171D01*
X143737023Y-124761980D01*
X143117976Y-124761980D02*
X143213214Y-124714361D01*
X143260833Y-124619123D01*
X143260833Y-123761980D01*
X142832261Y-124095314D02*
X142594166Y-124761980D01*
X142356071Y-124095314D02*
X142594166Y-124761980D01*
X142689404Y-125000076D01*
X142737023Y-125047695D01*
X142832261Y-125095314D01*
X141975119Y-124666742D02*
X141927500Y-124714361D01*
X141975119Y-124761980D01*
X142022738Y-124714361D01*
X141975119Y-124666742D01*
X141975119Y-124761980D01*
X141975119Y-124381028D02*
X142022738Y-123809600D01*
X141975119Y-123761980D01*
X141927500Y-123809600D01*
X141975119Y-124381028D01*
X141975119Y-123761980D01*
D11*
X124584861Y-115422580D02*
X124584861Y-114422580D01*
X123918195Y-114422580D02*
X123727719Y-114422580D01*
X123632480Y-114470200D01*
X123537242Y-114565438D01*
X123489623Y-114755914D01*
X123489623Y-115089247D01*
X123537242Y-115279723D01*
X123632480Y-115374961D01*
X123727719Y-115422580D01*
X123918195Y-115422580D01*
X124013433Y-115374961D01*
X124108671Y-115279723D01*
X124156290Y-115089247D01*
X124156290Y-114755914D01*
X124108671Y-114565438D01*
X124013433Y-114470200D01*
X123918195Y-114422580D01*
X122537242Y-115422580D02*
X123108671Y-115422580D01*
X122822957Y-115422580D02*
X122822957Y-114422580D01*
X122918195Y-114565438D01*
X123013433Y-114660676D01*
X123108671Y-114708295D01*
X121680100Y-114422580D02*
X121870576Y-114422580D01*
X121965814Y-114470200D01*
X122013433Y-114517819D01*
X122108671Y-114660676D01*
X122156290Y-114851152D01*
X122156290Y-115232104D01*
X122108671Y-115327342D01*
X122061052Y-115374961D01*
X121965814Y-115422580D01*
X121775338Y-115422580D01*
X121680100Y-115374961D01*
X121632480Y-115327342D01*
X121584861Y-115232104D01*
X121584861Y-114994009D01*
X121632480Y-114898771D01*
X121680100Y-114851152D01*
X121775338Y-114803533D01*
X121965814Y-114803533D01*
X122061052Y-114851152D01*
X122108671Y-114898771D01*
X122156290Y-114994009D01*
X120442004Y-114374961D02*
X121299147Y-115660676D01*
X119632480Y-115422580D02*
X120108671Y-115422580D01*
X120108671Y-114422580D01*
X119299147Y-114898771D02*
X118965814Y-114898771D01*
X118822957Y-115422580D02*
X119299147Y-115422580D01*
X119299147Y-114422580D01*
X118822957Y-114422580D01*
X118394385Y-115422580D02*
X118394385Y-114422580D01*
X118156290Y-114422580D01*
X118013433Y-114470200D01*
X117918195Y-114565438D01*
X117870576Y-114660676D01*
X117822957Y-114851152D01*
X117822957Y-114994009D01*
X117870576Y-115184485D01*
X117918195Y-115279723D01*
X118013433Y-115374961D01*
X118156290Y-115422580D01*
X118394385Y-115422580D01*
X116870576Y-115422580D02*
X117442004Y-115422580D01*
X117156290Y-115422580D02*
X117156290Y-114422580D01*
X117251528Y-114565438D01*
X117346766Y-114660676D01*
X117442004Y-114708295D01*
X143571576Y-112882580D02*
X143571576Y-111882580D01*
X142904909Y-111882580D02*
X142714433Y-111882580D01*
X142619195Y-111930200D01*
X142523957Y-112025438D01*
X142476338Y-112215914D01*
X142476338Y-112549247D01*
X142523957Y-112739723D01*
X142619195Y-112834961D01*
X142714433Y-112882580D01*
X142904909Y-112882580D01*
X143000147Y-112834961D01*
X143095385Y-112739723D01*
X143143004Y-112549247D01*
X143143004Y-112215914D01*
X143095385Y-112025438D01*
X143000147Y-111930200D01*
X142904909Y-111882580D01*
X142143004Y-111882580D02*
X141523957Y-111882580D01*
X141857290Y-112263533D01*
X141714433Y-112263533D01*
X141619195Y-112311152D01*
X141571576Y-112358771D01*
X141523957Y-112454009D01*
X141523957Y-112692104D01*
X141571576Y-112787342D01*
X141619195Y-112834961D01*
X141714433Y-112882580D01*
X142000147Y-112882580D01*
X142095385Y-112834961D01*
X142143004Y-112787342D01*
X141143004Y-111977819D02*
X141095385Y-111930200D01*
X141000147Y-111882580D01*
X140762052Y-111882580D01*
X140666814Y-111930200D01*
X140619195Y-111977819D01*
X140571576Y-112073057D01*
X140571576Y-112168295D01*
X140619195Y-112311152D01*
X141190623Y-112882580D01*
X140571576Y-112882580D01*
X139428719Y-111834961D02*
X140285861Y-113120676D01*
X139143004Y-112834961D02*
X139000147Y-112882580D01*
X138762052Y-112882580D01*
X138666814Y-112834961D01*
X138619195Y-112787342D01*
X138571576Y-112692104D01*
X138571576Y-112596866D01*
X138619195Y-112501628D01*
X138666814Y-112454009D01*
X138762052Y-112406390D01*
X138952528Y-112358771D01*
X139047766Y-112311152D01*
X139095385Y-112263533D01*
X139143004Y-112168295D01*
X139143004Y-112073057D01*
X139095385Y-111977819D01*
X139047766Y-111930200D01*
X138952528Y-111882580D01*
X138714433Y-111882580D01*
X138571576Y-111930200D01*
X138143004Y-112882580D02*
X138143004Y-111882580D01*
X137904909Y-111882580D01*
X137762052Y-111930200D01*
X137666814Y-112025438D01*
X137619195Y-112120676D01*
X137571576Y-112311152D01*
X137571576Y-112454009D01*
X137619195Y-112644485D01*
X137666814Y-112739723D01*
X137762052Y-112834961D01*
X137904909Y-112882580D01*
X138143004Y-112882580D01*
X140571576Y-105262580D02*
X140571576Y-104262580D01*
X139904909Y-104262580D02*
X139714433Y-104262580D01*
X139619195Y-104310200D01*
X139523957Y-104405438D01*
X139476338Y-104595914D01*
X139476338Y-104929247D01*
X139523957Y-105119723D01*
X139619195Y-105214961D01*
X139714433Y-105262580D01*
X139904909Y-105262580D01*
X140000147Y-105214961D01*
X140095385Y-105119723D01*
X140143004Y-104929247D01*
X140143004Y-104595914D01*
X140095385Y-104405438D01*
X140000147Y-104310200D01*
X139904909Y-104262580D01*
X139095385Y-104357819D02*
X139047766Y-104310200D01*
X138952528Y-104262580D01*
X138714433Y-104262580D01*
X138619195Y-104310200D01*
X138571576Y-104357819D01*
X138523957Y-104453057D01*
X138523957Y-104548295D01*
X138571576Y-104691152D01*
X139143004Y-105262580D01*
X138523957Y-105262580D01*
X138190623Y-104262580D02*
X137523957Y-104262580D01*
X137952528Y-105262580D01*
D10*
X137316590Y-75281180D02*
X137792780Y-75281180D01*
X137840400Y-75757371D01*
X137792780Y-75709752D01*
X137697542Y-75662133D01*
X137459447Y-75662133D01*
X137364209Y-75709752D01*
X137316590Y-75757371D01*
X137268971Y-75852609D01*
X137268971Y-76090704D01*
X137316590Y-76185942D01*
X137364209Y-76233561D01*
X137459447Y-76281180D01*
X137697542Y-76281180D01*
X137792780Y-76233561D01*
X137840400Y-76185942D01*
X136983257Y-75281180D02*
X136649923Y-76281180D01*
X136316590Y-75281180D01*
X133697542Y-76281180D02*
X133697542Y-75281180D01*
X133459447Y-75281180D01*
X133316590Y-75328800D01*
X133221352Y-75424038D01*
X133173733Y-75519276D01*
X133126114Y-75709752D01*
X133126114Y-75852609D01*
X133173733Y-76043085D01*
X133221352Y-76138323D01*
X133316590Y-76233561D01*
X133459447Y-76281180D01*
X133697542Y-76281180D01*
X129888019Y-75328800D02*
X129983257Y-75281180D01*
X130126114Y-75281180D01*
X130268971Y-75328800D01*
X130364209Y-75424038D01*
X130411828Y-75519276D01*
X130459447Y-75709752D01*
X130459447Y-75852609D01*
X130411828Y-76043085D01*
X130364209Y-76138323D01*
X130268971Y-76233561D01*
X130126114Y-76281180D01*
X130030876Y-76281180D01*
X129888019Y-76233561D01*
X129840400Y-76185942D01*
X129840400Y-75852609D01*
X130030876Y-75852609D01*
D12*
X163370000Y-74627771D02*
X164084285Y-74627771D01*
X164084285Y-73127771D01*
X162870000Y-73842057D02*
X162370000Y-73842057D01*
X162155714Y-74627771D02*
X162870000Y-74627771D01*
X162870000Y-73127771D01*
X162155714Y-73127771D01*
X161512857Y-74627771D02*
X161512857Y-73127771D01*
X161155714Y-73127771D01*
X160941428Y-73199200D01*
X160798571Y-73342057D01*
X160727142Y-73484914D01*
X160655714Y-73770628D01*
X160655714Y-73984914D01*
X160727142Y-74270628D01*
X160798571Y-74413485D01*
X160941428Y-74556342D01*
X161155714Y-74627771D01*
X161512857Y-74627771D01*
X158227142Y-73627771D02*
X158227142Y-74627771D01*
X158584285Y-73056342D02*
X158941428Y-74127771D01*
X158012857Y-74127771D01*
D11*
X127584861Y-95229580D02*
X127584861Y-94229580D01*
X126918195Y-94229580D02*
X126727719Y-94229580D01*
X126632480Y-94277200D01*
X126537242Y-94372438D01*
X126489623Y-94562914D01*
X126489623Y-94896247D01*
X126537242Y-95086723D01*
X126632480Y-95181961D01*
X126727719Y-95229580D01*
X126918195Y-95229580D01*
X127013433Y-95181961D01*
X127108671Y-95086723D01*
X127156290Y-94896247D01*
X127156290Y-94562914D01*
X127108671Y-94372438D01*
X127013433Y-94277200D01*
X126918195Y-94229580D01*
X126108671Y-94324819D02*
X126061052Y-94277200D01*
X125965814Y-94229580D01*
X125727719Y-94229580D01*
X125632480Y-94277200D01*
X125584861Y-94324819D01*
X125537242Y-94420057D01*
X125537242Y-94515295D01*
X125584861Y-94658152D01*
X126156290Y-95229580D01*
X125537242Y-95229580D01*
X124632480Y-94229580D02*
X125108671Y-94229580D01*
X125156290Y-94705771D01*
X125108671Y-94658152D01*
X125013433Y-94610533D01*
X124775338Y-94610533D01*
X124680100Y-94658152D01*
X124632480Y-94705771D01*
X124584861Y-94801009D01*
X124584861Y-95039104D01*
X124632480Y-95134342D01*
X124680100Y-95181961D01*
X124775338Y-95229580D01*
X125013433Y-95229580D01*
X125108671Y-95181961D01*
X125156290Y-95134342D01*
X123442004Y-94181961D02*
X124299147Y-95467676D01*
X123156290Y-94943866D02*
X122680100Y-94943866D01*
X123251528Y-95229580D02*
X122918195Y-94229580D01*
X122584861Y-95229580D01*
X121727719Y-95229580D02*
X122299147Y-95229580D01*
X122013433Y-95229580D02*
X122013433Y-94229580D01*
X122108671Y-94372438D01*
X122203909Y-94467676D01*
X122299147Y-94515295D01*
X120584861Y-94181961D02*
X121442004Y-95467676D01*
X120251528Y-95229580D02*
X120251528Y-94229580D01*
X120013433Y-94229580D01*
X119870576Y-94277200D01*
X119775338Y-94372438D01*
X119727719Y-94467676D01*
X119680100Y-94658152D01*
X119680100Y-94801009D01*
X119727719Y-94991485D01*
X119775338Y-95086723D01*
X119870576Y-95181961D01*
X120013433Y-95229580D01*
X120251528Y-95229580D01*
X119299147Y-94943866D02*
X118822957Y-94943866D01*
X119394385Y-95229580D02*
X119061052Y-94229580D01*
X118727719Y-95229580D01*
X117822957Y-95134342D02*
X117870576Y-95181961D01*
X118013433Y-95229580D01*
X118108671Y-95229580D01*
X118251528Y-95181961D01*
X118346766Y-95086723D01*
X118394385Y-94991485D01*
X118442004Y-94801009D01*
X118442004Y-94658152D01*
X118394385Y-94467676D01*
X118346766Y-94372438D01*
X118251528Y-94277200D01*
X118108671Y-94229580D01*
X118013433Y-94229580D01*
X117870576Y-94277200D01*
X117822957Y-94324819D01*
X116870576Y-95229580D02*
X117442004Y-95229580D01*
X117156290Y-95229580D02*
X117156290Y-94229580D01*
X117251528Y-94372438D01*
X117346766Y-94467676D01*
X117442004Y-94515295D01*
X146666814Y-96769580D02*
X147143004Y-96769580D01*
X147190623Y-97245771D01*
X147143004Y-97198152D01*
X147047766Y-97150533D01*
X146809671Y-97150533D01*
X146714433Y-97198152D01*
X146666814Y-97245771D01*
X146619195Y-97341009D01*
X146619195Y-97579104D01*
X146666814Y-97674342D01*
X146714433Y-97721961D01*
X146809671Y-97769580D01*
X147047766Y-97769580D01*
X147143004Y-97721961D01*
X147190623Y-97674342D01*
X146333480Y-96769580D02*
X146000147Y-97769580D01*
X145666814Y-96769580D01*
X144285861Y-98150533D02*
X144333480Y-98102914D01*
X144428719Y-97960057D01*
X144476338Y-97864819D01*
X144523957Y-97721961D01*
X144571576Y-97483866D01*
X144571576Y-97293390D01*
X144523957Y-97055295D01*
X144476338Y-96912438D01*
X144428719Y-96817200D01*
X144333480Y-96674342D01*
X144285861Y-96626723D01*
X144000147Y-96769580D02*
X143381100Y-96769580D01*
X143714433Y-97150533D01*
X143571576Y-97150533D01*
X143476338Y-97198152D01*
X143428719Y-97245771D01*
X143381100Y-97341009D01*
X143381100Y-97579104D01*
X143428719Y-97674342D01*
X143476338Y-97721961D01*
X143571576Y-97769580D01*
X143857290Y-97769580D01*
X143952528Y-97721961D01*
X144000147Y-97674342D01*
X143000147Y-97483866D02*
X142523957Y-97483866D01*
X143095385Y-97769580D02*
X142762052Y-96769580D01*
X142428719Y-97769580D01*
X141333480Y-97769580D02*
X141333480Y-97102914D01*
X141333480Y-97198152D02*
X141285861Y-97150533D01*
X141190623Y-97102914D01*
X141047766Y-97102914D01*
X140952528Y-97150533D01*
X140904909Y-97245771D01*
X140904909Y-97769580D01*
X140904909Y-97245771D02*
X140857290Y-97150533D01*
X140762052Y-97102914D01*
X140619195Y-97102914D01*
X140523957Y-97150533D01*
X140476338Y-97245771D01*
X140476338Y-97769580D01*
X139571576Y-97769580D02*
X139571576Y-97245771D01*
X139619195Y-97150533D01*
X139714433Y-97102914D01*
X139904909Y-97102914D01*
X140000147Y-97150533D01*
X139571576Y-97721961D02*
X139666814Y-97769580D01*
X139904909Y-97769580D01*
X140000147Y-97721961D01*
X140047766Y-97626723D01*
X140047766Y-97531485D01*
X140000147Y-97436247D01*
X139904909Y-97388628D01*
X139666814Y-97388628D01*
X139571576Y-97341009D01*
X139190623Y-97769580D02*
X138666814Y-97102914D01*
X139190623Y-97102914D02*
X138666814Y-97769580D01*
X138285861Y-97674342D02*
X138238242Y-97721961D01*
X138285861Y-97769580D01*
X138333480Y-97721961D01*
X138285861Y-97674342D01*
X138285861Y-97769580D01*
X138285861Y-97388628D02*
X138333480Y-96817200D01*
X138285861Y-96769580D01*
X138238242Y-96817200D01*
X138285861Y-97388628D01*
X138285861Y-96769580D01*
X137904909Y-98150533D02*
X137857290Y-98102914D01*
X137762052Y-97960057D01*
X137714433Y-97864819D01*
X137666814Y-97721961D01*
X137619195Y-97483866D01*
X137619195Y-97293390D01*
X137666814Y-97055295D01*
X137714433Y-96912438D01*
X137762052Y-96817200D01*
X137857290Y-96674342D01*
X137904909Y-96626723D01*
D10*
%TO.C,Status_LED1*%
X164307152Y-83004961D02*
X164164295Y-83052580D01*
X163926200Y-83052580D01*
X163830961Y-83004961D01*
X163783342Y-82957342D01*
X163735723Y-82862104D01*
X163735723Y-82766866D01*
X163783342Y-82671628D01*
X163830961Y-82624009D01*
X163926200Y-82576390D01*
X164116676Y-82528771D01*
X164211914Y-82481152D01*
X164259533Y-82433533D01*
X164307152Y-82338295D01*
X164307152Y-82243057D01*
X164259533Y-82147819D01*
X164211914Y-82100200D01*
X164116676Y-82052580D01*
X163878580Y-82052580D01*
X163735723Y-82100200D01*
X163450009Y-82385914D02*
X163069057Y-82385914D01*
X163307152Y-82052580D02*
X163307152Y-82909723D01*
X163259533Y-83004961D01*
X163164295Y-83052580D01*
X163069057Y-83052580D01*
X162307152Y-83052580D02*
X162307152Y-82528771D01*
X162354771Y-82433533D01*
X162450009Y-82385914D01*
X162640485Y-82385914D01*
X162735723Y-82433533D01*
X162307152Y-83004961D02*
X162402390Y-83052580D01*
X162640485Y-83052580D01*
X162735723Y-83004961D01*
X162783342Y-82909723D01*
X162783342Y-82814485D01*
X162735723Y-82719247D01*
X162640485Y-82671628D01*
X162402390Y-82671628D01*
X162307152Y-82624009D01*
X161973819Y-82385914D02*
X161592866Y-82385914D01*
X161830961Y-82052580D02*
X161830961Y-82909723D01*
X161783342Y-83004961D01*
X161688104Y-83052580D01*
X161592866Y-83052580D01*
X160830961Y-82385914D02*
X160830961Y-83052580D01*
X161259533Y-82385914D02*
X161259533Y-82909723D01*
X161211914Y-83004961D01*
X161116676Y-83052580D01*
X160973819Y-83052580D01*
X160878580Y-83004961D01*
X160830961Y-82957342D01*
X160402390Y-83004961D02*
X160307152Y-83052580D01*
X160116676Y-83052580D01*
X160021438Y-83004961D01*
X159973819Y-82909723D01*
X159973819Y-82862104D01*
X160021438Y-82766866D01*
X160116676Y-82719247D01*
X160259533Y-82719247D01*
X160354771Y-82671628D01*
X160402390Y-82576390D01*
X160402390Y-82528771D01*
X160354771Y-82433533D01*
X160259533Y-82385914D01*
X160116676Y-82385914D01*
X160021438Y-82433533D01*
X159783342Y-83147819D02*
X159021438Y-83147819D01*
X158307152Y-83052580D02*
X158783342Y-83052580D01*
X158783342Y-82052580D01*
X157973819Y-82528771D02*
X157640485Y-82528771D01*
X157497628Y-83052580D02*
X157973819Y-83052580D01*
X157973819Y-82052580D01*
X157497628Y-82052580D01*
X157069057Y-83052580D02*
X157069057Y-82052580D01*
X156830961Y-82052580D01*
X156688104Y-82100200D01*
X156592866Y-82195438D01*
X156545247Y-82290676D01*
X156497628Y-82481152D01*
X156497628Y-82624009D01*
X156545247Y-82814485D01*
X156592866Y-82909723D01*
X156688104Y-83004961D01*
X156830961Y-83052580D01*
X157069057Y-83052580D01*
X155545247Y-83052580D02*
X156116676Y-83052580D01*
X155830961Y-83052580D02*
X155830961Y-82052580D01*
X155926200Y-82195438D01*
X156021438Y-82290676D01*
X156116676Y-82338295D01*
D13*
X167022200Y-84061400D02*
X167022200Y-81261400D01*
X167022200Y-81261400D02*
X165022200Y-81261400D01*
X165022200Y-84061400D02*
X167022200Y-84061400D01*
X165022200Y-81261400D02*
X165022200Y-84061400D01*
%TO.C,logo*%
G36*
X154304500Y-111543538D02*
G01*
X154339019Y-111600711D01*
X154331506Y-111630877D01*
X154274333Y-111665397D01*
X154244167Y-111657883D01*
X154209647Y-111600711D01*
X154217161Y-111570544D01*
X154274333Y-111536025D01*
X154304500Y-111543538D01*
G37*
G36*
X153053926Y-106395651D02*
G01*
X153072690Y-106425826D01*
X153073942Y-106509187D01*
X153045882Y-106550227D01*
X152974304Y-106577997D01*
X152904324Y-106556422D01*
X152872805Y-106489170D01*
X152872928Y-106483418D01*
X152907095Y-106402418D01*
X152978687Y-106367348D01*
X153053926Y-106395651D01*
G37*
G36*
X151830223Y-110663295D02*
G01*
X151872745Y-110727451D01*
X151865484Y-110781092D01*
X151794707Y-110802918D01*
X151731669Y-110788577D01*
X151716668Y-110727451D01*
X151733816Y-110687834D01*
X151794707Y-110651984D01*
X151830223Y-110663295D01*
G37*
G36*
X149560866Y-109646085D02*
G01*
X149595386Y-109703257D01*
X149587872Y-109733424D01*
X149530700Y-109767943D01*
X149500533Y-109760430D01*
X149466014Y-109703257D01*
X149473527Y-109673091D01*
X149530700Y-109638571D01*
X149560866Y-109646085D01*
G37*
G36*
X154951359Y-109646085D02*
G01*
X154985878Y-109703257D01*
X154978365Y-109733424D01*
X154921192Y-109767943D01*
X154891026Y-109760430D01*
X154856506Y-109703257D01*
X154864020Y-109673091D01*
X154921192Y-109638571D01*
X154951359Y-109646085D01*
G37*
G36*
X151417396Y-106792616D02*
G01*
X151452301Y-106802143D01*
X151474393Y-106836916D01*
X151486577Y-106912183D01*
X151491758Y-107043192D01*
X151492839Y-107245193D01*
X151492796Y-107301917D01*
X151490982Y-107485168D01*
X151484358Y-107601152D01*
X151470022Y-107665119D01*
X151445068Y-107692317D01*
X151406591Y-107697994D01*
X151399726Y-107697910D01*
X151357092Y-107687217D01*
X151333164Y-107645650D01*
X151322670Y-107554767D01*
X151320343Y-107396127D01*
X151313476Y-107248261D01*
X151271648Y-107065527D01*
X151190919Y-106957368D01*
X151070224Y-106921763D01*
X151047678Y-106922623D01*
X150970383Y-106949302D01*
X150921709Y-107022815D01*
X150896375Y-107155984D01*
X150889104Y-107361627D01*
X150888867Y-107439648D01*
X150884771Y-107579005D01*
X150872072Y-107656812D01*
X150846267Y-107690624D01*
X150802856Y-107697994D01*
X150772166Y-107695192D01*
X150742079Y-107673278D01*
X150725360Y-107615254D01*
X150718154Y-107504416D01*
X150716608Y-107324055D01*
X150717969Y-107199410D01*
X150728065Y-107038881D01*
X150750443Y-106935575D01*
X150787978Y-106871254D01*
X150818098Y-106844866D01*
X150942189Y-106799099D01*
X151089560Y-106803664D01*
X151224500Y-106859523D01*
X151273897Y-106892420D01*
X151312548Y-106902547D01*
X151320343Y-106859523D01*
X151335466Y-106820453D01*
X151406591Y-106792391D01*
X151417396Y-106792616D01*
G37*
G36*
X147286531Y-110077109D02*
G01*
X147309817Y-110134497D01*
X147304952Y-110164254D01*
X147266693Y-110199183D01*
X147246855Y-110191885D01*
X147223569Y-110134497D01*
X147228434Y-110104739D01*
X147266693Y-110069811D01*
X147286531Y-110077109D01*
G37*
G36*
X157801190Y-101622921D02*
G01*
X158128061Y-101685905D01*
X158405455Y-101819205D01*
X158632569Y-102022346D01*
X158808597Y-102294854D01*
X158840087Y-102364563D01*
X158921181Y-102662536D01*
X158924734Y-102961319D01*
X158856564Y-103248635D01*
X158722489Y-103512204D01*
X158528323Y-103739747D01*
X158279885Y-103918986D01*
X157982992Y-104037641D01*
X157975732Y-104039490D01*
X157795220Y-104059128D01*
X157578241Y-104047901D01*
X157364936Y-104010245D01*
X157195449Y-103950596D01*
X156970585Y-103798753D01*
X156781962Y-103579812D01*
X156664831Y-103317441D01*
X156624588Y-103020432D01*
X156624588Y-102781865D01*
X157702686Y-102781865D01*
X157702686Y-103169981D01*
X157357695Y-103169981D01*
X157289865Y-103170168D01*
X157142901Y-103174066D01*
X157059144Y-103186076D01*
X157021457Y-103210193D01*
X157012703Y-103250413D01*
X157012736Y-103252627D01*
X157039966Y-103342591D01*
X157102759Y-103445332D01*
X157174861Y-103522119D01*
X157360409Y-103636999D01*
X157576918Y-103688880D01*
X157807471Y-103679597D01*
X158035152Y-103610984D01*
X158243044Y-103484876D01*
X158414231Y-103303108D01*
X158464223Y-103227890D01*
X158514923Y-103121768D01*
X158538083Y-103001839D01*
X158543603Y-102832055D01*
X158535723Y-102673013D01*
X158482669Y-102454064D01*
X158370551Y-102276407D01*
X158188794Y-102118783D01*
X158104949Y-102067317D01*
X157864607Y-101983124D01*
X157610475Y-101970832D01*
X157364213Y-102029613D01*
X157147480Y-102158638D01*
X157025704Y-102261105D01*
X156904038Y-102134113D01*
X156867774Y-102095831D01*
X156814919Y-102028077D01*
X156814452Y-101979790D01*
X156860229Y-101921089D01*
X156949016Y-101840928D01*
X157155084Y-101723740D01*
X157401324Y-101645806D01*
X157660347Y-101617519D01*
X157801190Y-101622921D01*
G37*
G36*
X152733381Y-109445891D02*
G01*
X152723645Y-109506331D01*
X152718559Y-109513954D01*
X152654354Y-109550524D01*
X152592311Y-109508895D01*
X152588759Y-109481559D01*
X152634750Y-109438882D01*
X152680153Y-109427503D01*
X152733381Y-109445891D01*
G37*
G36*
X154501853Y-110108270D02*
G01*
X154546373Y-110152824D01*
X154543624Y-110177302D01*
X154489953Y-110199183D01*
X154454349Y-110192146D01*
X154433532Y-110152824D01*
X154439389Y-110140039D01*
X154489953Y-110106466D01*
X154501853Y-110108270D01*
G37*
G36*
X148965540Y-109214498D02*
G01*
X149014882Y-109256361D01*
X149004853Y-109309127D01*
X148962436Y-109333784D01*
X148894437Y-109326262D01*
X148862279Y-109272018D01*
X148869468Y-109241907D01*
X148924420Y-109207332D01*
X148965540Y-109214498D01*
G37*
G36*
X148121553Y-109054120D02*
G01*
X148119057Y-109090138D01*
X148064486Y-109121084D01*
X148024829Y-109109750D01*
X148008010Y-109045617D01*
X148034976Y-108990982D01*
X148084235Y-108987881D01*
X148121553Y-109054120D01*
G37*
G36*
X152491861Y-111116791D02*
G01*
X152527814Y-111169471D01*
X152511806Y-111207193D01*
X152441566Y-111234157D01*
X152391270Y-111222151D01*
X152355318Y-111169471D01*
X152371326Y-111131750D01*
X152441566Y-111104785D01*
X152491861Y-111116791D01*
G37*
G36*
X148747133Y-108739451D02*
G01*
X148803213Y-108790009D01*
X148797593Y-108862341D01*
X148742708Y-108903745D01*
X148677348Y-108888592D01*
X148646659Y-108819217D01*
X148658422Y-108768874D01*
X148708800Y-108732969D01*
X148747133Y-108739451D01*
G37*
G36*
X150234626Y-110951574D02*
G01*
X150232130Y-110987591D01*
X150177559Y-111018537D01*
X150137902Y-111007203D01*
X150121083Y-110943071D01*
X150148049Y-110888435D01*
X150197308Y-110885334D01*
X150234626Y-110951574D01*
G37*
G36*
X151442107Y-108765842D02*
G01*
X151484630Y-108829998D01*
X151477369Y-108883639D01*
X151406591Y-108905464D01*
X151343554Y-108891124D01*
X151328553Y-108829998D01*
X151345701Y-108790380D01*
X151406591Y-108754531D01*
X151442107Y-108765842D01*
G37*
G36*
X153512056Y-110663295D02*
G01*
X153554579Y-110727451D01*
X153547318Y-110781092D01*
X153476540Y-110802918D01*
X153413503Y-110788577D01*
X153398502Y-110727451D01*
X153415650Y-110687834D01*
X153476540Y-110651984D01*
X153512056Y-110663295D01*
G37*
G36*
X149329034Y-110663295D02*
G01*
X149371557Y-110727451D01*
X149364296Y-110781092D01*
X149293518Y-110802918D01*
X149230481Y-110788577D01*
X149215480Y-110727451D01*
X149232628Y-110687834D01*
X149293518Y-110651984D01*
X149329034Y-110663295D01*
G37*
G36*
X153269525Y-109646085D02*
G01*
X153304045Y-109703257D01*
X153296531Y-109733424D01*
X153239359Y-109767943D01*
X153209192Y-109760430D01*
X153174673Y-109703257D01*
X153182186Y-109673091D01*
X153239359Y-109638571D01*
X153269525Y-109646085D01*
G37*
G36*
X147517829Y-108765842D02*
G01*
X147560351Y-108829998D01*
X147553091Y-108883639D01*
X147482313Y-108905464D01*
X147419275Y-108891124D01*
X147404274Y-108829998D01*
X147421422Y-108790380D01*
X147482313Y-108754531D01*
X147517829Y-108765842D01*
G37*
G36*
X151449210Y-102823358D02*
G01*
X151480007Y-102921304D01*
X151544997Y-103118149D01*
X151600802Y-103274135D01*
X151642293Y-103375324D01*
X151664338Y-103407778D01*
X151685471Y-103375819D01*
X151735401Y-103278488D01*
X151804310Y-103132823D01*
X151883982Y-102955732D01*
X151924125Y-102864855D01*
X151997659Y-102704777D01*
X152051750Y-102604955D01*
X152096301Y-102551989D01*
X152141217Y-102532479D01*
X152196402Y-102533027D01*
X152206418Y-102534121D01*
X152260974Y-102549026D01*
X152309485Y-102587923D01*
X152361749Y-102664720D01*
X152427567Y-102793323D01*
X152516738Y-102987641D01*
X152591484Y-103146883D01*
X152663789Y-103285805D01*
X152718422Y-103374063D01*
X152747315Y-103397318D01*
X152752001Y-103389969D01*
X152782207Y-103317226D01*
X152830361Y-103182752D01*
X152890880Y-103002555D01*
X152958182Y-102792646D01*
X153137419Y-102221254D01*
X153306980Y-102221254D01*
X153343026Y-102222179D01*
X153438319Y-102236183D01*
X153476540Y-102261676D01*
X153466989Y-102297086D01*
X153433733Y-102402117D01*
X153381370Y-102561699D01*
X153314848Y-102761219D01*
X153239114Y-102986059D01*
X153159114Y-103221607D01*
X153079796Y-103453245D01*
X153006106Y-103666359D01*
X152942993Y-103846334D01*
X152895402Y-103978554D01*
X152849760Y-104014972D01*
X152755568Y-104031695D01*
X152712048Y-104028255D01*
X152668334Y-104008693D01*
X152625996Y-103960157D01*
X152576872Y-103869794D01*
X152512801Y-103724754D01*
X152425619Y-103512186D01*
X152409715Y-103473069D01*
X152332051Y-103287103D01*
X152266635Y-103138521D01*
X152219934Y-103041606D01*
X152198418Y-103010638D01*
X152197809Y-103011372D01*
X152172884Y-103060623D01*
X152121761Y-103172238D01*
X152051551Y-103330418D01*
X151969368Y-103519366D01*
X151909778Y-103656572D01*
X151835581Y-103819354D01*
X151779485Y-103924107D01*
X151732479Y-103984218D01*
X151685551Y-104013077D01*
X151629690Y-104024074D01*
X151501866Y-104037251D01*
X151198834Y-103129252D01*
X150895803Y-102221254D01*
X151262696Y-102221254D01*
X151449210Y-102823358D01*
G37*
G36*
X149776486Y-109646085D02*
G01*
X149811005Y-109703257D01*
X149803492Y-109733424D01*
X149746320Y-109767943D01*
X149716153Y-109760430D01*
X149681634Y-109703257D01*
X149689147Y-109673091D01*
X149746320Y-109638571D01*
X149776486Y-109646085D01*
G37*
G36*
X148960708Y-108974537D02*
G01*
X149012267Y-109017439D01*
X149016192Y-109073139D01*
X148958161Y-109116251D01*
X148893027Y-109110722D01*
X148862279Y-109058943D01*
X148865150Y-109032385D01*
X148896681Y-108975541D01*
X148898378Y-108974535D01*
X148960708Y-108974537D01*
G37*
G36*
X150620308Y-111343345D02*
G01*
X150610572Y-111403784D01*
X150605486Y-111411408D01*
X150541281Y-111447977D01*
X150479238Y-111406348D01*
X150475686Y-111379013D01*
X150521677Y-111336335D01*
X150567080Y-111324956D01*
X150620308Y-111343345D01*
G37*
G36*
X147069123Y-109649369D02*
G01*
X147094197Y-109699664D01*
X147085323Y-109733222D01*
X147025918Y-109767943D01*
X146978799Y-109743051D01*
X146986040Y-109691377D01*
X147042988Y-109648454D01*
X147069123Y-109649369D01*
G37*
G36*
X150579628Y-108765842D02*
G01*
X150622151Y-108829998D01*
X150614890Y-108883639D01*
X150544112Y-108905464D01*
X150481075Y-108891124D01*
X150466074Y-108829998D01*
X150483222Y-108790380D01*
X150544112Y-108754531D01*
X150579628Y-108765842D01*
G37*
G36*
X149820701Y-108337299D02*
G01*
X149844244Y-108377555D01*
X149814650Y-108448272D01*
X149814436Y-108448529D01*
X149741424Y-108489666D01*
X149670419Y-108471543D01*
X149638510Y-108403572D01*
X149671855Y-108337599D01*
X149746564Y-108309983D01*
X149820701Y-108337299D01*
G37*
G36*
X155166979Y-109430465D02*
G01*
X155201498Y-109487638D01*
X155193984Y-109517804D01*
X155136812Y-109552324D01*
X155106645Y-109544810D01*
X155072126Y-109487638D01*
X155079640Y-109457471D01*
X155136812Y-109422952D01*
X155166979Y-109430465D01*
G37*
G36*
X149345247Y-111112299D02*
G01*
X149379766Y-111169471D01*
X149372253Y-111199638D01*
X149315080Y-111234157D01*
X149284914Y-111226644D01*
X149250394Y-111169471D01*
X149257908Y-111139305D01*
X149315080Y-111104785D01*
X149345247Y-111112299D01*
G37*
G36*
X151246218Y-111115096D02*
G01*
X151277219Y-111169471D01*
X151267793Y-111205703D01*
X151210256Y-111226538D01*
X151151490Y-111198344D01*
X151141000Y-111148937D01*
X151201752Y-111112995D01*
X151246218Y-111115096D01*
G37*
G36*
X153735284Y-109699664D02*
G01*
X153726409Y-109733222D01*
X153667004Y-109767943D01*
X153634563Y-109760723D01*
X153615795Y-109716734D01*
X153658423Y-109659969D01*
X153710146Y-109652439D01*
X153735284Y-109699664D01*
G37*
G36*
X151030599Y-109433263D02*
G01*
X151061600Y-109487638D01*
X151052174Y-109523869D01*
X150994636Y-109544705D01*
X150935870Y-109516511D01*
X150925380Y-109467104D01*
X150986133Y-109431161D01*
X151030599Y-109433263D01*
G37*
G36*
X153493553Y-109214498D02*
G01*
X153542895Y-109256361D01*
X153532866Y-109309127D01*
X153490449Y-109333784D01*
X153422451Y-109326262D01*
X153390292Y-109272018D01*
X153397482Y-109241907D01*
X153452433Y-109207332D01*
X153493553Y-109214498D01*
G37*
G36*
X154304500Y-109646085D02*
G01*
X154339019Y-109703257D01*
X154331506Y-109733424D01*
X154274333Y-109767943D01*
X154244167Y-109760430D01*
X154209647Y-109703257D01*
X154217161Y-109673091D01*
X154274333Y-109638571D01*
X154304500Y-109646085D01*
G37*
G36*
X154324932Y-110653884D02*
G01*
X154361534Y-110717449D01*
X154350422Y-110777140D01*
X154342364Y-110783592D01*
X154274333Y-110802918D01*
X154260918Y-110802095D01*
X154198244Y-110777140D01*
X154185105Y-110728371D01*
X154215676Y-110662411D01*
X154274333Y-110630422D01*
X154324932Y-110653884D01*
G37*
G36*
X152255855Y-112304084D02*
G01*
X152265412Y-112403665D01*
X152269070Y-112545219D01*
X152269108Y-112578425D01*
X152272717Y-112715684D01*
X152288483Y-112793781D01*
X152325214Y-112835608D01*
X152391716Y-112864060D01*
X152423319Y-112876291D01*
X152609094Y-112993674D01*
X152790597Y-113181121D01*
X152954621Y-113425458D01*
X153009823Y-113517353D01*
X153113034Y-113651547D01*
X153199710Y-113710802D01*
X153265163Y-113744399D01*
X153327283Y-113826876D01*
X153323981Y-113926505D01*
X153256822Y-114049735D01*
X153138876Y-114173973D01*
X152986339Y-114285338D01*
X152815408Y-114369948D01*
X152642283Y-114413922D01*
X152588960Y-114422225D01*
X152460535Y-114460414D01*
X152377493Y-114510899D01*
X152345345Y-114556437D01*
X152343768Y-114608124D01*
X152380592Y-114685930D01*
X152461950Y-114811694D01*
X152531806Y-114921050D01*
X152585265Y-115035507D01*
X152608803Y-115157278D01*
X152614061Y-115325700D01*
X152605495Y-115468221D01*
X152552098Y-115708414D01*
X152445356Y-115966403D01*
X152280142Y-116253627D01*
X152051330Y-116581526D01*
X151975719Y-116684409D01*
X151852452Y-116857752D01*
X151748002Y-117011250D01*
X151679165Y-117120575D01*
X151625379Y-117232274D01*
X151584188Y-117395840D01*
X151593511Y-117531987D01*
X151651155Y-117625115D01*
X151754927Y-117659624D01*
X151756354Y-117659629D01*
X151857560Y-117694793D01*
X151906030Y-117782355D01*
X151888219Y-117898083D01*
X151839680Y-118004616D01*
X150478633Y-118004616D01*
X150141945Y-118004368D01*
X149826714Y-118003160D01*
X149579141Y-118000451D01*
X149389280Y-117995705D01*
X149247187Y-117988387D01*
X149142916Y-117977962D01*
X149066523Y-117963892D01*
X149008063Y-117945644D01*
X148957590Y-117922680D01*
X148956278Y-117922006D01*
X148768161Y-117779939D01*
X148605147Y-117566531D01*
X148475165Y-117294885D01*
X148386140Y-116978104D01*
X148372852Y-116904493D01*
X148353881Y-116727480D01*
X148358192Y-116549395D01*
X148388306Y-116350623D01*
X148446747Y-116111549D01*
X148536036Y-115812559D01*
X148559768Y-115735143D01*
X148650704Y-115368355D01*
X148686236Y-115054965D01*
X148665749Y-114783809D01*
X148588633Y-114543723D01*
X148454272Y-114323542D01*
X148415524Y-114268034D01*
X148351546Y-114108001D01*
X148371650Y-113958858D01*
X148476164Y-113812958D01*
X148564976Y-113734629D01*
X148651112Y-113700070D01*
X148762514Y-113706736D01*
X148783952Y-113710604D01*
X149003313Y-113794038D01*
X149194639Y-113941888D01*
X149331418Y-114134231D01*
X149341821Y-114156370D01*
X149402179Y-114336083D01*
X149420779Y-114529076D01*
X149395467Y-114746374D01*
X149324090Y-114999004D01*
X149204494Y-115297991D01*
X149034525Y-115654361D01*
X148948877Y-115828265D01*
X148820820Y-116113824D01*
X148738672Y-116343707D01*
X148699945Y-116527662D01*
X148702152Y-116675432D01*
X148742802Y-116796763D01*
X148821899Y-116888651D01*
X148917851Y-116922938D01*
X149003228Y-116889065D01*
X149024175Y-116850645D01*
X149055746Y-116743398D01*
X149081487Y-116602426D01*
X149143467Y-116336602D01*
X149285169Y-116002966D01*
X149488938Y-115672998D01*
X149743443Y-115362154D01*
X150037352Y-115085886D01*
X150359334Y-114859649D01*
X150423639Y-114820850D01*
X150663687Y-114660201D01*
X150870027Y-114497354D01*
X151027719Y-114344931D01*
X151121822Y-114215552D01*
X151152595Y-114125825D01*
X151184839Y-113976147D01*
X151208221Y-113806944D01*
X151269313Y-113486805D01*
X151392500Y-113207871D01*
X151575997Y-112990279D01*
X151625732Y-112942640D01*
X151748705Y-112799343D01*
X151851166Y-112649284D01*
X151860348Y-112633761D01*
X151953154Y-112504548D01*
X152061828Y-112387234D01*
X152165521Y-112302025D01*
X152243384Y-112269132D01*
X152255855Y-112304084D01*
G37*
G36*
X147302209Y-108765842D02*
G01*
X147344731Y-108829998D01*
X147337471Y-108883639D01*
X147266693Y-108905464D01*
X147203656Y-108891124D01*
X147188655Y-108829998D01*
X147205803Y-108790380D01*
X147266693Y-108754531D01*
X147302209Y-108765842D01*
G37*
G36*
X147086589Y-108765842D02*
G01*
X147129112Y-108829998D01*
X147121851Y-108883639D01*
X147051073Y-108905464D01*
X146988036Y-108891124D01*
X146973035Y-108829998D01*
X146990183Y-108790380D01*
X147051073Y-108754531D01*
X147086589Y-108765842D01*
G37*
G36*
X153485145Y-109430465D02*
G01*
X153519664Y-109487638D01*
X153512151Y-109517804D01*
X153454978Y-109552324D01*
X153424812Y-109544810D01*
X153390292Y-109487638D01*
X153397806Y-109457471D01*
X153454978Y-109422952D01*
X153485145Y-109430465D01*
G37*
G36*
X149776486Y-111543538D02*
G01*
X149811005Y-111600711D01*
X149803492Y-111630877D01*
X149746320Y-111665397D01*
X149716153Y-111657883D01*
X149681634Y-111600711D01*
X149689147Y-111570544D01*
X149746320Y-111536025D01*
X149776486Y-111543538D01*
G37*
G36*
X152489734Y-110213300D02*
G01*
X152512832Y-110270981D01*
X152517087Y-110393240D01*
X152511281Y-110496421D01*
X152488476Y-110567748D01*
X152441566Y-110587298D01*
X152402799Y-110575947D01*
X152375241Y-110517861D01*
X152366045Y-110393240D01*
X152369943Y-110273567D01*
X152392366Y-110214278D01*
X152441566Y-110199183D01*
X152489734Y-110213300D01*
G37*
G36*
X154735739Y-111112299D02*
G01*
X154770258Y-111169471D01*
X154762745Y-111199638D01*
X154705573Y-111234157D01*
X154675406Y-111226644D01*
X154640887Y-111169471D01*
X154648400Y-111139305D01*
X154705573Y-111104785D01*
X154735739Y-111112299D01*
G37*
G36*
X150620308Y-109445891D02*
G01*
X150610572Y-109506331D01*
X150605486Y-109513954D01*
X150541281Y-109550524D01*
X150479238Y-109508895D01*
X150475686Y-109481559D01*
X150521677Y-109438882D01*
X150567080Y-109427503D01*
X150620308Y-109445891D01*
G37*
G36*
X154717473Y-110108270D02*
G01*
X154761993Y-110152824D01*
X154759243Y-110177302D01*
X154705573Y-110199183D01*
X154669969Y-110192146D01*
X154649152Y-110152824D01*
X154655008Y-110140039D01*
X154705573Y-110106466D01*
X154717473Y-110108270D01*
G37*
G36*
X152477082Y-108765842D02*
G01*
X152519604Y-108829998D01*
X152512344Y-108883639D01*
X152441566Y-108905464D01*
X152378528Y-108891124D01*
X152363527Y-108829998D01*
X152380675Y-108790380D01*
X152441566Y-108754531D01*
X152477082Y-108765842D01*
G37*
G36*
X149345247Y-111543538D02*
G01*
X149379766Y-111600711D01*
X149372253Y-111630877D01*
X149315080Y-111665397D01*
X149284914Y-111657883D01*
X149250394Y-111600711D01*
X149257908Y-111570544D01*
X149315080Y-111536025D01*
X149345247Y-111543538D01*
G37*
G36*
X147309817Y-109699664D02*
G01*
X147300943Y-109733222D01*
X147241537Y-109767943D01*
X147209096Y-109760723D01*
X147190328Y-109716734D01*
X147232956Y-109659969D01*
X147284679Y-109652439D01*
X147309817Y-109699664D01*
G37*
G36*
X147072316Y-110080826D02*
G01*
X147094197Y-110134497D01*
X147087161Y-110170100D01*
X147047839Y-110190917D01*
X147035054Y-110185061D01*
X147001481Y-110134497D01*
X147003285Y-110122597D01*
X147047839Y-110078076D01*
X147072316Y-110080826D01*
G37*
G36*
X155177037Y-110213665D02*
G01*
X155196315Y-110223762D01*
X155238043Y-110280633D01*
X155238163Y-110342591D01*
X155192873Y-110371678D01*
X155162871Y-110380696D01*
X155192873Y-110423427D01*
X155216519Y-110453308D01*
X155244622Y-110531237D01*
X155240311Y-110548032D01*
X155188329Y-110581289D01*
X155112145Y-110584602D01*
X155055955Y-110552896D01*
X155050420Y-110528751D01*
X155072505Y-110457314D01*
X155085714Y-110423421D01*
X155062862Y-110338954D01*
X155055218Y-110328586D01*
X155045925Y-110259199D01*
X155094631Y-110212003D01*
X155177037Y-110213665D01*
G37*
G36*
X147734409Y-109210689D02*
G01*
X147783059Y-109246413D01*
X147755431Y-109307955D01*
X147711829Y-109333454D01*
X147643719Y-109326318D01*
X147611685Y-109272018D01*
X147627693Y-109234296D01*
X147697932Y-109207332D01*
X147734409Y-109210689D01*
G37*
G36*
X150207726Y-111327919D02*
G01*
X150242245Y-111385091D01*
X150234731Y-111415258D01*
X150177559Y-111449777D01*
X150147392Y-111442263D01*
X150112873Y-111385091D01*
X150120387Y-111354924D01*
X150177559Y-111320405D01*
X150207726Y-111327919D01*
G37*
G36*
X150795248Y-110663295D02*
G01*
X150837770Y-110727451D01*
X150830510Y-110781092D01*
X150759732Y-110802918D01*
X150696695Y-110788577D01*
X150681694Y-110727451D01*
X150698842Y-110687834D01*
X150759732Y-110651984D01*
X150795248Y-110663295D01*
G37*
G36*
X151247156Y-110217996D02*
G01*
X151293222Y-110275381D01*
X151286485Y-110348057D01*
X151272284Y-110393611D01*
X151270855Y-110490269D01*
X151263034Y-110564016D01*
X151199938Y-110587298D01*
X151152162Y-110577144D01*
X151123659Y-110525904D01*
X151116485Y-110411192D01*
X151132531Y-110274146D01*
X151179642Y-110210851D01*
X151247156Y-110217996D01*
G37*
G36*
X153727676Y-110663295D02*
G01*
X153770198Y-110727451D01*
X153762938Y-110781092D01*
X153692160Y-110802918D01*
X153629123Y-110788577D01*
X153614122Y-110727451D01*
X153631270Y-110687834D01*
X153692160Y-110651984D01*
X153727676Y-110663295D01*
G37*
G36*
X152692701Y-110663295D02*
G01*
X152735224Y-110727451D01*
X152727963Y-110781092D01*
X152657185Y-110802918D01*
X152594148Y-110788577D01*
X152579147Y-110727451D01*
X152596295Y-110687834D01*
X152657185Y-110651984D01*
X152692701Y-110663295D01*
G37*
G36*
X147714945Y-109430118D02*
G01*
X147764288Y-109471981D01*
X147754259Y-109524747D01*
X147711842Y-109549404D01*
X147643843Y-109541882D01*
X147611685Y-109487638D01*
X147618874Y-109457527D01*
X147673825Y-109422952D01*
X147714945Y-109430118D01*
G37*
G36*
X148315894Y-108739451D02*
G01*
X148371974Y-108790009D01*
X148366353Y-108862341D01*
X148311468Y-108903745D01*
X148246108Y-108888592D01*
X148215420Y-108819217D01*
X148227183Y-108768874D01*
X148277561Y-108732969D01*
X148315894Y-108739451D01*
G37*
G36*
X153485145Y-109646085D02*
G01*
X153519664Y-109703257D01*
X153512151Y-109733424D01*
X153454978Y-109767943D01*
X153424812Y-109760430D01*
X153390292Y-109703257D01*
X153397806Y-109673091D01*
X153454978Y-109638571D01*
X153485145Y-109646085D01*
G37*
G36*
X152477082Y-110878915D02*
G01*
X152519604Y-110943071D01*
X152512344Y-110996712D01*
X152441566Y-111018537D01*
X152378528Y-111004197D01*
X152363527Y-110943071D01*
X152380675Y-110903453D01*
X152441566Y-110867604D01*
X152477082Y-110878915D01*
G37*
G36*
X155434298Y-103468391D02*
G01*
X155363594Y-103608248D01*
X155283654Y-103722915D01*
X155077793Y-103910889D01*
X154823558Y-104035048D01*
X154724604Y-104055252D01*
X154520067Y-104054435D01*
X154303334Y-104013349D01*
X154111765Y-103937134D01*
X153972401Y-103841154D01*
X153803708Y-103649177D01*
X153696752Y-103420276D01*
X153654553Y-103176383D01*
X154014930Y-103176383D01*
X154055430Y-103375082D01*
X154148106Y-103544492D01*
X154289974Y-103662844D01*
X154325132Y-103679052D01*
X154503039Y-103722018D01*
X154691275Y-103719984D01*
X154848323Y-103672251D01*
X154855802Y-103667979D01*
X154986098Y-103545846D01*
X155075371Y-103371145D01*
X155118196Y-103168749D01*
X155109151Y-102963527D01*
X155042811Y-102780353D01*
X155008370Y-102729751D01*
X154863002Y-102603352D01*
X154682758Y-102534980D01*
X154490142Y-102526711D01*
X154307655Y-102580618D01*
X154157800Y-102698776D01*
X154102398Y-102778188D01*
X154029591Y-102970162D01*
X154014930Y-103176383D01*
X153654553Y-103176383D01*
X153653557Y-103170628D01*
X153676148Y-102916412D01*
X153766549Y-102673806D01*
X153926786Y-102458987D01*
X153970655Y-102417406D01*
X154201617Y-102261679D01*
X154452180Y-102189061D01*
X154716495Y-102200443D01*
X154988716Y-102296721D01*
X155166893Y-102409216D01*
X155342976Y-102599358D01*
X155447380Y-102836495D01*
X155481803Y-103123475D01*
X155481613Y-103159081D01*
X155480982Y-103168749D01*
X155470297Y-103332371D01*
X155434298Y-103468391D01*
G37*
G36*
X154304500Y-109430465D02*
G01*
X154339019Y-109487638D01*
X154331506Y-109517804D01*
X154274333Y-109552324D01*
X154244167Y-109544810D01*
X154209647Y-109487638D01*
X154217161Y-109457471D01*
X154274333Y-109422952D01*
X154304500Y-109430465D01*
G37*
G36*
X154576201Y-108776093D02*
G01*
X154582663Y-108789674D01*
X154578568Y-108858509D01*
X154574647Y-108862947D01*
X154515433Y-108882158D01*
X154417000Y-108890053D01*
X154310595Y-108887204D01*
X154227468Y-108874182D01*
X154198866Y-108851560D01*
X154199890Y-108848292D01*
X154209647Y-108776093D01*
X154209921Y-108771040D01*
X154244374Y-108736281D01*
X154307334Y-108742579D01*
X154356987Y-108786874D01*
X154378978Y-108818587D01*
X154407299Y-108786874D01*
X154434833Y-108753682D01*
X154510555Y-108735391D01*
X154576201Y-108776093D01*
G37*
G36*
X155165464Y-110880131D02*
G01*
X155213839Y-110928109D01*
X155220040Y-110980300D01*
X155169369Y-111015138D01*
X155103961Y-111008648D01*
X155072126Y-110961039D01*
X155073769Y-110940162D01*
X155100501Y-110875165D01*
X155111204Y-110868282D01*
X155165464Y-110880131D01*
G37*
G36*
X144887275Y-103270980D02*
G01*
X144817869Y-103511840D01*
X144687886Y-103726884D01*
X144500711Y-103901393D01*
X144259727Y-104020648D01*
X144018562Y-104060170D01*
X143749513Y-104033841D01*
X143489052Y-103942198D01*
X143485217Y-103940276D01*
X143345936Y-103862500D01*
X143279490Y-103797896D01*
X143277666Y-103730960D01*
X143332251Y-103646187D01*
X143411170Y-103548726D01*
X143560069Y-103639498D01*
X143662148Y-103687506D01*
X143873953Y-103729303D01*
X144092885Y-103714609D01*
X144282955Y-103643238D01*
X144350242Y-103588908D01*
X144446315Y-103473111D01*
X144520282Y-103344174D01*
X144549885Y-103236052D01*
X144532451Y-103230931D01*
X144443578Y-103223852D01*
X144292240Y-103218201D01*
X144092870Y-103214459D01*
X143859902Y-103213105D01*
X143169919Y-103213105D01*
X143169919Y-103021854D01*
X143170029Y-103003225D01*
X143183396Y-102887533D01*
X143514910Y-102887533D01*
X143550677Y-102896349D01*
X143656526Y-102904078D01*
X143815586Y-102909311D01*
X144010836Y-102911237D01*
X144193358Y-102910259D01*
X144356643Y-102903871D01*
X144453892Y-102887660D01*
X144496399Y-102857253D01*
X144495457Y-102808275D01*
X144462359Y-102736353D01*
X144381058Y-102647213D01*
X144234355Y-102570776D01*
X144057588Y-102527635D01*
X143879327Y-102524361D01*
X143728141Y-102567524D01*
X143678990Y-102608280D01*
X143603973Y-102702116D01*
X143541211Y-102807311D01*
X143514910Y-102887533D01*
X143183396Y-102887533D01*
X143195083Y-102786380D01*
X143273490Y-102604752D01*
X143418941Y-102425559D01*
X143469601Y-102377447D01*
X143683588Y-102242160D01*
X143920167Y-102182377D01*
X144164816Y-102197768D01*
X144403016Y-102288006D01*
X144620245Y-102452761D01*
X144698188Y-102540684D01*
X144830819Y-102770683D01*
X144852398Y-102857253D01*
X144892720Y-103019021D01*
X144887275Y-103270980D01*
G37*
G36*
X155166979Y-111543538D02*
G01*
X155201498Y-111600711D01*
X155193984Y-111630877D01*
X155136812Y-111665397D01*
X155106645Y-111657883D01*
X155072126Y-111600711D01*
X155079640Y-111570544D01*
X155136812Y-111536025D01*
X155166979Y-111543538D01*
G37*
G36*
X146856697Y-109865206D02*
G01*
X146878578Y-109918877D01*
X146871541Y-109954481D01*
X146832219Y-109975297D01*
X146819434Y-109969441D01*
X146785861Y-109918877D01*
X146787665Y-109906977D01*
X146832219Y-109862457D01*
X146856697Y-109865206D01*
G37*
G36*
X153490614Y-110204574D02*
G01*
X153548311Y-110260625D01*
X153546401Y-110352181D01*
X153535805Y-110375008D01*
X153479762Y-110412208D01*
X153402287Y-110366424D01*
X153373171Y-110304834D01*
X153392364Y-110232400D01*
X153457047Y-110199183D01*
X153490614Y-110204574D01*
G37*
G36*
X149776486Y-109214846D02*
G01*
X149811005Y-109272018D01*
X149803492Y-109302185D01*
X149746320Y-109336704D01*
X149716153Y-109329190D01*
X149681634Y-109272018D01*
X149689147Y-109241851D01*
X149746320Y-109207332D01*
X149776486Y-109214846D01*
G37*
G36*
X154520119Y-111327919D02*
G01*
X154554639Y-111385091D01*
X154547125Y-111415258D01*
X154489953Y-111449777D01*
X154459786Y-111442263D01*
X154425267Y-111385091D01*
X154432780Y-111354924D01*
X154489953Y-111320405D01*
X154520119Y-111327919D01*
G37*
G36*
X150207726Y-111112299D02*
G01*
X150242245Y-111169471D01*
X150234731Y-111199638D01*
X150177559Y-111234157D01*
X150147392Y-111226644D01*
X150112873Y-111169471D01*
X150120387Y-111139305D01*
X150177559Y-111104785D01*
X150207726Y-111112299D01*
G37*
G36*
X152261462Y-108765842D02*
G01*
X152303984Y-108829998D01*
X152296724Y-108883639D01*
X152225946Y-108905464D01*
X152162909Y-108891124D01*
X152147908Y-108829998D01*
X152165056Y-108790380D01*
X152225946Y-108754531D01*
X152261462Y-108765842D01*
G37*
G36*
X149656489Y-101627415D02*
G01*
X149930443Y-101709470D01*
X150179957Y-101858368D01*
X150392439Y-102071011D01*
X150555294Y-102344298D01*
X150607573Y-102533259D01*
X150628368Y-102770711D01*
X150618628Y-103024020D01*
X150579590Y-103261205D01*
X150512492Y-103450286D01*
X150377174Y-103652115D01*
X150154531Y-103857478D01*
X149889378Y-103996193D01*
X149835789Y-104013484D01*
X149552144Y-104056485D01*
X149252935Y-104033757D01*
X148965821Y-103949724D01*
X148718460Y-103808813D01*
X148691481Y-103787053D01*
X148663946Y-103746306D01*
X148677630Y-103688906D01*
X148734588Y-103586493D01*
X148755163Y-103552081D01*
X148810477Y-103473774D01*
X148852452Y-103456999D01*
X148901548Y-103489921D01*
X148904387Y-103492476D01*
X149101317Y-103616613D01*
X149327779Y-103676618D01*
X149563966Y-103675102D01*
X149790073Y-103614678D01*
X149986292Y-103497958D01*
X150132817Y-103327553D01*
X150179075Y-103239096D01*
X150257788Y-102984076D01*
X150265671Y-102729263D01*
X150207603Y-102489154D01*
X150088467Y-102278243D01*
X149913142Y-102111026D01*
X149686508Y-102002000D01*
X149476690Y-101971881D01*
X149259692Y-102013550D01*
X149025279Y-102131758D01*
X148828060Y-102256831D01*
X148705017Y-102127696D01*
X148581973Y-101998562D01*
X148711345Y-101890527D01*
X148813933Y-101813301D01*
X149085640Y-101676231D01*
X149370691Y-101615302D01*
X149656489Y-101627415D01*
G37*
G36*
X154304500Y-109214846D02*
G01*
X154339019Y-109272018D01*
X154331506Y-109302185D01*
X154274333Y-109336704D01*
X154244167Y-109329190D01*
X154209647Y-109272018D01*
X154217161Y-109241851D01*
X154274333Y-109207332D01*
X154304500Y-109214846D01*
G37*
G36*
X152045842Y-110663295D02*
G01*
X152088365Y-110727451D01*
X152081104Y-110781092D01*
X152010326Y-110802918D01*
X151947289Y-110788577D01*
X151932288Y-110727451D01*
X151949436Y-110687834D01*
X152010326Y-110651984D01*
X152045842Y-110663295D01*
G37*
G36*
X151831183Y-109210689D02*
G01*
X151879834Y-109246413D01*
X151852205Y-109307955D01*
X151808604Y-109333454D01*
X151740493Y-109326318D01*
X151708459Y-109272018D01*
X151724467Y-109234296D01*
X151794707Y-109207332D01*
X151831183Y-109210689D01*
G37*
G36*
X154735739Y-109646085D02*
G01*
X154770258Y-109703257D01*
X154762745Y-109733424D01*
X154705573Y-109767943D01*
X154675406Y-109760430D01*
X154640887Y-109703257D01*
X154648400Y-109673091D01*
X154705573Y-109638571D01*
X154735739Y-109646085D01*
G37*
G36*
X151030599Y-109217643D02*
G01*
X151061600Y-109272018D01*
X151052174Y-109308249D01*
X150994636Y-109329085D01*
X150935870Y-109300891D01*
X150925380Y-109251484D01*
X150986133Y-109215542D01*
X151030599Y-109217643D01*
G37*
G36*
X149345247Y-111327919D02*
G01*
X149379766Y-111385091D01*
X149372253Y-111415258D01*
X149315080Y-111449777D01*
X149284914Y-111442263D01*
X149250394Y-111385091D01*
X149257908Y-111354924D01*
X149315080Y-111320405D01*
X149345247Y-111327919D01*
G37*
G36*
X152285989Y-111574131D02*
G01*
X152288790Y-111625252D01*
X152282177Y-111634349D01*
X152225946Y-111665397D01*
X152191618Y-111655965D01*
X152159169Y-111607684D01*
X152182119Y-111558021D01*
X152234146Y-111546820D01*
X152285989Y-111574131D01*
G37*
G36*
X155172600Y-110636904D02*
G01*
X155228680Y-110687462D01*
X155223060Y-110759794D01*
X155168175Y-110801199D01*
X155102814Y-110786046D01*
X155072126Y-110716670D01*
X155083889Y-110666327D01*
X155134267Y-110630422D01*
X155172600Y-110636904D01*
G37*
G36*
X153545495Y-110907072D02*
G01*
X153543548Y-110971656D01*
X153486341Y-111013887D01*
X153421155Y-111008104D01*
X153390292Y-110956397D01*
X153393969Y-110930067D01*
X153437174Y-110865281D01*
X153496984Y-110861242D01*
X153545495Y-110907072D01*
G37*
G36*
X153748275Y-106814401D02*
G01*
X153864656Y-106878639D01*
X153890849Y-106907292D01*
X153947036Y-107024800D01*
X153919849Y-107136374D01*
X153811604Y-107237712D01*
X153624614Y-107324514D01*
X153581207Y-107340995D01*
X153479870Y-107404064D01*
X153462146Y-107471878D01*
X153529348Y-107541448D01*
X153618337Y-107565829D01*
X153743168Y-107535723D01*
X153852743Y-107509839D01*
X153925102Y-107522462D01*
X153940174Y-107566306D01*
X153883900Y-107631775D01*
X153769001Y-107681855D01*
X153618981Y-107696617D01*
X153474485Y-107674131D01*
X153372182Y-107615560D01*
X153339696Y-107571164D01*
X153307676Y-107443328D01*
X153347960Y-107319496D01*
X153454978Y-107225881D01*
X153488300Y-107209022D01*
X153636069Y-107130274D01*
X153720353Y-107073981D01*
X153754248Y-107029545D01*
X153750846Y-106986363D01*
X153698490Y-106935630D01*
X153595079Y-106926382D01*
X153469075Y-106968882D01*
X153395544Y-106992045D01*
X153329981Y-106974253D01*
X153314139Y-106921542D01*
X153366192Y-106854174D01*
X153443780Y-106815383D01*
X153594936Y-106792675D01*
X153748275Y-106814401D01*
G37*
G36*
X149746097Y-111971716D02*
G01*
X149789805Y-112015303D01*
X149781084Y-112069059D01*
X149767657Y-112080767D01*
X149708117Y-112091424D01*
X149681634Y-112031950D01*
X149686199Y-112002231D01*
X149722213Y-111967264D01*
X149746097Y-111971716D01*
G37*
G36*
X152616274Y-107426477D02*
G01*
X152539207Y-107564383D01*
X152443954Y-107653592D01*
X152307685Y-107691653D01*
X152143725Y-107691168D01*
X152004317Y-107651654D01*
X151957195Y-107630014D01*
X151928409Y-107644237D01*
X151931685Y-107726802D01*
X151944907Y-107782812D01*
X152022437Y-107883093D01*
X152151151Y-107929227D01*
X152314235Y-107913029D01*
X152428880Y-107895012D01*
X152504991Y-107912852D01*
X152521635Y-107959178D01*
X152465666Y-108024327D01*
X152442905Y-108037774D01*
X152330473Y-108072281D01*
X152192825Y-108086110D01*
X152107579Y-108082286D01*
X151987077Y-108047256D01*
X151877637Y-107960055D01*
X151825325Y-107905243D01*
X151789513Y-107852351D01*
X151767707Y-107784530D01*
X151756433Y-107683950D01*
X151752216Y-107532782D01*
X151751583Y-107313196D01*
X151751724Y-107245193D01*
X151924078Y-107245193D01*
X151938912Y-107357004D01*
X151977983Y-107450210D01*
X152040927Y-107502720D01*
X152148309Y-107548830D01*
X152247708Y-107544598D01*
X152362776Y-107480454D01*
X152450064Y-107373166D01*
X152484690Y-107245193D01*
X152460046Y-107137456D01*
X152379713Y-107025220D01*
X152267506Y-106952432D01*
X152148309Y-106941555D01*
X152052222Y-106979226D01*
X151955925Y-107083696D01*
X151924078Y-107245193D01*
X151751724Y-107245193D01*
X151751908Y-107156122D01*
X151754685Y-106987184D01*
X151762307Y-106880590D01*
X151777132Y-106822092D01*
X151801520Y-106797442D01*
X151837831Y-106792391D01*
X151887974Y-106800768D01*
X151924078Y-106837033D01*
X151938838Y-106859647D01*
X152007491Y-106837033D01*
X152007606Y-106836972D01*
X152144571Y-106798834D01*
X152307190Y-106798765D01*
X152443954Y-106836794D01*
X152466669Y-106851199D01*
X152559445Y-106955065D01*
X152629484Y-107098909D01*
X152657185Y-107245193D01*
X152655556Y-107277414D01*
X152616274Y-107426477D01*
G37*
G36*
X151010868Y-108981462D02*
G01*
X151053390Y-109045617D01*
X151046130Y-109099258D01*
X150975352Y-109121084D01*
X150912315Y-109106744D01*
X150897313Y-109045617D01*
X150914461Y-109006000D01*
X150975352Y-108970150D01*
X151010868Y-108981462D01*
G37*
G36*
X150228158Y-110653884D02*
G01*
X150264760Y-110717449D01*
X150253648Y-110777140D01*
X150245590Y-110783592D01*
X150177559Y-110802918D01*
X150164144Y-110802095D01*
X150101470Y-110777140D01*
X150088330Y-110728371D01*
X150118901Y-110662411D01*
X150177559Y-110630422D01*
X150228158Y-110653884D01*
G37*
G36*
X154956981Y-108739451D02*
G01*
X155013060Y-108790009D01*
X155007440Y-108862341D01*
X154952555Y-108903745D01*
X154887195Y-108888592D01*
X154856506Y-108819217D01*
X154868269Y-108768874D01*
X154918647Y-108732969D01*
X154956981Y-108739451D01*
G37*
G36*
X151458320Y-109430465D02*
G01*
X151492839Y-109487638D01*
X151485326Y-109517804D01*
X151428153Y-109552324D01*
X151397987Y-109544810D01*
X151363467Y-109487638D01*
X151370981Y-109457471D01*
X151428153Y-109422952D01*
X151458320Y-109430465D01*
G37*
G36*
X154964316Y-107251562D02*
G01*
X154956187Y-107375396D01*
X154915755Y-107474645D01*
X154823483Y-107572160D01*
X154778562Y-107609868D01*
X154651707Y-107679205D01*
X154497515Y-107697994D01*
X154476834Y-107697685D01*
X154337842Y-107678840D01*
X154232134Y-107637755D01*
X154177269Y-107584173D01*
X154190807Y-107527836D01*
X154256586Y-107502928D01*
X154371831Y-107528365D01*
X154460379Y-107546855D01*
X154599639Y-107530410D01*
X154709053Y-107465571D01*
X154762477Y-107363380D01*
X154765706Y-107332377D01*
X154755763Y-107295676D01*
X154711295Y-107276057D01*
X154615063Y-107268192D01*
X154449828Y-107266755D01*
X154123399Y-107266755D01*
X154123399Y-107135423D01*
X154134887Y-107083478D01*
X154306540Y-107083478D01*
X154314575Y-107110967D01*
X154384228Y-107131176D01*
X154529483Y-107137383D01*
X154533029Y-107137380D01*
X154686706Y-107128331D01*
X154757528Y-107100372D01*
X154747213Y-107051379D01*
X154657479Y-106979228D01*
X154596890Y-106943267D01*
X154522865Y-106929429D01*
X154434536Y-106967453D01*
X154354526Y-107024441D01*
X154306540Y-107083478D01*
X154134887Y-107083478D01*
X154154717Y-106993808D01*
X154247050Y-106878475D01*
X154381067Y-106808114D01*
X154537213Y-106788499D01*
X154695928Y-106825401D01*
X154837657Y-106924595D01*
X154895633Y-106991898D01*
X154948624Y-107100372D01*
X154950179Y-107103555D01*
X154964316Y-107251562D01*
G37*
G36*
X152517761Y-111343345D02*
G01*
X152508025Y-111403784D01*
X152502939Y-111411408D01*
X152438734Y-111447977D01*
X152376692Y-111406348D01*
X152373139Y-111379013D01*
X152419130Y-111336335D01*
X152464533Y-111324956D01*
X152517761Y-111343345D01*
G37*
G36*
X155166979Y-109214846D02*
G01*
X155201498Y-109272018D01*
X155193984Y-109302185D01*
X155136812Y-109336704D01*
X155106645Y-109329190D01*
X155072126Y-109272018D01*
X155079640Y-109241851D01*
X155136812Y-109207332D01*
X155166979Y-109214846D01*
G37*
G36*
X148094653Y-109430465D02*
G01*
X148129172Y-109487638D01*
X148121658Y-109517804D01*
X148064486Y-109552324D01*
X148034319Y-109544810D01*
X147999800Y-109487638D01*
X148007314Y-109457471D01*
X148064486Y-109422952D01*
X148094653Y-109430465D01*
G37*
G36*
X149992106Y-111543538D02*
G01*
X150026625Y-111600711D01*
X150019112Y-111630877D01*
X149961939Y-111665397D01*
X149931773Y-111657883D01*
X149897253Y-111600711D01*
X149904767Y-111570544D01*
X149961939Y-111536025D01*
X149992106Y-111543538D01*
G37*
G36*
X153716817Y-108317984D02*
G01*
X153763925Y-108369314D01*
X153768206Y-108382300D01*
X153761293Y-108461891D01*
X153708291Y-108502791D01*
X153636115Y-108481396D01*
X153573701Y-108451757D01*
X153538659Y-108488438D01*
X153546686Y-108588437D01*
X153552439Y-108614162D01*
X153545288Y-108675018D01*
X153478129Y-108689845D01*
X153474148Y-108689822D01*
X153405912Y-108668534D01*
X153396657Y-108592816D01*
X153398586Y-108526717D01*
X153381026Y-108450604D01*
X153372270Y-108420568D01*
X153391822Y-108342794D01*
X153399275Y-108331507D01*
X153444598Y-108302473D01*
X153518348Y-108334438D01*
X153576288Y-108360617D01*
X153605912Y-108345219D01*
X153609134Y-108327930D01*
X153652500Y-108302250D01*
X153716817Y-108317984D01*
G37*
G36*
X149776486Y-109430465D02*
G01*
X149811005Y-109487638D01*
X149803492Y-109517804D01*
X149746320Y-109552324D01*
X149716153Y-109544810D01*
X149681634Y-109487638D01*
X149689147Y-109457471D01*
X149746320Y-109422952D01*
X149776486Y-109430465D01*
G37*
G36*
X152692701Y-108981462D02*
G01*
X152735224Y-109045617D01*
X152727963Y-109099258D01*
X152657185Y-109121084D01*
X152594148Y-109106744D01*
X152579147Y-109045617D01*
X152596295Y-109006000D01*
X152657185Y-108970150D01*
X152692701Y-108981462D01*
G37*
G36*
X149395205Y-107560798D02*
G01*
X149304300Y-107651416D01*
X149278068Y-107664108D01*
X149142254Y-107692667D01*
X148986729Y-107689152D01*
X148859444Y-107653353D01*
X148802429Y-107630738D01*
X148776031Y-107653353D01*
X148759848Y-107679307D01*
X148689783Y-107697994D01*
X148675131Y-107697512D01*
X148646136Y-107687953D01*
X148626245Y-107656208D01*
X148613747Y-107589466D01*
X148606935Y-107474915D01*
X148604100Y-107299742D01*
X148603916Y-107218680D01*
X148776609Y-107218680D01*
X148789268Y-107359572D01*
X148862279Y-107482374D01*
X148939992Y-107539514D01*
X149029997Y-107568622D01*
X149038117Y-107568427D01*
X149158004Y-107524936D01*
X149260086Y-107422880D01*
X149318321Y-107287636D01*
X149318037Y-107187988D01*
X149265581Y-107058104D01*
X149170776Y-106960353D01*
X149053207Y-106921763D01*
X149020178Y-106924039D01*
X148900121Y-106977257D01*
X148816246Y-107083356D01*
X148776609Y-107218680D01*
X148603916Y-107218680D01*
X148603535Y-107051135D01*
X148603599Y-106941243D01*
X148604874Y-106723786D01*
X148609107Y-106574596D01*
X148618006Y-106480863D01*
X148633279Y-106429773D01*
X148656635Y-106408515D01*
X148689783Y-106404276D01*
X148720668Y-106406943D01*
X148756336Y-106433494D01*
X148772335Y-106505375D01*
X148776031Y-106642975D01*
X148777462Y-106758815D01*
X148787045Y-106835197D01*
X148811982Y-106855708D01*
X148859444Y-106837033D01*
X148859558Y-106836972D01*
X148996523Y-106798834D01*
X149159142Y-106798765D01*
X149295907Y-106836794D01*
X149318622Y-106851199D01*
X149411397Y-106955065D01*
X149481436Y-107098909D01*
X149509138Y-107245193D01*
X149507559Y-107276251D01*
X149504601Y-107287636D01*
X149469483Y-107422803D01*
X149395205Y-107560798D01*
G37*
G36*
X153512056Y-108765842D02*
G01*
X153554579Y-108829998D01*
X153547318Y-108883639D01*
X153476540Y-108905464D01*
X153413503Y-108891124D01*
X153398502Y-108829998D01*
X153415650Y-108790380D01*
X153476540Y-108754531D01*
X153512056Y-108765842D01*
G37*
G36*
X156038103Y-107385683D02*
G01*
X155995185Y-107507064D01*
X155916176Y-107598428D01*
X155816510Y-107657757D01*
X155669289Y-107695337D01*
X155525856Y-107691830D01*
X155420352Y-107644089D01*
X155372243Y-107611810D01*
X155343447Y-107644089D01*
X155319229Y-107673468D01*
X155241028Y-107697994D01*
X155230387Y-107697676D01*
X155201582Y-107688437D01*
X155181674Y-107656823D01*
X155169032Y-107590060D01*
X155162023Y-107475373D01*
X155159014Y-107299990D01*
X155158874Y-107245610D01*
X155330870Y-107245610D01*
X155357252Y-107346796D01*
X155420247Y-107454997D01*
X155422324Y-107457604D01*
X155513316Y-107536170D01*
X155606788Y-107568622D01*
X155660100Y-107559623D01*
X155770825Y-107491894D01*
X155856862Y-107382000D01*
X155891481Y-107259010D01*
X155878457Y-107178704D01*
X155814399Y-107054651D01*
X155717537Y-106959658D01*
X155611175Y-106921763D01*
X155546248Y-106937188D01*
X155443381Y-107012566D01*
X155363194Y-107124919D01*
X155330870Y-107245193D01*
X155330870Y-107245610D01*
X155158874Y-107245610D01*
X155158374Y-107051135D01*
X155158438Y-106941243D01*
X155159713Y-106723786D01*
X155163945Y-106574596D01*
X155172844Y-106480863D01*
X155188118Y-106429773D01*
X155211474Y-106408515D01*
X155244622Y-106404276D01*
X155274880Y-106406806D01*
X155310940Y-106432987D01*
X155327126Y-106504391D01*
X155330870Y-106641458D01*
X155334140Y-106736047D01*
X155354258Y-106845853D01*
X155390110Y-106880819D01*
X155438679Y-106835515D01*
X155447756Y-106826725D01*
X155522665Y-106802230D01*
X155638599Y-106792391D01*
X155701049Y-106794977D01*
X155826084Y-106830597D01*
X155943218Y-106923742D01*
X155988294Y-106970599D01*
X156043228Y-107049317D01*
X156061037Y-107139107D01*
X156054264Y-107259010D01*
X156053249Y-107276977D01*
X156038103Y-107385683D01*
G37*
G36*
X152501609Y-109676678D02*
G01*
X152504410Y-109727799D01*
X152497797Y-109736896D01*
X152441566Y-109767943D01*
X152407237Y-109758512D01*
X152374789Y-109710231D01*
X152397738Y-109660568D01*
X152449765Y-109649367D01*
X152501609Y-109676678D01*
G37*
G36*
X152707481Y-109219338D02*
G01*
X152743433Y-109272018D01*
X152727425Y-109309740D01*
X152657185Y-109336704D01*
X152606890Y-109324698D01*
X152570938Y-109272018D01*
X152586946Y-109234296D01*
X152657185Y-109207332D01*
X152707481Y-109219338D01*
G37*
G36*
X152969858Y-106792616D02*
G01*
X153004763Y-106802143D01*
X153026855Y-106836916D01*
X153039039Y-106912183D01*
X153044219Y-107043192D01*
X153045301Y-107245193D01*
X153045258Y-107301917D01*
X153043443Y-107485168D01*
X153036820Y-107601152D01*
X153022484Y-107665119D01*
X152997529Y-107692317D01*
X152959053Y-107697994D01*
X152948248Y-107697770D01*
X152913343Y-107688243D01*
X152891251Y-107653470D01*
X152879067Y-107578203D01*
X152873887Y-107447193D01*
X152872805Y-107245193D01*
X152872848Y-107188468D01*
X152874663Y-107005218D01*
X152881286Y-106889234D01*
X152895622Y-106825267D01*
X152920577Y-106798069D01*
X152959053Y-106792391D01*
X152969858Y-106792616D01*
G37*
G36*
X149314857Y-111756097D02*
G01*
X149358566Y-111799683D01*
X149349844Y-111853439D01*
X149336417Y-111865148D01*
X149276878Y-111875804D01*
X149250394Y-111816330D01*
X149254960Y-111786611D01*
X149290973Y-111751644D01*
X149314857Y-111756097D01*
G37*
G36*
X152070370Y-109676678D02*
G01*
X152073171Y-109727799D01*
X152066557Y-109736896D01*
X152010326Y-109767943D01*
X151975998Y-109758512D01*
X151943549Y-109710231D01*
X151966499Y-109660568D01*
X152018526Y-109649367D01*
X152070370Y-109676678D01*
G37*
G36*
X155165464Y-108982678D02*
G01*
X155213839Y-109030656D01*
X155220040Y-109082846D01*
X155169369Y-109117684D01*
X155103961Y-109111194D01*
X155072126Y-109063586D01*
X155073769Y-109042709D01*
X155100501Y-108977712D01*
X155111204Y-108970828D01*
X155165464Y-108982678D01*
G37*
G36*
X155166979Y-111327919D02*
G01*
X155201498Y-111385091D01*
X155193984Y-111415258D01*
X155136812Y-111449777D01*
X155106645Y-111442263D01*
X155072126Y-111385091D01*
X155079640Y-111354924D01*
X155136812Y-111320405D01*
X155166979Y-111327919D01*
G37*
G36*
X145275449Y-102196563D02*
G01*
X145417264Y-102252339D01*
X145557401Y-102339361D01*
X145676283Y-102451041D01*
X145754486Y-102544683D01*
X145755920Y-102382969D01*
X145756788Y-102330969D01*
X145770067Y-102254458D01*
X145819388Y-102225666D01*
X145929851Y-102221254D01*
X146102347Y-102221254D01*
X146102347Y-104032459D01*
X145757355Y-104032459D01*
X145757194Y-103482629D01*
X145757162Y-103448525D01*
X145754856Y-103221071D01*
X145747322Y-103059609D01*
X145732317Y-102946178D01*
X145707599Y-102862819D01*
X145670926Y-102791571D01*
X145585825Y-102686954D01*
X145422346Y-102592700D01*
X145222970Y-102574710D01*
X145144883Y-102575885D01*
X145091702Y-102540330D01*
X145056779Y-102442396D01*
X145054293Y-102432482D01*
X145036524Y-102317697D01*
X145041861Y-102237557D01*
X145065099Y-102205102D01*
X145151535Y-102178621D01*
X145275449Y-102196563D01*
G37*
G36*
X151811720Y-111327571D02*
G01*
X151861062Y-111369434D01*
X151851033Y-111422200D01*
X151808616Y-111446857D01*
X151740617Y-111439335D01*
X151708459Y-111385091D01*
X151715648Y-111354980D01*
X151770600Y-111320405D01*
X151811720Y-111327571D01*
G37*
G36*
X150799816Y-109640018D02*
G01*
X150844700Y-109676075D01*
X150817231Y-109739194D01*
X150802517Y-109751945D01*
X150742876Y-109762651D01*
X150716608Y-109703257D01*
X150724122Y-109673091D01*
X150781294Y-109638571D01*
X150799816Y-109640018D01*
G37*
G36*
X151010868Y-110663295D02*
G01*
X151053390Y-110727451D01*
X151046130Y-110781092D01*
X150975352Y-110802918D01*
X150912315Y-110788577D01*
X150897313Y-110727451D01*
X150914461Y-110687834D01*
X150975352Y-110651984D01*
X151010868Y-110663295D01*
G37*
G36*
X148957131Y-109430465D02*
G01*
X148991651Y-109487638D01*
X148984137Y-109517804D01*
X148926965Y-109552324D01*
X148896798Y-109544810D01*
X148862279Y-109487638D01*
X148869792Y-109457471D01*
X148926965Y-109422952D01*
X148957131Y-109430465D01*
G37*
G36*
X154520119Y-109646085D02*
G01*
X154554639Y-109703257D01*
X154547125Y-109733424D01*
X154489953Y-109767943D01*
X154459786Y-109760430D01*
X154425267Y-109703257D01*
X154432780Y-109673091D01*
X154489953Y-109638571D01*
X154520119Y-109646085D01*
G37*
G36*
X154547020Y-110951574D02*
G01*
X154544524Y-110987591D01*
X154489953Y-111018537D01*
X154450296Y-111007203D01*
X154433476Y-110943071D01*
X154460442Y-110888435D01*
X154509702Y-110885334D01*
X154547020Y-110951574D01*
G37*
G36*
X149560866Y-111543538D02*
G01*
X149595386Y-111600711D01*
X149587872Y-111630877D01*
X149530700Y-111665397D01*
X149500533Y-111657883D01*
X149466014Y-111600711D01*
X149473527Y-111570544D01*
X149530700Y-111536025D01*
X149560866Y-111543538D01*
G37*
G36*
X153493553Y-111111952D02*
G01*
X153542895Y-111153814D01*
X153532866Y-111206580D01*
X153490449Y-111231237D01*
X153422451Y-111223716D01*
X153390292Y-111169471D01*
X153397482Y-111139361D01*
X153452433Y-111104785D01*
X153493553Y-111111952D01*
G37*
G36*
X147865167Y-107515642D02*
G01*
X147856637Y-107614582D01*
X147841982Y-107669438D01*
X147819572Y-107692984D01*
X147787774Y-107697994D01*
X147739511Y-107689225D01*
X147685355Y-107644089D01*
X147659627Y-107611810D01*
X147608450Y-107644089D01*
X147598575Y-107651798D01*
X147508484Y-107684658D01*
X147385381Y-107697994D01*
X147251103Y-107674577D01*
X147111133Y-107584704D01*
X147017137Y-107443225D01*
X146979312Y-107267023D01*
X146982523Y-107245193D01*
X147137321Y-107245193D01*
X147137384Y-107249100D01*
X147169629Y-107357672D01*
X147243171Y-107462773D01*
X147263723Y-107482753D01*
X147367412Y-107554687D01*
X147465081Y-107553073D01*
X147584307Y-107479245D01*
X147609693Y-107456073D01*
X147680935Y-107334504D01*
X147701855Y-107192485D01*
X147664929Y-107068372D01*
X147663869Y-107066822D01*
X147591474Y-107003734D01*
X147486504Y-106946631D01*
X147396940Y-106921763D01*
X147320711Y-106954854D01*
X147234839Y-107039711D01*
X147165704Y-107146464D01*
X147137321Y-107245193D01*
X146982523Y-107245193D01*
X147007856Y-107072980D01*
X147011630Y-107062087D01*
X147073603Y-106942269D01*
X147150217Y-106857211D01*
X147175250Y-106842498D01*
X147285368Y-106807502D01*
X147413495Y-106793575D01*
X147526218Y-106802363D01*
X147590123Y-106835515D01*
X147619344Y-106871619D01*
X147660993Y-106870245D01*
X147688195Y-106791715D01*
X147697932Y-106641458D01*
X147698852Y-106558248D01*
X147708373Y-106459081D01*
X147734338Y-106414571D01*
X147784180Y-106404276D01*
X147798833Y-106404758D01*
X147827827Y-106414317D01*
X147847719Y-106446062D01*
X147860217Y-106512804D01*
X147867029Y-106627355D01*
X147869863Y-106802528D01*
X147870428Y-107051135D01*
X147870388Y-107134415D01*
X147870084Y-107192485D01*
X147869207Y-107359844D01*
X147865167Y-107515642D01*
G37*
G36*
X154331400Y-109054120D02*
G01*
X154328904Y-109090138D01*
X154274333Y-109121084D01*
X154234676Y-109109750D01*
X154217857Y-109045617D01*
X154244823Y-108990982D01*
X154294083Y-108987881D01*
X154331400Y-109054120D01*
G37*
G36*
X150579628Y-108981462D02*
G01*
X150622151Y-109045617D01*
X150614890Y-109099258D01*
X150544112Y-109121084D01*
X150481075Y-109106744D01*
X150466074Y-109045617D01*
X150483222Y-109006000D01*
X150544112Y-108970150D01*
X150579628Y-108981462D01*
G37*
G36*
X151226487Y-110663295D02*
G01*
X151269010Y-110727451D01*
X151261749Y-110781092D01*
X151190971Y-110802918D01*
X151127934Y-110788577D01*
X151112933Y-110727451D01*
X151130081Y-110687834D01*
X151190971Y-110651984D01*
X151226487Y-110663295D01*
G37*
G36*
X147733448Y-108981462D02*
G01*
X147775971Y-109045617D01*
X147768710Y-109099258D01*
X147697932Y-109121084D01*
X147634895Y-109106744D01*
X147619894Y-109045617D01*
X147637042Y-109006000D01*
X147697932Y-108970150D01*
X147733448Y-108981462D01*
G37*
G36*
X148274656Y-103465349D02*
G01*
X148158577Y-103698594D01*
X147972887Y-103881093D01*
X147717001Y-104013704D01*
X147560280Y-104054644D01*
X147305026Y-104056567D01*
X147058864Y-103987254D01*
X146838256Y-103854822D01*
X146659661Y-103667388D01*
X146539542Y-103433070D01*
X146502661Y-103279378D01*
X146501872Y-103126857D01*
X146863412Y-103126857D01*
X146863781Y-103151383D01*
X146901892Y-103368943D01*
X146995827Y-103546580D01*
X147135910Y-103665176D01*
X147157345Y-103675394D01*
X147330824Y-103719579D01*
X147523052Y-103720666D01*
X147687919Y-103677617D01*
X147733542Y-103650558D01*
X147851994Y-103522276D01*
X147932578Y-103342268D01*
X147963227Y-103134350D01*
X147960488Y-103052537D01*
X147909512Y-102830000D01*
X147798440Y-102663549D01*
X147632677Y-102559237D01*
X147417627Y-102523121D01*
X147349881Y-102526469D01*
X147148425Y-102585000D01*
X146995140Y-102710082D01*
X146897608Y-102893455D01*
X146863412Y-103126857D01*
X146501872Y-103126857D01*
X146501283Y-103013112D01*
X146571598Y-102758563D01*
X146705632Y-102531930D01*
X146895416Y-102349413D01*
X147132975Y-102227209D01*
X147294752Y-102190620D01*
X147554338Y-102197319D01*
X147802845Y-102276964D01*
X148022030Y-102422670D01*
X148193648Y-102627550D01*
X148227413Y-102684751D01*
X148287792Y-102814150D01*
X148316036Y-102946642D01*
X148322893Y-103123475D01*
X148322667Y-103134350D01*
X148321709Y-103180498D01*
X148274656Y-103465349D01*
G37*
G36*
X146844058Y-109430465D02*
G01*
X146878578Y-109487638D01*
X146871064Y-109517804D01*
X146813892Y-109552324D01*
X146783725Y-109544810D01*
X146749206Y-109487638D01*
X146756719Y-109457471D01*
X146813892Y-109422952D01*
X146844058Y-109430465D01*
G37*
G36*
X151830223Y-108981462D02*
G01*
X151872745Y-109045617D01*
X151865484Y-109099258D01*
X151794707Y-109121084D01*
X151731669Y-109106744D01*
X151716668Y-109045617D01*
X151733816Y-109006000D01*
X151794707Y-108970150D01*
X151830223Y-108981462D01*
G37*
G36*
X151231482Y-110885113D02*
G01*
X151269764Y-110946987D01*
X151265785Y-111002180D01*
X151205669Y-111011082D01*
X151162315Y-110992259D01*
X151126286Y-110931699D01*
X151130659Y-110904629D01*
X151173049Y-110869709D01*
X151231482Y-110885113D01*
G37*
G36*
X150799816Y-111537471D02*
G01*
X150844700Y-111573528D01*
X150817231Y-111636647D01*
X150802517Y-111649398D01*
X150742876Y-111660104D01*
X150716608Y-111600711D01*
X150724122Y-111570544D01*
X150781294Y-111536025D01*
X150799816Y-111537471D01*
G37*
G36*
X150494917Y-107357827D02*
G01*
X150458716Y-107469099D01*
X150374934Y-107571940D01*
X150339076Y-107605795D01*
X150221168Y-107678336D01*
X150075095Y-107697994D01*
X149930129Y-107684874D01*
X149802561Y-107650190D01*
X149717058Y-107602511D01*
X149695662Y-107550411D01*
X149726895Y-107520991D01*
X149821088Y-107516093D01*
X149984462Y-107547836D01*
X150084190Y-107549427D01*
X150210863Y-107482395D01*
X150298628Y-107403856D01*
X150333247Y-107338606D01*
X150293894Y-107296347D01*
X150176779Y-107273567D01*
X149978111Y-107266755D01*
X149627729Y-107266755D01*
X149655345Y-107128675D01*
X149661755Y-107100090D01*
X149834379Y-107100090D01*
X149853844Y-107124857D01*
X149926855Y-107135264D01*
X150069749Y-107137383D01*
X150210414Y-107135378D01*
X150284728Y-107125218D01*
X150305152Y-107100818D01*
X150288024Y-107056096D01*
X150281808Y-107045276D01*
X150187768Y-106962504D01*
X150063620Y-106936742D01*
X149940967Y-106967979D01*
X149851414Y-107056209D01*
X149834379Y-107100090D01*
X149661755Y-107100090D01*
X149662001Y-107098993D01*
X149740367Y-106929746D01*
X149873360Y-106827002D01*
X150059021Y-106792391D01*
X150146094Y-106796356D01*
X150265953Y-106831477D01*
X150374934Y-106918446D01*
X150441866Y-106995044D01*
X150489018Y-107099832D01*
X150489099Y-107100818D01*
X150500988Y-107245193D01*
X150494917Y-107357827D01*
G37*
G36*
X149787877Y-108987594D02*
G01*
X149811005Y-109058943D01*
X149796296Y-109097658D01*
X149735947Y-109121292D01*
X149667633Y-109092709D01*
X149660750Y-109082006D01*
X149672599Y-109027746D01*
X149720577Y-108979371D01*
X149772768Y-108973170D01*
X149787877Y-108987594D01*
G37*
G36*
X146844058Y-109646085D02*
G01*
X146878578Y-109703257D01*
X146871064Y-109733424D01*
X146813892Y-109767943D01*
X146783725Y-109760430D01*
X146749206Y-109703257D01*
X146756719Y-109673091D01*
X146813892Y-109638571D01*
X146844058Y-109646085D01*
G37*
G36*
X149353569Y-110883621D02*
G01*
X149379766Y-110956397D01*
X149354849Y-111002616D01*
X149291090Y-111017968D01*
X149234223Y-110984136D01*
X149228475Y-110962537D01*
X149248418Y-110892363D01*
X149297286Y-110859230D01*
X149353569Y-110883621D01*
G37*
G36*
X148962753Y-108739451D02*
G01*
X149018833Y-108790009D01*
X149013213Y-108862341D01*
X148958328Y-108903745D01*
X148892967Y-108888592D01*
X148862279Y-108819217D01*
X148874042Y-108768874D01*
X148924420Y-108732969D01*
X148962753Y-108739451D01*
G37*
G36*
X146069747Y-106792391D02*
G01*
X146105221Y-106795295D01*
X146157552Y-106824204D01*
X146201371Y-106899616D01*
X146250391Y-107040354D01*
X146286407Y-107149744D01*
X146338829Y-107293103D01*
X146380827Y-107390622D01*
X146405473Y-107431754D01*
X146431011Y-107441987D01*
X146462949Y-107404459D01*
X146509950Y-107308445D01*
X146580680Y-107143222D01*
X146600890Y-107095503D01*
X146671037Y-106940886D01*
X146725387Y-106848925D01*
X146774587Y-106804615D01*
X146829286Y-106792954D01*
X146893029Y-106803481D01*
X146908716Y-106846296D01*
X146893872Y-106880720D01*
X146848301Y-106984054D01*
X146781917Y-107133377D01*
X146703294Y-107309361D01*
X146653112Y-107421807D01*
X146589825Y-107570313D01*
X146555528Y-107672161D01*
X146546181Y-107747808D01*
X146557744Y-107817707D01*
X146586177Y-107902315D01*
X146613036Y-107978635D01*
X146631527Y-108052887D01*
X146615057Y-108081322D01*
X146560585Y-108085763D01*
X146539926Y-108083156D01*
X146499495Y-108058583D01*
X146454792Y-107998681D01*
X146399484Y-107892032D01*
X146327237Y-107727214D01*
X146231719Y-107492809D01*
X146167456Y-107332364D01*
X146084068Y-107122746D01*
X146028086Y-106975721D01*
X145996952Y-106880229D01*
X145988109Y-106825210D01*
X145998999Y-106799604D01*
X146027064Y-106792351D01*
X146069747Y-106792391D01*
G37*
G36*
X150001161Y-112005303D02*
G01*
X150003222Y-112056492D01*
X149996652Y-112065459D01*
X149937832Y-112096636D01*
X149925746Y-112095137D01*
X149898132Y-112056568D01*
X149924830Y-111997186D01*
X149955571Y-111983021D01*
X150001161Y-112005303D01*
G37*
G36*
X146887202Y-108983088D02*
G01*
X146903238Y-109006360D01*
X146902462Y-109074203D01*
X146845255Y-109116434D01*
X146780068Y-109110650D01*
X146749206Y-109058943D01*
X146763991Y-109002361D01*
X146820381Y-108960802D01*
X146887202Y-108983088D01*
G37*
G36*
X152070370Y-111574131D02*
G01*
X152073171Y-111625252D01*
X152066557Y-111634349D01*
X152010326Y-111665397D01*
X151975998Y-111655965D01*
X151943549Y-111607684D01*
X151966499Y-111558021D01*
X152018526Y-111546820D01*
X152070370Y-111574131D01*
G37*
G36*
X151461838Y-109217643D02*
G01*
X151492839Y-109272018D01*
X151483413Y-109308249D01*
X151425875Y-109329085D01*
X151367109Y-109300891D01*
X151356619Y-109251484D01*
X151417372Y-109215542D01*
X151461838Y-109217643D01*
G37*
G36*
X151442107Y-110663295D02*
G01*
X151484630Y-110727451D01*
X151477369Y-110781092D01*
X151406591Y-110802918D01*
X151343554Y-110788577D01*
X151328553Y-110727451D01*
X151345701Y-110687834D01*
X151406591Y-110651984D01*
X151442107Y-110663295D01*
G37*
G36*
X151010868Y-108765842D02*
G01*
X151053390Y-108829998D01*
X151046130Y-108883639D01*
X150975352Y-108905464D01*
X150912315Y-108891124D01*
X150897313Y-108829998D01*
X150914461Y-108790380D01*
X150975352Y-108754531D01*
X151010868Y-108765842D01*
G37*
G36*
X149530477Y-111971716D02*
G01*
X149574185Y-112015303D01*
X149565464Y-112069059D01*
X149552037Y-112080767D01*
X149492498Y-112091424D01*
X149466014Y-112031950D01*
X149470580Y-112002231D01*
X149506593Y-111967264D01*
X149530477Y-111971716D01*
G37*
G36*
X150579628Y-110663295D02*
G01*
X150622151Y-110727451D01*
X150614890Y-110781092D01*
X150544112Y-110802918D01*
X150481075Y-110788577D01*
X150466074Y-110727451D01*
X150483222Y-110687834D01*
X150544112Y-110651984D01*
X150579628Y-110663295D01*
G37*
G36*
X151242700Y-111327919D02*
G01*
X151277219Y-111385091D01*
X151269706Y-111415258D01*
X151212533Y-111449777D01*
X151182367Y-111442263D01*
X151147848Y-111385091D01*
X151155361Y-111354924D01*
X151212533Y-111320405D01*
X151242700Y-111327919D01*
G37*
G36*
X152285989Y-109676678D02*
G01*
X152288790Y-109727799D01*
X152282177Y-109736896D01*
X152225946Y-109767943D01*
X152191618Y-109758512D01*
X152159169Y-109710231D01*
X152182119Y-109660568D01*
X152234146Y-109649367D01*
X152285989Y-109676678D01*
G37*
G36*
X153269525Y-111543538D02*
G01*
X153304045Y-111600711D01*
X153296531Y-111630877D01*
X153239359Y-111665397D01*
X153209192Y-111657883D01*
X153174673Y-111600711D01*
X153182186Y-111570544D01*
X153239359Y-111536025D01*
X153269525Y-111543538D01*
G37*
G36*
X153485145Y-111543538D02*
G01*
X153519664Y-111600711D01*
X153512151Y-111630877D01*
X153454978Y-111665397D01*
X153424812Y-111657883D01*
X153390292Y-111600711D01*
X153397806Y-111570544D01*
X153454978Y-111536025D01*
X153485145Y-111543538D01*
G37*
G36*
X149992106Y-109646085D02*
G01*
X150026625Y-109703257D01*
X150019112Y-109733424D01*
X149961939Y-109767943D01*
X149931773Y-109760430D01*
X149897253Y-109703257D01*
X149904767Y-109673091D01*
X149961939Y-109638571D01*
X149992106Y-109646085D01*
G37*
G36*
X148094653Y-109646085D02*
G01*
X148129172Y-109703257D01*
X148121658Y-109733424D01*
X148064486Y-109767943D01*
X148034319Y-109760430D01*
X147999800Y-109703257D01*
X148007314Y-109673091D01*
X148064486Y-109638571D01*
X148094653Y-109646085D01*
G37*
G36*
X151242700Y-109646085D02*
G01*
X151277219Y-109703257D01*
X151269706Y-109733424D01*
X151212533Y-109767943D01*
X151182367Y-109760430D01*
X151147848Y-109703257D01*
X151155361Y-109673091D01*
X151212533Y-109638571D01*
X151242700Y-109646085D01*
G37*
G36*
X147503556Y-109649587D02*
G01*
X147525437Y-109703257D01*
X147518401Y-109738861D01*
X147479078Y-109759678D01*
X147466293Y-109753822D01*
X147432720Y-109703257D01*
X147434524Y-109691357D01*
X147479078Y-109646837D01*
X147503556Y-109649587D01*
G37*
G36*
X151015436Y-111537471D02*
G01*
X151060320Y-111573528D01*
X151032850Y-111636647D01*
X151018137Y-111649398D01*
X150958496Y-111660104D01*
X150932228Y-111600711D01*
X150939741Y-111570544D01*
X150996914Y-111536025D01*
X151015436Y-111537471D01*
G37*
G36*
X146852467Y-109214498D02*
G01*
X146901809Y-109256361D01*
X146891780Y-109309127D01*
X146849363Y-109333784D01*
X146781364Y-109326262D01*
X146749206Y-109272018D01*
X146756395Y-109241907D01*
X146811347Y-109207332D01*
X146852467Y-109214498D01*
G37*
G36*
X149761670Y-108767503D02*
G01*
X149803550Y-108833914D01*
X149799571Y-108889107D01*
X149739455Y-108898009D01*
X149710876Y-108888222D01*
X149666096Y-108838078D01*
X149669241Y-108781450D01*
X149724167Y-108754531D01*
X149761670Y-108767503D01*
G37*
G36*
X147502151Y-110077109D02*
G01*
X147525437Y-110134497D01*
X147520571Y-110164254D01*
X147482313Y-110199183D01*
X147462475Y-110191885D01*
X147439189Y-110134497D01*
X147444054Y-110104739D01*
X147482313Y-110069811D01*
X147502151Y-110077109D01*
G37*
G36*
X155166979Y-111112299D02*
G01*
X155201498Y-111169471D01*
X155193984Y-111199638D01*
X155136812Y-111234157D01*
X155106645Y-111226644D01*
X155072126Y-111169471D01*
X155079640Y-111139305D01*
X155136812Y-111104785D01*
X155166979Y-111112299D01*
G37*
G36*
X154951359Y-111112299D02*
G01*
X154985878Y-111169471D01*
X154978365Y-111199638D01*
X154921192Y-111234157D01*
X154891026Y-111226644D01*
X154856506Y-111169471D01*
X154864020Y-111139305D01*
X154921192Y-111104785D01*
X154951359Y-111112299D01*
G37*
G36*
X148094653Y-109214846D02*
G01*
X148129172Y-109272018D01*
X148121658Y-109302185D01*
X148064486Y-109336704D01*
X148034319Y-109329190D01*
X147999800Y-109272018D01*
X148007314Y-109241851D01*
X148064486Y-109207332D01*
X148094653Y-109214846D01*
G37*
G36*
X148957131Y-109646085D02*
G01*
X148991651Y-109703257D01*
X148984137Y-109733424D01*
X148926965Y-109767943D01*
X148896798Y-109760430D01*
X148862279Y-109703257D01*
X148869792Y-109673091D01*
X148926965Y-109638571D01*
X148957131Y-109646085D01*
G37*
G36*
X151443504Y-108983122D02*
G01*
X151485384Y-109049533D01*
X151481404Y-109104727D01*
X151421288Y-109113629D01*
X151392710Y-109103841D01*
X151347929Y-109053697D01*
X151351074Y-108997069D01*
X151406001Y-108970150D01*
X151443504Y-108983122D01*
G37*
G36*
X154741361Y-108739451D02*
G01*
X154797441Y-108790009D01*
X154791820Y-108862341D01*
X154736935Y-108903745D01*
X154671575Y-108888592D01*
X154640887Y-108819217D01*
X154652650Y-108768874D01*
X154703027Y-108732969D01*
X154741361Y-108739451D01*
G37*
G36*
X153485145Y-111327919D02*
G01*
X153519664Y-111385091D01*
X153512151Y-111415258D01*
X153454978Y-111449777D01*
X153424812Y-111442263D01*
X153390292Y-111385091D01*
X153397806Y-111354924D01*
X153454978Y-111320405D01*
X153485145Y-111327919D01*
G37*
G36*
X148531514Y-108739451D02*
G01*
X148587593Y-108790009D01*
X148581973Y-108862341D01*
X148527088Y-108903745D01*
X148461728Y-108888592D01*
X148431039Y-108819217D01*
X148442802Y-108768874D01*
X148493180Y-108732969D01*
X148531514Y-108739451D01*
G37*
G36*
X154979410Y-110158215D02*
G01*
X154981700Y-110179150D01*
X154944910Y-110192714D01*
X154926746Y-110184541D01*
X154896396Y-110144200D01*
X154902786Y-110123977D01*
X154941637Y-110113514D01*
X154979410Y-110158215D01*
G37*
G36*
X153735284Y-111597117D02*
G01*
X153726409Y-111630675D01*
X153667004Y-111665397D01*
X153634563Y-111658177D01*
X153615795Y-111614187D01*
X153658423Y-111557422D01*
X153710146Y-111549892D01*
X153735284Y-111597117D01*
G37*
G36*
X150594085Y-109219195D02*
G01*
X150630360Y-109275180D01*
X150620014Y-109310508D01*
X150558467Y-109329085D01*
X150531199Y-109321484D01*
X150475667Y-109278140D01*
X150477294Y-109230053D01*
X150540519Y-109207332D01*
X150594085Y-109219195D01*
G37*
G36*
X154304500Y-109861705D02*
G01*
X154339019Y-109918877D01*
X154331506Y-109949044D01*
X154274333Y-109983563D01*
X154244167Y-109976049D01*
X154209647Y-109918877D01*
X154217161Y-109888710D01*
X154274333Y-109854191D01*
X154304500Y-109861705D01*
G37*
G36*
X151811720Y-109430118D02*
G01*
X151861062Y-109471981D01*
X151851033Y-109524747D01*
X151808616Y-109549404D01*
X151740617Y-109541882D01*
X151708459Y-109487638D01*
X151715648Y-109457527D01*
X151770600Y-109422952D01*
X151811720Y-109430118D01*
G37*
G36*
X146887202Y-108767468D02*
G01*
X146903238Y-108790740D01*
X146902462Y-108858583D01*
X146845255Y-108900814D01*
X146780068Y-108895031D01*
X146749206Y-108843324D01*
X146763991Y-108786741D01*
X146820381Y-108745182D01*
X146887202Y-108767468D01*
G37*
G36*
X152477082Y-110663295D02*
G01*
X152519604Y-110727451D01*
X152512344Y-110781092D01*
X152441566Y-110802918D01*
X152378528Y-110788577D01*
X152363527Y-110727451D01*
X152380675Y-110687834D01*
X152441566Y-110651984D01*
X152477082Y-110663295D01*
G37*
G36*
X152045842Y-108765842D02*
G01*
X152088365Y-108829998D01*
X152081104Y-108883639D01*
X152010326Y-108905464D01*
X151947289Y-108891124D01*
X151932288Y-108829998D01*
X151949436Y-108790380D01*
X152010326Y-108754531D01*
X152045842Y-108765842D01*
G37*
G36*
X150004799Y-108748439D02*
G01*
X150026625Y-108819217D01*
X150012285Y-108882254D01*
X149951158Y-108897255D01*
X149911541Y-108880107D01*
X149875691Y-108819217D01*
X149887003Y-108783701D01*
X149951158Y-108741178D01*
X150004799Y-108748439D01*
G37*
G36*
X152261462Y-110663295D02*
G01*
X152303984Y-110727451D01*
X152296724Y-110781092D01*
X152225946Y-110802918D01*
X152162909Y-110788577D01*
X152147908Y-110727451D01*
X152165056Y-110687834D01*
X152225946Y-110651984D01*
X152261462Y-110663295D01*
G37*
G36*
X156193348Y-104032459D02*
G01*
X155848357Y-104032459D01*
X155848357Y-101488147D01*
X156193348Y-101488147D01*
X156193348Y-104032459D01*
G37*
G36*
X153545495Y-109009619D02*
G01*
X153543548Y-109074203D01*
X153486341Y-109116434D01*
X153421155Y-109110650D01*
X153390292Y-109058943D01*
X153393969Y-109032614D01*
X153437174Y-108967828D01*
X153496984Y-108963788D01*
X153545495Y-109009619D01*
G37*
%TD*%
M02*
