%TF.GenerationSoftware,KiCad,Pcbnew,(6.0.0-0)*%
%TF.CreationDate,2022-03-09T17:47:02+01:00*%
%TF.ProjectId,GlowCore,476c6f77-436f-4726-952e-6b696361645f,rev?*%
%TF.SameCoordinates,Original*%
%TF.FileFunction,Copper,L1,Top*%
%TF.FilePolarity,Positive*%
%FSLAX46Y46*%
G04 Gerber Fmt 4.6, Leading zero omitted, Abs format (unit mm)*
G04 Created by KiCad (PCBNEW (6.0.0-0)) date 2022-03-09 17:47:02*
%MOMM*%
%LPD*%
G01*
G04 APERTURE LIST*
G04 Aperture macros list*
%AMRoundRect*
0 Rectangle with rounded corners*
0 $1 Rounding radius*
0 $2 $3 $4 $5 $6 $7 $8 $9 X,Y pos of 4 corners*
0 Add a 4 corners polygon primitive as box body*
4,1,4,$2,$3,$4,$5,$6,$7,$8,$9,$2,$3,0*
0 Add four circle primitives for the rounded corners*
1,1,$1+$1,$2,$3*
1,1,$1+$1,$4,$5*
1,1,$1+$1,$6,$7*
1,1,$1+$1,$8,$9*
0 Add four rect primitives between the rounded corners*
20,1,$1+$1,$2,$3,$4,$5,0*
20,1,$1+$1,$4,$5,$6,$7,0*
20,1,$1+$1,$6,$7,$8,$9,0*
20,1,$1+$1,$8,$9,$2,$3,0*%
G04 Aperture macros list end*
%TA.AperFunction,EtchedComponent*%
%ADD10C,0.300000*%
%TD*%
%TA.AperFunction,SMDPad,CuDef*%
%ADD11RoundRect,0.150000X-0.150000X0.587500X-0.150000X-0.587500X0.150000X-0.587500X0.150000X0.587500X0*%
%TD*%
%TA.AperFunction,SMDPad,CuDef*%
%ADD12R,2.500000X1.800000*%
%TD*%
%TA.AperFunction,SMDPad,CuDef*%
%ADD13RoundRect,0.237500X-0.237500X0.250000X-0.237500X-0.250000X0.237500X-0.250000X0.237500X0.250000X0*%
%TD*%
%TA.AperFunction,SMDPad,CuDef*%
%ADD14RoundRect,0.237500X0.237500X-0.250000X0.237500X0.250000X-0.237500X0.250000X-0.237500X-0.250000X0*%
%TD*%
%TA.AperFunction,ComponentPad*%
%ADD15R,2.200000X2.200000*%
%TD*%
%TA.AperFunction,ComponentPad*%
%ADD16C,2.200000*%
%TD*%
%TA.AperFunction,SMDPad,CuDef*%
%ADD17R,0.900000X1.500000*%
%TD*%
%TA.AperFunction,SMDPad,CuDef*%
%ADD18RoundRect,0.237500X0.300000X0.237500X-0.300000X0.237500X-0.300000X-0.237500X0.300000X-0.237500X0*%
%TD*%
%TA.AperFunction,SMDPad,CuDef*%
%ADD19RoundRect,0.237500X0.237500X-0.300000X0.237500X0.300000X-0.237500X0.300000X-0.237500X-0.300000X0*%
%TD*%
%TA.AperFunction,SMDPad,CuDef*%
%ADD20RoundRect,0.237500X-0.237500X0.300000X-0.237500X-0.300000X0.237500X-0.300000X0.237500X0.300000X0*%
%TD*%
%TA.AperFunction,SMDPad,CuDef*%
%ADD21R,2.000000X1.500000*%
%TD*%
%TA.AperFunction,SMDPad,CuDef*%
%ADD22R,2.000000X3.800000*%
%TD*%
%TA.AperFunction,SMDPad,CuDef*%
%ADD23RoundRect,0.150000X0.587500X0.150000X-0.587500X0.150000X-0.587500X-0.150000X0.587500X-0.150000X0*%
%TD*%
%TA.AperFunction,SMDPad,CuDef*%
%ADD24RoundRect,0.250000X1.500000X0.550000X-1.500000X0.550000X-1.500000X-0.550000X1.500000X-0.550000X0*%
%TD*%
%TA.AperFunction,SMDPad,CuDef*%
%ADD25R,0.600000X0.400000*%
%TD*%
%TA.AperFunction,SMDPad,CuDef*%
%ADD26RoundRect,0.040000X-0.040000X-0.210000X0.040000X-0.210000X0.040000X0.210000X-0.040000X0.210000X0*%
%TD*%
%TA.AperFunction,SMDPad,CuDef*%
%ADD27RoundRect,0.237500X-0.250000X-0.237500X0.250000X-0.237500X0.250000X0.237500X-0.250000X0.237500X0*%
%TD*%
%TA.AperFunction,ComponentPad*%
%ADD28C,0.700000*%
%TD*%
%TA.AperFunction,SMDPad,CuDef*%
%ADD29R,0.600000X1.300000*%
%TD*%
%TA.AperFunction,SMDPad,CuDef*%
%ADD30R,0.300000X1.300000*%
%TD*%
%TA.AperFunction,ComponentPad*%
%ADD31O,1.200000X1.800000*%
%TD*%
%TA.AperFunction,ComponentPad*%
%ADD32O,1.200000X2.200000*%
%TD*%
%TA.AperFunction,SMDPad,CuDef*%
%ADD33RoundRect,0.237500X-0.287500X-0.237500X0.287500X-0.237500X0.287500X0.237500X-0.287500X0.237500X0*%
%TD*%
%TA.AperFunction,SMDPad,CuDef*%
%ADD34R,0.600000X1.200000*%
%TD*%
%TA.AperFunction,SMDPad,CuDef*%
%ADD35R,3.499873X2.500000*%
%TD*%
%TA.AperFunction,SMDPad,CuDef*%
%ADD36R,1.400000X2.400000*%
%TD*%
%TA.AperFunction,ComponentPad*%
%ADD37C,1.800000*%
%TD*%
%TA.AperFunction,ComponentPad*%
%ADD38O,1.600000X3.000000*%
%TD*%
%TA.AperFunction,ComponentPad*%
%ADD39O,3.200000X1.600000*%
%TD*%
%TA.AperFunction,ComponentPad*%
%ADD40C,2.300000*%
%TD*%
%TA.AperFunction,SMDPad,CuDef*%
%ADD41RoundRect,0.237500X0.250000X0.237500X-0.250000X0.237500X-0.250000X-0.237500X0.250000X-0.237500X0*%
%TD*%
%TA.AperFunction,SMDPad,CuDef*%
%ADD42RoundRect,0.150000X0.150000X-0.587500X0.150000X0.587500X-0.150000X0.587500X-0.150000X-0.587500X0*%
%TD*%
%TA.AperFunction,SMDPad,CuDef*%
%ADD43RoundRect,0.237500X-0.300000X-0.237500X0.300000X-0.237500X0.300000X0.237500X-0.300000X0.237500X0*%
%TD*%
%TA.AperFunction,SMDPad,CuDef*%
%ADD44RoundRect,0.237500X0.287500X0.237500X-0.287500X0.237500X-0.287500X-0.237500X0.287500X-0.237500X0*%
%TD*%
%TA.AperFunction,ComponentPad*%
%ADD45R,1.600000X1.600000*%
%TD*%
%TA.AperFunction,ComponentPad*%
%ADD46C,1.600000*%
%TD*%
%TA.AperFunction,SMDPad,CuDef*%
%ADD47R,1.800000X0.700000*%
%TD*%
%TA.AperFunction,SMDPad,CuDef*%
%ADD48R,0.250000X0.900000*%
%TD*%
%TA.AperFunction,SMDPad,CuDef*%
%ADD49R,0.900000X0.250000*%
%TD*%
%TA.AperFunction,SMDPad,CuDef*%
%ADD50R,3.250000X3.250000*%
%TD*%
%TA.AperFunction,SMDPad,CuDef*%
%ADD51R,1.200000X0.600000*%
%TD*%
%TA.AperFunction,SMDPad,CuDef*%
%ADD52R,2.500000X3.499873*%
%TD*%
%TA.AperFunction,SMDPad,CuDef*%
%ADD53R,1.676400X0.355600*%
%TD*%
%TA.AperFunction,SMDPad,CuDef*%
%ADD54R,1.000000X0.550013*%
%TD*%
%TA.AperFunction,SMDPad,CuDef*%
%ADD55R,0.900000X2.000000*%
%TD*%
%TA.AperFunction,SMDPad,CuDef*%
%ADD56R,2.000000X0.900000*%
%TD*%
%TA.AperFunction,SMDPad,CuDef*%
%ADD57R,1.330000X1.330000*%
%TD*%
%TA.AperFunction,ComponentPad*%
%ADD58C,0.300000*%
%TD*%
%TA.AperFunction,SMDPad,CuDef*%
%ADD59R,0.532004X1.072009*%
%TD*%
%TA.AperFunction,SMDPad,CuDef*%
%ADD60R,3.000000X2.100000*%
%TD*%
%TA.AperFunction,SMDPad,CuDef*%
%ADD61R,1.600000X0.800000*%
%TD*%
%TA.AperFunction,ComponentPad*%
%ADD62R,1.700000X1.700000*%
%TD*%
%TA.AperFunction,ComponentPad*%
%ADD63O,1.700000X1.700000*%
%TD*%
G04 APERTURE END LIST*
D10*
%TO.C,MK1*%
X108498000Y-78587600D02*
G75*
G03*
X108498000Y-78587600I-675000J0D01*
G01*
%TD*%
D11*
%TO.P,Q6,1,G*%
%TO.N,RECEIVER 5V*%
X130185200Y-90375500D03*
%TO.P,Q6,2,S*%
%TO.N,IO16{slash}LED1*%
X128285200Y-90375500D03*
%TO.P,Q6,3,D*%
%TO.N,LED1 DATA IN*%
X129235200Y-92250500D03*
%TD*%
D12*
%TO.P,D1,1,K*%
%TO.N,+5V*%
X109830900Y-98882200D03*
%TO.P,D1,2,A*%
%TO.N,USB-C 5V*%
X113830900Y-98882200D03*
%TD*%
D13*
%TO.P,R17,1*%
%TO.N,RTS*%
X104927400Y-76608300D03*
%TO.P,R17,2*%
%TO.N,Net-(Q2-Pad1)*%
X104927400Y-78433300D03*
%TD*%
D14*
%TO.P,R7,1*%
%TO.N,Net-(R7-Pad1)*%
X121869200Y-55954300D03*
%TO.P,R7,2*%
%TO.N,LED2 DATA OUT*%
X121869200Y-54129300D03*
%TD*%
D15*
%TO.P,P1,1,1*%
%TO.N,+5V*%
X104338608Y-55487450D03*
D16*
%TO.P,P1,2,2*%
%TO.N,LED1 DATA OUT*%
X100528600Y-55487450D03*
%TO.P,P1,3,3*%
%TO.N,GND*%
X96718592Y-55487450D03*
%TD*%
D17*
%TO.P,SW2,1,1*%
%TO.N,GND*%
X100013200Y-108056600D03*
X100013200Y-111856600D03*
%TO.P,SW2,2,2*%
%TO.N,RESET*%
X98513200Y-111856600D03*
X98513200Y-108056600D03*
%TD*%
D18*
%TO.P,C21,1*%
%TO.N,-BATT*%
X125449500Y-73964800D03*
%TO.P,C21,2*%
%TO.N,+BATT*%
X123724500Y-73964800D03*
%TD*%
%TO.P,C19,1*%
%TO.N,GND*%
X107950000Y-80735600D03*
%TO.P,C19,2*%
%TO.N,+3V3*%
X106225000Y-80735600D03*
%TD*%
D19*
%TO.P,C12,1*%
%TO.N,+5V*%
X121526300Y-101446500D03*
%TO.P,C12,2*%
%TO.N,GND*%
X121526300Y-99721500D03*
%TD*%
D20*
%TO.P,C13,1*%
%TO.N,+BATT*%
X125699394Y-76673242D03*
%TO.P,C13,2*%
%TO.N,GND*%
X125699394Y-78398242D03*
%TD*%
D21*
%TO.P,U6,1,GND*%
%TO.N,GND*%
X108179000Y-89371200D03*
%TO.P,U6,2,Vout*%
%TO.N,Net-(C17-Pad2)*%
X108179000Y-87071200D03*
%TO.P,U6,3,Vin*%
%TO.N,+5V*%
X108179000Y-84771200D03*
D22*
%TO.P,U6,4,Vout*%
%TO.N,Net-(C17-Pad2)*%
X101879000Y-87071200D03*
%TD*%
D19*
%TO.P,C2,1*%
%TO.N,GND*%
X146329400Y-95248900D03*
%TO.P,C2,2*%
%TO.N,Net-(C2-Pad2)*%
X146329400Y-93523900D03*
%TD*%
D23*
%TO.P,Q3,1*%
%TO.N,Net-(Q3-Pad1)*%
X103070900Y-75600600D03*
%TO.P,Q3,2*%
%TO.N,RESET*%
X103070900Y-73700600D03*
%TO.P,Q3,3*%
%TO.N,RTS*%
X101195900Y-74650600D03*
%TD*%
D15*
%TO.P,P2,1,1*%
%TO.N,+5V*%
X118572608Y-55487450D03*
D16*
%TO.P,P2,2,2*%
%TO.N,LED2 DATA OUT*%
X114762600Y-55487450D03*
%TO.P,P2,3,3*%
%TO.N,GND*%
X110952592Y-55487450D03*
%TD*%
D15*
%TO.P,P4,1,1*%
%TO.N,+5V*%
X147040608Y-55487450D03*
D16*
%TO.P,P4,2,2*%
%TO.N,LED4 DATA OUT*%
X143230600Y-55487450D03*
%TO.P,P4,3,3*%
%TO.N,GND*%
X139420592Y-55487450D03*
%TD*%
D23*
%TO.P,Q4,1,G*%
%TO.N,Net-(Q4-Pad1)*%
X146885900Y-112659200D03*
%TO.P,Q4,2,S*%
%TO.N,+BATT*%
X146885900Y-110759200D03*
%TO.P,Q4,3,D*%
%TO.N,POWER_EN*%
X145010900Y-111709200D03*
%TD*%
D14*
%TO.P,R8,1*%
%TO.N,LED4 DATA OUT*%
X150037800Y-56284500D03*
%TO.P,R8,2*%
%TO.N,Net-(R8-Pad2)*%
X150037800Y-54459500D03*
%TD*%
D15*
%TO.P,P3,1,1*%
%TO.N,+5V*%
X132806608Y-55487450D03*
D16*
%TO.P,P3,2,2*%
%TO.N,LED3 DATA OUT*%
X128996600Y-55487450D03*
%TO.P,P3,3,3*%
%TO.N,GND*%
X125186592Y-55487450D03*
%TD*%
D24*
%TO.P,C7,1*%
%TO.N,+5V*%
X117684200Y-61061600D03*
%TO.P,C7,2*%
%TO.N,GND*%
X112084200Y-61061600D03*
%TD*%
D25*
%TO.P,MK1,1,LR*%
%TO.N,GND*%
X106748000Y-76012600D03*
%TO.P,MK1,2,CONFIG*%
X106748000Y-76662600D03*
%TO.P,MK1,3,VDD*%
%TO.N,+3V3*%
X106748000Y-77312600D03*
D26*
%TO.P,MK1,4,GND*%
%TO.N,GND*%
X107823000Y-79389400D03*
D25*
%TO.P,MK1,5,WS*%
%TO.N,IO15{slash}WS*%
X108898000Y-77312600D03*
%TO.P,MK1,6,SCK*%
%TO.N,IO14{slash}SCK*%
X108898000Y-76662600D03*
%TO.P,MK1,7,SD*%
%TO.N,IO32{slash}SD*%
X108898000Y-76012600D03*
%TD*%
D11*
%TO.P,Q7,1,G*%
%TO.N,RECEIVER 5V*%
X137127866Y-90375500D03*
%TO.P,Q7,2,S*%
%TO.N,IO18{slash}LED3*%
X135227866Y-90375500D03*
%TO.P,Q7,3,D*%
%TO.N,LED1 DATA IN*%
X136177866Y-92250500D03*
%TD*%
D17*
%TO.P,SW3,1,1*%
%TO.N,GND*%
X94748300Y-108061200D03*
X94748300Y-111861200D03*
%TO.P,SW3,2,2*%
%TO.N,IO33{slash}TESTBUTTON*%
X93248300Y-108061200D03*
X93248300Y-111861200D03*
%TD*%
D27*
%TO.P,R19,1*%
%TO.N,IO35*%
X137619100Y-67614800D03*
%TO.P,R19,2*%
%TO.N,Net-(D5-Pad2)*%
X139444100Y-67614800D03*
%TD*%
D28*
%TO.P,USB1,*%
%TO.N,*%
X123844800Y-108062100D03*
X118064800Y-108062100D03*
D29*
%TO.P,USB1,A1B12,GND*%
%TO.N,GND*%
X117754800Y-106822100D03*
%TO.P,USB1,A4B9,VBUS*%
%TO.N,USB-C 5V*%
X118554800Y-106822100D03*
D30*
%TO.P,USB1,A5,CC1*%
%TO.N,USB-C CC1*%
X119704800Y-106822100D03*
%TO.P,USB1,A6,DP1*%
%TO.N,USB-C DATA+*%
X120704800Y-106822100D03*
%TO.P,USB1,A7,DN1*%
%TO.N,USB-C DATA-*%
X121204800Y-106822100D03*
%TO.P,USB1,A8,SBU1*%
%TO.N,unconnected-(USB1-PadA8)*%
X122204800Y-106822100D03*
D29*
%TO.P,USB1,B1A12,GND*%
%TO.N,GND*%
X124154800Y-106822100D03*
%TO.P,USB1,B4A9,VBUS*%
%TO.N,USB-C 5V*%
X123354800Y-106822100D03*
D30*
%TO.P,USB1,B5,CC2*%
%TO.N,USB-C CC2*%
X122704800Y-106822100D03*
%TO.P,USB1,B6,DP2*%
%TO.N,USB-C DATA+*%
X121704800Y-106822100D03*
%TO.P,USB1,B7,DN2*%
%TO.N,USB-C DATA-*%
X120204800Y-106822100D03*
%TO.P,USB1,B8,SBU2*%
%TO.N,unconnected-(USB1-PadB8)*%
X119204800Y-106822100D03*
D31*
%TO.P,USB1,SHELL,SHELL*%
%TO.N,GND*%
X116634800Y-111742100D03*
X125274800Y-111742100D03*
D32*
X125274800Y-107562100D03*
X116634800Y-107562100D03*
%TD*%
D14*
%TO.P,R6,1*%
%TO.N,Net-(R6-Pad1)*%
X107670600Y-56057800D03*
%TO.P,R6,2*%
%TO.N,LED1 DATA OUT*%
X107670600Y-54232800D03*
%TD*%
D33*
%TO.P,D3,1,K*%
%TO.N,Net-(D3-Pad1)*%
X144540000Y-90220800D03*
%TO.P,D3,2,A*%
%TO.N,Net-(C2-Pad2)*%
X146290000Y-90220800D03*
%TD*%
D34*
%TO.P,U4,1,TEMP*%
%TO.N,GND*%
X120263790Y-82069648D03*
%TO.P,U4,2,PROG*%
%TO.N,Net-(R14-Pad1)*%
X121533793Y-82069648D03*
%TO.P,U4,3,GND*%
%TO.N,GND*%
X122803795Y-82069648D03*
%TO.P,U4,4,VCC*%
%TO.N,Net-(C2-Pad2)*%
X124073798Y-82069648D03*
%TO.P,U4,5,BAT*%
%TO.N,+BATT*%
X124073798Y-76253036D03*
%TO.P,U4,6,STDBY#*%
%TO.N,Net-(R3-Pad1)*%
X122803795Y-76253036D03*
%TO.P,U4,7,CHRG#*%
%TO.N,Net-(R4-Pad1)*%
X121533793Y-76253036D03*
%TO.P,U4,8,CE*%
%TO.N,Net-(C2-Pad2)*%
X120263790Y-76253036D03*
D35*
%TO.P,U4,9,EP*%
%TO.N,GND*%
X122168794Y-79161342D03*
%TD*%
D11*
%TO.P,Q8,1,G*%
%TO.N,RECEIVER 5V*%
X133656533Y-90375500D03*
%TO.P,Q8,2,S*%
%TO.N,IO17{slash}LED2*%
X131756533Y-90375500D03*
%TO.P,Q8,3,D*%
%TO.N,LED1 DATA IN*%
X132706533Y-92250500D03*
%TD*%
D18*
%TO.P,C17,1*%
%TO.N,GND*%
X104850100Y-82702400D03*
%TO.P,C17,2*%
%TO.N,Net-(C17-Pad2)*%
X103125100Y-82702400D03*
%TD*%
D19*
%TO.P,C20,1*%
%TO.N,+3V3*%
X121843800Y-87198200D03*
%TO.P,C20,2*%
%TO.N,GND*%
X121843800Y-85473200D03*
%TD*%
D36*
%TO.P,L1,1,1*%
%TO.N,+BATT*%
X139191800Y-98856800D03*
%TO.P,L1,2,2*%
%TO.N,Net-(L1-Pad2)*%
X135991800Y-98856800D03*
%TD*%
D37*
%TO.P,J1,*%
%TO.N,*%
X106798800Y-112137100D03*
D38*
%TO.P,J1,1*%
%TO.N,GND*%
X111648800Y-104687100D03*
X101948800Y-104687100D03*
X111648800Y-109387100D03*
X101948800Y-109387100D03*
D39*
%TO.P,J1,2*%
%TO.N,N/C*%
X106798800Y-108887100D03*
D40*
%TO.P,J1,3*%
%TO.N,+5V*%
X106798800Y-101187100D03*
%TD*%
D41*
%TO.P,R18,1*%
%TO.N,DTR*%
X99159700Y-78994000D03*
%TO.P,R18,2*%
%TO.N,Net-(Q3-Pad1)*%
X97334700Y-78994000D03*
%TD*%
%TO.P,R16,1*%
%TO.N,IO32{slash}SD*%
X108711200Y-74639600D03*
%TO.P,R16,2*%
%TO.N,GND*%
X106886200Y-74639600D03*
%TD*%
D27*
%TO.P,R20,1*%
%TO.N,RESET*%
X98096700Y-103835200D03*
%TO.P,R20,2*%
%TO.N,+3V3*%
X99921700Y-103835200D03*
%TD*%
%TO.P,R22,1*%
%TO.N,Net-(R22-Pad1)*%
X120095000Y-73964800D03*
%TO.P,R22,2*%
%TO.N,+BATT*%
X121920000Y-73964800D03*
%TD*%
D42*
%TO.P,Q5,1,G*%
%TO.N,RECEIVER 5V*%
X99253000Y-83157300D03*
%TO.P,Q5,2,S*%
%TO.N,Net-(C17-Pad2)*%
X101153000Y-83157300D03*
%TO.P,Q5,3,D*%
%TO.N,+3V3*%
X100203000Y-81282300D03*
%TD*%
D24*
%TO.P,C9,1*%
%TO.N,+5V*%
X103231600Y-61112400D03*
%TO.P,C9,2*%
%TO.N,GND*%
X97631600Y-61112400D03*
%TD*%
D33*
%TO.P,D2,1,K*%
%TO.N,Net-(D2-Pad1)*%
X144551400Y-91871800D03*
%TO.P,D2,2,A*%
%TO.N,Net-(C2-Pad2)*%
X146301400Y-91871800D03*
%TD*%
D14*
%TO.P,R4,1*%
%TO.N,Net-(R4-Pad1)*%
X142849600Y-91971500D03*
%TO.P,R4,2*%
%TO.N,Net-(D3-Pad1)*%
X142849600Y-90146500D03*
%TD*%
%TO.P,R5,1*%
%TO.N,+5V*%
X126517400Y-101496500D03*
%TO.P,R5,2*%
%TO.N,Net-(R10-Pad1)*%
X126517400Y-99671500D03*
%TD*%
D23*
%TO.P,Q1,1,G*%
%TO.N,Net-(Q1-Pad1)*%
X147012900Y-102880200D03*
%TO.P,Q1,2,S*%
%TO.N,USB-C 5V*%
X147012900Y-100980200D03*
%TO.P,Q1,3,D*%
%TO.N,+5V*%
X145137900Y-101930200D03*
%TD*%
D14*
%TO.P,R3,1*%
%TO.N,Net-(R3-Pad1)*%
X144475200Y-95298900D03*
%TO.P,R3,2*%
%TO.N,Net-(D2-Pad1)*%
X144475200Y-93473900D03*
%TD*%
D43*
%TO.P,C16,1*%
%TO.N,GND*%
X106935100Y-82702400D03*
%TO.P,C16,2*%
%TO.N,+5V*%
X108660100Y-82702400D03*
%TD*%
D20*
%TO.P,C3,1*%
%TO.N,+BATT*%
X142348100Y-98527700D03*
%TO.P,C3,2*%
%TO.N,GND*%
X142348100Y-100252700D03*
%TD*%
D44*
%TO.P,D5,1,K*%
%TO.N,GND*%
X142886400Y-67614800D03*
%TO.P,D5,2,A*%
%TO.N,Net-(D5-Pad2)*%
X141136400Y-67614800D03*
%TD*%
D20*
%TO.P,C15,1*%
%TO.N,GND*%
X123342400Y-85473200D03*
%TO.P,C15,2*%
%TO.N,+3V3*%
X123342400Y-87198200D03*
%TD*%
D45*
%TO.P,RJ1,1,1*%
%TO.N,unconnected-(RJ1-Pad1)*%
X138995251Y-103790120D03*
D46*
%TO.P,RJ1,2,2*%
%TO.N,RECEIVER 5V*%
X137975185Y-106330125D03*
%TO.P,RJ1,3,3*%
%TO.N,LED1 DATA IN*%
X136955119Y-103790120D03*
%TO.P,RJ1,4,4*%
%TO.N,GND*%
X135935307Y-106330125D03*
%TO.P,RJ1,5,5*%
%TO.N,unconnected-(RJ1-Pad5)*%
X134915241Y-103790120D03*
%TO.P,RJ1,6,6*%
%TO.N,unconnected-(RJ1-Pad6)*%
X133895175Y-106330125D03*
%TD*%
D47*
%TO.P,SW1,1,A*%
%TO.N,USB-C 5V*%
X147063936Y-109332451D03*
%TO.P,SW1,2,B*%
%TO.N,Net-(Q1-Pad1)*%
X147063936Y-106832324D03*
%TO.P,SW1,3,C*%
%TO.N,GND*%
X147063936Y-104332451D03*
%TO.P,SW1,4,A*%
%TO.N,+BATT*%
X153164064Y-109332451D03*
%TO.P,SW1,5,B*%
%TO.N,Net-(Q4-Pad1)*%
X153164064Y-106832324D03*
%TO.P,SW1,6,C*%
%TO.N,USB-C 5V*%
X153164064Y-104332451D03*
%TD*%
D13*
%TO.P,R9,1*%
%TO.N,LED3 DATA OUT*%
X136067800Y-54182000D03*
%TO.P,R9,2*%
%TO.N,Net-(R9-Pad2)*%
X136067800Y-56007000D03*
%TD*%
D11*
%TO.P,Q9,1,G*%
%TO.N,RECEIVER 5V*%
X140599200Y-90375500D03*
%TO.P,Q9,2,S*%
%TO.N,IO19{slash}LED4*%
X138699200Y-90375500D03*
%TO.P,Q9,3,D*%
%TO.N,LED1 DATA IN*%
X139649200Y-92250500D03*
%TD*%
D48*
%TO.P,U5,1,DCD*%
%TO.N,unconnected-(U5-Pad1)*%
X123411100Y-89213987D03*
%TO.P,U5,2,RI*%
%TO.N,unconnected-(U5-Pad2)*%
X122911100Y-89213987D03*
%TO.P,U5,3,GND*%
%TO.N,GND*%
X122411100Y-89213987D03*
%TO.P,U5,4,D+*%
%TO.N,USB-C DATA+*%
X121911100Y-89213987D03*
%TO.P,U5,5,D-*%
%TO.N,USB-C DATA-*%
X121411101Y-89213987D03*
%TO.P,U5,6,VDD*%
%TO.N,+3V3*%
X120911101Y-89213987D03*
%TO.P,U5,7,REGIN*%
X120411101Y-89213987D03*
D49*
%TO.P,U5,8,VBUS*%
%TO.N,USB-C 5V*%
X119511087Y-90114001D03*
%TO.P,U5,9,~{RST}*%
%TO.N,unconnected-(U5-Pad9)*%
X119511087Y-90614001D03*
%TO.P,U5,10,NC*%
%TO.N,unconnected-(U5-Pad10)*%
X119511087Y-91114001D03*
%TO.P,U5,11,~{SUSPEND}*%
%TO.N,unconnected-(U5-Pad11)*%
X119511087Y-91614001D03*
%TO.P,U5,12,SUSPEND*%
%TO.N,unconnected-(U5-Pad12)*%
X119511087Y-92114000D03*
%TO.P,U5,13,NC*%
%TO.N,unconnected-(U5-Pad13)*%
X119511087Y-92614000D03*
%TO.P,U5,14,NC*%
%TO.N,unconnected-(U5-Pad14)*%
X119511087Y-93114000D03*
D48*
%TO.P,U5,15,NC*%
%TO.N,unconnected-(U5-Pad15)*%
X120411101Y-94014014D03*
%TO.P,U5,16,NC*%
%TO.N,unconnected-(U5-Pad16)*%
X120911101Y-94014014D03*
%TO.P,U5,17,NC*%
%TO.N,unconnected-(U5-Pad17)*%
X121411101Y-94014014D03*
%TO.P,U5,18,NC*%
%TO.N,unconnected-(U5-Pad18)*%
X121911100Y-94014014D03*
%TO.P,U5,19,NC*%
%TO.N,unconnected-(U5-Pad19)*%
X122411100Y-94014014D03*
%TO.P,U5,20,NC*%
%TO.N,unconnected-(U5-Pad20)*%
X122911100Y-94014014D03*
%TO.P,U5,21,NC*%
%TO.N,unconnected-(U5-Pad21)*%
X123411100Y-94014014D03*
D49*
%TO.P,U5,22,NC*%
%TO.N,unconnected-(U5-Pad22)*%
X124311114Y-93114000D03*
%TO.P,U5,23,CTS*%
%TO.N,unconnected-(U5-Pad23)*%
X124311114Y-92614000D03*
%TO.P,U5,24,RTS*%
%TO.N,RTS*%
X124311114Y-92114000D03*
%TO.P,U5,25,RXD*%
%TO.N,TXD0*%
X124311114Y-91614001D03*
%TO.P,U5,26,TXD*%
%TO.N,RXD0*%
X124311114Y-91114001D03*
%TO.P,U5,27,DSR*%
%TO.N,unconnected-(U5-Pad27)*%
X124311114Y-90614001D03*
%TO.P,U5,28,DTR*%
%TO.N,DTR*%
X124311114Y-90114001D03*
D50*
%TO.P,U5,29,GND_PAD*%
%TO.N,GND*%
X121911101Y-91614000D03*
%TD*%
D24*
%TO.P,C6,1*%
%TO.N,+5V*%
X146716400Y-60909200D03*
%TO.P,C6,2*%
%TO.N,GND*%
X141116400Y-60909200D03*
%TD*%
D27*
%TO.P,R21,1*%
%TO.N,GND*%
X121542201Y-68499692D03*
%TO.P,R21,2*%
%TO.N,Net-(R21-Pad2)*%
X123367201Y-68499692D03*
%TD*%
D14*
%TO.P,R10,1*%
%TO.N,Net-(R10-Pad1)*%
X126492000Y-97965900D03*
%TO.P,R10,2*%
%TO.N,GND*%
X126492000Y-96140900D03*
%TD*%
D51*
%TO.P,U1,1,LX*%
%TO.N,Net-(L1-Pad2)*%
X133921506Y-100914204D03*
%TO.P,U1,2,LX*%
X133921506Y-99644201D03*
%TO.P,U1,3,VIN*%
%TO.N,+BATT*%
X133921506Y-98374199D03*
%TO.P,U1,4,EN*%
%TO.N,POWER_EN*%
X133921506Y-97104196D03*
%TO.P,U1,5,GND*%
%TO.N,GND*%
X128104894Y-97104196D03*
%TO.P,U1,6,FB*%
%TO.N,Net-(R10-Pad1)*%
X128104894Y-98374199D03*
%TO.P,U1,7,VOUT*%
%TO.N,+5V*%
X128104894Y-99644201D03*
%TO.P,U1,8,VOUT*%
X128104894Y-100914204D03*
D52*
%TO.P,U1,9,EP*%
%TO.N,GND*%
X131013200Y-99009200D03*
%TD*%
D24*
%TO.P,C8,1*%
%TO.N,+5V*%
X132263800Y-61137800D03*
%TO.P,C8,2*%
%TO.N,GND*%
X126663800Y-61137800D03*
%TD*%
D53*
%TO.P,U3,1,1A*%
%TO.N,LED1 DATA IN*%
X107035600Y-69945801D03*
%TO.P,U3,2,1B*%
%TO.N,GND*%
X107035600Y-69295800D03*
%TO.P,U3,3,1Y*%
%TO.N,Net-(R6-Pad1)*%
X107035600Y-68645799D03*
%TO.P,U3,4,2A*%
%TO.N,LED1 DATA IN*%
X107035600Y-67995800D03*
%TO.P,U3,5,2B*%
%TO.N,GND*%
X107035600Y-67345801D03*
%TO.P,U3,6,2Y*%
%TO.N,Net-(R7-Pad1)*%
X107035600Y-66695800D03*
%TO.P,U3,7,GND*%
%TO.N,GND*%
X107035600Y-66045801D03*
%TO.P,U3,8,3Y*%
%TO.N,Net-(R9-Pad2)*%
X101396800Y-66045799D03*
%TO.P,U3,9,3A*%
%TO.N,LED1 DATA IN*%
X101396800Y-66695800D03*
%TO.P,U3,10,3B*%
%TO.N,GND*%
X101396800Y-67345799D03*
%TO.P,U3,11,4Y*%
%TO.N,Net-(R8-Pad2)*%
X101396800Y-67995800D03*
%TO.P,U3,12,4A*%
%TO.N,LED1 DATA IN*%
X101396800Y-68645799D03*
%TO.P,U3,13,4B*%
%TO.N,GND*%
X101396800Y-69295800D03*
%TO.P,U3,14,VCC*%
%TO.N,+5V*%
X101396800Y-69945799D03*
%TD*%
D19*
%TO.P,C10,1*%
%TO.N,+5V*%
X124853700Y-101446500D03*
%TO.P,C10,2*%
%TO.N,GND*%
X124853700Y-99721500D03*
%TD*%
D20*
%TO.P,C1,1*%
%TO.N,+BATT*%
X140849500Y-98526600D03*
%TO.P,C1,2*%
%TO.N,GND*%
X140849500Y-100251600D03*
%TD*%
D54*
%TO.P,U9,1,S1*%
%TO.N,GND*%
X123904251Y-72235316D03*
%TO.P,U9,2,D1/D2*%
%TO.N,unconnected-(U9-Pad2)*%
X123904251Y-71285354D03*
%TO.P,U9,3,S2*%
%TO.N,-BATT*%
X123904251Y-70335392D03*
%TO.P,U9,4,G2*%
%TO.N,Net-(U10-Pad3)*%
X121104149Y-70335392D03*
%TO.P,U9,5,D1/D2*%
%TO.N,unconnected-(U9-Pad5)*%
X121104149Y-71285354D03*
%TO.P,U9,6,G1*%
%TO.N,Net-(U10-Pad1)*%
X121104149Y-72235316D03*
%TD*%
D19*
%TO.P,C11,1*%
%TO.N,+5V*%
X123190000Y-101446500D03*
%TO.P,C11,2*%
%TO.N,GND*%
X123190000Y-99721500D03*
%TD*%
D43*
%TO.P,C5,1*%
%TO.N,+3V3*%
X144780000Y-67614800D03*
%TO.P,C5,2*%
%TO.N,GND*%
X146505000Y-67614800D03*
%TD*%
D23*
%TO.P,Q2,1*%
%TO.N,Net-(Q2-Pad1)*%
X103070900Y-79080400D03*
%TO.P,Q2,2*%
%TO.N,DTR*%
X103070900Y-77180400D03*
%TO.P,Q2,3*%
%TO.N,IO0*%
X101195900Y-78130400D03*
%TD*%
D18*
%TO.P,C18,1*%
%TO.N,GND*%
X99922500Y-105587800D03*
%TO.P,C18,2*%
%TO.N,RESET*%
X98197500Y-105587800D03*
%TD*%
D55*
%TO.P,U2,1,GND*%
%TO.N,GND*%
X146653250Y-70256800D03*
%TO.P,U2,2,3V3*%
%TO.N,+3V3*%
X145383250Y-70256800D03*
%TO.P,U2,3,EN*%
%TO.N,RESET*%
X144113250Y-70256800D03*
%TO.P,U2,4,SENSOR_VP*%
%TO.N,IO36{slash}A4{slash}SENSOR_VP*%
X142843250Y-70256800D03*
%TO.P,U2,5,SENSOR_VN*%
%TO.N,I39{slash}A3{slash}SENSOR_VN*%
X141573250Y-70256800D03*
%TO.P,U2,6,IO34*%
%TO.N,I34{slash}A2*%
X140303250Y-70256800D03*
%TO.P,U2,7,IO35*%
%TO.N,IO35*%
X139033250Y-70256800D03*
%TO.P,U2,8,IO32*%
%TO.N,IO32{slash}SD*%
X137763250Y-70256800D03*
%TO.P,U2,9,IO33*%
%TO.N,IO33{slash}TESTBUTTON*%
X136493250Y-70256800D03*
%TO.P,U2,10,IO25*%
%TO.N,IO25{slash}A1{slash}DAC1*%
X135223250Y-70256800D03*
%TO.P,U2,11,IO26*%
%TO.N,IO26{slash}A0{slash}DAC2*%
X133953250Y-70256800D03*
%TO.P,U2,12,IO27*%
%TO.N,IO27*%
X132683250Y-70256800D03*
%TO.P,U2,13,IO14*%
%TO.N,IO14{slash}SCK*%
X131413250Y-70256800D03*
%TO.P,U2,14,IO12*%
%TO.N,IO12{slash}MISO*%
X130143250Y-70256800D03*
D56*
%TO.P,U2,15,GND*%
%TO.N,GND*%
X129143250Y-73041800D03*
%TO.P,U2,16,IO13*%
%TO.N,IO13{slash}MOSI*%
X129143250Y-74311800D03*
%TO.P,U2,17,NC*%
%TO.N,unconnected-(U2-Pad17)*%
X129143250Y-75581800D03*
%TO.P,U2,18,NC*%
%TO.N,unconnected-(U2-Pad18)*%
X129143250Y-76851800D03*
%TO.P,U2,19,NC*%
%TO.N,unconnected-(U2-Pad19)*%
X129143250Y-78121800D03*
%TO.P,U2,20,NC*%
%TO.N,unconnected-(U2-Pad20)*%
X129143250Y-79391800D03*
%TO.P,U2,21,NC*%
%TO.N,unconnected-(U2-Pad21)*%
X129143250Y-80661800D03*
%TO.P,U2,22,NC*%
%TO.N,unconnected-(U2-Pad22)*%
X129143250Y-81931800D03*
%TO.P,U2,23,IO15*%
%TO.N,IO15{slash}WS*%
X129143250Y-83201800D03*
%TO.P,U2,24,IO2*%
%TO.N,IO2*%
X129143250Y-84471800D03*
D55*
%TO.P,U2,25,IO0*%
%TO.N,IO0*%
X130143250Y-87256800D03*
%TO.P,U2,26,IO4*%
%TO.N,IO4{slash}A5*%
X131413250Y-87256800D03*
%TO.P,U2,27,IO16*%
%TO.N,IO16{slash}LED1*%
X132683250Y-87256800D03*
%TO.P,U2,28,IO17*%
%TO.N,IO17{slash}LED2*%
X133953250Y-87256800D03*
%TO.P,U2,29,IO5*%
%TO.N,IO5*%
X135223250Y-87256800D03*
%TO.P,U2,30,IO18*%
%TO.N,IO18{slash}LED3*%
X136493250Y-87256800D03*
%TO.P,U2,31,IO19*%
%TO.N,IO19{slash}LED4*%
X137763250Y-87256800D03*
%TO.P,U2,32,NC1*%
%TO.N,unconnected-(U2-Pad32)*%
X139033250Y-87256800D03*
%TO.P,U2,33,IO21*%
%TO.N,IO21*%
X140303250Y-87256800D03*
%TO.P,U2,34,RXD0*%
%TO.N,RXD0*%
X141573250Y-87256800D03*
%TO.P,U2,35,TXD0*%
%TO.N,TXD0*%
X142843250Y-87256800D03*
%TO.P,U2,36,IO22*%
%TO.N,IO22*%
X144113250Y-87256800D03*
%TO.P,U2,37,IO23*%
%TO.N,IO23*%
X145383250Y-87256800D03*
%TO.P,U2,38,GND*%
%TO.N,GND*%
X146653250Y-87256800D03*
D57*
%TO.P,U2,39_1,GND*%
X140988250Y-75921800D03*
%TO.P,U2,39_2,GND*%
X140988250Y-77756800D03*
%TO.P,U2,39_3,GND*%
X140988250Y-79591800D03*
%TO.P,U2,39_4,GND*%
X139153250Y-75921800D03*
%TO.P,U2,39_5,GND*%
X139153250Y-77756800D03*
%TO.P,U2,39_6,GND*%
X139153250Y-79591800D03*
%TO.P,U2,39_7,GND*%
X137318250Y-75921800D03*
%TO.P,U2,39_8,GND*%
X137318250Y-77756800D03*
%TO.P,U2,39_9,GND*%
X137318250Y-79591800D03*
D58*
%TO.P,U2,39_10,GND*%
X140988250Y-76839300D03*
%TO.P,U2,39_11,GND*%
X140988250Y-78674300D03*
%TO.P,U2,39_12,GND*%
X140070750Y-75921800D03*
%TO.P,U2,39_13,GND*%
X140070750Y-77756800D03*
%TO.P,U2,39_14,GND*%
X140070750Y-79591800D03*
%TO.P,U2,39_15,GND*%
X139153250Y-76839300D03*
%TO.P,U2,39_16,GND*%
X139153250Y-78674300D03*
%TO.P,U2,39_17,GND*%
X138235750Y-75921800D03*
%TO.P,U2,39_18,GND*%
X138235750Y-77756800D03*
%TO.P,U2,39_19,GND*%
X138235750Y-79591800D03*
%TO.P,U2,39_20,GND*%
X137318250Y-76839300D03*
%TO.P,U2,39_21,GND*%
X137318250Y-78674300D03*
%TD*%
D18*
%TO.P,C4,1*%
%TO.N,+5V*%
X102792700Y-71678800D03*
%TO.P,C4,2*%
%TO.N,GND*%
X101067700Y-71678800D03*
%TD*%
D27*
%TO.P,R14,1*%
%TO.N,Net-(R14-Pad1)*%
X121307094Y-83631742D03*
%TO.P,R14,2*%
%TO.N,GND*%
X123132094Y-83631742D03*
%TD*%
D14*
%TO.P,R1,1*%
%TO.N,GND*%
X128625600Y-112393100D03*
%TO.P,R1,2*%
%TO.N,USB-C CC1*%
X128625600Y-110568100D03*
%TD*%
D19*
%TO.P,C14,1*%
%TO.N,+5V*%
X119862600Y-101446500D03*
%TO.P,C14,2*%
%TO.N,GND*%
X119862600Y-99721500D03*
%TD*%
D59*
%TO.P,U10,1,OD*%
%TO.N,Net-(U10-Pad1)*%
X121325638Y-66909698D03*
%TO.P,U10,2,VM*%
%TO.N,Net-(R21-Pad2)*%
X122275600Y-66909698D03*
%TO.P,U10,3,OC*%
%TO.N,Net-(U10-Pad3)*%
X123225562Y-66909698D03*
%TO.P,U10,4,TD*%
%TO.N,unconnected-(U10-Pad4)*%
X123225562Y-64611502D03*
%TO.P,U10,5,VCC*%
%TO.N,Net-(R22-Pad1)*%
X122275600Y-64611502D03*
%TO.P,U10,6,GND*%
%TO.N,-BATT*%
X121325638Y-64611502D03*
%TD*%
D14*
%TO.P,R11,1*%
%TO.N,USB-C 5V*%
X147929600Y-95705300D03*
%TO.P,R11,2*%
%TO.N,Net-(C2-Pad2)*%
X147929600Y-93880300D03*
%TD*%
D24*
%TO.P,C22,1*%
%TO.N,+5V*%
X107346400Y-94437200D03*
%TO.P,C22,2*%
%TO.N,GND*%
X101746400Y-94437200D03*
%TD*%
D14*
%TO.P,R2,1*%
%TO.N,GND*%
X126974600Y-112395000D03*
%TO.P,R2,2*%
%TO.N,USB-C CC2*%
X126974600Y-110570000D03*
%TD*%
D60*
%TO.P,U7,0,0*%
%TO.N,unconnected-(U7-Pad0)*%
X152520209Y-94513394D03*
X152520209Y-100863406D03*
D61*
%TO.P,U7,1,1*%
%TO.N,+BATT*%
X149620285Y-98313495D03*
%TO.P,U7,2,2*%
%TO.N,GND*%
X149620285Y-97063305D03*
%TD*%
D62*
%TO.P,JP2,1,1*%
%TO.N,IO21*%
X91846400Y-67081400D03*
D63*
%TO.P,JP2,2,2*%
%TO.N,IO17{slash}LED2*%
X91846400Y-69621400D03*
%TO.P,JP2,3,3*%
%TO.N,IO16{slash}LED1*%
X91846400Y-72161400D03*
%TO.P,JP2,4,4*%
%TO.N,IO19{slash}LED4*%
X91846400Y-74701400D03*
%TO.P,JP2,5,5*%
%TO.N,IO18{slash}LED3*%
X91846400Y-77241400D03*
%TO.P,JP2,6,6*%
%TO.N,IO5*%
X91846400Y-79781400D03*
%TO.P,JP2,7,7*%
%TO.N,IO4{slash}A5*%
X91846400Y-82321400D03*
%TO.P,JP2,8,8*%
%TO.N,IO36{slash}A4{slash}SENSOR_VP*%
X91846400Y-84861400D03*
%TO.P,JP2,9,9*%
%TO.N,I39{slash}A3{slash}SENSOR_VN*%
X91846400Y-87401400D03*
%TO.P,JP2,10,10*%
%TO.N,I34{slash}A2*%
X91846400Y-89941400D03*
%TO.P,JP2,11,11*%
%TO.N,IO25{slash}A1{slash}DAC1*%
X91846400Y-92481400D03*
%TO.P,JP2,12,12*%
%TO.N,IO26{slash}A0{slash}DAC2*%
X91846400Y-95021400D03*
%TO.P,JP2,13,13*%
%TO.N,GND*%
X91846400Y-97561400D03*
%TO.P,JP2,14,14*%
%TO.N,unconnected-(JP2-Pad14)*%
X91846400Y-100101400D03*
%TO.P,JP2,15,15*%
%TO.N,+3V3*%
X91846400Y-102641400D03*
%TO.P,JP2,16,16*%
%TO.N,RESET*%
X91846400Y-105181400D03*
%TD*%
D62*
%TO.P,JP1,1,1*%
%TO.N,+BATT*%
X112166400Y-95021400D03*
D63*
%TO.P,JP1,2,2*%
%TO.N,POWER_EN*%
X112166400Y-92481400D03*
%TO.P,JP1,3,3*%
%TO.N,+5V*%
X112166400Y-89941400D03*
%TO.P,JP1,4,4*%
%TO.N,IO13{slash}MOSI*%
X112166400Y-87401400D03*
%TO.P,JP1,5,5*%
%TO.N,IO12{slash}MISO*%
X112166400Y-84861400D03*
%TO.P,JP1,6,6*%
%TO.N,IO27*%
X112166400Y-82321400D03*
%TO.P,JP1,7,7*%
%TO.N,IO33*%
X112166400Y-79781400D03*
%TO.P,JP1,8,8*%
%TO.N,IO15{slash}WS*%
X112166400Y-77241400D03*
%TO.P,JP1,9,9*%
%TO.N,IO32{slash}SD*%
X112166400Y-74701400D03*
%TO.P,JP1,10,10*%
%TO.N,IO14{slash}SCK*%
X112166400Y-72161400D03*
%TO.P,JP1,11,11*%
%TO.N,IO22*%
X112166400Y-69621400D03*
%TO.P,JP1,12,12*%
%TO.N,IO23*%
X112166400Y-67081400D03*
%TD*%
M02*
