<svg width="865" height="945" viewBox="0 0 865 945" fill="none" xmlns="http://www.w3.org/2000/svg">
<path d="M299.062 497.7C295.515 497.7 292.202 497.07 289.122 495.81C286.042 494.503 283.335 492.707 281.002 490.42C278.669 488.133 276.849 485.473 275.542 482.44C274.282 479.36 273.652 476.047 273.652 472.5C273.652 469 274.282 465.733 275.542 462.7C276.849 459.667 278.645 457.03 280.932 454.79C283.265 452.503 285.972 450.73 289.052 449.47C292.132 448.21 295.445 447.58 298.992 447.58C301.465 447.58 303.869 447.93 306.202 448.63C308.582 449.33 310.729 450.31 312.642 451.57C314.555 452.83 316.119 454.277 317.332 455.91L312.432 461.02C311.032 459.667 309.585 458.547 308.092 457.66C306.645 456.773 305.152 456.097 303.612 455.63C302.072 455.163 300.532 454.93 298.992 454.93C296.472 454.93 294.139 455.373 291.992 456.26C289.892 457.147 288.025 458.383 286.392 459.97C284.805 461.557 283.569 463.423 282.682 465.57C281.795 467.67 281.352 469.98 281.352 472.5C281.352 474.927 281.819 477.237 282.752 479.43C283.685 481.577 284.969 483.467 286.602 485.1C288.282 486.733 290.195 488.017 292.342 488.95C294.535 489.883 296.845 490.35 299.272 490.35C301.092 490.35 302.819 490.093 304.452 489.58C306.085 489.02 307.532 488.25 308.792 487.27C310.052 486.29 311.032 485.17 311.732 483.91C312.432 482.603 312.782 481.227 312.782 479.78V478.38L313.832 479.36H298.852V471.87H320.552C320.645 472.383 320.715 472.897 320.762 473.41C320.809 473.877 320.832 474.343 320.832 474.81C320.879 475.23 320.902 475.65 320.902 476.07C320.902 479.29 320.342 482.23 319.222 484.89C318.102 487.503 316.539 489.767 314.532 491.68C312.572 493.593 310.262 495.087 307.602 496.16C304.989 497.187 302.142 497.7 299.062 497.7ZM329.066 497V445.2H336.276V497H329.066ZM362.331 497.7C358.737 497.7 355.517 496.883 352.671 495.25C349.871 493.57 347.654 491.307 346.021 488.46C344.387 485.567 343.571 482.277 343.571 478.59C343.571 474.903 344.387 471.637 346.021 468.79C347.654 465.897 349.871 463.633 352.671 462C355.517 460.32 358.737 459.48 362.331 459.48C365.877 459.48 369.051 460.32 371.851 462C374.697 463.633 376.937 465.897 378.571 468.79C380.204 471.637 381.021 474.903 381.021 478.59C381.021 482.277 380.204 485.567 378.571 488.46C376.937 491.307 374.697 493.57 371.851 495.25C369.051 496.883 365.877 497.7 362.331 497.7ZM362.331 491.12C364.524 491.12 366.484 490.583 368.211 489.51C369.937 488.39 371.291 486.897 372.271 485.03C373.251 483.117 373.717 480.97 373.671 478.59C373.717 476.163 373.251 474.017 372.271 472.15C371.291 470.237 369.937 468.743 368.211 467.67C366.484 466.597 364.524 466.06 362.331 466.06C360.137 466.06 358.154 466.62 356.381 467.74C354.654 468.813 353.301 470.307 352.321 472.22C351.341 474.087 350.874 476.21 350.921 478.59C350.874 480.97 351.341 483.117 352.321 485.03C353.301 486.897 354.654 488.39 356.381 489.51C358.154 490.583 360.137 491.12 362.331 491.12ZM396.54 497L384.01 460.25L391.29 460.18L400.25 487.69L398.64 487.55L408.37 466.06H412.71L422.51 487.62L420.62 487.76L429.65 460.25H436.93L424.54 497H419.57L409.35 473.62L410.96 473.83L401.44 497H396.54ZM465.196 497.7C461.789 497.7 458.663 497.093 455.816 495.88C452.969 494.667 450.496 492.94 448.396 490.7C446.296 488.413 444.663 485.73 443.496 482.65C442.376 479.57 441.816 476.187 441.816 472.5C441.816 469 442.423 465.757 443.636 462.77C444.896 459.737 446.623 457.077 448.816 454.79C451.009 452.503 453.553 450.73 456.446 449.47C459.339 448.21 462.466 447.58 465.826 447.58C468.206 447.58 470.516 447.953 472.756 448.7C475.043 449.4 477.096 450.403 478.916 451.71C480.783 452.97 482.299 454.417 483.466 456.05L478.426 461.3C477.073 459.947 475.696 458.827 474.296 457.94C472.943 457.007 471.543 456.307 470.096 455.84C468.696 455.373 467.273 455.14 465.826 455.14C463.539 455.14 461.393 455.583 459.386 456.47C457.426 457.31 455.699 458.5 454.206 460.04C452.759 461.58 451.616 463.423 450.776 465.57C449.936 467.67 449.516 469.98 449.516 472.5C449.516 475.16 449.913 477.587 450.706 479.78C451.546 481.927 452.713 483.77 454.206 485.31C455.699 486.85 457.473 488.04 459.526 488.88C461.626 489.673 463.936 490.07 466.456 490.07C467.996 490.07 469.513 489.86 471.006 489.44C472.499 489.02 473.899 488.413 475.206 487.62C476.513 486.827 477.703 485.893 478.776 484.82L482.556 490.98C481.483 492.24 480.013 493.383 478.146 494.41C476.326 495.437 474.273 496.253 471.986 496.86C469.746 497.42 467.483 497.7 465.196 497.7ZM507.526 497.7C503.932 497.7 500.712 496.883 497.866 495.25C495.066 493.57 492.849 491.307 491.216 488.46C489.582 485.567 488.766 482.277 488.766 478.59C488.766 474.903 489.582 471.637 491.216 468.79C492.849 465.897 495.066 463.633 497.866 462C500.712 460.32 503.932 459.48 507.526 459.48C511.072 459.48 514.246 460.32 517.046 462C519.892 463.633 522.132 465.897 523.766 468.79C525.399 471.637 526.216 474.903 526.216 478.59C526.216 482.277 525.399 485.567 523.766 488.46C522.132 491.307 519.892 493.57 517.046 495.25C514.246 496.883 511.072 497.7 507.526 497.7ZM507.526 491.12C509.719 491.12 511.679 490.583 513.406 489.51C515.132 488.39 516.486 486.897 517.466 485.03C518.446 483.117 518.912 480.97 518.866 478.59C518.912 476.163 518.446 474.017 517.466 472.15C516.486 470.237 515.132 468.743 513.406 467.67C511.679 466.597 509.719 466.06 507.526 466.06C505.332 466.06 503.349 466.62 501.576 467.74C499.849 468.813 498.496 470.307 497.516 472.22C496.536 474.087 496.069 476.21 496.116 478.59C496.069 480.97 496.536 483.117 497.516 485.03C498.496 486.897 499.849 488.39 501.576 489.51C503.349 490.583 505.332 491.12 507.526 491.12ZM534.072 497V460.25H541.352V471.8L540.652 469C541.166 467.227 542.029 465.617 543.242 464.17C544.502 462.723 545.926 461.58 547.512 460.74C549.146 459.9 550.826 459.48 552.552 459.48C553.346 459.48 554.092 459.55 554.792 459.69C555.539 459.83 556.122 459.993 556.542 460.18L554.652 468.02C554.092 467.787 553.462 467.6 552.762 467.46C552.109 467.273 551.456 467.18 550.802 467.18C549.542 467.18 548.329 467.437 547.162 467.95C546.042 468.417 545.039 469.093 544.152 469.98C543.312 470.82 542.636 471.823 542.122 472.99C541.609 474.11 541.352 475.347 541.352 476.7V497H534.072ZM577.882 497.7C574.102 497.7 570.742 496.907 567.802 495.32C564.909 493.687 562.622 491.47 560.942 488.67C559.309 485.87 558.492 482.65 558.492 479.01C558.492 476.117 558.959 473.48 559.892 471.1C560.826 468.72 562.109 466.667 563.742 464.94C565.422 463.167 567.406 461.813 569.692 460.88C572.026 459.9 574.546 459.41 577.252 459.41C579.632 459.41 581.849 459.877 583.902 460.81C585.956 461.697 587.729 462.933 589.222 464.52C590.762 466.107 591.929 467.997 592.722 470.19C593.562 472.337 593.959 474.693 593.912 477.26L593.842 480.34H563.812L562.202 474.6H587.612L586.562 475.79V474.11C586.422 472.57 585.909 471.193 585.022 469.98C584.136 468.767 583.016 467.81 581.662 467.11C580.309 466.41 578.839 466.06 577.252 466.06C574.732 466.06 572.609 466.55 570.882 467.53C569.156 468.463 567.849 469.863 566.962 471.73C566.076 473.55 565.632 475.813 565.632 478.52C565.632 481.087 566.169 483.327 567.242 485.24C568.316 487.107 569.832 488.553 571.792 489.58C573.752 490.607 576.016 491.12 578.582 491.12C580.402 491.12 582.082 490.817 583.622 490.21C585.209 489.603 586.912 488.507 588.732 486.92L592.372 492.03C591.252 493.15 589.876 494.13 588.242 494.97C586.656 495.81 584.952 496.487 583.132 497C581.359 497.467 579.609 497.7 577.882 497.7Z" fill="black"/>
<path d="M356.513 785.6C355.766 785.6 355.02 785.48 354.273 785.24C353.54 785.013 352.946 784.713 352.493 784.34L353.253 782.74C353.52 782.94 353.833 783.113 354.193 783.26C354.553 783.42 354.933 783.54 355.333 783.62C355.733 783.713 356.126 783.76 356.513 783.76C357.246 783.76 357.86 783.64 358.353 783.4C358.846 783.16 359.22 782.807 359.473 782.34C359.726 781.873 359.853 781.293 359.853 780.6V778.58L360.073 778.72C360.006 779.133 359.786 779.533 359.413 779.92C359.053 780.293 358.6 780.6 358.053 780.84C357.506 781.08 356.946 781.2 356.373 781.2C355.373 781.2 354.48 780.967 353.693 780.5C352.92 780.02 352.306 779.373 351.853 778.56C351.4 777.733 351.173 776.793 351.173 775.74C351.173 774.687 351.393 773.753 351.833 772.94C352.286 772.113 352.9 771.467 353.673 771C354.46 770.52 355.34 770.28 356.313 770.28C356.713 770.28 357.1 770.333 357.473 770.44C357.846 770.533 358.193 770.673 358.513 770.86C358.833 771.033 359.12 771.227 359.373 771.44C359.626 771.653 359.833 771.88 359.993 772.12C360.153 772.36 360.253 772.587 360.293 772.8L359.853 772.96V770.5H361.913V780.36C361.913 781.2 361.786 781.94 361.533 782.58C361.293 783.233 360.94 783.78 360.473 784.22C360.006 784.673 359.44 785.013 358.773 785.24C358.106 785.48 357.353 785.6 356.513 785.6ZM356.593 779.3C357.246 779.3 357.826 779.147 358.333 778.84C358.84 778.533 359.233 778.113 359.513 777.58C359.793 777.047 359.933 776.433 359.933 775.74C359.933 775.047 359.786 774.433 359.493 773.9C359.213 773.353 358.82 772.927 358.313 772.62C357.82 772.313 357.246 772.16 356.593 772.16C355.953 772.16 355.38 772.32 354.873 772.64C354.38 772.947 353.986 773.373 353.693 773.92C353.413 774.453 353.273 775.06 353.273 775.74C353.273 776.42 353.413 777.033 353.693 777.58C353.986 778.113 354.38 778.533 354.873 778.84C355.38 779.147 355.953 779.3 356.593 779.3ZM364.841 781V766.2H366.901V781H364.841ZM374.346 781.2C373.319 781.2 372.399 780.967 371.586 780.5C370.786 780.02 370.152 779.373 369.686 778.56C369.219 777.733 368.986 776.793 368.986 775.74C368.986 774.687 369.219 773.753 369.686 772.94C370.152 772.113 370.786 771.467 371.586 771C372.399 770.52 373.319 770.28 374.346 770.28C375.359 770.28 376.266 770.52 377.066 771C377.879 771.467 378.519 772.113 378.986 772.94C379.452 773.753 379.686 774.687 379.686 775.74C379.686 776.793 379.452 777.733 378.986 778.56C378.519 779.373 377.879 780.02 377.066 780.5C376.266 780.967 375.359 781.2 374.346 781.2ZM374.346 779.32C374.972 779.32 375.532 779.167 376.026 778.86C376.519 778.54 376.906 778.113 377.186 777.58C377.466 777.033 377.599 776.42 377.586 775.74C377.599 775.047 377.466 774.433 377.186 773.9C376.906 773.353 376.519 772.927 376.026 772.62C375.532 772.313 374.972 772.16 374.346 772.16C373.719 772.16 373.152 772.32 372.646 772.64C372.152 772.947 371.766 773.373 371.486 773.92C371.206 774.453 371.072 775.06 371.086 775.74C371.072 776.42 371.206 777.033 371.486 777.58C371.766 778.113 372.152 778.54 372.646 778.86C373.152 779.167 373.719 779.32 374.346 779.32ZM384.12 781L380.54 770.5L382.62 770.48L385.18 778.34L384.72 778.3L387.5 772.16H388.74L391.54 778.32L391 778.36L393.58 770.5H395.66L392.12 781H390.7L387.78 774.32L388.24 774.38L385.52 781H384.12ZM397.876 781V770.5H399.936V781H397.876ZM398.876 768.18C398.436 768.18 398.096 768.067 397.856 767.84C397.616 767.613 397.496 767.293 397.496 766.88C397.496 766.493 397.616 766.18 397.856 765.94C398.109 765.7 398.449 765.58 398.876 765.58C399.316 765.58 399.656 765.693 399.896 765.92C400.136 766.147 400.256 766.467 400.256 766.88C400.256 767.267 400.129 767.58 399.876 767.82C399.636 768.06 399.302 768.18 398.876 768.18ZM403.102 781V770.5H405.162V772.66L404.802 772.9C404.935 772.433 405.195 772.007 405.582 771.62C405.969 771.22 406.429 770.9 406.962 770.66C407.495 770.407 408.042 770.28 408.602 770.28C409.402 770.28 410.069 770.44 410.602 770.76C411.135 771.067 411.535 771.54 411.802 772.18C412.069 772.82 412.202 773.627 412.202 774.6V781H410.142V774.74C410.142 774.14 410.062 773.647 409.902 773.26C409.742 772.86 409.495 772.573 409.162 772.4C408.829 772.213 408.415 772.133 407.922 772.16C407.522 772.16 407.155 772.227 406.822 772.36C406.489 772.48 406.195 772.653 405.942 772.88C405.702 773.107 405.509 773.373 405.362 773.68C405.229 773.973 405.162 774.293 405.162 774.64V781H404.142C403.969 781 403.795 781 403.622 781C403.449 781 403.275 781 403.102 781ZM419.697 785.6C418.95 785.6 418.203 785.48 417.457 785.24C416.723 785.013 416.13 784.713 415.677 784.34L416.437 782.74C416.703 782.94 417.017 783.113 417.377 783.26C417.737 783.42 418.117 783.54 418.517 783.62C418.917 783.713 419.31 783.76 419.697 783.76C420.43 783.76 421.043 783.64 421.537 783.4C422.03 783.16 422.403 782.807 422.657 782.34C422.91 781.873 423.037 781.293 423.037 780.6V778.58L423.257 778.72C423.19 779.133 422.97 779.533 422.597 779.92C422.237 780.293 421.783 780.6 421.237 780.84C420.69 781.08 420.13 781.2 419.557 781.2C418.557 781.2 417.663 780.967 416.877 780.5C416.103 780.02 415.49 779.373 415.037 778.56C414.583 777.733 414.357 776.793 414.357 775.74C414.357 774.687 414.577 773.753 415.017 772.94C415.47 772.113 416.083 771.467 416.857 771C417.643 770.52 418.523 770.28 419.497 770.28C419.897 770.28 420.283 770.333 420.657 770.44C421.03 770.533 421.377 770.673 421.697 770.86C422.017 771.033 422.303 771.227 422.557 771.44C422.81 771.653 423.017 771.88 423.177 772.12C423.337 772.36 423.437 772.587 423.477 772.8L423.037 772.96V770.5H425.097V780.36C425.097 781.2 424.97 781.94 424.717 782.58C424.477 783.233 424.123 783.78 423.657 784.22C423.19 784.673 422.623 785.013 421.957 785.24C421.29 785.48 420.537 785.6 419.697 785.6ZM419.777 779.3C420.43 779.3 421.01 779.147 421.517 778.84C422.023 778.533 422.417 778.113 422.697 777.58C422.977 777.047 423.117 776.433 423.117 775.74C423.117 775.047 422.97 774.433 422.677 773.9C422.397 773.353 422.003 772.927 421.497 772.62C421.003 772.313 420.43 772.16 419.777 772.16C419.137 772.16 418.563 772.32 418.057 772.64C417.563 772.947 417.17 773.373 416.877 773.92C416.597 774.453 416.457 775.06 416.457 775.74C416.457 776.42 416.597 777.033 416.877 777.58C417.17 778.113 417.563 778.533 418.057 778.84C418.563 779.147 419.137 779.3 419.777 779.3ZM429.865 777.72L429.765 775.48L434.785 770.5H437.565L429.865 777.72ZM427.985 781V766.2H430.045V781H427.985ZM435.065 781L431.105 776.38L432.565 775.04L437.705 781H435.065ZM439.692 781V770.5H441.752V781H439.692ZM440.692 768.18C440.252 768.18 439.912 768.067 439.672 767.84C439.432 767.613 439.312 767.293 439.312 766.88C439.312 766.493 439.432 766.18 439.672 765.94C439.925 765.7 440.265 765.58 440.692 765.58C441.132 765.58 441.472 765.693 441.712 765.92C441.952 766.147 442.072 766.467 442.072 766.88C442.072 767.267 441.945 767.58 441.692 767.82C441.452 768.06 441.119 768.18 440.692 768.18ZM446.219 781V767.82H448.279V781H446.219ZM444.039 772.5V770.5H450.719V772.5H444.039ZM453.894 781V767.82H455.954V781H453.894ZM451.714 772.5V770.5H458.394V772.5H451.714ZM462.03 785.6L464.15 780.7L464.17 782.34L458.93 770.5H461.33L464.61 778.22C464.677 778.353 464.757 778.56 464.85 778.84C464.943 779.107 465.023 779.373 465.09 779.64L464.57 779.76C464.677 779.48 464.777 779.2 464.87 778.92C464.977 778.64 465.077 778.36 465.17 778.08L467.91 770.5H470.35L466.03 781L464.25 785.6H462.03ZM471.93 781.22C471.49 781.22 471.15 781.093 470.91 780.84C470.67 780.573 470.55 780.2 470.55 779.72C470.55 779.28 470.677 778.92 470.93 778.64C471.184 778.36 471.517 778.22 471.93 778.22C472.37 778.22 472.71 778.353 472.95 778.62C473.19 778.873 473.31 779.24 473.31 779.72C473.31 780.16 473.184 780.52 472.93 780.8C472.677 781.08 472.344 781.22 471.93 781.22ZM480.101 781.2C479.128 781.2 478.255 780.96 477.481 780.48C476.721 780 476.115 779.347 475.661 778.52C475.221 777.693 475.001 776.767 475.001 775.74C475.001 774.713 475.221 773.787 475.661 772.96C476.115 772.133 476.721 771.48 477.481 771C478.255 770.52 479.128 770.28 480.101 770.28C481.035 770.28 481.881 770.473 482.641 770.86C483.415 771.233 484.001 771.747 484.401 772.4L483.261 773.8C483.048 773.493 482.775 773.213 482.441 772.96C482.108 772.707 481.755 772.507 481.381 772.36C481.008 772.213 480.648 772.14 480.301 772.14C479.661 772.14 479.088 772.3 478.581 772.62C478.088 772.927 477.695 773.353 477.401 773.9C477.108 774.447 476.961 775.06 476.961 775.74C476.961 776.42 477.115 777.033 477.421 777.58C477.728 778.113 478.135 778.54 478.641 778.86C479.148 779.18 479.708 779.34 480.321 779.34C480.681 779.34 481.028 779.28 481.361 779.16C481.708 779.04 482.041 778.86 482.361 778.62C482.681 778.38 482.981 778.087 483.261 777.74L484.401 779.14C483.975 779.74 483.361 780.233 482.561 780.62C481.775 781.007 480.955 781.2 480.101 781.2ZM491.064 781.2C490.038 781.2 489.118 780.967 488.304 780.5C487.504 780.02 486.871 779.373 486.404 778.56C485.938 777.733 485.704 776.793 485.704 775.74C485.704 774.687 485.938 773.753 486.404 772.94C486.871 772.113 487.504 771.467 488.304 771C489.118 770.52 490.038 770.28 491.064 770.28C492.078 770.28 492.984 770.52 493.784 771C494.598 771.467 495.238 772.113 495.704 772.94C496.171 773.753 496.404 774.687 496.404 775.74C496.404 776.793 496.171 777.733 495.704 778.56C495.238 779.373 494.598 780.02 493.784 780.5C492.984 780.967 492.078 781.2 491.064 781.2ZM491.064 779.32C491.691 779.32 492.251 779.167 492.744 778.86C493.238 778.54 493.624 778.113 493.904 777.58C494.184 777.033 494.318 776.42 494.304 775.74C494.318 775.047 494.184 774.433 493.904 773.9C493.624 773.353 493.238 772.927 492.744 772.62C492.251 772.313 491.691 772.16 491.064 772.16C490.438 772.16 489.871 772.32 489.364 772.64C488.871 772.947 488.484 773.373 488.204 773.92C487.924 774.453 487.791 775.06 487.804 775.74C487.791 776.42 487.924 777.033 488.204 777.58C488.484 778.113 488.871 778.54 489.364 778.86C489.871 779.167 490.438 779.32 491.064 779.32ZM498.609 781V770.5H500.689V772.74L500.309 772.98C500.416 772.633 500.582 772.3 500.809 771.98C501.049 771.66 501.336 771.38 501.669 771.14C502.016 770.887 502.382 770.687 502.769 770.54C503.169 770.393 503.576 770.32 503.989 770.32C504.589 770.32 505.116 770.42 505.569 770.62C506.022 770.82 506.396 771.12 506.689 771.52C506.982 771.92 507.196 772.42 507.329 773.02L507.009 772.94L507.149 772.6C507.296 772.293 507.496 772.007 507.749 771.74C508.016 771.46 508.316 771.213 508.649 771C508.982 770.787 509.336 770.62 509.709 770.5C510.082 770.38 510.449 770.32 510.809 770.32C511.596 770.32 512.242 770.48 512.749 770.8C513.269 771.12 513.656 771.607 513.909 772.26C514.176 772.913 514.309 773.727 514.309 774.7V781H512.229V774.82C512.229 774.22 512.149 773.733 511.989 773.36C511.842 772.973 511.616 772.687 511.309 772.5C511.002 772.313 510.609 772.22 510.129 772.22C509.756 772.22 509.402 772.287 509.069 772.42C508.749 772.54 508.469 772.713 508.229 772.94C507.989 773.167 507.802 773.433 507.669 773.74C507.536 774.033 507.469 774.36 507.469 774.72V781H505.389V774.78C505.389 774.233 505.309 773.773 505.149 773.4C504.989 773.013 504.756 772.72 504.449 772.52C504.142 772.32 503.769 772.22 503.329 772.22C502.956 772.22 502.609 772.287 502.289 772.42C501.969 772.54 501.689 772.713 501.449 772.94C501.209 773.153 501.022 773.413 500.889 773.72C500.756 774.013 500.689 774.333 500.689 774.68V781H498.609Z" fill="black"/>
<path d="M466.767 683.325C466.767 684.255 466.306 686.116 465.384 688.906C464.461 691.697 464 693.557 464 694.487C464 696.377 464.281 698.165 464.843 699.851C465.405 701.537 466.227 702.925 467.308 704.015C468.389 705.105 469.592 705.65 470.918 705.65H490.289C490.664 705.65 490.988 705.512 491.262 705.236C491.536 704.96 491.673 704.633 491.673 704.255C491.673 703.877 491.536 703.55 491.262 703.274C490.988 702.997 490.664 702.859 490.289 702.859C489.886 702.859 489.554 702.729 489.295 702.467C489.035 702.205 488.906 701.871 488.906 701.464C488.906 700.708 489.194 699.829 489.77 698.826C490.347 697.823 491.039 696.791 491.846 695.73C492.653 694.669 493.46 693.572 494.267 692.438C495.074 691.304 495.766 690.054 496.343 688.688C496.919 687.322 497.207 685.999 497.207 684.72C497.207 682.54 496.343 680.738 494.613 679.313C494.959 678.267 495.824 677.744 497.207 677.744C498.043 677.744 498.915 677.446 499.823 676.85C500.731 676.254 501.445 675.629 501.964 674.975C502.483 674.321 502.742 673.849 502.742 673.558C502.742 673.18 502.605 672.853 502.331 672.577C502.057 672.301 501.733 672.162 501.358 672.162C501.128 672.162 500.883 671.959 500.623 671.552C500.364 671.145 500.068 670.636 499.737 670.026C499.405 669.415 499.023 668.798 498.591 668.173C498.159 667.548 497.582 666.966 496.862 666.429C496.141 665.891 495.334 665.52 494.44 665.317V661C493.777 661 492.999 661.516 492.105 662.548C491.212 663.58 490.635 664.648 490.376 665.753C488.992 666.334 487.94 667.344 487.219 668.783C486.499 670.222 486.138 671.814 486.138 673.558C486.138 674.401 485.958 675.2 485.598 675.956C485.237 676.712 484.726 677.388 484.063 677.984C483.4 678.579 482.859 679.03 482.441 679.335C482.023 679.641 481.497 679.982 480.863 680.36C480.748 680.447 480.661 680.505 480.604 680.534C478.932 681.494 477.548 682.424 476.453 683.325C474.464 684.982 472.814 687.06 471.502 689.56C470.19 692.06 469.535 694.168 469.535 695.883C469.535 695.999 469.52 696.13 469.491 696.275C469.463 696.421 469.333 696.624 469.102 696.886C468.872 697.147 468.554 697.278 468.151 697.278C467.747 697.278 467.416 697.053 467.156 696.602C466.897 696.152 466.767 695.447 466.767 694.487C466.767 693.47 466.955 692.453 467.329 691.435C467.704 690.418 468.165 689.451 468.713 688.536C469.261 687.62 469.808 686.668 470.356 685.68C470.904 684.691 471.365 683.507 471.74 682.126C472.114 680.745 472.302 679.284 472.302 677.744C472.302 676.348 471.725 675.069 470.572 673.907C469.419 672.744 468.151 672.162 466.767 672.162C465.989 672.162 465.333 672.431 464.8 672.969C464.267 673.507 464 674.168 464 674.953C464 675.418 464.086 675.832 464.259 676.196C464.432 676.559 464.656 676.893 464.93 677.199C465.203 677.504 465.355 677.686 465.384 677.744C466.306 679.284 466.767 681.145 466.767 683.325Z" fill="black"/>
<path d="M517.651 682.593C517.651 683.068 517.415 683.305 516.943 683.305C516.471 683.305 516.235 683.068 516.235 682.593C516.235 682.119 516.471 681.881 516.943 681.881C517.415 681.881 517.651 682.119 517.651 682.593ZM515.968 682.593C515.968 683.068 515.732 683.305 515.26 683.305C514.788 683.305 514.552 683.068 514.552 682.593C514.552 682.119 514.788 681.881 515.26 681.881C515.732 681.881 515.968 682.119 515.968 682.593ZM517.611 684.285C517.611 684.733 517.388 684.957 516.943 684.957C516.498 684.957 516.275 684.733 516.275 684.285C516.275 683.838 516.498 683.614 516.943 683.614C517.388 683.614 517.611 683.838 517.611 684.285ZM514.284 682.593C514.284 683.068 514.048 683.305 513.576 683.305C513.104 683.305 512.868 683.068 512.868 682.593C512.868 682.119 513.104 681.881 513.576 681.881C514.048 681.881 514.284 682.119 514.284 682.593ZM517.571 685.977C517.571 686.398 517.362 686.608 516.943 686.608C516.524 686.608 516.315 686.398 516.315 685.977C516.315 685.556 516.524 685.346 516.943 685.346C517.362 685.346 517.571 685.556 517.571 685.977ZM512.601 682.593C512.601 683.068 512.365 683.305 511.893 683.305C511.421 683.305 511.185 683.068 511.185 682.593C511.185 682.119 511.421 681.881 511.893 681.881C512.365 681.881 512.601 682.119 512.601 682.593ZM517.531 687.669C517.531 688.063 517.335 688.26 516.943 688.26C516.551 688.26 516.355 688.063 516.355 687.669C516.355 687.275 516.551 687.078 516.943 687.078C517.335 687.078 517.531 687.275 517.531 687.669ZM517.491 689.361C517.491 689.737 517.308 689.925 516.943 689.925C516.578 689.925 516.395 689.737 516.395 689.361C516.395 688.994 516.578 688.811 516.943 688.811C517.308 688.811 517.491 688.994 517.491 689.361ZM510.878 684.285C510.878 684.733 510.655 684.957 510.21 684.957C509.765 684.957 509.542 684.733 509.542 684.285C509.542 683.838 509.765 683.614 510.21 683.614C510.655 683.614 510.878 683.838 510.878 684.285ZM515.807 689.361C515.807 689.737 515.625 689.925 515.26 689.925C514.895 689.925 514.712 689.737 514.712 689.361C514.712 688.994 514.895 688.811 515.26 688.811C515.625 688.811 515.807 688.994 515.807 689.361ZM510.838 685.977C510.838 686.398 510.628 686.608 510.21 686.608C509.791 686.608 509.582 686.398 509.582 685.977C509.582 685.556 509.791 685.346 510.21 685.346C510.628 685.346 510.838 685.556 510.838 685.977ZM514.124 689.361C514.124 689.737 513.942 689.925 513.576 689.925C513.211 689.925 513.029 689.737 513.029 689.361C513.029 688.994 513.211 688.811 513.576 688.811C513.942 688.811 514.124 688.994 514.124 689.361ZM510.798 687.669C510.798 688.063 510.602 688.26 510.21 688.26C509.818 688.26 509.622 688.063 509.622 687.669C509.622 687.275 509.818 687.078 510.21 687.078C510.602 687.078 510.798 687.275 510.798 687.669ZM512.441 689.361C512.441 689.737 512.258 689.925 511.893 689.925C511.528 689.925 511.345 689.737 511.345 689.361C511.345 688.994 511.528 688.811 511.893 688.811C512.258 688.811 512.441 688.994 512.441 689.361ZM517.451 691.053C517.451 691.402 517.281 691.577 516.943 691.577C516.605 691.577 516.435 691.402 516.435 691.053C516.435 690.713 516.605 690.543 516.943 690.543C517.281 690.543 517.451 690.713 517.451 691.053ZM515.727 692.745C515.727 693.067 515.571 693.229 515.26 693.229C514.948 693.229 514.792 693.067 514.792 692.745C514.792 692.432 514.948 692.275 515.26 692.275C515.571 692.275 515.727 692.432 515.727 692.745ZM514.044 692.745C514.044 693.067 513.888 693.229 513.576 693.229C513.265 693.229 513.109 693.067 513.109 692.745C513.109 692.432 513.265 692.275 513.576 692.275C513.888 692.275 514.044 692.432 514.044 692.745ZM512.361 692.745C512.361 693.067 512.205 693.229 511.893 693.229C511.581 693.229 511.426 693.067 511.426 692.745C511.426 692.432 511.581 692.275 511.893 692.275C512.205 692.275 512.361 692.432 512.361 692.745Z" fill="black"/>
<path d="M523.98 679.209C523.98 679.737 523.717 680.001 523.192 680.001C522.666 680.001 522.403 679.737 522.403 679.209C522.403 678.681 522.666 678.417 523.192 678.417C523.717 678.417 523.98 678.681 523.98 679.209ZM522.296 679.209C522.296 679.737 522.034 680.001 521.508 680.001C520.983 680.001 520.72 679.737 520.72 679.209C520.72 678.681 520.983 678.417 521.508 678.417C522.034 678.417 522.296 678.681 522.296 679.209ZM523.94 680.901C523.94 681.402 523.69 681.653 523.192 681.653C522.693 681.653 522.443 681.402 522.443 680.901C522.443 680.4 522.693 680.149 523.192 680.149C523.69 680.149 523.94 680.4 523.94 680.901ZM523.9 682.593C523.9 683.068 523.664 683.305 523.192 683.305C522.719 683.305 522.483 683.068 522.483 682.593C522.483 682.119 522.719 681.881 523.192 681.881C523.664 681.881 523.9 682.119 523.9 682.593ZM523.859 684.285C523.859 684.733 523.637 684.957 523.192 684.957C522.746 684.957 522.524 684.733 522.524 684.285C522.524 683.838 522.746 683.614 523.192 683.614C523.637 683.614 523.859 683.838 523.859 684.285ZM523.819 685.977C523.819 686.398 523.61 686.608 523.192 686.608C522.773 686.608 522.564 686.398 522.564 685.977C522.564 685.556 522.773 685.346 523.192 685.346C523.61 685.346 523.819 685.556 523.819 685.977ZM523.779 687.669C523.779 688.063 523.583 688.26 523.192 688.26C522.8 688.26 522.604 688.063 522.604 687.669C522.604 687.275 522.8 687.078 523.192 687.078C523.583 687.078 523.779 687.275 523.779 687.669ZM525.423 689.361C525.423 689.737 525.24 689.925 524.875 689.925C524.51 689.925 524.327 689.737 524.327 689.361C524.327 688.994 524.51 688.811 524.875 688.811C525.24 688.811 525.423 688.994 525.423 689.361ZM523.739 689.361C523.739 689.737 523.557 689.925 523.192 689.925C522.826 689.925 522.644 689.737 522.644 689.361C522.644 688.994 522.826 688.811 523.192 688.811C523.557 688.811 523.739 688.994 523.739 689.361ZM522.056 689.361C522.056 689.737 521.873 689.925 521.508 689.925C521.143 689.925 520.96 689.737 520.96 689.361C520.96 688.994 521.143 688.811 521.508 688.811C521.873 688.811 522.056 688.994 522.056 689.361Z" fill="black"/>
<path d="M535.198 682.593C535.198 683.068 534.962 683.305 534.49 683.305C534.018 683.305 533.782 683.068 533.782 682.593C533.782 682.119 534.018 681.881 534.49 681.881C534.962 681.881 535.198 682.119 535.198 682.593ZM536.841 684.285C536.841 684.733 536.618 684.957 536.173 684.957C535.728 684.957 535.505 684.733 535.505 684.285C535.505 683.838 535.728 683.614 536.173 683.614C536.618 683.614 536.841 683.838 536.841 684.285ZM533.515 682.593C533.515 683.068 533.279 683.305 532.807 683.305C532.335 683.305 532.099 683.068 532.099 682.593C532.099 682.119 532.335 681.881 532.807 681.881C533.279 681.881 533.515 682.119 533.515 682.593ZM536.801 685.977C536.801 686.398 536.592 686.608 536.173 686.608C535.755 686.608 535.545 686.398 535.545 685.977C535.545 685.556 535.755 685.346 536.173 685.346C536.592 685.346 536.801 685.556 536.801 685.977ZM531.831 682.593C531.831 683.068 531.595 683.305 531.123 683.305C530.651 683.305 530.415 683.068 530.415 682.593C530.415 682.119 530.651 681.881 531.123 681.881C531.595 681.881 531.831 682.119 531.831 682.593ZM536.761 687.669C536.761 688.063 536.565 688.26 536.173 688.26C535.781 688.26 535.585 688.063 535.585 687.669C535.585 687.275 535.781 687.078 536.173 687.078C536.565 687.078 536.761 687.275 536.761 687.669ZM530.108 684.285C530.108 684.733 529.885 684.957 529.44 684.957C528.995 684.957 528.772 684.733 528.772 684.285C528.772 683.838 528.995 683.614 529.44 683.614C529.885 683.614 530.108 683.838 530.108 684.285ZM535.038 689.361C535.038 689.737 534.855 689.925 534.49 689.925C534.125 689.925 533.942 689.737 533.942 689.361C533.942 688.994 534.125 688.811 534.49 688.811C534.855 688.811 535.038 688.994 535.038 689.361ZM530.068 685.977C530.068 686.398 529.859 686.608 529.44 686.608C529.021 686.608 528.812 686.398 528.812 685.977C528.812 685.556 529.021 685.346 529.44 685.346C529.859 685.346 530.068 685.556 530.068 685.977ZM533.354 689.361C533.354 689.737 533.172 689.925 532.807 689.925C532.441 689.925 532.259 689.737 532.259 689.361C532.259 688.994 532.441 688.811 532.807 688.811C533.172 688.811 533.354 688.994 533.354 689.361ZM530.028 687.669C530.028 688.063 529.832 688.26 529.44 688.26C529.048 688.26 528.852 688.063 528.852 687.669C528.852 687.275 529.048 687.078 529.44 687.078C529.832 687.078 530.028 687.275 530.028 687.669ZM531.671 689.361C531.671 689.737 531.488 689.925 531.123 689.925C530.758 689.925 530.576 689.737 530.576 689.361C530.576 688.994 530.758 688.811 531.123 688.811C531.488 688.811 531.671 688.994 531.671 689.361Z" fill="black"/>
<path d="M546.496 682.593C546.496 683.068 546.26 683.305 545.788 683.305C545.316 683.305 545.08 683.068 545.08 682.593C545.08 682.119 545.316 681.881 545.788 681.881C546.26 681.881 546.496 682.119 546.496 682.593ZM546.456 684.285C546.456 684.733 546.233 684.957 545.788 684.957C545.343 684.957 545.12 684.733 545.12 684.285C545.12 683.838 545.343 683.614 545.788 683.614C546.233 683.614 546.456 683.838 546.456 684.285ZM543.13 682.593C543.13 683.068 542.894 683.305 542.422 683.305C541.95 683.305 541.714 683.068 541.714 682.593C541.714 682.119 541.95 681.881 542.422 681.881C542.894 681.881 543.13 682.119 543.13 682.593ZM546.416 685.977C546.416 686.398 546.207 686.608 545.788 686.608C545.37 686.608 545.16 686.398 545.16 685.977C545.16 685.556 545.37 685.346 545.788 685.346C546.207 685.346 546.416 685.556 546.416 685.977ZM543.09 684.285C543.09 684.733 542.867 684.957 542.422 684.957C541.976 684.957 541.754 684.733 541.754 684.285C541.754 683.838 541.976 683.614 542.422 683.614C542.867 683.614 543.09 683.838 543.09 684.285ZM546.376 687.669C546.376 688.063 546.18 688.26 545.788 688.26C545.396 688.26 545.2 688.063 545.2 687.669C545.2 687.275 545.396 687.078 545.788 687.078C546.18 687.078 546.376 687.275 546.376 687.669ZM539.763 682.593C539.763 683.068 539.527 683.305 539.055 683.305C538.583 683.305 538.347 683.068 538.347 682.593C538.347 682.119 538.583 681.881 539.055 681.881C539.527 681.881 539.763 682.119 539.763 682.593ZM543.05 685.977C543.05 686.398 542.84 686.608 542.422 686.608C542.003 686.608 541.794 686.398 541.794 685.977C541.794 685.556 542.003 685.346 542.422 685.346C542.84 685.346 543.05 685.556 543.05 685.977ZM539.723 684.285C539.723 684.733 539.5 684.957 539.055 684.957C538.61 684.957 538.387 684.733 538.387 684.285C538.387 683.838 538.61 683.614 539.055 683.614C539.5 683.614 539.723 683.838 539.723 684.285ZM543.009 687.669C543.009 688.063 542.813 688.26 542.422 688.26C542.03 688.26 541.834 688.063 541.834 687.669C541.834 687.275 542.03 687.078 542.422 687.078C542.813 687.078 543.009 687.275 543.009 687.669ZM544.653 689.361C544.653 689.737 544.47 689.925 544.105 689.925C543.74 689.925 543.557 689.737 543.557 689.361C543.557 688.994 543.74 688.811 544.105 688.811C544.47 688.811 544.653 688.994 544.653 689.361ZM539.683 685.977C539.683 686.398 539.474 686.608 539.055 686.608C538.636 686.608 538.427 686.398 538.427 685.977C538.427 685.556 538.636 685.346 539.055 685.346C539.474 685.346 539.683 685.556 539.683 685.977ZM539.643 687.669C539.643 688.063 539.447 688.26 539.055 688.26C538.663 688.26 538.467 688.063 538.467 687.669C538.467 687.275 538.663 687.078 539.055 687.078C539.447 687.078 539.643 687.275 539.643 687.669ZM541.286 689.361C541.286 689.737 541.103 689.925 540.738 689.925C540.373 689.925 540.191 689.737 540.191 689.361C540.191 688.994 540.373 688.811 540.738 688.811C541.103 688.811 541.286 688.994 541.286 689.361Z" fill="black"/>
<path d="M552.825 679.209C552.825 679.737 552.562 680.001 552.037 680.001C551.511 680.001 551.248 679.737 551.248 679.209C551.248 678.681 551.511 678.417 552.037 678.417C552.562 678.417 552.825 678.681 552.825 679.209ZM552.745 682.593C552.745 683.068 552.509 683.305 552.037 683.305C551.565 683.305 551.329 683.068 551.329 682.593C551.329 682.119 551.565 681.881 552.037 681.881C552.509 681.881 552.745 682.119 552.745 682.593ZM551.061 682.593C551.061 683.068 550.825 683.305 550.353 683.305C549.881 683.305 549.645 683.068 549.645 682.593C549.645 682.119 549.881 681.881 550.353 681.881C550.825 681.881 551.061 682.119 551.061 682.593ZM552.705 684.285C552.705 684.733 552.482 684.957 552.037 684.957C551.591 684.957 551.369 684.733 551.369 684.285C551.369 683.838 551.591 683.614 552.037 683.614C552.482 683.614 552.705 683.838 552.705 684.285ZM552.665 685.977C552.665 686.398 552.455 686.608 552.037 686.608C551.618 686.608 551.409 686.398 551.409 685.977C551.409 685.556 551.618 685.346 552.037 685.346C552.455 685.346 552.665 685.556 552.665 685.977ZM552.624 687.669C552.624 688.063 552.429 688.26 552.037 688.26C551.645 688.26 551.449 688.063 551.449 687.669C551.449 687.275 551.645 687.078 552.037 687.078C552.429 687.078 552.624 687.275 552.624 687.669ZM554.268 689.361C554.268 689.737 554.085 689.925 553.72 689.925C553.355 689.925 553.172 689.737 553.172 689.361C553.172 688.994 553.355 688.811 553.72 688.811C554.085 688.811 554.268 688.994 554.268 689.361ZM552.584 689.361C552.584 689.737 552.402 689.925 552.037 689.925C551.672 689.925 551.489 689.737 551.489 689.361C551.489 688.994 551.672 688.811 552.037 688.811C552.402 688.811 552.584 688.994 552.584 689.361ZM550.901 689.361C550.901 689.737 550.719 689.925 550.353 689.925C549.988 689.925 549.806 689.737 549.806 689.361C549.806 688.994 549.988 688.811 550.353 688.811C550.719 688.811 550.901 688.994 550.901 689.361Z" fill="black"/>
<path d="M564.043 682.593C564.043 683.068 563.807 683.305 563.335 683.305C562.863 683.305 562.627 683.068 562.627 682.593C562.627 682.119 562.863 681.881 563.335 681.881C563.807 681.881 564.043 682.119 564.043 682.593ZM565.686 684.285C565.686 684.733 565.464 684.957 565.018 684.957C564.573 684.957 564.35 684.733 564.35 684.285C564.35 683.838 564.573 683.614 565.018 683.614C565.464 683.614 565.686 683.838 565.686 684.285ZM562.36 682.593C562.36 683.068 562.124 683.305 561.652 683.305C561.18 683.305 560.944 683.068 560.944 682.593C560.944 682.119 561.18 681.881 561.652 681.881C562.124 681.881 562.36 682.119 562.36 682.593ZM565.646 685.977C565.646 686.398 565.437 686.608 565.018 686.608C564.6 686.608 564.39 686.398 564.39 685.977C564.39 685.556 564.6 685.346 565.018 685.346C565.437 685.346 565.646 685.556 565.646 685.977ZM560.676 682.593C560.676 683.068 560.44 683.305 559.968 683.305C559.496 683.305 559.26 683.068 559.26 682.593C559.26 682.119 559.496 681.881 559.968 681.881C560.44 681.881 560.676 682.119 560.676 682.593ZM565.606 687.669C565.606 688.063 565.41 688.26 565.018 688.26C564.626 688.26 564.43 688.063 564.43 687.669C564.43 687.275 564.626 687.078 565.018 687.078C565.41 687.078 565.606 687.275 565.606 687.669ZM558.993 682.593C558.993 683.068 558.757 683.305 558.285 683.305C557.813 683.305 557.577 683.068 557.577 682.593C557.577 682.119 557.813 681.881 558.285 681.881C558.757 681.881 558.993 682.119 558.993 682.593ZM565.566 689.361C565.566 689.737 565.383 689.925 565.018 689.925C564.653 689.925 564.471 689.737 564.471 689.361C564.471 688.994 564.653 688.811 565.018 688.811C565.383 688.811 565.566 688.994 565.566 689.361ZM558.953 684.285C558.953 684.733 558.73 684.957 558.285 684.957C557.84 684.957 557.617 684.733 557.617 684.285C557.617 683.838 557.84 683.614 558.285 683.614C558.73 683.614 558.953 683.838 558.953 684.285ZM558.913 685.977C558.913 686.398 558.704 686.608 558.285 686.608C557.867 686.608 557.657 686.398 557.657 685.977C557.657 685.556 557.867 685.346 558.285 685.346C558.704 685.346 558.913 685.556 558.913 685.977ZM558.873 687.669C558.873 688.063 558.677 688.26 558.285 688.26C557.893 688.26 557.697 688.063 557.697 687.669C557.697 687.275 557.893 687.078 558.285 687.078C558.677 687.078 558.873 687.275 558.873 687.669ZM558.833 689.361C558.833 689.737 558.65 689.925 558.285 689.925C557.92 689.925 557.737 689.737 557.737 689.361C557.737 688.994 557.92 688.811 558.285 688.811C558.65 688.811 558.833 688.994 558.833 689.361Z" fill="black"/>
<path d="M575.341 682.593C575.341 683.068 575.105 683.305 574.633 683.305C574.161 683.305 573.925 683.068 573.925 682.593C573.925 682.119 574.161 681.881 574.633 681.881C575.105 681.881 575.341 682.119 575.341 682.593ZM573.658 682.593C573.658 683.068 573.422 683.305 572.95 683.305C572.478 683.305 572.242 683.068 572.242 682.593C572.242 682.119 572.478 681.881 572.95 681.881C573.422 681.881 573.658 682.119 573.658 682.593ZM575.301 684.285C575.301 684.733 575.079 684.957 574.633 684.957C574.188 684.957 573.965 684.733 573.965 684.285C573.965 683.838 574.188 683.614 574.633 683.614C575.079 683.614 575.301 683.838 575.301 684.285ZM571.975 682.593C571.975 683.068 571.739 683.305 571.267 683.305C570.795 683.305 570.559 683.068 570.559 682.593C570.559 682.119 570.795 681.881 571.267 681.881C571.739 681.881 571.975 682.119 571.975 682.593ZM575.261 685.977C575.261 686.398 575.052 686.608 574.633 686.608C574.215 686.608 574.005 686.398 574.005 685.977C574.005 685.556 574.215 685.346 574.633 685.346C575.052 685.346 575.261 685.556 575.261 685.977ZM570.292 682.593C570.292 683.068 570.056 683.305 569.584 683.305C569.111 683.305 568.875 683.068 568.875 682.593C568.875 682.119 569.111 681.881 569.584 681.881C570.056 681.881 570.292 682.119 570.292 682.593ZM575.221 687.669C575.221 688.063 575.025 688.26 574.633 688.26C574.241 688.26 574.046 688.063 574.046 687.669C574.046 687.275 574.241 687.078 574.633 687.078C575.025 687.078 575.221 687.275 575.221 687.669ZM575.181 689.361C575.181 689.737 574.998 689.925 574.633 689.925C574.268 689.925 574.086 689.737 574.086 689.361C574.086 688.994 574.268 688.811 574.633 688.811C574.998 688.811 575.181 688.994 575.181 689.361ZM568.568 684.285C568.568 684.733 568.346 684.957 567.9 684.957C567.455 684.957 567.232 684.733 567.232 684.285C567.232 683.838 567.455 683.614 567.9 683.614C568.346 683.614 568.568 683.838 568.568 684.285ZM573.498 689.361C573.498 689.737 573.315 689.925 572.95 689.925C572.585 689.925 572.402 689.737 572.402 689.361C572.402 688.994 572.585 688.811 572.95 688.811C573.315 688.811 573.498 688.994 573.498 689.361ZM568.528 685.977C568.528 686.398 568.319 686.608 567.9 686.608C567.482 686.608 567.272 686.398 567.272 685.977C567.272 685.556 567.482 685.346 567.9 685.346C568.319 685.346 568.528 685.556 568.528 685.977ZM571.815 689.361C571.815 689.737 571.632 689.925 571.267 689.925C570.902 689.925 570.719 689.737 570.719 689.361C570.719 688.994 570.902 688.811 571.267 688.811C571.632 688.811 571.815 688.994 571.815 689.361ZM568.488 687.669C568.488 688.063 568.292 688.26 567.9 688.26C567.508 688.26 567.312 688.063 567.312 687.669C567.312 687.275 567.508 687.078 567.9 687.078C568.292 687.078 568.488 687.275 568.488 687.669ZM570.131 689.361C570.131 689.737 569.949 689.925 569.584 689.925C569.218 689.925 569.036 689.737 569.036 689.361C569.036 688.994 569.218 688.811 569.584 688.811C569.949 688.811 570.131 688.994 570.131 689.361ZM575.141 691.053C575.141 691.402 574.972 691.577 574.633 691.577C574.295 691.577 574.126 691.402 574.126 691.053C574.126 690.713 574.295 690.543 574.633 690.543C574.972 690.543 575.141 690.713 575.141 691.053ZM573.418 692.745C573.418 693.067 573.262 693.229 572.95 693.229C572.638 693.229 572.482 693.067 572.482 692.745C572.482 692.432 572.638 692.275 572.95 692.275C573.262 692.275 573.418 692.432 573.418 692.745ZM571.734 692.745C571.734 693.067 571.579 693.229 571.267 693.229C570.955 693.229 570.799 693.067 570.799 692.745C570.799 692.432 570.955 692.275 571.267 692.275C571.579 692.275 571.734 692.432 571.734 692.745ZM570.051 692.745C570.051 693.067 569.895 693.229 569.584 693.229C569.272 693.229 569.116 693.067 569.116 692.745C569.116 692.432 569.272 692.275 569.584 692.275C569.895 692.275 570.051 692.432 570.051 692.745Z" fill="black"/>
<path d="M517.651 697.365C517.651 697.839 517.415 698.076 516.943 698.076C516.471 698.076 516.235 697.839 516.235 697.365C516.235 696.89 516.471 696.653 516.943 696.653C517.415 696.653 517.651 696.89 517.651 697.365ZM510.998 693.981C510.998 694.509 510.735 694.773 510.21 694.773C509.684 694.773 509.422 694.509 509.422 693.981C509.422 693.452 509.684 693.188 510.21 693.188C510.735 693.188 510.998 693.452 510.998 693.981ZM515.928 699.057C515.928 699.504 515.705 699.728 515.26 699.728C514.814 699.728 514.592 699.504 514.592 699.057C514.592 698.609 514.814 698.385 515.26 698.385C515.705 698.385 515.928 698.609 515.928 699.057ZM510.958 695.673C510.958 696.174 510.709 696.425 510.21 696.425C509.711 696.425 509.462 696.174 509.462 695.673C509.462 695.171 509.711 694.921 510.21 694.921C510.709 694.921 510.958 695.171 510.958 695.673ZM510.918 697.365C510.918 697.839 510.682 698.076 510.21 698.076C509.738 698.076 509.502 697.839 509.502 697.365C509.502 696.89 509.738 696.653 510.21 696.653C510.682 696.653 510.918 696.89 510.918 697.365ZM514.204 700.749C514.204 701.169 513.995 701.38 513.576 701.38C513.158 701.38 512.949 701.169 512.949 700.749C512.949 700.328 513.158 700.117 513.576 700.117C513.995 700.117 514.204 700.328 514.204 700.749ZM515.848 702.441C515.848 702.834 515.652 703.031 515.26 703.031C514.868 703.031 514.672 702.834 514.672 702.441C514.672 702.047 514.868 701.85 515.26 701.85C515.652 701.85 515.848 702.047 515.848 702.441ZM517.491 704.133C517.491 704.509 517.308 704.697 516.943 704.697C516.578 704.697 516.395 704.509 516.395 704.133C516.395 703.766 516.578 703.582 516.943 703.582C517.308 703.582 517.491 703.766 517.491 704.133ZM510.878 699.057C510.878 699.504 510.655 699.728 510.21 699.728C509.765 699.728 509.542 699.504 509.542 699.057C509.542 698.609 509.765 698.385 510.21 698.385C510.655 698.385 510.878 698.609 510.878 699.057ZM512.521 700.749C512.521 701.169 512.312 701.38 511.893 701.38C511.475 701.38 511.265 701.169 511.265 700.749C511.265 700.328 511.475 700.117 511.893 700.117C512.312 700.117 512.521 700.328 512.521 700.749ZM510.838 700.749C510.838 701.169 510.628 701.38 510.21 701.38C509.791 701.38 509.582 701.169 509.582 700.749C509.582 700.328 509.791 700.117 510.21 700.117C510.628 700.117 510.838 700.328 510.838 700.749ZM510.798 702.441C510.798 702.834 510.602 703.031 510.21 703.031C509.818 703.031 509.622 702.834 509.622 702.441C509.622 702.047 509.818 701.85 510.21 701.85C510.602 701.85 510.798 702.047 510.798 702.441ZM510.758 704.133C510.758 704.509 510.575 704.697 510.21 704.697C509.845 704.697 509.662 704.509 509.662 704.133C509.662 703.766 509.845 703.582 510.21 703.582C510.575 703.582 510.758 703.766 510.758 704.133Z" fill="black"/>
<path d="M523.98 693.981C523.98 694.509 523.717 694.773 523.192 694.773C522.666 694.773 522.403 694.509 522.403 693.981C522.403 693.452 522.666 693.188 523.192 693.188C523.717 693.188 523.98 693.452 523.98 693.981ZM523.9 697.365C523.9 697.839 523.664 698.076 523.192 698.076C522.719 698.076 522.483 697.839 522.483 697.365C522.483 696.89 522.719 696.653 523.192 696.653C523.664 696.653 523.9 696.89 523.9 697.365ZM522.216 697.365C522.216 697.839 521.98 698.076 521.508 698.076C521.036 698.076 520.8 697.839 520.8 697.365C520.8 696.89 521.036 696.653 521.508 696.653C521.98 696.653 522.216 696.89 522.216 697.365ZM523.859 699.057C523.859 699.504 523.637 699.728 523.192 699.728C522.746 699.728 522.524 699.504 522.524 699.057C522.524 698.609 522.746 698.385 523.192 698.385C523.637 698.385 523.859 698.609 523.859 699.057ZM523.819 700.749C523.819 701.169 523.61 701.38 523.192 701.38C522.773 701.38 522.564 701.169 522.564 700.749C522.564 700.328 522.773 700.117 523.192 700.117C523.61 700.117 523.819 700.328 523.819 700.749ZM523.779 702.441C523.779 702.834 523.583 703.031 523.192 703.031C522.8 703.031 522.604 702.834 522.604 702.441C522.604 702.047 522.8 701.85 523.192 701.85C523.583 701.85 523.779 702.047 523.779 702.441ZM525.423 704.133C525.423 704.509 525.24 704.697 524.875 704.697C524.51 704.697 524.327 704.509 524.327 704.133C524.327 703.766 524.51 703.582 524.875 703.582C525.24 703.582 525.423 703.766 525.423 704.133ZM523.739 704.133C523.739 704.509 523.557 704.697 523.192 704.697C522.826 704.697 522.644 704.509 522.644 704.133C522.644 703.766 522.826 703.582 523.192 703.582C523.557 703.582 523.739 703.766 523.739 704.133ZM522.056 704.133C522.056 704.509 521.873 704.697 521.508 704.697C521.143 704.697 520.96 704.509 520.96 704.133C520.96 703.766 521.143 703.582 521.508 703.582C521.873 703.582 522.056 703.766 522.056 704.133Z" fill="black"/>
<path d="M536.881 697.365C536.881 697.839 536.645 698.076 536.173 698.076C535.701 698.076 535.465 697.839 535.465 697.365C535.465 696.89 535.701 696.653 536.173 696.653C536.645 696.653 536.881 696.89 536.881 697.365ZM531.911 693.981C531.911 694.509 531.649 694.773 531.123 694.773C530.598 694.773 530.335 694.509 530.335 693.981C530.335 693.452 530.598 693.188 531.123 693.188C531.649 693.188 531.911 693.452 531.911 693.981ZM535.198 697.365C535.198 697.839 534.962 698.076 534.49 698.076C534.018 698.076 533.782 697.839 533.782 697.365C533.782 696.89 534.018 696.653 534.49 696.653C534.962 696.653 535.198 696.89 535.198 697.365ZM531.871 695.673C531.871 696.174 531.622 696.425 531.123 696.425C530.625 696.425 530.375 696.174 530.375 695.673C530.375 695.171 530.625 694.921 531.123 694.921C531.622 694.921 531.871 695.171 531.871 695.673ZM533.515 697.365C533.515 697.839 533.279 698.076 532.807 698.076C532.335 698.076 532.099 697.839 532.099 697.365C532.099 696.89 532.335 696.653 532.807 696.653C533.279 696.653 533.515 696.89 533.515 697.365ZM531.831 697.365C531.831 697.839 531.595 698.076 531.123 698.076C530.651 698.076 530.415 697.839 530.415 697.365C530.415 696.89 530.651 696.653 531.123 696.653C531.595 696.653 531.831 696.89 531.831 697.365ZM536.761 702.441C536.761 702.834 536.565 703.031 536.173 703.031C535.781 703.031 535.585 702.834 535.585 702.441C535.585 702.047 535.781 701.85 536.173 701.85C536.565 701.85 536.761 702.047 536.761 702.441ZM530.148 697.365C530.148 697.839 529.912 698.076 529.44 698.076C528.968 698.076 528.732 697.839 528.732 697.365C528.732 696.89 528.968 696.653 529.44 696.653C529.912 696.653 530.148 696.89 530.148 697.365ZM531.791 699.057C531.791 699.504 531.569 699.728 531.123 699.728C530.678 699.728 530.455 699.504 530.455 699.057C530.455 698.609 530.678 698.385 531.123 698.385C531.569 698.385 531.791 698.609 531.791 699.057ZM531.751 700.749C531.751 701.169 531.542 701.38 531.123 701.38C530.705 701.38 530.495 701.169 530.495 700.749C530.495 700.328 530.705 700.117 531.123 700.117C531.542 700.117 531.751 700.328 531.751 700.749ZM535.038 704.133C535.038 704.509 534.855 704.697 534.49 704.697C534.125 704.697 533.942 704.509 533.942 704.133C533.942 703.766 534.125 703.582 534.49 703.582C534.855 703.582 535.038 703.766 535.038 704.133ZM533.354 704.133C533.354 704.509 533.172 704.697 532.807 704.697C532.441 704.697 532.259 704.509 532.259 704.133C532.259 703.766 532.441 703.582 532.807 703.582C533.172 703.582 533.354 703.766 533.354 704.133ZM531.711 702.441C531.711 702.834 531.515 703.031 531.123 703.031C530.731 703.031 530.535 702.834 530.535 702.441C530.535 702.047 530.731 701.85 531.123 701.85C531.515 701.85 531.711 702.047 531.711 702.441Z" fill="black"/>
<path d="M546.496 697.365C546.496 697.839 546.26 698.076 545.788 698.076C545.316 698.076 545.08 697.839 545.08 697.365C545.08 696.89 545.316 696.653 545.788 696.653C546.26 696.653 546.496 696.89 546.496 697.365ZM541.527 693.981C541.527 694.509 541.264 694.773 540.738 694.773C540.213 694.773 539.95 694.509 539.95 693.981C539.95 693.452 540.213 693.188 540.738 693.188C541.264 693.188 541.527 693.452 541.527 693.981ZM544.813 697.365C544.813 697.839 544.577 698.076 544.105 698.076C543.633 698.076 543.397 697.839 543.397 697.365C543.397 696.89 543.633 696.653 544.105 696.653C544.577 696.653 544.813 696.89 544.813 697.365ZM541.486 695.673C541.486 696.174 541.237 696.425 540.738 696.425C540.24 696.425 539.99 696.174 539.99 695.673C539.99 695.171 540.24 694.921 540.738 694.921C541.237 694.921 541.486 695.171 541.486 695.673ZM543.13 697.365C543.13 697.839 542.894 698.076 542.422 698.076C541.95 698.076 541.714 697.839 541.714 697.365C541.714 696.89 541.95 696.653 542.422 696.653C542.894 696.653 543.13 696.89 543.13 697.365ZM541.446 697.365C541.446 697.839 541.21 698.076 540.738 698.076C540.266 698.076 540.03 697.839 540.03 697.365C540.03 696.89 540.266 696.653 540.738 696.653C541.21 696.653 541.446 696.89 541.446 697.365ZM546.376 702.441C546.376 702.834 546.18 703.031 545.788 703.031C545.396 703.031 545.2 702.834 545.2 702.441C545.2 702.047 545.396 701.85 545.788 701.85C546.18 701.85 546.376 702.047 546.376 702.441ZM539.763 697.365C539.763 697.839 539.527 698.076 539.055 698.076C538.583 698.076 538.347 697.839 538.347 697.365C538.347 696.89 538.583 696.653 539.055 696.653C539.527 696.653 539.763 696.89 539.763 697.365ZM541.406 699.057C541.406 699.504 541.184 699.728 540.738 699.728C540.293 699.728 540.07 699.504 540.07 699.057C540.07 698.609 540.293 698.385 540.738 698.385C541.184 698.385 541.406 698.609 541.406 699.057ZM541.366 700.749C541.366 701.169 541.157 701.38 540.738 701.38C540.32 701.38 540.11 701.169 540.11 700.749C540.11 700.328 540.32 700.117 540.738 700.117C541.157 700.117 541.366 700.328 541.366 700.749ZM544.653 704.133C544.653 704.509 544.47 704.697 544.105 704.697C543.74 704.697 543.557 704.509 543.557 704.133C543.557 703.766 543.74 703.582 544.105 703.582C544.47 703.582 544.653 703.766 544.653 704.133ZM542.969 704.133C542.969 704.509 542.787 704.697 542.422 704.697C542.056 704.697 541.874 704.509 541.874 704.133C541.874 703.766 542.056 703.582 542.422 703.582C542.787 703.582 542.969 703.766 542.969 704.133ZM541.326 702.441C541.326 702.834 541.13 703.031 540.738 703.031C540.346 703.031 540.151 702.834 540.151 702.441C540.151 702.047 540.346 701.85 540.738 701.85C541.13 701.85 541.326 702.047 541.326 702.441Z" fill="black"/>
<path d="M556.111 697.365C556.111 697.839 555.875 698.076 555.403 698.076C554.931 698.076 554.695 697.839 554.695 697.365C554.695 696.89 554.931 696.653 555.403 696.653C555.875 696.653 556.111 696.89 556.111 697.365ZM556.071 699.057C556.071 699.504 555.849 699.728 555.403 699.728C554.958 699.728 554.735 699.504 554.735 699.057C554.735 698.609 554.958 698.385 555.403 698.385C555.849 698.385 556.071 698.609 556.071 699.057ZM556.031 700.749C556.031 701.169 555.822 701.38 555.403 701.38C554.985 701.38 554.775 701.169 554.775 700.749C554.775 700.328 554.985 700.117 555.403 700.117C555.822 700.117 556.031 700.328 556.031 700.749ZM555.991 702.441C555.991 702.834 555.795 703.031 555.403 703.031C555.011 703.031 554.815 702.834 554.815 702.441C554.815 702.047 555.011 701.85 555.403 701.85C555.795 701.85 555.991 702.047 555.991 702.441ZM549.378 697.365C549.378 697.839 549.142 698.076 548.67 698.076C548.198 698.076 547.962 697.839 547.962 697.365C547.962 696.89 548.198 696.653 548.67 696.653C549.142 696.653 549.378 696.89 549.378 697.365ZM555.951 704.133C555.951 704.509 555.768 704.697 555.403 704.697C555.038 704.697 554.855 704.509 554.855 704.133C554.855 703.766 555.038 703.582 555.403 703.582C555.768 703.582 555.951 703.766 555.951 704.133ZM549.338 699.057C549.338 699.504 549.115 699.728 548.67 699.728C548.225 699.728 548.002 699.504 548.002 699.057C548.002 698.609 548.225 698.385 548.67 698.385C549.115 698.385 549.338 698.609 549.338 699.057ZM554.268 704.133C554.268 704.509 554.085 704.697 553.72 704.697C553.355 704.697 553.172 704.509 553.172 704.133C553.172 703.766 553.355 703.582 553.72 703.582C554.085 703.582 554.268 703.766 554.268 704.133ZM549.298 700.749C549.298 701.169 549.089 701.38 548.67 701.38C548.252 701.38 548.042 701.169 548.042 700.749C548.042 700.328 548.252 700.117 548.67 700.117C549.089 700.117 549.298 700.328 549.298 700.749ZM552.584 704.133C552.584 704.509 552.402 704.697 552.037 704.697C551.672 704.697 551.489 704.509 551.489 704.133C551.489 703.766 551.672 703.582 552.037 703.582C552.402 703.582 552.584 703.766 552.584 704.133ZM549.258 702.441C549.258 702.834 549.062 703.031 548.67 703.031C548.278 703.031 548.082 702.834 548.082 702.441C548.082 702.047 548.278 701.85 548.67 701.85C549.062 701.85 549.258 702.047 549.258 702.441ZM550.901 704.133C550.901 704.509 550.719 704.697 550.353 704.697C549.988 704.697 549.806 704.509 549.806 704.133C549.806 703.766 549.988 703.582 550.353 703.582C550.719 703.582 550.901 703.766 550.901 704.133ZM555.911 705.825C555.911 706.174 555.742 706.348 555.403 706.348C555.065 706.348 554.896 706.174 554.896 705.825C554.896 705.484 555.065 705.314 555.403 705.314C555.742 705.314 555.911 705.484 555.911 705.825ZM554.188 707.517C554.188 707.839 554.032 708 553.72 708C553.408 708 553.252 707.839 553.252 707.517C553.252 707.203 553.408 707.047 553.72 707.047C554.032 707.047 554.188 707.203 554.188 707.517ZM552.504 707.517C552.504 707.839 552.348 708 552.037 708C551.725 708 551.569 707.839 551.569 707.517C551.569 707.203 551.725 707.047 552.037 707.047C552.348 707.047 552.504 707.203 552.504 707.517ZM550.821 707.517C550.821 707.839 550.665 708 550.353 708C550.042 708 549.886 707.839 549.886 707.517C549.886 707.203 550.042 707.047 550.353 707.047C550.665 707.047 550.821 707.203 550.821 707.517Z" fill="black"/>
<path d="M511.973 672.213C511.332 672.213 510.758 672.056 510.25 671.743C509.751 671.421 509.355 670.986 509.061 670.44C508.767 669.885 508.62 669.254 508.62 668.547C508.62 667.84 508.763 667.213 509.048 666.667C509.342 666.112 509.738 665.678 510.237 665.364C510.735 665.042 511.301 664.881 511.933 664.881C512.281 664.881 512.615 664.939 512.935 665.055C513.265 665.163 513.559 665.315 513.817 665.512C514.075 665.7 514.276 665.91 514.418 666.143C514.569 666.367 514.645 666.595 514.645 666.828L514.244 666.855V662.141H515.62V672.079H514.244V670.4H514.512C514.512 670.615 514.44 670.83 514.298 671.045C514.155 671.25 513.964 671.443 513.723 671.622C513.492 671.801 513.22 671.944 512.908 672.052C512.606 672.159 512.294 672.213 511.973 672.213ZM512.16 671.018C512.579 671.018 512.949 670.91 513.269 670.695C513.59 670.481 513.839 670.19 514.017 669.823C514.204 669.447 514.298 669.021 514.298 668.547C514.298 668.072 514.204 667.652 514.017 667.285C513.839 666.909 513.59 666.613 513.269 666.398C512.949 666.183 512.579 666.076 512.16 666.076C511.742 666.076 511.372 666.183 511.052 666.398C510.731 666.613 510.477 666.909 510.29 667.285C510.112 667.652 510.023 668.072 510.023 668.547C510.023 669.021 510.112 669.447 510.29 669.823C510.477 670.19 510.731 670.481 511.052 670.695C511.372 670.91 511.742 671.018 512.16 671.018Z" fill="black"/>
<path d="M520.788 672.213C520.066 672.213 519.425 672.061 518.864 671.756C518.312 671.443 517.875 671.018 517.555 670.481C517.243 669.943 517.087 669.326 517.087 668.627C517.087 668.072 517.176 667.567 517.354 667.11C517.532 666.653 517.777 666.26 518.089 665.928C518.41 665.588 518.788 665.328 519.225 665.149C519.67 664.961 520.151 664.867 520.667 664.867C521.122 664.867 521.545 664.957 521.937 665.136C522.328 665.306 522.667 665.543 522.952 665.848C523.246 666.152 523.468 666.515 523.62 666.935C523.78 667.347 523.856 667.799 523.847 668.292L523.834 668.883H518.102L517.795 667.781H522.645L522.444 668.01V667.687C522.417 667.392 522.32 667.128 522.15 666.895C521.981 666.662 521.767 666.479 521.509 666.345C521.251 666.21 520.97 666.143 520.667 666.143C520.186 666.143 519.781 666.237 519.452 666.425C519.122 666.604 518.873 666.873 518.704 667.231C518.534 667.58 518.45 668.014 518.45 668.533C518.45 669.026 518.552 669.456 518.757 669.823C518.962 670.181 519.251 670.458 519.625 670.655C519.999 670.852 520.431 670.951 520.921 670.951C521.269 670.951 521.589 670.892 521.883 670.776C522.186 670.66 522.511 670.449 522.858 670.145L523.553 671.125C523.339 671.34 523.077 671.528 522.765 671.689C522.462 671.85 522.137 671.98 521.79 672.079C521.451 672.168 521.117 672.213 520.788 672.213Z" fill="black"/>
<path d="M527.68 672.213C527.092 672.213 526.563 672.11 526.09 671.904C525.618 671.698 525.227 671.394 524.915 670.991L525.85 670.185C526.117 670.498 526.407 670.727 526.718 670.87C527.039 671.004 527.4 671.071 527.8 671.071C527.961 671.071 528.108 671.054 528.241 671.018C528.384 670.973 528.504 670.91 528.602 670.83C528.709 670.749 528.789 670.655 528.842 670.548C528.896 670.431 528.923 670.306 528.923 670.172C528.923 669.939 528.838 669.751 528.669 669.608C528.58 669.545 528.437 669.478 528.241 669.406C528.054 669.326 527.809 669.245 527.507 669.165C526.99 669.03 526.567 668.878 526.237 668.708C525.908 668.538 525.654 668.345 525.476 668.131C525.342 667.96 525.244 667.777 525.182 667.58C525.12 667.374 525.089 667.15 525.089 666.909C525.089 666.613 525.151 666.345 525.276 666.103C525.409 665.852 525.587 665.637 525.81 665.458C526.041 665.27 526.309 665.127 526.611 665.029C526.923 664.93 527.253 664.881 527.6 664.881C527.93 664.881 528.255 664.926 528.575 665.015C528.905 665.105 529.208 665.234 529.484 665.405C529.76 665.575 529.991 665.776 530.178 666.009L529.39 666.882C529.221 666.712 529.034 666.564 528.829 666.439C528.633 666.304 528.433 666.201 528.228 666.13C528.023 666.058 527.836 666.022 527.667 666.022C527.48 666.022 527.311 666.04 527.159 666.076C527.008 666.112 526.879 666.166 526.772 666.237C526.674 666.309 526.598 666.398 526.545 666.506C526.491 666.613 526.465 666.734 526.465 666.868C526.473 666.985 526.5 667.097 526.545 667.204C526.598 667.302 526.669 667.388 526.758 667.459C526.856 667.531 527.003 667.607 527.199 667.687C527.395 667.768 527.645 667.844 527.947 667.916C528.393 668.032 528.758 668.162 529.043 668.305C529.337 668.439 529.568 668.596 529.738 668.775C529.916 668.945 530.04 669.142 530.112 669.366C530.183 669.59 530.219 669.84 530.219 670.118C530.219 670.521 530.103 670.883 529.871 671.206C529.649 671.519 529.346 671.765 528.963 671.944C528.58 672.123 528.152 672.213 527.68 672.213Z" fill="black"/>
<path d="M531.962 672.079V665.029H533.338V672.079H531.962ZM532.63 663.471C532.336 663.471 532.109 663.395 531.949 663.243C531.788 663.09 531.708 662.876 531.708 662.598C531.708 662.338 531.788 662.128 531.949 661.967C532.118 661.806 532.345 661.725 532.63 661.725C532.924 661.725 533.151 661.801 533.311 661.953C533.472 662.106 533.552 662.32 533.552 662.598C533.552 662.858 533.467 663.068 533.298 663.229C533.138 663.39 532.915 663.471 532.63 663.471Z" fill="black"/>
<path d="M538.593 675.167C538.094 675.167 537.595 675.087 537.096 674.925C536.607 674.773 536.21 674.572 535.907 674.321L536.415 673.247C536.593 673.381 536.802 673.498 537.043 673.596C537.283 673.703 537.537 673.784 537.804 673.838C538.072 673.9 538.334 673.932 538.593 673.932C539.082 673.932 539.492 673.851 539.822 673.69C540.151 673.529 540.401 673.292 540.57 672.978C540.739 672.665 540.824 672.276 540.824 671.81V670.454L540.971 670.548C540.926 670.825 540.779 671.094 540.53 671.353C540.289 671.604 539.986 671.81 539.621 671.971C539.256 672.132 538.882 672.213 538.499 672.213C537.831 672.213 537.234 672.056 536.709 671.743C536.192 671.421 535.783 670.986 535.48 670.44C535.177 669.885 535.026 669.254 535.026 668.547C535.026 667.84 535.173 667.213 535.467 666.667C535.769 666.112 536.179 665.678 536.696 665.364C537.221 665.042 537.809 664.881 538.459 664.881C538.726 664.881 538.984 664.917 539.234 664.988C539.483 665.051 539.715 665.145 539.929 665.27C540.142 665.387 540.334 665.516 540.503 665.66C540.672 665.803 540.81 665.955 540.917 666.116C541.024 666.277 541.091 666.43 541.118 666.573L540.824 666.68V665.029H542.2V671.649C542.2 672.213 542.115 672.71 541.946 673.139C541.785 673.578 541.549 673.945 541.238 674.241C540.926 674.545 540.548 674.773 540.102 674.925C539.657 675.087 539.154 675.167 538.593 675.167ZM538.646 670.937C539.082 670.937 539.47 670.834 539.808 670.628C540.147 670.422 540.409 670.14 540.597 669.782C540.784 669.424 540.877 669.012 540.877 668.547C540.877 668.081 540.779 667.67 540.583 667.311C540.396 666.944 540.133 666.658 539.795 666.452C539.465 666.246 539.082 666.143 538.646 666.143C538.219 666.143 537.836 666.251 537.497 666.465C537.168 666.671 536.905 666.958 536.709 667.325C536.522 667.683 536.428 668.09 536.428 668.547C536.428 669.003 536.522 669.415 536.709 669.782C536.905 670.14 537.168 670.422 537.497 670.628C537.836 670.834 538.219 670.937 538.646 670.937Z" fill="black"/>
<path d="M544.129 672.079V665.029H545.505V666.479L545.264 666.64C545.354 666.327 545.527 666.04 545.785 665.781C546.044 665.512 546.351 665.297 546.707 665.136C547.063 664.966 547.429 664.881 547.803 664.881C548.337 664.881 548.782 664.988 549.139 665.203C549.495 665.409 549.762 665.727 549.94 666.157C550.118 666.586 550.207 667.128 550.207 667.781V672.079H548.831V667.875C548.831 667.473 548.778 667.141 548.671 666.882C548.564 666.613 548.399 666.421 548.177 666.304C547.954 666.179 547.678 666.125 547.348 666.143C547.081 666.143 546.836 666.188 546.614 666.277C546.391 666.358 546.195 666.474 546.026 666.627C545.866 666.779 545.736 666.958 545.638 667.164C545.549 667.361 545.505 667.576 545.505 667.808V672.079H544.824C544.708 672.079 544.592 672.079 544.476 672.079C544.36 672.079 544.245 672.079 544.129 672.079Z" fill="black"/>
<path d="M555.347 672.213C554.626 672.213 553.984 672.061 553.423 671.756C552.871 671.443 552.435 671.018 552.114 670.481C551.802 669.943 551.647 669.326 551.647 668.627C551.647 668.072 551.736 667.567 551.914 667.11C552.092 666.653 552.337 666.26 552.648 665.928C552.969 665.588 553.348 665.328 553.784 665.149C554.229 664.961 554.71 664.867 555.227 664.867C555.681 664.867 556.104 664.957 556.496 665.136C556.888 665.306 557.226 665.543 557.511 665.848C557.805 666.152 558.028 666.515 558.179 666.935C558.34 667.347 558.415 667.799 558.406 668.292L558.393 668.883H552.662L552.355 667.781H557.204L557.004 668.01V667.687C556.977 667.392 556.879 667.128 556.71 666.895C556.541 666.662 556.327 666.479 556.068 666.345C555.81 666.21 555.53 666.143 555.227 666.143C554.746 666.143 554.341 666.237 554.011 666.425C553.682 666.604 553.432 666.873 553.263 667.231C553.094 667.58 553.009 668.014 553.009 668.533C553.009 669.026 553.112 669.456 553.316 669.823C553.521 670.181 553.811 670.458 554.185 670.655C554.559 670.852 554.991 670.951 555.481 670.951C555.828 670.951 556.149 670.892 556.443 670.776C556.745 670.66 557.07 670.449 557.418 670.145L558.112 671.125C557.899 671.34 557.636 671.528 557.324 671.689C557.021 671.85 556.696 671.98 556.349 672.079C556.011 672.168 555.677 672.213 555.347 672.213Z" fill="black"/>
<path d="M562.827 672.213C562.186 672.213 561.612 672.056 561.104 671.743C560.605 671.421 560.209 670.986 559.915 670.44C559.621 669.885 559.474 669.254 559.474 668.547C559.474 667.84 559.617 667.213 559.902 666.667C560.196 666.112 560.592 665.678 561.091 665.364C561.589 665.042 562.155 664.881 562.787 664.881C563.135 664.881 563.469 664.939 563.789 665.055C564.119 665.163 564.413 665.315 564.671 665.512C564.929 665.7 565.13 665.91 565.272 666.143C565.424 666.367 565.499 666.595 565.499 666.828L565.099 666.855V662.141H566.475V672.079H565.099V670.4H565.366C565.366 670.615 565.294 670.83 565.152 671.045C565.009 671.25 564.818 671.443 564.578 671.622C564.346 671.801 564.074 671.944 563.763 672.052C563.46 672.159 563.148 672.213 562.827 672.213ZM563.014 671.018C563.433 671.018 563.803 670.91 564.123 670.695C564.444 670.481 564.693 670.19 564.871 669.823C565.058 669.447 565.152 669.021 565.152 668.547C565.152 668.072 565.058 667.652 564.871 667.285C564.693 666.909 564.444 666.613 564.123 666.398C563.803 666.183 563.433 666.076 563.014 666.076C562.596 666.076 562.226 666.183 561.906 666.398C561.585 666.613 561.331 666.909 561.144 667.285C560.966 667.652 560.877 668.072 560.877 668.547C560.877 669.021 560.966 669.447 561.144 669.823C561.331 670.19 561.585 670.481 561.906 670.695C562.226 670.91 562.596 671.018 563.014 671.018Z" fill="black"/>
<path d="M575.8 672.213C575.497 672.213 575.195 672.164 574.892 672.065C574.598 671.967 574.326 671.837 574.077 671.676C573.836 671.506 573.632 671.322 573.462 671.125C573.302 670.919 573.195 670.713 573.142 670.507L573.489 670.319V672.038H572.113V662.141H573.489V666.64L573.275 666.519C573.32 666.313 573.418 666.116 573.569 665.928C573.721 665.731 573.912 665.557 574.144 665.405C574.384 665.243 574.642 665.118 574.918 665.029C575.195 664.93 575.475 664.881 575.76 664.881C576.392 664.881 576.954 665.038 577.443 665.351C577.933 665.664 578.321 666.098 578.606 666.653C578.891 667.2 579.033 667.826 579.033 668.533C579.033 669.241 578.891 669.872 578.606 670.427C578.33 670.982 577.947 671.421 577.457 671.743C576.967 672.056 576.415 672.213 575.8 672.213ZM575.573 670.951C575.983 670.951 576.348 670.848 576.669 670.642C576.989 670.427 577.243 670.14 577.43 669.782C577.617 669.415 577.711 668.999 577.711 668.533C577.711 668.077 577.617 667.67 577.43 667.311C577.252 666.944 577.003 666.658 576.682 666.452C576.361 666.246 575.992 666.143 575.573 666.143C575.154 666.143 574.785 666.246 574.464 666.452C574.144 666.658 573.89 666.944 573.703 667.311C573.516 667.67 573.422 668.077 573.422 668.533C573.422 668.999 573.516 669.415 573.703 669.782C573.89 670.14 574.144 670.427 574.464 670.642C574.785 670.848 575.154 670.951 575.573 670.951Z" fill="black"/>
<path d="M581.443 675.167L582.859 671.877L582.872 672.978L579.372 665.029H580.975L583.166 670.212C583.21 670.302 583.264 670.44 583.326 670.628C583.389 670.807 583.442 670.986 583.486 671.165L583.139 671.246C583.21 671.058 583.277 670.87 583.34 670.682C583.411 670.494 583.478 670.306 583.54 670.118L585.37 665.029H587L584.114 672.079L582.925 675.167H581.443Z" fill="black"/>
<line x1="435.5" y1="650" x2="435.5" y2="719" stroke="black" stroke-width="5"/>
<g clip-path="url(#clip0_302_2211)">
<path d="M360.183 672.732L354.551 671.685C354.414 671.66 354.264 671.531 354.218 671.399L352.492 667.371C352.428 667.247 352.44 667.052 352.519 666.936L355.8 662.154C355.879 662.039 355.863 661.864 355.764 661.765L351.666 657.667C351.567 657.568 351.393 657.552 351.278 657.631L346.412 660.97C346.297 661.049 346.099 661.063 345.974 661.002L342.071 659.404C341.938 659.36 341.809 659.212 341.783 659.074L340.699 653.25C340.673 653.112 340.538 653 340.398 653H334.602C334.463 653 334.328 653.112 334.302 653.25L333.218 659.074C333.192 659.212 333.064 659.36 332.931 659.404L329.027 661.002C328.901 661.063 328.704 661.049 328.589 660.97L323.724 657.631C323.608 657.552 323.433 657.568 323.335 657.667L319.236 661.765C319.138 661.864 319.121 662.039 319.2 662.154L322.482 666.936C322.56 667.052 322.573 667.247 322.509 667.371L320.782 671.399C320.736 671.531 320.587 671.66 320.449 671.685L314.818 672.732C314.68 672.758 314.568 672.893 314.568 673.033L314.569 678.829C314.569 678.969 314.681 679.105 314.818 679.13L320.311 680.152C320.449 680.177 320.596 680.307 320.637 680.441L322.352 684.724C322.413 684.85 322.399 685.046 322.32 685.162L319.2 689.708C319.121 689.823 319.137 689.999 319.236 690.098L323.334 694.196C323.433 694.294 323.608 694.31 323.723 694.232L328.189 691.166C328.305 691.087 328.497 691.081 328.618 691.151L330.587 692.203C330.712 692.267 330.858 692.213 330.911 692.084L334.972 682.271C335.026 682.142 334.972 681.977 334.853 681.904L334.36 681.602C334.269 681.547 334.145 681.451 334.048 681.363C332.27 680.225 331.091 678.233 331.091 675.964C331.091 672.424 333.96 669.555 337.5 669.555C341.04 669.555 343.909 672.424 343.909 675.964C343.909 678.233 342.73 680.225 340.951 681.363C340.855 681.451 340.731 681.547 340.64 681.602L340.147 681.904C340.029 681.977 339.975 682.142 340.028 682.271L344.089 692.084C344.142 692.213 344.288 692.267 344.413 692.203L346.382 691.152C346.503 691.082 346.695 691.087 346.81 691.167L351.277 694.232C351.392 694.31 351.567 694.294 351.666 694.196L355.764 690.098C355.863 689.999 355.879 689.824 355.8 689.709L352.68 685.162C352.601 685.047 352.587 684.85 352.648 684.724L354.363 680.441C354.405 680.308 354.551 680.177 354.688 680.152L360.181 679.13C360.318 679.105 360.431 678.969 360.431 678.829L360.432 673.034C360.432 672.893 360.32 672.758 360.183 672.732Z" fill="black"/>
<path fill-rule="evenodd" clip-rule="evenodd" d="M323.619 714.927H324.857V710.729C324.857 709.213 323.814 708.703 322.297 708.703C321.375 708.703 320.696 708.946 320.223 709.601L321.193 710.341C321.411 709.989 321.715 709.867 322.358 709.867C323.243 709.867 323.619 710.074 323.619 710.656V711.299H321.909C320.587 711.299 319.907 712.137 319.907 713.119C319.907 714.187 320.708 715 322.079 715C322.916 715 323.341 714.806 323.595 714.381H323.619V714.927ZM323.619 712.767C323.619 713.726 323.268 713.835 322.237 713.835C321.399 713.835 321.072 713.471 321.072 713.059C321.072 712.61 321.411 712.318 322.14 712.318H323.619V712.767V712.767Z" fill="black"/>
<path fill-rule="evenodd" clip-rule="evenodd" d="M326.216 714.927H327.453V711.226C327.453 710.329 328.048 709.94 328.654 709.94C328.97 709.94 329.176 710.025 329.467 710.244L330.365 709.177C329.989 708.885 329.577 708.703 329.079 708.703C328.424 708.703 327.866 708.946 327.477 709.431H327.453V708.776H326.216V714.927Z" fill="black"/>
<path fill-rule="evenodd" clip-rule="evenodd" d="M334.067 714.927H335.304V706.289H334.067V709.432C333.605 708.995 333.108 708.704 332.477 708.704C331.725 708.704 331.179 709.043 330.827 709.504C330.488 709.941 330.391 710.341 330.391 711.846C330.391 713.362 330.488 713.762 330.827 714.199C331.179 714.66 331.725 715 332.477 715C333.108 715 333.678 714.708 334.067 714.284V714.927ZM332.853 709.941C334.006 709.941 334.067 710.96 334.067 711.846C334.067 712.744 334.006 713.762 332.853 713.762C331.689 713.762 331.628 712.804 331.628 711.846C331.628 710.899 331.689 709.941 332.853 709.941Z" fill="black"/>
<path fill-rule="evenodd" clip-rule="evenodd" d="M341.619 714.927H342.711L344.676 708.776H343.366L342.19 713.083H342.165L340.77 708.776H339.872L338.477 713.083H338.453L337.276 708.776H335.966L337.931 714.927H339.023L340.309 710.62H340.333L341.619 714.927Z" fill="black"/>
<path fill-rule="evenodd" clip-rule="evenodd" d="M348.484 714.927H349.722V710.729C349.722 709.213 348.678 708.703 347.162 708.703C346.24 708.703 345.56 708.946 345.087 709.601L346.058 710.341C346.276 709.989 346.579 709.867 347.222 709.867C348.108 709.867 348.484 710.074 348.484 710.656V711.299H346.773C345.451 711.299 344.771 712.137 344.771 713.119C344.771 714.187 345.572 715 346.943 715C347.78 715 348.205 714.806 348.46 714.381H348.484V714.927H348.484ZM348.484 712.767C348.484 713.726 348.133 713.835 347.102 713.835C346.265 713.835 345.937 713.471 345.937 713.059C345.937 712.61 346.277 712.318 347.005 712.318H348.484V712.767Z" fill="black"/>
<path fill-rule="evenodd" clip-rule="evenodd" d="M351.082 714.927H352.319V711.226C352.319 710.329 352.913 709.94 353.52 709.94C353.836 709.94 354.042 710.025 354.333 710.244L355.231 709.177C354.855 708.885 354.442 708.703 353.945 708.703C353.29 708.703 352.732 708.946 352.344 709.431H352.319V708.776H351.082V714.927V714.927Z" fill="black"/>
<path fill-rule="evenodd" clip-rule="evenodd" d="M360.323 712.319V711.299C360.323 709.71 359.147 708.703 357.788 708.703C356.599 708.703 355.253 709.479 355.253 711.869C355.253 714.393 356.721 715 357.983 715C358.808 715 359.596 714.709 360.202 714.005L359.305 713.24C358.94 713.617 358.431 713.835 357.958 713.835C357.109 713.835 356.491 713.325 356.491 712.319H360.323ZM356.491 711.299C356.515 710.365 357.061 709.868 357.788 709.868C358.516 709.868 359.05 710.365 359.086 711.299H356.491Z" fill="black"/>
<path fill-rule="evenodd" clip-rule="evenodd" d="M308 702.131C308 703.465 308.194 703.975 308.667 704.496C309.007 704.872 309.577 705.284 310.536 705.284C311.494 705.284 312.064 704.872 312.404 704.496C312.877 703.975 313.071 703.465 313.071 702.131C313.071 700.808 312.877 700.299 312.404 699.777C312.064 699.401 311.494 698.988 310.536 698.988C309.577 698.988 309.007 699.401 308.667 699.777C308.194 700.299 308 700.808 308 702.131ZM311.833 702.143C311.833 703.028 311.761 703.271 311.53 703.598C311.348 703.853 310.96 704.048 310.536 704.048C310.111 704.048 309.723 703.854 309.541 703.598C309.31 703.271 309.237 703.028 309.237 702.131C309.237 701.245 309.31 701.002 309.541 700.675C309.723 700.42 310.111 700.226 310.536 700.226C310.96 700.226 311.348 700.42 311.53 700.675C311.761 701.002 311.833 701.245 311.833 702.143Z" fill="black"/>
<path fill-rule="evenodd" clip-rule="evenodd" d="M324.946 702.604V701.585C324.946 699.995 323.769 698.988 322.411 698.988C321.221 698.988 319.875 699.765 319.875 702.155C319.875 704.677 321.343 705.284 322.604 705.284C323.43 705.284 324.218 704.993 324.824 704.29L323.927 703.526C323.563 703.902 323.054 704.121 322.58 704.121C321.731 704.121 321.112 703.611 321.112 702.604H324.946ZM321.112 701.585C321.137 700.65 321.683 700.153 322.411 700.153C323.138 700.153 323.672 700.65 323.708 701.585H321.112Z" fill="black"/>
<path fill-rule="evenodd" clip-rule="evenodd" d="M326.002 705.212H327.239V701.549C327.239 700.711 327.761 700.226 328.465 700.226C329.156 700.226 329.678 700.711 329.678 701.549V705.212H330.915V701.124C330.915 699.728 329.823 698.988 328.865 698.988C328.21 698.988 327.652 699.231 327.264 699.716H327.239V699.061H326.002V705.212V705.212Z" fill="black"/>
<path fill-rule="evenodd" clip-rule="evenodd" d="M334.261 704.181C335.049 704.921 335.971 705.285 336.966 705.285C338.398 705.285 339.514 704.594 339.514 703.392C339.514 702.41 339.005 701.633 337.73 701.548L336.711 701.476C336.093 701.427 335.899 701.16 335.899 700.893C335.899 700.469 336.166 700.153 336.954 700.153C337.621 700.153 338.119 700.384 338.604 700.723L339.368 699.826C338.761 699.317 338.034 698.989 336.954 698.989C335.656 698.989 334.661 699.632 334.661 700.881C334.661 701.936 335.413 702.543 336.432 702.628L337.524 702.725C337.949 702.761 338.276 702.895 338.276 703.332C338.276 703.854 337.766 704.12 337.063 704.12C336.238 704.12 335.656 703.854 335.122 703.332L334.261 704.181Z" fill="black"/>
<path fill-rule="evenodd" clip-rule="evenodd" d="M340.217 702.131C340.217 703.465 340.411 703.975 340.884 704.496C341.224 704.872 341.794 705.284 342.752 705.284C343.711 705.284 344.281 704.872 344.621 704.496C345.094 703.975 345.288 703.465 345.288 702.131C345.288 700.808 345.094 700.299 344.621 699.777C344.281 699.401 343.711 698.988 342.752 698.988C341.794 698.988 341.224 699.401 340.884 699.777C340.411 700.299 340.217 700.808 340.217 702.131ZM344.05 702.143C344.05 703.028 343.978 703.271 343.747 703.598C343.565 703.853 343.177 704.048 342.752 704.048C342.328 704.048 341.939 703.854 341.758 703.598C341.527 703.271 341.454 703.028 341.454 702.131C341.454 701.245 341.527 701.002 341.758 700.675C341.939 700.42 342.328 700.226 342.752 700.226C343.177 700.226 343.565 700.42 343.747 700.675C343.978 701.002 344.05 701.245 344.05 702.143Z" fill="black"/>
<path fill-rule="evenodd" clip-rule="evenodd" d="M346.345 703.15C346.345 704.545 347.437 705.285 348.407 705.285C349.049 705.285 349.608 705.042 349.996 704.557H350.02V705.212H351.257V699.061H350.02V702.725C350.02 703.561 349.499 704.047 348.807 704.047C348.103 704.047 347.582 703.561 347.582 702.725V699.061H346.345V703.15V703.15Z" fill="black"/>
<path fill-rule="evenodd" clip-rule="evenodd" d="M352.614 705.212H353.852V701.512C353.852 700.614 354.446 700.226 355.053 700.226C355.369 700.226 355.575 700.311 355.866 700.529L356.764 699.461C356.387 699.17 355.975 698.988 355.478 698.988C354.823 698.988 354.264 699.231 353.876 699.716H353.852V699.061H352.614V705.212V705.212Z" fill="black"/>
<path fill-rule="evenodd" clip-rule="evenodd" d="M360.704 703.405C360.401 703.781 359.964 704.048 359.455 704.048C358.449 704.048 357.853 703.477 357.853 702.142C357.853 700.796 358.448 700.226 359.455 700.226C359.964 700.226 360.401 700.493 360.704 700.869L361.614 700.056C361.081 699.437 360.34 698.988 359.406 698.988C357.987 698.988 356.616 699.886 356.616 702.142C356.616 704.387 357.987 705.284 359.406 705.284C360.34 705.284 361.081 704.835 361.614 704.217L360.704 703.405Z" fill="black"/>
<path fill-rule="evenodd" clip-rule="evenodd" d="M367 702.604V701.585C367 699.995 365.822 698.988 364.464 698.988C363.275 698.988 361.929 699.765 361.929 702.155C361.929 704.677 363.397 705.284 364.658 705.284C365.483 705.284 366.272 704.993 366.878 704.29L365.98 703.526C365.616 703.902 365.107 704.121 364.634 704.121C363.785 704.121 363.166 703.611 363.166 702.604H367ZM363.166 701.585C363.19 700.65 363.736 700.153 364.464 700.153C365.192 700.153 365.726 700.65 365.762 701.585H363.166Z" fill="black"/>
<path d="M316.577 704.048C317.742 704.048 317.803 703.089 317.803 702.143C317.803 701.184 317.742 700.226 316.577 700.226C315.425 700.226 315.364 701.245 315.364 702.143C315.364 703.028 315.425 704.048 316.577 704.048ZM314.122 714.927V699.061H315.364V699.704C315.753 699.28 316.323 698.988 316.954 698.988C317.705 698.988 318.252 699.328 318.604 699.789C318.943 700.226 319.04 700.626 319.04 702.143C319.04 703.647 318.943 704.048 318.604 704.484C318.252 704.945 317.705 705.285 316.954 705.285C316.323 705.285 315.825 704.994 315.364 704.557L315.36 709.431C315.772 708.946 316.33 708.704 316.985 708.704C317.944 708.704 319.035 709.443 319.035 710.838V714.927H317.798V711.263C317.798 710.426 317.276 709.941 316.585 709.941C315.881 709.941 315.36 710.426 315.36 711.263V714.927H314.122Z" fill="black"/>
</g>
<path d="M418.298 168L413.858 157.5H416.078L419.278 165.36L418.898 165.54L422.318 157.5H424.438L419.778 168H418.298ZM429.223 167.02V155.66L429.963 156.22L427.203 157.68L426.623 155.8L430.363 153.8H431.403V167.02H429.223ZM427.003 168V165.92H433.683V168H427.003ZM437.163 168.22C436.723 168.22 436.383 168.093 436.143 167.84C435.903 167.573 435.783 167.2 435.783 166.72C435.783 166.28 435.909 165.92 436.163 165.64C436.416 165.36 436.749 165.22 437.163 165.22C437.603 165.22 437.943 165.353 438.183 165.62C438.423 165.873 438.543 166.24 438.543 166.72C438.543 167.16 438.416 167.52 438.163 167.8C437.909 168.08 437.576 168.22 437.163 168.22ZM445.494 168.2C444.427 168.2 443.507 167.907 442.734 167.32C441.974 166.733 441.387 165.907 440.974 164.84C440.56 163.76 440.354 162.48 440.354 161C440.354 159.52 440.56 158.247 440.974 157.18C441.387 156.1 441.974 155.267 442.734 154.68C443.507 154.093 444.427 153.8 445.494 153.8C446.56 153.8 447.48 154.093 448.254 154.68C449.027 155.267 449.62 156.1 450.034 157.18C450.447 158.247 450.654 159.52 450.654 161C450.654 162.48 450.447 163.76 450.034 164.84C449.62 165.907 449.027 166.733 448.254 167.32C447.48 167.907 446.56 168.2 445.494 168.2ZM445.494 166.24C446.467 166.24 447.22 165.787 447.754 164.88C448.287 163.96 448.554 162.667 448.554 161C448.554 159.333 448.287 158.047 447.754 157.14C447.22 156.22 446.467 155.76 445.494 155.76C444.52 155.76 443.767 156.22 443.234 157.14C442.7 158.047 442.434 159.333 442.434 161C442.434 162.667 442.7 163.96 443.234 164.88C443.767 165.787 444.52 166.24 445.494 166.24Z" fill="black"/>
<path d="M64 29H797C810.807 29 822 40.1929 822 54V896C822 909.807 810.807 921 797 921H64C50.1929 921 39 909.807 39 896V54C39 40.1929 50.1929 29 64 29Z" stroke="black" stroke-width="5"/>
<path d="M129.5 54V105.5C129.5 119.307 140.693 130.5 154.5 130.5H234.5V801H230.5C227.739 801 225.5 803.239 225.5 806V896C225.5 909.807 236.693 921 250.5 921H612.5C626.307 921 637.5 909.807 637.5 896V806C637.5 803.239 635.261 801 632.5 801H624V130.5H706C719.807 130.5 731 119.307 731 105.5V54C731 40.1929 719.807 29 706 29H154.5C140.693 29 129.5 40.1929 129.5 54Z" stroke="black" stroke-width="5"/>
<rect x="144.5" y="137.5" width="83" height="656" stroke="black" stroke-width="5"/>
<rect x="631" y="137.5" width="83" height="656" stroke="black" stroke-width="5"/>
<circle cx="87.5" cy="76.5" r="31" stroke="black" stroke-width="5"/>
<circle cx="774.5" cy="76.5" r="31" stroke="black" stroke-width="5"/>
<circle cx="678.5" cy="873.5" r="31" stroke="black" stroke-width="5"/>
<circle cx="185.5" cy="873.5" r="31" stroke="black" stroke-width="5"/>
<defs>
<clipPath id="clip0_302_2211">
<rect width="59" height="62" fill="white" transform="translate(308 653)"/>
</clipPath>
</defs>
</svg>
