<svg width="865" height="169" viewBox="0 0 865 169" fill="none" xmlns="http://www.w3.org/2000/svg">
<path d="M298.062 94.7C294.515 94.7 291.202 94.07 288.122 92.81C285.042 91.5033 282.335 89.7067 280.002 87.42C277.669 85.1333 275.849 82.4733 274.542 79.44C273.282 76.36 272.652 73.0467 272.652 69.5C272.652 66 273.282 62.7333 274.542 59.7C275.849 56.6667 277.645 54.03 279.932 51.79C282.265 49.5033 284.972 47.73 288.052 46.47C291.132 45.21 294.445 44.58 297.992 44.58C300.465 44.58 302.869 44.93 305.202 45.63C307.582 46.33 309.729 47.31 311.642 48.57C313.555 49.83 315.119 51.2767 316.332 52.91L311.432 58.02C310.032 56.6667 308.585 55.5467 307.092 54.66C305.645 53.7733 304.152 53.0967 302.612 52.63C301.072 52.1633 299.532 51.93 297.992 51.93C295.472 51.93 293.139 52.3733 290.992 53.26C288.892 54.1467 287.025 55.3833 285.392 56.97C283.805 58.5567 282.569 60.4233 281.682 62.57C280.795 64.67 280.352 66.98 280.352 69.5C280.352 71.9267 280.819 74.2367 281.752 76.43C282.685 78.5767 283.969 80.4667 285.602 82.1C287.282 83.7333 289.195 85.0167 291.342 85.95C293.535 86.8833 295.845 87.35 298.272 87.35C300.092 87.35 301.819 87.0933 303.452 86.58C305.085 86.02 306.532 85.25 307.792 84.27C309.052 83.29 310.032 82.17 310.732 80.91C311.432 79.6033 311.782 78.2267 311.782 76.78V75.38L312.832 76.36H297.852V68.87H319.552C319.645 69.3833 319.715 69.8967 319.762 70.41C319.809 70.8767 319.832 71.3433 319.832 71.81C319.879 72.23 319.902 72.65 319.902 73.07C319.902 76.29 319.342 79.23 318.222 81.89C317.102 84.5033 315.539 86.7667 313.532 88.68C311.572 90.5933 309.262 92.0867 306.602 93.16C303.989 94.1867 301.142 94.7 298.062 94.7ZM328.066 94V42.2H335.276V94H328.066ZM361.331 94.7C357.737 94.7 354.517 93.8833 351.671 92.25C348.871 90.57 346.654 88.3067 345.021 85.46C343.387 82.5667 342.571 79.2767 342.571 75.59C342.571 71.9033 343.387 68.6367 345.021 65.79C346.654 62.8967 348.871 60.6333 351.671 59C354.517 57.32 357.737 56.48 361.331 56.48C364.877 56.48 368.051 57.32 370.851 59C373.697 60.6333 375.937 62.8967 377.571 65.79C379.204 68.6367 380.021 71.9033 380.021 75.59C380.021 79.2767 379.204 82.5667 377.571 85.46C375.937 88.3067 373.697 90.57 370.851 92.25C368.051 93.8833 364.877 94.7 361.331 94.7ZM361.331 88.12C363.524 88.12 365.484 87.5833 367.211 86.51C368.937 85.39 370.291 83.8967 371.271 82.03C372.251 80.1167 372.717 77.97 372.671 75.59C372.717 73.1633 372.251 71.0167 371.271 69.15C370.291 67.2367 368.937 65.7433 367.211 64.67C365.484 63.5967 363.524 63.06 361.331 63.06C359.137 63.06 357.154 63.62 355.381 64.74C353.654 65.8133 352.301 67.3067 351.321 69.22C350.341 71.0867 349.874 73.21 349.921 75.59C349.874 77.97 350.341 80.1167 351.321 82.03C352.301 83.8967 353.654 85.39 355.381 86.51C357.154 87.5833 359.137 88.12 361.331 88.12ZM395.54 94L383.01 57.25L390.29 57.18L399.25 84.69L397.64 84.55L407.37 63.06H411.71L421.51 84.62L419.62 84.76L428.65 57.25H435.93L423.54 94H418.57L408.35 70.62L409.96 70.83L400.44 94H395.54ZM464.196 94.7C460.789 94.7 457.663 94.0933 454.816 92.88C451.969 91.6667 449.496 89.94 447.396 87.7C445.296 85.4133 443.663 82.73 442.496 79.65C441.376 76.57 440.816 73.1867 440.816 69.5C440.816 66 441.423 62.7567 442.636 59.77C443.896 56.7367 445.623 54.0767 447.816 51.79C450.009 49.5033 452.553 47.73 455.446 46.47C458.339 45.21 461.466 44.58 464.826 44.58C467.206 44.58 469.516 44.9533 471.756 45.7C474.043 46.4 476.096 47.4033 477.916 48.71C479.783 49.97 481.299 51.4167 482.466 53.05L477.426 58.3C476.073 56.9467 474.696 55.8267 473.296 54.94C471.943 54.0067 470.543 53.3067 469.096 52.84C467.696 52.3733 466.273 52.14 464.826 52.14C462.539 52.14 460.393 52.5833 458.386 53.47C456.426 54.31 454.699 55.5 453.206 57.04C451.759 58.58 450.616 60.4233 449.776 62.57C448.936 64.67 448.516 66.98 448.516 69.5C448.516 72.16 448.913 74.5867 449.706 76.78C450.546 78.9267 451.713 80.77 453.206 82.31C454.699 83.85 456.473 85.04 458.526 85.88C460.626 86.6733 462.936 87.07 465.456 87.07C466.996 87.07 468.513 86.86 470.006 86.44C471.499 86.02 472.899 85.4133 474.206 84.62C475.513 83.8267 476.703 82.8933 477.776 81.82L481.556 87.98C480.483 89.24 479.013 90.3833 477.146 91.41C475.326 92.4367 473.273 93.2533 470.986 93.86C468.746 94.42 466.483 94.7 464.196 94.7ZM506.526 94.7C502.932 94.7 499.712 93.8833 496.866 92.25C494.066 90.57 491.849 88.3067 490.216 85.46C488.582 82.5667 487.766 79.2767 487.766 75.59C487.766 71.9033 488.582 68.6367 490.216 65.79C491.849 62.8967 494.066 60.6333 496.866 59C499.712 57.32 502.932 56.48 506.526 56.48C510.072 56.48 513.246 57.32 516.046 59C518.892 60.6333 521.132 62.8967 522.766 65.79C524.399 68.6367 525.216 71.9033 525.216 75.59C525.216 79.2767 524.399 82.5667 522.766 85.46C521.132 88.3067 518.892 90.57 516.046 92.25C513.246 93.8833 510.072 94.7 506.526 94.7ZM506.526 88.12C508.719 88.12 510.679 87.5833 512.406 86.51C514.132 85.39 515.486 83.8967 516.466 82.03C517.446 80.1167 517.912 77.97 517.866 75.59C517.912 73.1633 517.446 71.0167 516.466 69.15C515.486 67.2367 514.132 65.7433 512.406 64.67C510.679 63.5967 508.719 63.06 506.526 63.06C504.332 63.06 502.349 63.62 500.576 64.74C498.849 65.8133 497.496 67.3067 496.516 69.22C495.536 71.0867 495.069 73.21 495.116 75.59C495.069 77.97 495.536 80.1167 496.516 82.03C497.496 83.8967 498.849 85.39 500.576 86.51C502.349 87.5833 504.332 88.12 506.526 88.12ZM533.072 94V57.25H540.352V68.8L539.652 66C540.166 64.2267 541.029 62.6167 542.242 61.17C543.502 59.7233 544.926 58.58 546.512 57.74C548.146 56.9 549.826 56.48 551.552 56.48C552.346 56.48 553.092 56.55 553.792 56.69C554.539 56.83 555.122 56.9933 555.542 57.18L553.652 65.02C553.092 64.7867 552.462 64.6 551.762 64.46C551.109 64.2733 550.456 64.18 549.802 64.18C548.542 64.18 547.329 64.4367 546.162 64.95C545.042 65.4167 544.039 66.0933 543.152 66.98C542.312 67.82 541.636 68.8233 541.122 69.99C540.609 71.11 540.352 72.3467 540.352 73.7V94H533.072ZM576.882 94.7C573.102 94.7 569.742 93.9067 566.802 92.32C563.909 90.6867 561.622 88.47 559.942 85.67C558.309 82.87 557.492 79.65 557.492 76.01C557.492 73.1167 557.959 70.48 558.892 68.1C559.826 65.72 561.109 63.6667 562.742 61.94C564.422 60.1667 566.406 58.8133 568.692 57.88C571.026 56.9 573.546 56.41 576.252 56.41C578.632 56.41 580.849 56.8767 582.902 57.81C584.956 58.6967 586.729 59.9333 588.222 61.52C589.762 63.1067 590.929 64.9967 591.722 67.19C592.562 69.3367 592.959 71.6933 592.912 74.26L592.842 77.34H562.812L561.202 71.6H586.612L585.562 72.79V71.11C585.422 69.57 584.909 68.1933 584.022 66.98C583.136 65.7667 582.016 64.81 580.662 64.11C579.309 63.41 577.839 63.06 576.252 63.06C573.732 63.06 571.609 63.55 569.882 64.53C568.156 65.4633 566.849 66.8633 565.962 68.73C565.076 70.55 564.632 72.8133 564.632 75.52C564.632 78.0867 565.169 80.3267 566.242 82.24C567.316 84.1067 568.832 85.5533 570.792 86.58C572.752 87.6067 575.016 88.12 577.582 88.12C579.402 88.12 581.082 87.8167 582.622 87.21C584.209 86.6033 585.912 85.5067 587.732 83.92L591.372 89.03C590.252 90.15 588.876 91.13 587.242 91.97C585.656 92.81 583.952 93.4867 582.132 94C580.359 94.4667 578.609 94.7 576.882 94.7Z" fill="black"/>
<path d="M317.048 140V126H319.208V137.92H325.768V140H317.048ZM329.021 140V126H337.841V128.08H331.181V137.92H337.841V140H329.021ZM330.001 133.86V131.78H336.741V133.86H330.001ZM341.306 140V126H346.786C347.786 126 348.686 126.167 349.486 126.5C350.299 126.833 350.992 127.313 351.566 127.94C352.139 128.567 352.579 129.307 352.886 130.16C353.192 131.013 353.346 131.96 353.346 133C353.346 134.04 353.192 134.993 352.886 135.86C352.579 136.713 352.139 137.453 351.566 138.08C351.006 138.693 350.319 139.167 349.506 139.5C348.692 139.833 347.786 140 346.786 140H341.306ZM343.466 138.14L343.406 137.92H346.686C347.392 137.92 348.019 137.807 348.566 137.58C349.126 137.353 349.592 137.033 349.966 136.62C350.352 136.193 350.646 135.673 350.846 135.06C351.046 134.447 351.146 133.76 351.146 133C351.146 132.24 351.046 131.56 350.846 130.96C350.646 130.347 350.352 129.827 349.966 129.4C349.579 128.973 349.112 128.647 348.566 128.42C348.019 128.193 347.392 128.08 346.686 128.08H343.346L343.466 127.9V138.14ZM365.732 140.2C364.772 140.2 363.912 139.967 363.152 139.5C362.405 139.02 361.812 138.373 361.372 137.56C360.932 136.733 360.712 135.793 360.712 134.74C360.712 133.687 360.925 132.753 361.352 131.94C361.792 131.113 362.385 130.467 363.132 130C363.879 129.52 364.725 129.28 365.672 129.28C366.192 129.28 366.692 129.367 367.172 129.54C367.665 129.7 368.105 129.927 368.492 130.22C368.879 130.5 369.179 130.813 369.392 131.16C369.619 131.493 369.732 131.833 369.732 132.18L369.132 132.22V125.2H371.192V140H369.132V137.5H369.532C369.532 137.82 369.425 138.14 369.212 138.46C368.999 138.767 368.712 139.053 368.352 139.32C368.005 139.587 367.599 139.8 367.132 139.96C366.679 140.12 366.212 140.2 365.732 140.2ZM366.012 138.42C366.639 138.42 367.192 138.26 367.672 137.94C368.152 137.62 368.525 137.187 368.792 136.64C369.072 136.08 369.212 135.447 369.212 134.74C369.212 134.033 369.072 133.407 368.792 132.86C368.525 132.3 368.152 131.86 367.672 131.54C367.192 131.22 366.639 131.06 366.012 131.06C365.385 131.06 364.832 131.22 364.352 131.54C363.872 131.86 363.492 132.3 363.212 132.86C362.945 133.407 362.812 134.033 362.812 134.74C362.812 135.447 362.945 136.08 363.212 136.64C363.492 137.187 363.872 137.62 364.352 137.94C364.832 138.26 365.385 138.42 366.012 138.42ZM378.928 140.2C377.848 140.2 376.888 139.973 376.048 139.52C375.221 139.053 374.568 138.42 374.088 137.62C373.621 136.82 373.388 135.9 373.388 134.86C373.388 134.033 373.521 133.28 373.788 132.6C374.055 131.92 374.421 131.333 374.888 130.84C375.368 130.333 375.935 129.947 376.588 129.68C377.255 129.4 377.975 129.26 378.748 129.26C379.428 129.26 380.061 129.393 380.648 129.66C381.235 129.913 381.741 130.267 382.168 130.72C382.608 131.173 382.941 131.713 383.168 132.34C383.408 132.953 383.521 133.627 383.508 134.36L383.488 135.24H374.908L374.448 133.6H381.708L381.408 133.94V133.46C381.368 133.02 381.221 132.627 380.968 132.28C380.715 131.933 380.395 131.66 380.008 131.46C379.621 131.26 379.201 131.16 378.748 131.16C378.028 131.16 377.421 131.3 376.928 131.58C376.435 131.847 376.061 132.247 375.808 132.78C375.555 133.3 375.428 133.947 375.428 134.72C375.428 135.453 375.581 136.093 375.888 136.64C376.195 137.173 376.628 137.587 377.188 137.88C377.748 138.173 378.395 138.32 379.128 138.32C379.648 138.32 380.128 138.233 380.568 138.06C381.021 137.887 381.508 137.573 382.028 137.12L383.068 138.58C382.748 138.9 382.355 139.18 381.888 139.42C381.435 139.66 380.948 139.853 380.428 140C379.921 140.133 379.421 140.2 378.928 140.2ZM388.991 140L384.551 129.5H386.771L389.971 137.36L389.591 137.54L393.011 129.5H395.131L390.471 140H388.991ZM401.623 140.2C400.543 140.2 399.583 139.973 398.743 139.52C397.917 139.053 397.263 138.42 396.783 137.62C396.317 136.82 396.083 135.9 396.083 134.86C396.083 134.033 396.217 133.28 396.483 132.6C396.75 131.92 397.117 131.333 397.583 130.84C398.063 130.333 398.63 129.947 399.283 129.68C399.95 129.4 400.67 129.26 401.443 129.26C402.123 129.26 402.757 129.393 403.343 129.66C403.93 129.913 404.437 130.267 404.863 130.72C405.303 131.173 405.637 131.713 405.863 132.34C406.103 132.953 406.217 133.627 406.203 134.36L406.183 135.24H397.603L397.143 133.6H404.403L404.103 133.94V133.46C404.063 133.02 403.917 132.627 403.663 132.28C403.41 131.933 403.09 131.66 402.703 131.46C402.317 131.26 401.897 131.16 401.443 131.16C400.723 131.16 400.117 131.3 399.623 131.58C399.13 131.847 398.757 132.247 398.503 132.78C398.25 133.3 398.123 133.947 398.123 134.72C398.123 135.453 398.277 136.093 398.583 136.64C398.89 137.173 399.323 137.587 399.883 137.88C400.443 138.173 401.09 138.32 401.823 138.32C402.343 138.32 402.823 138.233 403.263 138.06C403.717 137.887 404.203 137.573 404.723 137.12L405.763 138.58C405.443 138.9 405.05 139.18 404.583 139.42C404.13 139.66 403.643 139.853 403.123 140C402.617 140.133 402.117 140.2 401.623 140.2ZM408.482 140V125.2H410.542V140H408.482ZM417.986 140.2C416.96 140.2 416.04 139.967 415.226 139.5C414.426 139.02 413.793 138.373 413.326 137.56C412.86 136.733 412.626 135.793 412.626 134.74C412.626 133.687 412.86 132.753 413.326 131.94C413.793 131.113 414.426 130.467 415.226 130C416.04 129.52 416.96 129.28 417.986 129.28C419 129.28 419.906 129.52 420.706 130C421.52 130.467 422.16 131.113 422.626 131.94C423.093 132.753 423.326 133.687 423.326 134.74C423.326 135.793 423.093 136.733 422.626 137.56C422.16 138.373 421.52 139.02 420.706 139.5C419.906 139.967 419 140.2 417.986 140.2ZM417.986 138.32C418.613 138.32 419.173 138.167 419.666 137.86C420.16 137.54 420.546 137.113 420.826 136.58C421.106 136.033 421.24 135.42 421.226 134.74C421.24 134.047 421.106 133.433 420.826 132.9C420.546 132.353 420.16 131.927 419.666 131.62C419.173 131.313 418.613 131.16 417.986 131.16C417.36 131.16 416.793 131.32 416.286 131.64C415.793 131.947 415.406 132.373 415.126 132.92C414.846 133.453 414.713 134.06 414.726 134.74C414.713 135.42 414.846 136.033 415.126 136.58C415.406 137.113 415.793 137.54 416.286 137.86C416.793 138.167 417.36 138.32 417.986 138.32ZM425.571 144.4V129.5H427.651V131.9L427.331 131.72C427.411 131.32 427.638 130.94 428.011 130.58C428.384 130.207 428.838 129.907 429.371 129.68C429.918 129.44 430.478 129.32 431.051 129.32C431.998 129.32 432.838 129.553 433.571 130.02C434.304 130.487 434.884 131.127 435.311 131.94C435.738 132.753 435.951 133.687 435.951 134.74C435.951 135.78 435.738 136.713 435.311 137.54C434.898 138.353 434.324 139 433.591 139.48C432.858 139.947 432.031 140.18 431.111 140.18C430.498 140.18 429.904 140.06 429.331 139.82C428.758 139.567 428.271 139.247 427.871 138.86C427.471 138.473 427.224 138.073 427.131 137.66L427.651 137.38V144.4H425.571ZM430.771 138.28C431.384 138.28 431.931 138.127 432.411 137.82C432.891 137.513 433.271 137.093 433.551 136.56C433.831 136.027 433.971 135.42 433.971 134.74C433.971 134.06 433.831 133.46 433.551 132.94C433.284 132.407 432.911 131.987 432.431 131.68C431.951 131.373 431.398 131.22 430.771 131.22C430.144 131.22 429.591 131.373 429.111 131.68C428.631 131.973 428.251 132.387 427.971 132.92C427.691 133.453 427.551 134.06 427.551 134.74C427.551 135.42 427.691 136.027 427.971 136.56C428.251 137.093 428.631 137.513 429.111 137.82C429.591 138.127 430.144 138.28 430.771 138.28ZM438.148 140V129.5H440.228V131.74L439.848 131.98C439.955 131.633 440.121 131.3 440.348 130.98C440.588 130.66 440.875 130.38 441.208 130.14C441.555 129.887 441.921 129.687 442.308 129.54C442.708 129.393 443.115 129.32 443.528 129.32C444.128 129.32 444.655 129.42 445.108 129.62C445.561 129.82 445.935 130.12 446.228 130.52C446.521 130.92 446.735 131.42 446.868 132.02L446.548 131.94L446.688 131.6C446.835 131.293 447.035 131.007 447.288 130.74C447.555 130.46 447.855 130.213 448.188 130C448.521 129.787 448.875 129.62 449.248 129.5C449.621 129.38 449.988 129.32 450.348 129.32C451.135 129.32 451.781 129.48 452.288 129.8C452.808 130.12 453.195 130.607 453.448 131.26C453.715 131.913 453.848 132.727 453.848 133.7V140H451.768V133.82C451.768 133.22 451.688 132.733 451.528 132.36C451.381 131.973 451.155 131.687 450.848 131.5C450.541 131.313 450.148 131.22 449.668 131.22C449.295 131.22 448.941 131.287 448.608 131.42C448.288 131.54 448.008 131.713 447.768 131.94C447.528 132.167 447.341 132.433 447.208 132.74C447.075 133.033 447.008 133.36 447.008 133.72V140H444.928V133.78C444.928 133.233 444.848 132.773 444.688 132.4C444.528 132.013 444.295 131.72 443.988 131.52C443.681 131.32 443.308 131.22 442.868 131.22C442.495 131.22 442.148 131.287 441.828 131.42C441.508 131.54 441.228 131.713 440.988 131.94C440.748 132.153 440.561 132.413 440.428 132.72C440.295 133.013 440.228 133.333 440.228 133.68V140H438.148ZM461.506 140.2C460.426 140.2 459.466 139.973 458.626 139.52C457.799 139.053 457.146 138.42 456.666 137.62C456.199 136.82 455.966 135.9 455.966 134.86C455.966 134.033 456.099 133.28 456.366 132.6C456.633 131.92 456.999 131.333 457.466 130.84C457.946 130.333 458.513 129.947 459.166 129.68C459.833 129.4 460.553 129.26 461.326 129.26C462.006 129.26 462.639 129.393 463.226 129.66C463.813 129.913 464.319 130.267 464.746 130.72C465.186 131.173 465.519 131.713 465.746 132.34C465.986 132.953 466.099 133.627 466.086 134.36L466.066 135.24H457.486L457.026 133.6H464.286L463.986 133.94V133.46C463.946 133.02 463.799 132.627 463.546 132.28C463.293 131.933 462.973 131.66 462.586 131.46C462.199 131.26 461.779 131.16 461.326 131.16C460.606 131.16 459.999 131.3 459.506 131.58C459.013 131.847 458.639 132.247 458.386 132.78C458.133 133.3 458.006 133.947 458.006 134.72C458.006 135.453 458.159 136.093 458.466 136.64C458.773 137.173 459.206 137.587 459.766 137.88C460.326 138.173 460.973 138.32 461.706 138.32C462.226 138.32 462.706 138.233 463.146 138.06C463.599 137.887 464.086 137.573 464.606 137.12L465.646 138.58C465.326 138.9 464.933 139.18 464.466 139.42C464.013 139.66 463.526 139.853 463.006 140C462.499 140.133 461.999 140.2 461.506 140.2ZM468.325 140V129.5H470.385V131.66L470.025 131.9C470.158 131.433 470.418 131.007 470.805 130.62C471.191 130.22 471.651 129.9 472.185 129.66C472.718 129.407 473.265 129.28 473.825 129.28C474.625 129.28 475.291 129.44 475.825 129.76C476.358 130.067 476.758 130.54 477.025 131.18C477.291 131.82 477.425 132.627 477.425 133.6V140H475.365V133.74C475.365 133.14 475.285 132.647 475.125 132.26C474.965 131.86 474.718 131.573 474.385 131.4C474.051 131.213 473.638 131.133 473.145 131.16C472.745 131.16 472.378 131.227 472.045 131.36C471.711 131.48 471.418 131.653 471.165 131.88C470.925 132.107 470.731 132.373 470.585 132.68C470.451 132.973 470.385 133.293 470.385 133.64V140H469.365C469.191 140 469.018 140 468.845 140C468.671 140 468.498 140 468.325 140ZM481.519 140V126.82H483.579V140H481.519ZM479.339 131.5V129.5H486.019V131.5H479.339ZM499.021 140.2C498.567 140.2 498.114 140.127 497.661 139.98C497.221 139.833 496.814 139.64 496.441 139.4C496.081 139.147 495.774 138.873 495.521 138.58C495.281 138.273 495.121 137.967 495.041 137.66L495.561 137.38V139.94H493.501V125.2H495.561V131.9L495.241 131.72C495.307 131.413 495.454 131.12 495.681 130.84C495.907 130.547 496.194 130.287 496.541 130.06C496.901 129.82 497.287 129.633 497.701 129.5C498.114 129.353 498.534 129.28 498.961 129.28C499.907 129.28 500.747 129.513 501.481 129.98C502.214 130.447 502.794 131.093 503.221 131.92C503.647 132.733 503.861 133.667 503.861 134.72C503.861 135.773 503.647 136.713 503.221 137.54C502.807 138.367 502.234 139.02 501.501 139.5C500.767 139.967 499.941 140.2 499.021 140.2ZM498.681 138.32C499.294 138.32 499.841 138.167 500.321 137.86C500.801 137.54 501.181 137.113 501.461 136.58C501.741 136.033 501.881 135.413 501.881 134.72C501.881 134.04 501.741 133.433 501.461 132.9C501.194 132.353 500.821 131.927 500.341 131.62C499.861 131.313 499.307 131.16 498.681 131.16C498.054 131.16 497.501 131.313 497.021 131.62C496.541 131.927 496.161 132.353 495.881 132.9C495.601 133.433 495.461 134.04 495.461 134.72C495.461 135.413 495.601 136.033 495.881 136.58C496.161 137.113 496.541 137.54 497.021 137.86C497.501 138.167 498.054 138.32 498.681 138.32ZM510.818 140.2C509.792 140.2 508.872 139.967 508.058 139.5C507.258 139.02 506.625 138.373 506.158 137.56C505.692 136.733 505.458 135.793 505.458 134.74C505.458 133.687 505.692 132.753 506.158 131.94C506.625 131.113 507.258 130.467 508.058 130C508.872 129.52 509.792 129.28 510.818 129.28C511.832 129.28 512.738 129.52 513.538 130C514.352 130.467 514.992 131.113 515.458 131.94C515.925 132.753 516.158 133.687 516.158 134.74C516.158 135.793 515.925 136.733 515.458 137.56C514.992 138.373 514.352 139.02 513.538 139.5C512.738 139.967 511.832 140.2 510.818 140.2ZM510.818 138.32C511.445 138.32 512.005 138.167 512.498 137.86C512.992 137.54 513.378 137.113 513.658 136.58C513.938 136.033 514.072 135.42 514.058 134.74C514.072 134.047 513.938 133.433 513.658 132.9C513.378 132.353 512.992 131.927 512.498 131.62C512.005 131.313 511.445 131.16 510.818 131.16C510.192 131.16 509.625 131.32 509.118 131.64C508.625 131.947 508.238 132.373 507.958 132.92C507.678 133.453 507.545 134.06 507.558 134.74C507.545 135.42 507.678 136.033 507.958 136.58C508.238 137.113 508.625 137.54 509.118 137.86C509.625 138.167 510.192 138.32 510.818 138.32ZM522.443 140.2C521.576 140.2 520.783 139.96 520.063 139.48C519.356 139 518.79 138.347 518.363 137.52C517.936 136.693 517.723 135.76 517.723 134.72C517.723 133.667 517.936 132.733 518.363 131.92C518.803 131.093 519.39 130.447 520.123 129.98C520.87 129.513 521.703 129.28 522.623 129.28C523.17 129.28 523.67 129.36 524.123 129.52C524.576 129.68 524.97 129.907 525.303 130.2C525.65 130.48 525.93 130.807 526.143 131.18C526.37 131.553 526.51 131.953 526.563 132.38L526.103 132.22V129.5H528.183V140H526.103V137.5L526.583 137.36C526.503 137.72 526.336 138.073 526.083 138.42C525.843 138.753 525.53 139.053 525.143 139.32C524.77 139.587 524.35 139.8 523.883 139.96C523.43 140.12 522.95 140.2 522.443 140.2ZM522.983 138.3C523.61 138.3 524.163 138.147 524.643 137.84C525.123 137.533 525.496 137.113 525.763 136.58C526.043 136.033 526.183 135.413 526.183 134.72C526.183 134.04 526.043 133.433 525.763 132.9C525.496 132.367 525.123 131.947 524.643 131.64C524.163 131.333 523.61 131.18 522.983 131.18C522.37 131.18 521.823 131.333 521.343 131.64C520.876 131.947 520.503 132.367 520.223 132.9C519.956 133.433 519.823 134.04 519.823 134.72C519.823 135.413 519.956 136.033 520.223 136.58C520.503 137.113 520.876 137.533 521.343 137.84C521.823 138.147 522.37 138.3 522.983 138.3ZM531.059 140V129.5H533.139V132.8L532.939 132C533.086 131.493 533.332 131.033 533.679 130.62C534.039 130.207 534.446 129.88 534.899 129.64C535.366 129.4 535.846 129.28 536.339 129.28C536.566 129.28 536.779 129.3 536.979 129.34C537.192 129.38 537.359 129.427 537.479 129.48L536.939 131.72C536.779 131.653 536.599 131.6 536.399 131.56C536.212 131.507 536.026 131.48 535.839 131.48C535.479 131.48 535.132 131.553 534.799 131.7C534.479 131.833 534.192 132.027 533.939 132.28C533.699 132.52 533.506 132.807 533.359 133.14C533.212 133.46 533.139 133.813 533.139 134.2V140H531.059ZM543.056 140.2C542.096 140.2 541.236 139.967 540.476 139.5C539.73 139.02 539.136 138.373 538.696 137.56C538.256 136.733 538.036 135.793 538.036 134.74C538.036 133.687 538.25 132.753 538.676 131.94C539.116 131.113 539.71 130.467 540.456 130C541.203 129.52 542.05 129.28 542.996 129.28C543.516 129.28 544.016 129.367 544.496 129.54C544.99 129.7 545.43 129.927 545.816 130.22C546.203 130.5 546.503 130.813 546.716 131.16C546.943 131.493 547.056 131.833 547.056 132.18L546.456 132.22V125.2H548.516V140H546.456V137.5H546.856C546.856 137.82 546.75 138.14 546.536 138.46C546.323 138.767 546.036 139.053 545.676 139.32C545.33 139.587 544.923 139.8 544.456 139.96C544.003 140.12 543.536 140.2 543.056 140.2ZM543.336 138.42C543.963 138.42 544.516 138.26 544.996 137.94C545.476 137.62 545.85 137.187 546.116 136.64C546.396 136.08 546.536 135.447 546.536 134.74C546.536 134.033 546.396 133.407 546.116 132.86C545.85 132.3 545.476 131.86 544.996 131.54C544.516 131.22 543.963 131.06 543.336 131.06C542.71 131.06 542.156 131.22 541.676 131.54C541.196 131.86 540.816 132.3 540.536 132.86C540.27 133.407 540.136 134.033 540.136 134.74C540.136 135.447 540.27 136.08 540.536 136.64C540.816 137.187 541.196 137.62 541.676 137.94C542.156 138.26 542.71 138.42 543.336 138.42Z" fill="black"/>
<line x1="254" y1="111.5" x2="611" y2="111.5" stroke="black" stroke-width="5"/>
</svg>
