<svg width="865" height="718" viewBox="0 0 865 718" fill="none" xmlns="http://www.w3.org/2000/svg">
<path d="M291.922 193V172H300.712C302.252 172 303.662 172.26 304.942 172.78C306.222 173.28 307.322 174 308.242 174.94C309.182 175.88 309.902 176.99 310.402 178.27C310.902 179.55 311.152 180.96 311.152 182.5C311.152 184.04 310.902 185.46 310.402 186.76C309.902 188.04 309.182 189.15 308.242 190.09C307.322 191.01 306.222 191.73 304.942 192.25C303.662 192.75 302.252 193 300.712 193H291.922ZM297.022 189.52L296.332 188.5H300.562C301.402 188.5 302.152 188.36 302.812 188.08C303.472 187.78 304.032 187.37 304.492 186.85C304.972 186.33 305.342 185.7 305.602 184.96C305.862 184.22 305.992 183.4 305.992 182.5C305.992 181.6 305.862 180.78 305.602 180.04C305.342 179.3 304.972 178.67 304.492 178.15C304.032 177.63 303.472 177.23 302.812 176.95C302.152 176.65 301.402 176.5 300.562 176.5H296.242L297.022 175.54V189.52ZM322.086 193.3C320.426 193.3 318.946 192.94 317.646 192.22C316.366 191.5 315.346 190.52 314.586 189.28C313.846 188.04 313.476 186.62 313.476 185.02C313.476 183.42 313.846 182 314.586 180.76C315.346 179.52 316.366 178.54 317.646 177.82C318.946 177.1 320.426 176.74 322.086 176.74C323.746 176.74 325.216 177.1 326.496 177.82C327.796 178.54 328.816 179.52 329.556 180.76C330.296 182 330.666 183.42 330.666 185.02C330.666 186.62 330.296 188.04 329.556 189.28C328.816 190.52 327.796 191.5 326.496 192.22C325.216 192.94 323.746 193.3 322.086 193.3ZM322.086 189.16C322.806 189.16 323.446 188.98 324.006 188.62C324.566 188.26 325.006 187.77 325.326 187.15C325.646 186.53 325.796 185.82 325.776 185.02C325.796 184.22 325.646 183.51 325.326 182.89C325.006 182.25 324.566 181.75 324.006 181.39C323.446 181.03 322.806 180.85 322.086 180.85C321.366 180.85 320.716 181.03 320.136 181.39C319.576 181.75 319.136 182.25 318.816 182.89C318.496 183.51 318.346 184.22 318.366 185.02C318.346 185.82 318.496 186.53 318.816 187.15C319.136 187.77 319.576 188.26 320.136 188.62C320.716 188.98 321.366 189.16 322.086 189.16ZM336.699 193L331.449 177.07H336.519L339.459 187.42L338.829 187.3L342.129 179.26H344.949L348.429 187.33L347.739 187.39L350.679 177.07H355.749L350.319 193H346.779L343.329 184.45L343.689 184.51L340.239 193H336.699ZM358.238 193V177.07H362.798L362.948 180.31L361.988 180.67C362.208 179.95 362.598 179.3 363.158 178.72C363.738 178.12 364.428 177.64 365.228 177.28C366.028 176.92 366.868 176.74 367.748 176.74C368.948 176.74 369.958 176.99 370.778 177.49C371.598 177.97 372.218 178.7 372.638 179.68C373.058 180.64 373.268 181.82 373.268 183.22V193H368.438V183.61C368.438 182.97 368.348 182.44 368.168 182.02C367.988 181.6 367.708 181.29 367.328 181.09C366.968 180.87 366.518 180.77 365.978 180.79C365.558 180.79 365.168 180.86 364.808 181C364.448 181.12 364.138 181.31 363.878 181.57C363.618 181.81 363.408 182.09 363.248 182.41C363.108 182.73 363.038 183.08 363.038 183.46V193H360.668C360.108 193 359.628 193 359.228 193C358.828 193 358.498 193 358.238 193ZM377.311 193V170.8H382.111V193H377.311ZM393.6 193.3C391.94 193.3 390.46 192.94 389.16 192.22C387.88 191.5 386.86 190.52 386.1 189.28C385.36 188.04 384.99 186.62 384.99 185.02C384.99 183.42 385.36 182 386.1 180.76C386.86 179.52 387.88 178.54 389.16 177.82C390.46 177.1 391.94 176.74 393.6 176.74C395.26 176.74 396.73 177.1 398.01 177.82C399.31 178.54 400.33 179.52 401.07 180.76C401.81 182 402.18 183.42 402.18 185.02C402.18 186.62 401.81 188.04 401.07 189.28C400.33 190.52 399.31 191.5 398.01 192.22C396.73 192.94 395.26 193.3 393.6 193.3ZM393.6 189.16C394.32 189.16 394.96 188.98 395.52 188.62C396.08 188.26 396.52 187.77 396.84 187.15C397.16 186.53 397.31 185.82 397.29 185.02C397.31 184.22 397.16 183.51 396.84 182.89C396.52 182.25 396.08 181.75 395.52 181.39C394.96 181.03 394.32 180.85 393.6 180.85C392.88 180.85 392.23 181.03 391.65 181.39C391.09 181.75 390.65 182.25 390.33 182.89C390.01 183.51 389.86 184.22 389.88 185.02C389.86 185.82 390.01 186.53 390.33 187.15C390.65 187.77 391.09 188.26 391.65 188.62C392.23 188.98 392.88 189.16 393.6 189.16ZM411.198 193.27C409.858 193.27 408.658 192.92 407.598 192.22C406.558 191.5 405.728 190.52 405.108 189.28C404.488 188.02 404.178 186.6 404.178 185.02C404.178 183.4 404.488 181.97 405.108 180.73C405.728 179.49 406.578 178.52 407.658 177.82C408.738 177.1 409.968 176.74 411.348 176.74C412.108 176.74 412.798 176.85 413.418 177.07C414.058 177.29 414.618 177.6 415.098 178C415.578 178.38 415.988 178.83 416.328 179.35C416.668 179.85 416.918 180.39 417.078 180.97L416.088 180.85V177.07H420.858V193H415.998V189.16L417.078 189.13C416.918 189.69 416.658 190.22 416.298 190.72C415.938 191.22 415.498 191.66 414.978 192.04C414.458 192.42 413.878 192.72 413.238 192.94C412.598 193.16 411.918 193.27 411.198 193.27ZM412.518 189.22C413.258 189.22 413.898 189.05 414.438 188.71C414.978 188.37 415.398 187.89 415.698 187.27C415.998 186.63 416.148 185.88 416.148 185.02C416.148 184.16 415.998 183.42 415.698 182.8C415.398 182.16 414.978 181.67 414.438 181.33C413.898 180.97 413.258 180.79 412.518 180.79C411.798 180.79 411.168 180.97 410.628 181.33C410.108 181.67 409.698 182.16 409.398 182.8C409.098 183.42 408.948 184.16 408.948 185.02C408.948 185.88 409.098 186.63 409.398 187.27C409.698 187.89 410.108 188.37 410.628 188.71C411.168 189.05 411.798 189.22 412.518 189.22ZM431.124 193.33C429.744 193.33 428.514 192.98 427.434 192.28C426.374 191.56 425.534 190.58 424.914 189.34C424.294 188.08 423.984 186.65 423.984 185.05C423.984 183.45 424.294 182.03 424.914 180.79C425.534 179.53 426.384 178.54 427.464 177.82C428.544 177.1 429.784 176.74 431.184 176.74C431.904 176.74 432.594 176.85 433.254 177.07C433.914 177.29 434.514 177.59 435.054 177.97C435.594 178.35 436.034 178.79 436.374 179.29C436.714 179.77 436.914 180.27 436.974 180.79L435.834 181.06V170.8H440.664V193H436.194L435.924 189.37L436.884 189.52C436.824 190.02 436.624 190.5 436.284 190.96C435.964 191.42 435.544 191.83 435.024 192.19C434.504 192.53 433.904 192.8 433.224 193C432.564 193.22 431.864 193.33 431.124 193.33ZM432.354 189.34C433.094 189.34 433.734 189.16 434.274 188.8C434.814 188.44 435.224 187.94 435.504 187.3C435.804 186.66 435.954 185.91 435.954 185.05C435.954 184.17 435.804 183.41 435.504 182.77C435.224 182.13 434.814 181.63 434.274 181.27C433.734 180.91 433.094 180.73 432.354 180.73C431.614 180.73 430.974 180.91 430.434 181.27C429.914 181.63 429.504 182.13 429.204 182.77C428.904 183.41 428.754 184.17 428.754 185.05C428.754 185.91 428.904 186.66 429.204 187.3C429.504 187.94 429.914 188.44 430.434 188.8C430.974 189.16 431.614 189.34 432.354 189.34ZM454.302 193V177.07H458.862L459.012 179.95L458.382 179.98C458.622 179.46 458.922 179 459.282 178.6C459.662 178.2 460.082 177.87 460.542 177.61C461.022 177.33 461.512 177.12 462.012 176.98C462.532 176.84 463.052 176.77 463.572 176.77C464.352 176.77 465.062 176.89 465.702 177.13C466.342 177.37 466.902 177.76 467.382 178.3C467.862 178.82 468.242 179.53 468.522 180.43L467.772 180.37L468.012 179.89C468.272 179.41 468.602 178.98 469.002 178.6C469.422 178.2 469.882 177.87 470.382 177.61C470.882 177.33 471.402 177.12 471.942 176.98C472.482 176.84 473.002 176.77 473.502 176.77C474.762 176.77 475.812 177.02 476.652 177.52C477.492 178 478.122 178.73 478.542 179.71C478.982 180.69 479.202 181.88 479.202 183.28V193H474.372V183.67C474.372 183.03 474.282 182.5 474.102 182.08C473.922 181.66 473.652 181.35 473.292 181.15C472.952 180.93 472.522 180.82 472.002 180.82C471.582 180.82 471.192 180.89 470.832 181.03C470.492 181.17 470.192 181.36 469.932 181.6C469.692 181.84 469.502 182.12 469.362 182.44C469.222 182.76 469.152 183.12 469.152 183.52V193H464.322V183.64C464.322 183.04 464.232 182.53 464.052 182.11C463.872 181.69 463.602 181.37 463.242 181.15C462.882 180.93 462.462 180.82 461.982 180.82C461.562 180.82 461.172 180.89 460.812 181.03C460.472 181.17 460.172 181.36 459.912 181.6C459.672 181.84 459.482 182.12 459.342 182.44C459.202 182.76 459.132 183.11 459.132 183.49V193H454.302ZM489.07 193.27C487.73 193.27 486.53 192.92 485.47 192.22C484.43 191.5 483.6 190.52 482.98 189.28C482.36 188.02 482.05 186.6 482.05 185.02C482.05 183.4 482.36 181.97 482.98 180.73C483.6 179.49 484.45 178.52 485.53 177.82C486.61 177.1 487.84 176.74 489.22 176.74C489.98 176.74 490.67 176.85 491.29 177.07C491.93 177.29 492.49 177.6 492.97 178C493.45 178.38 493.86 178.83 494.2 179.35C494.54 179.85 494.79 180.39 494.95 180.97L493.96 180.85V177.07H498.73V193H493.87V189.16L494.95 189.13C494.79 189.69 494.53 190.22 494.17 190.72C493.81 191.22 493.37 191.66 492.85 192.04C492.33 192.42 491.75 192.72 491.11 192.94C490.47 193.16 489.79 193.27 489.07 193.27ZM490.39 189.22C491.13 189.22 491.77 189.05 492.31 188.71C492.85 188.37 493.27 187.89 493.57 187.27C493.87 186.63 494.02 185.88 494.02 185.02C494.02 184.16 493.87 183.42 493.57 182.8C493.27 182.16 492.85 181.67 492.31 181.33C491.77 180.97 491.13 180.79 490.39 180.79C489.67 180.79 489.04 180.97 488.5 181.33C487.98 181.67 487.57 182.16 487.27 182.8C486.97 183.42 486.82 184.16 486.82 185.02C486.82 185.88 486.97 186.63 487.27 187.27C487.57 187.89 487.98 188.37 488.5 188.71C489.04 189.05 489.67 189.22 490.39 189.22ZM502.965 193V177.07H507.525L507.675 180.31L506.715 180.67C506.935 179.95 507.325 179.3 507.885 178.72C508.465 178.12 509.155 177.64 509.955 177.28C510.755 176.92 511.595 176.74 512.475 176.74C513.675 176.74 514.685 176.99 515.505 177.49C516.325 177.97 516.945 178.7 517.365 179.68C517.785 180.64 517.995 181.82 517.995 183.22V193H513.165V183.61C513.165 182.97 513.075 182.44 512.895 182.02C512.715 181.6 512.435 181.29 512.055 181.09C511.695 180.87 511.245 180.77 510.705 180.79C510.285 180.79 509.895 180.86 509.535 181C509.175 181.12 508.865 181.31 508.605 181.57C508.345 181.81 508.135 182.09 507.975 182.41C507.835 182.73 507.765 183.08 507.765 183.46V193H505.395C504.835 193 504.355 193 503.955 193C503.555 193 503.225 193 502.965 193ZM527.438 193.33C526.258 193.33 525.248 193.08 524.408 192.58C523.588 192.06 522.948 191.32 522.488 190.36C522.048 189.4 521.828 188.25 521.828 186.91V177.07H526.658V186.25C526.658 186.89 526.758 187.44 526.958 187.9C527.158 188.36 527.458 188.72 527.858 188.98C528.258 189.22 528.738 189.34 529.298 189.34C529.718 189.34 530.098 189.27 530.438 189.13C530.798 188.99 531.098 188.8 531.338 188.56C531.598 188.3 531.798 188.01 531.938 187.69C532.078 187.35 532.148 186.98 532.148 186.58V177.07H536.978V193H532.448L532.238 189.73L533.138 189.37C532.898 190.13 532.498 190.81 531.938 191.41C531.378 191.99 530.708 192.46 529.928 192.82C529.148 193.16 528.318 193.33 527.438 193.33ZM547.136 193.27C545.796 193.27 544.596 192.92 543.536 192.22C542.496 191.5 541.666 190.52 541.046 189.28C540.426 188.02 540.116 186.6 540.116 185.02C540.116 183.4 540.426 181.97 541.046 180.73C541.666 179.49 542.516 178.52 543.596 177.82C544.676 177.1 545.906 176.74 547.286 176.74C548.046 176.74 548.736 176.85 549.356 177.07C549.996 177.29 550.556 177.6 551.036 178C551.516 178.38 551.926 178.83 552.266 179.35C552.606 179.85 552.856 180.39 553.016 180.97L552.026 180.85V177.07H556.796V193H551.936V189.16L553.016 189.13C552.856 189.69 552.596 190.22 552.236 190.72C551.876 191.22 551.436 191.66 550.916 192.04C550.396 192.42 549.816 192.72 549.176 192.94C548.536 193.16 547.856 193.27 547.136 193.27ZM548.456 189.22C549.196 189.22 549.836 189.05 550.376 188.71C550.916 188.37 551.336 187.89 551.636 187.27C551.936 186.63 552.086 185.88 552.086 185.02C552.086 184.16 551.936 183.42 551.636 182.8C551.336 182.16 550.916 181.67 550.376 181.33C549.836 180.97 549.196 180.79 548.456 180.79C547.736 180.79 547.106 180.97 546.566 181.33C546.046 181.67 545.636 182.16 545.336 182.8C545.036 183.42 544.886 184.16 544.886 185.02C544.886 185.88 545.036 186.63 545.336 187.27C545.636 187.89 546.046 188.37 546.566 188.71C547.106 189.05 547.736 189.22 548.456 189.22ZM561.061 193V170.8H565.861V193H561.061ZM571.853 193.33C571.033 193.33 570.393 193.1 569.933 192.64C569.493 192.18 569.273 191.52 569.273 190.66C569.273 189.86 569.513 189.21 569.993 188.71C570.473 188.21 571.093 187.96 571.853 187.96C572.673 187.96 573.313 188.2 573.773 188.68C574.233 189.14 574.463 189.8 574.463 190.66C574.463 191.44 574.223 192.08 573.743 192.58C573.263 193.08 572.633 193.33 571.853 193.33ZM571.853 182.14C571.033 182.14 570.393 181.91 569.933 181.45C569.493 180.99 569.273 180.33 569.273 179.47C569.273 178.67 569.513 178.02 569.993 177.52C570.473 177.02 571.093 176.77 571.853 176.77C572.673 176.77 573.313 177.01 573.773 177.49C574.233 177.95 574.463 178.61 574.463 179.47C574.463 180.25 574.223 180.89 573.743 181.39C573.263 181.89 572.633 182.14 571.853 182.14Z" fill="black"/>
<path d="M186.413 565V542.8H189.503V552.49L188.963 552.85C189.163 552.15 189.553 551.51 190.133 550.93C190.713 550.33 191.403 549.85 192.203 549.49C193.003 549.11 193.823 548.92 194.663 548.92C195.863 548.92 196.863 549.16 197.663 549.64C198.463 550.1 199.063 550.81 199.463 551.77C199.863 552.73 200.063 553.94 200.063 555.4V565H196.973V555.61C196.973 554.71 196.853 553.97 196.613 553.39C196.373 552.79 196.003 552.36 195.503 552.1C195.003 551.82 194.383 551.7 193.643 551.74C193.043 551.74 192.493 551.84 191.993 552.04C191.493 552.22 191.053 552.48 190.673 552.82C190.313 553.16 190.023 553.56 189.803 554.02C189.603 554.46 189.503 554.94 189.503 555.46V565H187.973C187.713 565 187.453 565 187.193 565C186.933 565 186.673 565 186.413 565ZM206.205 565V545.23H209.295V565H206.205ZM202.935 552.25V549.25H212.955V552.25H202.935ZM217.718 565V545.23H220.808V565H217.718ZM214.448 552.25V549.25H224.468V552.25H214.448ZM227.282 571.6V549.25H230.402V552.85L229.922 552.58C230.042 551.98 230.382 551.41 230.942 550.87C231.502 550.31 232.182 549.86 232.982 549.52C233.802 549.16 234.642 548.98 235.502 548.98C236.922 548.98 238.182 549.33 239.282 550.03C240.382 550.73 241.252 551.69 241.892 552.91C242.532 554.13 242.852 555.53 242.852 557.11C242.852 558.67 242.532 560.07 241.892 561.31C241.272 562.53 240.412 563.5 239.312 564.22C238.212 564.92 236.972 565.27 235.592 565.27C234.672 565.27 233.782 565.09 232.922 564.73C232.062 564.35 231.332 563.87 230.732 563.29C230.132 562.71 229.762 562.11 229.622 561.49L230.402 561.07V571.6H227.282ZM235.082 562.42C236.002 562.42 236.822 562.19 237.542 561.73C238.262 561.27 238.832 560.64 239.252 559.84C239.672 559.04 239.882 558.13 239.882 557.11C239.882 556.09 239.672 555.19 239.252 554.41C238.852 553.61 238.292 552.98 237.572 552.52C236.852 552.06 236.022 551.83 235.082 551.83C234.142 551.83 233.312 552.06 232.592 552.52C231.872 552.96 231.302 553.58 230.882 554.38C230.462 555.18 230.252 556.09 230.252 557.11C230.252 558.13 230.462 559.04 230.882 559.84C231.302 560.64 231.872 561.27 232.592 561.73C233.312 562.19 234.142 562.42 235.082 562.42ZM251.458 565.3C250.138 565.3 248.948 565.07 247.888 564.61C246.828 564.15 245.948 563.47 245.248 562.57L247.348 560.77C247.948 561.47 248.598 561.98 249.298 562.3C250.018 562.6 250.828 562.75 251.728 562.75C252.088 562.75 252.418 562.71 252.718 562.63C253.038 562.53 253.308 562.39 253.528 562.21C253.768 562.03 253.948 561.82 254.068 561.58C254.188 561.32 254.248 561.04 254.248 560.74C254.248 560.22 254.058 559.8 253.678 559.48C253.478 559.34 253.158 559.19 252.718 559.03C252.298 558.85 251.748 558.67 251.068 558.49C249.908 558.19 248.958 557.85 248.218 557.47C247.478 557.09 246.908 556.66 246.508 556.18C246.208 555.8 245.988 555.39 245.848 554.95C245.708 554.49 245.638 553.99 245.638 553.45C245.638 552.79 245.778 552.19 246.058 551.65C246.358 551.09 246.758 550.61 247.258 550.21C247.778 549.79 248.378 549.47 249.058 549.25C249.758 549.03 250.498 548.92 251.278 548.92C252.018 548.92 252.748 549.02 253.468 549.22C254.208 549.42 254.888 549.71 255.508 550.09C256.128 550.47 256.648 550.92 257.068 551.44L255.298 553.39C254.918 553.01 254.498 552.68 254.038 552.4C253.598 552.1 253.148 551.87 252.688 551.71C252.228 551.55 251.808 551.47 251.428 551.47C251.008 551.47 250.628 551.51 250.288 551.59C249.948 551.67 249.658 551.79 249.418 551.95C249.198 552.11 249.028 552.31 248.908 552.55C248.788 552.79 248.728 553.06 248.728 553.36C248.748 553.62 248.808 553.87 248.908 554.11C249.028 554.33 249.188 554.52 249.388 554.68C249.608 554.84 249.938 555.01 250.378 555.19C250.818 555.37 251.378 555.54 252.058 555.7C253.058 555.96 253.878 556.25 254.518 556.57C255.178 556.87 255.698 557.22 256.078 557.62C256.478 558 256.758 558.44 256.918 558.94C257.078 559.44 257.158 560 257.158 560.62C257.158 561.52 256.898 562.33 256.378 563.05C255.878 563.75 255.198 564.3 254.338 564.7C253.478 565.1 252.518 565.3 251.458 565.3ZM261.823 565.3C261.163 565.3 260.653 565.11 260.293 564.73C259.933 564.33 259.753 563.77 259.753 563.05C259.753 562.39 259.943 561.85 260.323 561.43C260.703 561.01 261.203 560.8 261.823 560.8C262.483 560.8 262.993 561 263.353 561.4C263.713 561.78 263.893 562.33 263.893 563.05C263.893 563.71 263.703 564.25 263.323 564.67C262.943 565.09 262.443 565.3 261.823 565.3ZM261.823 553.45C261.163 553.45 260.653 553.26 260.293 552.88C259.933 552.48 259.753 551.92 259.753 551.2C259.753 550.54 259.943 550 260.323 549.58C260.703 549.16 261.203 548.95 261.823 548.95C262.483 548.95 262.993 549.15 263.353 549.55C263.713 549.93 263.893 550.48 263.893 551.2C263.893 551.86 263.703 552.4 263.323 552.82C262.943 553.24 262.443 553.45 261.823 553.45ZM265.769 568.96L278.129 544H281.099L268.769 568.96H265.769ZM279.715 568.96L292.075 544H295.045L282.715 568.96H279.715ZM303.59 571.9C302.47 571.9 301.35 571.72 300.23 571.36C299.13 571.02 298.24 570.57 297.56 570.01L298.7 567.61C299.1 567.91 299.57 568.17 300.11 568.39C300.65 568.63 301.22 568.81 301.82 568.93C302.42 569.07 303.01 569.14 303.59 569.14C304.69 569.14 305.61 568.96 306.35 568.6C307.09 568.24 307.65 567.71 308.03 567.01C308.41 566.31 308.6 565.44 308.6 564.4V561.37L308.93 561.58C308.83 562.2 308.5 562.8 307.94 563.38C307.4 563.94 306.72 564.4 305.9 564.76C305.08 565.12 304.24 565.3 303.38 565.3C301.88 565.3 300.54 564.95 299.36 564.25C298.2 563.53 297.28 562.56 296.6 561.34C295.92 560.1 295.58 558.69 295.58 557.11C295.58 555.53 295.91 554.13 296.57 552.91C297.25 551.67 298.17 550.7 299.33 550C300.51 549.28 301.83 548.92 303.29 548.92C303.89 548.92 304.47 549 305.03 549.16C305.59 549.3 306.11 549.51 306.59 549.79C307.07 550.05 307.5 550.34 307.88 550.66C308.26 550.98 308.57 551.32 308.81 551.68C309.05 552.04 309.2 552.38 309.26 552.7L308.6 552.94V549.25H311.69V564.04C311.69 565.3 311.5 566.41 311.12 567.37C310.76 568.35 310.23 569.17 309.53 569.83C308.83 570.51 307.98 571.02 306.98 571.36C305.98 571.72 304.85 571.9 303.59 571.9ZM303.71 562.45C304.69 562.45 305.56 562.22 306.32 561.76C307.08 561.3 307.67 560.67 308.09 559.87C308.51 559.07 308.72 558.15 308.72 557.11C308.72 556.07 308.5 555.15 308.06 554.35C307.64 553.53 307.05 552.89 306.29 552.43C305.55 551.97 304.69 551.74 303.71 551.74C302.75 551.74 301.89 551.98 301.13 552.46C300.39 552.92 299.8 553.56 299.36 554.38C298.94 555.18 298.73 556.09 298.73 557.11C298.73 558.13 298.94 559.05 299.36 559.87C299.8 560.67 300.39 561.3 301.13 561.76C301.89 562.22 302.75 562.45 303.71 562.45ZM316.082 565V542.8H319.172V565H316.082ZM330.339 565.3C328.799 565.3 327.419 564.95 326.199 564.25C324.999 563.53 324.049 562.56 323.349 561.34C322.649 560.1 322.299 558.69 322.299 557.11C322.299 555.53 322.649 554.13 323.349 552.91C324.049 551.67 324.999 550.7 326.199 550C327.419 549.28 328.799 548.92 330.339 548.92C331.859 548.92 333.219 549.28 334.419 550C335.639 550.7 336.599 551.67 337.299 552.91C337.999 554.13 338.349 555.53 338.349 557.11C338.349 558.69 337.999 560.1 337.299 561.34C336.599 562.56 335.639 563.53 334.419 564.25C333.219 564.95 331.859 565.3 330.339 565.3ZM330.339 562.48C331.279 562.48 332.119 562.25 332.859 561.79C333.599 561.31 334.179 560.67 334.599 559.87C335.019 559.05 335.219 558.13 335.199 557.11C335.219 556.07 335.019 555.15 334.599 554.35C334.179 553.53 333.599 552.89 332.859 552.43C332.119 551.97 331.279 551.74 330.339 551.74C329.399 551.74 328.549 551.98 327.789 552.46C327.049 552.92 326.469 553.56 326.049 554.38C325.629 555.18 325.429 556.09 325.449 557.11C325.429 558.13 325.629 559.05 326.049 559.87C326.469 560.67 327.049 561.31 327.789 561.79C328.549 562.25 329.399 562.48 330.339 562.48ZM345 565L339.63 549.25L342.75 549.22L346.59 561.01L345.9 560.95L350.07 551.74H351.93L356.13 560.98L355.32 561.04L359.19 549.25H362.31L357 565H354.87L350.49 554.98L351.18 555.07L347.1 565H345ZM371.374 565.3C369.914 565.3 368.604 564.94 367.444 564.22C366.304 563.5 365.394 562.52 364.714 561.28C364.054 560.04 363.724 558.65 363.724 557.11C363.724 555.57 364.054 554.18 364.714 552.94C365.394 551.7 366.304 550.72 367.444 550C368.604 549.28 369.914 548.92 371.374 548.92C372.774 548.92 374.044 549.21 375.184 549.79C376.344 550.35 377.224 551.12 377.824 552.1L376.114 554.2C375.794 553.74 375.384 553.32 374.884 552.94C374.384 552.56 373.854 552.26 373.294 552.04C372.734 551.82 372.194 551.71 371.674 551.71C370.714 551.71 369.854 551.95 369.094 552.43C368.354 552.89 367.764 553.53 367.324 554.35C366.884 555.17 366.664 556.09 366.664 557.11C366.664 558.13 366.894 559.05 367.354 559.87C367.814 560.67 368.424 561.31 369.184 561.79C369.944 562.27 370.784 562.51 371.704 562.51C372.244 562.51 372.764 562.42 373.264 562.24C373.784 562.06 374.284 561.79 374.764 561.43C375.244 561.07 375.694 560.63 376.114 560.11L377.824 562.21C377.184 563.11 376.264 563.85 375.064 564.43C373.884 565.01 372.654 565.3 371.374 565.3ZM387.819 565.3C386.279 565.3 384.899 564.95 383.679 564.25C382.479 563.53 381.529 562.56 380.829 561.34C380.129 560.1 379.779 558.69 379.779 557.11C379.779 555.53 380.129 554.13 380.829 552.91C381.529 551.67 382.479 550.7 383.679 550C384.899 549.28 386.279 548.92 387.819 548.92C389.339 548.92 390.699 549.28 391.899 550C393.119 550.7 394.079 551.67 394.779 552.91C395.479 554.13 395.829 555.53 395.829 557.11C395.829 558.69 395.479 560.1 394.779 561.34C394.079 562.56 393.119 563.53 391.899 564.25C390.699 564.95 389.339 565.3 387.819 565.3ZM387.819 562.48C388.759 562.48 389.599 562.25 390.339 561.79C391.079 561.31 391.659 560.67 392.079 559.87C392.499 559.05 392.699 558.13 392.679 557.11C392.699 556.07 392.499 555.15 392.079 554.35C391.659 553.53 391.079 552.89 390.339 552.43C389.599 551.97 388.759 551.74 387.819 551.74C386.879 551.74 386.029 551.98 385.269 552.46C384.529 552.92 383.949 553.56 383.529 554.38C383.109 555.18 382.909 556.09 382.929 557.11C382.909 558.13 383.109 559.05 383.529 559.87C383.949 560.67 384.529 561.31 385.269 561.79C386.029 562.25 386.879 562.48 387.819 562.48ZM399.196 565V549.25H402.316V554.2L402.016 553C402.236 552.24 402.606 551.55 403.126 550.93C403.666 550.31 404.276 549.82 404.956 549.46C405.656 549.1 406.376 548.92 407.116 548.92C407.456 548.92 407.776 548.95 408.076 549.01C408.396 549.07 408.646 549.14 408.826 549.22L408.016 552.58C407.776 552.48 407.506 552.4 407.206 552.34C406.926 552.26 406.646 552.22 406.366 552.22C405.826 552.22 405.306 552.33 404.806 552.55C404.326 552.75 403.896 553.04 403.516 553.42C403.156 553.78 402.866 554.21 402.646 554.71C402.426 555.19 402.316 555.72 402.316 556.3V565H399.196ZM417.972 565.3C416.352 565.3 414.912 564.96 413.652 564.28C412.412 563.58 411.432 562.63 410.712 561.43C410.012 560.23 409.662 558.85 409.662 557.29C409.662 556.05 409.862 554.92 410.262 553.9C410.662 552.88 411.212 552 411.912 551.26C412.632 550.5 413.482 549.92 414.462 549.52C415.462 549.1 416.542 548.89 417.702 548.89C418.722 548.89 419.672 549.09 420.552 549.49C421.432 549.87 422.192 550.4 422.832 551.08C423.492 551.76 423.992 552.57 424.332 553.51C424.692 554.43 424.862 555.44 424.842 556.54L424.812 557.86H411.942L411.252 555.4H422.142L421.692 555.91V555.19C421.632 554.53 421.412 553.94 421.032 553.42C420.652 552.9 420.172 552.49 419.592 552.19C419.012 551.89 418.382 551.74 417.702 551.74C416.622 551.74 415.712 551.95 414.972 552.37C414.232 552.77 413.672 553.37 413.292 554.17C412.912 554.95 412.722 555.92 412.722 557.08C412.722 558.18 412.952 559.14 413.412 559.96C413.872 560.76 414.522 561.38 415.362 561.82C416.202 562.26 417.172 562.48 418.272 562.48C419.052 562.48 419.772 562.35 420.432 562.09C421.112 561.83 421.842 561.36 422.622 560.68L424.182 562.87C423.702 563.35 423.112 563.77 422.412 564.13C421.732 564.49 421.002 564.78 420.222 565C419.462 565.2 418.712 565.3 417.972 565.3ZM429.46 565.33C428.8 565.33 428.29 565.14 427.93 564.76C427.57 564.36 427.39 563.8 427.39 563.08C427.39 562.42 427.58 561.88 427.96 561.46C428.34 561.04 428.84 560.83 429.46 560.83C430.12 560.83 430.63 561.03 430.99 561.43C431.35 561.81 431.53 562.36 431.53 563.08C431.53 563.74 431.34 564.28 430.96 564.7C430.58 565.12 430.08 565.33 429.46 565.33ZM442.076 571.9C440.956 571.9 439.836 571.72 438.716 571.36C437.616 571.02 436.726 570.57 436.046 570.01L437.186 567.61C437.586 567.91 438.056 568.17 438.596 568.39C439.136 568.63 439.706 568.81 440.306 568.93C440.906 569.07 441.496 569.14 442.076 569.14C443.176 569.14 444.096 568.96 444.836 568.6C445.576 568.24 446.136 567.71 446.516 567.01C446.896 566.31 447.086 565.44 447.086 564.4V561.37L447.416 561.58C447.316 562.2 446.986 562.8 446.426 563.38C445.886 563.94 445.206 564.4 444.386 564.76C443.566 565.12 442.726 565.3 441.866 565.3C440.366 565.3 439.026 564.95 437.846 564.25C436.686 563.53 435.766 562.56 435.086 561.34C434.406 560.1 434.066 558.69 434.066 557.11C434.066 555.53 434.396 554.13 435.056 552.91C435.736 551.67 436.656 550.7 437.816 550C438.996 549.28 440.316 548.92 441.776 548.92C442.376 548.92 442.956 549 443.516 549.16C444.076 549.3 444.596 549.51 445.076 549.79C445.556 550.05 445.986 550.34 446.366 550.66C446.746 550.98 447.056 551.32 447.296 551.68C447.536 552.04 447.686 552.38 447.746 552.7L447.086 552.94V549.25H450.176V564.04C450.176 565.3 449.986 566.41 449.606 567.37C449.246 568.35 448.716 569.17 448.016 569.83C447.316 570.51 446.466 571.02 445.466 571.36C444.466 571.72 443.336 571.9 442.076 571.9ZM442.196 562.45C443.176 562.45 444.046 562.22 444.806 561.76C445.566 561.3 446.156 560.67 446.576 559.87C446.996 559.07 447.206 558.15 447.206 557.11C447.206 556.07 446.986 555.15 446.546 554.35C446.126 553.53 445.536 552.89 444.776 552.43C444.036 551.97 443.176 551.74 442.196 551.74C441.236 551.74 440.376 551.98 439.616 552.46C438.876 552.92 438.286 553.56 437.846 554.38C437.426 555.18 437.216 556.09 437.216 557.11C437.216 558.13 437.426 559.05 437.846 559.87C438.286 560.67 438.876 561.3 439.616 561.76C440.376 562.22 441.236 562.45 442.196 562.45ZM454.569 565V542.8H457.659V565H454.569ZM468.825 565.3C467.285 565.3 465.905 564.95 464.685 564.25C463.485 563.53 462.535 562.56 461.835 561.34C461.135 560.1 460.785 558.69 460.785 557.11C460.785 555.53 461.135 554.13 461.835 552.91C462.535 551.67 463.485 550.7 464.685 550C465.905 549.28 467.285 548.92 468.825 548.92C470.345 548.92 471.705 549.28 472.905 550C474.125 550.7 475.085 551.67 475.785 552.91C476.485 554.13 476.835 555.53 476.835 557.11C476.835 558.69 476.485 560.1 475.785 561.34C475.085 562.56 474.125 563.53 472.905 564.25C471.705 564.95 470.345 565.3 468.825 565.3ZM468.825 562.48C469.765 562.48 470.605 562.25 471.345 561.79C472.085 561.31 472.665 560.67 473.085 559.87C473.505 559.05 473.705 558.13 473.685 557.11C473.705 556.07 473.505 555.15 473.085 554.35C472.665 553.53 472.085 552.89 471.345 552.43C470.605 551.97 469.765 551.74 468.825 551.74C467.885 551.74 467.035 551.98 466.275 552.46C465.535 552.92 464.955 553.56 464.535 554.38C464.115 555.18 463.915 556.09 463.935 557.11C463.915 558.13 464.115 559.05 464.535 559.87C464.955 560.67 465.535 561.31 466.275 561.79C467.035 562.25 467.885 562.48 468.825 562.48ZM483.486 565L478.116 549.25L481.236 549.22L485.076 561.01L484.386 560.95L488.556 551.74H490.416L494.616 560.98L493.806 561.04L497.676 549.25H500.796L495.486 565H493.356L488.976 554.98L489.666 555.07L485.586 565H483.486ZM504.12 565V549.25H507.21V565H504.12ZM505.62 545.77C504.96 545.77 504.45 545.6 504.09 545.26C503.73 544.92 503.55 544.44 503.55 543.82C503.55 543.24 503.73 542.77 504.09 542.41C504.47 542.05 504.98 541.87 505.62 541.87C506.28 541.87 506.79 542.04 507.15 542.38C507.51 542.72 507.69 543.2 507.69 543.82C507.69 544.4 507.5 544.87 507.12 545.23C506.76 545.59 506.26 545.77 505.62 545.77ZM511.96 565V549.25H515.05V552.49L514.51 552.85C514.71 552.15 515.1 551.51 515.68 550.93C516.26 550.33 516.95 549.85 517.75 549.49C518.55 549.11 519.37 548.92 520.21 548.92C521.41 548.92 522.41 549.16 523.21 549.64C524.01 550.1 524.61 550.81 525.01 551.77C525.41 552.73 525.61 553.94 525.61 555.4V565H522.52V555.61C522.52 554.71 522.4 553.97 522.16 553.39C521.92 552.79 521.55 552.36 521.05 552.1C520.55 551.82 519.93 551.7 519.19 551.74C518.59 551.74 518.04 551.84 517.54 552.04C517.04 552.22 516.6 552.48 516.22 552.82C515.86 553.16 515.57 553.56 515.35 554.02C515.15 554.46 515.05 554.94 515.05 555.46V565H513.52C513.26 565 513 565 512.74 565C512.48 565 512.22 565 511.96 565ZM536.852 571.9C535.732 571.9 534.612 571.72 533.492 571.36C532.392 571.02 531.502 570.57 530.822 570.01L531.962 567.61C532.362 567.91 532.832 568.17 533.372 568.39C533.912 568.63 534.482 568.81 535.082 568.93C535.682 569.07 536.272 569.14 536.852 569.14C537.952 569.14 538.872 568.96 539.612 568.6C540.352 568.24 540.912 567.71 541.292 567.01C541.672 566.31 541.862 565.44 541.862 564.4V561.37L542.192 561.58C542.092 562.2 541.762 562.8 541.202 563.38C540.662 563.94 539.982 564.4 539.162 564.76C538.342 565.12 537.502 565.3 536.642 565.3C535.142 565.3 533.802 564.95 532.622 564.25C531.462 563.53 530.542 562.56 529.862 561.34C529.182 560.1 528.842 558.69 528.842 557.11C528.842 555.53 529.172 554.13 529.832 552.91C530.512 551.67 531.432 550.7 532.592 550C533.772 549.28 535.092 548.92 536.552 548.92C537.152 548.92 537.732 549 538.292 549.16C538.852 549.3 539.372 549.51 539.852 549.79C540.332 550.05 540.762 550.34 541.142 550.66C541.522 550.98 541.832 551.32 542.072 551.68C542.312 552.04 542.462 552.38 542.522 552.7L541.862 552.94V549.25H544.952V564.04C544.952 565.3 544.762 566.41 544.382 567.37C544.022 568.35 543.492 569.17 542.792 569.83C542.092 570.51 541.242 571.02 540.242 571.36C539.242 571.72 538.112 571.9 536.852 571.9ZM536.972 562.45C537.952 562.45 538.822 562.22 539.582 561.76C540.342 561.3 540.932 560.67 541.352 559.87C541.772 559.07 541.982 558.15 541.982 557.11C541.982 556.07 541.762 555.15 541.322 554.35C540.902 553.53 540.312 552.89 539.552 552.43C538.812 551.97 537.952 551.74 536.972 551.74C536.012 551.74 535.152 551.98 534.392 552.46C533.652 552.92 533.062 553.56 532.622 554.38C532.202 555.18 531.992 556.09 531.992 557.11C531.992 558.13 532.202 559.05 532.622 559.87C533.062 560.67 533.652 561.3 534.392 561.76C535.152 562.22 536.012 562.45 536.972 562.45ZM552.104 560.08L551.954 556.72L559.484 549.25H563.654L552.104 560.08ZM549.284 565V542.8H552.374V565H549.284ZM559.904 565L553.964 558.07L556.154 556.06L563.864 565H559.904ZM566.845 565V549.25H569.935V565H566.845ZM568.345 545.77C567.685 545.77 567.175 545.6 566.815 545.26C566.455 544.92 566.275 544.44 566.275 543.82C566.275 543.24 566.455 542.77 566.815 542.41C567.195 542.05 567.705 541.87 568.345 541.87C569.005 541.87 569.515 542.04 569.875 542.38C570.235 542.72 570.415 543.2 570.415 543.82C570.415 544.4 570.225 544.87 569.845 545.23C569.485 545.59 568.985 545.77 568.345 545.77ZM576.634 565V545.23H579.724V565H576.634ZM573.364 552.25V549.25H583.384V552.25H573.364ZM588.148 565V545.23H591.238V565H588.148ZM584.878 552.25V549.25H594.898V552.25H584.878ZM600.352 571.9L603.532 564.55L603.562 567.01L595.702 549.25H599.302L604.222 560.83C604.322 561.03 604.442 561.34 604.582 561.76C604.722 562.16 604.842 562.56 604.942 562.96L604.162 563.14C604.322 562.72 604.472 562.3 604.612 561.88C604.772 561.46 604.922 561.04 605.062 560.62L609.172 549.25H612.832L606.352 565L603.682 571.9H600.352ZM615.202 565.33C614.542 565.33 614.032 565.14 613.672 564.76C613.312 564.36 613.132 563.8 613.132 563.08C613.132 562.42 613.322 561.88 613.702 561.46C614.082 561.04 614.582 560.83 615.202 560.83C615.862 560.83 616.372 561.03 616.732 561.43C617.092 561.81 617.272 562.36 617.272 563.08C617.272 563.74 617.082 564.28 616.702 564.7C616.322 565.12 615.822 565.33 615.202 565.33ZM627.458 565.3C625.998 565.3 624.688 564.94 623.528 564.22C622.388 563.5 621.478 562.52 620.798 561.28C620.138 560.04 619.808 558.65 619.808 557.11C619.808 555.57 620.138 554.18 620.798 552.94C621.478 551.7 622.388 550.72 623.528 550C624.688 549.28 625.998 548.92 627.458 548.92C628.858 548.92 630.128 549.21 631.268 549.79C632.428 550.35 633.308 551.12 633.908 552.1L632.198 554.2C631.878 553.74 631.468 553.32 630.968 552.94C630.468 552.56 629.938 552.26 629.378 552.04C628.818 551.82 628.278 551.71 627.758 551.71C626.798 551.71 625.938 551.95 625.178 552.43C624.438 552.89 623.848 553.53 623.408 554.35C622.968 555.17 622.748 556.09 622.748 557.11C622.748 558.13 622.978 559.05 623.438 559.87C623.898 560.67 624.508 561.31 625.268 561.79C626.028 562.27 626.868 562.51 627.788 562.51C628.328 562.51 628.848 562.42 629.348 562.24C629.868 562.06 630.368 561.79 630.848 561.43C631.328 561.07 631.778 560.63 632.198 560.11L633.908 562.21C633.268 563.11 632.348 563.85 631.148 564.43C629.968 565.01 628.738 565.3 627.458 565.3ZM643.903 565.3C642.363 565.3 640.983 564.95 639.763 564.25C638.563 563.53 637.613 562.56 636.913 561.34C636.213 560.1 635.863 558.69 635.863 557.11C635.863 555.53 636.213 554.13 636.913 552.91C637.613 551.67 638.563 550.7 639.763 550C640.983 549.28 642.363 548.92 643.903 548.92C645.423 548.92 646.783 549.28 647.983 550C649.203 550.7 650.163 551.67 650.863 552.91C651.563 554.13 651.913 555.53 651.913 557.11C651.913 558.69 651.563 560.1 650.863 561.34C650.163 562.56 649.203 563.53 647.983 564.25C646.783 564.95 645.423 565.3 643.903 565.3ZM643.903 562.48C644.843 562.48 645.683 562.25 646.423 561.79C647.163 561.31 647.743 560.67 648.163 559.87C648.583 559.05 648.783 558.13 648.763 557.11C648.783 556.07 648.583 555.15 648.163 554.35C647.743 553.53 647.163 552.89 646.423 552.43C645.683 551.97 644.843 551.74 643.903 551.74C642.963 551.74 642.113 551.98 641.353 552.46C640.613 552.92 640.033 553.56 639.613 554.38C639.193 555.18 638.993 556.09 639.013 557.11C638.993 558.13 639.193 559.05 639.613 559.87C640.033 560.67 640.613 561.31 641.353 561.79C642.113 562.25 642.963 562.48 643.903 562.48ZM655.22 565V549.25H658.34V552.61L657.77 552.97C657.93 552.45 658.18 551.95 658.52 551.47C658.88 550.99 659.31 550.57 659.81 550.21C660.33 549.83 660.88 549.53 661.46 549.31C662.06 549.09 662.67 548.98 663.29 548.98C664.19 548.98 664.98 549.13 665.66 549.43C666.34 549.73 666.9 550.18 667.34 550.78C667.78 551.38 668.1 552.13 668.3 553.03L667.82 552.91L668.03 552.4C668.25 551.94 668.55 551.51 668.93 551.11C669.33 550.69 669.78 550.32 670.28 550C670.78 549.68 671.31 549.43 671.87 549.25C672.43 549.07 672.98 548.98 673.52 548.98C674.7 548.98 675.67 549.22 676.43 549.7C677.21 550.18 677.79 550.91 678.17 551.89C678.57 552.87 678.77 554.09 678.77 555.55V565H675.65V555.73C675.65 554.83 675.53 554.1 675.29 553.54C675.07 552.96 674.73 552.53 674.27 552.25C673.81 551.97 673.22 551.83 672.5 551.83C671.94 551.83 671.41 551.93 670.91 552.13C670.43 552.31 670.01 552.57 669.65 552.91C669.29 553.25 669.01 553.65 668.81 554.11C668.61 554.55 668.51 555.04 668.51 555.58V565H665.39V555.67C665.39 554.85 665.27 554.16 665.03 553.6C664.79 553.02 664.44 552.58 663.98 552.28C663.52 551.98 662.96 551.83 662.3 551.83C661.74 551.83 661.22 551.93 660.74 552.13C660.26 552.31 659.84 552.57 659.48 552.91C659.12 553.23 658.84 553.62 658.64 554.08C658.44 554.52 658.34 555 658.34 555.52V565H655.22Z" fill="black"/>
<g clip-path="url(#clip0_308_2383)">
<path d="M576 224H288V512H576V224Z" fill="white"/>
<path d="M384 241.455H375.272V250.182H384V241.455Z" fill="black"/>
<path d="M392.727 241.455H384V250.182H392.727V241.455Z" fill="black"/>
<path d="M401.454 241.455H392.727V250.182H401.454V241.455Z" fill="black"/>
<path d="M418.909 241.455H410.182V250.182H418.909V241.455Z" fill="black"/>
<path d="M445.091 241.455H436.363V250.182H445.091V241.455Z" fill="black"/>
<path d="M453.818 241.455H445.091V250.182H453.818V241.455Z" fill="black"/>
<path d="M462.545 241.455H453.817V250.182H462.545V241.455Z" fill="black"/>
<path d="M471.272 241.455H462.545V250.182H471.272V241.455Z" fill="black"/>
<path d="M480 241.455H471.272V250.182H480V241.455Z" fill="black"/>
<path d="M488.727 241.455H480V250.182H488.727V241.455Z" fill="black"/>
<path d="M384 250.182H375.272V258.909H384V250.182Z" fill="black"/>
<path d="M401.454 250.182H392.727V258.909H401.454V250.182Z" fill="black"/>
<path d="M410.181 250.182H401.454V258.909H410.181V250.182Z" fill="black"/>
<path d="M418.909 250.182H410.182V258.909H418.909V250.182Z" fill="black"/>
<path d="M436.363 250.182H427.636V258.909H436.363V250.182Z" fill="black"/>
<path d="M445.091 250.182H436.363V258.909H445.091V250.182Z" fill="black"/>
<path d="M471.272 250.182H462.545V258.909H471.272V250.182Z" fill="black"/>
<path d="M392.727 258.909H384V267.636H392.727V258.909Z" fill="black"/>
<path d="M401.454 258.909H392.727V267.636H401.454V258.909Z" fill="black"/>
<path d="M410.181 258.909H401.454V267.636H410.181V258.909Z" fill="black"/>
<path d="M418.909 258.909H410.182V267.636H418.909V258.909Z" fill="black"/>
<path d="M427.635 258.909H418.908V267.636H427.635V258.909Z" fill="black"/>
<path d="M436.363 258.909H427.636V267.636H436.363V258.909Z" fill="black"/>
<path d="M445.091 258.909H436.363V267.636H445.091V258.909Z" fill="black"/>
<path d="M480 258.909H471.272V267.636H480V258.909Z" fill="black"/>
<path d="M384 267.636H375.272V276.364H384V267.636Z" fill="black"/>
<path d="M410.181 267.636H401.454V276.364H410.181V267.636Z" fill="black"/>
<path d="M453.818 267.636H445.091V276.364H453.818V267.636Z" fill="black"/>
<path d="M462.545 267.636H453.817V276.364H462.545V267.636Z" fill="black"/>
<path d="M480 267.636H471.272V276.364H480V267.636Z" fill="black"/>
<path d="M401.454 276.364H392.727V285.091H401.454V276.364Z" fill="black"/>
<path d="M410.181 276.364H401.454V285.091H410.181V276.364Z" fill="black"/>
<path d="M427.635 276.364H418.908V285.091H427.635V276.364Z" fill="black"/>
<path d="M462.545 276.364H453.817V285.091H462.545V276.364Z" fill="black"/>
<path d="M480 276.364H471.272V285.091H480V276.364Z" fill="black"/>
<path d="M392.727 285.091H384V293.818H392.727V285.091Z" fill="black"/>
<path d="M401.454 285.091H392.727V293.818H401.454V285.091Z" fill="black"/>
<path d="M410.181 285.091H401.454V293.818H410.181V285.091Z" fill="black"/>
<path d="M418.909 285.091H410.182V293.818H418.909V285.091Z" fill="black"/>
<path d="M436.363 285.091H427.636V293.818H436.363V285.091Z" fill="black"/>
<path d="M462.545 285.091H453.817V293.818H462.545V285.091Z" fill="black"/>
<path d="M471.272 285.091H462.545V293.818H471.272V285.091Z" fill="black"/>
<path d="M480 285.091H471.272V293.818H480V285.091Z" fill="black"/>
<path d="M488.727 285.091H480V293.818H488.727V285.091Z" fill="black"/>
<path d="M384 293.818H375.272V302.545H384V293.818Z" fill="black"/>
<path d="M401.454 293.818H392.727V302.545H401.454V293.818Z" fill="black"/>
<path d="M418.909 293.818H410.182V302.545H418.909V293.818Z" fill="black"/>
<path d="M436.363 293.818H427.636V302.545H436.363V293.818Z" fill="black"/>
<path d="M453.818 293.818H445.091V302.545H453.818V293.818Z" fill="black"/>
<path d="M471.272 293.818H462.545V302.545H471.272V293.818Z" fill="black"/>
<path d="M488.727 293.818H480V302.545H488.727V293.818Z" fill="black"/>
<path d="M384 302.545H375.272V311.273H384V302.545Z" fill="black"/>
<path d="M392.727 302.545H384V311.273H392.727V302.545Z" fill="black"/>
<path d="M401.454 302.545H392.727V311.273H401.454V302.545Z" fill="black"/>
<path d="M418.909 302.545H410.182V311.273H418.909V302.545Z" fill="black"/>
<path d="M427.635 302.545H418.908V311.273H427.635V302.545Z" fill="black"/>
<path d="M436.363 302.545H427.636V311.273H436.363V302.545Z" fill="black"/>
<path d="M462.545 302.545H453.817V311.273H462.545V302.545Z" fill="black"/>
<path d="M471.272 302.545H462.545V311.273H471.272V302.545Z" fill="black"/>
<path d="M480 302.545H471.272V311.273H480V302.545Z" fill="black"/>
<path d="M314.181 311.273H305.454V320H314.181V311.273Z" fill="black"/>
<path d="M331.635 311.273H322.908V320H331.635V311.273Z" fill="black"/>
<path d="M340.363 311.273H331.636V320H340.363V311.273Z" fill="black"/>
<path d="M357.818 311.273H349.091V320H357.818V311.273Z" fill="black"/>
<path d="M366.545 311.273H357.817V320H366.545V311.273Z" fill="black"/>
<path d="M375.272 311.273H366.545V320H375.272V311.273Z" fill="black"/>
<path d="M401.454 311.273H392.727V320H401.454V311.273Z" fill="black"/>
<path d="M418.909 311.273H410.182V320H418.909V311.273Z" fill="black"/>
<path d="M427.635 311.273H418.908V320H427.635V311.273Z" fill="black"/>
<path d="M436.363 311.273H427.636V320H436.363V311.273Z" fill="black"/>
<path d="M453.818 311.273H445.091V320H453.818V311.273Z" fill="black"/>
<path d="M462.545 311.273H453.817V320H462.545V311.273Z" fill="black"/>
<path d="M471.272 311.273H462.545V320H471.272V311.273Z" fill="black"/>
<path d="M480 311.273H471.272V320H480V311.273Z" fill="black"/>
<path d="M488.727 311.273H480V320H488.727V311.273Z" fill="black"/>
<path d="M506.181 311.273H497.454V320H506.181V311.273Z" fill="black"/>
<path d="M532.363 311.273H523.636V320H532.363V311.273Z" fill="black"/>
<path d="M549.818 311.273H541.091V320H549.818V311.273Z" fill="black"/>
<path d="M558.545 311.273H549.817V320H558.545V311.273Z" fill="black"/>
<path d="M322.909 320H314.182V328.727H322.909V320Z" fill="black"/>
<path d="M349.091 320H340.363V328.727H349.091V320Z" fill="black"/>
<path d="M392.727 320H384V328.727H392.727V320Z" fill="black"/>
<path d="M410.181 320H401.454V328.727H410.181V320Z" fill="black"/>
<path d="M445.091 320H436.363V328.727H445.091V320Z" fill="black"/>
<path d="M453.818 320H445.091V328.727H453.818V320Z" fill="black"/>
<path d="M462.545 320H453.817V328.727H462.545V320Z" fill="black"/>
<path d="M471.272 320H462.545V328.727H471.272V320Z" fill="black"/>
<path d="M480 320H471.272V328.727H480V320Z" fill="black"/>
<path d="M488.727 320H480V328.727H488.727V320Z" fill="black"/>
<path d="M497.454 320H488.727V328.727H497.454V320Z" fill="black"/>
<path d="M506.181 320H497.454V328.727H506.181V320Z" fill="black"/>
<path d="M514.909 320H506.182V328.727H514.909V320Z" fill="black"/>
<path d="M523.635 320H514.908V328.727H523.635V320Z" fill="black"/>
<path d="M558.545 320H549.817V328.727H558.545V320Z" fill="black"/>
<path d="M322.909 328.727H314.182V337.455H322.909V328.727Z" fill="black"/>
<path d="M331.635 328.727H322.908V337.455H331.635V328.727Z" fill="black"/>
<path d="M340.363 328.727H331.636V337.455H340.363V328.727Z" fill="black"/>
<path d="M349.091 328.727H340.363V337.455H349.091V328.727Z" fill="black"/>
<path d="M357.818 328.727H349.091V337.455H357.818V328.727Z" fill="black"/>
<path d="M366.545 328.727H357.817V337.455H366.545V328.727Z" fill="black"/>
<path d="M392.727 328.727H384V337.455H392.727V328.727Z" fill="black"/>
<path d="M410.181 328.727H401.454V337.455H410.181V328.727Z" fill="black"/>
<path d="M418.909 328.727H410.182V337.455H418.909V328.727Z" fill="black"/>
<path d="M436.363 328.727H427.636V337.455H436.363V328.727Z" fill="black"/>
<path d="M445.091 328.727H436.363V337.455H445.091V328.727Z" fill="black"/>
<path d="M523.635 328.727H514.908V337.455H523.635V328.727Z" fill="black"/>
<path d="M541.091 328.727H532.363V337.455H541.091V328.727Z" fill="black"/>
<path d="M549.818 328.727H541.091V337.455H549.818V328.727Z" fill="black"/>
<path d="M322.909 337.455H314.182V346.182H322.909V337.455Z" fill="black"/>
<path d="M349.091 337.455H340.363V346.182H349.091V337.455Z" fill="black"/>
<path d="M375.272 337.455H366.545V346.182H375.272V337.455Z" fill="black"/>
<path d="M384 337.455H375.272V346.182H384V337.455Z" fill="black"/>
<path d="M392.727 337.455H384V346.182H392.727V337.455Z" fill="black"/>
<path d="M401.454 337.455H392.727V346.182H401.454V337.455Z" fill="black"/>
<path d="M427.635 337.455H418.908V346.182H427.635V337.455Z" fill="black"/>
<path d="M436.363 337.455H427.636V346.182H436.363V337.455Z" fill="black"/>
<path d="M445.091 337.455H436.363V346.182H445.091V337.455Z" fill="black"/>
<path d="M471.272 337.455H462.545V346.182H471.272V337.455Z" fill="black"/>
<path d="M488.727 337.455H480V346.182H488.727V337.455Z" fill="black"/>
<path d="M497.454 337.455H488.727V346.182H497.454V337.455Z" fill="black"/>
<path d="M514.909 337.455H506.182V346.182H514.909V337.455Z" fill="black"/>
<path d="M558.545 337.455H549.817V346.182H558.545V337.455Z" fill="black"/>
<path d="M314.181 346.182H305.454V354.909H314.181V346.182Z" fill="black"/>
<path d="M331.635 346.182H322.908V354.909H331.635V346.182Z" fill="black"/>
<path d="M340.363 346.182H331.636V354.909H340.363V346.182Z" fill="black"/>
<path d="M357.818 346.182H349.091V354.909H357.818V346.182Z" fill="black"/>
<path d="M366.545 346.182H357.817V354.909H366.545V346.182Z" fill="black"/>
<path d="M410.181 346.182H401.454V354.909H410.181V346.182Z" fill="black"/>
<path d="M462.545 346.182H453.817V354.909H462.545V346.182Z" fill="black"/>
<path d="M480 346.182H471.272V354.909H480V346.182Z" fill="black"/>
<path d="M514.909 346.182H506.182V354.909H514.909V346.182Z" fill="black"/>
<path d="M532.363 346.182H523.636V354.909H532.363V346.182Z" fill="black"/>
<path d="M541.091 346.182H532.363V354.909H541.091V346.182Z" fill="black"/>
<path d="M331.635 354.909H322.908V363.636H331.635V354.909Z" fill="black"/>
<path d="M340.363 354.909H331.636V363.636H340.363V354.909Z" fill="black"/>
<path d="M427.635 354.909H418.908V363.636H427.635V354.909Z" fill="black"/>
<path d="M480 354.909H471.272V363.636H480V354.909Z" fill="black"/>
<path d="M506.181 354.909H497.454V363.636H506.181V354.909Z" fill="black"/>
<path d="M541.091 354.909H532.363V363.636H541.091V354.909Z" fill="black"/>
<path d="M549.818 354.909H541.091V363.636H549.818V354.909Z" fill="black"/>
<path d="M558.545 354.909H549.817V363.636H558.545V354.909Z" fill="black"/>
<path d="M366.545 363.636H357.817V372.364H366.545V363.636Z" fill="black"/>
<path d="M375.272 363.636H366.545V372.364H375.272V363.636Z" fill="black"/>
<path d="M401.454 363.636H392.727V372.364H401.454V363.636Z" fill="black"/>
<path d="M436.363 363.636H427.636V372.364H436.363V363.636Z" fill="black"/>
<path d="M480 363.636H471.272V372.364H480V363.636Z" fill="black"/>
<path d="M497.454 363.636H488.727V372.364H497.454V363.636Z" fill="black"/>
<path d="M514.909 363.636H506.182V372.364H514.909V363.636Z" fill="black"/>
<path d="M523.635 363.636H514.908V372.364H523.635V363.636Z" fill="black"/>
<path d="M541.091 363.636H532.363V372.364H541.091V363.636Z" fill="black"/>
<path d="M549.818 363.636H541.091V372.364H549.818V363.636Z" fill="black"/>
<path d="M558.545 363.636H549.817V372.364H558.545V363.636Z" fill="black"/>
<path d="M322.909 372.364H314.182V381.091H322.909V372.364Z" fill="black"/>
<path d="M331.635 372.364H322.908V381.091H331.635V372.364Z" fill="black"/>
<path d="M340.363 372.364H331.636V381.091H340.363V372.364Z" fill="black"/>
<path d="M349.091 372.364H340.363V381.091H349.091V372.364Z" fill="black"/>
<path d="M392.727 372.364H384V381.091H392.727V372.364Z" fill="black"/>
<path d="M410.181 372.364H401.454V381.091H410.181V372.364Z" fill="black"/>
<path d="M427.635 372.364H418.908V381.091H427.635V372.364Z" fill="black"/>
<path d="M445.091 372.364H436.363V381.091H445.091V372.364Z" fill="black"/>
<path d="M453.818 372.364H445.091V381.091H453.818V372.364Z" fill="black"/>
<path d="M488.727 372.364H480V381.091H488.727V372.364Z" fill="black"/>
<path d="M506.181 372.364H497.454V381.091H506.181V372.364Z" fill="black"/>
<path d="M514.909 372.364H506.182V381.091H514.909V372.364Z" fill="black"/>
<path d="M549.818 372.364H541.091V381.091H549.818V372.364Z" fill="black"/>
<path d="M314.181 381.091H305.454V389.818H314.181V381.091Z" fill="black"/>
<path d="M322.909 381.091H314.182V389.818H322.909V381.091Z" fill="black"/>
<path d="M340.363 381.091H331.636V389.818H340.363V381.091Z" fill="black"/>
<path d="M366.545 381.091H357.817V389.818H366.545V381.091Z" fill="black"/>
<path d="M392.727 381.091H384V389.818H392.727V381.091Z" fill="black"/>
<path d="M445.091 381.091H436.363V389.818H445.091V381.091Z" fill="black"/>
<path d="M471.272 381.091H462.545V389.818H471.272V381.091Z" fill="black"/>
<path d="M480 381.091H471.272V389.818H480V381.091Z" fill="black"/>
<path d="M488.727 381.091H480V389.818H488.727V381.091Z" fill="black"/>
<path d="M497.454 381.091H488.727V389.818H497.454V381.091Z" fill="black"/>
<path d="M514.909 381.091H506.182V389.818H514.909V381.091Z" fill="black"/>
<path d="M523.635 381.091H514.908V389.818H523.635V381.091Z" fill="black"/>
<path d="M532.363 381.091H523.636V389.818H532.363V381.091Z" fill="black"/>
<path d="M549.818 381.091H541.091V389.818H549.818V381.091Z" fill="black"/>
<path d="M322.909 389.818H314.182V398.545H322.909V389.818Z" fill="black"/>
<path d="M331.635 389.818H322.908V398.545H331.635V389.818Z" fill="black"/>
<path d="M340.363 389.818H331.636V398.545H340.363V389.818Z" fill="black"/>
<path d="M349.091 389.818H340.363V398.545H349.091V389.818Z" fill="black"/>
<path d="M357.818 389.818H349.091V398.545H357.818V389.818Z" fill="black"/>
<path d="M384 389.818H375.272V398.545H384V389.818Z" fill="black"/>
<path d="M392.727 389.818H384V398.545H392.727V389.818Z" fill="black"/>
<path d="M401.454 389.818H392.727V398.545H401.454V389.818Z" fill="black"/>
<path d="M410.181 389.818H401.454V398.545H410.181V389.818Z" fill="black"/>
<path d="M427.635 389.818H418.908V398.545H427.635V389.818Z" fill="black"/>
<path d="M445.091 389.818H436.363V398.545H445.091V389.818Z" fill="black"/>
<path d="M471.272 389.818H462.545V398.545H471.272V389.818Z" fill="black"/>
<path d="M488.727 389.818H480V398.545H488.727V389.818Z" fill="black"/>
<path d="M497.454 389.818H488.727V398.545H497.454V389.818Z" fill="black"/>
<path d="M514.909 389.818H506.182V398.545H514.909V389.818Z" fill="black"/>
<path d="M532.363 389.818H523.636V398.545H532.363V389.818Z" fill="black"/>
<path d="M541.091 389.818H532.363V398.545H541.091V389.818Z" fill="black"/>
<path d="M549.818 389.818H541.091V398.545H549.818V389.818Z" fill="black"/>
<path d="M314.181 398.545H305.454V407.273H314.181V398.545Z" fill="black"/>
<path d="M331.635 398.545H322.908V407.273H331.635V398.545Z" fill="black"/>
<path d="M340.363 398.545H331.636V407.273H340.363V398.545Z" fill="black"/>
<path d="M366.545 398.545H357.817V407.273H366.545V398.545Z" fill="black"/>
<path d="M384 398.545H375.272V407.273H384V398.545Z" fill="black"/>
<path d="M410.181 398.545H401.454V407.273H410.181V398.545Z" fill="black"/>
<path d="M445.091 398.545H436.363V407.273H445.091V398.545Z" fill="black"/>
<path d="M453.818 398.545H445.091V407.273H453.818V398.545Z" fill="black"/>
<path d="M488.727 398.545H480V407.273H488.727V398.545Z" fill="black"/>
<path d="M497.454 398.545H488.727V407.273H497.454V398.545Z" fill="black"/>
<path d="M523.635 398.545H514.908V407.273H523.635V398.545Z" fill="black"/>
<path d="M541.091 398.545H532.363V407.273H541.091V398.545Z" fill="black"/>
<path d="M331.635 407.273H322.908V416H331.635V407.273Z" fill="black"/>
<path d="M357.818 407.273H349.091V416H357.818V407.273Z" fill="black"/>
<path d="M392.727 407.273H384V416H392.727V407.273Z" fill="black"/>
<path d="M401.454 407.273H392.727V416H401.454V407.273Z" fill="black"/>
<path d="M410.181 407.273H401.454V416H410.181V407.273Z" fill="black"/>
<path d="M418.909 407.273H410.182V416H418.909V407.273Z" fill="black"/>
<path d="M445.091 407.273H436.363V416H445.091V407.273Z" fill="black"/>
<path d="M453.818 407.273H445.091V416H453.818V407.273Z" fill="black"/>
<path d="M462.545 407.273H453.817V416H462.545V407.273Z" fill="black"/>
<path d="M480 407.273H471.272V416H480V407.273Z" fill="black"/>
<path d="M506.181 407.273H497.454V416H506.181V407.273Z" fill="black"/>
<path d="M523.635 407.273H514.908V416H523.635V407.273Z" fill="black"/>
<path d="M541.091 407.273H532.363V416H541.091V407.273Z" fill="black"/>
<path d="M322.909 416H314.182V424.727H322.909V416Z" fill="black"/>
<path d="M331.635 416H322.908V424.727H331.635V416Z" fill="black"/>
<path d="M349.091 416H340.363V424.727H349.091V416Z" fill="black"/>
<path d="M366.545 416H357.817V424.727H366.545V416Z" fill="black"/>
<path d="M418.909 416H410.182V424.727H418.909V416Z" fill="black"/>
<path d="M427.635 416H418.908V424.727H427.635V416Z" fill="black"/>
<path d="M445.091 416H436.363V424.727H445.091V416Z" fill="black"/>
<path d="M453.818 416H445.091V424.727H453.818V416Z" fill="black"/>
<path d="M462.545 416H453.817V424.727H462.545V416Z" fill="black"/>
<path d="M471.272 416H462.545V424.727H471.272V416Z" fill="black"/>
<path d="M480 416H471.272V424.727H480V416Z" fill="black"/>
<path d="M488.727 416H480V424.727H488.727V416Z" fill="black"/>
<path d="M497.454 416H488.727V424.727H497.454V416Z" fill="black"/>
<path d="M506.181 416H497.454V424.727H506.181V416Z" fill="black"/>
<path d="M514.909 416H506.182V424.727H514.909V416Z" fill="black"/>
<path d="M523.635 416H514.908V424.727H523.635V416Z" fill="black"/>
<path d="M532.363 416H523.636V424.727H532.363V416Z" fill="black"/>
<path d="M541.091 416H532.363V424.727H541.091V416Z" fill="black"/>
<path d="M384 424.727H375.272V433.455H384V424.727Z" fill="black"/>
<path d="M427.635 424.727H418.908V433.455H427.635V424.727Z" fill="black"/>
<path d="M436.363 424.727H427.636V433.455H436.363V424.727Z" fill="black"/>
<path d="M453.818 424.727H445.091V433.455H453.818V424.727Z" fill="black"/>
<path d="M488.727 424.727H480V433.455H488.727V424.727Z" fill="black"/>
<path d="M523.635 424.727H514.908V433.455H523.635V424.727Z" fill="black"/>
<path d="M532.363 424.727H523.636V433.455H532.363V424.727Z" fill="black"/>
<path d="M541.091 424.727H532.363V433.455H541.091V424.727Z" fill="black"/>
<path d="M549.818 424.727H541.091V433.455H549.818V424.727Z" fill="black"/>
<path d="M558.545 424.727H549.817V433.455H558.545V424.727Z" fill="black"/>
<path d="M384 433.455H375.272V442.182H384V433.455Z" fill="black"/>
<path d="M392.727 433.455H384V442.182H392.727V433.455Z" fill="black"/>
<path d="M410.181 433.455H401.454V442.182H410.181V433.455Z" fill="black"/>
<path d="M418.909 433.455H410.182V442.182H418.909V433.455Z" fill="black"/>
<path d="M427.635 433.455H418.908V442.182H427.635V433.455Z" fill="black"/>
<path d="M453.818 433.455H445.091V442.182H453.818V433.455Z" fill="black"/>
<path d="M462.545 433.455H453.817V442.182H462.545V433.455Z" fill="black"/>
<path d="M471.272 433.455H462.545V442.182H471.272V433.455Z" fill="black"/>
<path d="M480 433.455H471.272V442.182H480V433.455Z" fill="black"/>
<path d="M488.727 433.455H480V442.182H488.727V433.455Z" fill="black"/>
<path d="M506.181 433.455H497.454V442.182H506.181V433.455Z" fill="black"/>
<path d="M523.635 433.455H514.908V442.182H523.635V433.455Z" fill="black"/>
<path d="M532.363 433.455H523.636V442.182H532.363V433.455Z" fill="black"/>
<path d="M549.818 433.455H541.091V442.182H549.818V433.455Z" fill="black"/>
<path d="M384 442.182H375.272V450.909H384V442.182Z" fill="black"/>
<path d="M392.727 442.182H384V450.909H392.727V442.182Z" fill="black"/>
<path d="M401.454 442.182H392.727V450.909H401.454V442.182Z" fill="black"/>
<path d="M410.181 442.182H401.454V450.909H410.181V442.182Z" fill="black"/>
<path d="M418.909 442.182H410.182V450.909H418.909V442.182Z" fill="black"/>
<path d="M445.091 442.182H436.363V450.909H445.091V442.182Z" fill="black"/>
<path d="M453.818 442.182H445.091V450.909H453.818V442.182Z" fill="black"/>
<path d="M488.727 442.182H480V450.909H488.727V442.182Z" fill="black"/>
<path d="M523.635 442.182H514.908V450.909H523.635V442.182Z" fill="black"/>
<path d="M532.363 442.182H523.636V450.909H532.363V442.182Z" fill="black"/>
<path d="M549.818 442.182H541.091V450.909H549.818V442.182Z" fill="black"/>
<path d="M558.545 442.182H549.817V450.909H558.545V442.182Z" fill="black"/>
<path d="M392.727 450.909H384V459.636H392.727V450.909Z" fill="black"/>
<path d="M410.181 450.909H401.454V459.636H410.181V450.909Z" fill="black"/>
<path d="M436.363 450.909H427.636V459.636H436.363V450.909Z" fill="black"/>
<path d="M445.091 450.909H436.363V459.636H445.091V450.909Z" fill="black"/>
<path d="M462.545 450.909H453.817V459.636H462.545V450.909Z" fill="black"/>
<path d="M488.727 450.909H480V459.636H488.727V450.909Z" fill="black"/>
<path d="M497.454 450.909H488.727V459.636H497.454V450.909Z" fill="black"/>
<path d="M506.181 450.909H497.454V459.636H506.181V450.909Z" fill="black"/>
<path d="M514.909 450.909H506.182V459.636H514.909V450.909Z" fill="black"/>
<path d="M523.635 450.909H514.908V459.636H523.635V450.909Z" fill="black"/>
<path d="M541.091 450.909H532.363V459.636H541.091V450.909Z" fill="black"/>
<path d="M549.818 450.909H541.091V459.636H549.818V450.909Z" fill="black"/>
<path d="M384 459.636H375.272V468.364H384V459.636Z" fill="black"/>
<path d="M392.727 459.636H384V468.364H392.727V459.636Z" fill="black"/>
<path d="M401.454 459.636H392.727V468.364H401.454V459.636Z" fill="black"/>
<path d="M436.363 459.636H427.636V468.364H436.363V459.636Z" fill="black"/>
<path d="M445.091 459.636H436.363V468.364H445.091V459.636Z" fill="black"/>
<path d="M453.818 459.636H445.091V468.364H453.818V459.636Z" fill="black"/>
<path d="M471.272 459.636H462.545V468.364H471.272V459.636Z" fill="black"/>
<path d="M497.454 459.636H488.727V468.364H497.454V459.636Z" fill="black"/>
<path d="M514.909 459.636H506.182V468.364H514.909V459.636Z" fill="black"/>
<path d="M523.635 459.636H514.908V468.364H523.635V459.636Z" fill="black"/>
<path d="M532.363 459.636H523.636V468.364H532.363V459.636Z" fill="black"/>
<path d="M558.545 459.636H549.817V468.364H558.545V459.636Z" fill="black"/>
<path d="M384 468.364H375.272V477.091H384V468.364Z" fill="black"/>
<path d="M392.727 468.364H384V477.091H392.727V468.364Z" fill="black"/>
<path d="M401.454 468.364H392.727V477.091H401.454V468.364Z" fill="black"/>
<path d="M410.181 468.364H401.454V477.091H410.181V468.364Z" fill="black"/>
<path d="M418.909 468.364H410.182V477.091H418.909V468.364Z" fill="black"/>
<path d="M427.635 468.364H418.908V477.091H427.635V468.364Z" fill="black"/>
<path d="M453.818 468.364H445.091V477.091H453.818V468.364Z" fill="black"/>
<path d="M488.727 468.364H480V477.091H488.727V468.364Z" fill="black"/>
<path d="M514.909 468.364H506.182V477.091H514.909V468.364Z" fill="black"/>
<path d="M541.091 468.364H532.363V477.091H541.091V468.364Z" fill="black"/>
<path d="M558.545 468.364H549.817V477.091H558.545V468.364Z" fill="black"/>
<path d="M410.181 477.091H401.454V485.818H410.181V477.091Z" fill="black"/>
<path d="M418.909 477.091H410.182V485.818H418.909V477.091Z" fill="black"/>
<path d="M427.635 477.091H418.908V485.818H427.635V477.091Z" fill="black"/>
<path d="M436.363 477.091H427.636V485.818H436.363V477.091Z" fill="black"/>
<path d="M453.818 477.091H445.091V485.818H453.818V477.091Z" fill="black"/>
<path d="M488.727 477.091H480V485.818H488.727V477.091Z" fill="black"/>
<path d="M514.909 477.091H506.182V485.818H514.909V477.091Z" fill="black"/>
<path d="M532.363 477.091H523.636V485.818H532.363V477.091Z" fill="black"/>
<path d="M549.818 477.091H541.091V485.818H549.818V477.091Z" fill="black"/>
<path d="M384 485.818H375.272V494.545H384V485.818Z" fill="black"/>
<path d="M410.181 485.818H401.454V494.545H410.181V485.818Z" fill="black"/>
<path d="M436.363 485.818H427.636V494.545H436.363V485.818Z" fill="black"/>
<path d="M445.091 485.818H436.363V494.545H445.091V485.818Z" fill="black"/>
<path d="M488.727 485.818H480V494.545H488.727V485.818Z" fill="black"/>
<path d="M497.454 485.818H488.727V494.545H497.454V485.818Z" fill="black"/>
<path d="M549.818 485.818H541.091V494.545H549.818V485.818Z" fill="black"/>
<path d="M357.381 241.455H314.618H305.454V250.618V293.382V302.545H314.618H357.381H366.545V293.382V250.618V241.455H357.381ZM357.381 293.382H314.618V250.618H357.381V293.382Z" fill="black"/>
<path d="M549.381 241.455H506.618H497.454V250.618V293.382V302.545H506.618H549.381H558.545V293.382V250.618V241.455H549.381ZM549.381 293.382H506.618V250.618H549.381V293.382Z" fill="black"/>
<path d="M357.381 433.455H314.618H305.454V442.618V485.382V494.545H314.618H357.381H366.545V485.382V442.618V433.455H357.381ZM357.381 485.382H314.618V442.618H357.381V485.382Z" fill="black"/>
<path d="M349.09 258.909H322.908V285.091H349.09V258.909Z" fill="black"/>
<path d="M541.09 258.909H514.908V285.091H541.09V258.909Z" fill="black"/>
<path d="M349.09 450.909H322.908V477.091H349.09V450.909Z" fill="black"/>
</g>
<defs>
<clipPath id="clip0_308_2383">
<rect width="288" height="288" fill="white" transform="translate(288 224)"/>
</clipPath>
</defs>
</svg>
