%TF.GenerationSoftware,KiCad,Pcbnew,(6.0.9-0)*%
%TF.CreationDate,2022-11-16T11:44:24+01:00*%
%TF.ProjectId,GlowCore,476c6f77-436f-4726-952e-6b696361645f,rev?*%
%TF.SameCoordinates,Original*%
%TF.FileFunction,Soldermask,Top*%
%TF.FilePolarity,Negative*%
%FSLAX46Y46*%
G04 Gerber Fmt 4.6, Leading zero omitted, Abs format (unit mm)*
G04 Created by KiCad (PCBNEW (6.0.9-0)) date 2022-11-16 11:44:24*
%MOMM*%
%LPD*%
G01*
G04 APERTURE LIST*
G04 Aperture macros list*
%AMRoundRect*
0 Rectangle with rounded corners*
0 $1 Rounding radius*
0 $2 $3 $4 $5 $6 $7 $8 $9 X,Y pos of 4 corners*
0 Add a 4 corners polygon primitive as box body*
4,1,4,$2,$3,$4,$5,$6,$7,$8,$9,$2,$3,0*
0 Add four circle primitives for the rounded corners*
1,1,$1+$1,$2,$3*
1,1,$1+$1,$4,$5*
1,1,$1+$1,$6,$7*
1,1,$1+$1,$8,$9*
0 Add four rect primitives between the rounded corners*
20,1,$1+$1,$2,$3,$4,$5,0*
20,1,$1+$1,$4,$5,$6,$7,0*
20,1,$1+$1,$6,$7,$8,$9,0*
20,1,$1+$1,$8,$9,$2,$3,0*%
G04 Aperture macros list end*
%ADD10RoundRect,0.237500X0.237500X-0.250000X0.237500X0.250000X-0.237500X0.250000X-0.237500X-0.250000X0*%
%ADD11C,5.600000*%
%ADD12C,0.700025*%
%ADD13R,0.900000X1.200000*%
%ADD14R,1.200000X1.300000*%
%ADD15C,2.000000*%
%ADD16RoundRect,0.250000X0.650000X-0.412500X0.650000X0.412500X-0.650000X0.412500X-0.650000X-0.412500X0*%
%ADD17R,2.000000X0.900000*%
%ADD18R,0.900000X2.000000*%
%ADD19R,1.330000X1.330000*%
%ADD20R,0.280010X0.900000*%
%ADD21R,0.900000X0.280010*%
%ADD22R,3.300000X3.300000*%
%ADD23RoundRect,0.237500X-0.237500X0.300000X-0.237500X-0.300000X0.237500X-0.300000X0.237500X0.300000X0*%
%ADD24RoundRect,0.237500X-0.300000X-0.237500X0.300000X-0.237500X0.300000X0.237500X-0.300000X0.237500X0*%
%ADD25RoundRect,0.237500X-0.250000X-0.237500X0.250000X-0.237500X0.250000X0.237500X-0.250000X0.237500X0*%
%ADD26O,0.750013X0.250013*%
%ADD27RoundRect,0.237500X0.300000X0.237500X-0.300000X0.237500X-0.300000X-0.237500X0.300000X-0.237500X0*%
%ADD28R,0.600000X0.419990*%
%ADD29R,0.700000X1.250013*%
%ADD30R,0.600000X1.070003*%
%ADD31RoundRect,0.237500X0.250000X0.237500X-0.250000X0.237500X-0.250000X-0.237500X0.250000X-0.237500X0*%
%ADD32RoundRect,0.250000X0.400000X1.450000X-0.400000X1.450000X-0.400000X-1.450000X0.400000X-1.450000X0*%
%ADD33R,0.600000X1.300000*%
%ADD34R,0.300000X1.300000*%
%ADD35O,1.200000X2.200000*%
%ADD36O,1.200000X1.800000*%
%ADD37RoundRect,0.237500X-0.237500X0.250000X-0.237500X-0.250000X0.237500X-0.250000X0.237500X0.250000X0*%
%ADD38R,1.620015X2.046380*%
%ADD39R,0.550013X1.050013*%
%ADD40R,1.400000X0.450013*%
%ADD41R,0.450013X2.400000*%
%ADD42R,0.550013X1.000000*%
%ADD43R,2.470003X0.980010*%
%ADD44R,2.470003X3.600000*%
%ADD45R,1.000000X0.550013*%
G04 APERTURE END LIST*
D10*
%TO.C,R12*%
X155422600Y-121537100D03*
X155422600Y-119712100D03*
%TD*%
D11*
%TO.C,H8*%
X135915400Y-133761200D03*
%TD*%
%TO.C,H7*%
X164947600Y-67900000D03*
%TD*%
%TO.C,H6*%
X124231400Y-67900000D03*
%TD*%
%TO.C,H5*%
X153466800Y-133761200D03*
%TD*%
D12*
%TO.C,SW2*%
X160895286Y-136409868D03*
X159195260Y-136409868D03*
D13*
X162345375Y-136409868D03*
X157745425Y-136409868D03*
D14*
X161720279Y-134859957D03*
X158370267Y-134859957D03*
%TD*%
D15*
%TO.C,P2*%
X123750451Y-104450000D03*
X123750451Y-109451270D03*
X123750451Y-114450000D03*
X123750451Y-119451270D03*
X123750451Y-124450000D03*
X123750451Y-129451270D03*
%TD*%
D16*
%TO.C,C4*%
X136728200Y-95479400D03*
X136728200Y-92354400D03*
%TD*%
D17*
%TO.C,U7*%
X135357600Y-72666700D03*
X135357600Y-73936700D03*
X135357600Y-75206700D03*
X135357600Y-76476700D03*
X135357600Y-77746700D03*
X135357600Y-79016700D03*
X135357600Y-80286700D03*
X135357600Y-81556700D03*
X135357600Y-82826700D03*
X135357600Y-84096700D03*
X135357600Y-85366700D03*
X135357600Y-86636700D03*
X135357600Y-87906700D03*
X135357600Y-89176700D03*
D18*
X138142600Y-90176700D03*
X139412600Y-90176700D03*
X140682600Y-90176700D03*
X141952600Y-90176700D03*
X143222600Y-90176700D03*
X144492600Y-90176700D03*
X145762600Y-90176700D03*
X147032600Y-90176700D03*
X148302600Y-90176700D03*
X149572600Y-90176700D03*
D17*
X152357600Y-89176700D03*
X152357600Y-87906700D03*
X152357600Y-86636700D03*
X152357600Y-85366700D03*
X152357600Y-84096700D03*
X152357600Y-82826700D03*
X152357600Y-81556700D03*
X152357600Y-80286700D03*
X152357600Y-79016700D03*
X152357600Y-77746700D03*
X152357600Y-76476700D03*
X152357600Y-75206700D03*
X152357600Y-73936700D03*
X152357600Y-72666700D03*
D19*
X141022600Y-80166700D03*
X141022600Y-82001700D03*
X142857600Y-80166700D03*
X144692600Y-78331700D03*
X142857600Y-78331700D03*
X144692600Y-82001700D03*
X144692600Y-80166700D03*
X141022600Y-78331700D03*
X142857600Y-82001700D03*
%TD*%
D10*
%TO.C,R1*%
X155346400Y-83843500D03*
X155346400Y-82018500D03*
%TD*%
D20*
%TO.C,U13*%
X144955333Y-118527149D03*
X145455714Y-118527149D03*
X145956095Y-118527149D03*
X146456476Y-118527149D03*
X146956857Y-118527149D03*
X147457238Y-118527149D03*
X147957619Y-118527149D03*
D21*
X148956603Y-117528419D03*
X148956603Y-117028038D03*
X148956603Y-116527657D03*
X148956603Y-116027276D03*
X148956603Y-115526895D03*
X148956603Y-115026514D03*
X148956603Y-114526133D03*
D20*
X147957619Y-113527149D03*
X147457238Y-113527149D03*
X146956857Y-113527149D03*
X146456476Y-113527149D03*
X145956095Y-113527149D03*
X145455714Y-113527149D03*
X144955333Y-113527149D03*
D21*
X143956603Y-114526133D03*
X143956603Y-115026514D03*
X143956603Y-115526895D03*
X143956603Y-116027276D03*
X143956603Y-116527657D03*
X143956603Y-117028038D03*
X143956603Y-117528419D03*
D22*
X146456476Y-116027276D03*
%TD*%
D23*
%TO.C,C3*%
X132790000Y-72472500D03*
X132790000Y-74197500D03*
%TD*%
D24*
%TO.C,C11*%
X145939600Y-100355400D03*
X147664600Y-100355400D03*
%TD*%
D11*
%TO.C,H4*%
X116300000Y-133761200D03*
%TD*%
D24*
%TO.C,C7*%
X149730403Y-121340270D03*
X148005403Y-121340270D03*
%TD*%
D25*
%TO.C,R13*%
X139266300Y-100304600D03*
X137441300Y-100304600D03*
%TD*%
D15*
%TO.C,P1*%
X123750451Y-73900000D03*
X123750451Y-78901270D03*
X123750451Y-83900000D03*
X123750451Y-88901270D03*
X123750451Y-93900000D03*
X123750451Y-98901270D03*
%TD*%
D25*
%TO.C,R7*%
X151638000Y-93802200D03*
X153463000Y-93802200D03*
%TD*%
D16*
%TO.C,C9*%
X133426200Y-95504800D03*
X133426200Y-92379800D03*
%TD*%
D11*
%TO.C,H2*%
X172987800Y-67900000D03*
%TD*%
D26*
%TO.C,U8*%
X157578711Y-86720961D03*
X157578711Y-86220834D03*
X157578711Y-85720961D03*
X157578711Y-85220834D03*
X154478889Y-85220834D03*
X154478889Y-85720961D03*
X154478889Y-86220834D03*
X154478889Y-86720961D03*
%TD*%
D27*
%TO.C,C6*%
X144372500Y-100355400D03*
X142647500Y-100355400D03*
%TD*%
D28*
%TO.C,U14*%
X142114704Y-118074187D03*
X142114704Y-117424200D03*
X142114704Y-116774213D03*
X140214780Y-116774213D03*
X140214780Y-117424200D03*
X140214780Y-118074187D03*
%TD*%
D29*
%TO.C,U3*%
X135077200Y-96244300D03*
X136027162Y-98244300D03*
X134127238Y-98244300D03*
%TD*%
D30*
%TO.C,U6*%
X135510900Y-101901223D03*
X136460862Y-104371377D03*
X134560938Y-104371377D03*
%TD*%
D25*
%TO.C,R9*%
X135966200Y-100304600D03*
X134141200Y-100304600D03*
%TD*%
D23*
%TO.C,C2*%
X155266800Y-88723300D03*
X155266800Y-90448300D03*
%TD*%
D25*
%TO.C,R10*%
X150623900Y-98145600D03*
X152448900Y-98145600D03*
%TD*%
D24*
%TO.C,C12*%
X132739300Y-87757000D03*
X131014300Y-87757000D03*
%TD*%
D31*
%TO.C,R15*%
X143916400Y-123444000D03*
X145741400Y-123444000D03*
%TD*%
D32*
%TO.C,F1*%
X148681400Y-126136400D03*
X144231400Y-126136400D03*
%TD*%
D24*
%TO.C,C8*%
X131039700Y-75793600D03*
X132764700Y-75793600D03*
%TD*%
D11*
%TO.C,H1*%
X116300000Y-67947460D03*
%TD*%
D24*
%TO.C,C15*%
X132739300Y-86283800D03*
X131014300Y-86283800D03*
%TD*%
D10*
%TO.C,R8*%
X156816200Y-83843500D03*
X156816200Y-82018500D03*
%TD*%
D31*
%TO.C,R6*%
X132812500Y-79400400D03*
X130987500Y-79400400D03*
%TD*%
D25*
%TO.C,R11*%
X132664200Y-100304600D03*
X130839200Y-100304600D03*
%TD*%
D12*
%TO.C,USB1*%
X147560018Y-132332535D03*
X141779982Y-132332535D03*
D33*
X141470102Y-131089964D03*
X142269949Y-131089964D03*
D34*
X143420064Y-131089964D03*
X144420064Y-131089964D03*
X144919936Y-131089964D03*
X145919936Y-131089964D03*
D33*
X147869898Y-131089964D03*
X147070051Y-131089964D03*
D34*
X146420064Y-131089964D03*
X145420064Y-131089964D03*
X143919936Y-131089964D03*
X142919936Y-131089964D03*
D35*
X140349959Y-131832408D03*
X148990041Y-131832408D03*
D36*
X148990041Y-136012494D03*
X140349959Y-136012494D03*
%TD*%
D15*
%TO.C,P4*%
X165555549Y-98900000D03*
X165555549Y-93898730D03*
X165555549Y-88900000D03*
X165555549Y-83898730D03*
X165555549Y-78900000D03*
X165555549Y-73898730D03*
%TD*%
D25*
%TO.C,R4*%
X130987500Y-77950000D03*
X132812500Y-77950000D03*
%TD*%
D27*
%TO.C,C5*%
X148006900Y-119888000D03*
X149731900Y-119888000D03*
%TD*%
D37*
%TO.C,R2*%
X150342600Y-124917200D03*
X150342600Y-126742200D03*
%TD*%
D38*
%TO.C,U16*%
X138480825Y-121589769D03*
X138480825Y-126720580D03*
%TD*%
D11*
%TO.C,H3*%
X172987800Y-133761200D03*
%TD*%
D29*
%TO.C,U9*%
X138342375Y-96244300D03*
X139292337Y-98244300D03*
X137392413Y-98244300D03*
%TD*%
D39*
%TO.C,U15*%
X131407914Y-82473800D03*
X131407914Y-83824067D03*
X132257800Y-83824067D03*
X132257800Y-82473800D03*
D40*
X131832857Y-81424016D03*
D41*
X130607812Y-83148934D03*
D40*
X131832857Y-84873851D03*
D41*
X133057901Y-83148934D03*
%TD*%
D24*
%TO.C,C14*%
X151689900Y-95304200D03*
X153414900Y-95304200D03*
%TD*%
D42*
%TO.C,U5*%
X150662740Y-99615749D03*
X151612702Y-99615749D03*
X152562664Y-99615749D03*
X152562664Y-102415851D03*
X151612702Y-102415851D03*
X150662740Y-102415851D03*
%TD*%
D23*
%TO.C,C1*%
X156740000Y-88723300D03*
X156740000Y-90448300D03*
%TD*%
D31*
%TO.C,R5*%
X153463000Y-92329000D03*
X151638000Y-92329000D03*
%TD*%
D43*
%TO.C,U12*%
X142351500Y-93813625D03*
X142351500Y-96113600D03*
X142351500Y-98413575D03*
D44*
X148021300Y-96113600D03*
%TD*%
D45*
%TO.C,U10*%
X151177749Y-121549060D03*
X151177749Y-120599098D03*
X151177749Y-119649136D03*
X153977851Y-119649136D03*
X153977851Y-120599098D03*
X153977851Y-121549060D03*
%TD*%
D14*
%TO.C,SW1*%
X164866467Y-134885357D03*
X168216479Y-134885357D03*
D13*
X164241625Y-136435268D03*
X168841575Y-136435268D03*
D12*
X165691460Y-136435268D03*
X167391486Y-136435268D03*
%TD*%
%TO.C,SW3*%
X123785886Y-136435268D03*
X122085860Y-136435268D03*
D13*
X125235975Y-136435268D03*
X120636025Y-136435268D03*
D14*
X124610879Y-134885357D03*
X121260867Y-134885357D03*
%TD*%
D38*
%TO.C,U34*%
X141638425Y-121589769D03*
X141638425Y-126720580D03*
%TD*%
D31*
%TO.C,R16*%
X147220300Y-123444000D03*
X149045300Y-123444000D03*
%TD*%
D29*
%TO.C,U4*%
X131775200Y-96244300D03*
X132725162Y-98244300D03*
X130825238Y-98244300D03*
%TD*%
D37*
%TO.C,R3*%
X151815800Y-124919100D03*
X151815800Y-126744100D03*
%TD*%
D15*
%TO.C,P3*%
X165555549Y-129450000D03*
X165555549Y-124448730D03*
X165555549Y-119450000D03*
X165555549Y-114448730D03*
X165555549Y-109450000D03*
X165555549Y-104448730D03*
%TD*%
D12*
%TO.C,SW4*%
X130297486Y-136435268D03*
X128597460Y-136435268D03*
D13*
X131747575Y-136435268D03*
X127147625Y-136435268D03*
D14*
X131122479Y-134885357D03*
X127772467Y-134885357D03*
%TD*%
M02*
