%TF.GenerationSoftware,KiCad,Pcbnew,(6.0.6-0)*%
%TF.CreationDate,2022-07-18T09:28:08+02:00*%
%TF.ProjectId,GlowCore,476c6f77-436f-4726-952e-6b696361645f,rev?*%
%TF.SameCoordinates,Original*%
%TF.FileFunction,Paste,Top*%
%TF.FilePolarity,Positive*%
%FSLAX46Y46*%
G04 Gerber Fmt 4.6, Leading zero omitted, Abs format (unit mm)*
G04 Created by KiCad (PCBNEW (6.0.6-0)) date 2022-07-18 09:28:08*
%MOMM*%
%LPD*%
G01*
G04 APERTURE LIST*
G04 Aperture macros list*
%AMRoundRect*
0 Rectangle with rounded corners*
0 $1 Rounding radius*
0 $2 $3 $4 $5 $6 $7 $8 $9 X,Y pos of 4 corners*
0 Add a 4 corners polygon primitive as box body*
4,1,4,$2,$3,$4,$5,$6,$7,$8,$9,$2,$3,0*
0 Add four circle primitives for the rounded corners*
1,1,$1+$1,$2,$3*
1,1,$1+$1,$4,$5*
1,1,$1+$1,$6,$7*
1,1,$1+$1,$8,$9*
0 Add four rect primitives between the rounded corners*
20,1,$1+$1,$2,$3,$4,$5,0*
20,1,$1+$1,$4,$5,$6,$7,0*
20,1,$1+$1,$6,$7,$8,$9,0*
20,1,$1+$1,$8,$9,$2,$3,0*%
%AMFreePoly0*
4,1,112,3.105582,3.191654,3.458980,3.129341,3.803230,3.028022,4.134041,2.888962,4.447289,2.713894,4.739071,2.504999,5.005748,2.264881,5.243998,1.996534,5.450851,1.703301,5.623729,1.388838,5.760476,1.057065,5.859388,0.712116,5.919233,0.358291,5.939265,0.000000,5.938012,-0.089748,5.907984,-0.447339,5.838283,-0.799355,5.729777,-1.141408,5.583820,-1.469234,5.402230,-1.778747,
5.187270,-2.066090,4.941620,-2.327680,4.668342,-2.560258,4.370841,-2.760925,4.052827,-2.927179,3.718263,-3.056948,3.371318,-3.148614,3.016317,-3.201036,2.657686,-3.213560,2.299893,-3.186029,1.947399,-3.118788,1.604597,-3.012673,1.275760,-2.869007,0.964987,-2.689582,0.676150,-2.476634,0.412851,-2.232816,0.178371,-1.961168,-0.024367,-1.665076,-0.192837,-1.348230,-0.324939,-1.014580,
-0.419026,-0.668283,-0.473925,-0.313657,-0.481420,-0.134825,-0.481581,-0.134460,-0.499164,0.000000,0.505984,0.000000,0.524968,-0.289640,0.581595,-0.574324,0.674897,-0.849181,0.803276,-1.109508,0.964536,-1.350851,1.155919,-1.569081,1.374149,-1.760464,1.615492,-1.921724,1.875819,-2.050103,2.150676,-2.143405,2.435360,-2.200032,2.725000,-2.219016,3.014640,-2.200032,3.299324,-2.143405,
3.574181,-2.050103,3.834508,-1.921724,4.075851,-1.760464,4.294081,-1.569081,4.485464,-1.350851,4.646724,-1.109508,4.775103,-0.849181,4.868405,-0.574324,4.925032,-0.289640,4.944016,0.000000,4.925032,0.289640,4.868405,0.574324,4.775103,0.849181,4.646724,1.109508,4.485464,1.350851,4.294081,1.569081,4.075851,1.760464,3.834508,1.921724,3.574181,2.050103,3.299324,2.143405,
3.014640,2.200032,2.725000,2.219016,2.435360,2.200032,2.150676,2.143405,1.875819,2.050103,1.615492,1.921724,1.374149,1.760464,1.155919,1.569081,0.964536,1.350851,0.803276,1.109508,0.674897,0.849181,0.581595,0.574324,0.524968,0.289640,0.505984,0.000000,-0.499164,0.000000,-0.499963,0.006109,-0.484897,0.102868,-0.463920,0.402854,-0.399140,0.755809,-0.295421,1.099343,
-0.154055,1.429175,0.023196,1.741194,0.234123,2.031510,0.476097,2.296505,0.746101,2.532875,1.040770,2.737676,1.356433,2.908354,1.689153,3.042782,2.034784,3.139284,2.389018,3.196657,2.747440,3.214187,3.105582,3.191654,3.105582,3.191654,$1*%
G04 Aperture macros list end*
%ADD10FreePoly0,0.000000*%
%ADD11RoundRect,0.237500X0.237500X-0.300000X0.237500X0.300000X-0.237500X0.300000X-0.237500X-0.300000X0*%
%ADD12RoundRect,0.250000X-0.550000X1.500000X-0.550000X-1.500000X0.550000X-1.500000X0.550000X1.500000X0*%
%ADD13R,2.000000X0.900000*%
%ADD14R,0.900000X2.000000*%
%ADD15R,1.330000X1.330000*%
%ADD16RoundRect,0.237500X0.237500X-0.250000X0.237500X0.250000X-0.237500X0.250000X-0.237500X-0.250000X0*%
%ADD17R,0.280010X0.900000*%
%ADD18R,0.900000X0.280010*%
%ADD19R,3.300000X3.300000*%
%ADD20RoundRect,0.237500X-0.237500X0.300000X-0.237500X-0.300000X0.237500X-0.300000X0.237500X0.300000X0*%
%ADD21RoundRect,0.237500X-0.300000X-0.237500X0.300000X-0.237500X0.300000X0.237500X-0.300000X0.237500X0*%
%ADD22R,1.500000X0.900000*%
%ADD23RoundRect,0.237500X-0.250000X-0.237500X0.250000X-0.237500X0.250000X0.237500X-0.250000X0.237500X0*%
%ADD24O,0.750013X0.250013*%
%ADD25R,0.600000X0.419990*%
%ADD26RoundRect,0.237500X0.300000X0.237500X-0.300000X0.237500X-0.300000X-0.237500X0.300000X-0.237500X0*%
%ADD27RoundRect,0.250000X0.400000X1.450000X-0.400000X1.450000X-0.400000X-1.450000X0.400000X-1.450000X0*%
%ADD28R,1.620015X2.046380*%
%ADD29R,0.500000X0.280010*%
%ADD30R,0.280010X0.500000*%
%ADD31RoundRect,0.237500X0.250000X0.237500X-0.250000X0.237500X-0.250000X-0.237500X0.250000X-0.237500X0*%
%ADD32R,0.600000X1.300000*%
%ADD33R,0.300000X1.300000*%
%ADD34RoundRect,0.237500X-0.237500X0.250000X-0.237500X-0.250000X0.237500X-0.250000X0.237500X0.250000X0*%
%ADD35R,0.550013X1.050013*%
%ADD36R,1.400000X0.450013*%
%ADD37R,0.450013X2.400000*%
%ADD38R,2.470003X0.980010*%
%ADD39R,2.470003X3.600000*%
G04 APERTURE END LIST*
D10*
%TO.C,U3*%
X121669400Y-133637460D03*
%TD*%
%TO.C,U4*%
X162329460Y-133637460D03*
%TD*%
%TO.C,U30*%
X154732230Y-133637460D03*
%TD*%
%TO.C,U33*%
X129242200Y-133637460D03*
%TD*%
%TO.C,U32*%
X170270000Y-67900000D03*
%TD*%
%TO.C,U1*%
X121552200Y-67947460D03*
%TD*%
%TO.C,U31*%
X113582200Y-67947460D03*
%TD*%
%TO.C,U2*%
X162270000Y-67900000D03*
%TD*%
D11*
%TO.C,C8*%
X143610000Y-96582500D03*
X143610000Y-94857500D03*
%TD*%
D12*
%TO.C,C4*%
X133620000Y-121250000D03*
X133620000Y-126850000D03*
%TD*%
D13*
%TO.C,U7*%
X135357600Y-72666700D03*
X135357600Y-73936700D03*
X135357600Y-75206700D03*
X135357600Y-76476700D03*
X135357600Y-77746700D03*
X135357600Y-79016700D03*
X135357600Y-80286700D03*
X135357600Y-81556700D03*
X135357600Y-82826700D03*
X135357600Y-84096700D03*
X135357600Y-85366700D03*
X135357600Y-86636700D03*
X135357600Y-87906700D03*
X135357600Y-89176700D03*
D14*
X138142600Y-90176700D03*
X139412600Y-90176700D03*
X140682600Y-90176700D03*
X141952600Y-90176700D03*
X143222600Y-90176700D03*
X144492600Y-90176700D03*
X145762600Y-90176700D03*
X147032600Y-90176700D03*
X148302600Y-90176700D03*
X149572600Y-90176700D03*
D13*
X152357600Y-89176700D03*
X152357600Y-87906700D03*
X152357600Y-86636700D03*
X152357600Y-85366700D03*
X152357600Y-84096700D03*
X152357600Y-82826700D03*
X152357600Y-81556700D03*
X152357600Y-80286700D03*
X152357600Y-79016700D03*
X152357600Y-77746700D03*
X152357600Y-76476700D03*
X152357600Y-75206700D03*
X152357600Y-73936700D03*
X152357600Y-72666700D03*
D15*
X142857600Y-80166700D03*
X141022600Y-80166700D03*
X144692600Y-78331700D03*
X142857600Y-78331700D03*
X144692600Y-80166700D03*
X144692600Y-82001700D03*
X142857600Y-82001700D03*
X141022600Y-82001700D03*
X141022600Y-78331700D03*
%TD*%
D16*
%TO.C,R1*%
X155690000Y-84962500D03*
X155690000Y-83137500D03*
%TD*%
D17*
%TO.C,U13*%
X149778730Y-116954879D03*
X150279111Y-116954879D03*
X150779492Y-116954879D03*
X151279873Y-116954879D03*
X151780254Y-116954879D03*
X152280635Y-116954879D03*
X152781016Y-116954879D03*
D18*
X153780000Y-115956149D03*
X153780000Y-115455768D03*
X153780000Y-114955387D03*
X153780000Y-114455006D03*
X153780000Y-113954625D03*
X153780000Y-113454244D03*
X153780000Y-112953863D03*
D17*
X152781016Y-111954879D03*
X152280635Y-111954879D03*
X151780254Y-111954879D03*
X151279873Y-111954879D03*
X150779492Y-111954879D03*
X150279111Y-111954879D03*
X149778730Y-111954879D03*
D18*
X148780000Y-112953863D03*
X148780000Y-113454244D03*
X148780000Y-113954625D03*
X148780000Y-114455006D03*
X148780000Y-114955387D03*
X148780000Y-115455768D03*
X148780000Y-115956149D03*
D19*
X151279873Y-114455006D03*
%TD*%
D20*
%TO.C,C3*%
X132790000Y-72472500D03*
X132790000Y-74197500D03*
%TD*%
D21*
%TO.C,C11*%
X139424700Y-119201850D03*
X141149700Y-119201850D03*
%TD*%
D22*
%TO.C,SW2*%
X114840076Y-135540064D03*
X118639924Y-135540064D03*
X118639924Y-134039936D03*
X114840076Y-134039936D03*
%TD*%
D21*
%TO.C,C7*%
X153009797Y-120594930D03*
X154734797Y-120594930D03*
%TD*%
D23*
%TO.C,R7*%
X154059700Y-95701850D03*
X155884700Y-95701850D03*
%TD*%
D24*
%TO.C,U8*%
X158178080Y-88609713D03*
X158178080Y-88109586D03*
X158178080Y-87609713D03*
X158178080Y-87109586D03*
X155078258Y-87109586D03*
X155078258Y-87609713D03*
X155078258Y-88109586D03*
X155078258Y-88609713D03*
%TD*%
D11*
%TO.C,C6*%
X131630000Y-118532500D03*
X131630000Y-116807500D03*
%TD*%
D25*
%TO.C,U14*%
X145719962Y-116599987D03*
X145719962Y-115950000D03*
X145719962Y-115300013D03*
X143820038Y-115300013D03*
X143820038Y-115950000D03*
X143820038Y-116599987D03*
%TD*%
D20*
%TO.C,C2*%
X155649700Y-90179350D03*
X155649700Y-91904350D03*
%TD*%
D26*
%TO.C,C12*%
X132692500Y-81850000D03*
X130967500Y-81850000D03*
%TD*%
D27*
%TO.C,F1*%
X149205000Y-126240000D03*
X144755000Y-126240000D03*
%TD*%
D28*
%TO.C,U35*%
X138940025Y-121904569D03*
X138940025Y-127035380D03*
%TD*%
D26*
%TO.C,C15*%
X132702500Y-83780000D03*
X130977500Y-83780000D03*
%TD*%
D29*
%TO.C,U11*%
X140285032Y-96740064D03*
X140285032Y-96239936D03*
X140285032Y-95740064D03*
X140285032Y-95239936D03*
D30*
X139659936Y-95114968D03*
X139160064Y-95114968D03*
D29*
X138534968Y-95239936D03*
X138534968Y-95740064D03*
X138534968Y-96239936D03*
X138534968Y-96740064D03*
D30*
X139160064Y-96865032D03*
X139659936Y-96865032D03*
%TD*%
D26*
%TO.C,C13*%
X132762500Y-76155000D03*
X131037500Y-76155000D03*
%TD*%
D16*
%TO.C,R8*%
X157490000Y-84962500D03*
X157490000Y-83137500D03*
%TD*%
D31*
%TO.C,R6*%
X132812500Y-79745000D03*
X130987500Y-79745000D03*
%TD*%
D32*
%TO.C,USB1*%
X141070102Y-131089964D03*
X141869949Y-131089964D03*
D33*
X143020064Y-131089964D03*
X144020064Y-131089964D03*
X144519936Y-131089964D03*
X145519936Y-131089964D03*
D32*
X147469898Y-131089964D03*
X146670051Y-131089964D03*
D33*
X146020064Y-131089964D03*
X145020064Y-131089964D03*
X143519936Y-131089964D03*
X142519936Y-131089964D03*
%TD*%
D23*
%TO.C,R4*%
X130987500Y-77950000D03*
X132812500Y-77950000D03*
%TD*%
D26*
%TO.C,C5*%
X154734797Y-118714930D03*
X153009797Y-118714930D03*
%TD*%
D34*
%TO.C,R2*%
X152950000Y-127547500D03*
X152950000Y-129372500D03*
%TD*%
D35*
%TO.C,U15*%
X131405057Y-86459784D03*
X131405057Y-87810051D03*
X132254943Y-87810051D03*
X132254943Y-86459784D03*
D36*
X131830000Y-85410000D03*
D37*
X130604955Y-87134918D03*
D36*
X131830000Y-88859835D03*
D37*
X133055044Y-87134918D03*
%TD*%
D21*
%TO.C,C14*%
X154109700Y-97501850D03*
X155834700Y-97501850D03*
%TD*%
D20*
%TO.C,C1*%
X157579700Y-90179350D03*
X157579700Y-91904350D03*
%TD*%
D31*
%TO.C,R5*%
X155884700Y-93901850D03*
X154059700Y-93901850D03*
%TD*%
D38*
%TO.C,U12*%
X134702300Y-112271875D03*
X134702300Y-114571850D03*
X134702300Y-116871825D03*
D39*
X140372100Y-114571850D03*
%TD*%
D22*
%TO.C,SW1*%
X174599924Y-135540064D03*
X170800076Y-135540064D03*
X170800076Y-134039936D03*
X174599924Y-134039936D03*
%TD*%
D11*
%TO.C,C10*%
X145335000Y-96582500D03*
X145335000Y-94857500D03*
%TD*%
D28*
%TO.C,U34*%
X142250025Y-121904569D03*
X142250025Y-127035380D03*
%TD*%
D11*
%TO.C,C9*%
X147060000Y-96582500D03*
X147060000Y-94857500D03*
%TD*%
D34*
%TO.C,R3*%
X151010000Y-127537500D03*
X151010000Y-129362500D03*
%TD*%
M02*
