M48
; DRILL file {KiCad (6.0.9-0)} date 2022 November 16, Wednesday 11:44:24
; FORMAT={-:-/ absolute / inch / decimal}
; #@! TF.CreationDate,2022-11-16T11:44:24+01:00
; #@! TF.GenerationSoftware,Kicad,Pcbnew,(6.0.9-0)
; #@! TF.FileFunction,Plated,1,2,PTH
FMAT,2
INCH
; #@! TA.AperFunction,Plated,PTH,ViaDrill
T1C0.0157
; #@! TA.AperFunction,Plated,PTH,ComponentDrill
T2C0.0276
; #@! TA.AperFunction,Plated,PTH,ViaDrill
T3C0.0454
; #@! TA.AperFunction,Plated,PTH,ComponentDrill
T4C0.0512
; #@! TA.AperFunction,Plated,PTH,ComponentDrill
T5C0.1260
%
G90
G05
T1
X4.51Y-4.957
X4.523Y-2.975
X4.603Y-4.868
X4.615Y-3.047
X4.623Y-4.418
X4.703Y-3.022
X4.755Y-3.118
X4.772Y-5.255
X4.932Y-4.153
X4.969Y-2.831
X5.038Y-3.288
X5.0445Y-2.8675
X5.078Y-5.29
X5.085Y-4.133
X5.106Y-3.069
X5.1205Y-3.5695
X5.132Y-3.194
X5.133Y-2.931
X5.137Y-3.346
X5.166Y-4.6
X5.173Y-3.622
X5.186Y-4.214
X5.189Y-3.156
X5.198Y-3.425
X5.201Y-3.749
X5.223Y-3.909
X5.224Y-3.023
X5.238Y-3.182
X5.263Y-3.252
X5.2691Y-3.3406
X5.317Y-3.622
X5.324Y-3.749
X5.3554Y-3.9116
X5.38Y-4.787
X5.389Y-3.308
X5.389Y-3.499
X5.395Y-3.443
X5.399Y-3.35
X5.4Y-3.085
X5.406Y-4.528
X5.4191Y-2.8609
X5.423Y-4.213
X5.429Y-2.994
X5.436Y-3.166
X5.444Y-2.925
X5.465Y-3.643
X5.47Y-3.303
X5.477Y-3.13
X5.479Y-3.087
X5.479Y-5.081
X5.483Y-3.992
X5.486Y-4.284
X5.495Y-4.043
X5.5Y-4.899
X5.504Y-3.196
X5.504Y-4.787
X5.517Y-3.302
X5.535Y-3.897
X5.562Y-4.586
X5.572Y-4.424
X5.573Y-3.317
X5.585Y-4.18
X5.594Y-3.475
X5.6Y-4.558
X5.605Y-3.283
X5.6276Y-4.6032
X5.64Y-5.1124
X5.668Y-5.223
X5.678Y-4.759
X5.681Y-3.8171
X5.687Y-4.263
X5.693Y-3.736
X5.695Y-4.807
X5.697Y-4.888
X5.714Y-5.228
X5.721Y-3.48
X5.728Y-4.124
X5.731Y-4.715
X5.735Y-4.363
X5.74Y-3.904
X5.744Y-3.991
X5.746Y-3.656
X5.755Y-5.1124
X5.762Y-4.908
X5.763Y-3.457
X5.817Y-4.002
X5.8276Y-3.6874
X5.829Y-3.883
X5.83Y-4.123
X5.864Y-4.082
X5.866Y-3.623
X5.873Y-3.662
X5.874Y-3.479
X5.904Y-4.634
X5.919Y-5.029
X5.921Y-3.828
X5.922Y-3.768
X5.923Y-4.08
X5.924Y-3.381
X5.97Y-3.799
X5.974Y-5.033
X5.9938Y-4.411
X6.005Y-3.664
X6.011Y-3.566
X6.0194Y-4.7106
X6.026Y-4.934
X6.041Y-4.03
X6.044Y-3.958
X6.06Y-3.313
X6.066Y-4.533
X6.069Y-3.502
X6.071Y-3.191
X6.087Y-3.694
X6.119Y-3.036
X6.144Y-4.193
X6.1477Y-3.5224
X6.15Y-3.932
X6.153Y-4.032
X6.153Y-4.458
X6.1536Y-3.685
X6.157Y-3.415
X6.157Y-4.342
X6.163Y-4.408
X6.165Y-4.595
X6.171Y-2.993
X6.216Y-4.032
X6.217Y-3.543
X6.217Y-3.694
X6.219Y-3.609
X6.223Y-3.905
X6.229Y-4.11
X6.229Y-4.345
X6.233Y-4.455
X6.238Y-5.125
X6.302Y-3.642
X6.302Y-3.72
X6.311Y-5.304
X6.353Y-3.644
X6.37Y-2.794
X6.429Y-3.462
X6.433Y-3.316
X6.438Y-3.087
X6.444Y-3.544
X6.452Y-4.398
X6.459Y-4.988
X6.559Y-3.769
X6.57Y-3.033
X6.582Y-5.191
X6.598Y-2.985
X6.624Y-2.781
X6.648Y-3.371
X6.669Y-5.308
X6.698Y-3.319
X6.755Y-3.287
X6.798Y-3.611
X6.823Y-3.263
X6.854Y-3.216
X6.887Y-5.102
X6.917Y-2.979
T3
X5.686Y-4.171
X6.202Y-5.187
T4
X4.8721Y-2.9094
X4.8721Y-3.1063
X4.8721Y-3.3031
X4.8721Y-3.5
X4.8721Y-3.6969
X4.8721Y-3.8938
X4.8721Y-4.1122
X4.8721Y-4.3091
X4.8721Y-4.5059
X4.8721Y-4.7028
X4.8721Y-4.8996
X4.8721Y-5.0965
X6.5179Y-2.9094
X6.5179Y-3.1063
X6.5179Y-3.3031
X6.5179Y-3.5
X6.5179Y-3.6968
X6.5179Y-3.8937
X6.5179Y-4.1122
X6.5179Y-4.3091
X6.5179Y-4.5059
X6.5179Y-4.7028
X6.5179Y-4.8996
X6.5179Y-5.0965
T5
X4.5787Y-2.6751
X4.5787Y-5.2662
X4.891Y-2.6732
X5.351Y-5.2662
X6.042Y-5.2662
X6.494Y-2.6732
X6.8105Y-2.6732
X6.8105Y-5.2662
T2
G00X5.5256Y-5.1686
M15
G01X5.5256Y-5.2119
M16
G05
G00X5.5256Y-5.343
M15
G01X5.5256Y-5.3666
M16
G05
G00X5.8657Y-5.1686
M15
G01X5.8657Y-5.2119
M16
G05
G00X5.8657Y-5.343
M15
G01X5.8657Y-5.3666
M16
G05
T0
M30
