%TF.GenerationSoftware,KiCad,Pcbnew,(6.0.9-0)*%
%TF.CreationDate,2022-11-16T11:44:24+01:00*%
%TF.ProjectId,GlowCore,476c6f77-436f-4726-952e-6b696361645f,rev?*%
%TF.SameCoordinates,Original*%
%TF.FileFunction,Other,Comment*%
%FSLAX46Y46*%
G04 Gerber Fmt 4.6, Leading zero omitted, Abs format (unit mm)*
G04 Created by KiCad (PCBNEW (6.0.9-0)) date 2022-11-16 11:44:24*
%MOMM*%
%LPD*%
G01*
G04 APERTURE LIST*
%ADD10C,0.150000*%
%ADD11C,0.100000*%
G04 APERTURE END LIST*
D10*
%TO.C,U7*%
X137768271Y-62389380D02*
X137768271Y-61389380D01*
X138339700Y-62389380D02*
X137911128Y-61817952D01*
X138339700Y-61389380D02*
X137768271Y-61960809D01*
X138768271Y-61865571D02*
X139101604Y-61865571D01*
X139244461Y-62389380D02*
X138768271Y-62389380D01*
X138768271Y-61389380D01*
X139244461Y-61389380D01*
X139673033Y-61865571D02*
X140006366Y-61865571D01*
X140149223Y-62389380D02*
X139673033Y-62389380D01*
X139673033Y-61389380D01*
X140149223Y-61389380D01*
X140577795Y-62389380D02*
X140577795Y-61389380D01*
X140958747Y-61389380D01*
X141053985Y-61437000D01*
X141101604Y-61484619D01*
X141149223Y-61579857D01*
X141149223Y-61722714D01*
X141101604Y-61817952D01*
X141053985Y-61865571D01*
X140958747Y-61913190D01*
X140577795Y-61913190D01*
X141577795Y-62008428D02*
X142339700Y-62008428D01*
X143006366Y-61389380D02*
X143196842Y-61389380D01*
X143292080Y-61437000D01*
X143387319Y-61532238D01*
X143434938Y-61722714D01*
X143434938Y-62056047D01*
X143387319Y-62246523D01*
X143292080Y-62341761D01*
X143196842Y-62389380D01*
X143006366Y-62389380D01*
X142911128Y-62341761D01*
X142815890Y-62246523D01*
X142768271Y-62056047D01*
X142768271Y-61722714D01*
X142815890Y-61532238D01*
X142911128Y-61437000D01*
X143006366Y-61389380D01*
X143863509Y-61389380D02*
X143863509Y-62198904D01*
X143911128Y-62294142D01*
X143958747Y-62341761D01*
X144053985Y-62389380D01*
X144244461Y-62389380D01*
X144339700Y-62341761D01*
X144387319Y-62294142D01*
X144434938Y-62198904D01*
X144434938Y-61389380D01*
X144768271Y-61389380D02*
X145339700Y-61389380D01*
X145053985Y-62389380D02*
X145053985Y-61389380D01*
X146339700Y-61389380D02*
X147006366Y-61389380D01*
X146339700Y-62389380D01*
X147006366Y-62389380D01*
X147577795Y-61389380D02*
X147768271Y-61389380D01*
X147863509Y-61437000D01*
X147958747Y-61532238D01*
X148006366Y-61722714D01*
X148006366Y-62056047D01*
X147958747Y-62246523D01*
X147863509Y-62341761D01*
X147768271Y-62389380D01*
X147577795Y-62389380D01*
X147482557Y-62341761D01*
X147387319Y-62246523D01*
X147339700Y-62056047D01*
X147339700Y-61722714D01*
X147387319Y-61532238D01*
X147482557Y-61437000D01*
X147577795Y-61389380D01*
X148434938Y-62389380D02*
X148434938Y-61389380D01*
X149006366Y-62389380D01*
X149006366Y-61389380D01*
X149482557Y-61865571D02*
X149815890Y-61865571D01*
X149958747Y-62389380D02*
X149482557Y-62389380D01*
X149482557Y-61389380D01*
X149958747Y-61389380D01*
X141077795Y-68103666D02*
X141553985Y-68103666D01*
X140982557Y-68389380D02*
X141315890Y-67389380D01*
X141649223Y-68389380D01*
X141982557Y-67722714D02*
X141982557Y-68389380D01*
X141982557Y-67817952D02*
X142030176Y-67770333D01*
X142125414Y-67722714D01*
X142268271Y-67722714D01*
X142363509Y-67770333D01*
X142411128Y-67865571D01*
X142411128Y-68389380D01*
X142744461Y-67722714D02*
X143125414Y-67722714D01*
X142887319Y-67389380D02*
X142887319Y-68246523D01*
X142934938Y-68341761D01*
X143030176Y-68389380D01*
X143125414Y-68389380D01*
X143839700Y-68341761D02*
X143744461Y-68389380D01*
X143553985Y-68389380D01*
X143458747Y-68341761D01*
X143411128Y-68246523D01*
X143411128Y-67865571D01*
X143458747Y-67770333D01*
X143553985Y-67722714D01*
X143744461Y-67722714D01*
X143839700Y-67770333D01*
X143887319Y-67865571D01*
X143887319Y-67960809D01*
X143411128Y-68056047D01*
X144315890Y-67722714D02*
X144315890Y-68389380D01*
X144315890Y-67817952D02*
X144363509Y-67770333D01*
X144458747Y-67722714D01*
X144601604Y-67722714D01*
X144696842Y-67770333D01*
X144744461Y-67865571D01*
X144744461Y-68389380D01*
X145220652Y-67722714D02*
X145220652Y-68389380D01*
X145220652Y-67817952D02*
X145268271Y-67770333D01*
X145363509Y-67722714D01*
X145506366Y-67722714D01*
X145601604Y-67770333D01*
X145649223Y-67865571D01*
X145649223Y-68389380D01*
X146553985Y-68389380D02*
X146553985Y-67865571D01*
X146506366Y-67770333D01*
X146411128Y-67722714D01*
X146220652Y-67722714D01*
X146125414Y-67770333D01*
X146553985Y-68341761D02*
X146458747Y-68389380D01*
X146220652Y-68389380D01*
X146125414Y-68341761D01*
X146077795Y-68246523D01*
X146077795Y-68151285D01*
X146125414Y-68056047D01*
X146220652Y-68008428D01*
X146458747Y-68008428D01*
X146553985Y-67960809D01*
D11*
X131901604Y-66288190D02*
X131663509Y-66288190D01*
X131639700Y-66526285D01*
X131663509Y-66502476D01*
X131711128Y-66478666D01*
X131830176Y-66478666D01*
X131877795Y-66502476D01*
X131901604Y-66526285D01*
X131925414Y-66573904D01*
X131925414Y-66692952D01*
X131901604Y-66740571D01*
X131877795Y-66764380D01*
X131830176Y-66788190D01*
X131711128Y-66788190D01*
X131663509Y-66764380D01*
X131639700Y-66740571D01*
X132520652Y-66788190D02*
X132520652Y-66454857D01*
X132520652Y-66502476D02*
X132544461Y-66478666D01*
X132592080Y-66454857D01*
X132663509Y-66454857D01*
X132711128Y-66478666D01*
X132734938Y-66526285D01*
X132734938Y-66788190D01*
X132734938Y-66526285D02*
X132758747Y-66478666D01*
X132806366Y-66454857D01*
X132877795Y-66454857D01*
X132925414Y-66478666D01*
X132949223Y-66526285D01*
X132949223Y-66788190D01*
X133187319Y-66788190D02*
X133187319Y-66454857D01*
X133187319Y-66502476D02*
X133211128Y-66478666D01*
X133258747Y-66454857D01*
X133330176Y-66454857D01*
X133377795Y-66478666D01*
X133401604Y-66526285D01*
X133401604Y-66788190D01*
X133401604Y-66526285D02*
X133425414Y-66478666D01*
X133473033Y-66454857D01*
X133544461Y-66454857D01*
X133592080Y-66478666D01*
X133615890Y-66526285D01*
X133615890Y-66788190D01*
X151365890Y-62600095D02*
X151365890Y-62838190D01*
X151603985Y-62862000D01*
X151580176Y-62838190D01*
X151556366Y-62790571D01*
X151556366Y-62671523D01*
X151580176Y-62623904D01*
X151603985Y-62600095D01*
X151651604Y-62576285D01*
X151770652Y-62576285D01*
X151818271Y-62600095D01*
X151842080Y-62623904D01*
X151865890Y-62671523D01*
X151865890Y-62790571D01*
X151842080Y-62838190D01*
X151818271Y-62862000D01*
X151865890Y-61981047D02*
X151532557Y-61981047D01*
X151580176Y-61981047D02*
X151556366Y-61957238D01*
X151532557Y-61909619D01*
X151532557Y-61838190D01*
X151556366Y-61790571D01*
X151603985Y-61766761D01*
X151865890Y-61766761D01*
X151603985Y-61766761D02*
X151556366Y-61742952D01*
X151532557Y-61695333D01*
X151532557Y-61623904D01*
X151556366Y-61576285D01*
X151603985Y-61552476D01*
X151865890Y-61552476D01*
X151865890Y-61314380D02*
X151532557Y-61314380D01*
X151580176Y-61314380D02*
X151556366Y-61290571D01*
X151532557Y-61242952D01*
X151532557Y-61171523D01*
X151556366Y-61123904D01*
X151603985Y-61100095D01*
X151865890Y-61100095D01*
X151603985Y-61100095D02*
X151556366Y-61076285D01*
X151532557Y-61028666D01*
X151532557Y-60957238D01*
X151556366Y-60909619D01*
X151603985Y-60885809D01*
X151865890Y-60885809D01*
X154901604Y-66288190D02*
X154663509Y-66288190D01*
X154639700Y-66526285D01*
X154663509Y-66502476D01*
X154711128Y-66478666D01*
X154830176Y-66478666D01*
X154877795Y-66502476D01*
X154901604Y-66526285D01*
X154925414Y-66573904D01*
X154925414Y-66692952D01*
X154901604Y-66740571D01*
X154877795Y-66764380D01*
X154830176Y-66788190D01*
X154711128Y-66788190D01*
X154663509Y-66764380D01*
X154639700Y-66740571D01*
X155520652Y-66788190D02*
X155520652Y-66454857D01*
X155520652Y-66502476D02*
X155544461Y-66478666D01*
X155592080Y-66454857D01*
X155663509Y-66454857D01*
X155711128Y-66478666D01*
X155734938Y-66526285D01*
X155734938Y-66788190D01*
X155734938Y-66526285D02*
X155758747Y-66478666D01*
X155806366Y-66454857D01*
X155877795Y-66454857D01*
X155925414Y-66478666D01*
X155949223Y-66526285D01*
X155949223Y-66788190D01*
X156187319Y-66788190D02*
X156187319Y-66454857D01*
X156187319Y-66502476D02*
X156211128Y-66478666D01*
X156258747Y-66454857D01*
X156330176Y-66454857D01*
X156377795Y-66478666D01*
X156401604Y-66526285D01*
X156401604Y-66788190D01*
X156401604Y-66526285D02*
X156425414Y-66478666D01*
X156473033Y-66454857D01*
X156544461Y-66454857D01*
X156592080Y-66478666D01*
X156615890Y-66526285D01*
X156615890Y-66788190D01*
D10*
%TO.C,H8*%
X138715400Y-133761200D02*
G75*
G03*
X138715400Y-133761200I-2800000J0D01*
G01*
%TO.C,H7*%
X167747600Y-67900000D02*
G75*
G03*
X167747600Y-67900000I-2800000J0D01*
G01*
%TO.C,H6*%
X127031400Y-67900000D02*
G75*
G03*
X127031400Y-67900000I-2800000J0D01*
G01*
%TO.C,H5*%
X156266800Y-133761200D02*
G75*
G03*
X156266800Y-133761200I-2800000J0D01*
G01*
D11*
%TO.C,U7*%
X130039700Y-67062000D02*
X130239700Y-67262000D01*
X157639700Y-67062000D02*
X157439700Y-67262000D01*
X130039700Y-67062000D02*
X130239700Y-66862000D01*
X134639700Y-67062000D02*
X134439700Y-67262000D01*
X152239700Y-60337000D02*
X152439700Y-60537000D01*
X153039700Y-67062000D02*
X153239700Y-66862000D01*
X152239700Y-60337000D02*
X152039700Y-60537000D01*
X153039700Y-67062000D02*
X153239700Y-67262000D01*
X134639700Y-67062000D02*
X134439700Y-66862000D01*
X130039700Y-67062000D02*
X134639700Y-67062000D01*
X157639700Y-67062000D02*
X157439700Y-66862000D01*
X153039700Y-67062000D02*
X157639700Y-67062000D01*
X152239700Y-64937000D02*
X152439700Y-64737000D01*
X152239700Y-64937000D02*
X152039700Y-64737000D01*
X152239700Y-64937000D02*
X152239700Y-60337000D01*
D10*
%TO.C,H4*%
X119100000Y-133761200D02*
G75*
G03*
X119100000Y-133761200I-2800000J0D01*
G01*
%TO.C,H2*%
X175787800Y-67900000D02*
G75*
G03*
X175787800Y-67900000I-2800000J0D01*
G01*
%TO.C,H1*%
X119100000Y-67947460D02*
G75*
G03*
X119100000Y-67947460I-2800000J0D01*
G01*
%TO.C,H3*%
X175787800Y-133761200D02*
G75*
G03*
X175787800Y-133761200I-2800000J0D01*
G01*
%TD*%
M02*
