M48
; DRILL file {KiCad (6.0.6-0)} date 2022 July 11, Monday 10:49:36
; FORMAT={-:-/ absolute / inch / decimal}
; #@! TF.CreationDate,2022-07-11T10:49:36+02:00
; #@! TF.GenerationSoftware,Kicad,Pcbnew,(6.0.6-0)
; #@! TF.FileFunction,Plated,1,2,PTH
FMAT,2
INCH
; #@! TA.AperFunction,Plated,PTH,ViaDrill
T1C0.0157
; #@! TA.AperFunction,Plated,PTH,ComponentDrill
T2C0.0276
; #@! TA.AperFunction,Plated,PTH,ComponentDrill
T3C0.0394
; #@! TA.AperFunction,Plated,PTH,ViaDrill
T4C0.0454
; #@! TA.AperFunction,Plated,PTH,ComponentDrill
T5C0.0472
%
G90
G05
T1
X4.6815Y-5.2126
X5.1594Y-2.9169
X5.1823Y-3.5835
X5.1894Y-3.1071
X5.1933Y-3.0366
X5.1937Y-4.1917
X5.2054Y-3.2594
X5.2433Y-3.7461
X5.2469Y-3.5555
X5.2594Y-3.176
X5.2638Y-4.311
X5.2651Y-3.4356
X5.3268Y-3.5661
X5.3317Y-4.1844
X5.3346Y-3.7819
X5.3587Y-4.0772
X5.3657Y-4.3453
X5.3709Y-3.75
X5.3894Y-3.3632
X5.3945Y-4.3091
X5.3982Y-3.688
X5.4055Y-3.2634
X5.4087Y-3.4831
X5.4343Y-2.9535
X5.4543Y-4.1614
X5.4579Y-3.8461
X5.4583Y-4.6339
X5.4654Y-3.3531
X5.476Y-3.4531
X5.4791Y-2.9846
X5.4807Y-3.0339
X5.4827Y-3.1
X5.4827Y-3.2094
X5.502Y-3.3083
X5.5346Y-3.6295
X5.5567Y-3.474
X5.5736Y-4.402
X5.5803Y-3.8185
X5.6055Y-3.7854
X5.6165Y-3.8693
X5.6169Y-4.5961
X5.6193Y-3.6339
X5.6232Y-4.6504
X5.6748Y-5.2594
X5.6992Y-4.4815
X5.7256Y-5.2445
X5.7382Y-4.5033
X5.7469Y-3.8748
X5.7819Y-4.5248
X5.8016Y-4.9201
X5.8067Y-3.2713
X5.8071Y-4.3028
X5.8098Y-3.6874
X5.839Y-3.7783
X5.8421Y-3.4673
X5.8642Y-4.235
X5.8917Y-3.7043
X5.8933Y-3.276
X5.8941Y-3.6291
X5.9146Y-3.4744
X5.9177Y-4.1795
X5.9248Y-4.7157
X5.972Y-4.6783
X6.0594Y-3.5528
X6.065Y-3.8831
X6.0701Y-3.3193
X6.0807Y-4.6055
X6.1882Y-3.8575
X6.2315Y-3.9402
X6.2492Y-3.3945
X6.2591Y-3.6734
X6.7311Y-5.2039
T3
X5.3Y-3.9545
X5.4Y-3.9545
X5.5Y-3.9545
X5.6Y-3.9545
X5.7Y-3.9545
X5.8Y-3.9545
X5.9Y-3.9545
T4
X4.9039Y-2.8461
X6.4709Y-5.0591
T5
X4.9004Y-2.9571
X4.9004Y-3.0949
X4.9004Y-3.2649
X4.9004Y-3.4027
X4.9004Y-3.5727
X4.9004Y-3.7105
X4.9004Y-3.8805
X4.9004Y-4.0183
X4.9004Y-4.1883
X4.9004Y-4.3261
X4.9004Y-4.4961
X4.9004Y-4.6339
X4.9004Y-4.8039
X4.9004Y-4.9417
X6.4756Y-2.9587
X6.4756Y-3.0965
X6.4756Y-3.2665
X6.4756Y-3.4043
X6.4756Y-3.5743
X6.4756Y-3.7121
X6.4756Y-3.8821
X6.4756Y-4.0199
X6.4756Y-4.1899
X6.4756Y-4.3277
X6.4756Y-4.4977
X6.4756Y-4.6355
X6.4756Y-4.8055
X6.4756Y-4.9433
T2
G00X5.5098Y-5.1686
M15
G01X5.5098Y-5.2119
M16
G05
G00X5.5098Y-5.343
M15
G01X5.5098Y-5.3666
M16
G05
G00X5.85Y-5.1686
M15
G01X5.85Y-5.2119
M16
G05
G00X5.85Y-5.343
M15
G01X5.85Y-5.3666
M16
G05
T0
M30
