%TF.GenerationSoftware,KiCad,Pcbnew,(6.0.6-0)*%
%TF.CreationDate,2022-10-04T22:07:31+02:00*%
%TF.ProjectId,GlowCore,476c6f77-436f-4726-952e-6b696361645f,rev?*%
%TF.SameCoordinates,Original*%
%TF.FileFunction,Soldermask,Top*%
%TF.FilePolarity,Negative*%
%FSLAX46Y46*%
G04 Gerber Fmt 4.6, Leading zero omitted, Abs format (unit mm)*
G04 Created by KiCad (PCBNEW (6.0.6-0)) date 2022-10-04 22:07:31*
%MOMM*%
%LPD*%
G01*
G04 APERTURE LIST*
G04 Aperture macros list*
%AMRoundRect*
0 Rectangle with rounded corners*
0 $1 Rounding radius*
0 $2 $3 $4 $5 $6 $7 $8 $9 X,Y pos of 4 corners*
0 Add a 4 corners polygon primitive as box body*
4,1,4,$2,$3,$4,$5,$6,$7,$8,$9,$2,$3,0*
0 Add four circle primitives for the rounded corners*
1,1,$1+$1,$2,$3*
1,1,$1+$1,$4,$5*
1,1,$1+$1,$6,$7*
1,1,$1+$1,$8,$9*
0 Add four rect primitives between the rounded corners*
20,1,$1+$1,$2,$3,$4,$5,0*
20,1,$1+$1,$4,$5,$6,$7,0*
20,1,$1+$1,$6,$7,$8,$9,0*
20,1,$1+$1,$8,$9,$2,$3,0*%
%AMFreePoly0*
4,1,112,3.105582,3.191654,3.458980,3.129341,3.803230,3.028022,4.134041,2.888962,4.447289,2.713894,4.739071,2.504999,5.005748,2.264881,5.243998,1.996534,5.450851,1.703301,5.623729,1.388838,5.760476,1.057065,5.859388,0.712116,5.919233,0.358291,5.939265,0.000000,5.938012,-0.089748,5.907984,-0.447339,5.838283,-0.799355,5.729777,-1.141408,5.583820,-1.469234,5.402230,-1.778747,
5.187270,-2.066090,4.941620,-2.327680,4.668342,-2.560258,4.370841,-2.760925,4.052827,-2.927179,3.718263,-3.056948,3.371318,-3.148614,3.016317,-3.201036,2.657686,-3.213560,2.299893,-3.186029,1.947399,-3.118788,1.604597,-3.012673,1.275760,-2.869007,0.964987,-2.689582,0.676150,-2.476634,0.412851,-2.232816,0.178371,-1.961168,-0.024367,-1.665076,-0.192837,-1.348230,-0.324939,-1.014580,
-0.419026,-0.668283,-0.473925,-0.313657,-0.481420,-0.134825,-0.481581,-0.134460,-0.499164,0.000000,0.505984,0.000000,0.524968,-0.289640,0.581595,-0.574324,0.674897,-0.849181,0.803276,-1.109508,0.964536,-1.350851,1.155919,-1.569081,1.374149,-1.760464,1.615492,-1.921724,1.875819,-2.050103,2.150676,-2.143405,2.435360,-2.200032,2.725000,-2.219016,3.014640,-2.200032,3.299324,-2.143405,
3.574181,-2.050103,3.834508,-1.921724,4.075851,-1.760464,4.294081,-1.569081,4.485464,-1.350851,4.646724,-1.109508,4.775103,-0.849181,4.868405,-0.574324,4.925032,-0.289640,4.944016,0.000000,4.925032,0.289640,4.868405,0.574324,4.775103,0.849181,4.646724,1.109508,4.485464,1.350851,4.294081,1.569081,4.075851,1.760464,3.834508,1.921724,3.574181,2.050103,3.299324,2.143405,
3.014640,2.200032,2.725000,2.219016,2.435360,2.200032,2.150676,2.143405,1.875819,2.050103,1.615492,1.921724,1.374149,1.760464,1.155919,1.569081,0.964536,1.350851,0.803276,1.109508,0.674897,0.849181,0.581595,0.574324,0.524968,0.289640,0.505984,0.000000,-0.499164,0.000000,-0.499963,0.006109,-0.484897,0.102868,-0.463920,0.402854,-0.399140,0.755809,-0.295421,1.099343,
-0.154055,1.429175,0.023196,1.741194,0.234123,2.031510,0.476097,2.296505,0.746101,2.532875,1.040770,2.737676,1.356433,2.908354,1.689153,3.042782,2.034784,3.139284,2.389018,3.196657,2.747440,3.214187,3.105582,3.191654,3.105582,3.191654,$1*%
G04 Aperture macros list end*
%ADD10C,2.000000*%
%ADD11RoundRect,0.250000X-0.550000X1.500000X-0.550000X-1.500000X0.550000X-1.500000X0.550000X1.500000X0*%
%ADD12R,2.000000X0.900000*%
%ADD13R,0.900000X2.000000*%
%ADD14R,1.330000X1.330000*%
%ADD15RoundRect,0.237500X0.237500X-0.250000X0.237500X0.250000X-0.237500X0.250000X-0.237500X-0.250000X0*%
%ADD16R,0.280010X0.900000*%
%ADD17R,0.900000X0.280010*%
%ADD18R,3.300000X3.300000*%
%ADD19RoundRect,0.237500X-0.237500X0.300000X-0.237500X-0.300000X0.237500X-0.300000X0.237500X0.300000X0*%
%ADD20RoundRect,0.237500X-0.300000X-0.237500X0.300000X-0.237500X0.300000X0.237500X-0.300000X0.237500X0*%
%ADD21C,4.300000*%
%ADD22FreePoly0,0.000000*%
%ADD23R,1.500000X0.900000*%
%ADD24C,5.600000*%
%ADD25R,1.250013X0.700000*%
%ADD26RoundRect,0.237500X-0.237500X0.250000X-0.237500X-0.250000X0.237500X-0.250000X0.237500X0.250000X0*%
%ADD27RoundRect,0.237500X-0.250000X-0.237500X0.250000X-0.237500X0.250000X0.237500X-0.250000X0.237500X0*%
%ADD28O,0.750013X0.250013*%
%ADD29RoundRect,0.237500X0.300000X0.237500X-0.300000X0.237500X-0.300000X-0.237500X0.300000X-0.237500X0*%
%ADD30R,0.600000X0.419990*%
%ADD31R,0.700000X1.250013*%
%ADD32R,0.600000X1.070003*%
%ADD33RoundRect,0.250000X0.400000X1.450000X-0.400000X1.450000X-0.400000X-1.450000X0.400000X-1.450000X0*%
%ADD34RoundRect,0.237500X0.250000X0.237500X-0.250000X0.237500X-0.250000X-0.237500X0.250000X-0.237500X0*%
%ADD35C,0.700025*%
%ADD36R,0.600000X1.300000*%
%ADD37R,0.300000X1.300000*%
%ADD38O,1.200000X2.200000*%
%ADD39O,1.200000X1.800000*%
%ADD40R,1.620015X2.046380*%
%ADD41R,0.550013X1.050013*%
%ADD42R,1.400000X0.450013*%
%ADD43R,0.450013X2.400000*%
%ADD44R,2.470003X0.980010*%
%ADD45R,2.470003X3.600000*%
%ADD46R,1.070003X0.600000*%
%ADD47R,1.700000X1.700000*%
%ADD48O,1.700000X1.700000*%
G04 APERTURE END LIST*
D10*
%TO.C,P2*%
X123750451Y-104450000D03*
X123750451Y-109451270D03*
X123750451Y-114450000D03*
X123750451Y-119451270D03*
X123750451Y-124450000D03*
X123750451Y-129451270D03*
%TD*%
D11*
%TO.C,C4*%
X135890000Y-104591200D03*
X135890000Y-110191200D03*
%TD*%
D12*
%TO.C,U7*%
X135357600Y-72666700D03*
X135357600Y-73936700D03*
X135357600Y-75206700D03*
X135357600Y-76476700D03*
X135357600Y-77746700D03*
X135357600Y-79016700D03*
X135357600Y-80286700D03*
X135357600Y-81556700D03*
X135357600Y-82826700D03*
X135357600Y-84096700D03*
X135357600Y-85366700D03*
X135357600Y-86636700D03*
X135357600Y-87906700D03*
X135357600Y-89176700D03*
D13*
X138142600Y-90176700D03*
X139412600Y-90176700D03*
X140682600Y-90176700D03*
X141952600Y-90176700D03*
X143222600Y-90176700D03*
X144492600Y-90176700D03*
X145762600Y-90176700D03*
X147032600Y-90176700D03*
X148302600Y-90176700D03*
X149572600Y-90176700D03*
D12*
X152357600Y-89176700D03*
X152357600Y-87906700D03*
X152357600Y-86636700D03*
X152357600Y-85366700D03*
X152357600Y-84096700D03*
X152357600Y-82826700D03*
X152357600Y-81556700D03*
X152357600Y-80286700D03*
X152357600Y-79016700D03*
X152357600Y-77746700D03*
X152357600Y-76476700D03*
X152357600Y-75206700D03*
X152357600Y-73936700D03*
X152357600Y-72666700D03*
D14*
X141022600Y-80166700D03*
X141022600Y-82001700D03*
X142857600Y-80166700D03*
X144692600Y-78331700D03*
X142857600Y-78331700D03*
X144692600Y-82001700D03*
X144692600Y-80166700D03*
X141022600Y-78331700D03*
X142857600Y-82001700D03*
%TD*%
D15*
%TO.C,R1*%
X155984800Y-85240500D03*
X155984800Y-83415500D03*
%TD*%
D16*
%TO.C,U13*%
X144955333Y-118527149D03*
X145455714Y-118527149D03*
X145956095Y-118527149D03*
X146456476Y-118527149D03*
X146956857Y-118527149D03*
X147457238Y-118527149D03*
X147957619Y-118527149D03*
D17*
X148956603Y-117528419D03*
X148956603Y-117028038D03*
X148956603Y-116527657D03*
X148956603Y-116027276D03*
X148956603Y-115526895D03*
X148956603Y-115026514D03*
X148956603Y-114526133D03*
D16*
X147957619Y-113527149D03*
X147457238Y-113527149D03*
X146956857Y-113527149D03*
X146456476Y-113527149D03*
X145956095Y-113527149D03*
X145455714Y-113527149D03*
X144955333Y-113527149D03*
D17*
X143956603Y-114526133D03*
X143956603Y-115026514D03*
X143956603Y-115526895D03*
X143956603Y-116027276D03*
X143956603Y-116527657D03*
X143956603Y-117028038D03*
X143956603Y-117528419D03*
D18*
X146456476Y-116027276D03*
%TD*%
D15*
%TO.C,R14*%
X141589500Y-99529275D03*
X141589500Y-97704275D03*
%TD*%
D19*
%TO.C,C3*%
X132790000Y-72472500D03*
X132790000Y-74197500D03*
%TD*%
D20*
%TO.C,C11*%
X146010200Y-110503975D03*
X147735200Y-110503975D03*
%TD*%
D21*
%TO.C,U30*%
X157460000Y-133640000D03*
D22*
X154732230Y-133637460D03*
%TD*%
D23*
%TO.C,SW2*%
X132059676Y-127191264D03*
X135859524Y-127191264D03*
X132059676Y-125691136D03*
X135859524Y-125691136D03*
%TD*%
D24*
%TO.C,H4*%
X116300000Y-133761200D03*
%TD*%
D25*
%TO.C,U11*%
X133925606Y-118789775D03*
X133925606Y-116889851D03*
X131925606Y-117839813D03*
%TD*%
D20*
%TO.C,C7*%
X147525797Y-122144530D03*
X149250797Y-122144530D03*
%TD*%
D21*
%TO.C,U33*%
X131969970Y-133640000D03*
D22*
X129242200Y-133637460D03*
%TD*%
D26*
%TO.C,R13*%
X147066000Y-97791900D03*
X147066000Y-99616900D03*
%TD*%
D10*
%TO.C,P1*%
X123750451Y-73900000D03*
X123750451Y-78901270D03*
X123750451Y-83900000D03*
X123750451Y-88901270D03*
X123750451Y-93900000D03*
X123750451Y-98901270D03*
%TD*%
D27*
%TO.C,R12*%
X131321800Y-101600000D03*
X133146800Y-101600000D03*
%TD*%
%TO.C,R7*%
X152400000Y-94154400D03*
X154225000Y-94154400D03*
%TD*%
D24*
%TO.C,H2*%
X172987800Y-67900000D03*
%TD*%
D28*
%TO.C,U8*%
X158217111Y-88117961D03*
X158217111Y-87617834D03*
X158217111Y-87117961D03*
X158217111Y-86617834D03*
X155117289Y-86617834D03*
X155117289Y-87117961D03*
X155117289Y-87617834D03*
X155117289Y-88117961D03*
%TD*%
D29*
%TO.C,C6*%
X144230000Y-110503975D03*
X142505000Y-110503975D03*
%TD*%
D20*
%TO.C,C8*%
X132182700Y-120294400D03*
X133907700Y-120294400D03*
%TD*%
D30*
%TO.C,U14*%
X140235962Y-118149587D03*
X140235962Y-117499600D03*
X140235962Y-116849613D03*
X138336038Y-116849613D03*
X138336038Y-117499600D03*
X138336038Y-118149587D03*
%TD*%
D31*
%TO.C,U3*%
X137886438Y-100060000D03*
X139786362Y-100060000D03*
X138836400Y-98060000D03*
%TD*%
D32*
%TO.C,U6*%
X134960362Y-94116523D03*
X133060438Y-94116523D03*
X134010400Y-96586677D03*
%TD*%
D27*
%TO.C,R9*%
X137923900Y-101600000D03*
X139748900Y-101600000D03*
%TD*%
D19*
%TO.C,C2*%
X155905200Y-90120300D03*
X155905200Y-91845300D03*
%TD*%
D27*
%TO.C,R10*%
X133047100Y-92710000D03*
X134872100Y-92710000D03*
%TD*%
D29*
%TO.C,C12*%
X132692500Y-81850000D03*
X130967500Y-81850000D03*
%TD*%
D26*
%TO.C,R15*%
X157226000Y-123141100D03*
X157226000Y-124966100D03*
%TD*%
D33*
%TO.C,F1*%
X148681400Y-126136400D03*
X144231400Y-126136400D03*
%TD*%
D24*
%TO.C,H1*%
X116300000Y-67947460D03*
%TD*%
D29*
%TO.C,C15*%
X132702500Y-83780000D03*
X130977500Y-83780000D03*
%TD*%
%TO.C,C13*%
X132762500Y-76155000D03*
X131037500Y-76155000D03*
%TD*%
D15*
%TO.C,R8*%
X157784800Y-85240500D03*
X157784800Y-83415500D03*
%TD*%
D34*
%TO.C,R6*%
X132812500Y-79745000D03*
X130987500Y-79745000D03*
%TD*%
D27*
%TO.C,R11*%
X134621900Y-101600000D03*
X136446900Y-101600000D03*
%TD*%
D21*
%TO.C,U1*%
X124279970Y-67950000D03*
D22*
X121552200Y-67947460D03*
%TD*%
D35*
%TO.C,USB1*%
X147160018Y-132332535D03*
X141379982Y-132332535D03*
D36*
X141070102Y-131089964D03*
X141869949Y-131089964D03*
D37*
X143020064Y-131089964D03*
X144020064Y-131089964D03*
X144519936Y-131089964D03*
X145519936Y-131089964D03*
D36*
X147469898Y-131089964D03*
X146670051Y-131089964D03*
D37*
X146020064Y-131089964D03*
X145020064Y-131089964D03*
X143519936Y-131089964D03*
X142519936Y-131089964D03*
D38*
X139949959Y-131832408D03*
X148590041Y-131832408D03*
D39*
X148590041Y-136012494D03*
X139949959Y-136012494D03*
%TD*%
D10*
%TO.C,P4*%
X165555549Y-98900000D03*
X165555549Y-93898730D03*
X165555549Y-88900000D03*
X165555549Y-83898730D03*
X165555549Y-78900000D03*
X165555549Y-73898730D03*
%TD*%
D27*
%TO.C,R4*%
X130987500Y-77950000D03*
X132812500Y-77950000D03*
%TD*%
D29*
%TO.C,C5*%
X149250797Y-120264530D03*
X147525797Y-120264530D03*
%TD*%
D26*
%TO.C,R2*%
X152714400Y-124573500D03*
X152714400Y-126398500D03*
%TD*%
D40*
%TO.C,U16*%
X138480825Y-121589769D03*
X138480825Y-126720580D03*
%TD*%
D24*
%TO.C,H3*%
X172987800Y-133761200D03*
%TD*%
D25*
%TO.C,U9*%
X148656800Y-97717613D03*
X148656800Y-99617537D03*
X150656800Y-98667575D03*
%TD*%
D41*
%TO.C,U15*%
X131405057Y-86459784D03*
X131405057Y-87810051D03*
X132254943Y-87810051D03*
X132254943Y-86459784D03*
D42*
X131830000Y-85410000D03*
D43*
X130604955Y-87134918D03*
D42*
X131830000Y-88859835D03*
D43*
X133055044Y-87134918D03*
%TD*%
D20*
%TO.C,C14*%
X154077500Y-95881600D03*
X155802500Y-95881600D03*
%TD*%
D31*
%TO.C,U5*%
X131319900Y-100060000D03*
X133219824Y-100060000D03*
X132269862Y-98060000D03*
%TD*%
D19*
%TO.C,C1*%
X157835200Y-90120300D03*
X157835200Y-91845300D03*
%TD*%
D34*
%TO.C,R5*%
X154225000Y-92354400D03*
X152400000Y-92354400D03*
%TD*%
D44*
%TO.C,U12*%
X142351500Y-103872025D03*
X142351500Y-106172000D03*
X142351500Y-108471975D03*
D45*
X148021300Y-106172000D03*
%TD*%
D23*
%TO.C,SW1*%
X164571676Y-136233664D03*
X168371524Y-136233664D03*
X164571676Y-134733536D03*
X168371524Y-134733536D03*
%TD*%
%TO.C,SW3*%
X121036076Y-136233664D03*
X124835924Y-136233664D03*
X121036076Y-134733536D03*
X124835924Y-134733536D03*
%TD*%
D46*
%TO.C,U10*%
X143011900Y-97702375D03*
X143011900Y-99602299D03*
X145482054Y-98652337D03*
%TD*%
D21*
%TO.C,U2*%
X164997770Y-67902540D03*
D22*
X162270000Y-67900000D03*
%TD*%
D40*
%TO.C,U34*%
X141638425Y-121589769D03*
X141638425Y-126720580D03*
%TD*%
D26*
%TO.C,R16*%
X157226000Y-119737500D03*
X157226000Y-121562500D03*
%TD*%
D47*
%TO.C,J1*%
X155346400Y-116890800D03*
D48*
X155346400Y-114350800D03*
X155346400Y-111810800D03*
X155346400Y-109270800D03*
X155346400Y-106730800D03*
X155346400Y-104190800D03*
X155346400Y-101650800D03*
%TD*%
D31*
%TO.C,U4*%
X134584438Y-100060000D03*
X136484362Y-100060000D03*
X135534400Y-98060000D03*
%TD*%
D26*
%TO.C,R3*%
X150774400Y-124563500D03*
X150774400Y-126388500D03*
%TD*%
D10*
%TO.C,P3*%
X165555549Y-129450000D03*
X165555549Y-124448730D03*
X165555549Y-119450000D03*
X165555549Y-114448730D03*
X165555549Y-109450000D03*
X165555549Y-104448730D03*
%TD*%
M02*
