%TF.GenerationSoftware,KiCad,Pcbnew,(6.0.6-0)*%
%TF.CreationDate,2022-10-04T22:07:31+02:00*%
%TF.ProjectId,GlowCore,476c6f77-436f-4726-952e-6b696361645f,rev?*%
%TF.SameCoordinates,Original*%
%TF.FileFunction,Soldermask,Bot*%
%TF.FilePolarity,Negative*%
%FSLAX46Y46*%
G04 Gerber Fmt 4.6, Leading zero omitted, Abs format (unit mm)*
G04 Created by KiCad (PCBNEW (6.0.6-0)) date 2022-10-04 22:07:31*
%MOMM*%
%LPD*%
G01*
G04 APERTURE LIST*
G04 Aperture macros list*
%AMFreePoly0*
4,1,22,0.500000,-0.750000,0.000000,-0.750000,0.000000,-0.745033,-0.079941,-0.743568,-0.215256,-0.701293,-0.333266,-0.622738,-0.424486,-0.514219,-0.481581,-0.384460,-0.499164,-0.250000,-0.500000,-0.250000,-0.500000,0.250000,-0.499164,0.250000,-0.499963,0.256109,-0.478152,0.396186,-0.417904,0.524511,-0.324060,0.630769,-0.204165,0.706417,-0.067858,0.745374,0.000000,0.744959,0.000000,0.750000,
0.500000,0.750000,0.500000,-0.750000,0.500000,-0.750000,$1*%
%AMFreePoly1*
4,1,20,0.000000,0.744959,0.073905,0.744508,0.209726,0.703889,0.328688,0.626782,0.421226,0.519385,0.479903,0.390333,0.500000,0.250000,0.500000,-0.250000,0.499851,-0.262216,0.476331,-0.402017,0.414519,-0.529596,0.319384,-0.634700,0.198574,-0.708877,0.061801,-0.746166,0.000000,-0.745033,0.000000,-0.750000,-0.500000,-0.750000,-0.500000,0.750000,0.000000,0.750000,0.000000,0.744959,
0.000000,0.744959,$1*%
G04 Aperture macros list end*
%ADD10C,2.000000*%
%ADD11C,4.300000*%
%ADD12C,5.600000*%
%ADD13C,0.700025*%
%ADD14O,1.200000X2.200000*%
%ADD15O,1.200000X1.800000*%
%ADD16R,1.700000X1.700000*%
%ADD17O,1.700000X1.700000*%
%ADD18FreePoly0,180.000000*%
%ADD19FreePoly1,180.000000*%
%ADD20FreePoly0,0.000000*%
%ADD21FreePoly1,0.000000*%
G04 APERTURE END LIST*
D10*
%TO.C,P2*%
X123750451Y-104450000D03*
X123750451Y-109451270D03*
X123750451Y-114450000D03*
X123750451Y-119451270D03*
X123750451Y-124450000D03*
X123750451Y-129451270D03*
%TD*%
D11*
%TO.C,U30*%
X157460000Y-133640000D03*
%TD*%
D12*
%TO.C,H4*%
X116300000Y-133761200D03*
%TD*%
D11*
%TO.C,U33*%
X131969970Y-133640000D03*
%TD*%
D10*
%TO.C,P1*%
X123750451Y-73900000D03*
X123750451Y-78901270D03*
X123750451Y-83900000D03*
X123750451Y-88901270D03*
X123750451Y-93900000D03*
X123750451Y-98901270D03*
%TD*%
D12*
%TO.C,H2*%
X172987800Y-67900000D03*
%TD*%
%TO.C,H1*%
X116300000Y-67947460D03*
%TD*%
D11*
%TO.C,U1*%
X124279970Y-67950000D03*
%TD*%
D13*
%TO.C,USB1*%
X147160018Y-132332535D03*
X141379982Y-132332535D03*
D14*
X139949959Y-131832408D03*
X148590041Y-131832408D03*
D15*
X148590041Y-136012494D03*
X139949959Y-136012494D03*
%TD*%
D10*
%TO.C,P4*%
X165555549Y-98900000D03*
X165555549Y-93898730D03*
X165555549Y-88900000D03*
X165555549Y-83898730D03*
X165555549Y-78900000D03*
X165555549Y-73898730D03*
%TD*%
D12*
%TO.C,H3*%
X172987800Y-133761200D03*
%TD*%
D11*
%TO.C,U2*%
X164997770Y-67902540D03*
%TD*%
D16*
%TO.C,J1*%
X155346400Y-116890800D03*
D17*
X155346400Y-114350800D03*
X155346400Y-111810800D03*
X155346400Y-109270800D03*
X155346400Y-106730800D03*
X155346400Y-104190800D03*
X155346400Y-101650800D03*
%TD*%
D10*
%TO.C,P3*%
X165555549Y-129450000D03*
X165555549Y-124448730D03*
X165555549Y-119450000D03*
X165555549Y-114448730D03*
X165555549Y-109450000D03*
X165555549Y-104448730D03*
%TD*%
D18*
%TO.C,JP1*%
X142686800Y-103733600D03*
D19*
X141386800Y-103733600D03*
%TD*%
D20*
%TO.C,JP5*%
X141386800Y-101295200D03*
D21*
X142686800Y-101295200D03*
%TD*%
D18*
%TO.C,JP4*%
X142676400Y-106172000D03*
D19*
X141376400Y-106172000D03*
%TD*%
D18*
%TO.C,JP3*%
X142676400Y-110642400D03*
D19*
X141376400Y-110642400D03*
%TD*%
D18*
%TO.C,JP2*%
X142676400Y-108610400D03*
D19*
X141376400Y-108610400D03*
%TD*%
M02*
