%TF.GenerationSoftware,KiCad,Pcbnew,(6.0.9-0)*%
%TF.CreationDate,2022-11-16T11:44:24+01:00*%
%TF.ProjectId,GlowCore,476c6f77-436f-4726-952e-6b696361645f,rev?*%
%TF.SameCoordinates,Original*%
%TF.FileFunction,Legend,Top*%
%TF.FilePolarity,Positive*%
%FSLAX46Y46*%
G04 Gerber Fmt 4.6, Leading zero omitted, Abs format (unit mm)*
G04 Created by KiCad (PCBNEW (6.0.9-0)) date 2022-11-16 11:44:24*
%MOMM*%
%LPD*%
G01*
G04 APERTURE LIST*
G04 Aperture macros list*
%AMRoundRect*
0 Rectangle with rounded corners*
0 $1 Rounding radius*
0 $2 $3 $4 $5 $6 $7 $8 $9 X,Y pos of 4 corners*
0 Add a 4 corners polygon primitive as box body*
4,1,4,$2,$3,$4,$5,$6,$7,$8,$9,$2,$3,0*
0 Add four circle primitives for the rounded corners*
1,1,$1+$1,$2,$3*
1,1,$1+$1,$4,$5*
1,1,$1+$1,$6,$7*
1,1,$1+$1,$8,$9*
0 Add four rect primitives between the rounded corners*
20,1,$1+$1,$2,$3,$4,$5,0*
20,1,$1+$1,$4,$5,$6,$7,0*
20,1,$1+$1,$6,$7,$8,$9,0*
20,1,$1+$1,$8,$9,$2,$3,0*%
G04 Aperture macros list end*
%ADD10C,0.150000*%
%ADD11C,1.000000*%
%ADD12C,0.200000*%
%ADD13C,0.120000*%
%ADD14C,0.254001*%
%ADD15C,0.059995*%
%ADD16C,0.127000*%
%ADD17C,0.300000*%
%ADD18C,0.131597*%
%ADD19C,0.152400*%
%ADD20C,0.151994*%
%ADD21RoundRect,0.237500X0.237500X-0.250000X0.237500X0.250000X-0.237500X0.250000X-0.237500X-0.250000X0*%
%ADD22C,5.600000*%
%ADD23C,0.700025*%
%ADD24R,0.900000X1.200000*%
%ADD25R,1.200000X1.300000*%
%ADD26C,2.000000*%
%ADD27RoundRect,0.250000X0.650000X-0.412500X0.650000X0.412500X-0.650000X0.412500X-0.650000X-0.412500X0*%
%ADD28R,2.000000X0.900000*%
%ADD29R,0.900000X2.000000*%
%ADD30R,1.330000X1.330000*%
%ADD31R,0.280010X0.900000*%
%ADD32R,0.900000X0.280010*%
%ADD33R,3.300000X3.300000*%
%ADD34RoundRect,0.237500X-0.237500X0.300000X-0.237500X-0.300000X0.237500X-0.300000X0.237500X0.300000X0*%
%ADD35RoundRect,0.237500X-0.300000X-0.237500X0.300000X-0.237500X0.300000X0.237500X-0.300000X0.237500X0*%
%ADD36RoundRect,0.237500X-0.250000X-0.237500X0.250000X-0.237500X0.250000X0.237500X-0.250000X0.237500X0*%
%ADD37O,0.750013X0.250013*%
%ADD38RoundRect,0.237500X0.300000X0.237500X-0.300000X0.237500X-0.300000X-0.237500X0.300000X-0.237500X0*%
%ADD39R,0.600000X0.419990*%
%ADD40R,0.700000X1.250013*%
%ADD41R,0.600000X1.070003*%
%ADD42RoundRect,0.237500X0.250000X0.237500X-0.250000X0.237500X-0.250000X-0.237500X0.250000X-0.237500X0*%
%ADD43RoundRect,0.250000X0.400000X1.450000X-0.400000X1.450000X-0.400000X-1.450000X0.400000X-1.450000X0*%
%ADD44R,0.600000X1.300000*%
%ADD45R,0.300000X1.300000*%
%ADD46O,1.200000X2.200000*%
%ADD47O,1.200000X1.800000*%
%ADD48RoundRect,0.237500X-0.237500X0.250000X-0.237500X-0.250000X0.237500X-0.250000X0.237500X0.250000X0*%
%ADD49R,1.620015X2.046380*%
%ADD50R,0.550013X1.050013*%
%ADD51R,1.400000X0.450013*%
%ADD52R,0.450013X2.400000*%
%ADD53R,0.550013X1.000000*%
%ADD54R,2.470003X0.980010*%
%ADD55R,2.470003X3.600000*%
%ADD56R,1.000000X0.550013*%
G04 APERTURE END LIST*
D10*
X140759176Y-102127104D02*
X140759176Y-102698533D01*
X140721080Y-102812819D01*
X140644890Y-102889009D01*
X140530604Y-102927104D01*
X140454414Y-102927104D01*
X141521080Y-102927104D02*
X141140128Y-102927104D01*
X141140128Y-102127104D01*
X142244890Y-102850914D02*
X142206795Y-102889009D01*
X142092509Y-102927104D01*
X142016319Y-102927104D01*
X141902033Y-102889009D01*
X141825842Y-102812819D01*
X141787747Y-102736628D01*
X141749652Y-102584247D01*
X141749652Y-102469961D01*
X141787747Y-102317580D01*
X141825842Y-102241390D01*
X141902033Y-102165200D01*
X142016319Y-102127104D01*
X142092509Y-102127104D01*
X142206795Y-102165200D01*
X142244890Y-102203295D01*
X142816319Y-102127104D02*
X142816319Y-102698533D01*
X142778223Y-102812819D01*
X142702033Y-102889009D01*
X142587747Y-102927104D01*
X142511557Y-102927104D01*
X143578223Y-102927104D02*
X143197271Y-102927104D01*
X143197271Y-102127104D01*
X144302033Y-102850914D02*
X144263938Y-102889009D01*
X144149652Y-102927104D01*
X144073461Y-102927104D01*
X143959176Y-102889009D01*
X143882985Y-102812819D01*
X143844890Y-102736628D01*
X143806795Y-102584247D01*
X143806795Y-102469961D01*
X143844890Y-102317580D01*
X143882985Y-102241390D01*
X143959176Y-102165200D01*
X144073461Y-102127104D01*
X144149652Y-102127104D01*
X144263938Y-102165200D01*
X144302033Y-102203295D01*
X144873461Y-102127104D02*
X144873461Y-102698533D01*
X144835366Y-102812819D01*
X144759176Y-102889009D01*
X144644890Y-102927104D01*
X144568700Y-102927104D01*
X145635366Y-102927104D02*
X145254414Y-102927104D01*
X145254414Y-102127104D01*
X146359176Y-102850914D02*
X146321080Y-102889009D01*
X146206795Y-102927104D01*
X146130604Y-102927104D01*
X146016319Y-102889009D01*
X145940128Y-102812819D01*
X145902033Y-102736628D01*
X145863938Y-102584247D01*
X145863938Y-102469961D01*
X145902033Y-102317580D01*
X145940128Y-102241390D01*
X146016319Y-102165200D01*
X146130604Y-102127104D01*
X146206795Y-102127104D01*
X146321080Y-102165200D01*
X146359176Y-102203295D01*
X146930604Y-102127104D02*
X146930604Y-102698533D01*
X146892509Y-102812819D01*
X146816319Y-102889009D01*
X146702033Y-102927104D01*
X146625842Y-102927104D01*
X147692509Y-102927104D02*
X147311557Y-102927104D01*
X147311557Y-102127104D01*
X148416319Y-102850914D02*
X148378223Y-102889009D01*
X148263938Y-102927104D01*
X148187747Y-102927104D01*
X148073461Y-102889009D01*
X147997271Y-102812819D01*
X147959176Y-102736628D01*
X147921080Y-102584247D01*
X147921080Y-102469961D01*
X147959176Y-102317580D01*
X147997271Y-102241390D01*
X148073461Y-102165200D01*
X148187747Y-102127104D01*
X148263938Y-102127104D01*
X148378223Y-102165200D01*
X148416319Y-102203295D01*
X114406195Y-81741971D02*
X114406195Y-82275304D01*
X114215719Y-81437209D02*
X114025242Y-82008638D01*
X114520480Y-82008638D01*
X114787147Y-82046733D02*
X115168100Y-82046733D01*
X114710957Y-82275304D02*
X114977623Y-81475304D01*
X115244290Y-82275304D01*
X116120480Y-82275304D02*
X116120480Y-81741971D01*
X116120480Y-81818161D02*
X116158576Y-81780066D01*
X116234766Y-81741971D01*
X116349052Y-81741971D01*
X116425242Y-81780066D01*
X116463338Y-81856257D01*
X116463338Y-82275304D01*
X116463338Y-81856257D02*
X116501433Y-81780066D01*
X116577623Y-81741971D01*
X116691909Y-81741971D01*
X116768100Y-81780066D01*
X116806195Y-81856257D01*
X116806195Y-82275304D01*
X117530004Y-82275304D02*
X117530004Y-81856257D01*
X117491909Y-81780066D01*
X117415719Y-81741971D01*
X117263338Y-81741971D01*
X117187147Y-81780066D01*
X117530004Y-82237209D02*
X117453814Y-82275304D01*
X117263338Y-82275304D01*
X117187147Y-82237209D01*
X117149052Y-82161019D01*
X117149052Y-82084828D01*
X117187147Y-82008638D01*
X117263338Y-81970542D01*
X117453814Y-81970542D01*
X117530004Y-81932447D01*
X117834766Y-82275304D02*
X118253814Y-81741971D01*
X117834766Y-81741971D02*
X118253814Y-82275304D01*
X116196671Y-83868066D02*
X116158576Y-83829971D01*
X116082385Y-83715685D01*
X116044290Y-83639495D01*
X116006195Y-83525209D01*
X115968100Y-83334733D01*
X115968100Y-83182352D01*
X116006195Y-82991876D01*
X116044290Y-82877590D01*
X116082385Y-82801400D01*
X116158576Y-82687114D01*
X116196671Y-82649019D01*
X116463338Y-82839495D02*
X116501433Y-82801400D01*
X116577623Y-82763304D01*
X116768100Y-82763304D01*
X116844290Y-82801400D01*
X116882385Y-82839495D01*
X116920480Y-82915685D01*
X116920480Y-82991876D01*
X116882385Y-83106161D01*
X116425242Y-83563304D01*
X116920480Y-83563304D01*
X117225242Y-83334733D02*
X117606195Y-83334733D01*
X117149052Y-83563304D02*
X117415719Y-82763304D01*
X117682385Y-83563304D01*
X117110957Y-84851304D02*
X117110957Y-84317971D01*
X117110957Y-84051304D02*
X117072861Y-84089400D01*
X117110957Y-84127495D01*
X117149052Y-84089400D01*
X117110957Y-84051304D01*
X117110957Y-84127495D01*
X117377623Y-84317971D02*
X117682385Y-84317971D01*
X117491909Y-84851304D02*
X117491909Y-84165590D01*
X117530004Y-84089400D01*
X117606195Y-84051304D01*
X117682385Y-84051304D01*
X113834766Y-85339304D02*
X113834766Y-85986923D01*
X113872861Y-86063114D01*
X113910957Y-86101209D01*
X113987147Y-86139304D01*
X114139528Y-86139304D01*
X114215719Y-86101209D01*
X114253814Y-86063114D01*
X114291909Y-85986923D01*
X114291909Y-85339304D01*
X114634766Y-86101209D02*
X114749052Y-86139304D01*
X114939528Y-86139304D01*
X115015719Y-86101209D01*
X115053814Y-86063114D01*
X115091909Y-85986923D01*
X115091909Y-85910733D01*
X115053814Y-85834542D01*
X115015719Y-85796447D01*
X114939528Y-85758352D01*
X114787147Y-85720257D01*
X114710957Y-85682161D01*
X114672861Y-85644066D01*
X114634766Y-85567876D01*
X114634766Y-85491685D01*
X114672861Y-85415495D01*
X114710957Y-85377400D01*
X114787147Y-85339304D01*
X114977623Y-85339304D01*
X115091909Y-85377400D01*
X115701433Y-85720257D02*
X115815719Y-85758352D01*
X115853814Y-85796447D01*
X115891909Y-85872638D01*
X115891909Y-85986923D01*
X115853814Y-86063114D01*
X115815719Y-86101209D01*
X115739528Y-86139304D01*
X115434766Y-86139304D01*
X115434766Y-85339304D01*
X115701433Y-85339304D01*
X115777623Y-85377400D01*
X115815719Y-85415495D01*
X115853814Y-85491685D01*
X115853814Y-85567876D01*
X115815719Y-85644066D01*
X115777623Y-85682161D01*
X115701433Y-85720257D01*
X115434766Y-85720257D01*
X116234766Y-85834542D02*
X116844290Y-85834542D01*
X117682385Y-86063114D02*
X117644290Y-86101209D01*
X117530004Y-86139304D01*
X117453814Y-86139304D01*
X117339528Y-86101209D01*
X117263338Y-86025019D01*
X117225242Y-85948828D01*
X117187147Y-85796447D01*
X117187147Y-85682161D01*
X117225242Y-85529780D01*
X117263338Y-85453590D01*
X117339528Y-85377400D01*
X117453814Y-85339304D01*
X117530004Y-85339304D01*
X117644290Y-85377400D01*
X117682385Y-85415495D01*
X117949052Y-86444066D02*
X117987147Y-86405971D01*
X118063338Y-86291685D01*
X118101433Y-86215495D01*
X118139528Y-86101209D01*
X118177623Y-85910733D01*
X118177623Y-85758352D01*
X118139528Y-85567876D01*
X118101433Y-85453590D01*
X118063338Y-85377400D01*
X117987147Y-85263114D01*
X117949052Y-85225019D01*
X114291890Y-94354704D02*
X113910938Y-94354704D01*
X113872842Y-94735657D01*
X113910938Y-94697561D01*
X113987128Y-94659466D01*
X114177604Y-94659466D01*
X114253795Y-94697561D01*
X114291890Y-94735657D01*
X114329985Y-94811847D01*
X114329985Y-95002323D01*
X114291890Y-95078514D01*
X114253795Y-95116609D01*
X114177604Y-95154704D01*
X113987128Y-95154704D01*
X113910938Y-95116609D01*
X113872842Y-95078514D01*
X114634747Y-94926133D02*
X115015700Y-94926133D01*
X114558557Y-95154704D02*
X114825223Y-94354704D01*
X115091890Y-95154704D01*
X115968080Y-95154704D02*
X115968080Y-94621371D01*
X115968080Y-94697561D02*
X116006176Y-94659466D01*
X116082366Y-94621371D01*
X116196652Y-94621371D01*
X116272842Y-94659466D01*
X116310938Y-94735657D01*
X116310938Y-95154704D01*
X116310938Y-94735657D02*
X116349033Y-94659466D01*
X116425223Y-94621371D01*
X116539509Y-94621371D01*
X116615700Y-94659466D01*
X116653795Y-94735657D01*
X116653795Y-95154704D01*
X117377604Y-95154704D02*
X117377604Y-94735657D01*
X117339509Y-94659466D01*
X117263319Y-94621371D01*
X117110938Y-94621371D01*
X117034747Y-94659466D01*
X117377604Y-95116609D02*
X117301414Y-95154704D01*
X117110938Y-95154704D01*
X117034747Y-95116609D01*
X116996652Y-95040419D01*
X116996652Y-94964228D01*
X117034747Y-94888038D01*
X117110938Y-94849942D01*
X117301414Y-94849942D01*
X117377604Y-94811847D01*
X117682366Y-95154704D02*
X118101414Y-94621371D01*
X117682366Y-94621371D02*
X118101414Y-95154704D01*
X114291890Y-102905504D02*
X114825223Y-102905504D01*
X114482366Y-103705504D01*
X115282366Y-102905504D02*
X115358557Y-102905504D01*
X115434747Y-102943600D01*
X115472842Y-102981695D01*
X115510938Y-103057885D01*
X115549033Y-103210266D01*
X115549033Y-103400742D01*
X115510938Y-103553123D01*
X115472842Y-103629314D01*
X115434747Y-103667409D01*
X115358557Y-103705504D01*
X115282366Y-103705504D01*
X115206176Y-103667409D01*
X115168080Y-103629314D01*
X115129985Y-103553123D01*
X115091890Y-103400742D01*
X115091890Y-103210266D01*
X115129985Y-103057885D01*
X115168080Y-102981695D01*
X115206176Y-102943600D01*
X115282366Y-102905504D01*
X116044271Y-102905504D02*
X116120461Y-102905504D01*
X116196652Y-102943600D01*
X116234747Y-102981695D01*
X116272842Y-103057885D01*
X116310938Y-103210266D01*
X116310938Y-103400742D01*
X116272842Y-103553123D01*
X116234747Y-103629314D01*
X116196652Y-103667409D01*
X116120461Y-103705504D01*
X116044271Y-103705504D01*
X115968080Y-103667409D01*
X115929985Y-103629314D01*
X115891890Y-103553123D01*
X115853795Y-103400742D01*
X115853795Y-103210266D01*
X115891890Y-103057885D01*
X115929985Y-102981695D01*
X115968080Y-102943600D01*
X116044271Y-102905504D01*
X116653795Y-103705504D02*
X116653795Y-103172171D01*
X116653795Y-103248361D02*
X116691890Y-103210266D01*
X116768080Y-103172171D01*
X116882366Y-103172171D01*
X116958557Y-103210266D01*
X116996652Y-103286457D01*
X116996652Y-103705504D01*
X116996652Y-103286457D02*
X117034747Y-103210266D01*
X117110938Y-103172171D01*
X117225223Y-103172171D01*
X117301414Y-103210266D01*
X117339509Y-103286457D01*
X117339509Y-103705504D01*
X117682366Y-103476933D02*
X118063319Y-103476933D01*
X117606176Y-103705504D02*
X117872842Y-102905504D01*
X118139509Y-103705504D01*
X115968080Y-104993504D02*
X115968080Y-104460171D01*
X115968080Y-104536361D02*
X116006176Y-104498266D01*
X116082366Y-104460171D01*
X116196652Y-104460171D01*
X116272842Y-104498266D01*
X116310938Y-104574457D01*
X116310938Y-104993504D01*
X116310938Y-104574457D02*
X116349033Y-104498266D01*
X116425223Y-104460171D01*
X116539509Y-104460171D01*
X116615700Y-104498266D01*
X116653795Y-104574457D01*
X116653795Y-104993504D01*
X117377604Y-104993504D02*
X117377604Y-104574457D01*
X117339509Y-104498266D01*
X117263319Y-104460171D01*
X117110938Y-104460171D01*
X117034747Y-104498266D01*
X117377604Y-104955409D02*
X117301414Y-104993504D01*
X117110938Y-104993504D01*
X117034747Y-104955409D01*
X116996652Y-104879219D01*
X116996652Y-104803028D01*
X117034747Y-104726838D01*
X117110938Y-104688742D01*
X117301414Y-104688742D01*
X117377604Y-104650647D01*
X117682366Y-104993504D02*
X118101414Y-104460171D01*
X117682366Y-104460171D02*
X118101414Y-104993504D01*
D11*
X119350000Y-72407600D02*
X119350000Y-90322400D01*
X119350000Y-92000000D02*
X119350000Y-95600000D01*
X119350000Y-97250000D02*
X119350000Y-106100000D01*
X119350000Y-108051600D02*
X119350000Y-126500000D01*
D10*
X158682328Y-133100771D02*
X158825185Y-133148390D01*
X158872804Y-133196009D01*
X158920423Y-133291247D01*
X158920423Y-133434104D01*
X158872804Y-133529342D01*
X158825185Y-133576961D01*
X158729947Y-133624580D01*
X158348995Y-133624580D01*
X158348995Y-132624580D01*
X158682328Y-132624580D01*
X158777566Y-132672200D01*
X158825185Y-132719819D01*
X158872804Y-132815057D01*
X158872804Y-132910295D01*
X158825185Y-133005533D01*
X158777566Y-133053152D01*
X158682328Y-133100771D01*
X158348995Y-133100771D01*
X159539471Y-132624580D02*
X159729947Y-132624580D01*
X159825185Y-132672200D01*
X159920423Y-132767438D01*
X159968042Y-132957914D01*
X159968042Y-133291247D01*
X159920423Y-133481723D01*
X159825185Y-133576961D01*
X159729947Y-133624580D01*
X159539471Y-133624580D01*
X159444233Y-133576961D01*
X159348995Y-133481723D01*
X159301376Y-133291247D01*
X159301376Y-132957914D01*
X159348995Y-132767438D01*
X159444233Y-132672200D01*
X159539471Y-132624580D01*
X160587090Y-132624580D02*
X160777566Y-132624580D01*
X160872804Y-132672200D01*
X160968042Y-132767438D01*
X161015661Y-132957914D01*
X161015661Y-133291247D01*
X160968042Y-133481723D01*
X160872804Y-133576961D01*
X160777566Y-133624580D01*
X160587090Y-133624580D01*
X160491852Y-133576961D01*
X160396614Y-133481723D01*
X160348995Y-133291247D01*
X160348995Y-132957914D01*
X160396614Y-132767438D01*
X160491852Y-132672200D01*
X160587090Y-132624580D01*
X161301376Y-132624580D02*
X161872804Y-132624580D01*
X161587090Y-133624580D02*
X161587090Y-132624580D01*
D12*
X170189314Y-119109257D02*
X170189314Y-117909257D01*
X170989314Y-117909257D02*
X171217885Y-117909257D01*
X171332171Y-117966400D01*
X171446457Y-118080685D01*
X171503600Y-118309257D01*
X171503600Y-118709257D01*
X171446457Y-118937828D01*
X171332171Y-119052114D01*
X171217885Y-119109257D01*
X170989314Y-119109257D01*
X170875028Y-119052114D01*
X170760742Y-118937828D01*
X170703600Y-118709257D01*
X170703600Y-118309257D01*
X170760742Y-118080685D01*
X170875028Y-117966400D01*
X170989314Y-117909257D01*
X172646457Y-119109257D02*
X171960742Y-119109257D01*
X172303600Y-119109257D02*
X172303600Y-117909257D01*
X172189314Y-118080685D01*
X172075028Y-118194971D01*
X171960742Y-118252114D01*
X173732171Y-117909257D02*
X173160742Y-117909257D01*
X173103600Y-118480685D01*
X173160742Y-118423542D01*
X173275028Y-118366400D01*
X173560742Y-118366400D01*
X173675028Y-118423542D01*
X173732171Y-118480685D01*
X173789314Y-118594971D01*
X173789314Y-118880685D01*
X173732171Y-118994971D01*
X173675028Y-119052114D01*
X173560742Y-119109257D01*
X173275028Y-119109257D01*
X173160742Y-119052114D01*
X173103600Y-118994971D01*
X175160742Y-117852114D02*
X174132171Y-119394971D01*
X170075028Y-119841257D02*
X170360742Y-121041257D01*
X170589314Y-120184114D01*
X170817885Y-121041257D01*
X171103600Y-119841257D01*
X171503600Y-120984114D02*
X171675028Y-121041257D01*
X171960742Y-121041257D01*
X172075028Y-120984114D01*
X172132171Y-120926971D01*
X172189314Y-120812685D01*
X172189314Y-120698400D01*
X172132171Y-120584114D01*
X172075028Y-120526971D01*
X171960742Y-120469828D01*
X171732171Y-120412685D01*
X171617885Y-120355542D01*
X171560742Y-120298400D01*
X171503600Y-120184114D01*
X171503600Y-120069828D01*
X171560742Y-119955542D01*
X171617885Y-119898400D01*
X171732171Y-119841257D01*
X172017885Y-119841257D01*
X172189314Y-119898400D01*
X114303857Y-92484657D02*
X113732428Y-92484657D01*
X113675285Y-93056085D01*
X113732428Y-92998942D01*
X113846714Y-92941800D01*
X114132428Y-92941800D01*
X114246714Y-92998942D01*
X114303857Y-93056085D01*
X114361000Y-93170371D01*
X114361000Y-93456085D01*
X114303857Y-93570371D01*
X114246714Y-93627514D01*
X114132428Y-93684657D01*
X113846714Y-93684657D01*
X113732428Y-93627514D01*
X113675285Y-93570371D01*
X114703857Y-92484657D02*
X115103857Y-93684657D01*
X115503857Y-92484657D01*
X116818142Y-93684657D02*
X116818142Y-92484657D01*
X117389571Y-93684657D02*
X117389571Y-92484657D01*
X118075285Y-93684657D01*
X118075285Y-92484657D01*
X170189314Y-83498457D02*
X170189314Y-82298457D01*
X170989314Y-82298457D02*
X171217885Y-82298457D01*
X171332171Y-82355600D01*
X171446457Y-82469885D01*
X171503600Y-82698457D01*
X171503600Y-83098457D01*
X171446457Y-83327028D01*
X171332171Y-83441314D01*
X171217885Y-83498457D01*
X170989314Y-83498457D01*
X170875028Y-83441314D01*
X170760742Y-83327028D01*
X170703600Y-83098457D01*
X170703600Y-82698457D01*
X170760742Y-82469885D01*
X170875028Y-82355600D01*
X170989314Y-82298457D01*
X172589314Y-82298457D02*
X172017885Y-82298457D01*
X171960742Y-82869885D01*
X172017885Y-82812742D01*
X172132171Y-82755600D01*
X172417885Y-82755600D01*
X172532171Y-82812742D01*
X172589314Y-82869885D01*
X172646457Y-82984171D01*
X172646457Y-83269885D01*
X172589314Y-83384171D01*
X172532171Y-83441314D01*
X172417885Y-83498457D01*
X172132171Y-83498457D01*
X172017885Y-83441314D01*
X171960742Y-83384171D01*
X174017885Y-82241314D02*
X172989314Y-83784171D01*
X170589314Y-84801885D02*
X170760742Y-84859028D01*
X170817885Y-84916171D01*
X170875028Y-85030457D01*
X170875028Y-85201885D01*
X170817885Y-85316171D01*
X170760742Y-85373314D01*
X170646457Y-85430457D01*
X170189314Y-85430457D01*
X170189314Y-84230457D01*
X170589314Y-84230457D01*
X170703600Y-84287600D01*
X170760742Y-84344742D01*
X170817885Y-84459028D01*
X170817885Y-84573314D01*
X170760742Y-84687600D01*
X170703600Y-84744742D01*
X170589314Y-84801885D01*
X170189314Y-84801885D01*
X171275028Y-84230457D02*
X172017885Y-84230457D01*
X171617885Y-84687600D01*
X171789314Y-84687600D01*
X171903600Y-84744742D01*
X171960742Y-84801885D01*
X172017885Y-84916171D01*
X172017885Y-85201885D01*
X171960742Y-85316171D01*
X171903600Y-85373314D01*
X171789314Y-85430457D01*
X171446457Y-85430457D01*
X171332171Y-85373314D01*
X171275028Y-85316171D01*
X170189314Y-114080057D02*
X170189314Y-112880057D01*
X170989314Y-112880057D02*
X171217885Y-112880057D01*
X171332171Y-112937200D01*
X171446457Y-113051485D01*
X171503600Y-113280057D01*
X171503600Y-113680057D01*
X171446457Y-113908628D01*
X171332171Y-114022914D01*
X171217885Y-114080057D01*
X170989314Y-114080057D01*
X170875028Y-114022914D01*
X170760742Y-113908628D01*
X170703600Y-113680057D01*
X170703600Y-113280057D01*
X170760742Y-113051485D01*
X170875028Y-112937200D01*
X170989314Y-112880057D01*
X172646457Y-114080057D02*
X171960742Y-114080057D01*
X172303600Y-114080057D02*
X172303600Y-112880057D01*
X172189314Y-113051485D01*
X172075028Y-113165771D01*
X171960742Y-113222914D01*
X173675028Y-113280057D02*
X173675028Y-114080057D01*
X173389314Y-112822914D02*
X173103600Y-113680057D01*
X173846457Y-113680057D01*
X175160742Y-112822914D02*
X174132171Y-114365771D01*
X170132171Y-115954914D02*
X170303600Y-116012057D01*
X170589314Y-116012057D01*
X170703600Y-115954914D01*
X170760742Y-115897771D01*
X170817885Y-115783485D01*
X170817885Y-115669200D01*
X170760742Y-115554914D01*
X170703600Y-115497771D01*
X170589314Y-115440628D01*
X170360742Y-115383485D01*
X170246457Y-115326342D01*
X170189314Y-115269200D01*
X170132171Y-115154914D01*
X170132171Y-115040628D01*
X170189314Y-114926342D01*
X170246457Y-114869200D01*
X170360742Y-114812057D01*
X170646457Y-114812057D01*
X170817885Y-114869200D01*
X172017885Y-115897771D02*
X171960742Y-115954914D01*
X171789314Y-116012057D01*
X171675028Y-116012057D01*
X171503600Y-115954914D01*
X171389314Y-115840628D01*
X171332171Y-115726342D01*
X171275028Y-115497771D01*
X171275028Y-115326342D01*
X171332171Y-115097771D01*
X171389314Y-114983485D01*
X171503600Y-114869200D01*
X171675028Y-114812057D01*
X171789314Y-114812057D01*
X171960742Y-114869200D01*
X172017885Y-114926342D01*
X172532171Y-116012057D02*
X172532171Y-114812057D01*
X173217885Y-116012057D02*
X172703600Y-115326342D01*
X173217885Y-114812057D02*
X172532171Y-115497771D01*
X170189314Y-98484457D02*
X170189314Y-97284457D01*
X170989314Y-97284457D02*
X171217885Y-97284457D01*
X171332171Y-97341600D01*
X171446457Y-97455885D01*
X171503600Y-97684457D01*
X171503600Y-98084457D01*
X171446457Y-98313028D01*
X171332171Y-98427314D01*
X171217885Y-98484457D01*
X170989314Y-98484457D01*
X170875028Y-98427314D01*
X170760742Y-98313028D01*
X170703600Y-98084457D01*
X170703600Y-97684457D01*
X170760742Y-97455885D01*
X170875028Y-97341600D01*
X170989314Y-97284457D01*
X172646457Y-98484457D02*
X171960742Y-98484457D01*
X172303600Y-98484457D02*
X172303600Y-97284457D01*
X172189314Y-97455885D01*
X172075028Y-97570171D01*
X171960742Y-97627314D01*
X173046457Y-97284457D02*
X173846457Y-97284457D01*
X173332171Y-98484457D01*
X175160742Y-97227314D02*
X174132171Y-98770171D01*
X170760742Y-100416457D02*
X170189314Y-100416457D01*
X170189314Y-99216457D01*
X171160742Y-99787885D02*
X171560742Y-99787885D01*
X171732171Y-100416457D02*
X171160742Y-100416457D01*
X171160742Y-99216457D01*
X171732171Y-99216457D01*
X172246457Y-100416457D02*
X172246457Y-99216457D01*
X172532171Y-99216457D01*
X172703600Y-99273600D01*
X172817885Y-99387885D01*
X172875028Y-99502171D01*
X172932171Y-99730742D01*
X172932171Y-99902171D01*
X172875028Y-100130742D01*
X172817885Y-100245028D01*
X172703600Y-100359314D01*
X172532171Y-100416457D01*
X172246457Y-100416457D01*
X173389314Y-99330742D02*
X173446457Y-99273600D01*
X173560742Y-99216457D01*
X173846457Y-99216457D01*
X173960742Y-99273600D01*
X174017885Y-99330742D01*
X174075028Y-99445028D01*
X174075028Y-99559314D01*
X174017885Y-99730742D01*
X173332171Y-100416457D01*
X174075028Y-100416457D01*
X175732171Y-99216457D02*
X175960742Y-99216457D01*
X176075028Y-99273600D01*
X176189314Y-99387885D01*
X176246457Y-99616457D01*
X176246457Y-100016457D01*
X176189314Y-100245028D01*
X176075028Y-100359314D01*
X175960742Y-100416457D01*
X175732171Y-100416457D01*
X175617885Y-100359314D01*
X175503600Y-100245028D01*
X175446457Y-100016457D01*
X175446457Y-99616457D01*
X175503600Y-99387885D01*
X175617885Y-99273600D01*
X175732171Y-99216457D01*
X115592742Y-116951200D02*
X115478457Y-116894057D01*
X115307028Y-116894057D01*
X115135600Y-116951200D01*
X115021314Y-117065485D01*
X114964171Y-117179771D01*
X114907028Y-117408342D01*
X114907028Y-117579771D01*
X114964171Y-117808342D01*
X115021314Y-117922628D01*
X115135600Y-118036914D01*
X115307028Y-118094057D01*
X115421314Y-118094057D01*
X115592742Y-118036914D01*
X115649885Y-117979771D01*
X115649885Y-117579771D01*
X115421314Y-117579771D01*
X116164171Y-118094057D02*
X116164171Y-116894057D01*
X116849885Y-118094057D01*
X116849885Y-116894057D01*
X117421314Y-118094057D02*
X117421314Y-116894057D01*
X117707028Y-116894057D01*
X117878457Y-116951200D01*
X117992742Y-117065485D01*
X118049885Y-117179771D01*
X118107028Y-117408342D01*
X118107028Y-117579771D01*
X118049885Y-117808342D01*
X117992742Y-117922628D01*
X117878457Y-118036914D01*
X117707028Y-118094057D01*
X117421314Y-118094057D01*
X116818114Y-77396257D02*
X116246685Y-77396257D01*
X116189542Y-77967685D01*
X116246685Y-77910542D01*
X116360971Y-77853400D01*
X116646685Y-77853400D01*
X116760971Y-77910542D01*
X116818114Y-77967685D01*
X116875257Y-78081971D01*
X116875257Y-78367685D01*
X116818114Y-78481971D01*
X116760971Y-78539114D01*
X116646685Y-78596257D01*
X116360971Y-78596257D01*
X116246685Y-78539114D01*
X116189542Y-78481971D01*
X117218114Y-77396257D02*
X117618114Y-78596257D01*
X118018114Y-77396257D01*
X115218114Y-79328257D02*
X115446685Y-79328257D01*
X115560971Y-79385400D01*
X115675257Y-79499685D01*
X115732400Y-79728257D01*
X115732400Y-80128257D01*
X115675257Y-80356828D01*
X115560971Y-80471114D01*
X115446685Y-80528257D01*
X115218114Y-80528257D01*
X115103828Y-80471114D01*
X114989542Y-80356828D01*
X114932400Y-80128257D01*
X114932400Y-79728257D01*
X114989542Y-79499685D01*
X115103828Y-79385400D01*
X115218114Y-79328257D01*
X116246685Y-79328257D02*
X116246685Y-80299685D01*
X116303828Y-80413971D01*
X116360971Y-80471114D01*
X116475257Y-80528257D01*
X116703828Y-80528257D01*
X116818114Y-80471114D01*
X116875257Y-80413971D01*
X116932400Y-80299685D01*
X116932400Y-79328257D01*
X117332400Y-79328257D02*
X118018114Y-79328257D01*
X117675257Y-80528257D02*
X117675257Y-79328257D01*
X170189314Y-103920057D02*
X170189314Y-102720057D01*
X170989314Y-102720057D02*
X171217885Y-102720057D01*
X171332171Y-102777200D01*
X171446457Y-102891485D01*
X171503600Y-103120057D01*
X171503600Y-103520057D01*
X171446457Y-103748628D01*
X171332171Y-103862914D01*
X171217885Y-103920057D01*
X170989314Y-103920057D01*
X170875028Y-103862914D01*
X170760742Y-103748628D01*
X170703600Y-103520057D01*
X170703600Y-103120057D01*
X170760742Y-102891485D01*
X170875028Y-102777200D01*
X170989314Y-102720057D01*
X172646457Y-103920057D02*
X171960742Y-103920057D01*
X172303600Y-103920057D02*
X172303600Y-102720057D01*
X172189314Y-102891485D01*
X172075028Y-103005771D01*
X171960742Y-103062914D01*
X173103600Y-102834342D02*
X173160742Y-102777200D01*
X173275028Y-102720057D01*
X173560742Y-102720057D01*
X173675028Y-102777200D01*
X173732171Y-102834342D01*
X173789314Y-102948628D01*
X173789314Y-103062914D01*
X173732171Y-103234342D01*
X173046457Y-103920057D01*
X173789314Y-103920057D01*
X175160742Y-102662914D02*
X174132171Y-104205771D01*
X170017885Y-104652057D02*
X170703600Y-104652057D01*
X170360742Y-105852057D02*
X170360742Y-104652057D01*
X171103600Y-105852057D02*
X171103600Y-104652057D01*
X171389314Y-104652057D01*
X171560742Y-104709200D01*
X171675028Y-104823485D01*
X171732171Y-104937771D01*
X171789314Y-105166342D01*
X171789314Y-105337771D01*
X171732171Y-105566342D01*
X171675028Y-105680628D01*
X171560742Y-105794914D01*
X171389314Y-105852057D01*
X171103600Y-105852057D01*
X172303600Y-105852057D02*
X172303600Y-104652057D01*
X114443514Y-98884657D02*
X115186371Y-98884657D01*
X114786371Y-99341800D01*
X114957800Y-99341800D01*
X115072085Y-99398942D01*
X115129228Y-99456085D01*
X115186371Y-99570371D01*
X115186371Y-99856085D01*
X115129228Y-99970371D01*
X115072085Y-100027514D01*
X114957800Y-100084657D01*
X114614942Y-100084657D01*
X114500657Y-100027514D01*
X114443514Y-99970371D01*
X115700657Y-99970371D02*
X115757800Y-100027514D01*
X115700657Y-100084657D01*
X115643514Y-100027514D01*
X115700657Y-99970371D01*
X115700657Y-100084657D01*
X116157800Y-98884657D02*
X116900657Y-98884657D01*
X116500657Y-99341800D01*
X116672085Y-99341800D01*
X116786371Y-99398942D01*
X116843514Y-99456085D01*
X116900657Y-99570371D01*
X116900657Y-99856085D01*
X116843514Y-99970371D01*
X116786371Y-100027514D01*
X116672085Y-100084657D01*
X116329228Y-100084657D01*
X116214942Y-100027514D01*
X116157800Y-99970371D01*
X117243514Y-98884657D02*
X117643514Y-100084657D01*
X118043514Y-98884657D01*
X115243514Y-100816657D02*
X115472085Y-100816657D01*
X115586371Y-100873800D01*
X115700657Y-100988085D01*
X115757800Y-101216657D01*
X115757800Y-101616657D01*
X115700657Y-101845228D01*
X115586371Y-101959514D01*
X115472085Y-102016657D01*
X115243514Y-102016657D01*
X115129228Y-101959514D01*
X115014942Y-101845228D01*
X114957800Y-101616657D01*
X114957800Y-101216657D01*
X115014942Y-100988085D01*
X115129228Y-100873800D01*
X115243514Y-100816657D01*
X116272085Y-100816657D02*
X116272085Y-101788085D01*
X116329228Y-101902371D01*
X116386371Y-101959514D01*
X116500657Y-102016657D01*
X116729228Y-102016657D01*
X116843514Y-101959514D01*
X116900657Y-101902371D01*
X116957800Y-101788085D01*
X116957800Y-100816657D01*
X117357800Y-100816657D02*
X118043514Y-100816657D01*
X117700657Y-102016657D02*
X117700657Y-100816657D01*
D10*
X119817195Y-133624580D02*
X119817195Y-132624580D01*
X120483861Y-132624580D02*
X120674338Y-132624580D01*
X120769576Y-132672200D01*
X120864814Y-132767438D01*
X120912433Y-132957914D01*
X120912433Y-133291247D01*
X120864814Y-133481723D01*
X120769576Y-133576961D01*
X120674338Y-133624580D01*
X120483861Y-133624580D01*
X120388623Y-133576961D01*
X120293385Y-133481723D01*
X120245766Y-133291247D01*
X120245766Y-132957914D01*
X120293385Y-132767438D01*
X120388623Y-132672200D01*
X120483861Y-132624580D01*
X121245766Y-132624580D02*
X121864814Y-132624580D01*
X121531480Y-133005533D01*
X121674338Y-133005533D01*
X121769576Y-133053152D01*
X121817195Y-133100771D01*
X121864814Y-133196009D01*
X121864814Y-133434104D01*
X121817195Y-133529342D01*
X121769576Y-133576961D01*
X121674338Y-133624580D01*
X121388623Y-133624580D01*
X121293385Y-133576961D01*
X121245766Y-133529342D01*
X122198147Y-132624580D02*
X122817195Y-132624580D01*
X122483861Y-133005533D01*
X122626719Y-133005533D01*
X122721957Y-133053152D01*
X122769576Y-133100771D01*
X122817195Y-133196009D01*
X122817195Y-133434104D01*
X122769576Y-133529342D01*
X122721957Y-133576961D01*
X122626719Y-133624580D01*
X122341004Y-133624580D01*
X122245766Y-133576961D01*
X122198147Y-133529342D01*
X123960052Y-132576961D02*
X123102909Y-133862676D01*
X124626719Y-133100771D02*
X124769576Y-133148390D01*
X124817195Y-133196009D01*
X124864814Y-133291247D01*
X124864814Y-133434104D01*
X124817195Y-133529342D01*
X124769576Y-133576961D01*
X124674338Y-133624580D01*
X124293385Y-133624580D01*
X124293385Y-132624580D01*
X124626719Y-132624580D01*
X124721957Y-132672200D01*
X124769576Y-132719819D01*
X124817195Y-132815057D01*
X124817195Y-132910295D01*
X124769576Y-133005533D01*
X124721957Y-133053152D01*
X124626719Y-133100771D01*
X124293385Y-133100771D01*
X125817195Y-133624580D02*
X125245766Y-133624580D01*
X125531480Y-133624580D02*
X125531480Y-132624580D01*
X125436242Y-132767438D01*
X125341004Y-132862676D01*
X125245766Y-132910295D01*
D12*
X170189314Y-78672457D02*
X170189314Y-77472457D01*
X170989314Y-77472457D02*
X171217885Y-77472457D01*
X171332171Y-77529600D01*
X171446457Y-77643885D01*
X171503600Y-77872457D01*
X171503600Y-78272457D01*
X171446457Y-78501028D01*
X171332171Y-78615314D01*
X171217885Y-78672457D01*
X170989314Y-78672457D01*
X170875028Y-78615314D01*
X170760742Y-78501028D01*
X170703600Y-78272457D01*
X170703600Y-77872457D01*
X170760742Y-77643885D01*
X170875028Y-77529600D01*
X170989314Y-77472457D01*
X172532171Y-77872457D02*
X172532171Y-78672457D01*
X172246457Y-77415314D02*
X171960742Y-78272457D01*
X172703600Y-78272457D01*
X174017885Y-77415314D02*
X172989314Y-78958171D01*
X170589314Y-79975885D02*
X170760742Y-80033028D01*
X170817885Y-80090171D01*
X170875028Y-80204457D01*
X170875028Y-80375885D01*
X170817885Y-80490171D01*
X170760742Y-80547314D01*
X170646457Y-80604457D01*
X170189314Y-80604457D01*
X170189314Y-79404457D01*
X170589314Y-79404457D01*
X170703600Y-79461600D01*
X170760742Y-79518742D01*
X170817885Y-79633028D01*
X170817885Y-79747314D01*
X170760742Y-79861600D01*
X170703600Y-79918742D01*
X170589314Y-79975885D01*
X170189314Y-79975885D01*
X171332171Y-79518742D02*
X171389314Y-79461600D01*
X171503600Y-79404457D01*
X171789314Y-79404457D01*
X171903600Y-79461600D01*
X171960742Y-79518742D01*
X172017885Y-79633028D01*
X172017885Y-79747314D01*
X171960742Y-79918742D01*
X171275028Y-80604457D01*
X172017885Y-80604457D01*
D10*
X127135576Y-133576961D02*
X127278433Y-133624580D01*
X127516528Y-133624580D01*
X127611766Y-133576961D01*
X127659385Y-133529342D01*
X127707004Y-133434104D01*
X127707004Y-133338866D01*
X127659385Y-133243628D01*
X127611766Y-133196009D01*
X127516528Y-133148390D01*
X127326052Y-133100771D01*
X127230814Y-133053152D01*
X127183195Y-133005533D01*
X127135576Y-132910295D01*
X127135576Y-132815057D01*
X127183195Y-132719819D01*
X127230814Y-132672200D01*
X127326052Y-132624580D01*
X127564147Y-132624580D01*
X127707004Y-132672200D01*
X128135576Y-133100771D02*
X128468909Y-133100771D01*
X128611766Y-133624580D02*
X128135576Y-133624580D01*
X128135576Y-132624580D01*
X128611766Y-132624580D01*
X129611766Y-133624580D02*
X129278433Y-133148390D01*
X129040338Y-133624580D02*
X129040338Y-132624580D01*
X129421290Y-132624580D01*
X129516528Y-132672200D01*
X129564147Y-132719819D01*
X129611766Y-132815057D01*
X129611766Y-132957914D01*
X129564147Y-133053152D01*
X129516528Y-133100771D01*
X129421290Y-133148390D01*
X129040338Y-133148390D01*
X130040338Y-133624580D02*
X130040338Y-132624580D01*
X130468909Y-133338866D02*
X130945100Y-133338866D01*
X130373671Y-133624580D02*
X130707004Y-132624580D01*
X131040338Y-133624580D01*
X131849861Y-133624580D02*
X131373671Y-133624580D01*
X131373671Y-132624580D01*
D12*
X170189314Y-125002857D02*
X170189314Y-123802857D01*
X170989314Y-123802857D02*
X171217885Y-123802857D01*
X171332171Y-123860000D01*
X171446457Y-123974285D01*
X171503600Y-124202857D01*
X171503600Y-124602857D01*
X171446457Y-124831428D01*
X171332171Y-124945714D01*
X171217885Y-125002857D01*
X170989314Y-125002857D01*
X170875028Y-124945714D01*
X170760742Y-124831428D01*
X170703600Y-124602857D01*
X170703600Y-124202857D01*
X170760742Y-123974285D01*
X170875028Y-123860000D01*
X170989314Y-123802857D01*
X172646457Y-125002857D02*
X171960742Y-125002857D01*
X172303600Y-125002857D02*
X172303600Y-123802857D01*
X172189314Y-123974285D01*
X172075028Y-124088571D01*
X171960742Y-124145714D01*
X173332171Y-124317142D02*
X173217885Y-124260000D01*
X173160742Y-124202857D01*
X173103600Y-124088571D01*
X173103600Y-124031428D01*
X173160742Y-123917142D01*
X173217885Y-123860000D01*
X173332171Y-123802857D01*
X173560742Y-123802857D01*
X173675028Y-123860000D01*
X173732171Y-123917142D01*
X173789314Y-124031428D01*
X173789314Y-124088571D01*
X173732171Y-124202857D01*
X173675028Y-124260000D01*
X173560742Y-124317142D01*
X173332171Y-124317142D01*
X173217885Y-124374285D01*
X173160742Y-124431428D01*
X173103600Y-124545714D01*
X173103600Y-124774285D01*
X173160742Y-124888571D01*
X173217885Y-124945714D01*
X173332171Y-125002857D01*
X173560742Y-125002857D01*
X173675028Y-124945714D01*
X173732171Y-124888571D01*
X173789314Y-124774285D01*
X173789314Y-124545714D01*
X173732171Y-124431428D01*
X173675028Y-124374285D01*
X173560742Y-124317142D01*
X170189314Y-88426057D02*
X170189314Y-87226057D01*
X170989314Y-87226057D02*
X171217885Y-87226057D01*
X171332171Y-87283200D01*
X171446457Y-87397485D01*
X171503600Y-87626057D01*
X171503600Y-88026057D01*
X171446457Y-88254628D01*
X171332171Y-88368914D01*
X171217885Y-88426057D01*
X170989314Y-88426057D01*
X170875028Y-88368914D01*
X170760742Y-88254628D01*
X170703600Y-88026057D01*
X170703600Y-87626057D01*
X170760742Y-87397485D01*
X170875028Y-87283200D01*
X170989314Y-87226057D01*
X171960742Y-87340342D02*
X172017885Y-87283200D01*
X172132171Y-87226057D01*
X172417885Y-87226057D01*
X172532171Y-87283200D01*
X172589314Y-87340342D01*
X172646457Y-87454628D01*
X172646457Y-87568914D01*
X172589314Y-87740342D01*
X171903600Y-88426057D01*
X172646457Y-88426057D01*
X173675028Y-87226057D02*
X173446457Y-87226057D01*
X173332171Y-87283200D01*
X173275028Y-87340342D01*
X173160742Y-87511771D01*
X173103600Y-87740342D01*
X173103600Y-88197485D01*
X173160742Y-88311771D01*
X173217885Y-88368914D01*
X173332171Y-88426057D01*
X173560742Y-88426057D01*
X173675028Y-88368914D01*
X173732171Y-88311771D01*
X173789314Y-88197485D01*
X173789314Y-87911771D01*
X173732171Y-87797485D01*
X173675028Y-87740342D01*
X173560742Y-87683200D01*
X173332171Y-87683200D01*
X173217885Y-87740342D01*
X173160742Y-87797485D01*
X173103600Y-87911771D01*
X175160742Y-87168914D02*
X174132171Y-88711771D01*
X170589314Y-89729485D02*
X170760742Y-89786628D01*
X170817885Y-89843771D01*
X170875028Y-89958057D01*
X170875028Y-90129485D01*
X170817885Y-90243771D01*
X170760742Y-90300914D01*
X170646457Y-90358057D01*
X170189314Y-90358057D01*
X170189314Y-89158057D01*
X170589314Y-89158057D01*
X170703600Y-89215200D01*
X170760742Y-89272342D01*
X170817885Y-89386628D01*
X170817885Y-89500914D01*
X170760742Y-89615200D01*
X170703600Y-89672342D01*
X170589314Y-89729485D01*
X170189314Y-89729485D01*
X171903600Y-89558057D02*
X171903600Y-90358057D01*
X171617885Y-89100914D02*
X171332171Y-89958057D01*
X172075028Y-89958057D01*
X170189314Y-93506057D02*
X170189314Y-92306057D01*
X170989314Y-92306057D02*
X171217885Y-92306057D01*
X171332171Y-92363200D01*
X171446457Y-92477485D01*
X171503600Y-92706057D01*
X171503600Y-93106057D01*
X171446457Y-93334628D01*
X171332171Y-93448914D01*
X171217885Y-93506057D01*
X170989314Y-93506057D01*
X170875028Y-93448914D01*
X170760742Y-93334628D01*
X170703600Y-93106057D01*
X170703600Y-92706057D01*
X170760742Y-92477485D01*
X170875028Y-92363200D01*
X170989314Y-92306057D01*
X172646457Y-93506057D02*
X171960742Y-93506057D01*
X172303600Y-93506057D02*
X172303600Y-92306057D01*
X172189314Y-92477485D01*
X172075028Y-92591771D01*
X171960742Y-92648914D01*
X173675028Y-92306057D02*
X173446457Y-92306057D01*
X173332171Y-92363200D01*
X173275028Y-92420342D01*
X173160742Y-92591771D01*
X173103600Y-92820342D01*
X173103600Y-93277485D01*
X173160742Y-93391771D01*
X173217885Y-93448914D01*
X173332171Y-93506057D01*
X173560742Y-93506057D01*
X173675028Y-93448914D01*
X173732171Y-93391771D01*
X173789314Y-93277485D01*
X173789314Y-92991771D01*
X173732171Y-92877485D01*
X173675028Y-92820342D01*
X173560742Y-92763200D01*
X173332171Y-92763200D01*
X173217885Y-92820342D01*
X173160742Y-92877485D01*
X173103600Y-92991771D01*
X175160742Y-92248914D02*
X174132171Y-93791771D01*
X170760742Y-95438057D02*
X170189314Y-95438057D01*
X170189314Y-94238057D01*
X171160742Y-94809485D02*
X171560742Y-94809485D01*
X171732171Y-95438057D02*
X171160742Y-95438057D01*
X171160742Y-94238057D01*
X171732171Y-94238057D01*
X172246457Y-95438057D02*
X172246457Y-94238057D01*
X172532171Y-94238057D01*
X172703600Y-94295200D01*
X172817885Y-94409485D01*
X172875028Y-94523771D01*
X172932171Y-94752342D01*
X172932171Y-94923771D01*
X172875028Y-95152342D01*
X172817885Y-95266628D01*
X172703600Y-95380914D01*
X172532171Y-95438057D01*
X172246457Y-95438057D01*
X174075028Y-95438057D02*
X173389314Y-95438057D01*
X173732171Y-95438057D02*
X173732171Y-94238057D01*
X173617885Y-94409485D01*
X173503600Y-94523771D01*
X173389314Y-94580914D01*
X175732171Y-94238057D02*
X175960742Y-94238057D01*
X176075028Y-94295200D01*
X176189314Y-94409485D01*
X176246457Y-94638057D01*
X176246457Y-95038057D01*
X176189314Y-95266628D01*
X176075028Y-95380914D01*
X175960742Y-95438057D01*
X175732171Y-95438057D01*
X175617885Y-95380914D01*
X175503600Y-95266628D01*
X175446457Y-95038057D01*
X175446457Y-94638057D01*
X175503600Y-94409485D01*
X175617885Y-94295200D01*
X175732171Y-94238057D01*
X170290914Y-128558057D02*
X170290914Y-127358057D01*
X171090914Y-127358057D02*
X171319485Y-127358057D01*
X171433771Y-127415200D01*
X171548057Y-127529485D01*
X171605200Y-127758057D01*
X171605200Y-128158057D01*
X171548057Y-128386628D01*
X171433771Y-128500914D01*
X171319485Y-128558057D01*
X171090914Y-128558057D01*
X170976628Y-128500914D01*
X170862342Y-128386628D01*
X170805200Y-128158057D01*
X170805200Y-127758057D01*
X170862342Y-127529485D01*
X170976628Y-127415200D01*
X171090914Y-127358057D01*
X172005200Y-127358057D02*
X172748057Y-127358057D01*
X172348057Y-127815200D01*
X172519485Y-127815200D01*
X172633771Y-127872342D01*
X172690914Y-127929485D01*
X172748057Y-128043771D01*
X172748057Y-128329485D01*
X172690914Y-128443771D01*
X172633771Y-128500914D01*
X172519485Y-128558057D01*
X172176628Y-128558057D01*
X172062342Y-128500914D01*
X172005200Y-128443771D01*
X173205200Y-127472342D02*
X173262342Y-127415200D01*
X173376628Y-127358057D01*
X173662342Y-127358057D01*
X173776628Y-127415200D01*
X173833771Y-127472342D01*
X173890914Y-127586628D01*
X173890914Y-127700914D01*
X173833771Y-127872342D01*
X173148057Y-128558057D01*
X173890914Y-128558057D01*
X175262342Y-127300914D02*
X174233771Y-128843771D01*
X170233771Y-130432914D02*
X170405200Y-130490057D01*
X170690914Y-130490057D01*
X170805200Y-130432914D01*
X170862342Y-130375771D01*
X170919485Y-130261485D01*
X170919485Y-130147200D01*
X170862342Y-130032914D01*
X170805200Y-129975771D01*
X170690914Y-129918628D01*
X170462342Y-129861485D01*
X170348057Y-129804342D01*
X170290914Y-129747200D01*
X170233771Y-129632914D01*
X170233771Y-129518628D01*
X170290914Y-129404342D01*
X170348057Y-129347200D01*
X170462342Y-129290057D01*
X170748057Y-129290057D01*
X170919485Y-129347200D01*
X171433771Y-130490057D02*
X171433771Y-129290057D01*
X171719485Y-129290057D01*
X171890914Y-129347200D01*
X172005200Y-129461485D01*
X172062342Y-129575771D01*
X172119485Y-129804342D01*
X172119485Y-129975771D01*
X172062342Y-130204342D01*
X172005200Y-130318628D01*
X171890914Y-130432914D01*
X171719485Y-130490057D01*
X171433771Y-130490057D01*
X170189314Y-73541657D02*
X170189314Y-72341657D01*
X170989314Y-72341657D02*
X171217885Y-72341657D01*
X171332171Y-72398800D01*
X171446457Y-72513085D01*
X171503600Y-72741657D01*
X171503600Y-73141657D01*
X171446457Y-73370228D01*
X171332171Y-73484514D01*
X171217885Y-73541657D01*
X170989314Y-73541657D01*
X170875028Y-73484514D01*
X170760742Y-73370228D01*
X170703600Y-73141657D01*
X170703600Y-72741657D01*
X170760742Y-72513085D01*
X170875028Y-72398800D01*
X170989314Y-72341657D01*
X171903600Y-72341657D02*
X172646457Y-72341657D01*
X172246457Y-72798800D01*
X172417885Y-72798800D01*
X172532171Y-72855942D01*
X172589314Y-72913085D01*
X172646457Y-73027371D01*
X172646457Y-73313085D01*
X172589314Y-73427371D01*
X172532171Y-73484514D01*
X172417885Y-73541657D01*
X172075028Y-73541657D01*
X171960742Y-73484514D01*
X171903600Y-73427371D01*
X173046457Y-72341657D02*
X173789314Y-72341657D01*
X173389314Y-72798800D01*
X173560742Y-72798800D01*
X173675028Y-72855942D01*
X173732171Y-72913085D01*
X173789314Y-73027371D01*
X173789314Y-73313085D01*
X173732171Y-73427371D01*
X173675028Y-73484514D01*
X173560742Y-73541657D01*
X173217885Y-73541657D01*
X173103600Y-73484514D01*
X173046457Y-73427371D01*
X175160742Y-72284514D02*
X174132171Y-73827371D01*
X170589314Y-74845085D02*
X170760742Y-74902228D01*
X170817885Y-74959371D01*
X170875028Y-75073657D01*
X170875028Y-75245085D01*
X170817885Y-75359371D01*
X170760742Y-75416514D01*
X170646457Y-75473657D01*
X170189314Y-75473657D01*
X170189314Y-74273657D01*
X170589314Y-74273657D01*
X170703600Y-74330800D01*
X170760742Y-74387942D01*
X170817885Y-74502228D01*
X170817885Y-74616514D01*
X170760742Y-74730800D01*
X170703600Y-74787942D01*
X170589314Y-74845085D01*
X170189314Y-74845085D01*
X172017885Y-75473657D02*
X171332171Y-75473657D01*
X171675028Y-75473657D02*
X171675028Y-74273657D01*
X171560742Y-74445085D01*
X171446457Y-74559371D01*
X171332171Y-74616514D01*
D10*
X165067223Y-133624580D02*
X164733890Y-133148390D01*
X164495795Y-133624580D02*
X164495795Y-132624580D01*
X164876747Y-132624580D01*
X164971985Y-132672200D01*
X165019604Y-132719819D01*
X165067223Y-132815057D01*
X165067223Y-132957914D01*
X165019604Y-133053152D01*
X164971985Y-133100771D01*
X164876747Y-133148390D01*
X164495795Y-133148390D01*
X165495795Y-133100771D02*
X165829128Y-133100771D01*
X165971985Y-133624580D02*
X165495795Y-133624580D01*
X165495795Y-132624580D01*
X165971985Y-132624580D01*
X166352938Y-133576961D02*
X166495795Y-133624580D01*
X166733890Y-133624580D01*
X166829128Y-133576961D01*
X166876747Y-133529342D01*
X166924366Y-133434104D01*
X166924366Y-133338866D01*
X166876747Y-133243628D01*
X166829128Y-133196009D01*
X166733890Y-133148390D01*
X166543414Y-133100771D01*
X166448176Y-133053152D01*
X166400557Y-133005533D01*
X166352938Y-132910295D01*
X166352938Y-132815057D01*
X166400557Y-132719819D01*
X166448176Y-132672200D01*
X166543414Y-132624580D01*
X166781509Y-132624580D01*
X166924366Y-132672200D01*
X167352938Y-133100771D02*
X167686271Y-133100771D01*
X167829128Y-133624580D02*
X167352938Y-133624580D01*
X167352938Y-132624580D01*
X167829128Y-132624580D01*
X168114842Y-132624580D02*
X168686271Y-132624580D01*
X168400557Y-133624580D02*
X168400557Y-132624580D01*
D12*
X170189314Y-109000057D02*
X170189314Y-107800057D01*
X170989314Y-107800057D02*
X171217885Y-107800057D01*
X171332171Y-107857200D01*
X171446457Y-107971485D01*
X171503600Y-108200057D01*
X171503600Y-108600057D01*
X171446457Y-108828628D01*
X171332171Y-108942914D01*
X171217885Y-109000057D01*
X170989314Y-109000057D01*
X170875028Y-108942914D01*
X170760742Y-108828628D01*
X170703600Y-108600057D01*
X170703600Y-108200057D01*
X170760742Y-107971485D01*
X170875028Y-107857200D01*
X170989314Y-107800057D01*
X172646457Y-109000057D02*
X171960742Y-109000057D01*
X172303600Y-109000057D02*
X172303600Y-107800057D01*
X172189314Y-107971485D01*
X172075028Y-108085771D01*
X171960742Y-108142914D01*
X173046457Y-107800057D02*
X173789314Y-107800057D01*
X173389314Y-108257200D01*
X173560742Y-108257200D01*
X173675028Y-108314342D01*
X173732171Y-108371485D01*
X173789314Y-108485771D01*
X173789314Y-108771485D01*
X173732171Y-108885771D01*
X173675028Y-108942914D01*
X173560742Y-109000057D01*
X173217885Y-109000057D01*
X173103600Y-108942914D01*
X173046457Y-108885771D01*
X175160742Y-107742914D02*
X174132171Y-109285771D01*
X170017885Y-109732057D02*
X170703600Y-109732057D01*
X170360742Y-110932057D02*
X170360742Y-109732057D01*
X171789314Y-110817771D02*
X171732171Y-110874914D01*
X171560742Y-110932057D01*
X171446457Y-110932057D01*
X171275028Y-110874914D01*
X171160742Y-110760628D01*
X171103600Y-110646342D01*
X171046457Y-110417771D01*
X171046457Y-110246342D01*
X171103600Y-110017771D01*
X171160742Y-109903485D01*
X171275028Y-109789200D01*
X171446457Y-109732057D01*
X171560742Y-109732057D01*
X171732171Y-109789200D01*
X171789314Y-109846342D01*
X172303600Y-110932057D02*
X172303600Y-109732057D01*
X172989314Y-110932057D02*
X172475028Y-110246342D01*
X172989314Y-109732057D02*
X172303600Y-110417771D01*
X114989714Y-128882857D02*
X115389714Y-130082857D01*
X115789714Y-128882857D01*
X116589714Y-129454285D02*
X116761142Y-129511428D01*
X116818285Y-129568571D01*
X116875428Y-129682857D01*
X116875428Y-129854285D01*
X116818285Y-129968571D01*
X116761142Y-130025714D01*
X116646857Y-130082857D01*
X116189714Y-130082857D01*
X116189714Y-128882857D01*
X116589714Y-128882857D01*
X116704000Y-128940000D01*
X116761142Y-128997142D01*
X116818285Y-129111428D01*
X116818285Y-129225714D01*
X116761142Y-129340000D01*
X116704000Y-129397142D01*
X116589714Y-129454285D01*
X116189714Y-129454285D01*
X117389714Y-128882857D02*
X117389714Y-129854285D01*
X117446857Y-129968571D01*
X117504000Y-130025714D01*
X117618285Y-130082857D01*
X117846857Y-130082857D01*
X117961142Y-130025714D01*
X118018285Y-129968571D01*
X118075428Y-129854285D01*
X118075428Y-128882857D01*
X118589714Y-130025714D02*
X118761142Y-130082857D01*
X119046857Y-130082857D01*
X119161142Y-130025714D01*
X119218285Y-129968571D01*
X119275428Y-129854285D01*
X119275428Y-129740000D01*
X119218285Y-129625714D01*
X119161142Y-129568571D01*
X119046857Y-129511428D01*
X118818285Y-129454285D01*
X118704000Y-129397142D01*
X118646857Y-129340000D01*
X118589714Y-129225714D01*
X118589714Y-129111428D01*
X118646857Y-128997142D01*
X118704000Y-128940000D01*
X118818285Y-128882857D01*
X119104000Y-128882857D01*
X119275428Y-128940000D01*
D13*
%TO.C,R12*%
X154900100Y-120879324D02*
X154900100Y-120369876D01*
X155945100Y-120879324D02*
X155945100Y-120369876D01*
D14*
%TO.C,SW2*%
X160934402Y-135009894D02*
X159156398Y-135009894D01*
%TO.C,P2*%
X127750451Y-101949873D02*
X127750451Y-111950127D01*
X121250324Y-108450000D02*
X119950349Y-108450000D01*
X121250324Y-128450000D02*
X121250324Y-130450000D01*
X119950349Y-128450000D02*
X121250324Y-128450000D01*
X121250324Y-115450000D02*
X121250324Y-113450000D01*
X119950349Y-126950127D02*
X119950349Y-121950127D01*
X121250324Y-118450000D02*
X121250324Y-120450000D01*
X121250324Y-113450000D02*
X121250324Y-115450000D01*
X119950349Y-110450000D02*
X121250324Y-110450000D01*
X119950349Y-125450000D02*
X121250324Y-125450000D01*
X121250324Y-123450000D02*
X119950349Y-123450000D01*
X119950349Y-131950127D02*
X119950349Y-126950127D01*
X119950349Y-121950127D02*
X119950349Y-116950127D01*
X127750451Y-126950127D02*
X127750451Y-131950127D01*
X119950349Y-123450000D02*
X121250324Y-123450000D01*
X121250324Y-110450000D02*
X121250324Y-108450000D01*
X123750451Y-101949873D02*
X127750451Y-101949873D01*
X121250324Y-125450000D02*
X119950349Y-125450000D01*
X121250324Y-120450000D02*
X119950349Y-120450000D01*
X119950349Y-118450000D02*
X121250324Y-118450000D01*
X121250324Y-103450000D02*
X119950349Y-103450000D01*
X119950349Y-115450000D02*
X121250324Y-115450000D01*
X127750451Y-116950127D02*
X127750451Y-121950127D01*
X119950349Y-101949873D02*
X123750451Y-101949873D01*
X127750451Y-111950127D02*
X127750451Y-116950127D01*
X121250324Y-115450000D02*
X119950349Y-115450000D01*
X121250324Y-105450000D02*
X121250324Y-103450000D01*
X121250324Y-113450000D02*
X119950349Y-113450000D01*
X121250324Y-130450000D02*
X119950349Y-130450000D01*
X123750451Y-131950127D02*
X119950349Y-131950127D01*
X127750451Y-121950127D02*
X127750451Y-126950127D01*
X119950349Y-113450000D02*
X121250324Y-113450000D01*
X119950349Y-116950127D02*
X119950349Y-111950127D01*
X121250324Y-125450000D02*
X121250324Y-123450000D01*
X127750451Y-131950127D02*
X123750451Y-131950127D01*
X121250324Y-123450000D02*
X121250324Y-125450000D01*
X119950349Y-105450000D02*
X121250324Y-105450000D01*
X119950349Y-111950127D02*
X119950349Y-101949873D01*
D15*
X119853321Y-101822873D02*
G75*
G03*
X119853321Y-101822873I-29972J0D01*
G01*
D13*
%TO.C,C4*%
X135818200Y-94628152D02*
X135818200Y-93205648D01*
X137638200Y-94628152D02*
X137638200Y-93205648D01*
D16*
%TO.C,U7*%
X134857600Y-90676700D02*
X137307600Y-90676700D01*
X150407600Y-90676700D02*
X152857600Y-90676700D01*
X134857600Y-90026700D02*
X134857600Y-90676700D01*
X152857600Y-90676700D02*
X152857600Y-90026700D01*
D12*
X133957600Y-72676700D02*
G75*
G03*
X133957600Y-72676700I-100000J0D01*
G01*
D13*
%TO.C,R1*%
X154823900Y-83185724D02*
X154823900Y-82676276D01*
X155868900Y-83185724D02*
X155868900Y-82676276D01*
D12*
%TO.C,U13*%
X149106387Y-118677187D02*
X149106387Y-118027200D01*
X143806413Y-118677187D02*
X143806413Y-118027200D01*
X144456400Y-118677187D02*
X143806413Y-118677187D01*
X149106387Y-114027200D02*
X149106387Y-113377213D01*
X149106387Y-113377213D02*
X148456400Y-113377213D01*
X144456400Y-113377213D02*
X143806413Y-113377213D01*
X148456400Y-118677187D02*
X149106387Y-118677187D01*
X143806413Y-113377213D02*
X143806413Y-114027200D01*
D17*
X144007835Y-119026946D02*
G75*
G03*
X144005295Y-119026946I-1270J-161288D01*
G01*
D13*
%TO.C,C3*%
X133300000Y-73188733D02*
X133300000Y-73481267D01*
X132280000Y-73188733D02*
X132280000Y-73481267D01*
%TO.C,C11*%
X146655833Y-100865400D02*
X146948367Y-100865400D01*
X146655833Y-99845400D02*
X146948367Y-99845400D01*
%TO.C,C7*%
X148721636Y-120830270D02*
X149014170Y-120830270D01*
X148721636Y-121850270D02*
X149014170Y-121850270D01*
%TO.C,R13*%
X138099076Y-99782100D02*
X138608524Y-99782100D01*
X138099076Y-100827100D02*
X138608524Y-100827100D01*
D14*
%TO.C,P1*%
X121250324Y-97900000D02*
X121250324Y-99900000D01*
X119950349Y-74900000D02*
X121250324Y-74900000D01*
X119950349Y-101400127D02*
X119950349Y-96400127D01*
X127750451Y-81400127D02*
X127750451Y-86400127D01*
X121250324Y-92900000D02*
X119950349Y-92900000D01*
X127750451Y-86400127D02*
X127750451Y-91400127D01*
X127750451Y-91400127D02*
X127750451Y-96400127D01*
X121250324Y-94900000D02*
X121250324Y-92900000D01*
X121250324Y-84900000D02*
X121250324Y-82900000D01*
X121250324Y-72900000D02*
X119950349Y-72900000D01*
X121250324Y-84900000D02*
X119950349Y-84900000D01*
X119950349Y-82900000D02*
X121250324Y-82900000D01*
X123750451Y-101400127D02*
X119950349Y-101400127D01*
X119950349Y-96400127D02*
X119950349Y-91400127D01*
X119950349Y-91400127D02*
X119950349Y-86400127D01*
X121250324Y-94900000D02*
X119950349Y-94900000D01*
X119950349Y-86400127D02*
X119950349Y-81400127D01*
X119950349Y-81400127D02*
X119950349Y-71399873D01*
X121250324Y-77900000D02*
X119950349Y-77900000D01*
X121250324Y-87900000D02*
X121250324Y-89900000D01*
X127750451Y-101400127D02*
X123750451Y-101400127D01*
X119950349Y-87900000D02*
X121250324Y-87900000D01*
X119950349Y-84900000D02*
X121250324Y-84900000D01*
X119950349Y-94900000D02*
X121250324Y-94900000D01*
X121250324Y-99900000D02*
X119950349Y-99900000D01*
X119950349Y-97900000D02*
X121250324Y-97900000D01*
X123750451Y-71399873D02*
X127750451Y-71399873D01*
X119950349Y-79900000D02*
X121250324Y-79900000D01*
X119950349Y-92900000D02*
X121250324Y-92900000D01*
X121250324Y-79900000D02*
X121250324Y-77900000D01*
X119950349Y-71399873D02*
X123750451Y-71399873D01*
X121250324Y-82900000D02*
X121250324Y-84900000D01*
X121250324Y-92900000D02*
X121250324Y-94900000D01*
X121250324Y-89900000D02*
X119950349Y-89900000D01*
X127750451Y-96400127D02*
X127750451Y-101400127D01*
X127750451Y-71399873D02*
X127750451Y-81400127D01*
X121250324Y-74900000D02*
X121250324Y-72900000D01*
X121250324Y-82900000D02*
X119950349Y-82900000D01*
D15*
X119853321Y-71272873D02*
G75*
G03*
X119853321Y-71272873I-29972J0D01*
G01*
D13*
%TO.C,R7*%
X152295776Y-93279700D02*
X152805224Y-93279700D01*
X152295776Y-94324700D02*
X152805224Y-94324700D01*
%TO.C,C9*%
X134336200Y-94653552D02*
X134336200Y-93231048D01*
X132516200Y-94653552D02*
X132516200Y-93231048D01*
D12*
%TO.C,U8*%
X156928673Y-84970999D02*
X155128648Y-84970999D01*
X155128648Y-84970999D02*
X155128648Y-86970948D01*
X155774698Y-86987001D02*
X155128648Y-86987001D01*
X156928673Y-86970948D02*
X156928673Y-84970999D01*
X156282699Y-86987001D02*
X156928673Y-86987001D01*
X156282674Y-86986976D02*
G75*
G03*
X155774672Y-86986976I-254001J0D01*
G01*
D18*
X157516998Y-87223600D02*
G75*
G03*
X157516998Y-87223600I-65798J0D01*
G01*
D13*
%TO.C,C6*%
X143656267Y-100865400D02*
X143363733Y-100865400D01*
X143656267Y-99845400D02*
X143363733Y-99845400D01*
D12*
%TO.C,U14*%
X140464742Y-118524200D02*
X141864742Y-118524200D01*
X140464742Y-116324200D02*
X141864742Y-116324200D01*
X142258214Y-118518409D02*
G75*
G03*
X142255674Y-118518409I-1270J-134405D01*
G01*
D15*
X142248181Y-118524124D02*
G75*
G03*
X142248181Y-118524124I-29997J0D01*
G01*
%TO.C,U3*%
X133657184Y-98444300D02*
G75*
G03*
X133657184Y-98444300I-29997J0D01*
G01*
D19*
X133550987Y-96518087D02*
X134582610Y-96518087D01*
X133550987Y-97970513D02*
X133550987Y-96518087D01*
X136603413Y-96518087D02*
X135571790Y-96518087D01*
X136603413Y-97970513D02*
X136603413Y-96518087D01*
X135532598Y-97970513D02*
X134621802Y-97970513D01*
D15*
%TO.C,U6*%
X134080902Y-104536173D02*
G75*
G03*
X134080902Y-104536173I-29997J0D01*
G01*
D19*
X137047095Y-104012373D02*
X137047095Y-102259973D01*
X133974705Y-104012373D02*
X133974705Y-102259973D01*
X137047095Y-102259973D02*
X136005490Y-102259973D01*
X135966298Y-104012373D02*
X135055502Y-104012373D01*
X133974705Y-102259973D02*
X135016310Y-102259973D01*
D13*
%TO.C,R9*%
X134798976Y-100827100D02*
X135308424Y-100827100D01*
X134798976Y-99782100D02*
X135308424Y-99782100D01*
%TO.C,C2*%
X154756800Y-89439533D02*
X154756800Y-89732067D01*
X155776800Y-89439533D02*
X155776800Y-89732067D01*
%TO.C,R10*%
X151281676Y-98668100D02*
X151791124Y-98668100D01*
X151281676Y-97623100D02*
X151791124Y-97623100D01*
%TO.C,C12*%
X131730533Y-87247000D02*
X132023067Y-87247000D01*
X131730533Y-88267000D02*
X132023067Y-88267000D01*
%TO.C,R15*%
X145083624Y-123966500D02*
X144574176Y-123966500D01*
X145083624Y-122921500D02*
X144574176Y-122921500D01*
%TO.C,F1*%
X147842652Y-127846400D02*
X145070148Y-127846400D01*
X147842652Y-124426400D02*
X145070148Y-124426400D01*
%TO.C,C8*%
X131755933Y-75283600D02*
X132048467Y-75283600D01*
X131755933Y-76303600D02*
X132048467Y-76303600D01*
%TO.C,C15*%
X131730533Y-86793800D02*
X132023067Y-86793800D01*
X131730533Y-85773800D02*
X132023067Y-85773800D01*
%TO.C,R8*%
X156293700Y-83185724D02*
X156293700Y-82676276D01*
X157338700Y-83185724D02*
X157338700Y-82676276D01*
%TO.C,R6*%
X132154724Y-79922900D02*
X131645276Y-79922900D01*
X132154724Y-78877900D02*
X131645276Y-78877900D01*
%TO.C,R11*%
X131496976Y-100827100D02*
X132006424Y-100827100D01*
X131496976Y-99782100D02*
X132006424Y-99782100D01*
D14*
%TO.C,P4*%
X168055676Y-89900000D02*
X169355651Y-89900000D01*
X168055676Y-77900000D02*
X168055676Y-79900000D01*
X168055676Y-87900000D02*
X168055676Y-89900000D01*
X168055676Y-97900000D02*
X168055676Y-99900000D01*
X161555549Y-71399873D02*
X165555549Y-71399873D01*
X169355651Y-89900000D02*
X168055676Y-89900000D01*
X161555549Y-101400127D02*
X161555549Y-91399873D01*
X168055676Y-77900000D02*
X169355651Y-77900000D01*
X169355651Y-101400127D02*
X165555549Y-101400127D01*
X169355651Y-92900000D02*
X168055676Y-92900000D01*
X169355651Y-77900000D02*
X168055676Y-77900000D01*
X161555549Y-86399873D02*
X161555549Y-81399873D01*
X169355651Y-97900000D02*
X168055676Y-97900000D01*
X169355651Y-79900000D02*
X168055676Y-79900000D01*
X165555549Y-101400127D02*
X161555549Y-101400127D01*
X169355651Y-74900000D02*
X168055676Y-74900000D01*
X168055676Y-89900000D02*
X168055676Y-87900000D01*
X168055676Y-79900000D02*
X168055676Y-77900000D01*
X168055676Y-82900000D02*
X169355651Y-82900000D01*
X168055676Y-87900000D02*
X169355651Y-87900000D01*
X169355651Y-87900000D02*
X168055676Y-87900000D01*
X168055676Y-99900000D02*
X169355651Y-99900000D01*
X168055676Y-94900000D02*
X169355651Y-94900000D01*
X161555549Y-76399873D02*
X161555549Y-71399873D01*
X169355651Y-86399873D02*
X169355651Y-91399873D01*
X169355651Y-71399873D02*
X169355651Y-76399873D01*
X168055676Y-79900000D02*
X169355651Y-79900000D01*
X169355651Y-76399873D02*
X169355651Y-81399873D01*
X169355651Y-84900000D02*
X168055676Y-84900000D01*
X165555549Y-71399873D02*
X169355651Y-71399873D01*
X169355651Y-91399873D02*
X169355651Y-101400127D01*
X168055676Y-72900000D02*
X169355651Y-72900000D01*
X168055676Y-74900000D02*
X168055676Y-72900000D01*
X161555549Y-81399873D02*
X161555549Y-76399873D01*
X168055676Y-84900000D02*
X168055676Y-82900000D01*
X168055676Y-92900000D02*
X168055676Y-94900000D01*
X161555549Y-91399873D02*
X161555549Y-86399873D01*
X169355651Y-81399873D02*
X169355651Y-86399873D01*
D15*
X169512623Y-101527127D02*
G75*
G03*
X169512623Y-101527127I-29972J0D01*
G01*
D13*
%TO.C,R4*%
X131645276Y-77427500D02*
X132154724Y-77427500D01*
X131645276Y-78472500D02*
X132154724Y-78472500D01*
%TO.C,C5*%
X149015667Y-119378000D02*
X148723133Y-119378000D01*
X149015667Y-120398000D02*
X148723133Y-120398000D01*
%TO.C,R2*%
X150865100Y-125574976D02*
X150865100Y-126084424D01*
X149820100Y-125574976D02*
X149820100Y-126084424D01*
D19*
%TO.C,U16*%
X139844503Y-122816236D02*
X137117097Y-122816236D01*
X139844503Y-126856368D02*
X139494008Y-126856368D01*
X137117097Y-121454032D02*
X137117097Y-126856368D01*
X139844503Y-121454032D02*
X139844503Y-126856368D01*
X137117097Y-126856368D02*
X137467592Y-126856368D01*
D15*
X137135893Y-121355073D02*
G75*
G03*
X137135893Y-121355073I-29972J0D01*
G01*
%TO.C,U9*%
X136922359Y-98444300D02*
G75*
G03*
X136922359Y-98444300I-29997J0D01*
G01*
D19*
X139868588Y-97970513D02*
X139868588Y-96518087D01*
X138797773Y-97970513D02*
X137886977Y-97970513D01*
X139868588Y-96518087D02*
X138836965Y-96518087D01*
X136816162Y-96518087D02*
X137847785Y-96518087D01*
X136816162Y-97970513D02*
X136816162Y-96518087D01*
D20*
%TO.C,U15*%
X133352948Y-81148883D02*
X132691023Y-81148883D01*
X130332907Y-81511215D02*
X130332907Y-81790768D01*
X130974411Y-81149874D02*
X130331790Y-81149874D01*
X133352948Y-81148883D02*
X133352948Y-81801741D01*
X130331790Y-81149874D02*
X130331790Y-81510605D01*
X133352948Y-85128919D02*
X133332907Y-85148883D01*
X133332907Y-85148883D02*
X132691023Y-85148883D01*
X133352948Y-84496025D02*
X133352948Y-85128919D01*
X130974792Y-85148883D02*
X130332907Y-85148883D01*
X130532882Y-81748908D02*
X130532882Y-81348908D01*
X130332907Y-84506998D02*
X130332907Y-85148883D01*
X130532882Y-81348908D02*
X130932882Y-81348908D01*
D15*
X130362879Y-81148908D02*
G75*
G03*
X130362879Y-81148908I-29997J0D01*
G01*
D13*
%TO.C,C14*%
X152406133Y-94794200D02*
X152698667Y-94794200D01*
X152406133Y-95814200D02*
X152698667Y-95814200D01*
D15*
%TO.C,U5*%
X150207622Y-102415825D02*
G75*
G03*
X150207622Y-102415825I-29998J0D01*
G01*
D14*
X150088698Y-102412803D02*
G75*
G03*
X150088698Y-102412803I-127000J0D01*
G01*
X153162613Y-100115800D02*
X153162613Y-101915825D01*
X150062587Y-100115800D02*
X150062587Y-101915825D01*
D13*
%TO.C,C1*%
X157250000Y-89439533D02*
X157250000Y-89732067D01*
X156230000Y-89439533D02*
X156230000Y-89732067D01*
%TO.C,R5*%
X152805224Y-92851500D02*
X152295776Y-92851500D01*
X152805224Y-91806500D02*
X152295776Y-91806500D01*
D19*
%TO.C,U12*%
X146557800Y-99439813D02*
X143815000Y-99439813D01*
X146557800Y-92787387D02*
X146557800Y-99439813D01*
X143815000Y-92787387D02*
X146557800Y-92787387D01*
X143815000Y-99439813D02*
X143815000Y-92787387D01*
D14*
%TO.C,U10*%
X154101803Y-122250102D02*
G75*
G03*
X154101803Y-122250102I-127000J0D01*
G01*
D15*
X154007823Y-122034176D02*
G75*
G03*
X154007823Y-122034176I-29998J0D01*
G01*
D14*
X151677800Y-122149213D02*
X153477825Y-122149213D01*
X151677800Y-119049187D02*
X153477825Y-119049187D01*
%TO.C,SW1*%
X167430602Y-135035294D02*
X165652598Y-135035294D01*
%TO.C,SW3*%
X123825002Y-135035294D02*
X122046998Y-135035294D01*
D19*
%TO.C,U34*%
X140274697Y-121454032D02*
X140274697Y-126856368D01*
X140274697Y-126856368D02*
X140625192Y-126856368D01*
X143002103Y-122816236D02*
X140274697Y-122816236D01*
X143002103Y-121454032D02*
X143002103Y-126856368D01*
X143002103Y-126856368D02*
X142651608Y-126856368D01*
D15*
X140293493Y-121355073D02*
G75*
G03*
X140293493Y-121355073I-29972J0D01*
G01*
D13*
%TO.C,R16*%
X148387524Y-123966500D02*
X147878076Y-123966500D01*
X148387524Y-122921500D02*
X147878076Y-122921500D01*
D15*
%TO.C,U4*%
X130355184Y-98444300D02*
G75*
G03*
X130355184Y-98444300I-29997J0D01*
G01*
D19*
X133301413Y-97970513D02*
X133301413Y-96518087D01*
X130248987Y-96518087D02*
X131280610Y-96518087D01*
X132230598Y-97970513D02*
X131319802Y-97970513D01*
X133301413Y-96518087D02*
X132269790Y-96518087D01*
X130248987Y-97970513D02*
X130248987Y-96518087D01*
D13*
%TO.C,R3*%
X152338300Y-125576876D02*
X152338300Y-126086324D01*
X151293300Y-125576876D02*
X151293300Y-126086324D01*
D14*
%TO.C,P3*%
X169355651Y-128450000D02*
X168055676Y-128450000D01*
X169355651Y-118450000D02*
X168055676Y-118450000D01*
X169355651Y-110450000D02*
X168055676Y-110450000D01*
X168055676Y-120450000D02*
X168055676Y-118450000D01*
X169355651Y-108450000D02*
X168055676Y-108450000D01*
X169355651Y-105450000D02*
X168055676Y-105450000D01*
X168055676Y-125450000D02*
X169355651Y-125450000D01*
X161555549Y-116949873D02*
X161555549Y-111949873D01*
X161555549Y-106949873D02*
X161555549Y-101949873D01*
X168055676Y-128450000D02*
X168055676Y-130450000D01*
X169355651Y-121949873D02*
X169355651Y-131950127D01*
X169355651Y-116949873D02*
X169355651Y-121949873D01*
X161555549Y-121949873D02*
X161555549Y-116949873D01*
X168055676Y-130450000D02*
X169355651Y-130450000D01*
X168055676Y-110450000D02*
X168055676Y-108450000D01*
X169355651Y-106949873D02*
X169355651Y-111949873D01*
X168055676Y-123450000D02*
X168055676Y-125450000D01*
X161555549Y-101949873D02*
X165555549Y-101949873D01*
X168055676Y-118450000D02*
X168055676Y-120450000D01*
X161555549Y-131950127D02*
X161555549Y-121949873D01*
X169355651Y-101949873D02*
X169355651Y-106949873D01*
X165555549Y-101949873D02*
X169355651Y-101949873D01*
X161555549Y-111949873D02*
X161555549Y-106949873D01*
X168055676Y-103450000D02*
X169355651Y-103450000D01*
X168055676Y-110450000D02*
X169355651Y-110450000D01*
X169355651Y-120450000D02*
X168055676Y-120450000D01*
X168055676Y-113450000D02*
X169355651Y-113450000D01*
X169355651Y-111949873D02*
X169355651Y-116949873D01*
X168055676Y-108450000D02*
X168055676Y-110450000D01*
X168055676Y-115450000D02*
X168055676Y-113450000D01*
X168055676Y-120450000D02*
X169355651Y-120450000D01*
X168055676Y-108450000D02*
X169355651Y-108450000D01*
X165555549Y-131950127D02*
X161555549Y-131950127D01*
X168055676Y-105450000D02*
X168055676Y-103450000D01*
X169355651Y-131950127D02*
X165555549Y-131950127D01*
X168055676Y-118450000D02*
X169355651Y-118450000D01*
X169355651Y-115450000D02*
X168055676Y-115450000D01*
X169355651Y-123450000D02*
X168055676Y-123450000D01*
D15*
X169512623Y-132077127D02*
G75*
G03*
X169512623Y-132077127I-29972J0D01*
G01*
D14*
%TO.C,SW4*%
X130336602Y-135035294D02*
X128558598Y-135035294D01*
%TD*%
%LPC*%
D21*
%TO.C,R12*%
X155422600Y-121537100D03*
X155422600Y-119712100D03*
%TD*%
D22*
%TO.C,H8*%
X135915400Y-133761200D03*
%TD*%
%TO.C,H7*%
X164947600Y-67900000D03*
%TD*%
%TO.C,H6*%
X124231400Y-67900000D03*
%TD*%
%TO.C,H5*%
X153466800Y-133761200D03*
%TD*%
D23*
%TO.C,SW2*%
X160895286Y-136409868D03*
X159195260Y-136409868D03*
D24*
X162345375Y-136409868D03*
X157745425Y-136409868D03*
D25*
X161720279Y-134859957D03*
X158370267Y-134859957D03*
%TD*%
D26*
%TO.C,P2*%
X123750451Y-104450000D03*
X123750451Y-109451270D03*
X123750451Y-114450000D03*
X123750451Y-119451270D03*
X123750451Y-124450000D03*
X123750451Y-129451270D03*
%TD*%
D27*
%TO.C,C4*%
X136728200Y-95479400D03*
X136728200Y-92354400D03*
%TD*%
D28*
%TO.C,U7*%
X135357600Y-72666700D03*
X135357600Y-73936700D03*
X135357600Y-75206700D03*
X135357600Y-76476700D03*
X135357600Y-77746700D03*
X135357600Y-79016700D03*
X135357600Y-80286700D03*
X135357600Y-81556700D03*
X135357600Y-82826700D03*
X135357600Y-84096700D03*
X135357600Y-85366700D03*
X135357600Y-86636700D03*
X135357600Y-87906700D03*
X135357600Y-89176700D03*
D29*
X138142600Y-90176700D03*
X139412600Y-90176700D03*
X140682600Y-90176700D03*
X141952600Y-90176700D03*
X143222600Y-90176700D03*
X144492600Y-90176700D03*
X145762600Y-90176700D03*
X147032600Y-90176700D03*
X148302600Y-90176700D03*
X149572600Y-90176700D03*
D28*
X152357600Y-89176700D03*
X152357600Y-87906700D03*
X152357600Y-86636700D03*
X152357600Y-85366700D03*
X152357600Y-84096700D03*
X152357600Y-82826700D03*
X152357600Y-81556700D03*
X152357600Y-80286700D03*
X152357600Y-79016700D03*
X152357600Y-77746700D03*
X152357600Y-76476700D03*
X152357600Y-75206700D03*
X152357600Y-73936700D03*
X152357600Y-72666700D03*
D30*
X141022600Y-80166700D03*
X141022600Y-82001700D03*
X142857600Y-80166700D03*
X144692600Y-78331700D03*
X142857600Y-78331700D03*
X144692600Y-82001700D03*
X144692600Y-80166700D03*
X141022600Y-78331700D03*
X142857600Y-82001700D03*
%TD*%
D21*
%TO.C,R1*%
X155346400Y-83843500D03*
X155346400Y-82018500D03*
%TD*%
D31*
%TO.C,U13*%
X144955333Y-118527149D03*
X145455714Y-118527149D03*
X145956095Y-118527149D03*
X146456476Y-118527149D03*
X146956857Y-118527149D03*
X147457238Y-118527149D03*
X147957619Y-118527149D03*
D32*
X148956603Y-117528419D03*
X148956603Y-117028038D03*
X148956603Y-116527657D03*
X148956603Y-116027276D03*
X148956603Y-115526895D03*
X148956603Y-115026514D03*
X148956603Y-114526133D03*
D31*
X147957619Y-113527149D03*
X147457238Y-113527149D03*
X146956857Y-113527149D03*
X146456476Y-113527149D03*
X145956095Y-113527149D03*
X145455714Y-113527149D03*
X144955333Y-113527149D03*
D32*
X143956603Y-114526133D03*
X143956603Y-115026514D03*
X143956603Y-115526895D03*
X143956603Y-116027276D03*
X143956603Y-116527657D03*
X143956603Y-117028038D03*
X143956603Y-117528419D03*
D33*
X146456476Y-116027276D03*
%TD*%
D34*
%TO.C,C3*%
X132790000Y-72472500D03*
X132790000Y-74197500D03*
%TD*%
D35*
%TO.C,C11*%
X145939600Y-100355400D03*
X147664600Y-100355400D03*
%TD*%
D22*
%TO.C,H4*%
X116300000Y-133761200D03*
%TD*%
D35*
%TO.C,C7*%
X149730403Y-121340270D03*
X148005403Y-121340270D03*
%TD*%
D36*
%TO.C,R13*%
X139266300Y-100304600D03*
X137441300Y-100304600D03*
%TD*%
D26*
%TO.C,P1*%
X123750451Y-73900000D03*
X123750451Y-78901270D03*
X123750451Y-83900000D03*
X123750451Y-88901270D03*
X123750451Y-93900000D03*
X123750451Y-98901270D03*
%TD*%
D36*
%TO.C,R7*%
X151638000Y-93802200D03*
X153463000Y-93802200D03*
%TD*%
D27*
%TO.C,C9*%
X133426200Y-95504800D03*
X133426200Y-92379800D03*
%TD*%
D22*
%TO.C,H2*%
X172987800Y-67900000D03*
%TD*%
D37*
%TO.C,U8*%
X157578711Y-86720961D03*
X157578711Y-86220834D03*
X157578711Y-85720961D03*
X157578711Y-85220834D03*
X154478889Y-85220834D03*
X154478889Y-85720961D03*
X154478889Y-86220834D03*
X154478889Y-86720961D03*
%TD*%
D38*
%TO.C,C6*%
X144372500Y-100355400D03*
X142647500Y-100355400D03*
%TD*%
D39*
%TO.C,U14*%
X142114704Y-118074187D03*
X142114704Y-117424200D03*
X142114704Y-116774213D03*
X140214780Y-116774213D03*
X140214780Y-117424200D03*
X140214780Y-118074187D03*
%TD*%
D40*
%TO.C,U3*%
X135077200Y-96244300D03*
X136027162Y-98244300D03*
X134127238Y-98244300D03*
%TD*%
D41*
%TO.C,U6*%
X135510900Y-101901223D03*
X136460862Y-104371377D03*
X134560938Y-104371377D03*
%TD*%
D36*
%TO.C,R9*%
X135966200Y-100304600D03*
X134141200Y-100304600D03*
%TD*%
D34*
%TO.C,C2*%
X155266800Y-88723300D03*
X155266800Y-90448300D03*
%TD*%
D36*
%TO.C,R10*%
X150623900Y-98145600D03*
X152448900Y-98145600D03*
%TD*%
D35*
%TO.C,C12*%
X132739300Y-87757000D03*
X131014300Y-87757000D03*
%TD*%
D42*
%TO.C,R15*%
X143916400Y-123444000D03*
X145741400Y-123444000D03*
%TD*%
D43*
%TO.C,F1*%
X148681400Y-126136400D03*
X144231400Y-126136400D03*
%TD*%
D35*
%TO.C,C8*%
X131039700Y-75793600D03*
X132764700Y-75793600D03*
%TD*%
D22*
%TO.C,H1*%
X116300000Y-67947460D03*
%TD*%
D35*
%TO.C,C15*%
X132739300Y-86283800D03*
X131014300Y-86283800D03*
%TD*%
D21*
%TO.C,R8*%
X156816200Y-83843500D03*
X156816200Y-82018500D03*
%TD*%
D42*
%TO.C,R6*%
X132812500Y-79400400D03*
X130987500Y-79400400D03*
%TD*%
D36*
%TO.C,R11*%
X132664200Y-100304600D03*
X130839200Y-100304600D03*
%TD*%
D23*
%TO.C,USB1*%
X147560018Y-132332535D03*
X141779982Y-132332535D03*
D44*
X141470102Y-131089964D03*
X142269949Y-131089964D03*
D45*
X143420064Y-131089964D03*
X144420064Y-131089964D03*
X144919936Y-131089964D03*
X145919936Y-131089964D03*
D44*
X147869898Y-131089964D03*
X147070051Y-131089964D03*
D45*
X146420064Y-131089964D03*
X145420064Y-131089964D03*
X143919936Y-131089964D03*
X142919936Y-131089964D03*
D46*
X140349959Y-131832408D03*
X148990041Y-131832408D03*
D47*
X148990041Y-136012494D03*
X140349959Y-136012494D03*
%TD*%
D26*
%TO.C,P4*%
X165555549Y-98900000D03*
X165555549Y-93898730D03*
X165555549Y-88900000D03*
X165555549Y-83898730D03*
X165555549Y-78900000D03*
X165555549Y-73898730D03*
%TD*%
D36*
%TO.C,R4*%
X130987500Y-77950000D03*
X132812500Y-77950000D03*
%TD*%
D38*
%TO.C,C5*%
X148006900Y-119888000D03*
X149731900Y-119888000D03*
%TD*%
D48*
%TO.C,R2*%
X150342600Y-124917200D03*
X150342600Y-126742200D03*
%TD*%
D49*
%TO.C,U16*%
X138480825Y-121589769D03*
X138480825Y-126720580D03*
%TD*%
D22*
%TO.C,H3*%
X172987800Y-133761200D03*
%TD*%
D40*
%TO.C,U9*%
X138342375Y-96244300D03*
X139292337Y-98244300D03*
X137392413Y-98244300D03*
%TD*%
D50*
%TO.C,U15*%
X131407914Y-82473800D03*
X131407914Y-83824067D03*
X132257800Y-83824067D03*
X132257800Y-82473800D03*
D51*
X131832857Y-81424016D03*
D52*
X130607812Y-83148934D03*
D51*
X131832857Y-84873851D03*
D52*
X133057901Y-83148934D03*
%TD*%
D35*
%TO.C,C14*%
X151689900Y-95304200D03*
X153414900Y-95304200D03*
%TD*%
D53*
%TO.C,U5*%
X150662740Y-99615749D03*
X151612702Y-99615749D03*
X152562664Y-99615749D03*
X152562664Y-102415851D03*
X151612702Y-102415851D03*
X150662740Y-102415851D03*
%TD*%
D34*
%TO.C,C1*%
X156740000Y-88723300D03*
X156740000Y-90448300D03*
%TD*%
D42*
%TO.C,R5*%
X153463000Y-92329000D03*
X151638000Y-92329000D03*
%TD*%
D54*
%TO.C,U12*%
X142351500Y-93813625D03*
X142351500Y-96113600D03*
X142351500Y-98413575D03*
D55*
X148021300Y-96113600D03*
%TD*%
D56*
%TO.C,U10*%
X151177749Y-121549060D03*
X151177749Y-120599098D03*
X151177749Y-119649136D03*
X153977851Y-119649136D03*
X153977851Y-120599098D03*
X153977851Y-121549060D03*
%TD*%
D25*
%TO.C,SW1*%
X164866467Y-134885357D03*
X168216479Y-134885357D03*
D24*
X164241625Y-136435268D03*
X168841575Y-136435268D03*
D23*
X165691460Y-136435268D03*
X167391486Y-136435268D03*
%TD*%
%TO.C,SW3*%
X123785886Y-136435268D03*
X122085860Y-136435268D03*
D24*
X125235975Y-136435268D03*
X120636025Y-136435268D03*
D25*
X124610879Y-134885357D03*
X121260867Y-134885357D03*
%TD*%
D49*
%TO.C,U34*%
X141638425Y-121589769D03*
X141638425Y-126720580D03*
%TD*%
D42*
%TO.C,R16*%
X147220300Y-123444000D03*
X149045300Y-123444000D03*
%TD*%
D40*
%TO.C,U4*%
X131775200Y-96244300D03*
X132725162Y-98244300D03*
X130825238Y-98244300D03*
%TD*%
D48*
%TO.C,R3*%
X151815800Y-124919100D03*
X151815800Y-126744100D03*
%TD*%
D26*
%TO.C,P3*%
X165555549Y-129450000D03*
X165555549Y-124448730D03*
X165555549Y-119450000D03*
X165555549Y-114448730D03*
X165555549Y-109450000D03*
X165555549Y-104448730D03*
%TD*%
D23*
%TO.C,SW4*%
X130297486Y-136435268D03*
X128597460Y-136435268D03*
D24*
X131747575Y-136435268D03*
X127147625Y-136435268D03*
D25*
X131122479Y-134885357D03*
X127772467Y-134885357D03*
%TD*%
M02*
