%TF.GenerationSoftware,KiCad,Pcbnew,(6.0.6-0)*%
%TF.CreationDate,2022-10-04T22:07:31+02:00*%
%TF.ProjectId,GlowCore,476c6f77-436f-4726-952e-6b696361645f,rev?*%
%TF.SameCoordinates,Original*%
%TF.FileFunction,Legend,Top*%
%TF.FilePolarity,Positive*%
%FSLAX46Y46*%
G04 Gerber Fmt 4.6, Leading zero omitted, Abs format (unit mm)*
G04 Created by KiCad (PCBNEW (6.0.6-0)) date 2022-10-04 22:07:31*
%MOMM*%
%LPD*%
G01*
G04 APERTURE LIST*
G04 Aperture macros list*
%AMRoundRect*
0 Rectangle with rounded corners*
0 $1 Rounding radius*
0 $2 $3 $4 $5 $6 $7 $8 $9 X,Y pos of 4 corners*
0 Add a 4 corners polygon primitive as box body*
4,1,4,$2,$3,$4,$5,$6,$7,$8,$9,$2,$3,0*
0 Add four circle primitives for the rounded corners*
1,1,$1+$1,$2,$3*
1,1,$1+$1,$4,$5*
1,1,$1+$1,$6,$7*
1,1,$1+$1,$8,$9*
0 Add four rect primitives between the rounded corners*
20,1,$1+$1,$2,$3,$4,$5,0*
20,1,$1+$1,$4,$5,$6,$7,0*
20,1,$1+$1,$6,$7,$8,$9,0*
20,1,$1+$1,$8,$9,$2,$3,0*%
%AMFreePoly0*
4,1,112,3.105582,3.191654,3.458980,3.129341,3.803230,3.028022,4.134041,2.888962,4.447289,2.713894,4.739071,2.504999,5.005748,2.264881,5.243998,1.996534,5.450851,1.703301,5.623729,1.388838,5.760476,1.057065,5.859388,0.712116,5.919233,0.358291,5.939265,0.000000,5.938012,-0.089748,5.907984,-0.447339,5.838283,-0.799355,5.729777,-1.141408,5.583820,-1.469234,5.402230,-1.778747,
5.187270,-2.066090,4.941620,-2.327680,4.668342,-2.560258,4.370841,-2.760925,4.052827,-2.927179,3.718263,-3.056948,3.371318,-3.148614,3.016317,-3.201036,2.657686,-3.213560,2.299893,-3.186029,1.947399,-3.118788,1.604597,-3.012673,1.275760,-2.869007,0.964987,-2.689582,0.676150,-2.476634,0.412851,-2.232816,0.178371,-1.961168,-0.024367,-1.665076,-0.192837,-1.348230,-0.324939,-1.014580,
-0.419026,-0.668283,-0.473925,-0.313657,-0.481420,-0.134825,-0.481581,-0.134460,-0.499164,0.000000,0.505984,0.000000,0.524968,-0.289640,0.581595,-0.574324,0.674897,-0.849181,0.803276,-1.109508,0.964536,-1.350851,1.155919,-1.569081,1.374149,-1.760464,1.615492,-1.921724,1.875819,-2.050103,2.150676,-2.143405,2.435360,-2.200032,2.725000,-2.219016,3.014640,-2.200032,3.299324,-2.143405,
3.574181,-2.050103,3.834508,-1.921724,4.075851,-1.760464,4.294081,-1.569081,4.485464,-1.350851,4.646724,-1.109508,4.775103,-0.849181,4.868405,-0.574324,4.925032,-0.289640,4.944016,0.000000,4.925032,0.289640,4.868405,0.574324,4.775103,0.849181,4.646724,1.109508,4.485464,1.350851,4.294081,1.569081,4.075851,1.760464,3.834508,1.921724,3.574181,2.050103,3.299324,2.143405,
3.014640,2.200032,2.725000,2.219016,2.435360,2.200032,2.150676,2.143405,1.875819,2.050103,1.615492,1.921724,1.374149,1.760464,1.155919,1.569081,0.964536,1.350851,0.803276,1.109508,0.674897,0.849181,0.581595,0.574324,0.524968,0.289640,0.505984,0.000000,-0.499164,0.000000,-0.499963,0.006109,-0.484897,0.102868,-0.463920,0.402854,-0.399140,0.755809,-0.295421,1.099343,
-0.154055,1.429175,0.023196,1.741194,0.234123,2.031510,0.476097,2.296505,0.746101,2.532875,1.040770,2.737676,1.356433,2.908354,1.689153,3.042782,2.034784,3.139284,2.389018,3.196657,2.747440,3.214187,3.105582,3.191654,3.105582,3.191654,$1*%
G04 Aperture macros list end*
%ADD10C,1.000000*%
%ADD11C,0.200000*%
%ADD12C,0.254001*%
%ADD13C,0.059995*%
%ADD14C,0.120000*%
%ADD15C,0.127000*%
%ADD16C,0.300000*%
%ADD17C,0.152400*%
%ADD18C,0.131597*%
%ADD19C,0.151994*%
%ADD20C,2.000000*%
%ADD21RoundRect,0.250000X-0.550000X1.500000X-0.550000X-1.500000X0.550000X-1.500000X0.550000X1.500000X0*%
%ADD22R,2.000000X0.900000*%
%ADD23R,0.900000X2.000000*%
%ADD24R,1.330000X1.330000*%
%ADD25RoundRect,0.237500X0.237500X-0.250000X0.237500X0.250000X-0.237500X0.250000X-0.237500X-0.250000X0*%
%ADD26R,0.280010X0.900000*%
%ADD27R,0.900000X0.280010*%
%ADD28R,3.300000X3.300000*%
%ADD29RoundRect,0.237500X-0.237500X0.300000X-0.237500X-0.300000X0.237500X-0.300000X0.237500X0.300000X0*%
%ADD30RoundRect,0.237500X-0.300000X-0.237500X0.300000X-0.237500X0.300000X0.237500X-0.300000X0.237500X0*%
%ADD31C,4.300000*%
%ADD32FreePoly0,0.000000*%
%ADD33R,1.500000X0.900000*%
%ADD34C,5.600000*%
%ADD35R,1.250013X0.700000*%
%ADD36RoundRect,0.237500X-0.237500X0.250000X-0.237500X-0.250000X0.237500X-0.250000X0.237500X0.250000X0*%
%ADD37RoundRect,0.237500X-0.250000X-0.237500X0.250000X-0.237500X0.250000X0.237500X-0.250000X0.237500X0*%
%ADD38O,0.750013X0.250013*%
%ADD39RoundRect,0.237500X0.300000X0.237500X-0.300000X0.237500X-0.300000X-0.237500X0.300000X-0.237500X0*%
%ADD40R,0.600000X0.419990*%
%ADD41R,0.700000X1.250013*%
%ADD42R,0.600000X1.070003*%
%ADD43RoundRect,0.250000X0.400000X1.450000X-0.400000X1.450000X-0.400000X-1.450000X0.400000X-1.450000X0*%
%ADD44RoundRect,0.237500X0.250000X0.237500X-0.250000X0.237500X-0.250000X-0.237500X0.250000X-0.237500X0*%
%ADD45C,0.700025*%
%ADD46R,0.600000X1.300000*%
%ADD47R,0.300000X1.300000*%
%ADD48O,1.200000X2.200000*%
%ADD49O,1.200000X1.800000*%
%ADD50R,1.620015X2.046380*%
%ADD51R,0.550013X1.050013*%
%ADD52R,1.400000X0.450013*%
%ADD53R,0.450013X2.400000*%
%ADD54R,2.470003X0.980010*%
%ADD55R,2.470003X3.600000*%
%ADD56R,1.070003X0.600000*%
%ADD57R,1.700000X1.700000*%
%ADD58O,1.700000X1.700000*%
G04 APERTURE END LIST*
D10*
X119350000Y-72407600D02*
X119350000Y-90322400D01*
X119350000Y-92000000D02*
X119350000Y-95600000D01*
X119350000Y-97250000D02*
X119350000Y-106100000D01*
X119350000Y-108051600D02*
X119350000Y-126500000D01*
D11*
X132489314Y-123967885D02*
X132660742Y-124025028D01*
X132717885Y-124082171D01*
X132775028Y-124196457D01*
X132775028Y-124367885D01*
X132717885Y-124482171D01*
X132660742Y-124539314D01*
X132546457Y-124596457D01*
X132089314Y-124596457D01*
X132089314Y-123396457D01*
X132489314Y-123396457D01*
X132603600Y-123453600D01*
X132660742Y-123510742D01*
X132717885Y-123625028D01*
X132717885Y-123739314D01*
X132660742Y-123853600D01*
X132603600Y-123910742D01*
X132489314Y-123967885D01*
X132089314Y-123967885D01*
X133517885Y-123396457D02*
X133746457Y-123396457D01*
X133860742Y-123453600D01*
X133975028Y-123567885D01*
X134032171Y-123796457D01*
X134032171Y-124196457D01*
X133975028Y-124425028D01*
X133860742Y-124539314D01*
X133746457Y-124596457D01*
X133517885Y-124596457D01*
X133403600Y-124539314D01*
X133289314Y-124425028D01*
X133232171Y-124196457D01*
X133232171Y-123796457D01*
X133289314Y-123567885D01*
X133403600Y-123453600D01*
X133517885Y-123396457D01*
X134775028Y-123396457D02*
X135003600Y-123396457D01*
X135117885Y-123453600D01*
X135232171Y-123567885D01*
X135289314Y-123796457D01*
X135289314Y-124196457D01*
X135232171Y-124425028D01*
X135117885Y-124539314D01*
X135003600Y-124596457D01*
X134775028Y-124596457D01*
X134660742Y-124539314D01*
X134546457Y-124425028D01*
X134489314Y-124196457D01*
X134489314Y-123796457D01*
X134546457Y-123567885D01*
X134660742Y-123453600D01*
X134775028Y-123396457D01*
X135632171Y-123396457D02*
X136317885Y-123396457D01*
X135975028Y-124596457D02*
X135975028Y-123396457D01*
X170189314Y-119109257D02*
X170189314Y-117909257D01*
X170989314Y-117909257D02*
X171217885Y-117909257D01*
X171332171Y-117966400D01*
X171446457Y-118080685D01*
X171503600Y-118309257D01*
X171503600Y-118709257D01*
X171446457Y-118937828D01*
X171332171Y-119052114D01*
X171217885Y-119109257D01*
X170989314Y-119109257D01*
X170875028Y-119052114D01*
X170760742Y-118937828D01*
X170703600Y-118709257D01*
X170703600Y-118309257D01*
X170760742Y-118080685D01*
X170875028Y-117966400D01*
X170989314Y-117909257D01*
X172646457Y-119109257D02*
X171960742Y-119109257D01*
X172303600Y-119109257D02*
X172303600Y-117909257D01*
X172189314Y-118080685D01*
X172075028Y-118194971D01*
X171960742Y-118252114D01*
X173675028Y-118309257D02*
X173675028Y-119109257D01*
X173389314Y-117852114D02*
X173103600Y-118709257D01*
X173846457Y-118709257D01*
X175160742Y-117852114D02*
X174132171Y-119394971D01*
X170132171Y-120984114D02*
X170303600Y-121041257D01*
X170589314Y-121041257D01*
X170703600Y-120984114D01*
X170760742Y-120926971D01*
X170817885Y-120812685D01*
X170817885Y-120698400D01*
X170760742Y-120584114D01*
X170703600Y-120526971D01*
X170589314Y-120469828D01*
X170360742Y-120412685D01*
X170246457Y-120355542D01*
X170189314Y-120298400D01*
X170132171Y-120184114D01*
X170132171Y-120069828D01*
X170189314Y-119955542D01*
X170246457Y-119898400D01*
X170360742Y-119841257D01*
X170646457Y-119841257D01*
X170817885Y-119898400D01*
X172017885Y-120926971D02*
X171960742Y-120984114D01*
X171789314Y-121041257D01*
X171675028Y-121041257D01*
X171503600Y-120984114D01*
X171389314Y-120869828D01*
X171332171Y-120755542D01*
X171275028Y-120526971D01*
X171275028Y-120355542D01*
X171332171Y-120126971D01*
X171389314Y-120012685D01*
X171503600Y-119898400D01*
X171675028Y-119841257D01*
X171789314Y-119841257D01*
X171960742Y-119898400D01*
X172017885Y-119955542D01*
X172532171Y-121041257D02*
X172532171Y-119841257D01*
X173217885Y-121041257D02*
X172703600Y-120355542D01*
X173217885Y-119841257D02*
X172532171Y-120526971D01*
X116360914Y-92204457D02*
X115789485Y-92204457D01*
X115732342Y-92775885D01*
X115789485Y-92718742D01*
X115903771Y-92661600D01*
X116189485Y-92661600D01*
X116303771Y-92718742D01*
X116360914Y-92775885D01*
X116418057Y-92890171D01*
X116418057Y-93175885D01*
X116360914Y-93290171D01*
X116303771Y-93347314D01*
X116189485Y-93404457D01*
X115903771Y-93404457D01*
X115789485Y-93347314D01*
X115732342Y-93290171D01*
X116760914Y-92204457D02*
X117160914Y-93404457D01*
X117560914Y-92204457D01*
X116132342Y-95336457D02*
X116132342Y-94136457D01*
X116703771Y-95336457D02*
X116703771Y-94136457D01*
X117389485Y-95336457D01*
X117389485Y-94136457D01*
X170189314Y-83498457D02*
X170189314Y-82298457D01*
X170989314Y-82298457D02*
X171217885Y-82298457D01*
X171332171Y-82355600D01*
X171446457Y-82469885D01*
X171503600Y-82698457D01*
X171503600Y-83098457D01*
X171446457Y-83327028D01*
X171332171Y-83441314D01*
X171217885Y-83498457D01*
X170989314Y-83498457D01*
X170875028Y-83441314D01*
X170760742Y-83327028D01*
X170703600Y-83098457D01*
X170703600Y-82698457D01*
X170760742Y-82469885D01*
X170875028Y-82355600D01*
X170989314Y-82298457D01*
X172646457Y-83498457D02*
X171960742Y-83498457D01*
X172303600Y-83498457D02*
X172303600Y-82298457D01*
X172189314Y-82469885D01*
X172075028Y-82584171D01*
X171960742Y-82641314D01*
X173332171Y-82812742D02*
X173217885Y-82755600D01*
X173160742Y-82698457D01*
X173103600Y-82584171D01*
X173103600Y-82527028D01*
X173160742Y-82412742D01*
X173217885Y-82355600D01*
X173332171Y-82298457D01*
X173560742Y-82298457D01*
X173675028Y-82355600D01*
X173732171Y-82412742D01*
X173789314Y-82527028D01*
X173789314Y-82584171D01*
X173732171Y-82698457D01*
X173675028Y-82755600D01*
X173560742Y-82812742D01*
X173332171Y-82812742D01*
X173217885Y-82869885D01*
X173160742Y-82927028D01*
X173103600Y-83041314D01*
X173103600Y-83269885D01*
X173160742Y-83384171D01*
X173217885Y-83441314D01*
X173332171Y-83498457D01*
X173560742Y-83498457D01*
X173675028Y-83441314D01*
X173732171Y-83384171D01*
X173789314Y-83269885D01*
X173789314Y-83041314D01*
X173732171Y-82927028D01*
X173675028Y-82869885D01*
X173560742Y-82812742D01*
X175160742Y-82241314D02*
X174132171Y-83784171D01*
X170589314Y-84801885D02*
X170760742Y-84859028D01*
X170817885Y-84916171D01*
X170875028Y-85030457D01*
X170875028Y-85201885D01*
X170817885Y-85316171D01*
X170760742Y-85373314D01*
X170646457Y-85430457D01*
X170189314Y-85430457D01*
X170189314Y-84230457D01*
X170589314Y-84230457D01*
X170703600Y-84287600D01*
X170760742Y-84344742D01*
X170817885Y-84459028D01*
X170817885Y-84573314D01*
X170760742Y-84687600D01*
X170703600Y-84744742D01*
X170589314Y-84801885D01*
X170189314Y-84801885D01*
X171275028Y-84230457D02*
X172017885Y-84230457D01*
X171617885Y-84687600D01*
X171789314Y-84687600D01*
X171903600Y-84744742D01*
X171960742Y-84801885D01*
X172017885Y-84916171D01*
X172017885Y-85201885D01*
X171960742Y-85316171D01*
X171903600Y-85373314D01*
X171789314Y-85430457D01*
X171446457Y-85430457D01*
X171332171Y-85373314D01*
X171275028Y-85316171D01*
X151842828Y-101062800D02*
X151766638Y-101024704D01*
X151652352Y-101024704D01*
X151538066Y-101062800D01*
X151461876Y-101138990D01*
X151423780Y-101215180D01*
X151385685Y-101367561D01*
X151385685Y-101481847D01*
X151423780Y-101634228D01*
X151461876Y-101710419D01*
X151538066Y-101786609D01*
X151652352Y-101824704D01*
X151728542Y-101824704D01*
X151842828Y-101786609D01*
X151880923Y-101748514D01*
X151880923Y-101481847D01*
X151728542Y-101481847D01*
X152223780Y-101824704D02*
X152223780Y-101024704D01*
X152680923Y-101824704D01*
X152680923Y-101024704D01*
X153061876Y-101824704D02*
X153061876Y-101024704D01*
X153252352Y-101024704D01*
X153366638Y-101062800D01*
X153442828Y-101138990D01*
X153480923Y-101215180D01*
X153519019Y-101367561D01*
X153519019Y-101481847D01*
X153480923Y-101634228D01*
X153442828Y-101710419D01*
X153366638Y-101786609D01*
X153252352Y-101824704D01*
X153061876Y-101824704D01*
X152795209Y-103600704D02*
X152414257Y-103600704D01*
X152376161Y-103981657D01*
X152414257Y-103943561D01*
X152490447Y-103905466D01*
X152680923Y-103905466D01*
X152757114Y-103943561D01*
X152795209Y-103981657D01*
X152833304Y-104057847D01*
X152833304Y-104248323D01*
X152795209Y-104324514D01*
X152757114Y-104362609D01*
X152680923Y-104400704D01*
X152490447Y-104400704D01*
X152414257Y-104362609D01*
X152376161Y-104324514D01*
X153061876Y-103600704D02*
X153328542Y-104400704D01*
X153595209Y-103600704D01*
X151195209Y-106176704D02*
X151690447Y-106176704D01*
X151423780Y-106481466D01*
X151538066Y-106481466D01*
X151614257Y-106519561D01*
X151652352Y-106557657D01*
X151690447Y-106633847D01*
X151690447Y-106824323D01*
X151652352Y-106900514D01*
X151614257Y-106938609D01*
X151538066Y-106976704D01*
X151309495Y-106976704D01*
X151233304Y-106938609D01*
X151195209Y-106900514D01*
X152033304Y-106900514D02*
X152071400Y-106938609D01*
X152033304Y-106976704D01*
X151995209Y-106938609D01*
X152033304Y-106900514D01*
X152033304Y-106976704D01*
X152338066Y-106176704D02*
X152833304Y-106176704D01*
X152566638Y-106481466D01*
X152680923Y-106481466D01*
X152757114Y-106519561D01*
X152795209Y-106557657D01*
X152833304Y-106633847D01*
X152833304Y-106824323D01*
X152795209Y-106900514D01*
X152757114Y-106938609D01*
X152680923Y-106976704D01*
X152452352Y-106976704D01*
X152376161Y-106938609D01*
X152338066Y-106900514D01*
X153061876Y-106176704D02*
X153328542Y-106976704D01*
X153595209Y-106176704D01*
X151119019Y-109552704D02*
X151119019Y-108752704D01*
X151652352Y-108752704D02*
X151804733Y-108752704D01*
X151880923Y-108790800D01*
X151957114Y-108866990D01*
X151995209Y-109019371D01*
X151995209Y-109286038D01*
X151957114Y-109438419D01*
X151880923Y-109514609D01*
X151804733Y-109552704D01*
X151652352Y-109552704D01*
X151576161Y-109514609D01*
X151499971Y-109438419D01*
X151461876Y-109286038D01*
X151461876Y-109019371D01*
X151499971Y-108866990D01*
X151576161Y-108790800D01*
X151652352Y-108752704D01*
X152299971Y-108828895D02*
X152338066Y-108790800D01*
X152414257Y-108752704D01*
X152604733Y-108752704D01*
X152680923Y-108790800D01*
X152719019Y-108828895D01*
X152757114Y-108905085D01*
X152757114Y-108981276D01*
X152719019Y-109095561D01*
X152261876Y-109552704D01*
X152757114Y-109552704D01*
X153442828Y-108752704D02*
X153290447Y-108752704D01*
X153214257Y-108790800D01*
X153176161Y-108828895D01*
X153099971Y-108943180D01*
X153061876Y-109095561D01*
X153061876Y-109400323D01*
X153099971Y-109476514D01*
X153138066Y-109514609D01*
X153214257Y-109552704D01*
X153366638Y-109552704D01*
X153442828Y-109514609D01*
X153480923Y-109476514D01*
X153519019Y-109400323D01*
X153519019Y-109209847D01*
X153480923Y-109133657D01*
X153442828Y-109095561D01*
X153366638Y-109057466D01*
X153214257Y-109057466D01*
X153138066Y-109095561D01*
X153099971Y-109133657D01*
X153061876Y-109209847D01*
X151119019Y-112128704D02*
X151119019Y-111328704D01*
X151652352Y-111328704D02*
X151804733Y-111328704D01*
X151880923Y-111366800D01*
X151957114Y-111442990D01*
X151995209Y-111595371D01*
X151995209Y-111862038D01*
X151957114Y-112014419D01*
X151880923Y-112090609D01*
X151804733Y-112128704D01*
X151652352Y-112128704D01*
X151576161Y-112090609D01*
X151499971Y-112014419D01*
X151461876Y-111862038D01*
X151461876Y-111595371D01*
X151499971Y-111442990D01*
X151576161Y-111366800D01*
X151652352Y-111328704D01*
X152299971Y-111404895D02*
X152338066Y-111366800D01*
X152414257Y-111328704D01*
X152604733Y-111328704D01*
X152680923Y-111366800D01*
X152719019Y-111404895D01*
X152757114Y-111481085D01*
X152757114Y-111557276D01*
X152719019Y-111671561D01*
X152261876Y-112128704D01*
X152757114Y-112128704D01*
X153480923Y-111328704D02*
X153099971Y-111328704D01*
X153061876Y-111709657D01*
X153099971Y-111671561D01*
X153176161Y-111633466D01*
X153366638Y-111633466D01*
X153442828Y-111671561D01*
X153480923Y-111709657D01*
X153519019Y-111785847D01*
X153519019Y-111976323D01*
X153480923Y-112052514D01*
X153442828Y-112090609D01*
X153366638Y-112128704D01*
X153176161Y-112128704D01*
X153099971Y-112090609D01*
X153061876Y-112052514D01*
X151119019Y-114704704D02*
X151119019Y-113904704D01*
X151652352Y-113904704D02*
X151804733Y-113904704D01*
X151880923Y-113942800D01*
X151957114Y-114018990D01*
X151995209Y-114171371D01*
X151995209Y-114438038D01*
X151957114Y-114590419D01*
X151880923Y-114666609D01*
X151804733Y-114704704D01*
X151652352Y-114704704D01*
X151576161Y-114666609D01*
X151499971Y-114590419D01*
X151461876Y-114438038D01*
X151461876Y-114171371D01*
X151499971Y-114018990D01*
X151576161Y-113942800D01*
X151652352Y-113904704D01*
X152757114Y-114704704D02*
X152299971Y-114704704D01*
X152528542Y-114704704D02*
X152528542Y-113904704D01*
X152452352Y-114018990D01*
X152376161Y-114095180D01*
X152299971Y-114133276D01*
X153023780Y-113904704D02*
X153519019Y-113904704D01*
X153252352Y-114209466D01*
X153366638Y-114209466D01*
X153442828Y-114247561D01*
X153480923Y-114285657D01*
X153519019Y-114361847D01*
X153519019Y-114552323D01*
X153480923Y-114628514D01*
X153442828Y-114666609D01*
X153366638Y-114704704D01*
X153138066Y-114704704D01*
X153061876Y-114666609D01*
X153023780Y-114628514D01*
X151119019Y-117280704D02*
X151119019Y-116480704D01*
X151652352Y-116480704D02*
X151804733Y-116480704D01*
X151880923Y-116518800D01*
X151957114Y-116594990D01*
X151995209Y-116747371D01*
X151995209Y-117014038D01*
X151957114Y-117166419D01*
X151880923Y-117242609D01*
X151804733Y-117280704D01*
X151652352Y-117280704D01*
X151576161Y-117242609D01*
X151499971Y-117166419D01*
X151461876Y-117014038D01*
X151461876Y-116747371D01*
X151499971Y-116594990D01*
X151576161Y-116518800D01*
X151652352Y-116480704D01*
X152757114Y-117280704D02*
X152299971Y-117280704D01*
X152528542Y-117280704D02*
X152528542Y-116480704D01*
X152452352Y-116594990D01*
X152376161Y-116671180D01*
X152299971Y-116709276D01*
X153061876Y-116556895D02*
X153099971Y-116518800D01*
X153176161Y-116480704D01*
X153366638Y-116480704D01*
X153442828Y-116518800D01*
X153480923Y-116556895D01*
X153519019Y-116633085D01*
X153519019Y-116709276D01*
X153480923Y-116823561D01*
X153023780Y-117280704D01*
X153519019Y-117280704D01*
X170189314Y-114080057D02*
X170189314Y-112880057D01*
X170989314Y-112880057D02*
X171217885Y-112880057D01*
X171332171Y-112937200D01*
X171446457Y-113051485D01*
X171503600Y-113280057D01*
X171503600Y-113680057D01*
X171446457Y-113908628D01*
X171332171Y-114022914D01*
X171217885Y-114080057D01*
X170989314Y-114080057D01*
X170875028Y-114022914D01*
X170760742Y-113908628D01*
X170703600Y-113680057D01*
X170703600Y-113280057D01*
X170760742Y-113051485D01*
X170875028Y-112937200D01*
X170989314Y-112880057D01*
X172646457Y-114080057D02*
X171960742Y-114080057D01*
X172303600Y-114080057D02*
X172303600Y-112880057D01*
X172189314Y-113051485D01*
X172075028Y-113165771D01*
X171960742Y-113222914D01*
X173732171Y-112880057D02*
X173160742Y-112880057D01*
X173103600Y-113451485D01*
X173160742Y-113394342D01*
X173275028Y-113337200D01*
X173560742Y-113337200D01*
X173675028Y-113394342D01*
X173732171Y-113451485D01*
X173789314Y-113565771D01*
X173789314Y-113851485D01*
X173732171Y-113965771D01*
X173675028Y-114022914D01*
X173560742Y-114080057D01*
X173275028Y-114080057D01*
X173160742Y-114022914D01*
X173103600Y-113965771D01*
X175160742Y-112822914D02*
X174132171Y-114365771D01*
X170075028Y-114812057D02*
X170360742Y-116012057D01*
X170589314Y-115154914D01*
X170817885Y-116012057D01*
X171103600Y-114812057D01*
X171503600Y-115954914D02*
X171675028Y-116012057D01*
X171960742Y-116012057D01*
X172075028Y-115954914D01*
X172132171Y-115897771D01*
X172189314Y-115783485D01*
X172189314Y-115669200D01*
X172132171Y-115554914D01*
X172075028Y-115497771D01*
X171960742Y-115440628D01*
X171732171Y-115383485D01*
X171617885Y-115326342D01*
X171560742Y-115269200D01*
X171503600Y-115154914D01*
X171503600Y-115040628D01*
X171560742Y-114926342D01*
X171617885Y-114869200D01*
X171732171Y-114812057D01*
X172017885Y-114812057D01*
X172189314Y-114869200D01*
X170760742Y-98484457D02*
X170189314Y-98484457D01*
X170189314Y-97284457D01*
X171160742Y-97855885D02*
X171560742Y-97855885D01*
X171732171Y-98484457D02*
X171160742Y-98484457D01*
X171160742Y-97284457D01*
X171732171Y-97284457D01*
X172246457Y-98484457D02*
X172246457Y-97284457D01*
X172532171Y-97284457D01*
X172703600Y-97341600D01*
X172817885Y-97455885D01*
X172875028Y-97570171D01*
X172932171Y-97798742D01*
X172932171Y-97970171D01*
X172875028Y-98198742D01*
X172817885Y-98313028D01*
X172703600Y-98427314D01*
X172532171Y-98484457D01*
X172246457Y-98484457D01*
X173389314Y-97398742D02*
X173446457Y-97341600D01*
X173560742Y-97284457D01*
X173846457Y-97284457D01*
X173960742Y-97341600D01*
X174017885Y-97398742D01*
X174075028Y-97513028D01*
X174075028Y-97627314D01*
X174017885Y-97798742D01*
X173332171Y-98484457D01*
X174075028Y-98484457D01*
X170417885Y-99216457D02*
X170646457Y-99216457D01*
X170760742Y-99273600D01*
X170875028Y-99387885D01*
X170932171Y-99616457D01*
X170932171Y-100016457D01*
X170875028Y-100245028D01*
X170760742Y-100359314D01*
X170646457Y-100416457D01*
X170417885Y-100416457D01*
X170303600Y-100359314D01*
X170189314Y-100245028D01*
X170132171Y-100016457D01*
X170132171Y-99616457D01*
X170189314Y-99387885D01*
X170303600Y-99273600D01*
X170417885Y-99216457D01*
X171446457Y-99216457D02*
X171446457Y-100187885D01*
X171503600Y-100302171D01*
X171560742Y-100359314D01*
X171675028Y-100416457D01*
X171903600Y-100416457D01*
X172017885Y-100359314D01*
X172075028Y-100302171D01*
X172132171Y-100187885D01*
X172132171Y-99216457D01*
X172532171Y-99216457D02*
X173217885Y-99216457D01*
X172875028Y-100416457D02*
X172875028Y-99216457D01*
X114932342Y-118526000D02*
X114818057Y-118468857D01*
X114646628Y-118468857D01*
X114475200Y-118526000D01*
X114360914Y-118640285D01*
X114303771Y-118754571D01*
X114246628Y-118983142D01*
X114246628Y-119154571D01*
X114303771Y-119383142D01*
X114360914Y-119497428D01*
X114475200Y-119611714D01*
X114646628Y-119668857D01*
X114760914Y-119668857D01*
X114932342Y-119611714D01*
X114989485Y-119554571D01*
X114989485Y-119154571D01*
X114760914Y-119154571D01*
X115503771Y-119668857D02*
X115503771Y-118468857D01*
X116189485Y-119668857D01*
X116189485Y-118468857D01*
X116760914Y-119668857D02*
X116760914Y-118468857D01*
X117046628Y-118468857D01*
X117218057Y-118526000D01*
X117332342Y-118640285D01*
X117389485Y-118754571D01*
X117446628Y-118983142D01*
X117446628Y-119154571D01*
X117389485Y-119383142D01*
X117332342Y-119497428D01*
X117218057Y-119611714D01*
X117046628Y-119668857D01*
X116760914Y-119668857D01*
X116360914Y-79250457D02*
X115789485Y-79250457D01*
X115732342Y-79821885D01*
X115789485Y-79764742D01*
X115903771Y-79707600D01*
X116189485Y-79707600D01*
X116303771Y-79764742D01*
X116360914Y-79821885D01*
X116418057Y-79936171D01*
X116418057Y-80221885D01*
X116360914Y-80336171D01*
X116303771Y-80393314D01*
X116189485Y-80450457D01*
X115903771Y-80450457D01*
X115789485Y-80393314D01*
X115732342Y-80336171D01*
X116760914Y-79250457D02*
X117160914Y-80450457D01*
X117560914Y-79250457D01*
X114760914Y-81182457D02*
X114989485Y-81182457D01*
X115103771Y-81239600D01*
X115218057Y-81353885D01*
X115275200Y-81582457D01*
X115275200Y-81982457D01*
X115218057Y-82211028D01*
X115103771Y-82325314D01*
X114989485Y-82382457D01*
X114760914Y-82382457D01*
X114646628Y-82325314D01*
X114532342Y-82211028D01*
X114475200Y-81982457D01*
X114475200Y-81582457D01*
X114532342Y-81353885D01*
X114646628Y-81239600D01*
X114760914Y-81182457D01*
X115789485Y-81182457D02*
X115789485Y-82153885D01*
X115846628Y-82268171D01*
X115903771Y-82325314D01*
X116018057Y-82382457D01*
X116246628Y-82382457D01*
X116360914Y-82325314D01*
X116418057Y-82268171D01*
X116475200Y-82153885D01*
X116475200Y-81182457D01*
X116875200Y-81182457D02*
X117560914Y-81182457D01*
X117218057Y-82382457D02*
X117218057Y-81182457D01*
X170189314Y-103920057D02*
X170189314Y-102720057D01*
X170989314Y-102720057D02*
X171217885Y-102720057D01*
X171332171Y-102777200D01*
X171446457Y-102891485D01*
X171503600Y-103120057D01*
X171503600Y-103520057D01*
X171446457Y-103748628D01*
X171332171Y-103862914D01*
X171217885Y-103920057D01*
X170989314Y-103920057D01*
X170875028Y-103862914D01*
X170760742Y-103748628D01*
X170703600Y-103520057D01*
X170703600Y-103120057D01*
X170760742Y-102891485D01*
X170875028Y-102777200D01*
X170989314Y-102720057D01*
X171960742Y-102834342D02*
X172017885Y-102777200D01*
X172132171Y-102720057D01*
X172417885Y-102720057D01*
X172532171Y-102777200D01*
X172589314Y-102834342D01*
X172646457Y-102948628D01*
X172646457Y-103062914D01*
X172589314Y-103234342D01*
X171903600Y-103920057D01*
X172646457Y-103920057D01*
X173046457Y-102720057D02*
X173846457Y-102720057D01*
X173332171Y-103920057D01*
X175160742Y-102662914D02*
X174132171Y-104205771D01*
X170875028Y-105852057D02*
X170475028Y-105280628D01*
X170189314Y-105852057D02*
X170189314Y-104652057D01*
X170646457Y-104652057D01*
X170760742Y-104709200D01*
X170817885Y-104766342D01*
X170875028Y-104880628D01*
X170875028Y-105052057D01*
X170817885Y-105166342D01*
X170760742Y-105223485D01*
X170646457Y-105280628D01*
X170189314Y-105280628D01*
X171389314Y-105223485D02*
X171789314Y-105223485D01*
X171960742Y-105852057D02*
X171389314Y-105852057D01*
X171389314Y-104652057D01*
X171960742Y-104652057D01*
X173046457Y-105852057D02*
X172475028Y-105852057D01*
X172475028Y-104652057D01*
X173389314Y-105509200D02*
X173960742Y-105509200D01*
X173275028Y-105852057D02*
X173675028Y-104652057D01*
X174075028Y-105852057D01*
X174703600Y-105280628D02*
X174703600Y-105852057D01*
X174303600Y-104652057D02*
X174703600Y-105280628D01*
X175103600Y-104652057D01*
X176075028Y-104652057D02*
X175503600Y-104652057D01*
X175446457Y-105223485D01*
X175503600Y-105166342D01*
X175617885Y-105109200D01*
X175903600Y-105109200D01*
X176017885Y-105166342D01*
X176075028Y-105223485D01*
X176132171Y-105337771D01*
X176132171Y-105623485D01*
X176075028Y-105737771D01*
X176017885Y-105794914D01*
X175903600Y-105852057D01*
X175617885Y-105852057D01*
X175503600Y-105794914D01*
X175446457Y-105737771D01*
X113960914Y-100027657D02*
X114703771Y-100027657D01*
X114303771Y-100484800D01*
X114475200Y-100484800D01*
X114589485Y-100541942D01*
X114646628Y-100599085D01*
X114703771Y-100713371D01*
X114703771Y-100999085D01*
X114646628Y-101113371D01*
X114589485Y-101170514D01*
X114475200Y-101227657D01*
X114132342Y-101227657D01*
X114018057Y-101170514D01*
X113960914Y-101113371D01*
X115218057Y-101113371D02*
X115275200Y-101170514D01*
X115218057Y-101227657D01*
X115160914Y-101170514D01*
X115218057Y-101113371D01*
X115218057Y-101227657D01*
X115675200Y-100027657D02*
X116418057Y-100027657D01*
X116018057Y-100484800D01*
X116189485Y-100484800D01*
X116303771Y-100541942D01*
X116360914Y-100599085D01*
X116418057Y-100713371D01*
X116418057Y-100999085D01*
X116360914Y-101113371D01*
X116303771Y-101170514D01*
X116189485Y-101227657D01*
X115846628Y-101227657D01*
X115732342Y-101170514D01*
X115675200Y-101113371D01*
X116760914Y-100027657D02*
X117160914Y-101227657D01*
X117560914Y-100027657D01*
X114760914Y-101959657D02*
X114989485Y-101959657D01*
X115103771Y-102016800D01*
X115218057Y-102131085D01*
X115275200Y-102359657D01*
X115275200Y-102759657D01*
X115218057Y-102988228D01*
X115103771Y-103102514D01*
X114989485Y-103159657D01*
X114760914Y-103159657D01*
X114646628Y-103102514D01*
X114532342Y-102988228D01*
X114475200Y-102759657D01*
X114475200Y-102359657D01*
X114532342Y-102131085D01*
X114646628Y-102016800D01*
X114760914Y-101959657D01*
X115789485Y-101959657D02*
X115789485Y-102931085D01*
X115846628Y-103045371D01*
X115903771Y-103102514D01*
X116018057Y-103159657D01*
X116246628Y-103159657D01*
X116360914Y-103102514D01*
X116418057Y-103045371D01*
X116475200Y-102931085D01*
X116475200Y-101959657D01*
X116875200Y-101959657D02*
X117560914Y-101959657D01*
X117218057Y-103159657D02*
X117218057Y-101959657D01*
X120100514Y-133588057D02*
X120100514Y-132388057D01*
X120900514Y-132388057D02*
X121129085Y-132388057D01*
X121243371Y-132445200D01*
X121357657Y-132559485D01*
X121414800Y-132788057D01*
X121414800Y-133188057D01*
X121357657Y-133416628D01*
X121243371Y-133530914D01*
X121129085Y-133588057D01*
X120900514Y-133588057D01*
X120786228Y-133530914D01*
X120671942Y-133416628D01*
X120614800Y-133188057D01*
X120614800Y-132788057D01*
X120671942Y-132559485D01*
X120786228Y-132445200D01*
X120900514Y-132388057D01*
X122443371Y-132788057D02*
X122443371Y-133588057D01*
X122157657Y-132330914D02*
X121871942Y-133188057D01*
X122614800Y-133188057D01*
X123929085Y-132330914D02*
X122900514Y-133873771D01*
X124729085Y-132959485D02*
X124900514Y-133016628D01*
X124957657Y-133073771D01*
X125014800Y-133188057D01*
X125014800Y-133359485D01*
X124957657Y-133473771D01*
X124900514Y-133530914D01*
X124786228Y-133588057D01*
X124329085Y-133588057D01*
X124329085Y-132388057D01*
X124729085Y-132388057D01*
X124843371Y-132445200D01*
X124900514Y-132502342D01*
X124957657Y-132616628D01*
X124957657Y-132730914D01*
X124900514Y-132845200D01*
X124843371Y-132902342D01*
X124729085Y-132959485D01*
X124329085Y-132959485D01*
X126157657Y-133588057D02*
X125471942Y-133588057D01*
X125814800Y-133588057D02*
X125814800Y-132388057D01*
X125700514Y-132559485D01*
X125586228Y-132673771D01*
X125471942Y-132730914D01*
X170189314Y-78672457D02*
X170189314Y-77472457D01*
X170989314Y-77472457D02*
X171217885Y-77472457D01*
X171332171Y-77529600D01*
X171446457Y-77643885D01*
X171503600Y-77872457D01*
X171503600Y-78272457D01*
X171446457Y-78501028D01*
X171332171Y-78615314D01*
X171217885Y-78672457D01*
X170989314Y-78672457D01*
X170875028Y-78615314D01*
X170760742Y-78501028D01*
X170703600Y-78272457D01*
X170703600Y-77872457D01*
X170760742Y-77643885D01*
X170875028Y-77529600D01*
X170989314Y-77472457D01*
X172646457Y-78672457D02*
X171960742Y-78672457D01*
X172303600Y-78672457D02*
X172303600Y-77472457D01*
X172189314Y-77643885D01*
X172075028Y-77758171D01*
X171960742Y-77815314D01*
X173217885Y-78672457D02*
X173446457Y-78672457D01*
X173560742Y-78615314D01*
X173617885Y-78558171D01*
X173732171Y-78386742D01*
X173789314Y-78158171D01*
X173789314Y-77701028D01*
X173732171Y-77586742D01*
X173675028Y-77529600D01*
X173560742Y-77472457D01*
X173332171Y-77472457D01*
X173217885Y-77529600D01*
X173160742Y-77586742D01*
X173103600Y-77701028D01*
X173103600Y-77986742D01*
X173160742Y-78101028D01*
X173217885Y-78158171D01*
X173332171Y-78215314D01*
X173560742Y-78215314D01*
X173675028Y-78158171D01*
X173732171Y-78101028D01*
X173789314Y-77986742D01*
X175160742Y-77415314D02*
X174132171Y-78958171D01*
X170589314Y-79975885D02*
X170760742Y-80033028D01*
X170817885Y-80090171D01*
X170875028Y-80204457D01*
X170875028Y-80375885D01*
X170817885Y-80490171D01*
X170760742Y-80547314D01*
X170646457Y-80604457D01*
X170189314Y-80604457D01*
X170189314Y-79404457D01*
X170589314Y-79404457D01*
X170703600Y-79461600D01*
X170760742Y-79518742D01*
X170817885Y-79633028D01*
X170817885Y-79747314D01*
X170760742Y-79861600D01*
X170703600Y-79918742D01*
X170589314Y-79975885D01*
X170189314Y-79975885D01*
X171332171Y-79518742D02*
X171389314Y-79461600D01*
X171503600Y-79404457D01*
X171789314Y-79404457D01*
X171903600Y-79461600D01*
X171960742Y-79518742D01*
X172017885Y-79633028D01*
X172017885Y-79747314D01*
X171960742Y-79918742D01*
X171275028Y-80604457D01*
X172017885Y-80604457D01*
X170189314Y-124036857D02*
X170189314Y-122836857D01*
X170989314Y-122836857D02*
X171217885Y-122836857D01*
X171332171Y-122894000D01*
X171446457Y-123008285D01*
X171503600Y-123236857D01*
X171503600Y-123636857D01*
X171446457Y-123865428D01*
X171332171Y-123979714D01*
X171217885Y-124036857D01*
X170989314Y-124036857D01*
X170875028Y-123979714D01*
X170760742Y-123865428D01*
X170703600Y-123636857D01*
X170703600Y-123236857D01*
X170760742Y-123008285D01*
X170875028Y-122894000D01*
X170989314Y-122836857D01*
X171903600Y-122836857D02*
X172646457Y-122836857D01*
X172246457Y-123294000D01*
X172417885Y-123294000D01*
X172532171Y-123351142D01*
X172589314Y-123408285D01*
X172646457Y-123522571D01*
X172646457Y-123808285D01*
X172589314Y-123922571D01*
X172532171Y-123979714D01*
X172417885Y-124036857D01*
X172075028Y-124036857D01*
X171960742Y-123979714D01*
X171903600Y-123922571D01*
X173103600Y-122951142D02*
X173160742Y-122894000D01*
X173275028Y-122836857D01*
X173560742Y-122836857D01*
X173675028Y-122894000D01*
X173732171Y-122951142D01*
X173789314Y-123065428D01*
X173789314Y-123179714D01*
X173732171Y-123351142D01*
X173046457Y-124036857D01*
X173789314Y-124036857D01*
X175160742Y-122779714D02*
X174132171Y-124322571D01*
X170132171Y-125911714D02*
X170303600Y-125968857D01*
X170589314Y-125968857D01*
X170703600Y-125911714D01*
X170760742Y-125854571D01*
X170817885Y-125740285D01*
X170817885Y-125626000D01*
X170760742Y-125511714D01*
X170703600Y-125454571D01*
X170589314Y-125397428D01*
X170360742Y-125340285D01*
X170246457Y-125283142D01*
X170189314Y-125226000D01*
X170132171Y-125111714D01*
X170132171Y-124997428D01*
X170189314Y-124883142D01*
X170246457Y-124826000D01*
X170360742Y-124768857D01*
X170646457Y-124768857D01*
X170817885Y-124826000D01*
X171332171Y-125968857D02*
X171332171Y-124768857D01*
X171617885Y-124768857D01*
X171789314Y-124826000D01*
X171903600Y-124940285D01*
X171960742Y-125054571D01*
X172017885Y-125283142D01*
X172017885Y-125454571D01*
X171960742Y-125683142D01*
X171903600Y-125797428D01*
X171789314Y-125911714D01*
X171617885Y-125968857D01*
X171332171Y-125968857D01*
X170189314Y-88426057D02*
X170189314Y-87226057D01*
X170989314Y-87226057D02*
X171217885Y-87226057D01*
X171332171Y-87283200D01*
X171446457Y-87397485D01*
X171503600Y-87626057D01*
X171503600Y-88026057D01*
X171446457Y-88254628D01*
X171332171Y-88368914D01*
X171217885Y-88426057D01*
X170989314Y-88426057D01*
X170875028Y-88368914D01*
X170760742Y-88254628D01*
X170703600Y-88026057D01*
X170703600Y-87626057D01*
X170760742Y-87397485D01*
X170875028Y-87283200D01*
X170989314Y-87226057D01*
X171960742Y-87340342D02*
X172017885Y-87283200D01*
X172132171Y-87226057D01*
X172417885Y-87226057D01*
X172532171Y-87283200D01*
X172589314Y-87340342D01*
X172646457Y-87454628D01*
X172646457Y-87568914D01*
X172589314Y-87740342D01*
X171903600Y-88426057D01*
X172646457Y-88426057D01*
X173046457Y-87226057D02*
X173789314Y-87226057D01*
X173389314Y-87683200D01*
X173560742Y-87683200D01*
X173675028Y-87740342D01*
X173732171Y-87797485D01*
X173789314Y-87911771D01*
X173789314Y-88197485D01*
X173732171Y-88311771D01*
X173675028Y-88368914D01*
X173560742Y-88426057D01*
X173217885Y-88426057D01*
X173103600Y-88368914D01*
X173046457Y-88311771D01*
X175160742Y-87168914D02*
X174132171Y-88711771D01*
X170589314Y-89729485D02*
X170760742Y-89786628D01*
X170817885Y-89843771D01*
X170875028Y-89958057D01*
X170875028Y-90129485D01*
X170817885Y-90243771D01*
X170760742Y-90300914D01*
X170646457Y-90358057D01*
X170189314Y-90358057D01*
X170189314Y-89158057D01*
X170589314Y-89158057D01*
X170703600Y-89215200D01*
X170760742Y-89272342D01*
X170817885Y-89386628D01*
X170817885Y-89500914D01*
X170760742Y-89615200D01*
X170703600Y-89672342D01*
X170589314Y-89729485D01*
X170189314Y-89729485D01*
X171903600Y-89558057D02*
X171903600Y-90358057D01*
X171617885Y-89100914D02*
X171332171Y-89958057D01*
X172075028Y-89958057D01*
X170760742Y-93506057D02*
X170189314Y-93506057D01*
X170189314Y-92306057D01*
X171160742Y-92877485D02*
X171560742Y-92877485D01*
X171732171Y-93506057D02*
X171160742Y-93506057D01*
X171160742Y-92306057D01*
X171732171Y-92306057D01*
X172246457Y-93506057D02*
X172246457Y-92306057D01*
X172532171Y-92306057D01*
X172703600Y-92363200D01*
X172817885Y-92477485D01*
X172875028Y-92591771D01*
X172932171Y-92820342D01*
X172932171Y-92991771D01*
X172875028Y-93220342D01*
X172817885Y-93334628D01*
X172703600Y-93448914D01*
X172532171Y-93506057D01*
X172246457Y-93506057D01*
X174075028Y-93506057D02*
X173389314Y-93506057D01*
X173732171Y-93506057D02*
X173732171Y-92306057D01*
X173617885Y-92477485D01*
X173503600Y-92591771D01*
X173389314Y-92648914D01*
X170417885Y-94238057D02*
X170646457Y-94238057D01*
X170760742Y-94295200D01*
X170875028Y-94409485D01*
X170932171Y-94638057D01*
X170932171Y-95038057D01*
X170875028Y-95266628D01*
X170760742Y-95380914D01*
X170646457Y-95438057D01*
X170417885Y-95438057D01*
X170303600Y-95380914D01*
X170189314Y-95266628D01*
X170132171Y-95038057D01*
X170132171Y-94638057D01*
X170189314Y-94409485D01*
X170303600Y-94295200D01*
X170417885Y-94238057D01*
X171446457Y-94238057D02*
X171446457Y-95209485D01*
X171503600Y-95323771D01*
X171560742Y-95380914D01*
X171675028Y-95438057D01*
X171903600Y-95438057D01*
X172017885Y-95380914D01*
X172075028Y-95323771D01*
X172132171Y-95209485D01*
X172132171Y-94238057D01*
X172532171Y-94238057D02*
X173217885Y-94238057D01*
X172875028Y-95438057D02*
X172875028Y-94238057D01*
X170189314Y-130032057D02*
X170189314Y-128832057D01*
X170989314Y-128832057D02*
X171217885Y-128832057D01*
X171332171Y-128889200D01*
X171446457Y-129003485D01*
X171503600Y-129232057D01*
X171503600Y-129632057D01*
X171446457Y-129860628D01*
X171332171Y-129974914D01*
X171217885Y-130032057D01*
X170989314Y-130032057D01*
X170875028Y-129974914D01*
X170760742Y-129860628D01*
X170703600Y-129632057D01*
X170703600Y-129232057D01*
X170760742Y-129003485D01*
X170875028Y-128889200D01*
X170989314Y-128832057D01*
X171960742Y-128946342D02*
X172017885Y-128889200D01*
X172132171Y-128832057D01*
X172417885Y-128832057D01*
X172532171Y-128889200D01*
X172589314Y-128946342D01*
X172646457Y-129060628D01*
X172646457Y-129174914D01*
X172589314Y-129346342D01*
X171903600Y-130032057D01*
X172646457Y-130032057D01*
X173103600Y-128946342D02*
X173160742Y-128889200D01*
X173275028Y-128832057D01*
X173560742Y-128832057D01*
X173675028Y-128889200D01*
X173732171Y-128946342D01*
X173789314Y-129060628D01*
X173789314Y-129174914D01*
X173732171Y-129346342D01*
X173046457Y-130032057D01*
X173789314Y-130032057D01*
X170189314Y-73541657D02*
X170189314Y-72341657D01*
X170989314Y-72341657D02*
X171217885Y-72341657D01*
X171332171Y-72398800D01*
X171446457Y-72513085D01*
X171503600Y-72741657D01*
X171503600Y-73141657D01*
X171446457Y-73370228D01*
X171332171Y-73484514D01*
X171217885Y-73541657D01*
X170989314Y-73541657D01*
X170875028Y-73484514D01*
X170760742Y-73370228D01*
X170703600Y-73141657D01*
X170703600Y-72741657D01*
X170760742Y-72513085D01*
X170875028Y-72398800D01*
X170989314Y-72341657D01*
X172532171Y-72741657D02*
X172532171Y-73541657D01*
X172246457Y-72284514D02*
X171960742Y-73141657D01*
X172703600Y-73141657D01*
X174017885Y-72284514D02*
X172989314Y-73827371D01*
X170589314Y-74845085D02*
X170760742Y-74902228D01*
X170817885Y-74959371D01*
X170875028Y-75073657D01*
X170875028Y-75245085D01*
X170817885Y-75359371D01*
X170760742Y-75416514D01*
X170646457Y-75473657D01*
X170189314Y-75473657D01*
X170189314Y-74273657D01*
X170589314Y-74273657D01*
X170703600Y-74330800D01*
X170760742Y-74387942D01*
X170817885Y-74502228D01*
X170817885Y-74616514D01*
X170760742Y-74730800D01*
X170703600Y-74787942D01*
X170589314Y-74845085D01*
X170189314Y-74845085D01*
X172017885Y-75473657D02*
X171332171Y-75473657D01*
X171675028Y-75473657D02*
X171675028Y-74273657D01*
X171560742Y-74445085D01*
X171446457Y-74559371D01*
X171332171Y-74616514D01*
X164931428Y-133588057D02*
X164531428Y-133016628D01*
X164245714Y-133588057D02*
X164245714Y-132388057D01*
X164702857Y-132388057D01*
X164817142Y-132445200D01*
X164874285Y-132502342D01*
X164931428Y-132616628D01*
X164931428Y-132788057D01*
X164874285Y-132902342D01*
X164817142Y-132959485D01*
X164702857Y-133016628D01*
X164245714Y-133016628D01*
X165445714Y-132959485D02*
X165845714Y-132959485D01*
X166017142Y-133588057D02*
X165445714Y-133588057D01*
X165445714Y-132388057D01*
X166017142Y-132388057D01*
X166474285Y-133530914D02*
X166645714Y-133588057D01*
X166931428Y-133588057D01*
X167045714Y-133530914D01*
X167102857Y-133473771D01*
X167160000Y-133359485D01*
X167160000Y-133245200D01*
X167102857Y-133130914D01*
X167045714Y-133073771D01*
X166931428Y-133016628D01*
X166702857Y-132959485D01*
X166588571Y-132902342D01*
X166531428Y-132845200D01*
X166474285Y-132730914D01*
X166474285Y-132616628D01*
X166531428Y-132502342D01*
X166588571Y-132445200D01*
X166702857Y-132388057D01*
X166988571Y-132388057D01*
X167160000Y-132445200D01*
X167674285Y-132959485D02*
X168074285Y-132959485D01*
X168245714Y-133588057D02*
X167674285Y-133588057D01*
X167674285Y-132388057D01*
X168245714Y-132388057D01*
X168588571Y-132388057D02*
X169274285Y-132388057D01*
X168931428Y-133588057D02*
X168931428Y-132388057D01*
X170189314Y-109000057D02*
X170189314Y-107800057D01*
X170989314Y-107800057D02*
X171217885Y-107800057D01*
X171332171Y-107857200D01*
X171446457Y-107971485D01*
X171503600Y-108200057D01*
X171503600Y-108600057D01*
X171446457Y-108828628D01*
X171332171Y-108942914D01*
X171217885Y-109000057D01*
X170989314Y-109000057D01*
X170875028Y-108942914D01*
X170760742Y-108828628D01*
X170703600Y-108600057D01*
X170703600Y-108200057D01*
X170760742Y-107971485D01*
X170875028Y-107857200D01*
X170989314Y-107800057D01*
X171903600Y-107800057D02*
X172646457Y-107800057D01*
X172246457Y-108257200D01*
X172417885Y-108257200D01*
X172532171Y-108314342D01*
X172589314Y-108371485D01*
X172646457Y-108485771D01*
X172646457Y-108771485D01*
X172589314Y-108885771D01*
X172532171Y-108942914D01*
X172417885Y-109000057D01*
X172075028Y-109000057D01*
X171960742Y-108942914D01*
X171903600Y-108885771D01*
X173046457Y-107800057D02*
X173789314Y-107800057D01*
X173389314Y-108257200D01*
X173560742Y-108257200D01*
X173675028Y-108314342D01*
X173732171Y-108371485D01*
X173789314Y-108485771D01*
X173789314Y-108771485D01*
X173732171Y-108885771D01*
X173675028Y-108942914D01*
X173560742Y-109000057D01*
X173217885Y-109000057D01*
X173103600Y-108942914D01*
X173046457Y-108885771D01*
X175160742Y-107742914D02*
X174132171Y-109285771D01*
X170875028Y-110932057D02*
X170475028Y-110360628D01*
X170189314Y-110932057D02*
X170189314Y-109732057D01*
X170646457Y-109732057D01*
X170760742Y-109789200D01*
X170817885Y-109846342D01*
X170875028Y-109960628D01*
X170875028Y-110132057D01*
X170817885Y-110246342D01*
X170760742Y-110303485D01*
X170646457Y-110360628D01*
X170189314Y-110360628D01*
X171389314Y-110303485D02*
X171789314Y-110303485D01*
X171960742Y-110932057D02*
X171389314Y-110932057D01*
X171389314Y-109732057D01*
X171960742Y-109732057D01*
X173046457Y-110932057D02*
X172475028Y-110932057D01*
X172475028Y-109732057D01*
X173389314Y-110589200D02*
X173960742Y-110589200D01*
X173275028Y-110932057D02*
X173675028Y-109732057D01*
X174075028Y-110932057D01*
X174703600Y-110360628D02*
X174703600Y-110932057D01*
X174303600Y-109732057D02*
X174703600Y-110360628D01*
X175103600Y-109732057D01*
X175389314Y-109732057D02*
X176132171Y-109732057D01*
X175732171Y-110189200D01*
X175903600Y-110189200D01*
X176017885Y-110246342D01*
X176075028Y-110303485D01*
X176132171Y-110417771D01*
X176132171Y-110703485D01*
X176075028Y-110817771D01*
X176017885Y-110874914D01*
X175903600Y-110932057D01*
X175560742Y-110932057D01*
X175446457Y-110874914D01*
X175389314Y-110817771D01*
X114989714Y-128882857D02*
X115389714Y-130082857D01*
X115789714Y-128882857D01*
X116589714Y-129454285D02*
X116761142Y-129511428D01*
X116818285Y-129568571D01*
X116875428Y-129682857D01*
X116875428Y-129854285D01*
X116818285Y-129968571D01*
X116761142Y-130025714D01*
X116646857Y-130082857D01*
X116189714Y-130082857D01*
X116189714Y-128882857D01*
X116589714Y-128882857D01*
X116704000Y-128940000D01*
X116761142Y-128997142D01*
X116818285Y-129111428D01*
X116818285Y-129225714D01*
X116761142Y-129340000D01*
X116704000Y-129397142D01*
X116589714Y-129454285D01*
X116189714Y-129454285D01*
X117389714Y-128882857D02*
X117389714Y-129854285D01*
X117446857Y-129968571D01*
X117504000Y-130025714D01*
X117618285Y-130082857D01*
X117846857Y-130082857D01*
X117961142Y-130025714D01*
X118018285Y-129968571D01*
X118075428Y-129854285D01*
X118075428Y-128882857D01*
X118589714Y-130025714D02*
X118761142Y-130082857D01*
X119046857Y-130082857D01*
X119161142Y-130025714D01*
X119218285Y-129968571D01*
X119275428Y-129854285D01*
X119275428Y-129740000D01*
X119218285Y-129625714D01*
X119161142Y-129568571D01*
X119046857Y-129511428D01*
X118818285Y-129454285D01*
X118704000Y-129397142D01*
X118646857Y-129340000D01*
X118589714Y-129225714D01*
X118589714Y-129111428D01*
X118646857Y-128997142D01*
X118704000Y-128940000D01*
X118818285Y-128882857D01*
X119104000Y-128882857D01*
X119275428Y-128940000D01*
D12*
%TO.C,P2*%
X127750451Y-101949873D02*
X127750451Y-111950127D01*
X121250324Y-108450000D02*
X119950349Y-108450000D01*
X121250324Y-128450000D02*
X121250324Y-130450000D01*
X119950349Y-128450000D02*
X121250324Y-128450000D01*
X121250324Y-115450000D02*
X121250324Y-113450000D01*
X119950349Y-126950127D02*
X119950349Y-121950127D01*
X121250324Y-118450000D02*
X121250324Y-120450000D01*
X121250324Y-113450000D02*
X121250324Y-115450000D01*
X119950349Y-110450000D02*
X121250324Y-110450000D01*
X119950349Y-125450000D02*
X121250324Y-125450000D01*
X121250324Y-123450000D02*
X119950349Y-123450000D01*
X119950349Y-131950127D02*
X119950349Y-126950127D01*
X119950349Y-121950127D02*
X119950349Y-116950127D01*
X127750451Y-126950127D02*
X127750451Y-131950127D01*
X119950349Y-123450000D02*
X121250324Y-123450000D01*
X121250324Y-110450000D02*
X121250324Y-108450000D01*
X123750451Y-101949873D02*
X127750451Y-101949873D01*
X121250324Y-125450000D02*
X119950349Y-125450000D01*
X121250324Y-120450000D02*
X119950349Y-120450000D01*
X119950349Y-118450000D02*
X121250324Y-118450000D01*
X121250324Y-103450000D02*
X119950349Y-103450000D01*
X119950349Y-115450000D02*
X121250324Y-115450000D01*
X127750451Y-116950127D02*
X127750451Y-121950127D01*
X119950349Y-101949873D02*
X123750451Y-101949873D01*
X127750451Y-111950127D02*
X127750451Y-116950127D01*
X121250324Y-115450000D02*
X119950349Y-115450000D01*
X121250324Y-105450000D02*
X121250324Y-103450000D01*
X121250324Y-113450000D02*
X119950349Y-113450000D01*
X121250324Y-130450000D02*
X119950349Y-130450000D01*
X123750451Y-131950127D02*
X119950349Y-131950127D01*
X127750451Y-121950127D02*
X127750451Y-126950127D01*
X119950349Y-113450000D02*
X121250324Y-113450000D01*
X119950349Y-116950127D02*
X119950349Y-111950127D01*
X121250324Y-125450000D02*
X121250324Y-123450000D01*
X127750451Y-131950127D02*
X123750451Y-131950127D01*
X121250324Y-123450000D02*
X121250324Y-125450000D01*
X119950349Y-105450000D02*
X121250324Y-105450000D01*
X119950349Y-111950127D02*
X119950349Y-101949873D01*
D13*
X119853321Y-101822873D02*
G75*
G03*
X119853321Y-101822873I-29972J0D01*
G01*
D14*
%TO.C,C4*%
X139300000Y-110801200D02*
X136950000Y-110801200D01*
X133544437Y-103981200D02*
X132480000Y-105045637D01*
X137737500Y-102953700D02*
X137737500Y-103741200D01*
X139300000Y-105045637D02*
X139300000Y-110801200D01*
X138235563Y-103981200D02*
X139300000Y-105045637D01*
X138235563Y-103981200D02*
X136950000Y-103981200D01*
X138131250Y-103347450D02*
X137343750Y-103347450D01*
X132480000Y-105045637D02*
X132480000Y-110801200D01*
X133544437Y-103981200D02*
X134830000Y-103981200D01*
X132480000Y-110801200D02*
X134830000Y-110801200D01*
D15*
%TO.C,U7*%
X134857600Y-90676700D02*
X137307600Y-90676700D01*
X150407600Y-90676700D02*
X152857600Y-90676700D01*
X134857600Y-90026700D02*
X134857600Y-90676700D01*
X152857600Y-90676700D02*
X152857600Y-90026700D01*
D11*
X133957600Y-72676700D02*
G75*
G03*
X133957600Y-72676700I-100000J0D01*
G01*
D14*
%TO.C,R1*%
X155462300Y-84582724D02*
X155462300Y-84073276D01*
X156507300Y-84582724D02*
X156507300Y-84073276D01*
D11*
%TO.C,U13*%
X149106387Y-118677187D02*
X149106387Y-118027200D01*
X143806413Y-118677187D02*
X143806413Y-118027200D01*
X144456400Y-118677187D02*
X143806413Y-118677187D01*
X149106387Y-114027200D02*
X149106387Y-113377213D01*
X149106387Y-113377213D02*
X148456400Y-113377213D01*
X144456400Y-113377213D02*
X143806413Y-113377213D01*
X148456400Y-118677187D02*
X149106387Y-118677187D01*
X143806413Y-113377213D02*
X143806413Y-114027200D01*
D16*
X144007835Y-119026946D02*
G75*
G03*
X144005295Y-119026946I-1270J-161288D01*
G01*
D14*
%TO.C,R14*%
X142112000Y-98871499D02*
X142112000Y-98362051D01*
X141067000Y-98871499D02*
X141067000Y-98362051D01*
%TO.C,C3*%
X133300000Y-73188733D02*
X133300000Y-73481267D01*
X132280000Y-73188733D02*
X132280000Y-73481267D01*
%TO.C,C11*%
X146726433Y-111013975D02*
X147018967Y-111013975D01*
X146726433Y-109993975D02*
X147018967Y-109993975D01*
D12*
%TO.C,SW2*%
X135809587Y-124941200D02*
X132109613Y-124941200D01*
X135809587Y-127941200D02*
X132109587Y-127941200D01*
X134848602Y-126441200D02*
G75*
G03*
X134848602Y-126441200I-889002J0D01*
G01*
D17*
%TO.C,U11*%
X132199393Y-119366026D02*
X132199393Y-118334403D01*
X132199393Y-116313600D02*
X132199393Y-117345223D01*
X133651819Y-116313600D02*
X132199393Y-116313600D01*
X133651819Y-117384415D02*
X133651819Y-118295211D01*
X133651819Y-119366026D02*
X132199393Y-119366026D01*
D13*
X134155603Y-119289826D02*
G75*
G03*
X134155603Y-119289826I-29997J0D01*
G01*
D14*
%TO.C,C7*%
X148242030Y-122654530D02*
X148534564Y-122654530D01*
X148242030Y-121634530D02*
X148534564Y-121634530D01*
%TO.C,R13*%
X146543500Y-98449676D02*
X146543500Y-98959124D01*
X147588500Y-98449676D02*
X147588500Y-98959124D01*
D12*
%TO.C,P1*%
X121250324Y-97900000D02*
X121250324Y-99900000D01*
X119950349Y-74900000D02*
X121250324Y-74900000D01*
X119950349Y-101400127D02*
X119950349Y-96400127D01*
X127750451Y-81400127D02*
X127750451Y-86400127D01*
X121250324Y-92900000D02*
X119950349Y-92900000D01*
X127750451Y-86400127D02*
X127750451Y-91400127D01*
X127750451Y-91400127D02*
X127750451Y-96400127D01*
X121250324Y-94900000D02*
X121250324Y-92900000D01*
X121250324Y-84900000D02*
X121250324Y-82900000D01*
X121250324Y-72900000D02*
X119950349Y-72900000D01*
X121250324Y-84900000D02*
X119950349Y-84900000D01*
X119950349Y-82900000D02*
X121250324Y-82900000D01*
X123750451Y-101400127D02*
X119950349Y-101400127D01*
X119950349Y-96400127D02*
X119950349Y-91400127D01*
X119950349Y-91400127D02*
X119950349Y-86400127D01*
X121250324Y-94900000D02*
X119950349Y-94900000D01*
X119950349Y-86400127D02*
X119950349Y-81400127D01*
X119950349Y-81400127D02*
X119950349Y-71399873D01*
X121250324Y-77900000D02*
X119950349Y-77900000D01*
X121250324Y-87900000D02*
X121250324Y-89900000D01*
X127750451Y-101400127D02*
X123750451Y-101400127D01*
X119950349Y-87900000D02*
X121250324Y-87900000D01*
X119950349Y-84900000D02*
X121250324Y-84900000D01*
X119950349Y-94900000D02*
X121250324Y-94900000D01*
X121250324Y-99900000D02*
X119950349Y-99900000D01*
X119950349Y-97900000D02*
X121250324Y-97900000D01*
X123750451Y-71399873D02*
X127750451Y-71399873D01*
X119950349Y-79900000D02*
X121250324Y-79900000D01*
X119950349Y-92900000D02*
X121250324Y-92900000D01*
X121250324Y-79900000D02*
X121250324Y-77900000D01*
X119950349Y-71399873D02*
X123750451Y-71399873D01*
X121250324Y-82900000D02*
X121250324Y-84900000D01*
X121250324Y-92900000D02*
X121250324Y-94900000D01*
X121250324Y-89900000D02*
X119950349Y-89900000D01*
X127750451Y-96400127D02*
X127750451Y-101400127D01*
X127750451Y-71399873D02*
X127750451Y-81400127D01*
X121250324Y-74900000D02*
X121250324Y-72900000D01*
X121250324Y-82900000D02*
X119950349Y-82900000D01*
D13*
X119853321Y-71272873D02*
G75*
G03*
X119853321Y-71272873I-29972J0D01*
G01*
D14*
%TO.C,R12*%
X131979576Y-101077500D02*
X132489024Y-101077500D01*
X131979576Y-102122500D02*
X132489024Y-102122500D01*
%TO.C,R7*%
X153057776Y-93631900D02*
X153567224Y-93631900D01*
X153057776Y-94676900D02*
X153567224Y-94676900D01*
D11*
%TO.C,U8*%
X157567073Y-86367999D02*
X155767048Y-86367999D01*
X155767048Y-86367999D02*
X155767048Y-88367948D01*
X156413098Y-88384001D02*
X155767048Y-88384001D01*
X157567073Y-88367948D02*
X157567073Y-86367999D01*
X156921099Y-88384001D02*
X157567073Y-88384001D01*
X156921074Y-88383976D02*
G75*
G03*
X156413072Y-88383976I-254001J0D01*
G01*
D18*
X158155398Y-88620600D02*
G75*
G03*
X158155398Y-88620600I-65798J0D01*
G01*
D14*
%TO.C,C6*%
X143513767Y-111013975D02*
X143221233Y-111013975D01*
X143513767Y-109993975D02*
X143221233Y-109993975D01*
%TO.C,C8*%
X132898933Y-119784400D02*
X133191467Y-119784400D01*
X132898933Y-120804400D02*
X133191467Y-120804400D01*
D11*
%TO.C,U14*%
X138586000Y-118599600D02*
X139986000Y-118599600D01*
X138586000Y-116399600D02*
X139986000Y-116399600D01*
X140379472Y-118593809D02*
G75*
G03*
X140376932Y-118593809I-1270J-134405D01*
G01*
D13*
X140369439Y-118599524D02*
G75*
G03*
X140369439Y-118599524I-29997J0D01*
G01*
D17*
%TO.C,U3*%
X139291798Y-99786213D02*
X138381002Y-99786213D01*
X140362613Y-99786213D02*
X140362613Y-98333787D01*
X140362613Y-98333787D02*
X139330990Y-98333787D01*
X137310187Y-99786213D02*
X137310187Y-98333787D01*
X137310187Y-98333787D02*
X138341810Y-98333787D01*
D13*
X137416384Y-100260000D02*
G75*
G03*
X137416384Y-100260000I-29997J0D01*
G01*
D17*
%TO.C,U6*%
X135546595Y-96227927D02*
X134504990Y-96227927D01*
X133555002Y-94475527D02*
X134465798Y-94475527D01*
X132474205Y-96227927D02*
X133515810Y-96227927D01*
X135546595Y-94475527D02*
X135546595Y-96227927D01*
X132474205Y-94475527D02*
X132474205Y-96227927D01*
D13*
X135500392Y-93951727D02*
G75*
G03*
X135500392Y-93951727I-29997J0D01*
G01*
D14*
%TO.C,R9*%
X138581676Y-101077500D02*
X139091124Y-101077500D01*
X138581676Y-102122500D02*
X139091124Y-102122500D01*
%TO.C,C2*%
X155395200Y-90836533D02*
X155395200Y-91129067D01*
X156415200Y-90836533D02*
X156415200Y-91129067D01*
%TO.C,R10*%
X133704876Y-93232500D02*
X134214324Y-93232500D01*
X133704876Y-92187500D02*
X134214324Y-92187500D01*
%TO.C,C12*%
X131976267Y-81340000D02*
X131683733Y-81340000D01*
X131976267Y-82360000D02*
X131683733Y-82360000D01*
%TO.C,R15*%
X156703500Y-123798876D02*
X156703500Y-124308324D01*
X157748500Y-123798876D02*
X157748500Y-124308324D01*
%TO.C,F1*%
X147842652Y-127846400D02*
X145070148Y-127846400D01*
X147842652Y-124426400D02*
X145070148Y-124426400D01*
%TO.C,C15*%
X131986267Y-84290000D02*
X131693733Y-84290000D01*
X131986267Y-83270000D02*
X131693733Y-83270000D01*
%TO.C,C13*%
X132046267Y-76665000D02*
X131753733Y-76665000D01*
X132046267Y-75645000D02*
X131753733Y-75645000D01*
%TO.C,R8*%
X157262300Y-84582724D02*
X157262300Y-84073276D01*
X158307300Y-84582724D02*
X158307300Y-84073276D01*
%TO.C,R6*%
X132154724Y-80267500D02*
X131645276Y-80267500D01*
X132154724Y-79222500D02*
X131645276Y-79222500D01*
%TO.C,R11*%
X135279676Y-101077500D02*
X135789124Y-101077500D01*
X135279676Y-102122500D02*
X135789124Y-102122500D01*
D12*
%TO.C,P4*%
X168055676Y-89900000D02*
X169355651Y-89900000D01*
X168055676Y-77900000D02*
X168055676Y-79900000D01*
X168055676Y-87900000D02*
X168055676Y-89900000D01*
X168055676Y-97900000D02*
X168055676Y-99900000D01*
X161555549Y-71399873D02*
X165555549Y-71399873D01*
X169355651Y-89900000D02*
X168055676Y-89900000D01*
X161555549Y-101400127D02*
X161555549Y-91399873D01*
X168055676Y-77900000D02*
X169355651Y-77900000D01*
X169355651Y-101400127D02*
X165555549Y-101400127D01*
X169355651Y-92900000D02*
X168055676Y-92900000D01*
X169355651Y-77900000D02*
X168055676Y-77900000D01*
X161555549Y-86399873D02*
X161555549Y-81399873D01*
X169355651Y-97900000D02*
X168055676Y-97900000D01*
X169355651Y-79900000D02*
X168055676Y-79900000D01*
X165555549Y-101400127D02*
X161555549Y-101400127D01*
X169355651Y-74900000D02*
X168055676Y-74900000D01*
X168055676Y-89900000D02*
X168055676Y-87900000D01*
X168055676Y-79900000D02*
X168055676Y-77900000D01*
X168055676Y-82900000D02*
X169355651Y-82900000D01*
X168055676Y-87900000D02*
X169355651Y-87900000D01*
X169355651Y-87900000D02*
X168055676Y-87900000D01*
X168055676Y-99900000D02*
X169355651Y-99900000D01*
X168055676Y-94900000D02*
X169355651Y-94900000D01*
X161555549Y-76399873D02*
X161555549Y-71399873D01*
X169355651Y-86399873D02*
X169355651Y-91399873D01*
X169355651Y-71399873D02*
X169355651Y-76399873D01*
X168055676Y-79900000D02*
X169355651Y-79900000D01*
X169355651Y-76399873D02*
X169355651Y-81399873D01*
X169355651Y-84900000D02*
X168055676Y-84900000D01*
X165555549Y-71399873D02*
X169355651Y-71399873D01*
X169355651Y-91399873D02*
X169355651Y-101400127D01*
X168055676Y-72900000D02*
X169355651Y-72900000D01*
X168055676Y-74900000D02*
X168055676Y-72900000D01*
X161555549Y-81399873D02*
X161555549Y-76399873D01*
X168055676Y-84900000D02*
X168055676Y-82900000D01*
X168055676Y-92900000D02*
X168055676Y-94900000D01*
X161555549Y-91399873D02*
X161555549Y-86399873D01*
X169355651Y-81399873D02*
X169355651Y-86399873D01*
D13*
X169512623Y-101527127D02*
G75*
G03*
X169512623Y-101527127I-29972J0D01*
G01*
D14*
%TO.C,R4*%
X131645276Y-77427500D02*
X132154724Y-77427500D01*
X131645276Y-78472500D02*
X132154724Y-78472500D01*
%TO.C,C5*%
X148534564Y-120774530D02*
X148242030Y-120774530D01*
X148534564Y-119754530D02*
X148242030Y-119754530D01*
%TO.C,R2*%
X153236900Y-125231276D02*
X153236900Y-125740724D01*
X152191900Y-125231276D02*
X152191900Y-125740724D01*
D17*
%TO.C,U16*%
X139844503Y-122816236D02*
X137117097Y-122816236D01*
X139844503Y-126856368D02*
X139494008Y-126856368D01*
X137117097Y-121454032D02*
X137117097Y-126856368D01*
X139844503Y-121454032D02*
X139844503Y-126856368D01*
X137117097Y-126856368D02*
X137467592Y-126856368D01*
D13*
X137135893Y-121355073D02*
G75*
G03*
X137135893Y-121355073I-29972J0D01*
G01*
D17*
%TO.C,U9*%
X148930587Y-97141362D02*
X150383013Y-97141362D01*
X150383013Y-97141362D02*
X150383013Y-98172985D01*
X150383013Y-100193788D02*
X150383013Y-99162165D01*
X148930587Y-99122973D02*
X148930587Y-98212177D01*
X148930587Y-100193788D02*
X150383013Y-100193788D01*
D13*
X148486797Y-97217562D02*
G75*
G03*
X148486797Y-97217562I-29997J0D01*
G01*
D19*
%TO.C,U15*%
X133350091Y-85134867D02*
X132688166Y-85134867D01*
X130330050Y-85497199D02*
X130330050Y-85776752D01*
X130971554Y-85135858D02*
X130328933Y-85135858D01*
X133350091Y-85134867D02*
X133350091Y-85787725D01*
X130328933Y-85135858D02*
X130328933Y-85496589D01*
X133350091Y-89114903D02*
X133330050Y-89134867D01*
X133330050Y-89134867D02*
X132688166Y-89134867D01*
X133350091Y-88482009D02*
X133350091Y-89114903D01*
X130971935Y-89134867D02*
X130330050Y-89134867D01*
X130530025Y-85734892D02*
X130530025Y-85334892D01*
X130330050Y-88492982D02*
X130330050Y-89134867D01*
X130530025Y-85334892D02*
X130930025Y-85334892D01*
D13*
X130360022Y-85134892D02*
G75*
G03*
X130360022Y-85134892I-29997J0D01*
G01*
D14*
%TO.C,C14*%
X154793733Y-95371600D02*
X155086267Y-95371600D01*
X154793733Y-96391600D02*
X155086267Y-96391600D01*
D17*
%TO.C,U5*%
X130743649Y-99786213D02*
X130743649Y-98333787D01*
X133796075Y-99786213D02*
X133796075Y-98333787D01*
X132725260Y-99786213D02*
X131814464Y-99786213D01*
X133796075Y-98333787D02*
X132764452Y-98333787D01*
X130743649Y-98333787D02*
X131775272Y-98333787D01*
D13*
X130849846Y-100260000D02*
G75*
G03*
X130849846Y-100260000I-29997J0D01*
G01*
D14*
%TO.C,C1*%
X158345200Y-90836533D02*
X158345200Y-91129067D01*
X157325200Y-90836533D02*
X157325200Y-91129067D01*
%TO.C,R5*%
X153567224Y-92876900D02*
X153057776Y-92876900D01*
X153567224Y-91831900D02*
X153057776Y-91831900D01*
D17*
%TO.C,U12*%
X146557800Y-109498213D02*
X143815000Y-109498213D01*
X146557800Y-102845787D02*
X146557800Y-109498213D01*
X143815000Y-102845787D02*
X146557800Y-102845787D01*
X143815000Y-109498213D02*
X143815000Y-102845787D01*
D12*
%TO.C,SW1*%
X168321587Y-133983600D02*
X164621613Y-133983600D01*
X168321587Y-136983600D02*
X164621587Y-136983600D01*
X167360602Y-135483600D02*
G75*
G03*
X167360602Y-135483600I-889002J0D01*
G01*
%TO.C,SW3*%
X124785987Y-136983600D02*
X121085987Y-136983600D01*
X124785987Y-133983600D02*
X121086013Y-133983600D01*
X123825002Y-135483600D02*
G75*
G03*
X123825002Y-135483600I-889002J0D01*
G01*
D17*
%TO.C,U10*%
X143370904Y-99107735D02*
X143370904Y-98196939D01*
X143370904Y-100188532D02*
X145123304Y-100188532D01*
X145123304Y-97116142D02*
X145123304Y-98157747D01*
X145123304Y-100188532D02*
X145123304Y-99146927D01*
X143370904Y-97116142D02*
X145123304Y-97116142D01*
D13*
X142877101Y-97192342D02*
G75*
G03*
X142877101Y-97192342I-29997J0D01*
G01*
D17*
%TO.C,U34*%
X140274697Y-121454032D02*
X140274697Y-126856368D01*
X140274697Y-126856368D02*
X140625192Y-126856368D01*
X143002103Y-122816236D02*
X140274697Y-122816236D01*
X143002103Y-121454032D02*
X143002103Y-126856368D01*
X143002103Y-126856368D02*
X142651608Y-126856368D01*
D13*
X140293493Y-121355073D02*
G75*
G03*
X140293493Y-121355073I-29972J0D01*
G01*
D14*
%TO.C,R16*%
X156703500Y-120395276D02*
X156703500Y-120904724D01*
X157748500Y-120395276D02*
X157748500Y-120904724D01*
%TO.C,J1*%
X156676400Y-115620800D02*
X154016400Y-115620800D01*
X156676400Y-115620800D02*
X156676400Y-100320800D01*
X155346400Y-118220800D02*
X154016400Y-118220800D01*
X156676400Y-100320800D02*
X154016400Y-100320800D01*
X154016400Y-115620800D02*
X154016400Y-100320800D01*
X154016400Y-118220800D02*
X154016400Y-116890800D01*
D17*
%TO.C,U4*%
X134008187Y-99786213D02*
X134008187Y-98333787D01*
X137060613Y-98333787D02*
X136028990Y-98333787D01*
X135989798Y-99786213D02*
X135079002Y-99786213D01*
X134008187Y-98333787D02*
X135039810Y-98333787D01*
X137060613Y-99786213D02*
X137060613Y-98333787D01*
D13*
X134114384Y-100260000D02*
G75*
G03*
X134114384Y-100260000I-29997J0D01*
G01*
D14*
%TO.C,R3*%
X151296900Y-125221276D02*
X151296900Y-125730724D01*
X150251900Y-125221276D02*
X150251900Y-125730724D01*
D12*
%TO.C,P3*%
X169355651Y-128450000D02*
X168055676Y-128450000D01*
X169355651Y-118450000D02*
X168055676Y-118450000D01*
X169355651Y-110450000D02*
X168055676Y-110450000D01*
X168055676Y-120450000D02*
X168055676Y-118450000D01*
X169355651Y-108450000D02*
X168055676Y-108450000D01*
X169355651Y-105450000D02*
X168055676Y-105450000D01*
X168055676Y-125450000D02*
X169355651Y-125450000D01*
X161555549Y-116949873D02*
X161555549Y-111949873D01*
X161555549Y-106949873D02*
X161555549Y-101949873D01*
X168055676Y-128450000D02*
X168055676Y-130450000D01*
X169355651Y-121949873D02*
X169355651Y-131950127D01*
X169355651Y-116949873D02*
X169355651Y-121949873D01*
X161555549Y-121949873D02*
X161555549Y-116949873D01*
X168055676Y-130450000D02*
X169355651Y-130450000D01*
X168055676Y-110450000D02*
X168055676Y-108450000D01*
X169355651Y-106949873D02*
X169355651Y-111949873D01*
X168055676Y-123450000D02*
X168055676Y-125450000D01*
X161555549Y-101949873D02*
X165555549Y-101949873D01*
X168055676Y-118450000D02*
X168055676Y-120450000D01*
X161555549Y-131950127D02*
X161555549Y-121949873D01*
X169355651Y-101949873D02*
X169355651Y-106949873D01*
X165555549Y-101949873D02*
X169355651Y-101949873D01*
X161555549Y-111949873D02*
X161555549Y-106949873D01*
X168055676Y-103450000D02*
X169355651Y-103450000D01*
X168055676Y-110450000D02*
X169355651Y-110450000D01*
X169355651Y-120450000D02*
X168055676Y-120450000D01*
X168055676Y-113450000D02*
X169355651Y-113450000D01*
X169355651Y-111949873D02*
X169355651Y-116949873D01*
X168055676Y-108450000D02*
X168055676Y-110450000D01*
X168055676Y-115450000D02*
X168055676Y-113450000D01*
X168055676Y-120450000D02*
X169355651Y-120450000D01*
X168055676Y-108450000D02*
X169355651Y-108450000D01*
X165555549Y-131950127D02*
X161555549Y-131950127D01*
X168055676Y-105450000D02*
X168055676Y-103450000D01*
X169355651Y-131950127D02*
X165555549Y-131950127D01*
X168055676Y-118450000D02*
X169355651Y-118450000D01*
X169355651Y-115450000D02*
X168055676Y-115450000D01*
X169355651Y-123450000D02*
X168055676Y-123450000D01*
D13*
X169512623Y-132077127D02*
G75*
G03*
X169512623Y-132077127I-29972J0D01*
G01*
%TD*%
%LPC*%
D20*
%TO.C,P2*%
X123750451Y-104450000D03*
X123750451Y-109451270D03*
X123750451Y-114450000D03*
X123750451Y-119451270D03*
X123750451Y-124450000D03*
X123750451Y-129451270D03*
%TD*%
D21*
%TO.C,C4*%
X135890000Y-104591200D03*
X135890000Y-110191200D03*
%TD*%
D22*
%TO.C,U7*%
X135357600Y-72666700D03*
X135357600Y-73936700D03*
X135357600Y-75206700D03*
X135357600Y-76476700D03*
X135357600Y-77746700D03*
X135357600Y-79016700D03*
X135357600Y-80286700D03*
X135357600Y-81556700D03*
X135357600Y-82826700D03*
X135357600Y-84096700D03*
X135357600Y-85366700D03*
X135357600Y-86636700D03*
X135357600Y-87906700D03*
X135357600Y-89176700D03*
D23*
X138142600Y-90176700D03*
X139412600Y-90176700D03*
X140682600Y-90176700D03*
X141952600Y-90176700D03*
X143222600Y-90176700D03*
X144492600Y-90176700D03*
X145762600Y-90176700D03*
X147032600Y-90176700D03*
X148302600Y-90176700D03*
X149572600Y-90176700D03*
D22*
X152357600Y-89176700D03*
X152357600Y-87906700D03*
X152357600Y-86636700D03*
X152357600Y-85366700D03*
X152357600Y-84096700D03*
X152357600Y-82826700D03*
X152357600Y-81556700D03*
X152357600Y-80286700D03*
X152357600Y-79016700D03*
X152357600Y-77746700D03*
X152357600Y-76476700D03*
X152357600Y-75206700D03*
X152357600Y-73936700D03*
X152357600Y-72666700D03*
D24*
X141022600Y-80166700D03*
X141022600Y-82001700D03*
X142857600Y-80166700D03*
X144692600Y-78331700D03*
X142857600Y-78331700D03*
X144692600Y-82001700D03*
X144692600Y-80166700D03*
X141022600Y-78331700D03*
X142857600Y-82001700D03*
%TD*%
D25*
%TO.C,R1*%
X155984800Y-85240500D03*
X155984800Y-83415500D03*
%TD*%
D26*
%TO.C,U13*%
X144955333Y-118527149D03*
X145455714Y-118527149D03*
X145956095Y-118527149D03*
X146456476Y-118527149D03*
X146956857Y-118527149D03*
X147457238Y-118527149D03*
X147957619Y-118527149D03*
D27*
X148956603Y-117528419D03*
X148956603Y-117028038D03*
X148956603Y-116527657D03*
X148956603Y-116027276D03*
X148956603Y-115526895D03*
X148956603Y-115026514D03*
X148956603Y-114526133D03*
D26*
X147957619Y-113527149D03*
X147457238Y-113527149D03*
X146956857Y-113527149D03*
X146456476Y-113527149D03*
X145956095Y-113527149D03*
X145455714Y-113527149D03*
X144955333Y-113527149D03*
D27*
X143956603Y-114526133D03*
X143956603Y-115026514D03*
X143956603Y-115526895D03*
X143956603Y-116027276D03*
X143956603Y-116527657D03*
X143956603Y-117028038D03*
X143956603Y-117528419D03*
D28*
X146456476Y-116027276D03*
%TD*%
D25*
%TO.C,R14*%
X141589500Y-99529275D03*
X141589500Y-97704275D03*
%TD*%
D29*
%TO.C,C3*%
X132790000Y-72472500D03*
X132790000Y-74197500D03*
%TD*%
D30*
%TO.C,C11*%
X146010200Y-110503975D03*
X147735200Y-110503975D03*
%TD*%
D31*
%TO.C,U30*%
X157460000Y-133640000D03*
D32*
X154732230Y-133637460D03*
%TD*%
D33*
%TO.C,SW2*%
X132059676Y-127191264D03*
X135859524Y-127191264D03*
X132059676Y-125691136D03*
X135859524Y-125691136D03*
%TD*%
D34*
%TO.C,H4*%
X116300000Y-133761200D03*
%TD*%
D35*
%TO.C,U11*%
X133925606Y-118789775D03*
X133925606Y-116889851D03*
X131925606Y-117839813D03*
%TD*%
D30*
%TO.C,C7*%
X147525797Y-122144530D03*
X149250797Y-122144530D03*
%TD*%
D31*
%TO.C,U33*%
X131969970Y-133640000D03*
D32*
X129242200Y-133637460D03*
%TD*%
D36*
%TO.C,R13*%
X147066000Y-97791900D03*
X147066000Y-99616900D03*
%TD*%
D20*
%TO.C,P1*%
X123750451Y-73900000D03*
X123750451Y-78901270D03*
X123750451Y-83900000D03*
X123750451Y-88901270D03*
X123750451Y-93900000D03*
X123750451Y-98901270D03*
%TD*%
D37*
%TO.C,R12*%
X131321800Y-101600000D03*
X133146800Y-101600000D03*
%TD*%
%TO.C,R7*%
X152400000Y-94154400D03*
X154225000Y-94154400D03*
%TD*%
D34*
%TO.C,H2*%
X172987800Y-67900000D03*
%TD*%
D38*
%TO.C,U8*%
X158217111Y-88117961D03*
X158217111Y-87617834D03*
X158217111Y-87117961D03*
X158217111Y-86617834D03*
X155117289Y-86617834D03*
X155117289Y-87117961D03*
X155117289Y-87617834D03*
X155117289Y-88117961D03*
%TD*%
D39*
%TO.C,C6*%
X144230000Y-110503975D03*
X142505000Y-110503975D03*
%TD*%
D30*
%TO.C,C8*%
X132182700Y-120294400D03*
X133907700Y-120294400D03*
%TD*%
D40*
%TO.C,U14*%
X140235962Y-118149587D03*
X140235962Y-117499600D03*
X140235962Y-116849613D03*
X138336038Y-116849613D03*
X138336038Y-117499600D03*
X138336038Y-118149587D03*
%TD*%
D41*
%TO.C,U3*%
X137886438Y-100060000D03*
X139786362Y-100060000D03*
X138836400Y-98060000D03*
%TD*%
D42*
%TO.C,U6*%
X134960362Y-94116523D03*
X133060438Y-94116523D03*
X134010400Y-96586677D03*
%TD*%
D37*
%TO.C,R9*%
X137923900Y-101600000D03*
X139748900Y-101600000D03*
%TD*%
D29*
%TO.C,C2*%
X155905200Y-90120300D03*
X155905200Y-91845300D03*
%TD*%
D37*
%TO.C,R10*%
X133047100Y-92710000D03*
X134872100Y-92710000D03*
%TD*%
D39*
%TO.C,C12*%
X132692500Y-81850000D03*
X130967500Y-81850000D03*
%TD*%
D36*
%TO.C,R15*%
X157226000Y-123141100D03*
X157226000Y-124966100D03*
%TD*%
D43*
%TO.C,F1*%
X148681400Y-126136400D03*
X144231400Y-126136400D03*
%TD*%
D34*
%TO.C,H1*%
X116300000Y-67947460D03*
%TD*%
D39*
%TO.C,C15*%
X132702500Y-83780000D03*
X130977500Y-83780000D03*
%TD*%
%TO.C,C13*%
X132762500Y-76155000D03*
X131037500Y-76155000D03*
%TD*%
D25*
%TO.C,R8*%
X157784800Y-85240500D03*
X157784800Y-83415500D03*
%TD*%
D44*
%TO.C,R6*%
X132812500Y-79745000D03*
X130987500Y-79745000D03*
%TD*%
D37*
%TO.C,R11*%
X134621900Y-101600000D03*
X136446900Y-101600000D03*
%TD*%
D31*
%TO.C,U1*%
X124279970Y-67950000D03*
D32*
X121552200Y-67947460D03*
%TD*%
D45*
%TO.C,USB1*%
X147160018Y-132332535D03*
X141379982Y-132332535D03*
D46*
X141070102Y-131089964D03*
X141869949Y-131089964D03*
D47*
X143020064Y-131089964D03*
X144020064Y-131089964D03*
X144519936Y-131089964D03*
X145519936Y-131089964D03*
D46*
X147469898Y-131089964D03*
X146670051Y-131089964D03*
D47*
X146020064Y-131089964D03*
X145020064Y-131089964D03*
X143519936Y-131089964D03*
X142519936Y-131089964D03*
D48*
X139949959Y-131832408D03*
X148590041Y-131832408D03*
D49*
X148590041Y-136012494D03*
X139949959Y-136012494D03*
%TD*%
D20*
%TO.C,P4*%
X165555549Y-98900000D03*
X165555549Y-93898730D03*
X165555549Y-88900000D03*
X165555549Y-83898730D03*
X165555549Y-78900000D03*
X165555549Y-73898730D03*
%TD*%
D37*
%TO.C,R4*%
X130987500Y-77950000D03*
X132812500Y-77950000D03*
%TD*%
D39*
%TO.C,C5*%
X149250797Y-120264530D03*
X147525797Y-120264530D03*
%TD*%
D36*
%TO.C,R2*%
X152714400Y-124573500D03*
X152714400Y-126398500D03*
%TD*%
D50*
%TO.C,U16*%
X138480825Y-121589769D03*
X138480825Y-126720580D03*
%TD*%
D34*
%TO.C,H3*%
X172987800Y-133761200D03*
%TD*%
D35*
%TO.C,U9*%
X148656800Y-97717613D03*
X148656800Y-99617537D03*
X150656800Y-98667575D03*
%TD*%
D51*
%TO.C,U15*%
X131405057Y-86459784D03*
X131405057Y-87810051D03*
X132254943Y-87810051D03*
X132254943Y-86459784D03*
D52*
X131830000Y-85410000D03*
D53*
X130604955Y-87134918D03*
D52*
X131830000Y-88859835D03*
D53*
X133055044Y-87134918D03*
%TD*%
D30*
%TO.C,C14*%
X154077500Y-95881600D03*
X155802500Y-95881600D03*
%TD*%
D41*
%TO.C,U5*%
X131319900Y-100060000D03*
X133219824Y-100060000D03*
X132269862Y-98060000D03*
%TD*%
D29*
%TO.C,C1*%
X157835200Y-90120300D03*
X157835200Y-91845300D03*
%TD*%
D44*
%TO.C,R5*%
X154225000Y-92354400D03*
X152400000Y-92354400D03*
%TD*%
D54*
%TO.C,U12*%
X142351500Y-103872025D03*
X142351500Y-106172000D03*
X142351500Y-108471975D03*
D55*
X148021300Y-106172000D03*
%TD*%
D33*
%TO.C,SW1*%
X164571676Y-136233664D03*
X168371524Y-136233664D03*
X164571676Y-134733536D03*
X168371524Y-134733536D03*
%TD*%
%TO.C,SW3*%
X121036076Y-136233664D03*
X124835924Y-136233664D03*
X121036076Y-134733536D03*
X124835924Y-134733536D03*
%TD*%
D56*
%TO.C,U10*%
X143011900Y-97702375D03*
X143011900Y-99602299D03*
X145482054Y-98652337D03*
%TD*%
D31*
%TO.C,U2*%
X164997770Y-67902540D03*
D32*
X162270000Y-67900000D03*
%TD*%
D50*
%TO.C,U34*%
X141638425Y-121589769D03*
X141638425Y-126720580D03*
%TD*%
D36*
%TO.C,R16*%
X157226000Y-119737500D03*
X157226000Y-121562500D03*
%TD*%
D57*
%TO.C,J1*%
X155346400Y-116890800D03*
D58*
X155346400Y-114350800D03*
X155346400Y-111810800D03*
X155346400Y-109270800D03*
X155346400Y-106730800D03*
X155346400Y-104190800D03*
X155346400Y-101650800D03*
%TD*%
D41*
%TO.C,U4*%
X134584438Y-100060000D03*
X136484362Y-100060000D03*
X135534400Y-98060000D03*
%TD*%
D36*
%TO.C,R3*%
X150774400Y-124563500D03*
X150774400Y-126388500D03*
%TD*%
D20*
%TO.C,P3*%
X165555549Y-129450000D03*
X165555549Y-124448730D03*
X165555549Y-119450000D03*
X165555549Y-114448730D03*
X165555549Y-109450000D03*
X165555549Y-104448730D03*
%TD*%
M02*
