%TF.GenerationSoftware,KiCad,Pcbnew,(6.0.4-0)*%
%TF.CreationDate,2022-07-05T15:22:10+02:00*%
%TF.ProjectId,GlowCore,476c6f77-436f-4726-952e-6b696361645f,rev?*%
%TF.SameCoordinates,Original*%
%TF.FileFunction,Legend,Top*%
%TF.FilePolarity,Positive*%
%FSLAX46Y46*%
G04 Gerber Fmt 4.6, Leading zero omitted, Abs format (unit mm)*
G04 Created by KiCad (PCBNEW (6.0.4-0)) date 2022-07-05 15:22:10*
%MOMM*%
%LPD*%
G01*
G04 APERTURE LIST*
%ADD10C,1.000000*%
%ADD11C,0.200000*%
%ADD12C,0.150000*%
%ADD13C,0.120000*%
%ADD14C,0.127000*%
%ADD15C,0.300000*%
%ADD16C,0.254001*%
%ADD17C,0.131597*%
%ADD18C,0.059995*%
%ADD19C,0.152400*%
%ADD20C,0.100000*%
%ADD21C,0.150013*%
%ADD22C,0.151994*%
G04 APERTURE END LIST*
D10*
X120650000Y-73420000D02*
X120650000Y-99550000D01*
X120650000Y-101440000D02*
X120650000Y-106880000D01*
X168300000Y-120920000D02*
X168300000Y-126360000D01*
X120650000Y-108810000D02*
X120650000Y-126840000D01*
D11*
X115055714Y-131644285D02*
X115227142Y-131701428D01*
X115284285Y-131758571D01*
X115341428Y-131872857D01*
X115341428Y-132044285D01*
X115284285Y-132158571D01*
X115227142Y-132215714D01*
X115112857Y-132272857D01*
X114655714Y-132272857D01*
X114655714Y-131072857D01*
X115055714Y-131072857D01*
X115170000Y-131130000D01*
X115227142Y-131187142D01*
X115284285Y-131301428D01*
X115284285Y-131415714D01*
X115227142Y-131530000D01*
X115170000Y-131587142D01*
X115055714Y-131644285D01*
X114655714Y-131644285D01*
X116084285Y-131072857D02*
X116312857Y-131072857D01*
X116427142Y-131130000D01*
X116541428Y-131244285D01*
X116598571Y-131472857D01*
X116598571Y-131872857D01*
X116541428Y-132101428D01*
X116427142Y-132215714D01*
X116312857Y-132272857D01*
X116084285Y-132272857D01*
X115970000Y-132215714D01*
X115855714Y-132101428D01*
X115798571Y-131872857D01*
X115798571Y-131472857D01*
X115855714Y-131244285D01*
X115970000Y-131130000D01*
X116084285Y-131072857D01*
X117341428Y-131072857D02*
X117570000Y-131072857D01*
X117684285Y-131130000D01*
X117798571Y-131244285D01*
X117855714Y-131472857D01*
X117855714Y-131872857D01*
X117798571Y-132101428D01*
X117684285Y-132215714D01*
X117570000Y-132272857D01*
X117341428Y-132272857D01*
X117227142Y-132215714D01*
X117112857Y-132101428D01*
X117055714Y-131872857D01*
X117055714Y-131472857D01*
X117112857Y-131244285D01*
X117227142Y-131130000D01*
X117341428Y-131072857D01*
X118198571Y-131072857D02*
X118884285Y-131072857D01*
X118541428Y-132272857D02*
X118541428Y-131072857D01*
X134032000Y-103948571D02*
X133993904Y-104024761D01*
X133993904Y-104139047D01*
X134032000Y-104253333D01*
X134108190Y-104329523D01*
X134184380Y-104367619D01*
X134336761Y-104405714D01*
X134451047Y-104405714D01*
X134603428Y-104367619D01*
X134679619Y-104329523D01*
X134755809Y-104253333D01*
X134793904Y-104139047D01*
X134793904Y-104062857D01*
X134755809Y-103948571D01*
X134717714Y-103910476D01*
X134451047Y-103910476D01*
X134451047Y-104062857D01*
X134793904Y-103567619D02*
X133993904Y-103567619D01*
X134793904Y-103110476D01*
X133993904Y-103110476D01*
X134793904Y-102729523D02*
X133993904Y-102729523D01*
X133993904Y-102539047D01*
X134032000Y-102424761D01*
X134108190Y-102348571D01*
X134184380Y-102310476D01*
X134336761Y-102272380D01*
X134451047Y-102272380D01*
X134603428Y-102310476D01*
X134679619Y-102348571D01*
X134755809Y-102424761D01*
X134793904Y-102539047D01*
X134793904Y-102729523D01*
X136569904Y-102996190D02*
X136569904Y-103377142D01*
X136950857Y-103415238D01*
X136912761Y-103377142D01*
X136874666Y-103300952D01*
X136874666Y-103110476D01*
X136912761Y-103034285D01*
X136950857Y-102996190D01*
X137027047Y-102958095D01*
X137217523Y-102958095D01*
X137293714Y-102996190D01*
X137331809Y-103034285D01*
X137369904Y-103110476D01*
X137369904Y-103300952D01*
X137331809Y-103377142D01*
X137293714Y-103415238D01*
X136569904Y-102729523D02*
X137369904Y-102462857D01*
X136569904Y-102196190D01*
X139145904Y-104596190D02*
X139145904Y-104100952D01*
X139450666Y-104367619D01*
X139450666Y-104253333D01*
X139488761Y-104177142D01*
X139526857Y-104139047D01*
X139603047Y-104100952D01*
X139793523Y-104100952D01*
X139869714Y-104139047D01*
X139907809Y-104177142D01*
X139945904Y-104253333D01*
X139945904Y-104481904D01*
X139907809Y-104558095D01*
X139869714Y-104596190D01*
X139869714Y-103758095D02*
X139907809Y-103720000D01*
X139945904Y-103758095D01*
X139907809Y-103796190D01*
X139869714Y-103758095D01*
X139945904Y-103758095D01*
X139145904Y-103453333D02*
X139145904Y-102958095D01*
X139450666Y-103224761D01*
X139450666Y-103110476D01*
X139488761Y-103034285D01*
X139526857Y-102996190D01*
X139603047Y-102958095D01*
X139793523Y-102958095D01*
X139869714Y-102996190D01*
X139907809Y-103034285D01*
X139945904Y-103110476D01*
X139945904Y-103339047D01*
X139907809Y-103415238D01*
X139869714Y-103453333D01*
X139145904Y-102729523D02*
X139945904Y-102462857D01*
X139145904Y-102196190D01*
X142521904Y-104672380D02*
X141721904Y-104672380D01*
X141721904Y-104139047D02*
X141721904Y-103986666D01*
X141760000Y-103910476D01*
X141836190Y-103834285D01*
X141988571Y-103796190D01*
X142255238Y-103796190D01*
X142407619Y-103834285D01*
X142483809Y-103910476D01*
X142521904Y-103986666D01*
X142521904Y-104139047D01*
X142483809Y-104215238D01*
X142407619Y-104291428D01*
X142255238Y-104329523D01*
X141988571Y-104329523D01*
X141836190Y-104291428D01*
X141760000Y-104215238D01*
X141721904Y-104139047D01*
X141798095Y-103491428D02*
X141760000Y-103453333D01*
X141721904Y-103377142D01*
X141721904Y-103186666D01*
X141760000Y-103110476D01*
X141798095Y-103072380D01*
X141874285Y-103034285D01*
X141950476Y-103034285D01*
X142064761Y-103072380D01*
X142521904Y-103529523D01*
X142521904Y-103034285D01*
X141721904Y-102348571D02*
X141721904Y-102500952D01*
X141760000Y-102577142D01*
X141798095Y-102615238D01*
X141912380Y-102691428D01*
X142064761Y-102729523D01*
X142369523Y-102729523D01*
X142445714Y-102691428D01*
X142483809Y-102653333D01*
X142521904Y-102577142D01*
X142521904Y-102424761D01*
X142483809Y-102348571D01*
X142445714Y-102310476D01*
X142369523Y-102272380D01*
X142179047Y-102272380D01*
X142102857Y-102310476D01*
X142064761Y-102348571D01*
X142026666Y-102424761D01*
X142026666Y-102577142D01*
X142064761Y-102653333D01*
X142102857Y-102691428D01*
X142179047Y-102729523D01*
X145097904Y-104672380D02*
X144297904Y-104672380D01*
X144297904Y-104139047D02*
X144297904Y-103986666D01*
X144336000Y-103910476D01*
X144412190Y-103834285D01*
X144564571Y-103796190D01*
X144831238Y-103796190D01*
X144983619Y-103834285D01*
X145059809Y-103910476D01*
X145097904Y-103986666D01*
X145097904Y-104139047D01*
X145059809Y-104215238D01*
X144983619Y-104291428D01*
X144831238Y-104329523D01*
X144564571Y-104329523D01*
X144412190Y-104291428D01*
X144336000Y-104215238D01*
X144297904Y-104139047D01*
X144374095Y-103491428D02*
X144336000Y-103453333D01*
X144297904Y-103377142D01*
X144297904Y-103186666D01*
X144336000Y-103110476D01*
X144374095Y-103072380D01*
X144450285Y-103034285D01*
X144526476Y-103034285D01*
X144640761Y-103072380D01*
X145097904Y-103529523D01*
X145097904Y-103034285D01*
X144297904Y-102310476D02*
X144297904Y-102691428D01*
X144678857Y-102729523D01*
X144640761Y-102691428D01*
X144602666Y-102615238D01*
X144602666Y-102424761D01*
X144640761Y-102348571D01*
X144678857Y-102310476D01*
X144755047Y-102272380D01*
X144945523Y-102272380D01*
X145021714Y-102310476D01*
X145059809Y-102348571D01*
X145097904Y-102424761D01*
X145097904Y-102615238D01*
X145059809Y-102691428D01*
X145021714Y-102729523D01*
X147673904Y-104672380D02*
X146873904Y-104672380D01*
X146873904Y-104139047D02*
X146873904Y-103986666D01*
X146912000Y-103910476D01*
X146988190Y-103834285D01*
X147140571Y-103796190D01*
X147407238Y-103796190D01*
X147559619Y-103834285D01*
X147635809Y-103910476D01*
X147673904Y-103986666D01*
X147673904Y-104139047D01*
X147635809Y-104215238D01*
X147559619Y-104291428D01*
X147407238Y-104329523D01*
X147140571Y-104329523D01*
X146988190Y-104291428D01*
X146912000Y-104215238D01*
X146873904Y-104139047D01*
X147673904Y-103034285D02*
X147673904Y-103491428D01*
X147673904Y-103262857D02*
X146873904Y-103262857D01*
X146988190Y-103339047D01*
X147064380Y-103415238D01*
X147102476Y-103491428D01*
X146873904Y-102767619D02*
X146873904Y-102272380D01*
X147178666Y-102539047D01*
X147178666Y-102424761D01*
X147216761Y-102348571D01*
X147254857Y-102310476D01*
X147331047Y-102272380D01*
X147521523Y-102272380D01*
X147597714Y-102310476D01*
X147635809Y-102348571D01*
X147673904Y-102424761D01*
X147673904Y-102653333D01*
X147635809Y-102729523D01*
X147597714Y-102767619D01*
X150249904Y-104672380D02*
X149449904Y-104672380D01*
X149449904Y-104139047D02*
X149449904Y-103986666D01*
X149488000Y-103910476D01*
X149564190Y-103834285D01*
X149716571Y-103796190D01*
X149983238Y-103796190D01*
X150135619Y-103834285D01*
X150211809Y-103910476D01*
X150249904Y-103986666D01*
X150249904Y-104139047D01*
X150211809Y-104215238D01*
X150135619Y-104291428D01*
X149983238Y-104329523D01*
X149716571Y-104329523D01*
X149564190Y-104291428D01*
X149488000Y-104215238D01*
X149449904Y-104139047D01*
X150249904Y-103034285D02*
X150249904Y-103491428D01*
X150249904Y-103262857D02*
X149449904Y-103262857D01*
X149564190Y-103339047D01*
X149640380Y-103415238D01*
X149678476Y-103491428D01*
X149526095Y-102729523D02*
X149488000Y-102691428D01*
X149449904Y-102615238D01*
X149449904Y-102424761D01*
X149488000Y-102348571D01*
X149526095Y-102310476D01*
X149602285Y-102272380D01*
X149678476Y-102272380D01*
X149792761Y-102310476D01*
X150249904Y-102767619D01*
X150249904Y-102272380D01*
X170394285Y-123040000D02*
X170280000Y-122982857D01*
X170108571Y-122982857D01*
X169937142Y-123040000D01*
X169822857Y-123154285D01*
X169765714Y-123268571D01*
X169708571Y-123497142D01*
X169708571Y-123668571D01*
X169765714Y-123897142D01*
X169822857Y-124011428D01*
X169937142Y-124125714D01*
X170108571Y-124182857D01*
X170222857Y-124182857D01*
X170394285Y-124125714D01*
X170451428Y-124068571D01*
X170451428Y-123668571D01*
X170222857Y-123668571D01*
X170965714Y-124182857D02*
X170965714Y-122982857D01*
X171651428Y-124182857D01*
X171651428Y-122982857D01*
X172222857Y-124182857D02*
X172222857Y-122982857D01*
X172508571Y-122982857D01*
X172680000Y-123040000D01*
X172794285Y-123154285D01*
X172851428Y-123268571D01*
X172908571Y-123497142D01*
X172908571Y-123668571D01*
X172851428Y-123897142D01*
X172794285Y-124011428D01*
X172680000Y-124125714D01*
X172508571Y-124182857D01*
X172222857Y-124182857D01*
X169295714Y-75092285D02*
X169467142Y-75149428D01*
X169524285Y-75206571D01*
X169581428Y-75320857D01*
X169581428Y-75492285D01*
X169524285Y-75606571D01*
X169467142Y-75663714D01*
X169352857Y-75720857D01*
X168895714Y-75720857D01*
X168895714Y-74520857D01*
X169295714Y-74520857D01*
X169410000Y-74578000D01*
X169467142Y-74635142D01*
X169524285Y-74749428D01*
X169524285Y-74863714D01*
X169467142Y-74978000D01*
X169410000Y-75035142D01*
X169295714Y-75092285D01*
X168895714Y-75092285D01*
X170610000Y-74920857D02*
X170610000Y-75720857D01*
X170095714Y-74920857D02*
X170095714Y-75549428D01*
X170152857Y-75663714D01*
X170267142Y-75720857D01*
X170438571Y-75720857D01*
X170552857Y-75663714D01*
X170610000Y-75606571D01*
X171010000Y-74920857D02*
X171467142Y-74920857D01*
X171181428Y-74520857D02*
X171181428Y-75549428D01*
X171238571Y-75663714D01*
X171352857Y-75720857D01*
X171467142Y-75720857D01*
X171695714Y-74920857D02*
X172152857Y-74920857D01*
X171867142Y-74520857D02*
X171867142Y-75549428D01*
X171924285Y-75663714D01*
X172038571Y-75720857D01*
X172152857Y-75720857D01*
X172724285Y-75720857D02*
X172610000Y-75663714D01*
X172552857Y-75606571D01*
X172495714Y-75492285D01*
X172495714Y-75149428D01*
X172552857Y-75035142D01*
X172610000Y-74978000D01*
X172724285Y-74920857D01*
X172895714Y-74920857D01*
X173010000Y-74978000D01*
X173067142Y-75035142D01*
X173124285Y-75149428D01*
X173124285Y-75492285D01*
X173067142Y-75606571D01*
X173010000Y-75663714D01*
X172895714Y-75720857D01*
X172724285Y-75720857D01*
X173638571Y-74920857D02*
X173638571Y-75720857D01*
X173638571Y-75035142D02*
X173695714Y-74978000D01*
X173810000Y-74920857D01*
X173981428Y-74920857D01*
X174095714Y-74978000D01*
X174152857Y-75092285D01*
X174152857Y-75720857D01*
X175352857Y-75720857D02*
X174667142Y-75720857D01*
X175010000Y-75720857D02*
X175010000Y-74520857D01*
X174895714Y-74692285D01*
X174781428Y-74806571D01*
X174667142Y-74863714D01*
X169295714Y-78956285D02*
X169467142Y-79013428D01*
X169524285Y-79070571D01*
X169581428Y-79184857D01*
X169581428Y-79356285D01*
X169524285Y-79470571D01*
X169467142Y-79527714D01*
X169352857Y-79584857D01*
X168895714Y-79584857D01*
X168895714Y-78384857D01*
X169295714Y-78384857D01*
X169410000Y-78442000D01*
X169467142Y-78499142D01*
X169524285Y-78613428D01*
X169524285Y-78727714D01*
X169467142Y-78842000D01*
X169410000Y-78899142D01*
X169295714Y-78956285D01*
X168895714Y-78956285D01*
X170610000Y-78784857D02*
X170610000Y-79584857D01*
X170095714Y-78784857D02*
X170095714Y-79413428D01*
X170152857Y-79527714D01*
X170267142Y-79584857D01*
X170438571Y-79584857D01*
X170552857Y-79527714D01*
X170610000Y-79470571D01*
X171010000Y-78784857D02*
X171467142Y-78784857D01*
X171181428Y-78384857D02*
X171181428Y-79413428D01*
X171238571Y-79527714D01*
X171352857Y-79584857D01*
X171467142Y-79584857D01*
X171695714Y-78784857D02*
X172152857Y-78784857D01*
X171867142Y-78384857D02*
X171867142Y-79413428D01*
X171924285Y-79527714D01*
X172038571Y-79584857D01*
X172152857Y-79584857D01*
X172724285Y-79584857D02*
X172610000Y-79527714D01*
X172552857Y-79470571D01*
X172495714Y-79356285D01*
X172495714Y-79013428D01*
X172552857Y-78899142D01*
X172610000Y-78842000D01*
X172724285Y-78784857D01*
X172895714Y-78784857D01*
X173010000Y-78842000D01*
X173067142Y-78899142D01*
X173124285Y-79013428D01*
X173124285Y-79356285D01*
X173067142Y-79470571D01*
X173010000Y-79527714D01*
X172895714Y-79584857D01*
X172724285Y-79584857D01*
X173638571Y-78784857D02*
X173638571Y-79584857D01*
X173638571Y-78899142D02*
X173695714Y-78842000D01*
X173810000Y-78784857D01*
X173981428Y-78784857D01*
X174095714Y-78842000D01*
X174152857Y-78956285D01*
X174152857Y-79584857D01*
X174667142Y-78499142D02*
X174724285Y-78442000D01*
X174838571Y-78384857D01*
X175124285Y-78384857D01*
X175238571Y-78442000D01*
X175295714Y-78499142D01*
X175352857Y-78613428D01*
X175352857Y-78727714D01*
X175295714Y-78899142D01*
X174610000Y-79584857D01*
X175352857Y-79584857D01*
X169295714Y-82820285D02*
X169467142Y-82877428D01*
X169524285Y-82934571D01*
X169581428Y-83048857D01*
X169581428Y-83220285D01*
X169524285Y-83334571D01*
X169467142Y-83391714D01*
X169352857Y-83448857D01*
X168895714Y-83448857D01*
X168895714Y-82248857D01*
X169295714Y-82248857D01*
X169410000Y-82306000D01*
X169467142Y-82363142D01*
X169524285Y-82477428D01*
X169524285Y-82591714D01*
X169467142Y-82706000D01*
X169410000Y-82763142D01*
X169295714Y-82820285D01*
X168895714Y-82820285D01*
X170610000Y-82648857D02*
X170610000Y-83448857D01*
X170095714Y-82648857D02*
X170095714Y-83277428D01*
X170152857Y-83391714D01*
X170267142Y-83448857D01*
X170438571Y-83448857D01*
X170552857Y-83391714D01*
X170610000Y-83334571D01*
X171010000Y-82648857D02*
X171467142Y-82648857D01*
X171181428Y-82248857D02*
X171181428Y-83277428D01*
X171238571Y-83391714D01*
X171352857Y-83448857D01*
X171467142Y-83448857D01*
X171695714Y-82648857D02*
X172152857Y-82648857D01*
X171867142Y-82248857D02*
X171867142Y-83277428D01*
X171924285Y-83391714D01*
X172038571Y-83448857D01*
X172152857Y-83448857D01*
X172724285Y-83448857D02*
X172610000Y-83391714D01*
X172552857Y-83334571D01*
X172495714Y-83220285D01*
X172495714Y-82877428D01*
X172552857Y-82763142D01*
X172610000Y-82706000D01*
X172724285Y-82648857D01*
X172895714Y-82648857D01*
X173010000Y-82706000D01*
X173067142Y-82763142D01*
X173124285Y-82877428D01*
X173124285Y-83220285D01*
X173067142Y-83334571D01*
X173010000Y-83391714D01*
X172895714Y-83448857D01*
X172724285Y-83448857D01*
X173638571Y-82648857D02*
X173638571Y-83448857D01*
X173638571Y-82763142D02*
X173695714Y-82706000D01*
X173810000Y-82648857D01*
X173981428Y-82648857D01*
X174095714Y-82706000D01*
X174152857Y-82820285D01*
X174152857Y-83448857D01*
X174610000Y-82248857D02*
X175352857Y-82248857D01*
X174952857Y-82706000D01*
X175124285Y-82706000D01*
X175238571Y-82763142D01*
X175295714Y-82820285D01*
X175352857Y-82934571D01*
X175352857Y-83220285D01*
X175295714Y-83334571D01*
X175238571Y-83391714D01*
X175124285Y-83448857D01*
X174781428Y-83448857D01*
X174667142Y-83391714D01*
X174610000Y-83334571D01*
X169295714Y-86684285D02*
X169467142Y-86741428D01*
X169524285Y-86798571D01*
X169581428Y-86912857D01*
X169581428Y-87084285D01*
X169524285Y-87198571D01*
X169467142Y-87255714D01*
X169352857Y-87312857D01*
X168895714Y-87312857D01*
X168895714Y-86112857D01*
X169295714Y-86112857D01*
X169410000Y-86170000D01*
X169467142Y-86227142D01*
X169524285Y-86341428D01*
X169524285Y-86455714D01*
X169467142Y-86570000D01*
X169410000Y-86627142D01*
X169295714Y-86684285D01*
X168895714Y-86684285D01*
X170610000Y-86512857D02*
X170610000Y-87312857D01*
X170095714Y-86512857D02*
X170095714Y-87141428D01*
X170152857Y-87255714D01*
X170267142Y-87312857D01*
X170438571Y-87312857D01*
X170552857Y-87255714D01*
X170610000Y-87198571D01*
X171010000Y-86512857D02*
X171467142Y-86512857D01*
X171181428Y-86112857D02*
X171181428Y-87141428D01*
X171238571Y-87255714D01*
X171352857Y-87312857D01*
X171467142Y-87312857D01*
X171695714Y-86512857D02*
X172152857Y-86512857D01*
X171867142Y-86112857D02*
X171867142Y-87141428D01*
X171924285Y-87255714D01*
X172038571Y-87312857D01*
X172152857Y-87312857D01*
X172724285Y-87312857D02*
X172610000Y-87255714D01*
X172552857Y-87198571D01*
X172495714Y-87084285D01*
X172495714Y-86741428D01*
X172552857Y-86627142D01*
X172610000Y-86570000D01*
X172724285Y-86512857D01*
X172895714Y-86512857D01*
X173010000Y-86570000D01*
X173067142Y-86627142D01*
X173124285Y-86741428D01*
X173124285Y-87084285D01*
X173067142Y-87198571D01*
X173010000Y-87255714D01*
X172895714Y-87312857D01*
X172724285Y-87312857D01*
X173638571Y-86512857D02*
X173638571Y-87312857D01*
X173638571Y-86627142D02*
X173695714Y-86570000D01*
X173810000Y-86512857D01*
X173981428Y-86512857D01*
X174095714Y-86570000D01*
X174152857Y-86684285D01*
X174152857Y-87312857D01*
X175238571Y-86512857D02*
X175238571Y-87312857D01*
X174952857Y-86055714D02*
X174667142Y-86912857D01*
X175410000Y-86912857D01*
X169467142Y-91176857D02*
X168895714Y-91176857D01*
X168895714Y-89976857D01*
X169867142Y-90548285D02*
X170267142Y-90548285D01*
X170438571Y-91176857D02*
X169867142Y-91176857D01*
X169867142Y-89976857D01*
X170438571Y-89976857D01*
X170952857Y-91176857D02*
X170952857Y-89976857D01*
X171238571Y-89976857D01*
X171410000Y-90034000D01*
X171524285Y-90148285D01*
X171581428Y-90262571D01*
X171638571Y-90491142D01*
X171638571Y-90662571D01*
X171581428Y-90891142D01*
X171524285Y-91005428D01*
X171410000Y-91119714D01*
X171238571Y-91176857D01*
X170952857Y-91176857D01*
X172781428Y-91176857D02*
X172095714Y-91176857D01*
X172438571Y-91176857D02*
X172438571Y-89976857D01*
X172324285Y-90148285D01*
X172210000Y-90262571D01*
X172095714Y-90319714D01*
X169467142Y-95040857D02*
X168895714Y-95040857D01*
X168895714Y-93840857D01*
X169867142Y-94412285D02*
X170267142Y-94412285D01*
X170438571Y-95040857D02*
X169867142Y-95040857D01*
X169867142Y-93840857D01*
X170438571Y-93840857D01*
X170952857Y-95040857D02*
X170952857Y-93840857D01*
X171238571Y-93840857D01*
X171410000Y-93898000D01*
X171524285Y-94012285D01*
X171581428Y-94126571D01*
X171638571Y-94355142D01*
X171638571Y-94526571D01*
X171581428Y-94755142D01*
X171524285Y-94869428D01*
X171410000Y-94983714D01*
X171238571Y-95040857D01*
X170952857Y-95040857D01*
X172095714Y-93955142D02*
X172152857Y-93898000D01*
X172267142Y-93840857D01*
X172552857Y-93840857D01*
X172667142Y-93898000D01*
X172724285Y-93955142D01*
X172781428Y-94069428D01*
X172781428Y-94183714D01*
X172724285Y-94355142D01*
X172038571Y-95040857D01*
X172781428Y-95040857D01*
X168895714Y-98904857D02*
X168895714Y-97704857D01*
X169695714Y-97704857D02*
X169924285Y-97704857D01*
X170038571Y-97762000D01*
X170152857Y-97876285D01*
X170210000Y-98104857D01*
X170210000Y-98504857D01*
X170152857Y-98733428D01*
X170038571Y-98847714D01*
X169924285Y-98904857D01*
X169695714Y-98904857D01*
X169581428Y-98847714D01*
X169467142Y-98733428D01*
X169410000Y-98504857D01*
X169410000Y-98104857D01*
X169467142Y-97876285D01*
X169581428Y-97762000D01*
X169695714Y-97704857D01*
X170610000Y-97704857D02*
X171352857Y-97704857D01*
X170952857Y-98162000D01*
X171124285Y-98162000D01*
X171238571Y-98219142D01*
X171295714Y-98276285D01*
X171352857Y-98390571D01*
X171352857Y-98676285D01*
X171295714Y-98790571D01*
X171238571Y-98847714D01*
X171124285Y-98904857D01*
X170781428Y-98904857D01*
X170667142Y-98847714D01*
X170610000Y-98790571D01*
X171752857Y-97704857D02*
X172495714Y-97704857D01*
X172095714Y-98162000D01*
X172267142Y-98162000D01*
X172381428Y-98219142D01*
X172438571Y-98276285D01*
X172495714Y-98390571D01*
X172495714Y-98676285D01*
X172438571Y-98790571D01*
X172381428Y-98847714D01*
X172267142Y-98904857D01*
X171924285Y-98904857D01*
X171810000Y-98847714D01*
X171752857Y-98790571D01*
X168895714Y-102768857D02*
X168895714Y-101568857D01*
X169695714Y-101568857D02*
X169924285Y-101568857D01*
X170038571Y-101626000D01*
X170152857Y-101740285D01*
X170210000Y-101968857D01*
X170210000Y-102368857D01*
X170152857Y-102597428D01*
X170038571Y-102711714D01*
X169924285Y-102768857D01*
X169695714Y-102768857D01*
X169581428Y-102711714D01*
X169467142Y-102597428D01*
X169410000Y-102368857D01*
X169410000Y-101968857D01*
X169467142Y-101740285D01*
X169581428Y-101626000D01*
X169695714Y-101568857D01*
X170667142Y-101683142D02*
X170724285Y-101626000D01*
X170838571Y-101568857D01*
X171124285Y-101568857D01*
X171238571Y-101626000D01*
X171295714Y-101683142D01*
X171352857Y-101797428D01*
X171352857Y-101911714D01*
X171295714Y-102083142D01*
X170610000Y-102768857D01*
X171352857Y-102768857D01*
X171752857Y-101568857D02*
X172552857Y-101568857D01*
X172038571Y-102768857D01*
X168895714Y-106632857D02*
X168895714Y-105432857D01*
X169695714Y-105432857D02*
X169924285Y-105432857D01*
X170038571Y-105490000D01*
X170152857Y-105604285D01*
X170210000Y-105832857D01*
X170210000Y-106232857D01*
X170152857Y-106461428D01*
X170038571Y-106575714D01*
X169924285Y-106632857D01*
X169695714Y-106632857D01*
X169581428Y-106575714D01*
X169467142Y-106461428D01*
X169410000Y-106232857D01*
X169410000Y-105832857D01*
X169467142Y-105604285D01*
X169581428Y-105490000D01*
X169695714Y-105432857D01*
X170667142Y-105547142D02*
X170724285Y-105490000D01*
X170838571Y-105432857D01*
X171124285Y-105432857D01*
X171238571Y-105490000D01*
X171295714Y-105547142D01*
X171352857Y-105661428D01*
X171352857Y-105775714D01*
X171295714Y-105947142D01*
X170610000Y-106632857D01*
X171352857Y-106632857D01*
X168838571Y-110439714D02*
X169010000Y-110496857D01*
X169295714Y-110496857D01*
X169410000Y-110439714D01*
X169467142Y-110382571D01*
X169524285Y-110268285D01*
X169524285Y-110154000D01*
X169467142Y-110039714D01*
X169410000Y-109982571D01*
X169295714Y-109925428D01*
X169067142Y-109868285D01*
X168952857Y-109811142D01*
X168895714Y-109754000D01*
X168838571Y-109639714D01*
X168838571Y-109525428D01*
X168895714Y-109411142D01*
X168952857Y-109354000D01*
X169067142Y-109296857D01*
X169352857Y-109296857D01*
X169524285Y-109354000D01*
X170038571Y-110496857D02*
X170038571Y-109296857D01*
X170324285Y-109296857D01*
X170495714Y-109354000D01*
X170610000Y-109468285D01*
X170667142Y-109582571D01*
X170724285Y-109811142D01*
X170724285Y-109982571D01*
X170667142Y-110211142D01*
X170610000Y-110325428D01*
X170495714Y-110439714D01*
X170324285Y-110496857D01*
X170038571Y-110496857D01*
X168781428Y-113160857D02*
X169067142Y-114360857D01*
X169295714Y-113503714D01*
X169524285Y-114360857D01*
X169810000Y-113160857D01*
X170210000Y-114303714D02*
X170381428Y-114360857D01*
X170667142Y-114360857D01*
X170781428Y-114303714D01*
X170838571Y-114246571D01*
X170895714Y-114132285D01*
X170895714Y-114018000D01*
X170838571Y-113903714D01*
X170781428Y-113846571D01*
X170667142Y-113789428D01*
X170438571Y-113732285D01*
X170324285Y-113675142D01*
X170267142Y-113618000D01*
X170210000Y-113503714D01*
X170210000Y-113389428D01*
X170267142Y-113275142D01*
X170324285Y-113218000D01*
X170438571Y-113160857D01*
X170724285Y-113160857D01*
X170895714Y-113218000D01*
X168838571Y-118167714D02*
X169010000Y-118224857D01*
X169295714Y-118224857D01*
X169410000Y-118167714D01*
X169467142Y-118110571D01*
X169524285Y-117996285D01*
X169524285Y-117882000D01*
X169467142Y-117767714D01*
X169410000Y-117710571D01*
X169295714Y-117653428D01*
X169067142Y-117596285D01*
X168952857Y-117539142D01*
X168895714Y-117482000D01*
X168838571Y-117367714D01*
X168838571Y-117253428D01*
X168895714Y-117139142D01*
X168952857Y-117082000D01*
X169067142Y-117024857D01*
X169352857Y-117024857D01*
X169524285Y-117082000D01*
X170724285Y-118110571D02*
X170667142Y-118167714D01*
X170495714Y-118224857D01*
X170381428Y-118224857D01*
X170210000Y-118167714D01*
X170095714Y-118053428D01*
X170038571Y-117939142D01*
X169981428Y-117710571D01*
X169981428Y-117539142D01*
X170038571Y-117310571D01*
X170095714Y-117196285D01*
X170210000Y-117082000D01*
X170381428Y-117024857D01*
X170495714Y-117024857D01*
X170667142Y-117082000D01*
X170724285Y-117139142D01*
X171238571Y-118224857D02*
X171238571Y-117024857D01*
X171924285Y-118224857D02*
X171410000Y-117539142D01*
X171924285Y-117024857D02*
X171238571Y-117710571D01*
X118055714Y-115000857D02*
X117484285Y-115000857D01*
X117427142Y-115572285D01*
X117484285Y-115515142D01*
X117598571Y-115458000D01*
X117884285Y-115458000D01*
X117998571Y-115515142D01*
X118055714Y-115572285D01*
X118112857Y-115686571D01*
X118112857Y-115972285D01*
X118055714Y-116086571D01*
X117998571Y-116143714D01*
X117884285Y-116200857D01*
X117598571Y-116200857D01*
X117484285Y-116143714D01*
X117427142Y-116086571D01*
X118455714Y-115000857D02*
X118855714Y-116200857D01*
X119255714Y-115000857D01*
X116570000Y-118132857D02*
X116570000Y-116932857D01*
X117141428Y-118132857D02*
X117141428Y-116932857D01*
X117827142Y-118132857D01*
X117827142Y-116932857D01*
X119255714Y-116875714D02*
X118227142Y-118418571D01*
X116455714Y-118864857D02*
X116684285Y-118864857D01*
X116798571Y-118922000D01*
X116912857Y-119036285D01*
X116970000Y-119264857D01*
X116970000Y-119664857D01*
X116912857Y-119893428D01*
X116798571Y-120007714D01*
X116684285Y-120064857D01*
X116455714Y-120064857D01*
X116341428Y-120007714D01*
X116227142Y-119893428D01*
X116170000Y-119664857D01*
X116170000Y-119264857D01*
X116227142Y-119036285D01*
X116341428Y-118922000D01*
X116455714Y-118864857D01*
X117484285Y-118864857D02*
X117484285Y-119836285D01*
X117541428Y-119950571D01*
X117598571Y-120007714D01*
X117712857Y-120064857D01*
X117941428Y-120064857D01*
X118055714Y-120007714D01*
X118112857Y-119950571D01*
X118170000Y-119836285D01*
X118170000Y-118864857D01*
X118570000Y-118864857D02*
X119255714Y-118864857D01*
X118912857Y-120064857D02*
X118912857Y-118864857D01*
X115655714Y-102586857D02*
X116398571Y-102586857D01*
X115998571Y-103044000D01*
X116170000Y-103044000D01*
X116284285Y-103101142D01*
X116341428Y-103158285D01*
X116398571Y-103272571D01*
X116398571Y-103558285D01*
X116341428Y-103672571D01*
X116284285Y-103729714D01*
X116170000Y-103786857D01*
X115827142Y-103786857D01*
X115712857Y-103729714D01*
X115655714Y-103672571D01*
X116912857Y-103672571D02*
X116970000Y-103729714D01*
X116912857Y-103786857D01*
X116855714Y-103729714D01*
X116912857Y-103672571D01*
X116912857Y-103786857D01*
X117370000Y-102586857D02*
X118112857Y-102586857D01*
X117712857Y-103044000D01*
X117884285Y-103044000D01*
X117998571Y-103101142D01*
X118055714Y-103158285D01*
X118112857Y-103272571D01*
X118112857Y-103558285D01*
X118055714Y-103672571D01*
X117998571Y-103729714D01*
X117884285Y-103786857D01*
X117541428Y-103786857D01*
X117427142Y-103729714D01*
X117370000Y-103672571D01*
X118455714Y-102586857D02*
X118855714Y-103786857D01*
X119255714Y-102586857D01*
X116455714Y-104518857D02*
X116684285Y-104518857D01*
X116798571Y-104576000D01*
X116912857Y-104690285D01*
X116970000Y-104918857D01*
X116970000Y-105318857D01*
X116912857Y-105547428D01*
X116798571Y-105661714D01*
X116684285Y-105718857D01*
X116455714Y-105718857D01*
X116341428Y-105661714D01*
X116227142Y-105547428D01*
X116170000Y-105318857D01*
X116170000Y-104918857D01*
X116227142Y-104690285D01*
X116341428Y-104576000D01*
X116455714Y-104518857D01*
X117484285Y-104518857D02*
X117484285Y-105490285D01*
X117541428Y-105604571D01*
X117598571Y-105661714D01*
X117712857Y-105718857D01*
X117941428Y-105718857D01*
X118055714Y-105661714D01*
X118112857Y-105604571D01*
X118170000Y-105490285D01*
X118170000Y-104518857D01*
X118570000Y-104518857D02*
X119255714Y-104518857D01*
X118912857Y-105718857D02*
X118912857Y-104518857D01*
X171041428Y-132272857D02*
X170641428Y-131701428D01*
X170355714Y-132272857D02*
X170355714Y-131072857D01*
X170812857Y-131072857D01*
X170927142Y-131130000D01*
X170984285Y-131187142D01*
X171041428Y-131301428D01*
X171041428Y-131472857D01*
X170984285Y-131587142D01*
X170927142Y-131644285D01*
X170812857Y-131701428D01*
X170355714Y-131701428D01*
X171555714Y-131644285D02*
X171955714Y-131644285D01*
X172127142Y-132272857D02*
X171555714Y-132272857D01*
X171555714Y-131072857D01*
X172127142Y-131072857D01*
X172584285Y-132215714D02*
X172755714Y-132272857D01*
X173041428Y-132272857D01*
X173155714Y-132215714D01*
X173212857Y-132158571D01*
X173270000Y-132044285D01*
X173270000Y-131930000D01*
X173212857Y-131815714D01*
X173155714Y-131758571D01*
X173041428Y-131701428D01*
X172812857Y-131644285D01*
X172698571Y-131587142D01*
X172641428Y-131530000D01*
X172584285Y-131415714D01*
X172584285Y-131301428D01*
X172641428Y-131187142D01*
X172698571Y-131130000D01*
X172812857Y-131072857D01*
X173098571Y-131072857D01*
X173270000Y-131130000D01*
X173784285Y-131644285D02*
X174184285Y-131644285D01*
X174355714Y-132272857D02*
X173784285Y-132272857D01*
X173784285Y-131072857D01*
X174355714Y-131072857D01*
X174698571Y-131072857D02*
X175384285Y-131072857D01*
X175041428Y-132272857D02*
X175041428Y-131072857D01*
X116627142Y-85810000D02*
X116512857Y-85752857D01*
X116341428Y-85752857D01*
X116170000Y-85810000D01*
X116055714Y-85924285D01*
X115998571Y-86038571D01*
X115941428Y-86267142D01*
X115941428Y-86438571D01*
X115998571Y-86667142D01*
X116055714Y-86781428D01*
X116170000Y-86895714D01*
X116341428Y-86952857D01*
X116455714Y-86952857D01*
X116627142Y-86895714D01*
X116684285Y-86838571D01*
X116684285Y-86438571D01*
X116455714Y-86438571D01*
X117198571Y-86952857D02*
X117198571Y-85752857D01*
X117884285Y-86952857D01*
X117884285Y-85752857D01*
X118455714Y-86952857D02*
X118455714Y-85752857D01*
X118741428Y-85752857D01*
X118912857Y-85810000D01*
X119027142Y-85924285D01*
X119084285Y-86038571D01*
X119141428Y-86267142D01*
X119141428Y-86438571D01*
X119084285Y-86667142D01*
X119027142Y-86781428D01*
X118912857Y-86895714D01*
X118741428Y-86952857D01*
X118455714Y-86952857D01*
D12*
%TO.C,F1*%
X146646666Y-128818571D02*
X146313333Y-128818571D01*
X146313333Y-129342380D02*
X146313333Y-128342380D01*
X146789523Y-128342380D01*
X147694285Y-129342380D02*
X147122857Y-129342380D01*
X147408571Y-129342380D02*
X147408571Y-128342380D01*
X147313333Y-128485238D01*
X147218095Y-128580476D01*
X147122857Y-128628095D01*
D13*
%TO.C,C8*%
X143100000Y-95866267D02*
X143100000Y-95573733D01*
X144120000Y-95866267D02*
X144120000Y-95573733D01*
%TO.C,C4*%
X137030000Y-121704437D02*
X137030000Y-127460000D01*
X131274437Y-120640000D02*
X132560000Y-120640000D01*
X135965563Y-120640000D02*
X137030000Y-121704437D01*
X135861250Y-120006250D02*
X135073750Y-120006250D01*
X137030000Y-127460000D02*
X134680000Y-127460000D01*
X130210000Y-121704437D02*
X130210000Y-127460000D01*
X135965563Y-120640000D02*
X134680000Y-120640000D01*
X130210000Y-127460000D02*
X132560000Y-127460000D01*
X135467500Y-119612500D02*
X135467500Y-120400000D01*
X131274437Y-120640000D02*
X130210000Y-121704437D01*
D14*
%TO.C,U7*%
X134857600Y-90026700D02*
X134857600Y-90676700D01*
X152857600Y-90676700D02*
X152857600Y-90026700D01*
X134857600Y-90676700D02*
X137307600Y-90676700D01*
X150407600Y-90676700D02*
X152857600Y-90676700D01*
D11*
X133957600Y-72676700D02*
G75*
G03*
X133957600Y-72676700I-100000J0D01*
G01*
D13*
%TO.C,R1*%
X155167500Y-84304724D02*
X155167500Y-83795276D01*
X156212500Y-84304724D02*
X156212500Y-83795276D01*
D11*
%TO.C,U13*%
X153929784Y-111804943D02*
X153279797Y-111804943D01*
X149279797Y-111804943D02*
X148629810Y-111804943D01*
X153929784Y-117104917D02*
X153929784Y-116454930D01*
X149279797Y-117104917D02*
X148629810Y-117104917D01*
X153929784Y-112454930D02*
X153929784Y-111804943D01*
X153279797Y-117104917D02*
X153929784Y-117104917D01*
X148629810Y-111804943D02*
X148629810Y-112454930D01*
X148629810Y-117104917D02*
X148629810Y-116454930D01*
D15*
X148831232Y-117454676D02*
G75*
G03*
X148828692Y-117454676I-1270J-161288D01*
G01*
D13*
%TO.C,C3*%
X133300000Y-73188733D02*
X133300000Y-73481267D01*
X132280000Y-73188733D02*
X132280000Y-73481267D01*
%TO.C,C11*%
X140140933Y-119711850D02*
X140433467Y-119711850D01*
X140140933Y-118691850D02*
X140433467Y-118691850D01*
D16*
%TO.C,SW2*%
X118589987Y-133290000D02*
X114890013Y-133290000D01*
X118589987Y-136290000D02*
X114889987Y-136290000D01*
X117629002Y-134790000D02*
G75*
G03*
X117629002Y-134790000I-889002J0D01*
G01*
D13*
%TO.C,C7*%
X153726030Y-121104930D02*
X154018564Y-121104930D01*
X153726030Y-120084930D02*
X154018564Y-120084930D01*
%TO.C,R7*%
X154717476Y-96224350D02*
X155226924Y-96224350D01*
X154717476Y-95179350D02*
X155226924Y-95179350D01*
D11*
%TO.C,U8*%
X157528042Y-86859751D02*
X155728017Y-86859751D01*
X156882068Y-88875753D02*
X157528042Y-88875753D01*
X156374067Y-88875753D02*
X155728017Y-88875753D01*
X155728017Y-86859751D02*
X155728017Y-88859700D01*
X157528042Y-88859700D02*
X157528042Y-86859751D01*
X156882043Y-88875728D02*
G75*
G03*
X156374041Y-88875728I-254001J0D01*
G01*
D17*
X158116367Y-89112352D02*
G75*
G03*
X158116367Y-89112352I-65798J0D01*
G01*
D13*
%TO.C,C6*%
X132140000Y-117816267D02*
X132140000Y-117523733D01*
X131120000Y-117816267D02*
X131120000Y-117523733D01*
D11*
%TO.C,U14*%
X144070000Y-114850000D02*
X145470000Y-114850000D01*
X144070000Y-117050000D02*
X145470000Y-117050000D01*
X145863472Y-117044209D02*
G75*
G03*
X145860932Y-117044209I-1270J-134405D01*
G01*
D18*
X145853439Y-117049924D02*
G75*
G03*
X145853439Y-117049924I-29997J0D01*
G01*
D13*
%TO.C,C2*%
X155139700Y-90895583D02*
X155139700Y-91188117D01*
X156159700Y-90895583D02*
X156159700Y-91188117D01*
%TO.C,C12*%
X131976267Y-82360000D02*
X131683733Y-82360000D01*
X131976267Y-81340000D02*
X131683733Y-81340000D01*
%TO.C,F1*%
X148366252Y-127950000D02*
X145593748Y-127950000D01*
X148366252Y-124530000D02*
X145593748Y-124530000D01*
D18*
%TO.C,U35*%
X137595093Y-121669873D02*
G75*
G03*
X137595093Y-121669873I-29972J0D01*
G01*
D19*
X140303703Y-123131036D02*
X137576297Y-123131036D01*
X137576297Y-121768832D02*
X137576297Y-127171168D01*
X140303703Y-121768832D02*
X140303703Y-127171168D01*
X140303703Y-127171168D02*
X139953208Y-127171168D01*
X137576297Y-127171168D02*
X137926792Y-127171168D01*
D13*
%TO.C,C15*%
X131986267Y-84290000D02*
X131693733Y-84290000D01*
X131986267Y-83270000D02*
X131693733Y-83270000D01*
D20*
%TO.C,U11*%
X138266998Y-97006002D02*
X138266998Y-97260003D01*
X140553002Y-94719997D02*
X140553002Y-94973998D01*
X139918001Y-94719997D02*
X140553002Y-94719997D01*
X138266998Y-97260003D02*
X138901999Y-97260003D01*
X138266998Y-94719997D02*
X138901999Y-94719997D01*
X140553002Y-97260003D02*
X140553002Y-97034120D01*
X139918001Y-97260003D02*
X140553002Y-97260003D01*
X138266998Y-94973998D02*
X138266998Y-94719997D01*
D21*
X140942386Y-96740064D02*
G75*
G03*
X140942386Y-96740064I-74931J0D01*
G01*
D18*
X140439997Y-96990000D02*
G75*
G03*
X140439997Y-96990000I-29997J0D01*
G01*
D13*
%TO.C,C13*%
X132046267Y-76665000D02*
X131753733Y-76665000D01*
X132046267Y-75645000D02*
X131753733Y-75645000D01*
%TO.C,R8*%
X156967500Y-84304724D02*
X156967500Y-83795276D01*
X158012500Y-84304724D02*
X158012500Y-83795276D01*
%TO.C,R6*%
X132154724Y-79222500D02*
X131645276Y-79222500D01*
X132154724Y-80267500D02*
X131645276Y-80267500D01*
%TO.C,R4*%
X131645276Y-78472500D02*
X132154724Y-78472500D01*
X131645276Y-77427500D02*
X132154724Y-77427500D01*
%TO.C,C5*%
X154018564Y-119224930D02*
X153726030Y-119224930D01*
X154018564Y-118204930D02*
X153726030Y-118204930D01*
%TO.C,R2*%
X153472500Y-128205276D02*
X153472500Y-128714724D01*
X152427500Y-128205276D02*
X152427500Y-128714724D01*
D22*
%TO.C,U15*%
X130530025Y-85334892D02*
X130930025Y-85334892D01*
X130971935Y-89134867D02*
X130330050Y-89134867D01*
X133350091Y-88482009D02*
X133350091Y-89114903D01*
X133350091Y-89114903D02*
X133330050Y-89134867D01*
X130328933Y-85135858D02*
X130328933Y-85496589D01*
X130330050Y-88492982D02*
X130330050Y-89134867D01*
X133330050Y-89134867D02*
X132688166Y-89134867D01*
X133350091Y-85134867D02*
X132688166Y-85134867D01*
X130971554Y-85135858D02*
X130328933Y-85135858D01*
X130530025Y-85734892D02*
X130530025Y-85334892D01*
X130330050Y-85497199D02*
X130330050Y-85776752D01*
X133350091Y-85134867D02*
X133350091Y-85787725D01*
D18*
X130360022Y-85134892D02*
G75*
G03*
X130360022Y-85134892I-29997J0D01*
G01*
D13*
%TO.C,C14*%
X154825933Y-96991850D02*
X155118467Y-96991850D01*
X154825933Y-98011850D02*
X155118467Y-98011850D01*
%TO.C,C1*%
X158089700Y-90895583D02*
X158089700Y-91188117D01*
X157069700Y-90895583D02*
X157069700Y-91188117D01*
%TO.C,R5*%
X155226924Y-94424350D02*
X154717476Y-94424350D01*
X155226924Y-93379350D02*
X154717476Y-93379350D01*
D19*
%TO.C,U12*%
X136165800Y-111245637D02*
X138908600Y-111245637D01*
X138908600Y-111245637D02*
X138908600Y-117898063D01*
X138908600Y-117898063D02*
X136165800Y-117898063D01*
X136165800Y-117898063D02*
X136165800Y-111245637D01*
D16*
%TO.C,SW1*%
X174549987Y-133290000D02*
X170850013Y-133290000D01*
X174549987Y-136290000D02*
X170849987Y-136290000D01*
X173589002Y-134790000D02*
G75*
G03*
X173589002Y-134790000I-889002J0D01*
G01*
D13*
%TO.C,C10*%
X145845000Y-95866267D02*
X145845000Y-95573733D01*
X144825000Y-95866267D02*
X144825000Y-95573733D01*
D19*
%TO.C,U34*%
X143613703Y-121768832D02*
X143613703Y-127171168D01*
X143613703Y-127171168D02*
X143263208Y-127171168D01*
X140886297Y-127171168D02*
X141236792Y-127171168D01*
X143613703Y-123131036D02*
X140886297Y-123131036D01*
X140886297Y-121768832D02*
X140886297Y-127171168D01*
D18*
X140905093Y-121669873D02*
G75*
G03*
X140905093Y-121669873I-29972J0D01*
G01*
D13*
%TO.C,J1*%
X148590000Y-99115000D02*
X133290000Y-99115000D01*
X148590000Y-99115000D02*
X148590000Y-101775000D01*
X151190000Y-101775000D02*
X149860000Y-101775000D01*
X151190000Y-100445000D02*
X151190000Y-101775000D01*
X133290000Y-99115000D02*
X133290000Y-101775000D01*
X148590000Y-101775000D02*
X133290000Y-101775000D01*
%TO.C,C9*%
X147570000Y-95866267D02*
X147570000Y-95573733D01*
X146550000Y-95866267D02*
X146550000Y-95573733D01*
%TO.C,R3*%
X151532500Y-128195276D02*
X151532500Y-128704724D01*
X150487500Y-128195276D02*
X150487500Y-128704724D01*
%TD*%
M02*
