%TF.GenerationSoftware,KiCad,Pcbnew,(6.0.9-0)*%
%TF.CreationDate,2022-11-18T22:25:53+01:00*%
%TF.ProjectId,GlowCore,476c6f77-436f-4726-952e-6b696361645f,rev?*%
%TF.SameCoordinates,Original*%
%TF.FileFunction,Soldermask,Bot*%
%TF.FilePolarity,Negative*%
%FSLAX46Y46*%
G04 Gerber Fmt 4.6, Leading zero omitted, Abs format (unit mm)*
G04 Created by KiCad (PCBNEW (6.0.9-0)) date 2022-11-18 22:25:53*
%MOMM*%
%LPD*%
G01*
G04 APERTURE LIST*
G04 Aperture macros list*
%AMFreePoly0*
4,1,22,0.500000,-0.750000,0.000000,-0.750000,0.000000,-0.745033,-0.079941,-0.743568,-0.215256,-0.701293,-0.333266,-0.622738,-0.424486,-0.514219,-0.481581,-0.384460,-0.499164,-0.250000,-0.500000,-0.250000,-0.500000,0.250000,-0.499164,0.250000,-0.499963,0.256109,-0.478152,0.396186,-0.417904,0.524511,-0.324060,0.630769,-0.204165,0.706417,-0.067858,0.745374,0.000000,0.744959,0.000000,0.750000,
0.500000,0.750000,0.500000,-0.750000,0.500000,-0.750000,$1*%
%AMFreePoly1*
4,1,20,0.000000,0.744959,0.073905,0.744508,0.209726,0.703889,0.328688,0.626782,0.421226,0.519385,0.479903,0.390333,0.500000,0.250000,0.500000,-0.250000,0.499851,-0.262216,0.476331,-0.402017,0.414519,-0.529596,0.319384,-0.634700,0.198574,-0.708877,0.061801,-0.746166,0.000000,-0.745033,0.000000,-0.750000,-0.500000,-0.750000,-0.500000,0.750000,0.000000,0.750000,0.000000,0.744959,
0.000000,0.744959,$1*%
G04 Aperture macros list end*
%ADD10C,2.000000*%
%ADD11C,0.700025*%
%ADD12C,5.600000*%
%ADD13O,1.200000X2.200000*%
%ADD14O,1.200000X1.800000*%
%ADD15C,1.500000*%
%ADD16FreePoly0,270.000000*%
%ADD17FreePoly1,270.000000*%
%ADD18FreePoly0,90.000000*%
%ADD19FreePoly1,90.000000*%
G04 APERTURE END LIST*
D10*
%TO.C,P2*%
X123750451Y-104450000D03*
X123750451Y-109451270D03*
X123750451Y-114450000D03*
X123750451Y-119451270D03*
X123750451Y-124450000D03*
X123750451Y-129451270D03*
%TD*%
D11*
%TO.C,SW2*%
X159195260Y-136409868D03*
X160895286Y-136409868D03*
%TD*%
D12*
%TO.C,H4*%
X116300000Y-133761200D03*
%TD*%
D10*
%TO.C,P1*%
X123750451Y-73900000D03*
X123750451Y-78901270D03*
X123750451Y-83900000D03*
X123750451Y-88901270D03*
X123750451Y-93900000D03*
X123750451Y-98901270D03*
%TD*%
D12*
%TO.C,H2*%
X172987800Y-67900000D03*
%TD*%
%TO.C,H8*%
X135915400Y-133761200D03*
%TD*%
%TO.C,H7*%
X164947600Y-67900000D03*
%TD*%
%TO.C,H6*%
X124231400Y-67900000D03*
%TD*%
%TO.C,H1*%
X116300000Y-67947460D03*
%TD*%
D11*
%TO.C,USB1*%
X147560018Y-132332535D03*
X141779982Y-132332535D03*
D13*
X140349959Y-131832408D03*
X148990041Y-131832408D03*
D14*
X148990041Y-136012494D03*
X140349959Y-136012494D03*
%TD*%
D10*
%TO.C,P4*%
X165555549Y-98900000D03*
X165555549Y-93898730D03*
X165555549Y-88900000D03*
X165555549Y-83898730D03*
X165555549Y-78900000D03*
X165555549Y-73898730D03*
%TD*%
D12*
%TO.C,H3*%
X172987800Y-133761200D03*
%TD*%
D11*
%TO.C,SW1*%
X167391486Y-136435268D03*
X165691460Y-136435268D03*
%TD*%
%TO.C,SW3*%
X123785886Y-136435268D03*
X122085860Y-136435268D03*
%TD*%
D12*
%TO.C,H5*%
X153466800Y-133761200D03*
%TD*%
D10*
%TO.C,P3*%
X165555549Y-129450000D03*
X165555549Y-124448730D03*
X165555549Y-119450000D03*
X165555549Y-114448730D03*
X165555549Y-109450000D03*
X165555549Y-104448730D03*
%TD*%
D11*
%TO.C,SW4*%
X130297486Y-136435268D03*
X128597460Y-136435268D03*
%TD*%
D15*
%TO.C,TP1*%
X155041600Y-96647000D03*
%TD*%
D16*
%TO.C,JP1*%
X141147800Y-107528600D03*
D17*
X141147800Y-108828600D03*
%TD*%
D15*
%TO.C,TP6*%
X155041600Y-110687555D03*
%TD*%
%TO.C,TP2*%
X155041600Y-107879444D03*
%TD*%
%TO.C,TP3*%
X155041600Y-99455111D03*
%TD*%
%TO.C,TP5*%
X155041600Y-105071333D03*
%TD*%
D16*
%TO.C,JP5*%
X141147800Y-104074200D03*
D17*
X141147800Y-105374200D03*
%TD*%
D15*
%TO.C,TP7*%
X155041600Y-113495668D03*
%TD*%
D18*
%TO.C,JP3*%
X141147800Y-97805000D03*
D19*
X141147800Y-96505000D03*
%TD*%
D15*
%TO.C,TP4*%
X155041600Y-102263222D03*
%TD*%
D18*
%TO.C,JP2*%
X143154400Y-97805000D03*
D19*
X143154400Y-96505000D03*
%TD*%
M02*
