%TF.GenerationSoftware,KiCad,Pcbnew,(6.0.6-0)*%
%TF.CreationDate,2022-09-05T22:58:31-07:00*%
%TF.ProjectId,5V converter,35562063-6f6e-4766-9572-7465722e6b69,rev?*%
%TF.SameCoordinates,Original*%
%TF.FileFunction,Soldermask,Top*%
%TF.FilePolarity,Negative*%
%FSLAX46Y46*%
G04 Gerber Fmt 4.6, Leading zero omitted, Abs format (unit mm)*
G04 Created by KiCad (PCBNEW (6.0.6-0)) date 2022-09-05 22:58:31*
%MOMM*%
%LPD*%
G01*
G04 APERTURE LIST*
G04 Aperture macros list*
%AMRoundRect*
0 Rectangle with rounded corners*
0 $1 Rounding radius*
0 $2 $3 $4 $5 $6 $7 $8 $9 X,Y pos of 4 corners*
0 Add a 4 corners polygon primitive as box body*
4,1,4,$2,$3,$4,$5,$6,$7,$8,$9,$2,$3,0*
0 Add four circle primitives for the rounded corners*
1,1,$1+$1,$2,$3*
1,1,$1+$1,$4,$5*
1,1,$1+$1,$6,$7*
1,1,$1+$1,$8,$9*
0 Add four rect primitives between the rounded corners*
20,1,$1+$1,$2,$3,$4,$5,0*
20,1,$1+$1,$4,$5,$6,$7,0*
20,1,$1+$1,$6,$7,$8,$9,0*
20,1,$1+$1,$8,$9,$2,$3,0*%
G04 Aperture macros list end*
%ADD10R,3.500000X2.000000*%
%ADD11C,5.600000*%
%ADD12O,0.600000X1.800000*%
%ADD13R,2.289992X2.289992*%
%ADD14R,1.037490X0.532004*%
%ADD15RoundRect,0.237500X0.250000X0.237500X-0.250000X0.237500X-0.250000X-0.237500X0.250000X-0.237500X0*%
%ADD16RoundRect,0.237500X-0.250000X-0.237500X0.250000X-0.237500X0.250000X0.237500X-0.250000X0.237500X0*%
%ADD17RoundRect,0.237500X0.237500X-0.250000X0.237500X0.250000X-0.237500X0.250000X-0.237500X-0.250000X0*%
%ADD18R,4.220015X2.124003*%
%ADD19RoundRect,0.250000X-0.650000X0.412500X-0.650000X-0.412500X0.650000X-0.412500X0.650000X0.412500X0*%
%ADD20RoundRect,0.237500X-0.300000X-0.237500X0.300000X-0.237500X0.300000X0.237500X-0.300000X0.237500X0*%
%ADD21RoundRect,0.237500X0.237500X-0.300000X0.237500X0.300000X-0.237500X0.300000X-0.237500X-0.300000X0*%
%ADD22C,0.800000*%
G04 APERTURE END LIST*
D10*
%TO.C,P5*%
X109067600Y-60096400D03*
%TD*%
%TO.C,P4*%
X92049600Y-58648600D03*
%TD*%
%TO.C,P3*%
X92049600Y-61544200D03*
%TD*%
%TO.C,P2*%
X109067600Y-57023000D03*
%TD*%
%TO.C,P1*%
X92049600Y-55753000D03*
%TD*%
D11*
%TO.C,H4*%
X108051600Y-51174850D03*
%TD*%
%TO.C,H3*%
X108051600Y-66059250D03*
%TD*%
%TO.C,H2*%
X93319600Y-66059250D03*
%TD*%
%TO.C,H1*%
X93319600Y-51174850D03*
%TD*%
D12*
%TO.C,U2*%
X103228798Y-57282687D03*
X101958795Y-57282687D03*
X100688793Y-57282687D03*
X99418790Y-57282687D03*
X99418790Y-62827519D03*
X100688793Y-62827519D03*
X101958795Y-62827519D03*
X103228798Y-62827519D03*
D13*
X101323794Y-60055103D03*
%TD*%
D14*
%TO.C,U1*%
X97773746Y-60405212D03*
X97773746Y-58505288D03*
X95571054Y-59455250D03*
%TD*%
D15*
%TO.C,R5*%
X101855900Y-67684850D03*
X103680900Y-67684850D03*
%TD*%
D16*
%TO.C,R4*%
X103680900Y-65500450D03*
X101855900Y-65500450D03*
%TD*%
D15*
%TO.C,R3*%
X97741100Y-65500450D03*
X99566100Y-65500450D03*
%TD*%
D17*
%TO.C,R2*%
X104241600Y-55218150D03*
X104241600Y-53393150D03*
%TD*%
D16*
%TO.C,R1*%
X95722486Y-61970853D03*
X97547486Y-61970853D03*
%TD*%
D18*
%TO.C,L1*%
X100533200Y-54749650D03*
X100533200Y-50749650D03*
%TD*%
D19*
%TO.C,C4*%
X105511600Y-57029150D03*
X105511600Y-60154150D03*
%TD*%
D20*
%TO.C,C3*%
X105106300Y-62147650D03*
X106831300Y-62147650D03*
%TD*%
%TO.C,C2*%
X95772486Y-56966050D03*
X97497486Y-56966050D03*
%TD*%
D21*
%TO.C,C1*%
X96875600Y-55117350D03*
X96875600Y-53392350D03*
%TD*%
D22*
X106730800Y-54680050D03*
X98399600Y-56610450D03*
X97688400Y-52902050D03*
X99517200Y-60064850D03*
X94843600Y-58439250D03*
X96672400Y-58337650D03*
X105511600Y-58388450D03*
X103530400Y-61080850D03*
X100126800Y-64078050D03*
X100939600Y-65551250D03*
X99905898Y-58325605D03*
X103428800Y-54019650D03*
X102565200Y-56661250D03*
X100533200Y-52394050D03*
M02*
